<?xml version="1.0" encoding="UTF-8" standalone="no"?>
<!-- Created with Inkscape (http://www.inkscape.org/) -->

<svg
   xmlns:dc="http://purl.org/dc/elements/1.1/"
   xmlns:cc="http://creativecommons.org/ns#"
   xmlns:rdf="http://www.w3.org/1999/02/22-rdf-syntax-ns#"
   xmlns:svg="http://www.w3.org/2000/svg"
   xmlns="http://www.w3.org/2000/svg"
   xmlns:inkscape="http://www.inkscape.org/namespaces/inkscape"
   version="1.1"
   width="225"
   height="315"
   id="svg2"
   xml:space="preserve"><metadata
     id="metadata8"><rdf:RDF><cc:Work
         rdf:about=""><dc:format>image/svg+xml</dc:format><dc:type
           rdf:resource="http://purl.org/dc/dcmitype/StillImage" /></cc:Work></rdf:RDF></metadata><defs
     id="defs6" /><g
     transform="matrix(1.25,0,0,-1.25,0,315)"
     id="g10"><g
       transform="scale(0.1,0.1)"
       id="g12"><path
         d="m 1704.88,13.9805 -1615.7394,0 c -47.1094,0 -85.03904,37.9297 -85.03904,85.039 l 0,2324.4205 c 0,47.11 37.92964,85.04 85.03904,85.04 l 1615.7394,0 c 47.11,0 85.04,-37.93 85.04,-85.04 l 0,-2324.4205 c 0,-47.1093 -37.93,-85.039 -85.04,-85.039"
         inkscape:connector-curvature="0"
         id="path14"
         style="fill:#ffffff;fill-opacity:1;fill-rule:nonzero;stroke:none" /><path
         d="m 1704.88,13.9805 -1615.7394,0 c -47.1094,0 -85.03904,37.9297 -85.03904,85.039 l 0,2324.4205 c 0,47.11 37.92964,85.04 85.03904,85.04 l 1615.7394,0 c 47.11,0 85.04,-37.93 85.04,-85.04 l 0,-2324.4205 c 0,-47.1093 -37.93,-85.039 -85.04,-85.039 z"
         inkscape:connector-curvature="0"
         id="path16"
         style="fill:none;stroke:#000000;stroke-width:7.9738698;stroke-linecap:butt;stroke-linejoin:miter;stroke-miterlimit:4;stroke-opacity:1;stroke-dasharray:none" /><path
         d="m 1703.98,124.691 24.918,0 0,252.07 -24.918,0 0,-252.07 z"
         inkscape:connector-curvature="0"
         id="path18"
         style="fill:#000000;fill-opacity:1;fill-rule:nonzero;stroke:none" /><path
         d="m 1630.23,124.691 c 23.99,0 43.25,21.52 43.25,48.2 l 0,155.699 c 0,26.68 -19.26,48.172 -43.25,48.172 l -13.94,0 c -23.95,0 -43.24,-21.492 -43.24,-48.172 l 0,-155.699 c 0,-26.68 19.29,-48.2 43.24,-48.2 l 13.94,0 z m -7.18,23.829 c -14.14,0 -25.55,10.699 -25.55,24.019 l 0,157.77 c 0,13.32 11.41,24.07 25.55,24.07 14.14,0 25.54,-10.75 25.54,-24.07 l 0,-157.77 c 0,-13.32 -11.4,-24.019 -25.54,-24.019"
         inkscape:connector-curvature="0"
         id="path20"
         style="fill:#000000;fill-opacity:1;fill-rule:nonzero;stroke:none" /><path
         d="m 65.1211,2145.74 24.8789,0 0,252.031 -24.8789,0 0,-252.031 z"
         inkscape:connector-curvature="0"
         id="path22"
         style="fill:#000000;fill-opacity:1;fill-rule:nonzero;stroke:none" /><path
         d="m 163.75,2397.77 c -23.949,0 -43.199,-21.48 -43.199,-48.16 l 0,-155.7 c 0,-26.68 19.25,-48.17 43.199,-48.17 l 13.949,0 c 23.981,0 43.281,21.49 43.281,48.17 l 0,155.7 c 0,26.68 -19.3,48.16 -43.281,48.16 l -13.949,0 z m 7.23,-23.82 c 14.141,0 25.5,-10.67 25.5,-23.99 l 0,-157.81 c 0,-13.28 -11.359,-24.03 -25.5,-24.03 -14.179,0 -25.55,10.75 -25.55,24.03 l 0,157.81 c 0,13.32 11.371,23.99 25.55,23.99"
         inkscape:connector-curvature="0"
         id="path24"
         style="fill:#000000;fill-opacity:1;fill-rule:nonzero;stroke:none" /><path
         d="m 1246.17,1300.7 c 23.01,46.21 39.81,93.64 42.78,144.34 2.73,18.63 -8.6,18.94 -10.32,5.82 -32.61,-124.77 -206.09,-90.98 -200.15,26.37 4.84,95.15 99.37,115.62 148.67,84.49 19.49,-11.45 18.36,-4.57 7.73,7.3 -73.24,81.68 -28.86,186.92 70.12,188.83 107.03,-6.37 134.8,-118.94 69.14,-185.19 -8.16,-7.93 -26.25,-33.52 0.98,-15.63 66.29,47.07 158.32,-3.55 156.44,-76.17 -3.47,-133.91 -166.72,-143.91 -201.64,-32.07 -3.36,12.42 -13.04,18.63 -10.35,-2.42 4.84,-38.13 14.84,-95.63 43.48,-145.67"
         inkscape:connector-curvature="0"
         id="path26"
         style="fill:#000000;fill-opacity:1;fill-rule:nonzero;stroke:none" /><path
         d="m 417.891,1300.7 c 23.05,46.21 39.808,93.64 42.769,144.34 2.738,18.63 -8.59,18.94 -10.308,5.82 -32.582,-124.77 -206.09,-90.98 -200.122,26.37 4.848,95.15 99.34,115.62 148.68,84.49 19.449,-11.45 18.36,-4.57 7.731,7.3 -73.243,81.68 -28.871,186.92 70.078,188.83 107.031,-6.37 134.801,-118.94 69.14,-185.19 -8.16,-7.93 -26.25,-33.52 1.02,-15.63 66.281,47.07 158.281,-3.55 156.402,-76.17 -3.48,-133.91 -166.722,-143.91 -201.64,-32.07 -3.36,12.42 -13.012,18.63 -10.352,-2.42 4.84,-38.13 14.84,-95.63 43.512,-145.67"
         inkscape:connector-curvature="0"
         id="path28"
         style="fill:#000000;fill-opacity:1;fill-rule:nonzero;stroke:none" /><path
         d="m 831.602,1562.03 c 23.046,46.21 39.808,93.63 42.808,144.3 2.738,18.67 -8.59,18.98 -10.308,5.86 -32.622,-124.77 -206.09,-90.98 -200.153,26.36 4.84,95.16 99.371,115.63 148.672,84.5 19.449,-11.45 18.359,-4.57 7.731,7.3 -73.243,81.68 -28.872,186.92 70.117,188.83 107.031,-6.37 134.801,-118.98 69.14,-185.2 -8.16,-7.96 -26.289,-33.51 0.981,-15.66 66.29,47.11 158.28,-3.52 156.4,-76.13 -3.44,-133.95 -166.681,-143.91 -201.599,-32.07 -3.36,12.42 -13.051,18.63 -10.352,-2.42 4.801,-38.13 14.84,-95.63 43.481,-145.67"
         inkscape:connector-curvature="0"
         id="path30"
         style="fill:#000000;fill-opacity:1;fill-rule:nonzero;stroke:none" /><path
         d="m 1246.17,1823.36 c 23.01,46.21 39.81,93.63 42.78,144.3 2.73,18.67 -8.6,18.98 -10.32,5.82 -32.61,-124.73 -206.09,-90.94 -200.15,26.4 4.84,95.16 99.37,115.63 148.67,84.5 19.49,-11.45 18.36,-4.61 7.73,7.3 -73.24,81.68 -28.86,186.87 70.12,188.83 107.03,-6.37 134.8,-118.99 69.14,-185.2 -8.16,-7.97 -26.25,-33.51 0.98,-15.66 66.29,47.11 158.32,-3.52 156.44,-76.17 -3.47,-133.91 -166.72,-143.87 -201.64,-32.03 -3.36,12.42 -13.04,18.63 -10.35,-2.43 4.84,-38.12 14.84,-95.62 43.48,-145.66"
         inkscape:connector-curvature="0"
         id="path32"
         style="fill:#000000;fill-opacity:1;fill-rule:nonzero;stroke:none" /><path
         d="m 417.891,1823.36 c 23.05,46.21 39.808,93.63 42.769,144.3 2.738,18.67 -8.59,18.98 -10.308,5.82 -32.582,-124.73 -206.09,-90.94 -200.122,26.4 4.848,95.16 99.34,115.63 148.68,84.5 19.449,-11.45 18.36,-4.61 7.731,7.3 -73.243,81.68 -28.871,186.87 70.078,188.83 107.031,-6.37 134.801,-118.99 69.14,-185.2 -8.16,-7.97 -26.25,-33.51 1.02,-15.66 66.281,47.11 158.281,-3.52 156.402,-76.17 -3.48,-133.91 -166.722,-143.87 -201.64,-32.03 -3.36,12.42 -13.012,18.63 -10.352,-2.43 4.84,-38.12 14.84,-95.62 43.512,-145.66"
         inkscape:connector-curvature="0"
         id="path34"
         style="fill:#000000;fill-opacity:1;fill-rule:nonzero;stroke:none" /><path
         d="m 535.512,1221.76 c -23.051,-46.21 -39.813,-93.6 -42.782,-144.3 -2.73,-18.63 8.598,-18.94 10.282,-5.82 32.609,124.73 206.129,90.98 200.148,-26.37 -4.84,-95.149 -99.371,-115.622 -148.672,-84.532 -19.449,11.492 -18.359,4.614 -7.726,-7.258 C 620,871.762 575.621,766.559 476.68,764.648 369.648,770.98 341.879,883.59 407.5,949.84 c 8.16,7.93 26.289,33.519 -0.98,15.629 -66.29,-47.11 -158.282,3.551 -156.399,76.171 3.469,133.91 166.719,143.91 201.641,32.03 3.316,-12.38 13.008,-18.59 10.347,2.46 -4.839,38.13 -14.839,95.63 -43.519,145.63"
         inkscape:connector-curvature="0"
         id="path36"
         style="fill:#000000;fill-opacity:1;fill-rule:nonzero;stroke:none" /><path
         d="M 535.512,699.141 C 512.461,652.93 495.699,605.512 492.73,554.84 c -2.73,-18.668 8.598,-18.981 10.282,-5.86 32.609,124.77 206.129,90.981 200.148,-26.359 -4.84,-95.16 -99.371,-115.633 -148.672,-84.5 -19.449,11.449 -18.359,4.578 -7.726,-7.301 C 620,349.141 575.621,243.91 476.68,241.988 369.648,248.359 341.879,360.941 407.5,427.191 c 8.16,7.969 26.289,33.508 -0.98,15.661 -66.29,-47.114 -158.282,3.519 -156.399,76.128 3.469,133.911 166.719,143.911 201.641,32.071 3.316,-12.422 13.008,-18.629 10.347,2.429 -4.839,38.122 -14.839,95.622 -43.519,145.661"
         inkscape:connector-curvature="0"
         id="path38"
         style="fill:#000000;fill-opacity:1;fill-rule:nonzero;stroke:none" /><path
         d="m 1363.75,1221.76 c -23.01,-46.21 -39.8,-93.6 -42.77,-144.3 -2.74,-18.63 8.59,-18.94 10.31,-5.82 32.62,124.73 206.09,90.98 200.12,-26.37 -4.81,-95.149 -99.34,-115.622 -148.64,-84.532 -19.49,11.492 -18.36,4.614 -7.73,-7.258 73.24,-81.718 28.87,-186.921 -70.12,-188.832 -107.03,6.332 -134.8,118.942 -69.14,185.192 8.17,7.93 26.25,33.519 -0.98,15.629 -66.28,-47.11 -158.32,3.551 -156.44,76.171 3.48,133.91 166.72,143.91 201.64,32.03 3.36,-12.38 13.05,-18.59 10.35,2.46 -4.84,38.13 -14.84,95.63 -43.47,145.63"
         inkscape:connector-curvature="0"
         id="path40"
         style="fill:#000000;fill-opacity:1;fill-rule:nonzero;stroke:none" /><path
         d="m 1363.75,699.141 c -23.01,-46.211 -39.8,-93.629 -42.77,-144.301 -2.74,-18.668 8.59,-18.981 10.31,-5.86 32.62,124.77 206.09,90.981 200.12,-26.359 -4.81,-95.16 -99.34,-115.633 -148.64,-84.5 -19.49,11.449 -18.36,4.578 -7.73,-7.301 73.24,-81.679 28.87,-186.91 -70.12,-188.832 -107.03,6.371 -134.8,118.953 -69.14,185.203 8.17,7.969 26.25,33.508 -0.98,15.661 -66.28,-47.114 -158.32,3.519 -156.44,76.128 3.48,133.911 166.72,143.911 201.64,32.071 3.36,-12.422 13.05,-18.629 10.35,2.429 -4.84,38.122 -14.84,95.622 -43.47,145.661"
         inkscape:connector-curvature="0"
         id="path42"
         style="fill:#000000;fill-opacity:1;fill-rule:nonzero;stroke:none" /><path
         d="m 952.969,960.43 c -23.047,-46.168 -39.809,-93.59 -42.77,-144.301 -2.738,-18.629 8.59,-18.938 10.313,-5.82 32.578,124.769 206.088,90.98 200.108,-26.36 -4.84,-95.16 -99.33,-115.629 -148.671,-84.539 -19.449,11.488 -18.359,4.61 -7.73,-7.262 C 1037.46,610.43 993.121,505.23 894.141,503.32 787.109,509.648 759.34,622.27 825,688.52 c 8.16,7.929 26.25,33.511 -1.02,15.621 -66.281,-47.071 -158.281,3.558 -156.402,76.168 3.473,133.91 166.723,143.91 201.641,32.07 3.359,-12.418 13.011,-18.629 10.351,2.422 -4.84,38.129 -14.84,95.629 -43.519,145.629"
         inkscape:connector-curvature="0"
         id="path44"
         style="fill:#000000;fill-opacity:1;fill-rule:nonzero;stroke:none" /><path
         d="m 109.449,1906.56 c 9.531,19.57 18.832,37.78 23.871,59.22 3.36,20.2 -3.48,12.7 -7.379,-0.55 -5.781,-18.39 -21.8,-26.75 -36.6402,-26.95 -26.961,-0.39 -40.4297,20.82 -39.5703,43.63 -2.9688,23.99 21.3593,40.94 39.6797,39.65 13.7888,-0.97 25.7888,-8.44 33.0508,-14.22 4.769,-2.5 9.879,-3.63 2.769,2.89 -13.429,14.65 -24.609,23.72 -24.371,45.67 0.231,20.62 17.852,42.15 41.25,41.48 29.219,-0.86 42.5,-23.12 42.422,-43.86 -0.082,-15.08 -7.621,-28.99 -19.301,-37.62 -7.531,-6.13 -5.429,-10.7 3.211,-4.92 8.239,7.14 18.118,10.27 28.36,10.5 27.89,0.43 38.82,-23.71 37.219,-46.13 -1.481,-21.01 -19.372,-42.62 -42.969,-40.15 -21.012,2.38 -32.102,20.07 -38.43,38.2 -2.07,5.55 -5.391,7.07 -5.32,-1.21 4.89,-40.47 19.929,-65.67 20.039,-65.63"
         inkscape:connector-curvature="0"
         id="path46"
         style="fill:#000000;fill-opacity:1;fill-rule:nonzero;stroke:none" /><path
         d="m 1684.69,610.551 c -9.53,-19.571 -18.79,-37.781 -23.87,-59.223 -3.36,-20.238 3.52,-12.699 7.42,0.551 5.74,18.351 21.76,26.75 36.64,26.949 26.96,0.352 40.39,-20.816 39.57,-43.629 2.93,-23.988 -21.36,-40.98 -39.68,-39.648 -13.79,0.969 -25.82,8.398 -33.09,14.179 -4.77,2.54 -9.84,3.629 -2.73,-2.851 13.39,-14.649 24.6,-23.719 24.37,-45.707 -0.23,-20.621 -17.89,-42.152 -41.25,-41.442 -29.22,0.821 -42.5,23.122 -42.42,43.821 0.08,15.121 7.62,29.027 19.26,37.621 7.57,6.129 5.47,10.738 -3.17,4.918 -8.28,-7.141 -18.12,-10.27 -28.36,-10.469 -27.93,-0.422 -38.83,23.68 -37.22,46.098 1.48,21.011 19.37,42.66 42.93,40.191 21.05,-2.422 32.11,-20.07 38.43,-38.199 2.11,-5.59 5.43,-7.07 5.32,1.211 -4.85,40.469 -19.93,65.629 -20.04,65.629"
         inkscape:connector-curvature="0"
         id="path48"
         style="fill:#000000;fill-opacity:1;fill-rule:nonzero;stroke:none" /></g></g></svg>