<?xml version="1.0" encoding="UTF-8" standalone="no"?>
<!-- Created with Inkscape (http://www.inkscape.org/) -->

<svg
   xmlns:dc="http://purl.org/dc/elements/1.1/"
   xmlns:cc="http://creativecommons.org/ns#"
   xmlns:rdf="http://www.w3.org/1999/02/22-rdf-syntax-ns#"
   xmlns:svg="http://www.w3.org/2000/svg"
   xmlns="http://www.w3.org/2000/svg"
   xmlns:inkscape="http://www.inkscape.org/namespaces/inkscape"
   version="1.1"
   width="225"
   height="315"
   id="svg2"
   xml:space="preserve"><metadata
     id="metadata8"><rdf:RDF><cc:Work
         rdf:about=""><dc:format>image/svg+xml</dc:format><dc:type
           rdf:resource="http://purl.org/dc/dcmitype/StillImage" /></cc:Work></rdf:RDF></metadata><defs
     id="defs6" /><g
     transform="matrix(1.25,0,0,-1.25,0,315)"
     id="g10"><g
       transform="scale(0.1,0.1)"
       id="g12"><path
         d="m 89.1406,2508.52 1615.7394,0 c 47.11,0 85.04,-37.93 85.04,-85.04 l 0,-2324.4214 c 0,-47.1094 -37.93,-85.0391 -85.04,-85.0391 l -1615.7394,0 c -47.1094,0 -85.03904,37.9297 -85.03904,85.0391 l 0,2324.4214 c 0,47.11 37.92964,85.04 85.03904,85.04"
         inkscape:connector-curvature="0"
         id="path14"
         style="fill:#ffffff;fill-opacity:1;fill-rule:nonzero;stroke:none" /><path
         d="m 89.1406,2508.52 1615.7394,0 c 47.11,0 85.04,-37.93 85.04,-85.04 l 0,-2324.4214 c 0,-47.1094 -37.93,-85.0391 -85.04,-85.0391 l -1615.7394,0 c -47.1094,0 -85.03904,37.9297 -85.03904,85.0391 l 0,2324.4214 c 0,47.11 37.92964,85.04 85.03904,85.04 z"
         inkscape:connector-curvature="0"
         id="path16"
         style="fill:none;stroke:#000000;stroke-width:7.9738698;stroke-linecap:butt;stroke-linejoin:miter;stroke-miterlimit:4;stroke-opacity:1;stroke-dasharray:none" /><path
         d="m 266.879,2050.04 c 79.371,77.46 131.48,161.91 181.32,243.12 43.75,-89.37 106.449,-167.54 174.301,-243.12 -72.578,-74.92 -128.828,-155.08 -174.059,-239.34 -50.16,86.37 -102.929,164.57 -181.562,239.34"
         inkscape:connector-curvature="0"
         id="path18"
         style="fill:#d40000;fill-opacity:1;fill-rule:nonzero;stroke:none" /><path
         d="m 266.879,1527.42 c 79.371,77.46 131.48,161.88 181.32,243.09 43.75,-89.34 106.449,-167.54 174.301,-243.09 -72.578,-74.96 -128.828,-155.12 -174.059,-239.33 -50.16,86.36 -102.929,164.57 -181.562,239.33"
         inkscape:connector-curvature="0"
         id="path20"
         style="fill:#d40000;fill-opacity:1;fill-rule:nonzero;stroke:none" /><path
         d="m 266.879,992.23 c 79.371,77.46 131.48,161.91 181.32,243.12 C 491.949,1145.98 554.648,1067.81 622.5,992.23 549.922,917.301 493.672,837.148 448.441,752.891 398.281,839.262 345.512,917.461 266.879,992.23"
         inkscape:connector-curvature="0"
         id="path22"
         style="fill:#d40000;fill-opacity:1;fill-rule:nonzero;stroke:none" /><path
         d="m 266.879,471.41 c 79.371,77.418 131.48,161.871 181.32,243.078 C 491.949,625.16 554.648,546.949 622.5,471.41 549.922,396.449 493.672,316.289 448.441,232.07 398.281,318.398 345.512,396.641 266.879,471.41"
         inkscape:connector-curvature="0"
         id="path24"
         style="fill:#d40000;fill-opacity:1;fill-rule:nonzero;stroke:none" /><path
         d="m 716.371,1775.16 c 79.328,77.46 131.481,161.87 181.328,243.08 43.711,-89.33 106.441,-167.54 174.291,-243.08 -72.611,-74.96 -128.869,-155.12 -174.099,-239.34 -50.121,86.37 -102.93,164.57 -181.52,239.34"
         inkscape:connector-curvature="0"
         id="path26"
         style="fill:#d40000;fill-opacity:1;fill-rule:nonzero;stroke:none" /><path
         d="M 712.621,748.398 C 791.988,825.859 844.102,910.309 893.949,991.52 937.66,902.148 1000.39,823.98 1068.24,748.398 995.66,673.48 939.379,593.32 894.18,509.059 844.02,595.43 791.25,673.629 712.621,748.398"
         inkscape:connector-curvature="0"
         id="path28"
         style="fill:#d40000;fill-opacity:1;fill-rule:nonzero;stroke:none" /><path
         d="m 1159.14,2050.04 c 79.38,77.46 131.48,161.91 181.33,243.12 43.71,-89.37 106.44,-167.54 174.3,-243.12 -72.58,-74.92 -128.83,-155.08 -174.07,-239.34 -50.15,86.37 -102.93,164.57 -181.56,239.34"
         inkscape:connector-curvature="0"
         id="path30"
         style="fill:#d40000;fill-opacity:1;fill-rule:nonzero;stroke:none" /><path
         d="m 1159.14,1527.42 c 79.38,77.46 131.48,161.88 181.33,243.09 43.71,-89.34 106.44,-167.54 174.3,-243.09 -72.58,-74.96 -128.83,-155.12 -174.07,-239.33 -50.15,86.36 -102.93,164.57 -181.56,239.33"
         inkscape:connector-curvature="0"
         id="path32"
         style="fill:#d40000;fill-opacity:1;fill-rule:nonzero;stroke:none" /><path
         d="m 1159.14,992.23 c 79.38,77.46 131.48,161.91 181.33,243.12 43.71,-89.37 106.44,-167.54 174.3,-243.12 -72.58,-74.929 -128.83,-155.082 -174.07,-239.339 -50.15,86.371 -102.93,164.57 -181.56,239.339"
         inkscape:connector-curvature="0"
         id="path34"
         style="fill:#d40000;fill-opacity:1;fill-rule:nonzero;stroke:none" /><path
         d="m 1159.14,471.41 c 79.38,77.418 131.48,161.871 181.33,243.078 43.71,-89.328 106.44,-167.539 174.3,-243.078 -72.58,-74.961 -128.83,-155.121 -174.07,-239.34 -50.15,86.328 -102.93,164.571 -181.56,239.34"
         inkscape:connector-curvature="0"
         id="path36"
         style="fill:#d40000;fill-opacity:1;fill-rule:nonzero;stroke:none" /><path
         d="m 1579.34,519.77 c 32.5,31.71 53.86,66.281 74.29,99.57 17.89,-36.61 43.6,-68.641 71.41,-99.57 -29.77,-30.711 -52.81,-63.559 -71.33,-98.051 -20.55,35.351 -42.15,67.422 -74.37,98.051"
         inkscape:connector-curvature="0"
         id="path38"
         style="fill:#d40000;fill-opacity:1;fill-rule:nonzero;stroke:none" /><path
         d="m 68.8281,2006.6 c 32.4999,31.72 53.8709,66.33 74.2619,99.61 17.93,-36.6 43.629,-68.63 71.398,-99.61 -29.718,-30.7 -52.769,-63.51 -71.289,-98.05 -20.539,35.4 -42.179,67.43 -74.3709,98.05"
         inkscape:connector-curvature="0"
         id="path40"
         style="fill:#d40000;fill-opacity:1;fill-rule:nonzero;stroke:none" /><path
         d="m 65.1211,2145.74 24.8789,0 0,252.07 -24.8789,0 0,-252.07 z"
         inkscape:connector-curvature="0"
         id="path42"
         style="fill:#d40000;fill-opacity:1;fill-rule:nonzero;stroke:none" /><path
         d="m 163.75,2397.81 c -23.949,0 -43.199,-21.52 -43.199,-48.2 l 0,-155.7 c 0,-26.68 19.25,-48.17 43.199,-48.17 l 13.949,0 c 23.981,0 43.281,21.49 43.281,48.17 l 0,155.7 c 0,26.68 -19.3,48.2 -43.281,48.2 l -13.949,0 z m 7.191,-23.83 c 14.18,0 25.539,-10.7 25.539,-24.02 l 0,-157.77 c 0,-13.32 -11.359,-24.07 -25.539,-24.07 -14.14,0 -25.511,10.75 -25.511,24.07 l 0,157.77 c 0,13.32 11.371,24.02 25.511,24.02"
         inkscape:connector-curvature="0"
         id="path44"
         style="fill:#d40000;fill-opacity:1;fill-rule:nonzero;stroke:none" /><path
         d="m 1703.98,124.73 24.918,0 0,252.031 -24.918,0 0,-252.031 z"
         inkscape:connector-curvature="0"
         id="path46"
         style="fill:#d40000;fill-opacity:1;fill-rule:nonzero;stroke:none" /><path
         d="m 1630.23,124.73 c 23.99,0 43.25,21.481 43.25,48.161 l 0,155.699 c 0,26.68 -19.26,48.172 -43.25,48.172 l -13.94,0 c -23.95,0 -43.24,-21.492 -43.24,-48.172 l 0,-155.699 c 0,-26.68 19.29,-48.161 43.24,-48.161 l 13.94,0 z m -7.18,23.821 c -14.14,0 -25.55,10.668 -25.55,23.988 l 0,157.77 c 0,13.32 11.41,24.07 25.55,24.07 14.14,0 25.5,-10.75 25.5,-24.07 l 0,-157.77 c 0,-13.32 -11.36,-23.988 -25.5,-23.988"
         inkscape:connector-curvature="0"
         id="path48"
         style="fill:#d40000;fill-opacity:1;fill-rule:nonzero;stroke:none" /></g></g></svg>