<?xml version="1.0" encoding="UTF-8" standalone="no"?>
<!-- Created with Inkscape (http://www.inkscape.org/) -->

<svg
   xmlns:dc="http://purl.org/dc/elements/1.1/"
   xmlns:cc="http://creativecommons.org/ns#"
   xmlns:rdf="http://www.w3.org/1999/02/22-rdf-syntax-ns#"
   xmlns:svg="http://www.w3.org/2000/svg"
   xmlns="http://www.w3.org/2000/svg"
   viewBox="0 0 223.75 313.75"
   height="313.75"
   width="223.75"
   xml:space="preserve"
   version="1.1"
   id="svg2"><metadata
     id="metadata8"><rdf:RDF><cc:Work
         rdf:about=""><dc:format>image/svg+xml</dc:format><dc:type
           rdf:resource="http://purl.org/dc/dcmitype/StillImage" /></cc:Work></rdf:RDF></metadata><defs
     id="defs6" /><g
     transform="matrix(1.25,0,0,-1.25,0,313.75)"
     id="g10"><g
       transform="scale(0.1,0.1)"
       id="g12"><path
         id="path14"
         style="fill:#ffffff;fill-opacity:1;fill-rule:nonzero;stroke:none"
         d="m 85.0391,2504.49 1615.7409,0 c 47.11,0 85.04,-37.93 85.04,-85.04 l 0,-2324.4109 C 1785.82,47.9297 1747.89,10 1700.78,10 L 85.0391,10 C 37.9297,10 0,47.9297 0,95.0391 L 0,2419.45 c 0,47.11 37.9297,85.04 85.0391,85.04" /><path
         id="path16"
         style="fill:none;stroke:#000000;stroke-width:7.97384024;stroke-linecap:butt;stroke-linejoin:miter;stroke-miterlimit:4;stroke-dasharray:none;stroke-opacity:1"
         d="m 85.0391,2504.49 1615.7409,0 c 47.11,0 85.04,-37.93 85.04,-85.04 l 0,-2324.4109 C 1785.82,47.9297 1747.89,10 1700.78,10 L 85.0391,10 C 37.9297,10 0,47.9297 0,95.0391 L 0,2419.45 c 0,47.11 37.9297,85.04 85.0391,85.04 z" /><path
         id="path18"
         style="fill:#d40000;fill-opacity:1;fill-rule:nonzero;stroke:none"
         d="m 61.0195,2141.72 24.8789,0 0,252.07 -24.8789,0 0,-252.07 z" /><path
         id="path20"
         style="fill:#d40000;fill-opacity:1;fill-rule:nonzero;stroke:none"
         d="m 159.648,2393.79 c -23.949,0 -43.199,-21.49 -43.199,-48.17 l 0,-155.7 c 0,-26.68 19.25,-48.21 43.199,-48.21 l 13.981,0 c 23.949,0 43.25,21.53 43.25,48.21 l 0,155.7 c 0,26.68 -19.301,48.17 -43.25,48.17 l -13.981,0 z m 7.231,-23.83 c 14.141,0 25.5,-10.71 25.5,-24.03 l 0,-157.77 c 0,-13.32 -11.359,-24.06 -25.5,-24.06 -14.149,0 -25.551,10.74 -25.551,24.06 l 0,157.77 c 0,13.32 11.402,24.03 25.551,24.03" /><path
         id="path22"
         style="fill:#d40000;fill-opacity:1;fill-rule:nonzero;stroke:none"
         d="m 1699.92,120.699 24.8789,0 0,252.07 -24.8789,0 0,-252.07 z" /><path
         id="path24"
         style="fill:#d40000;fill-opacity:1;fill-rule:nonzero;stroke:none"
         d="m 1626.17,120.699 c 23.95,0 43.21,21.481 43.21,48.16 l 0,155.711 c 0,26.68 -19.26,48.2 -43.21,48.2 l -13.98,0 c -23.95,0 -43.24,-21.52 -43.24,-48.2 l 0,-155.711 c 0,-26.679 19.29,-48.16 43.24,-48.16 l 13.98,0 z m -7.22,23.832 c -14.15,0 -25.51,10.699 -25.51,24.02 l 0,157.769 c 0,13.321 11.36,24.071 25.51,24.071 14.17,0 25.54,-10.75 25.54,-24.071 l 0,-157.769 c 0,-13.321 -11.37,-24.02 -25.54,-24.02" /><path
         id="path26"
         style="fill:#d40000;fill-opacity:1;fill-rule:nonzero;stroke:none"
         d="m 68.1602,2023.36 c -12.6485,27.81 -14.0196,75.27 23.8281,81.68 28.4807,3.67 40.0817,-9.58 42.4217,-29.93 1.102,-5.93 4.461,-6.32 5.512,0.47 1.598,20.86 22.308,33.05 38.476,30 44.18,-7.58 41.602,-56.25 27.192,-89.26 -21.918,-43.82 -44.891,-71.48 -65.981,-115.62 -24.339,45.94 -52.109,83.24 -71.4488,122.66" /><path
         id="path28"
         style="fill:#d40000;fill-opacity:1;fill-rule:nonzero;stroke:none"
         d="m 344.262,2277.89 c 57.109,3.79 86.949,-45 92.687,-83.48 3.52,-6.09 5.352,-4.37 6.723,0.35 2.808,49.38 46.949,89.77 87.93,84.22 66.636,-0.86 107.109,-75 95.738,-137.73 -13.899,-76.64 -55.192,-122.82 -86.442,-170.36 -35.386,-49.21 -82.968,-120.31 -98.32,-154.53 0,0 -48.437,73.64 -111.367,160.24 -42.109,57.89 -75.781,120.66 -78.91,174.69 -3.59,61.71 21.758,117.03 91.961,126.6" /><path
         id="path30"
         style="fill:#d40000;fill-opacity:1;fill-rule:nonzero;stroke:none"
         d="m 793.672,2016.6 c 57.109,3.79 86.949,-45.04 92.808,-83.52 3.442,-6.09 5.36,-4.37 6.641,0.35 2.82,49.38 47.039,89.77 88.008,84.22 66.571,-0.86 107.031,-75 95.671,-137.73 -13.91,-76.64 -55.2,-122.81 -86.491,-170.35 -35.348,-49.22 -82.969,-120.32 -98.321,-154.53 0,0 -48.316,73.63 -111.289,160.23 -42.148,57.93 -75.82,120.66 -78.937,174.69 -3.602,61.72 21.758,117.07 91.91,126.64" /><path
         id="path32"
         style="fill:#d40000;fill-opacity:1;fill-rule:nonzero;stroke:none"
         d="m 1236.48,2277.89 c 57.11,3.79 86.96,-45 92.82,-83.48 3.43,-6.09 5.35,-4.37 6.64,0.35 2.77,49.38 47.03,89.77 87.89,84.22 66.64,-0.86 107.15,-75 95.78,-137.73 -13.95,-76.64 -55.2,-122.82 -86.49,-170.36 -35.35,-49.21 -82.96,-120.31 -98.32,-154.53 0,0 -48.39,73.64 -111.28,160.24 -42.15,57.89 -75.82,120.66 -78.95,174.69 -3.59,61.71 21.76,117.03 91.91,126.6" /><path
         id="path34"
         style="fill:#d40000;fill-opacity:1;fill-rule:nonzero;stroke:none"
         d="m 1236.48,1755.27 c 57.11,3.79 86.96,-45.04 92.82,-83.52 3.43,-6.09 5.35,-4.37 6.64,0.36 2.77,49.37 47.03,89.76 87.89,84.21 66.64,-0.86 107.15,-75 95.78,-137.73 -13.95,-76.64 -55.2,-122.81 -86.49,-170.35 -35.35,-49.22 -82.96,-120.31 -98.32,-154.53 0,0 -48.39,73.63 -111.28,160.23 -42.15,57.93 -75.82,120.67 -78.95,174.69 -3.59,61.72 21.76,117.07 91.91,126.64" /><path
         id="path36"
         style="fill:#d40000;fill-opacity:1;fill-rule:nonzero;stroke:none"
         d="m 344.262,1755.27 c 57.109,3.79 86.949,-45.04 92.687,-83.52 3.52,-6.09 5.352,-4.37 6.723,0.36 2.808,49.37 46.949,89.76 87.93,84.21 66.636,-0.86 107.109,-75 95.738,-137.73 -13.899,-76.64 -55.192,-122.81 -86.442,-170.35 -35.386,-49.22 -82.968,-120.31 -98.32,-154.53 0,0 -48.437,73.63 -111.367,160.23 -42.109,57.93 -75.781,120.67 -78.91,174.69 -3.59,61.72 21.758,117.07 91.961,126.64" /><path
         id="path38"
         style="fill:#d40000;fill-opacity:1;fill-rule:nonzero;stroke:none"
         d="m 1236.48,760.148 c 57.11,-3.828 86.96,45 92.82,83.481 3.43,6.09 5.35,4.371 6.64,-0.348 2.77,-49.383 47.03,-89.769 87.89,-84.222 66.64,0.863 107.15,75 95.78,137.73 -13.95,76.641 -55.2,122.821 -86.49,170.351 -35.35,49.22 -82.96,120.32 -98.32,154.54 0,0 -48.39,-73.64 -111.28,-160.24 -42.15,-57.89 -75.82,-120.659 -78.95,-174.69 -3.59,-61.711 21.76,-117.07 91.91,-126.602" /><path
         id="path40"
         style="fill:#d40000;fill-opacity:1;fill-rule:nonzero;stroke:none"
         d="m 1236.48,239.289 c 57.11,-3.789 86.96,45 92.82,83.481 3.43,6.128 5.35,4.41 6.64,-0.309 2.77,-49.422 47.03,-89.77 87.89,-84.262 66.64,0.86 107.15,75 95.78,137.731 -13.95,76.679 -55.2,122.859 -86.49,170.359 -35.35,49.211 -82.96,120.313 -98.32,154.531 0,0 -48.39,-73.64 -111.28,-160.242 -42.15,-57.887 -75.82,-120.617 -78.95,-174.687 -3.59,-61.711 21.76,-117.032 91.91,-126.602" /><path
         id="path42"
         style="fill:#d40000;fill-opacity:1;fill-rule:nonzero;stroke:none"
         d="m 789.922,499.719 c 57.187,-3.789 86.957,45 92.808,83.48 3.442,6.129 5.36,4.41 6.649,-0.308 2.769,-49.422 47.031,-89.77 87.961,-84.262 66.64,0.859 107.15,75 95.71,137.73 -13.87,76.68 -55.2,122.821 -86.409,170.352 -35.43,49.219 -83.051,120.32 -98.321,154.539 0,0 -48.398,-73.641 -111.371,-160.238 -42.07,-57.891 -75.738,-120.66 -78.937,-174.692 -3.524,-61.711 21.758,-117.031 91.91,-126.601" /><path
         id="path44"
         style="fill:#d40000;fill-opacity:1;fill-rule:nonzero;stroke:none"
         d="m 344.262,760.148 c 57.109,-3.828 86.949,45 92.687,83.481 3.52,6.09 5.352,4.371 6.723,-0.348 2.808,-49.383 46.949,-89.769 87.93,-84.222 66.636,0.863 107.109,75 95.738,137.73 -13.899,76.641 -55.192,122.821 -86.442,170.351 -35.386,49.22 -82.968,120.32 -98.32,154.54 0,0 -48.437,-73.64 -111.367,-160.24 -42.109,-57.89 -75.781,-120.659 -78.91,-174.69 -3.59,-61.711 21.758,-117.07 91.961,-126.602" /><path
         id="path46"
         style="fill:#d40000;fill-opacity:1;fill-rule:nonzero;stroke:none"
         d="m 344.262,239.289 c 57.109,-3.789 86.949,45 92.687,83.481 3.52,6.128 5.352,4.41 6.723,-0.309 2.808,-49.422 46.949,-89.77 87.93,-84.262 66.636,0.86 107.109,75 95.738,137.731 -13.899,76.679 -55.192,122.859 -86.442,170.359 -35.386,49.211 -82.968,120.313 -98.32,154.531 0,0 -48.437,-73.64 -111.367,-160.242 -42.109,-57.887 -75.781,-120.617 -78.91,-174.687 -3.59,-61.711 21.758,-117.032 91.961,-126.602" /><path
         id="path48"
         style="fill:#d40000;fill-opacity:1;fill-rule:nonzero;stroke:none"
         d="m 1578.71,496.52 c -12.62,-27.77 -14.06,-75.231 23.75,-81.68 28.52,-3.668 40.12,9.609 42.42,29.961 1.14,5.937 4.5,6.289 5.59,-0.473 1.6,-20.898 22.26,-33.078 38.4,-30 44.25,7.543 41.68,56.211 27.22,89.223 -21.83,43.871 -44.8,71.519 -65.93,115.629 -24.34,-45.942 -52.07,-83.25 -71.45,-122.66" /></g></g></svg>