<?xml version="1.0" encoding="UTF-8" standalone="no"?>
<!-- Created with Inkscape (http://www.inkscape.org/) -->

<svg
   xmlns:dc="http://purl.org/dc/elements/1.1/"
   xmlns:cc="http://creativecommons.org/ns#"
   xmlns:rdf="http://www.w3.org/1999/02/22-rdf-syntax-ns#"
   xmlns:svg="http://www.w3.org/2000/svg"
   xmlns="http://www.w3.org/2000/svg"
   xmlns:inkscape="http://www.inkscape.org/namespaces/inkscape"
   version="1.1"
   width="225"
   height="315"
   id="svg2"
   xml:space="preserve"><metadata
     id="metadata8"><rdf:RDF><cc:Work
         rdf:about=""><dc:format>image/svg+xml</dc:format><dc:type
           rdf:resource="http://purl.org/dc/dcmitype/StillImage" /></cc:Work></rdf:RDF></metadata><defs
     id="defs6" /><g
     transform="matrix(1.25,0,0,-1.25,0,315)"
     id="g10"><g
       transform="scale(0.1,0.1)"
       id="g12"><path
         d="m 1704.88,13.9805 -1615.7394,0 c -47.1094,0 -85.03904,37.9297 -85.03904,85.039 l 0,2324.4205 c 0,47.11 37.92964,85.04 85.03904,85.04 l 1615.7394,0 c 47.11,0 85.04,-37.93 85.04,-85.04 l 0,-2324.4205 c 0,-47.1093 -37.93,-85.039 -85.04,-85.039"
         inkscape:connector-curvature="0"
         id="path14"
         style="fill:#ffffff;fill-opacity:1;fill-rule:nonzero;stroke:none" /><path
         d="m 1704.88,13.9805 -1615.7394,0 c -47.1094,0 -85.03904,37.9297 -85.03904,85.039 l 0,2324.4205 c 0,47.11 37.92964,85.04 85.03904,85.04 l 1615.7394,0 c 47.11,0 85.04,-37.93 85.04,-85.04 l 0,-2324.4205 c 0,-47.1093 -37.93,-85.039 -85.04,-85.039 z"
         inkscape:connector-curvature="0"
         id="path16"
         style="fill:none;stroke:#000000;stroke-width:7.9738698;stroke-linecap:butt;stroke-linejoin:miter;stroke-miterlimit:4;stroke-opacity:1;stroke-dasharray:none" /><path
         d="m 1703.98,124.691 24.918,0 0,252.07 -24.918,0 0,-252.07 z"
         inkscape:connector-curvature="0"
         id="path18"
         style="fill:#000000;fill-opacity:1;fill-rule:nonzero;stroke:none" /><path
         d="m 1630.23,124.691 c 23.99,0 43.25,21.52 43.25,48.2 l 0,155.699 c 0,26.68 -19.26,48.172 -43.25,48.172 l -13.94,0 c -23.95,0 -43.24,-21.492 -43.24,-48.172 l 0,-155.699 c 0,-26.68 19.29,-48.2 43.24,-48.2 l 13.94,0 z m -7.18,23.829 c -14.14,0 -25.55,10.699 -25.55,24.019 l 0,157.77 c 0,13.32 11.41,24.07 25.55,24.07 14.14,0 25.54,-10.75 25.54,-24.07 l 0,-157.77 c 0,-13.32 -11.4,-24.019 -25.54,-24.019"
         inkscape:connector-curvature="0"
         id="path20"
         style="fill:#000000;fill-opacity:1;fill-rule:nonzero;stroke:none" /><path
         d="m 65.1211,2145.74 24.8789,0 0,252.031 -24.8789,0 0,-252.031 z"
         inkscape:connector-curvature="0"
         id="path22"
         style="fill:#000000;fill-opacity:1;fill-rule:nonzero;stroke:none" /><path
         d="m 163.75,2397.77 c -23.949,0 -43.199,-21.48 -43.199,-48.16 l 0,-155.7 c 0,-26.68 19.25,-48.17 43.199,-48.17 l 13.949,0 c 23.981,0 43.281,21.49 43.281,48.17 l 0,155.7 c 0,26.68 -19.3,48.16 -43.281,48.16 l -13.949,0 z m 7.23,-23.82 c 14.141,0 25.5,-10.67 25.5,-23.99 l 0,-157.77 c 0,-13.32 -11.359,-24.07 -25.5,-24.07 -14.179,0 -25.55,10.75 -25.55,24.07 l 0,157.77 c 0,13.32 11.371,23.99 25.55,23.99"
         inkscape:connector-curvature="0"
         id="path24"
         style="fill:#000000;fill-opacity:1;fill-rule:nonzero;stroke:none" /><path
         d="m 427.578,1960.31 c 0.121,16.21 -12.699,16.53 -12.539,4.69 -1.09,-59.41 -51.328,-88.67 -87.848,-81.72 -56.293,10.67 -74.261,66.56 -73.711,99.45 1.641,101.57 103.899,176.49 196.129,306.68 67.621,-117.5 179.18,-209.84 185.782,-300.66 8.789,-120.78 -144.063,-165.86 -165.86,-25.08 -1.441,9.96 -13.121,14.42 -12.23,0.51 3.32,-38.56 -1.403,-54.65 42.109,-149.73 l -113.75,0 c 25.199,44.42 40.199,98.99 41.918,145.86"
         inkscape:connector-curvature="0"
         id="path26"
         style="fill:#000000;fill-opacity:1;fill-rule:nonzero;stroke:none" /><path
         d="m 873.281,1698.98 c 0.16,16.22 -12.691,16.53 -12.543,4.69 -1.047,-59.41 -51.328,-88.67 -87.847,-81.72 -56.289,10.71 -74.262,66.57 -73.711,99.46 1.679,101.6 103.91,176.48 196.172,306.68 67.617,-117.5 179.178,-209.81 185.778,-300.67 8.79,-120.78 -144.06,-165.86 -165.9,-25.08 -1.402,9.96 -13.121,14.42 -12.179,0.55 3.277,-38.59 -1.41,-54.69 42.109,-149.77 l -113.789,0 c 25.188,44.42 40.231,98.99 41.91,145.86"
         inkscape:connector-curvature="0"
         id="path28"
         style="fill:#000000;fill-opacity:1;fill-rule:nonzero;stroke:none" /><path
         d="m 1319.84,1960.31 c 0.12,16.21 -12.69,16.53 -12.54,4.69 -1.09,-59.41 -51.36,-88.67 -87.85,-81.72 -56.29,10.67 -74.25,66.56 -73.71,99.45 1.64,101.57 103.87,176.49 196.14,306.68 67.61,-117.5 179.17,-209.84 185.78,-300.66 8.79,-120.78 -144.07,-165.86 -165.9,-25.08 -1.41,9.96 -13.09,14.42 -12.19,0.51 3.32,-38.56 -1.41,-54.65 42.11,-149.73 l -113.75,0 c 25.19,44.42 40.19,98.99 41.91,145.86"
         inkscape:connector-curvature="0"
         id="path30"
         style="fill:#000000;fill-opacity:1;fill-rule:nonzero;stroke:none" /><path
         d="m 1319.84,1437.7 c 0.12,16.17 -12.69,16.48 -12.54,4.68 -1.09,-59.45 -51.36,-88.71 -87.85,-81.76 -56.29,10.71 -74.25,66.57 -73.71,99.5 1.64,101.56 103.87,176.44 196.14,306.68 67.61,-117.54 179.17,-209.85 185.78,-300.71 8.79,-120.78 -144.07,-165.82 -165.9,-25.07 -1.41,9.96 -13.09,14.41 -12.19,0.54 3.32,-38.59 -1.41,-54.65 42.11,-149.76 l -113.75,0 c 25.19,44.45 40.19,98.98 41.91,145.9"
         inkscape:connector-curvature="0"
         id="path32"
         style="fill:#000000;fill-opacity:1;fill-rule:nonzero;stroke:none" /><path
         d="m 427.578,1437.7 c 0.121,16.17 -12.699,16.48 -12.539,4.68 -1.09,-59.45 -51.328,-88.71 -87.848,-81.76 -56.293,10.71 -74.261,66.57 -73.711,99.5 1.641,101.56 103.899,176.44 196.129,306.68 67.621,-117.54 179.18,-209.85 185.782,-300.71 8.789,-120.78 -144.063,-165.82 -165.86,-25.07 -1.441,9.96 -13.121,14.41 -12.23,0.54 3.32,-38.59 -1.403,-54.65 42.109,-149.76 l -113.75,0 c 25.199,44.45 40.199,98.98 41.918,145.9"
         inkscape:connector-curvature="0"
         id="path34"
         style="fill:#000000;fill-opacity:1;fill-rule:nonzero;stroke:none" /><path
         d="m 1319.92,1084.61 c 0.12,-16.21 -12.69,-16.52 -12.54,-4.69 -1.09,59.42 -51.33,88.67 -87.85,81.76 -56.29,-10.7 -74.26,-66.6 -73.71,-99.49 1.64,-101.569 103.91,-176.491 196.17,-306.678 67.58,117.539 179.14,209.84 185.78,300.698 8.75,120.78 -144.1,165.82 -165.89,25.04 -1.41,-9.92 -13.13,-14.41 -12.23,-0.51 3.32,38.6 -1.41,54.65 42.15,149.77 l -113.79,0 c 25.19,-44.46 40.19,-99.03 41.91,-145.9"
         inkscape:connector-curvature="0"
         id="path36"
         style="fill:#000000;fill-opacity:1;fill-rule:nonzero;stroke:none" /><path
         d="m 1319.92,561.949 c 0.12,-16.211 -12.69,-16.519 -12.54,-4.679 -1.09,59.449 -51.33,88.71 -87.85,81.75 -56.29,-10.7 -74.26,-66.559 -73.71,-99.489 1.64,-101.562 103.91,-176.441 196.17,-306.679 67.58,117.539 179.14,209.847 185.78,300.699 8.75,120.789 -144.1,165.828 -165.89,25.039 -1.41,-9.918 -13.13,-14.371 -12.23,-0.5 3.32,38.59 -1.41,54.64 42.15,149.762 l -113.79,0 c 25.19,-44.454 40.19,-98.981 41.91,-145.903"
         inkscape:connector-curvature="0"
         id="path38"
         style="fill:#000000;fill-opacity:1;fill-rule:nonzero;stroke:none" /><path
         d="M 877.109,823.281 C 877.27,807.07 864.41,806.762 864.57,818.59 863.52,878.012 813.238,907.301 776.719,900.352 720.43,889.648 702.461,833.789 703.012,800.859 704.691,699.301 806.91,624.41 899.18,494.18 c 67.621,117.539 179.18,209.84 185.78,300.699 8.79,120.781 -144.062,165.82 -165.901,25.043 -1.399,-9.922 -13.118,-14.41 -12.18,-0.512 3.281,38.602 -1.41,54.649 42.101,149.77 l -113.781,0 c 25.192,-44.45 40.231,-99.02 41.91,-145.899"
         inkscape:connector-curvature="0"
         id="path40"
         style="fill:#000000;fill-opacity:1;fill-rule:nonzero;stroke:none" /><path
         d="m 427.66,1084.61 c 0.11,-16.21 -12.699,-16.52 -12.539,-4.69 -1.101,59.42 -51.332,88.67 -87.851,81.76 -56.29,-10.7 -74.258,-66.6 -73.719,-99.49 1.648,-101.569 103.91,-176.491 196.179,-306.678 67.571,117.539 179.18,209.84 185.782,300.698 8.75,120.78 -144.102,165.82 -165.903,25.04 -1.41,-9.92 -13.129,-14.41 -12.23,-0.51 3.32,38.6 -1.399,54.65 42.152,149.77 l -113.793,0 c 25.203,-44.46 40.203,-99.03 41.922,-145.9"
         inkscape:connector-curvature="0"
         id="path42"
         style="fill:#000000;fill-opacity:1;fill-rule:nonzero;stroke:none" /><path
         d="m 427.66,561.949 c 0.11,-16.211 -12.699,-16.519 -12.539,-4.679 -1.101,59.449 -51.332,88.71 -87.851,81.75 -56.29,-10.7 -74.258,-66.559 -73.719,-99.489 1.648,-101.562 103.91,-176.441 196.179,-306.679 67.571,117.539 179.18,209.847 185.782,300.699 8.75,120.789 -144.102,165.828 -165.903,25.039 -1.41,-9.918 -13.129,-14.371 -12.23,-0.5 3.32,38.59 -1.399,54.64 42.152,149.762 l -113.793,0 c 25.203,-44.454 40.203,-98.981 41.922,-145.903"
         inkscape:connector-curvature="0"
         id="path44"
         style="fill:#000000;fill-opacity:1;fill-rule:nonzero;stroke:none" /><path
         d="m 138.398,1949.53 c 0.082,6.95 -7.148,3.71 -8.128,1.52 -9.329,-15.89 -22.93,-19.57 -36.3989,-13.86 -13.3203,5.66 -20.8203,18.24 -19.6094,36.17 2.4571,27.5 24.2578,57.62 34.8403,74.61 10,15.47 21.019,33.79 32.578,57.26 13.59,-26.91 20.511,-34.57 35.269,-59.14 13.012,-21.64 31.141,-42.85 32.539,-68.98 0,-19.88 -8.398,-38.67 -27.218,-42.07 -10.629,-1.95 -20.629,3.51 -28.008,16.29 -2.274,3.24 -6.801,1.56 -6.723,-2.89 1.332,-16.76 7.66,-31.88 22.66,-49.69 l -55.121,0 c 11.293,12.58 22.774,29.61 23.32,50.78"
         inkscape:connector-curvature="0"
         id="path46"
         style="fill:#000000;fill-opacity:1;fill-rule:nonzero;stroke:none" /><path
         d="m 1648.91,567.578 c 0.11,-6.988 -7.15,-3.75 -8.13,-1.527 -9.3,15.859 -22.93,19.57 -36.37,13.828 -13.36,-5.66 -20.86,-18.238 -19.64,-36.168 2.5,-27.5 24.29,-57.582 34.84,-74.609 10,-15.43 21.01,-33.793 32.62,-57.223 13.55,26.91 20.47,34.57 35.23,59.141 13.01,21.64 31.13,42.808 32.54,68.98 0,19.879 -8.36,38.629 -27.19,42.07 -10.66,1.91 -20.62,-3.55 -28.04,-16.289 -2.23,-3.281 -6.8,-1.562 -6.72,2.891 1.33,16.719 7.65,31.879 22.65,49.687 l -55.11,0 c 11.29,-12.621 22.81,-29.648 23.32,-50.781"
         inkscape:connector-curvature="0"
         id="path48"
         style="fill:#000000;fill-opacity:1;fill-rule:nonzero;stroke:none" /></g></g></svg>