<?xml version="1.0" encoding="UTF-8" standalone="no"?>
<!-- Created with Inkscape (http://www.inkscape.org/) -->

<svg
   xmlns:dc="http://purl.org/dc/elements/1.1/"
   xmlns:cc="http://creativecommons.org/ns#"
   xmlns:rdf="http://www.w3.org/1999/02/22-rdf-syntax-ns#"
   xmlns:svg="http://www.w3.org/2000/svg"
   xmlns="http://www.w3.org/2000/svg"
   xmlns:inkscape="http://www.inkscape.org/namespaces/inkscape"
   version="1.1"
   width="225"
   height="315"
   id="svg2"
   xml:space="preserve"><metadata
     id="metadata8"><rdf:RDF><cc:Work
         rdf:about=""><dc:format>image/svg+xml</dc:format><dc:type
           rdf:resource="http://purl.org/dc/dcmitype/StillImage" /></cc:Work></rdf:RDF></metadata><defs
     id="defs6" /><g
     transform="matrix(1.25,0,0,-1.25,0,315)"
     id="g10"><g
       transform="scale(0.1,0.1)"
       id="g12"><path
         d="m 88.9805,2508.48 1615.7495,0 c 47.11,0 85.04,-37.93 85.04,-85.04 l 0,-2324.4205 c 0,-47.1093 -37.93,-85.039 -85.04,-85.039 l -1615.7495,0 c -47.1016,0 -85.03128,37.9297 -85.03128,85.039 l 0,2324.4205 c 0,47.11 37.92968,85.04 85.03128,85.04"
         inkscape:connector-curvature="0"
         id="path14"
         style="fill:#ffffff;fill-opacity:1;fill-rule:nonzero;stroke:none" /><path
         d="m 88.9805,2508.48 1615.7495,0 c 47.11,0 85.04,-37.93 85.04,-85.04 l 0,-2324.4205 c 0,-47.1093 -37.93,-85.039 -85.04,-85.039 l -1615.7495,0 c -47.1016,0 -85.03128,37.9297 -85.03128,85.039 l 0,2324.4205 c 0,47.11 37.92968,85.04 85.03128,85.04 z"
         inkscape:connector-curvature="0"
         id="path16"
         style="fill:none;stroke:#000000;stroke-width:7.9738698;stroke-linecap:butt;stroke-linejoin:miter;stroke-miterlimit:4;stroke-opacity:1;stroke-dasharray:none" /><path
         d="m 69.3398,2135.39 1.2813,16.13 c 4.1094,49.93 15,66.8 76.9999,118.87 30.078,25.27 39.957,37.73 41.328,52.19 3.942,34.1 -26.801,44.72 -46.84,44.92 -25.937,0.23 -55.2692,-15.27 -41.289,-51.29 l -29.0583,-8.55 c -5.9023,33.59 0.1172,65.11 27.3789,79.14 36.3714,18.24 83.0504,11.09 106.5974,-17.66 15.821,-19.34 19.422,-45.98 10.942,-66.84 -24.801,-53.39 -108.981,-76.87 -115.942,-138.55 l 93.051,0 0,34.34 27.422,0 0,-63.25"
         inkscape:connector-curvature="0"
         id="path18"
         style="fill:#000000;fill-opacity:1;fill-rule:nonzero;stroke:none" /><path
         d="m 1722.19,387.109 -1.33,-16.168 c -4.06,-49.921 -15,-66.761 -76.95,-118.832 -30.08,-25.269 -39.96,-37.73 -41.37,-52.23 -3.91,-34.059 26.84,-44.719 46.84,-44.879 25.93,-0.27 55.31,15.27 41.28,51.289 l 29.11,8.551 c 5.89,-33.59 -0.12,-65.149 -27.39,-79.141 -36.36,-18.238 -83.04,-11.09 -106.6,17.66 -15.82,19.301 -19.41,45.981 -10.94,66.84 24.81,53.352 108.99,76.832 115.94,138.551 l -93.05,0 0,-34.371 -27.42,0 0,63.281"
         inkscape:connector-curvature="0"
         id="path20"
         style="fill:#000000;fill-opacity:1;fill-rule:nonzero;stroke:none" /><path
         d="m 837.77,1826.21 c 23.011,46.21 39.808,93.63 42.781,144.3 2.73,18.67 -8.602,18.98 -10.321,5.86 -32.609,-124.77 -206.089,-90.98 -200.109,26.36 4.801,95.16 99.328,115.63 148.629,84.5 19.488,-11.45 18.359,-4.57 7.73,7.3 -73.199,81.68 -28.859,186.92 70.122,188.83 107.028,-6.37 134.808,-118.95 69.136,-185.2 -8.16,-7.96 -26.25,-33.51 0.981,-15.66 66.291,47.11 158.321,-3.52 156.441,-76.13 -3.47,-133.95 -166.711,-143.91 -201.64,-32.07 -3.36,12.42 -13.04,18.63 -10.348,-2.42 4.848,-38.13 14.848,-95.63 43.476,-145.67"
         inkscape:connector-curvature="0"
         id="path22"
         style="fill:#000000;fill-opacity:1;fill-rule:nonzero;stroke:none" /><path
         d="m 955.391,692.891 c -23.051,-46.211 -39.84,-93.59 -42.813,-144.301 -2.738,-18.668 8.594,-18.981 10.313,-5.82 32.621,124.73 206.089,90.941 200.159,-26.36 -4.85,-95.16 -99.38,-115.672 -148.671,-84.531 -19.5,11.441 -18.359,4.601 -7.738,-7.309 73.239,-81.679 28.871,-186.871 -70.121,-188.832 -107.032,6.371 -134.801,118.992 -69.141,185.203 8.172,7.969 26.293,33.547 -0.969,15.661 -66.289,-47.114 -158.32,3.558 -156.449,76.168 3.48,133.91 166.719,143.91 201.641,32.031 3.359,-12.379 13.046,-18.629 10.347,2.429 -4.84,38.161 -14.84,95.661 -43.469,145.661"
         inkscape:connector-curvature="0"
         id="path24"
         style="fill:#000000;fill-opacity:1;fill-rule:nonzero;stroke:none" /><path
         d="m 113.59,1911.21 c 9.531,19.57 18.832,37.77 23.871,59.22 3.359,20.23 -3.512,12.69 -7.383,-0.55 -5.777,-18.4 -21.797,-26.76 -36.6366,-26.95 -26.9922,-0.35 -40.4297,20.82 -39.6133,43.63 -2.9297,23.99 21.3711,40.98 39.7227,39.65 13.7502,-0.98 25.7892,-8.4 33.0512,-14.18 4.769,-2.54 9.878,-3.67 2.777,2.85 -13.438,14.65 -24.609,23.71 -24.379,45.71 0.23,20.62 17.852,42.11 41.25,41.44 29.18,-0.82 42.5,-23.12 42.422,-43.83 -0.082,-15.11 -7.652,-29.02 -19.293,-37.61 -7.539,-6.14 -5.43,-10.75 3.16,-4.93 8.281,7.11 18.16,10.24 28.359,10.47 27.93,0.43 38.872,-23.71 37.262,-46.13 -1.519,-20.98 -19.41,-42.62 -42.961,-40.16 -21.058,2.43 -32.109,20.08 -38.437,38.21 -2.114,5.58 -5.391,7.07 -5.313,-1.21 4.84,-40.47 19.922,-65.63 20.031,-65.63"
         inkscape:connector-curvature="0"
         id="path26"
         style="fill:#000000;fill-opacity:1;fill-rule:nonzero;stroke:none" /><path
         d="m 1680.12,611.879 c -9.57,-19.578 -18.83,-37.777 -23.91,-59.219 -3.32,-20.199 3.52,-12.699 7.42,0.539 5.78,18.403 21.76,26.762 36.64,26.961 26.96,0.391 40.43,-20.82 39.57,-43.64 2.97,-23.981 -21.36,-40.93 -39.68,-39.641 -13.79,0.973 -25.78,8.43 -33.05,14.211 -4.81,2.5 -9.88,3.64 -2.77,-2.891 13.43,-14.648 24.61,-23.711 24.37,-45.66 -0.23,-20.629 -17.89,-42.148 -41.25,-41.488 -29.22,0.859 -42.5,23.129 -42.42,43.871 0.08,15.078 7.62,28.988 19.3,37.617 7.54,6.133 5.43,10.699 -3.21,4.922 -8.28,-7.152 -18.12,-10.27 -28.36,-10.512 -27.93,-0.429 -38.82,23.711 -37.22,46.141 1.48,21.012 19.37,42.609 42.93,40.148 21.05,-2.379 32.11,-20.078 38.47,-38.199 2.07,-5.551 5.39,-7.07 5.32,1.211 -4.89,40.469 -19.97,65.66 -20.04,65.629"
         inkscape:connector-curvature="0"
         id="path28"
         style="fill:#000000;fill-opacity:1;fill-rule:nonzero;stroke:none" /></g></g></svg>