<?xml version="1.0" encoding="UTF-8" standalone="no"?>
<!-- Created with Inkscape (http://www.inkscape.org/) -->

<svg
   xmlns:dc="http://purl.org/dc/elements/1.1/"
   xmlns:cc="http://creativecommons.org/ns#"
   xmlns:rdf="http://www.w3.org/1999/02/22-rdf-syntax-ns#"
   xmlns:svg="http://www.w3.org/2000/svg"
   xmlns="http://www.w3.org/2000/svg"
   xmlns:inkscape="http://www.inkscape.org/namespaces/inkscape"
   version="1.1"
   width="225"
   height="315"
   id="svg2"
   xml:space="preserve"><metadata
     id="metadata8"><rdf:RDF><cc:Work
         rdf:about=""><dc:format>image/svg+xml</dc:format><dc:type
           rdf:resource="http://purl.org/dc/dcmitype/StillImage" /></cc:Work></rdf:RDF></metadata><defs
     id="defs6" /><g
     transform="matrix(1.25,0,0,-1.25,0,315)"
     id="g10"><g
       transform="scale(0.1,0.1)"
       id="g12"><path
         d="m 88.9805,2508.48 1615.7495,0 c 47.11,0 85.04,-37.93 85.04,-85.04 l 0,-2324.4205 c 0,-47.1093 -37.93,-85.039 -85.04,-85.039 l -1615.7495,0 c -47.1016,0 -85.03128,37.9297 -85.03128,85.039 l 0,2324.4205 c 0,47.11 37.92968,85.04 85.03128,85.04"
         inkscape:connector-curvature="0"
         id="path14"
         style="fill:#ffffff;fill-opacity:1;fill-rule:nonzero;stroke:none" /><path
         d="m 88.9805,2508.48 1615.7495,0 c 47.11,0 85.04,-37.93 85.04,-85.04 l 0,-2324.4205 c 0,-47.1093 -37.93,-85.039 -85.04,-85.039 l -1615.7495,0 c -47.1016,0 -85.03128,37.9297 -85.03128,85.039 l 0,2324.4205 c 0,47.11 37.92968,85.04 85.03128,85.04 z"
         inkscape:connector-curvature="0"
         id="path16"
         style="fill:none;stroke:#000000;stroke-width:7.9738698;stroke-linecap:butt;stroke-linejoin:miter;stroke-miterlimit:4;stroke-opacity:1;stroke-dasharray:none" /><path
         d="m 719.84,2052.89 c 79.379,77.46 131.488,161.91 181.332,243.13 43.707,-89.38 106.448,-167.54 174.298,-243.13 -72.58,-74.92 -128.829,-155.08 -174.06,-239.34 -50.16,86.37 -102.93,164.57 -181.57,239.34"
         inkscape:connector-curvature="0"
         id="path18"
         style="fill:#d40000;fill-opacity:1;fill-rule:nonzero;stroke:none" /><path
         d="M 719.84,462.422 C 799.219,539.879 851.328,624.34 901.172,705.551 944.879,616.211 1007.62,538.012 1075.47,462.422 1002.89,387.5 946.641,307.34 901.41,223.09 851.25,309.449 798.48,387.66 719.84,462.422"
         inkscape:connector-curvature="0"
         id="path20"
         style="fill:#d40000;fill-opacity:1;fill-rule:nonzero;stroke:none" /><path
         d="m 1575.98,515.699 c 32.54,31.723 53.86,66.332 74.29,99.571 17.89,-36.598 43.6,-68.629 71.41,-99.571 -29.73,-30.699 -52.77,-63.551 -71.33,-98.039 -20.51,35.352 -42.15,67.418 -74.37,98.039"
         inkscape:connector-curvature="0"
         id="path22"
         style="fill:#d40000;fill-opacity:1;fill-rule:nonzero;stroke:none" /><path
         d="m 74.2188,2005.86 c 32.5002,31.72 53.8322,66.33 74.2612,99.61 17.93,-36.64 43.629,-68.63 71.399,-99.61 -29.719,-30.7 -52.77,-63.52 -71.328,-98.05 -20.5,35.39 -42.141,67.42 -74.3322,98.05"
         inkscape:connector-curvature="0"
         id="path24"
         style="fill:#d40000;fill-opacity:1;fill-rule:nonzero;stroke:none" /><path
         d="m 70.4297,2135.39 1.2891,16.17 c 4.1015,49.89 15,66.76 76.9922,118.83 30.078,25.27 39.961,37.73 41.328,52.19 3.941,34.1 -26.801,44.72 -46.84,44.92 -25.929,0.23 -55.2693,-15.27 -41.289,-51.29 l -29.1014,-8.55 c -5.8594,33.59 0.1602,65.11 27.4214,79.14 36.372,18.24 83.051,11.09 106.61,-17.66 15.82,-19.34 19.41,-45.98 10.93,-66.84 -24.801,-53.39 -108.981,-76.87 -115.93,-138.55 l 93.039,0 0,34.34 27.422,0 0,-63.25"
         inkscape:connector-curvature="0"
         id="path26"
         style="fill:#d40000;fill-opacity:1;fill-rule:nonzero;stroke:none" /><path
         d="m 1723.28,387.109 -1.33,-16.168 c -4.06,-49.921 -15,-66.761 -76.95,-118.832 -30.08,-25.269 -39.96,-37.73 -41.37,-52.23 -3.9,-34.059 26.84,-44.719 46.84,-44.879 25.94,-0.27 55.27,15.27 41.29,51.289 l 29.1,8.551 c 5.9,-33.59 -0.12,-65.149 -27.38,-79.141 -36.37,-18.238 -83.05,-11.09 -106.6,17.66 -15.83,19.301 -19.42,45.981 -10.94,66.84 24.8,53.352 108.94,76.832 115.94,138.551 l -93.09,0 0,-34.371 -27.38,0 0,63.281"
         inkscape:connector-curvature="0"
         id="path28"
         style="fill:#d40000;fill-opacity:1;fill-rule:nonzero;stroke:none" /></g></g></svg>