<?xml version="1.0" encoding="UTF-8" standalone="no"?>
<!-- Created with Inkscape (http://www.inkscape.org/) -->

<svg
   xmlns:dc="http://purl.org/dc/elements/1.1/"
   xmlns:cc="http://creativecommons.org/ns#"
   xmlns:rdf="http://www.w3.org/1999/02/22-rdf-syntax-ns#"
   xmlns:svg="http://www.w3.org/2000/svg"
   xmlns="http://www.w3.org/2000/svg"
   viewBox="0 0 223.75 313.75"
   height="313.75"
   width="223.75"
   xml:space="preserve"
   version="1.1"
   id="svg2"><metadata
     id="metadata8"><rdf:RDF><cc:Work
         rdf:about=""><dc:format>image/svg+xml</dc:format><dc:type
           rdf:resource="http://purl.org/dc/dcmitype/StillImage" /></cc:Work></rdf:RDF></metadata><defs
     id="defs6" /><g
     transform="matrix(1.25,0,0,-1.25,0,313.75)"
     id="g10"><g
       transform="scale(0.1,0.1)"
       id="g12"><path
         id="path14"
         style="fill:#ffffff;fill-opacity:1;fill-rule:nonzero;stroke:none"
         d="m 85.0391,2504.49 1615.7409,0 c 47.11,0 85.04,-37.93 85.04,-85.04 l 0,-2324.4109 C 1785.82,47.9297 1747.89,10 1700.78,10 L 85.0391,10 C 37.9297,10 0,47.9297 0,95.0391 L 0,2419.45 c 0,47.11 37.9297,85.04 85.0391,85.04" /><path
         id="path16"
         style="fill:none;stroke:#000000;stroke-width:7.97384024;stroke-linecap:butt;stroke-linejoin:miter;stroke-miterlimit:4;stroke-dasharray:none;stroke-opacity:1"
         d="m 85.0391,2504.49 1615.7409,0 c 47.11,0 85.04,-37.93 85.04,-85.04 l 0,-2324.4109 C 1785.82,47.9297 1747.89,10 1700.78,10 L 85.0391,10 C 37.9297,10 0,47.9297 0,95.0391 L 0,2419.45 c 0,47.11 37.9297,85.04 85.0391,85.04 z" /><path
         id="path18"
         style="fill:#d40000;fill-opacity:1;fill-rule:nonzero;stroke:none"
         d="m 72.6602,2022.65 c -12.6602,27.78 -14.1094,75.24 23.75,81.64 28.4688,3.67 40.0698,-9.57 42.3788,-29.92 1.133,-5.94 4.492,-6.33 5.621,0.47 1.61,20.86 22.231,33.05 38.399,30 44.222,-7.58 41.679,-56.25 27.191,-89.26 -21.84,-43.83 -44.801,-71.48 -65.941,-115.62 -24.289,45.93 -52.0707,83.24 -71.3988,122.69" /><path
         id="path20"
         style="fill:#d40000;fill-opacity:1;fill-rule:nonzero;stroke:none"
         d="m 1574.41,492.461 c -12.65,-27.781 -14.02,-75.242 23.75,-81.641 28.56,-3.679 40.16,9.571 42.39,29.918 1.21,5.942 4.57,6.293 5.62,-0.468 1.6,-20.899 22.31,-33.051 38.48,-30 44.14,7.582 41.6,56.21 27.11,89.261 -21.84,43.828 -44.81,71.481 -65.9,115.578 -24.34,-45.898 -52.11,-83.238 -71.45,-122.648" /><path
         id="path22"
         style="fill:#d40000;fill-opacity:1;fill-rule:nonzero;stroke:none"
         d="m 65.3906,2131.4 1.3282,16.14 c 4.0624,49.92 14.9609,66.79 76.9532,118.86 30.117,25.24 39.957,37.74 41.328,52.19 3.949,34.1 -26.801,44.73 -46.801,44.92 -25.929,0.24 -55.2693,-15.31 -41.3201,-51.33 l -29.0703,-8.55 c -5.8594,33.63 0.1211,65.16 27.3906,79.18 36.3598,18.2 83.0388,11.05 106.6018,-17.66 15.82,-19.33 19.41,-45.97 10.929,-66.83 -24.8,-53.4 -108.941,-76.88 -115.8902,-138.6 l 93.0002,0 0,34.38 27.43,0 0,-63.24" /><path
         id="path24"
         style="fill:#d40000;fill-opacity:1;fill-rule:nonzero;stroke:none"
         d="m 1718.28,383.078 -1.33,-16.129 c -4.06,-49.918 -15,-66.801 -76.99,-118.871 -30.08,-25.226 -39.96,-37.687 -41.33,-52.187 -3.94,-34.063 26.8,-44.719 46.84,-44.922 25.94,-0.231 55.27,15.32 41.25,51.332 l 29.1,8.558 c 5.9,-33.64 -0.12,-65.16 -27.38,-79.148 -36.37,-18.242 -83.05,-11.09 -106.6,17.617 -15.82,19.344 -19.42,46.024 -10.94,66.883 24.8,53.359 108.98,76.867 115.94,138.551 l -93.05,0 0,-34.371 -27.42,0 0,63.238" /><path
         id="path26"
         style="fill:#d40000;fill-opacity:1;fill-rule:nonzero;stroke:none"
         d="m 796.25,2280.78 c 57.109,3.79 86.949,-45.04 92.699,-83.52 3.551,-6.09 5.461,-4.37 6.711,0.35 2.82,49.38 47.07,89.77 87.93,84.26 66.64,-0.9 107.11,-75.04 95.79,-137.77 -13.95,-76.64 -55.2,-122.81 -86.489,-170.35 -35.352,-49.22 -82.969,-120.32 -98.321,-154.54 0,0 -48.398,73.64 -111.289,160.24 -42.152,57.93 -75.859,120.66 -78.941,174.69 -3.641,61.72 21.75,117.07 91.91,126.64" /><path
         id="path28"
         style="fill:#d40000;fill-opacity:1;fill-rule:nonzero;stroke:none"
         d="m 796.25,230.352 c 57.109,-3.793 86.949,45.039 92.699,83.507 3.551,6.102 5.461,4.379 6.711,-0.347 2.82,-49.41 47.07,-89.762 87.93,-84.262 66.64,0.859 107.11,75 95.79,137.781 -13.95,76.641 -55.2,122.809 -86.489,170.309 -35.352,49.219 -82.969,120.351 -98.321,154.57 0,0 -48.398,-73.672 -111.289,-160.269 C 741.129,473.75 707.422,411.012 704.34,356.988 700.699,295.23 726.09,239.922 796.25,230.352" /></g></g></svg>