<?xml version="1.0" encoding="UTF-8" standalone="no"?>
<!-- Created with Inkscape (http://www.inkscape.org/) -->

<svg
   xmlns:dc="http://purl.org/dc/elements/1.1/"
   xmlns:cc="http://creativecommons.org/ns#"
   xmlns:rdf="http://www.w3.org/1999/02/22-rdf-syntax-ns#"
   xmlns:svg="http://www.w3.org/2000/svg"
   xmlns="http://www.w3.org/2000/svg"
   xmlns:inkscape="http://www.inkscape.org/namespaces/inkscape"
   version="1.1"
   width="225"
   height="315"
   id="svg2"
   xml:space="preserve"><metadata
     id="metadata8"><rdf:RDF><cc:Work
         rdf:about=""><dc:format>image/svg+xml</dc:format><dc:type
           rdf:resource="http://purl.org/dc/dcmitype/StillImage" /></cc:Work></rdf:RDF></metadata><defs
     id="defs6" /><g
     transform="matrix(1.25,0,0,-1.25,0,315)"
     id="g10"><g
       transform="scale(0.1,0.1)"
       id="g12"><path
         d="m 88.9805,2508.48 1615.7495,0 c 47.11,0 85.04,-37.93 85.04,-85.04 l 0,-2324.4205 c 0,-47.1093 -37.93,-85.039 -85.04,-85.039 l -1615.7495,0 c -47.1016,0 -85.03128,37.9297 -85.03128,85.039 l 0,2324.4205 c 0,47.11 37.92968,85.04 85.03128,85.04"
         inkscape:connector-curvature="0"
         id="path14"
         style="fill:#ffffff;fill-opacity:1;fill-rule:nonzero;stroke:none" /><path
         d="m 88.9805,2508.48 1615.7495,0 c 47.11,0 85.04,-37.93 85.04,-85.04 l 0,-2324.4205 c 0,-47.1093 -37.93,-85.039 -85.04,-85.039 l -1615.7495,0 c -47.1016,0 -85.03128,37.9297 -85.03128,85.039 l 0,2324.4205 c 0,47.11 37.92968,85.04 85.03128,85.04 z"
         inkscape:connector-curvature="0"
         id="path16"
         style="fill:none;stroke:#000000;stroke-width:7.9738698;stroke-linecap:butt;stroke-linejoin:miter;stroke-miterlimit:4;stroke-opacity:1;stroke-dasharray:none" /><path
         d="m 70.4297,2135.39 1.2891,16.17 c 4.1015,49.89 15,66.76 76.9922,118.83 30.078,25.27 39.961,37.73 41.328,52.19 3.941,34.1 -26.801,44.72 -46.84,44.92 -25.929,0.23 -55.2693,-15.27 -41.289,-51.29 l -29.1014,-8.55 c -5.8594,33.59 0.1602,65.11 27.4214,79.14 36.372,18.24 83.051,11.09 106.61,-17.66 15.82,-19.34 19.41,-45.98 10.93,-66.84 -24.801,-53.39 -108.981,-76.87 -115.93,-138.55 l 93.039,0 0,34.34 27.422,0 0,-63.25"
         inkscape:connector-curvature="0"
         id="path18"
         style="fill:#000000;fill-opacity:1;fill-rule:nonzero;stroke:none" /><path
         d="m 1723.28,387.109 -1.33,-16.168 c -4.06,-49.921 -15,-66.761 -76.95,-118.832 -30.08,-25.269 -39.96,-37.73 -41.37,-52.23 -3.9,-34.059 26.84,-44.719 46.84,-44.879 25.94,-0.27 55.27,15.27 41.29,51.289 l 29.1,8.551 c 5.9,-33.59 -0.12,-65.149 -27.38,-79.141 -36.37,-18.238 -83.05,-11.09 -106.6,17.66 -15.83,19.301 -19.42,45.981 -10.94,66.84 24.8,53.352 108.94,76.832 115.94,138.551 l -93.09,0 0,-34.371 -27.38,0 0,63.281"
         inkscape:connector-curvature="0"
         id="path20"
         style="fill:#000000;fill-opacity:1;fill-rule:nonzero;stroke:none" /><path
         d="m 888.52,1963.2 c 0.109,16.18 -12.7,16.49 -12.579,4.69 -1.062,-59.45 -51.332,-88.71 -87.82,-81.76 -56.281,10.71 -74.25,66.57 -73.742,99.46 1.672,101.6 103.902,176.48 196.172,306.68 67.609,-117.5 179.179,-209.81 185.779,-300.67 8.79,-120.78 -144.06,-165.86 -165.9,-25.08 -1.41,9.96 -13.129,14.42 -12.192,0.55 3.321,-38.59 -1.398,-54.65 42.114,-149.77 l -113.75,0 c 25.199,44.42 40.199,98.99 41.918,145.9"
         inkscape:connector-curvature="0"
         id="path22"
         style="fill:#000000;fill-opacity:1;fill-rule:nonzero;stroke:none" /><path
         d="m 888.59,555.738 c 0.121,-16.207 -12.692,-16.519 -12.539,-4.687 -1.09,59.418 -51.321,88.679 -87.852,81.719 -56.289,-10.7 -74.25,-66.559 -73.711,-99.45 1.641,-101.601 103.91,-176.48 196.133,-306.679 67.617,117.5 179.179,209.839 185.789,300.66 8.79,120.789 -144.07,165.859 -165.859,25.078 -1.449,-9.957 -13.129,-14.41 -12.231,-0.5 3.321,38.551 -1.41,54.641 42.11,149.723 l -113.75,0 c 25.199,-44.411 40.199,-98.981 41.91,-145.864"
         inkscape:connector-curvature="0"
         id="path24"
         style="fill:#000000;fill-opacity:1;fill-rule:nonzero;stroke:none" /><path
         d="m 151.602,1954.18 c 0.078,6.99 -7.153,3.71 -8.161,1.52 -9.3,-15.86 -22.89,-19.57 -36.371,-13.86 -13.32,5.7 -20.82,18.28 -19.6481,36.21 2.5,27.5 24.2971,57.57 34.8481,74.61 10.031,15.43 21.05,33.75 32.609,57.22 13.601,-26.91 20.473,-34.57 35.242,-59.14 13,-21.64 31.168,-42.81 32.539,-68.98 0,-19.88 -8.359,-38.64 -27.191,-42.07 -10.629,-1.92 -20.629,3.51 -28.008,16.29 -2.262,3.24 -6.801,1.56 -6.723,-2.89 1.332,-16.76 7.621,-31.88 22.621,-49.69 l -55.078,0 c 11.289,12.62 22.77,29.61 23.321,50.78"
         inkscape:connector-curvature="0"
         id="path26"
         style="fill:#000000;fill-opacity:1;fill-rule:nonzero;stroke:none" /><path
         d="m 1653.4,568.91 c 0.08,-6.961 -7.19,-3.711 -8.17,-1.531 -9.29,15.902 -22.89,19.57 -36.36,13.871 -13.36,-5.66 -20.82,-18.238 -19.65,-36.172 2.5,-27.5 24.3,-57.617 34.84,-74.609 10.04,-15.469 21.02,-33.789 32.62,-57.231 13.59,26.883 20.47,34.532 35.23,59.102 13.01,21.64 31.14,42.859 32.54,68.988 0,19.883 -8.36,38.672 -27.18,42.07 -10.67,1.954 -20.63,-3.519 -28.01,-16.289 -2.27,-3.238 -6.8,-1.558 -6.72,2.891 1.29,16.762 7.62,31.879 22.62,49.691 l -55.08,0 c 11.25,-12.582 22.77,-29.613 23.32,-50.781"
         inkscape:connector-curvature="0"
         id="path28"
         style="fill:#000000;fill-opacity:1;fill-rule:nonzero;stroke:none" /></g></g></svg>