<?xml version="1.0" encoding="UTF-8" standalone="no"?>
<!-- Created with Inkscape (http://www.inkscape.org/) -->

<svg
   xmlns:dc="http://purl.org/dc/elements/1.1/"
   xmlns:cc="http://creativecommons.org/ns#"
   xmlns:rdf="http://www.w3.org/1999/02/22-rdf-syntax-ns#"
   xmlns:svg="http://www.w3.org/2000/svg"
   xmlns="http://www.w3.org/2000/svg"
   xmlns:inkscape="http://www.inkscape.org/namespaces/inkscape"
   version="1.1"
   width="225"
   height="315"
   id="svg2"
   xml:space="preserve"><metadata
     id="metadata8"><rdf:RDF><cc:Work
         rdf:about=""><dc:format>image/svg+xml</dc:format><dc:type
           rdf:resource="http://purl.org/dc/dcmitype/StillImage" /></cc:Work></rdf:RDF></metadata><defs
     id="defs6" /><g
     transform="matrix(1.25,0,0,-1.25,0,315)"
     id="g10"><g
       transform="scale(0.1,0.1)"
       id="g12"><path
         d="m 89.0586,2508.48 1615.7414,0 c 47.11,0 85.04,-37.93 85.04,-85.04 l 0,-2324.4205 c 0,-47.1093 -37.93,-85.039 -85.04,-85.039 l -1615.7414,0 c -47.1094,0 -85.03907,37.9297 -85.03907,85.039 l 0,2324.4205 c 0,47.11 37.92967,85.04 85.03907,85.04"
         inkscape:connector-curvature="0"
         id="path14"
         style="fill:#ffffff;fill-opacity:1;fill-rule:nonzero;stroke:none" /><path
         d="m 89.0586,2508.48 1615.7414,0 c 47.11,0 85.04,-37.93 85.04,-85.04 l 0,-2324.4205 c 0,-47.1093 -37.93,-85.039 -85.04,-85.039 l -1615.7414,0 c -47.1094,0 -85.03907,37.9297 -85.03907,85.039 l 0,2324.4205 c 0,47.11 37.92967,85.04 85.03907,85.04 z"
         inkscape:connector-curvature="0"
         id="path16"
         style="fill:none;stroke:#000000;stroke-width:7.9738698;stroke-linecap:butt;stroke-linejoin:miter;stroke-miterlimit:4;stroke-opacity:1;stroke-dasharray:none" /><path
         d="m 59.3008,2205.98 20.6211,14.92 c 17.9297,-28.63 37.9301,-47.46 68.5581,-44.22 45.93,3.09 64.961,50.35 55.309,85.98 -9.258,31.95 -47.309,47.54 -77.539,30.46 -7.109,-4.02 -15.352,-8.98 -15.352,-8.98 l -10.777,17.54 70.969,82.54 -76.9884,0 0,-34.14 -29.5704,0 0,61.21 150.5078,0 0,-20.78 c 0,0 -40.309,-41.02 -53.668,-63.52 32.848,-1.21 59.289,-21.6 68.789,-53.9 5.539,-17 3.039,-55.86 -4.219,-72.62 -12.07,-27.93 -45.203,-50.59 -75.472,-51.92 -50.7385,-3.35 -77.7385,31.61 -91.1682,57.43"
         inkscape:connector-curvature="0"
         id="path18"
         style="fill:#000000;fill-opacity:1;fill-rule:nonzero;stroke:none" /><path
         d="m 1729.77,316.48 -20.63,-14.878 c -17.93,28.597 -37.93,47.457 -68.52,44.218 -45.93,-3.09 -64.96,-50.351 -55.35,-86.019 9.3,-31.91 47.35,-47.5 77.54,-30.461 7.15,4.019 15.39,8.238 15.39,8.238 l 12.74,-16.488 -72.93,-82.809 76.99,0 0,34.141 29.53,0 0,-61.25 -150.47,0 0,20.777 c 0,0 40.28,41.063 53.64,63.563 -32.82,1.168 -59.3,21.597 -68.75,53.898 -5.55,17 -3.05,55.86 4.17,72.621 12.11,27.93 45.2,50.59 75.47,51.879 50.79,3.36 77.74,-31.57 91.18,-57.43"
         inkscape:connector-curvature="0"
         id="path20"
         style="fill:#000000;fill-opacity:1;fill-rule:nonzero;stroke:none" /><path
         d="m 835.039,1029.92 c 23.281,46.76 40.27,94.73 43.281,146.06 2.77,18.86 -8.711,19.18 -10.429,5.9 -33.012,-126.26 -208.551,-92.08 -202.539,26.67 4.918,96.29 100.546,117.04 150.468,85.55 19.692,-11.6 18.559,-4.69 7.809,7.38 -74.098,82.66 -29.219,189.14 70.941,191.06 108.32,-6.41 136.45,-120.39 70,-187.38 -8.281,-8.05 -26.601,-33.95 0.981,-15.86 67.109,47.69 160.189,-3.6 158.319,-77.07 -3.52,-135.51 -168.749,-145.63 -204.069,-32.43 -3.391,12.54 -13.199,18.83 -10.461,-2.46 4.879,-38.59 15,-96.79 43.98,-147.42"
         inkscape:connector-curvature="0"
         id="path22"
         style="fill:#000000;fill-opacity:1;fill-rule:nonzero;stroke:none" /><path
         d="m 834.531,1826.76 c 23.278,46.76 40.27,94.72 43.278,146.05 2.781,18.87 -8.707,19.18 -10.43,5.9 -33,-126.25 -208.59,-92.07 -202.539,26.68 4.89,96.29 100.551,117.03 150.43,85.55 19.73,-11.6 18.601,-4.69 7.851,7.34 -74.101,82.7 -29.211,189.14 70.938,191.1 108.321,-6.41 136.411,-120.4 69.961,-187.39 -8.239,-8.08 -26.559,-33.94 1.019,-15.86 67.071,47.66 160.191,-3.59 158.281,-77.07 -3.48,-135.51 -168.711,-145.62 -204.019,-32.42 -3.403,12.54 -13.211,18.83 -10.512,-2.46 4.922,-38.59 15.039,-96.8 44.02,-147.42"
         inkscape:connector-curvature="0"
         id="path24"
         style="fill:#000000;fill-opacity:1;fill-rule:nonzero;stroke:none" /><path
         d="M 953.551,693.629 C 930.23,646.879 913.238,598.91 910.23,547.578 c -2.769,-18.867 8.719,-19.18 10.43,-5.898 33.012,126.25 208.6,92.07 202.54,-26.68 -4.88,-96.289 -100.54,-117.031 -150.43,-85.551 -19.719,11.602 -18.59,4.692 -7.848,-7.379 74.138,-82.66 29.258,-189.14 -70.942,-191.05 -108.32,6.402 -136.402,120.39 -69.96,187.378 8.25,8.051 26.57,33.942 -1.008,15.864 -67.071,-47.703 -160.203,3.59 -158.282,77.066 3.508,135.512 168.711,145.621 204.02,32.422 3.398,-12.539 13.199,-18.828 10.512,2.461 -4.922,38.59 -15.043,96.801 -44.032,147.418"
         inkscape:connector-curvature="0"
         id="path26"
         style="fill:#000000;fill-opacity:1;fill-rule:nonzero;stroke:none" /><path
         d="m 107.27,1915.51 c 9.64,19.8 19.019,38.24 24.14,59.92 3.391,20.47 -3.558,12.85 -7.5,-0.55 -5.82,-18.59 -22.031,-27.07 -37.0702,-27.26 -27.3086,-0.39 -40.8984,21.09 -40.039,44.14 -3.0117,24.29 21.5976,41.44 40.1484,40.15 13.9488,-1.01 26.1018,-8.51 33.4418,-14.37 4.839,-2.58 10,-3.71 2.808,2.89 -13.59,14.84 -24.9178,23.98 -24.6482,46.25 0.2383,20.86 18.0902,42.62 41.7192,41.95 29.57,-0.86 43.011,-23.4 42.929,-44.37 -0.078,-15.28 -7.687,-29.34 -19.488,-38.09 -7.66,-6.17 -5.512,-10.82 3.199,-4.96 8.36,7.23 18.36,10.39 28.711,10.63 28.25,0.43 39.301,-23.99 37.66,-46.68 -1.48,-21.25 -19.609,-43.17 -43.441,-40.67 -21.32,2.42 -32.5,20.31 -38.899,38.67 -2.152,5.63 -5.472,7.15 -5.39,-1.25 4.918,-40.93 20.148,-66.4 20.269,-66.4"
         inkscape:connector-curvature="0"
         id="path28"
         style="fill:#000000;fill-opacity:1;fill-rule:nonzero;stroke:none" /><path
         d="m 1686.6,601.051 c -9.65,-19.801 -19.02,-38.199 -24.14,-59.922 -3.4,-20.469 3.52,-12.848 7.46,0.551 5.86,18.59 22.07,27.07 37.11,27.3 27.27,0.36 40.9,-21.089 40.04,-44.179 2.97,-24.25 -21.64,-41.442 -40.16,-40.11 -13.94,0.969 -26.13,8.508 -33.47,14.368 -4.85,2.543 -10,3.671 -2.78,-2.93 13.56,-14.801 24.89,-23.981 24.65,-46.207 -0.23,-20.902 -18.08,-42.652 -41.76,-41.992 -29.53,0.859 -43,23.398 -42.93,44.371 0.08,15.32 7.74,29.379 19.54,38.09 7.65,6.211 5.5,10.859 -3.21,4.961 -8.4,-7.192 -18.36,-10.352 -28.71,-10.582 -28.28,-0.43 -39.29,23.98 -37.69,46.679 1.52,21.25 19.61,43.121 43.47,40.66 21.29,-2.461 32.5,-20.347 38.91,-38.711 2.11,-5.628 5.47,-7.109 5.39,1.25 -4.92,40.942 -20.2,66.442 -20.31,66.403"
         inkscape:connector-curvature="0"
         id="path30"
         style="fill:#000000;fill-opacity:1;fill-rule:nonzero;stroke:none" /></g></g></svg>