<?xml version="1.0" encoding="UTF-8" standalone="no"?>
<!-- Created with Inkscape (http://www.inkscape.org/) -->

<svg
   xmlns:dc="http://purl.org/dc/elements/1.1/"
   xmlns:cc="http://creativecommons.org/ns#"
   xmlns:rdf="http://www.w3.org/1999/02/22-rdf-syntax-ns#"
   xmlns:svg="http://www.w3.org/2000/svg"
   xmlns="http://www.w3.org/2000/svg"
   xmlns:inkscape="http://www.inkscape.org/namespaces/inkscape"
   version="1.1"
   width="225"
   height="315"
   id="svg2"
   xml:space="preserve"><metadata
     id="metadata8"><rdf:RDF><cc:Work
         rdf:about=""><dc:format>image/svg+xml</dc:format><dc:type
           rdf:resource="http://purl.org/dc/dcmitype/StillImage" /></cc:Work></rdf:RDF></metadata><defs
     id="defs6" /><g
     transform="matrix(1.25,0,0,-1.25,0,315)"
     id="g10"><g
       transform="scale(0.1,0.1)"
       id="g12"><path
         d="m 89.0586,2508.48 1615.7414,0 c 47.11,0 85.04,-37.93 85.04,-85.04 l 0,-2324.4205 c 0,-47.1093 -37.93,-85.039 -85.04,-85.039 l -1615.7414,0 c -47.1094,0 -85.03907,37.9297 -85.03907,85.039 l 0,2324.4205 c 0,47.11 37.92967,85.04 85.03907,85.04"
         inkscape:connector-curvature="0"
         id="path14"
         style="fill:#ffffff;fill-opacity:1;fill-rule:nonzero;stroke:none" /><path
         d="m 89.0586,2508.48 1615.7414,0 c 47.11,0 85.04,-37.93 85.04,-85.04 l 0,-2324.4205 c 0,-47.1093 -37.93,-85.039 -85.04,-85.039 l -1615.7414,0 c -47.1094,0 -85.03907,37.9297 -85.03907,85.039 l 0,2324.4205 c 0,47.11 37.92967,85.04 85.03907,85.04 z"
         inkscape:connector-curvature="0"
         id="path16"
         style="fill:none;stroke:#000000;stroke-width:7.9738698;stroke-linecap:butt;stroke-linejoin:miter;stroke-miterlimit:4;stroke-opacity:1;stroke-dasharray:none" /><path
         d="m 718.59,2046.72 c 79.379,77.46 131.488,161.91 181.332,243.12 43.75,-89.37 106.488,-167.54 174.298,-243.12 -72.58,-74.92 -128.829,-155.08 -174.06,-239.34 -50.16,86.37 -102.93,164.57 -181.57,239.34"
         inkscape:connector-curvature="0"
         id="path18"
         style="fill:#d40000;fill-opacity:1;fill-rule:nonzero;stroke:none" /><path
         d="m 718.59,469.922 c 79.379,77.418 131.488,161.879 181.332,243.09 43.75,-89.34 106.488,-167.543 174.298,-243.09 C 1001.64,394.961 945.391,314.801 900.16,230.59 850,316.91 797.23,395.16 718.59,469.922"
         inkscape:connector-curvature="0"
         id="path20"
         style="fill:#d40000;fill-opacity:1;fill-rule:nonzero;stroke:none" /><path
         d="m 718.59,1258.98 c 79.379,77.47 131.488,161.92 181.332,243.13 43.75,-89.38 106.488,-167.54 174.298,-243.13 -72.58,-74.92 -128.829,-155.07 -174.06,-239.33 -50.16,86.37 -102.93,164.57 -181.57,239.33"
         inkscape:connector-curvature="0"
         id="path22"
         style="fill:#d40000;fill-opacity:1;fill-rule:nonzero;stroke:none" /><path
         d="m 1574.38,512.699 c 32.53,31.711 53.86,66.321 74.29,99.602 17.89,-36.602 43.6,-68.629 71.41,-99.602 -29.73,-30.711 -52.78,-63.519 -71.33,-98.051 -20.55,35.391 -42.15,67.422 -74.37,98.051"
         inkscape:connector-curvature="0"
         id="path24"
         style="fill:#d40000;fill-opacity:1;fill-rule:nonzero;stroke:none" /><path
         d="m 78.4805,2002.38 c 32.5395,31.76 53.8595,66.33 74.2895,99.61 17.929,-36.6 43.601,-68.63 71.41,-99.61 -29.731,-30.7 -52.77,-63.51 -71.328,-98 -20.512,35.35 -42.153,67.38 -74.3715,98"
         inkscape:connector-curvature="0"
         id="path26"
         style="fill:#d40000;fill-opacity:1;fill-rule:nonzero;stroke:none" /><path
         d="m 71.6016,2194.77 20.3867,14.72 c 17.7027,-28.28 37.4607,-46.91 67.7027,-43.67 45.387,3.05 64.219,49.73 54.688,84.96 -9.18,31.56 -46.758,46.95 -76.609,30.12 -7.071,-3.99 -15.192,-8.91 -15.192,-8.91 l -10.629,17.35 70.121,81.56 -76.09,0 0,-33.75 -29.2183,0 0,60.51 148.7503,0 0,-20.55 c 0,0 -39.852,-40.55 -53.051,-62.77 32.461,-1.18 58.59,-21.37 67.93,-53.29 5.507,-16.75 3.05,-55.19 -4.102,-71.71 -11.949,-27.62 -44.687,-50 -74.57,-51.29 -50.199,-3.32 -76.8401,31.21 -90.1174,56.72"
         inkscape:connector-curvature="0"
         id="path28"
         style="fill:#d40000;fill-opacity:1;fill-rule:nonzero;stroke:none" /><path
         d="m 1722.27,327.699 -20.39,-14.687 c -17.74,28.238 -37.5,46.867 -67.74,43.668 -45.39,-3.051 -64.18,-49.77 -54.69,-84.961 9.18,-31.559 46.76,-46.949 76.64,-30.117 7.03,3.988 15.2,8.128 15.2,8.128 l 12.58,-16.25 -72.07,-81.878 76.09,0 0,33.75 29.18,0 0,-60.512 -148.71,0 0,20.551 c 0,0 39.84,40.55 53.01,62.769 -32.42,1.18 -58.56,21.328 -67.93,53.25 -5.47,16.789 -3.01,55.231 4.14,71.75 11.95,27.621 44.69,50 74.57,51.289 50.15,3.321 76.8,-31.211 90.12,-56.75"
         inkscape:connector-curvature="0"
         id="path30"
         style="fill:#d40000;fill-opacity:1;fill-rule:nonzero;stroke:none" /></g></g></svg>