<?xml version="1.0" encoding="UTF-8" standalone="no"?>
<!-- Created with Inkscape (http://www.inkscape.org/) -->

<svg
   xmlns:dc="http://purl.org/dc/elements/1.1/"
   xmlns:cc="http://creativecommons.org/ns#"
   xmlns:rdf="http://www.w3.org/1999/02/22-rdf-syntax-ns#"
   xmlns:svg="http://www.w3.org/2000/svg"
   xmlns="http://www.w3.org/2000/svg"
   viewBox="0 0 223.75 313.75"
   height="313.75"
   width="223.75"
   xml:space="preserve"
   version="1.1"
   id="svg2"><metadata
     id="metadata8"><rdf:RDF><cc:Work
         rdf:about=""><dc:format>image/svg+xml</dc:format><dc:type
           rdf:resource="http://purl.org/dc/dcmitype/StillImage" /></cc:Work></rdf:RDF></metadata><defs
     id="defs6" /><g
     transform="matrix(1.25,0,0,-1.25,0,313.75)"
     id="g10"><g
       transform="scale(0.1,0.1)"
       id="g12"><path
         id="path14"
         style="fill:#ffffff;fill-opacity:1;fill-rule:nonzero;stroke:none"
         d="m 85.0391,2504.49 1615.7409,0 c 47.11,0 85.04,-37.93 85.04,-85.04 l 0,-2324.4109 C 1785.82,47.9297 1747.89,10 1700.78,10 L 85.0391,10 C 37.9297,10 0,47.9297 0,95.0391 L 0,2419.45 c 0,47.11 37.9297,85.04 85.0391,85.04" /><path
         id="path16"
         style="fill:none;stroke:#000000;stroke-width:7.97384024;stroke-linecap:butt;stroke-linejoin:miter;stroke-miterlimit:4;stroke-dasharray:none;stroke-opacity:1"
         d="m 85.0391,2504.49 1615.7409,0 c 47.11,0 85.04,-37.93 85.04,-85.04 l 0,-2324.4109 C 1785.82,47.9297 1747.89,10 1700.78,10 L 85.0391,10 C 37.9297,10 0,47.9297 0,95.0391 L 0,2419.45 c 0,47.11 37.9297,85.04 85.0391,85.04 z" /><path
         id="path18"
         style="fill:#d40000;fill-opacity:1;fill-rule:nonzero;stroke:none"
         d="m 67.5781,2190.78 20.3907,14.72 c 17.6912,-28.28 37.5002,-46.91 67.7302,-43.71 45.391,3.05 64.18,49.77 54.692,85 -9.18,31.57 -46.801,46.96 -76.641,30.08 -7.031,-3.94 -15.199,-8.87 -15.199,-8.87 l -10.621,17.35 70.121,81.56 -76.102,0 0,-33.79 -29.1795,0 0,60.55 148.7105,0 0,-20.55 c 0,0 -39.839,-40.55 -53,-62.77 32.418,-1.21 58.551,-21.37 67.93,-53.28 5.469,-16.8 3,-55.2 -4.14,-71.76 -11.961,-27.58 -44.692,-50 -74.571,-51.29 -50.16,-3.28 -76.8396,31.21 -90.1209,56.76" /><path
         id="path20"
         style="fill:#d40000;fill-opacity:1;fill-rule:nonzero;stroke:none"
         d="m 1718.24,323.711 -20.39,-14.731 c -17.69,28.282 -37.46,46.911 -67.73,43.711 -45.35,-3.05 -64.18,-49.761 -54.65,-85 9.18,-31.562 46.76,-46.953 76.6,-30.082 7.07,3.95 15.2,8.129 15.2,8.129 l 12.57,-16.289 -72.07,-81.84 76.1,0 0,33.75 29.18,0 0,-60.539 -148.71,0 0,20.539 c 0,0 39.84,40.551 53.04,62.782 -32.46,1.211 -58.59,21.359 -67.97,53.281 -5.46,16.789 -3,55.187 4.14,71.758 11.96,27.609 44.69,50 74.57,51.281 50.2,3.328 76.84,-31.211 90.12,-56.75" /><path
         id="path22"
         style="fill:#d40000;fill-opacity:1;fill-rule:nonzero;stroke:none"
         d="m 77.9688,2019.18 c -12.6993,27.77 -14.0586,75.23 23.7932,81.68 28.468,3.63 40.078,-9.61 42.379,-29.97 1.129,-5.93 4.488,-6.28 5.507,0.47 1.68,20.9 22.34,33.09 38.473,30 44.18,-7.54 41.609,-56.21 27.231,-89.22 -21.911,-43.86 -44.801,-71.52 -66.012,-115.62 -24.301,45.94 -52.0705,83.24 -71.3712,122.66" /><path
         id="path24"
         style="fill:#d40000;fill-opacity:1;fill-rule:nonzero;stroke:none"
         d="m 795.98,2274.61 c 57.219,3.78 86.95,-45.04 92.809,-83.52 3.441,-6.09 5.352,-4.38 6.723,0.35 2.726,49.38 46.949,89.77 87.929,84.22 66.639,-0.86 107.109,-75 95.659,-137.73 -13.83,-76.64 -55.19,-122.82 -86.401,-170.36 -35.359,-49.21 -83.051,-120.31 -98.32,-154.53 0,0 -48.399,73.64 -111.367,160.24 -42.071,57.93 -75.742,120.66 -78.953,174.68 -3.508,61.72 21.761,117.08 91.921,126.65" /><path
         id="path26"
         style="fill:#d40000;fill-opacity:1;fill-rule:nonzero;stroke:none"
         d="m 796.52,1487.22 c 57.152,3.79 87,-45.04 92.742,-83.47 3.508,-6.14 5.347,-4.42 6.718,0.31 2.809,49.41 46.95,89.76 87.93,84.26 66.64,-0.86 107.11,-75 95.74,-137.78 -13.91,-76.64 -55.2,-122.77 -86.451,-170.31 -35.39,-49.22 -82.969,-120.35 -98.32,-154.53 0,0 -48.43,73.59 -111.359,160.19 -42.11,57.93 -75.79,120.67 -78.911,174.69 -3.589,61.76 21.762,117.07 91.911,126.64" /><path
         id="path28"
         style="fill:#d40000;fill-opacity:1;fill-rule:nonzero;stroke:none"
         d="m 1573.83,489.488 c -12.66,-27.777 -14.03,-75.277 23.75,-81.679 28.55,-3.668 40.08,9.613 42.42,29.961 1.17,5.941 4.45,6.289 5.59,-0.508 1.6,-20.864 22.3,-33.051 38.39,-30 44.26,7.578 41.68,56.25 27.19,89.258 -21.83,43.832 -44.8,71.519 -65.9,115.621 -24.33,-45.93 -52.11,-83.243 -71.44,-122.653" /><path
         id="path30"
         style="fill:#d40000;fill-opacity:1;fill-rule:nonzero;stroke:none"
         d="m 795.98,237.809 c 57.219,-3.789 86.95,45.043 92.809,83.511 3.441,6.102 5.352,4.379 6.723,-0.351 2.726,-49.367 46.949,-89.758 87.929,-84.219 66.639,0.859 107.109,75 95.659,137.738 -13.83,76.641 -55.19,122.813 -86.401,170.352 -35.359,49.219 -83.051,120.308 -98.32,154.531 0,0 -48.399,-73.633 -111.367,-160.23 -42.071,-57.93 -75.742,-120.672 -78.953,-174.692 -3.508,-61.719 21.761,-117.07 91.921,-126.64" /></g></g></svg>