<?xml version="1.0" encoding="UTF-8" standalone="no"?>
<!-- Created with Inkscape (http://www.inkscape.org/) -->

<svg
   xmlns:dc="http://purl.org/dc/elements/1.1/"
   xmlns:cc="http://creativecommons.org/ns#"
   xmlns:rdf="http://www.w3.org/1999/02/22-rdf-syntax-ns#"
   xmlns:svg="http://www.w3.org/2000/svg"
   xmlns="http://www.w3.org/2000/svg"
   xmlns:inkscape="http://www.inkscape.org/namespaces/inkscape"
   version="1.1"
   width="225"
   height="315"
   id="svg2"
   xml:space="preserve"><metadata
     id="metadata8"><rdf:RDF><cc:Work
         rdf:about=""><dc:format>image/svg+xml</dc:format><dc:type
           rdf:resource="http://purl.org/dc/dcmitype/StillImage" /></cc:Work></rdf:RDF></metadata><defs
     id="defs6" /><g
     transform="matrix(1.25,0,0,-1.25,0,315)"
     id="g10"><g
       transform="scale(0.1,0.1)"
       id="g12"><path
         d="m 89.0586,2508.48 1615.7414,0 c 47.11,0 85.04,-37.93 85.04,-85.04 l 0,-2324.4205 c 0,-47.1093 -37.93,-85.039 -85.04,-85.039 l -1615.7414,0 c -47.1094,0 -85.03907,37.9297 -85.03907,85.039 l 0,2324.4205 c 0,47.11 37.92967,85.04 85.03907,85.04"
         inkscape:connector-curvature="0"
         id="path14"
         style="fill:#ffffff;fill-opacity:1;fill-rule:nonzero;stroke:none" /><path
         d="m 89.0586,2508.48 1615.7414,0 c 47.11,0 85.04,-37.93 85.04,-85.04 l 0,-2324.4205 c 0,-47.1093 -37.93,-85.039 -85.04,-85.039 l -1615.7414,0 c -47.1094,0 -85.03907,37.9297 -85.03907,85.039 l 0,2324.4205 c 0,47.11 37.92967,85.04 85.03907,85.04 z"
         inkscape:connector-curvature="0"
         id="path16"
         style="fill:none;stroke:#000000;stroke-width:7.9738698;stroke-linecap:butt;stroke-linejoin:miter;stroke-miterlimit:4;stroke-opacity:1;stroke-dasharray:none" /><path
         d="m 71.6016,2194.77 20.3867,14.72 c 17.7027,-28.28 37.4607,-46.91 67.7027,-43.67 45.387,3.05 64.219,49.73 54.688,84.96 -9.18,31.56 -46.758,46.95 -76.609,30.12 -7.071,-3.99 -15.192,-8.91 -15.192,-8.91 l -10.629,17.35 70.121,81.56 -76.09,0 0,-33.75 -29.2183,0 0,60.51 148.7503,0 0,-20.55 c 0,0 -39.852,-40.55 -53.051,-62.77 32.461,-1.18 58.59,-21.37 67.93,-53.29 5.507,-16.75 3.05,-55.19 -4.102,-71.71 -11.949,-27.62 -44.687,-50 -74.57,-51.29 -50.199,-3.32 -76.8401,31.21 -90.1174,56.72"
         inkscape:connector-curvature="0"
         id="path18"
         style="fill:#000000;fill-opacity:1;fill-rule:nonzero;stroke:none" /><path
         d="m 1722.27,327.699 -20.39,-14.687 c -17.74,28.238 -37.5,46.867 -67.74,43.668 -45.39,-3.051 -64.18,-49.77 -54.69,-84.961 9.18,-31.559 46.76,-46.949 76.64,-30.117 7.03,3.988 15.2,8.128 15.2,8.128 l 12.58,-16.25 -72.07,-81.878 76.09,0 0,33.75 29.18,0 0,-60.512 -148.71,0 0,20.551 c 0,0 39.84,40.55 53.01,62.769 -32.42,1.18 -58.56,21.328 -67.93,53.25 -5.47,16.789 -3.01,55.231 4.14,71.75 11.95,27.621 44.69,50 74.57,51.289 50.15,3.321 76.8,-31.211 90.12,-56.75"
         inkscape:connector-curvature="0"
         id="path20"
         style="fill:#000000;fill-opacity:1;fill-rule:nonzero;stroke:none" /><path
         d="m 879.301,1957.03 c 0.109,16.17 -12.699,16.49 -12.539,4.69 -1.102,-59.45 -51.332,-88.71 -87.852,-81.76 -56.289,10.7 -74.262,66.56 -73.711,99.49 1.641,101.57 103.903,176.45 196.129,306.64 67.621,-117.5 179.182,-209.8 185.782,-300.66 8.79,-120.78 -144.059,-165.86 -165.86,-25.08 -1.41,9.96 -13.129,14.42 -12.23,0.55 3.32,-38.6 -1.399,-54.65 42.109,-149.77 l -113.75,0 c 25.199,44.42 40.199,98.99 41.922,145.9"
         inkscape:connector-curvature="0"
         id="path22"
         style="fill:#000000;fill-opacity:1;fill-rule:nonzero;stroke:none" /><path
         d="m 879.879,1352.66 c 0.121,-16.21 -12.688,-16.53 -12.539,-4.69 -1.09,59.41 -51.32,88.67 -87.852,81.76 -56.289,-10.71 -74.258,-66.61 -73.707,-99.5 1.641,-101.56 103.91,-176.48 196.168,-306.68 67.582,117.54 179.181,209.85 185.781,300.67 8.75,120.78 -144.101,165.86 -165.89,25.08 -1.41,-9.96 -13.129,-14.42 -12.231,-0.51 3.321,38.55 -1.41,54.65 42.153,149.73 l -113.793,0 c 25.191,-44.42 40.191,-98.99 41.91,-145.86"
         inkscape:connector-curvature="0"
         id="path24"
         style="fill:#000000;fill-opacity:1;fill-rule:nonzero;stroke:none" /><path
         d="m 879.379,563.199 c 0.109,-16.211 -12.699,-16.519 -12.539,-4.679 -1.102,59.41 -51.328,88.671 -87.86,81.75 -56.281,-10.7 -74.25,-66.598 -73.71,-99.489 1.64,-101.562 103.91,-176.48 196.179,-306.679 67.571,117.539 179.171,209.847 185.781,300.699 8.75,120.789 -144.109,165.82 -165.902,25.039 -1.406,-9.918 -13.129,-14.41 -12.226,-0.5 3.32,38.551 -1.403,54.64 42.148,149.762 l -113.789,0 c 25.199,-44.454 40.199,-99.024 41.918,-145.903"
         inkscape:connector-curvature="0"
         id="path26"
         style="fill:#000000;fill-opacity:1;fill-rule:nonzero;stroke:none" /><path
         d="m 147.969,1950.74 c 0.082,6.96 -7.188,3.71 -8.168,1.53 -9.289,-15.9 -22.891,-19.61 -36.36,-13.87 -13.3629,5.66 -20.8629,18.24 -19.6519,36.17 2.5,27.5 24.3009,57.58 34.8399,74.61 10.043,15.43 21.019,33.79 32.621,57.23 13.59,-26.92 20.469,-34.57 35.23,-59.14 13.008,-21.61 31.141,-42.82 32.54,-68.95 0,-19.88 -8.36,-38.67 -27.18,-42.11 -10.668,-1.91 -20.629,3.56 -28.051,16.33 -2.23,3.24 -6.758,1.52 -6.68,-2.93 1.289,-16.72 7.621,-31.84 22.621,-49.69 l -55.082,0 c 11.25,12.62 22.774,29.65 23.321,50.82"
         inkscape:connector-curvature="0"
         id="path28"
         style="fill:#000000;fill-opacity:1;fill-rule:nonzero;stroke:none" /><path
         d="m 1643.83,565.941 c 0.08,-6.992 -7.19,-3.711 -8.17,-1.531 -9.29,15.86 -22.93,19.57 -36.36,13.828 -13.36,-5.66 -20.86,-18.238 -19.65,-36.168 2.5,-27.5 24.3,-57.582 34.84,-74.609 10,-15.43 21.02,-33.75 32.62,-57.231 13.59,26.918 20.47,34.571 35.23,59.149 13.01,21.641 31.14,42.812 32.54,68.98 0,19.879 -8.36,38.629 -27.18,42.071 -10.67,1.91 -20.63,-3.551 -28.05,-16.289 -2.23,-3.282 -6.76,-1.563 -6.72,2.89 1.33,16.758 7.66,31.879 22.66,49.688 l -55.08,0 c 11.25,-12.617 22.77,-29.649 23.32,-50.778"
         inkscape:connector-curvature="0"
         id="path30"
         style="fill:#000000;fill-opacity:1;fill-rule:nonzero;stroke:none" /></g></g></svg>