<?xml version="1.0" encoding="UTF-8" standalone="no"?>
<!-- Created with Inkscape (http://www.inkscape.org/) -->

<svg
   xmlns:dc="http://purl.org/dc/elements/1.1/"
   xmlns:cc="http://creativecommons.org/ns#"
   xmlns:rdf="http://www.w3.org/1999/02/22-rdf-syntax-ns#"
   xmlns:svg="http://www.w3.org/2000/svg"
   xmlns="http://www.w3.org/2000/svg"
   xmlns:inkscape="http://www.inkscape.org/namespaces/inkscape"
   version="1.1"
   width="225"
   height="315"
   id="svg2"
   xml:space="preserve"><metadata
     id="metadata8"><rdf:RDF><cc:Work
         rdf:about=""><dc:format>image/svg+xml</dc:format><dc:type
           rdf:resource="http://purl.org/dc/dcmitype/StillImage" /></cc:Work></rdf:RDF></metadata><defs
     id="defs6" /><g
     transform="matrix(1.25,0,0,-1.25,0,315)"
     id="g10"><g
       transform="scale(0.1,0.1)"
       id="g12"><path
         d="m 89.1406,2508.48 1615.7394,0 c 47.11,0 85.04,-37.93 85.04,-85.04 l 0,-2324.4205 c 0,-47.1093 -37.93,-85.039 -85.04,-85.039 l -1615.7394,0 c -47.1094,0 -85.03904,37.9297 -85.03904,85.039 l 0,2324.4205 c 0,47.11 37.92964,85.04 85.03904,85.04"
         inkscape:connector-curvature="0"
         id="path14"
         style="fill:#ffffff;fill-opacity:1;fill-rule:nonzero;stroke:none" /><path
         d="m 89.1406,2508.48 1615.7394,0 c 47.11,0 85.04,-37.93 85.04,-85.04 l 0,-2324.4205 c 0,-47.1093 -37.93,-85.039 -85.04,-85.039 l -1615.7394,0 c -47.1094,0 -85.03904,37.9297 -85.03904,85.039 l 0,2324.4205 c 0,47.11 37.92964,85.04 85.03904,85.04 z"
         inkscape:connector-curvature="0"
         id="path16"
         style="fill:none;stroke:#000000;stroke-width:7.9738698;stroke-linecap:butt;stroke-linejoin:miter;stroke-miterlimit:4;stroke-opacity:1;stroke-dasharray:none" /><path
         d="m 151.371,2137.5 0,22.5 20.699,0 0,37.11 -103.3981,0 0,26.13 111.8791,168.79 18.277,-0.04 0,-168.75 31.641,0 0,-26.13 -31.641,0 -0.629,-37.11 17.352,0 0,-22.5 -64.18,0 z m 20.699,192.77 -71.05,-107.03 71.05,0"
         inkscape:connector-curvature="0"
         id="path18"
         style="fill:#000000;fill-opacity:1;fill-rule:nonzero;stroke:none" /><path
         d="m 1651.84,385 0,-22.5 -20.67,0 0,-37.109 103.4,0 0,-26.172 -111.87,-168.789 -18.29,0.082 0,168.707 -31.64,0 0,26.172 31.64,0 0.59,37.109 -17.34,0 0,22.5 64.18,0 z m -20.67,-192.77 71.02,106.989 -71.02,0"
         inkscape:connector-curvature="0"
         id="path20"
         style="fill:#000000;fill-opacity:1;fill-rule:nonzero;stroke:none" /><path
         d="m 1234.53,1841.45 c 23.05,46.21 39.81,93.59 42.77,144.29 2.74,18.64 -8.59,18.95 -10.31,5.82 -32.58,-124.72 -206.09,-90.97 -200.11,26.37 4.84,95.16 99.33,115.62 148.67,84.53 19.45,-11.48 18.36,-4.61 7.73,7.27 -73.24,81.72 -28.9,186.91 70.08,188.82 107.03,-6.32 134.8,-118.94 69.14,-185.19 -8.16,-7.93 -26.25,-33.52 1.02,-15.63 66.28,47.11 158.28,-3.55 156.4,-76.17 -3.47,-133.9 -166.72,-143.9 -201.64,-32.03 -3.36,12.38 -13.01,18.63 -10.35,-2.46 4.84,-38.12 14.84,-95.62 43.52,-145.62"
         inkscape:connector-curvature="0"
         id="path22"
         style="fill:#000000;fill-opacity:1;fill-rule:nonzero;stroke:none" /><path
         d="m 438.281,1841.45 c 23.008,46.21 39.809,93.59 42.77,144.29 2.738,18.64 -8.59,18.95 -10.313,5.82 -32.617,-124.72 -206.09,-90.97 -200.117,26.37 4.809,95.16 99.34,115.62 148.641,84.53 19.488,-11.48 18.359,-4.61 7.726,7.27 -73.199,81.72 -28.867,186.91 70.121,188.82 107.032,-6.32 134.801,-118.94 69.141,-185.19 -8.16,-7.93 -26.25,-33.52 0.98,-15.63 66.29,47.11 158.321,-3.55 156.442,-76.17 -3.473,-133.9 -166.723,-143.9 -201.641,-32.03 -3.359,12.38 -13.051,18.63 -10.351,-2.46 4.84,-38.12 14.84,-95.62 43.48,-145.62"
         inkscape:connector-curvature="0"
         id="path24"
         style="fill:#000000;fill-opacity:1;fill-rule:nonzero;stroke:none" /><path
         d="m 1352.15,707.77 c -23.05,-46.168 -39.81,-93.59 -42.77,-144.29 -2.74,-18.64 8.59,-18.949 10.27,-5.82 32.62,124.762 206.13,90.969 200.15,-26.371 -4.84,-95.16 -99.37,-115.629 -148.67,-84.527 -19.45,11.476 -18.36,4.609 -7.73,-7.274 73.24,-81.718 28.87,-186.91 -70.08,-188.828 -107.03,6.328 -134.8,118.949 -69.18,185.199 8.16,7.93 26.29,33.52 -0.98,15.621 -66.28,-47.101 -158.28,3.559 -156.4,76.18 3.44,133.899 166.72,143.899 201.6,32.07 3.36,-12.429 13.05,-18.64 10.39,2.418 -4.84,38.122 -14.88,95.622 -43.52,145.622"
         inkscape:connector-curvature="0"
         id="path26"
         style="fill:#000000;fill-opacity:1;fill-rule:nonzero;stroke:none" /><path
         d="m 555.898,707.77 c -23.046,-46.168 -39.847,-93.59 -42.808,-144.29 -2.738,-18.64 8.59,-18.949 10.308,-5.82 32.622,124.762 206.09,90.969 200.153,-26.371 -4.84,-95.16 -99.371,-115.629 -148.672,-84.527 -19.488,11.476 -18.359,4.609 -7.731,-7.274 C 640.391,357.77 596.02,252.578 497.031,250.66 390,256.988 362.23,369.609 427.891,435.859 c 8.16,7.93 26.289,33.52 -0.981,15.621 -66.289,-47.101 -158.32,3.559 -156.441,76.18 3.48,133.899 166.722,143.899 201.64,32.07 3.36,-12.429 13.051,-18.64 10.352,2.418 -4.84,38.122 -14.84,95.622 -43.481,145.622"
         inkscape:connector-curvature="0"
         id="path28"
         style="fill:#000000;fill-opacity:1;fill-rule:nonzero;stroke:none" /><path
         d="m 115.781,1905.12 c 9.528,19.57 18.789,37.77 23.867,59.22 3.364,20.19 -3.519,12.69 -7.418,-0.55 -5.75,-18.4 -21.761,-26.76 -36.6402,-26.95 -26.9609,-0.39 -40.3906,20.82 -39.5703,43.63 -2.9297,23.98 21.3594,40.94 39.6797,39.65 13.7888,-0.98 25.7808,-8.44 33.0898,-14.22 4.762,-2.5 9.84,-3.63 2.731,2.89 -13.399,14.65 -24.61,23.71 -24.372,45.66 0.231,20.63 17.891,42.15 41.25,41.49 29.223,-0.86 42.5,-23.13 42.422,-43.87 -0.082,-15.08 -7.621,-28.98 -19.261,-37.62 -7.579,-6.13 -5.469,-10.7 3.171,-4.92 8.282,7.15 18.122,10.27 28.36,10.51 27.93,0.43 38.82,-23.71 37.219,-46.13 -1.481,-21.02 -19.368,-42.62 -42.93,-40.16 -21.051,2.38 -32.109,20.08 -38.43,38.2 -2.109,5.55 -5.429,7.07 -5.32,-1.21 4.851,-40.47 19.922,-65.66 20.043,-65.62"
         inkscape:connector-curvature="0"
         id="path30"
         style="fill:#000000;fill-opacity:1;fill-rule:nonzero;stroke:none" /><path
         d="m 1678.24,615.039 c -9.53,-19.57 -18.83,-37.769 -23.86,-59.18 -3.36,-20.238 3.47,-12.738 7.38,0.512 5.78,18.399 21.79,26.75 36.64,26.949 26.95,0.391 40.43,-20.82 39.57,-43.629 2.97,-23.992 -21.37,-40.941 -39.69,-39.652 -13.79,0.981 -25.78,8.441 -33.05,14.223 -4.76,2.5 -9.88,3.629 -2.77,-2.891 13.44,-14.652 24.61,-23.711 24.38,-45.672 -0.24,-20.621 -17.86,-42.148 -41.25,-41.48 -29.22,0.859 -42.5,23.121 -42.43,43.871 0.08,15.07 7.62,28.98 19.3,37.609 7.54,6.141 5.43,10.711 -3.2,4.922 -8.28,-7.141 -18.13,-10.269 -28.36,-10.5 -27.89,-0.43 -38.83,23.707 -37.23,46.129 1.49,21.02 19.38,42.621 42.97,40.16 21.02,-2.39 32.07,-20.082 38.44,-38.211 2.07,-5.539 5.39,-7.07 5.31,1.25 -4.88,40.43 -19.92,65.629 -20.04,65.59"
         inkscape:connector-curvature="0"
         id="path32"
         style="fill:#000000;fill-opacity:1;fill-rule:nonzero;stroke:none" /></g></g></svg>