<?xml version="1.0" encoding="UTF-8" standalone="no"?>
<!-- Created with Inkscape (http://www.inkscape.org/) -->

<svg
   xmlns:dc="http://purl.org/dc/elements/1.1/"
   xmlns:cc="http://creativecommons.org/ns#"
   xmlns:rdf="http://www.w3.org/1999/02/22-rdf-syntax-ns#"
   xmlns:svg="http://www.w3.org/2000/svg"
   xmlns="http://www.w3.org/2000/svg"
   xmlns:inkscape="http://www.inkscape.org/namespaces/inkscape"
   version="1.1"
   width="225"
   height="315"
   id="svg2"
   xml:space="preserve"><metadata
     id="metadata8"><rdf:RDF><cc:Work
         rdf:about=""><dc:format>image/svg+xml</dc:format><dc:type
           rdf:resource="http://purl.org/dc/dcmitype/StillImage" /></cc:Work></rdf:RDF></metadata><defs
     id="defs6" /><g
     transform="matrix(1.25,0,0,-1.25,0,315)"
     id="g10"><g
       transform="scale(0.1,0.1)"
       id="g12"><path
         d="m 89.1406,2508.48 1615.7394,0 c 47.11,0 85.04,-37.93 85.04,-85.04 l 0,-2324.4205 c 0,-47.1093 -37.93,-85.039 -85.04,-85.039 l -1615.7394,0 c -47.1094,0 -85.03904,37.9297 -85.03904,85.039 l 0,2324.4205 c 0,47.11 37.92964,85.04 85.03904,85.04"
         inkscape:connector-curvature="0"
         id="path14"
         style="fill:#ffffff;fill-opacity:1;fill-rule:nonzero;stroke:none" /><path
         d="m 89.1406,2508.48 1615.7394,0 c 47.11,0 85.04,-37.93 85.04,-85.04 l 0,-2324.4205 c 0,-47.1093 -37.93,-85.039 -85.04,-85.039 l -1615.7394,0 c -47.1094,0 -85.03904,37.9297 -85.03904,85.039 l 0,2324.4205 c 0,47.11 37.92964,85.04 85.03904,85.04 z"
         inkscape:connector-curvature="0"
         id="path16"
         style="fill:none;stroke:#000000;stroke-width:7.9738698;stroke-linecap:butt;stroke-linejoin:miter;stroke-miterlimit:4;stroke-opacity:1;stroke-dasharray:none" /><path
         d="m 282.66,2068.12 c 79.371,77.47 131.481,161.88 181.32,243.09 43.719,-89.33 106.45,-167.54 174.301,-243.09 -72.582,-74.96 -128.832,-155.11 -174.062,-239.33 -50.16,86.37 -102.93,164.57 -181.559,239.33"
         inkscape:connector-curvature="0"
         id="path18"
         style="fill:#d40000;fill-opacity:1;fill-rule:nonzero;stroke:none" /><path
         d="M 282.66,477.34 C 362.031,554.801 414.141,639.262 463.98,720.469 507.699,631.09 570.43,552.93 638.281,477.34 565.699,402.379 509.449,322.27 464.219,238.012 414.059,324.379 361.289,402.578 282.66,477.34"
         inkscape:connector-curvature="0"
         id="path20"
         style="fill:#d40000;fill-opacity:1;fill-rule:nonzero;stroke:none" /><path
         d="m 1174.92,2068.12 c 79.34,77.47 131.49,161.88 181.33,243.09 43.71,-89.33 106.45,-167.54 174.3,-243.09 -72.58,-74.96 -128.87,-155.11 -174.1,-239.33 -50.12,86.37 -102.9,164.57 -181.53,239.33"
         inkscape:connector-curvature="0"
         id="path22"
         style="fill:#d40000;fill-opacity:1;fill-rule:nonzero;stroke:none" /><path
         d="m 1174.92,477.34 c 79.34,77.461 131.49,161.922 181.33,243.129 43.71,-89.379 106.45,-167.539 174.3,-243.129 -72.58,-74.961 -128.87,-155.07 -174.1,-239.328 -50.12,86.367 -102.9,164.566 -181.53,239.328"
         inkscape:connector-curvature="0"
         id="path24"
         style="fill:#d40000;fill-opacity:1;fill-rule:nonzero;stroke:none" /><path
         d="m 1568.44,518.871 c 32.5,31.719 53.86,66.328 74.26,99.57 17.92,-36.601 43.63,-68.64 71.4,-99.57 -29.72,-30.711 -52.77,-63.562 -71.29,-98.051 -20.54,35.391 -42.19,67.418 -74.37,98.051"
         inkscape:connector-curvature="0"
         id="path26"
         style="fill:#d40000;fill-opacity:1;fill-rule:nonzero;stroke:none" /><path
         d="m 70.6602,1999.77 c 32.5388,31.71 53.8708,66.32 74.3008,99.57 17.891,-36.61 43.59,-68.64 71.41,-99.57 -29.769,-30.71 -52.781,-63.56 -71.332,-98.05 -20.551,35.39 -42.148,67.42 -74.3788,98.05"
         inkscape:connector-curvature="0"
         id="path28"
         style="fill:#d40000;fill-opacity:1;fill-rule:nonzero;stroke:none" /><path
         d="m 146.762,2137.5 0,22.5 20.699,0 0,37.11 -103.4024,0 0,26.13 111.8824,168.79 18.278,-0.04 0,-168.75 31.64,0 0,-26.13 -31.64,0 -0.629,-37.11 17.351,0 0,-22.5 -64.179,0 z m 20.699,192.77 -71.0508,-107.03 71.0508,0"
         inkscape:connector-curvature="0"
         id="path30"
         style="fill:#d40000;fill-opacity:1;fill-rule:nonzero;stroke:none" /><path
         d="m 1647.23,385 0,-22.5 -20.67,0 0,-37.109 103.4,0 0,-26.172 -111.87,-168.789 -18.32,0.082 0,168.707 -31.61,0 0,26.172 31.61,0 0.62,37.109 -17.34,0 0,22.5 64.18,0 z m -20.67,-192.77 71.02,106.989 -71.02,0"
         inkscape:connector-curvature="0"
         id="path32"
         style="fill:#d40000;fill-opacity:1;fill-rule:nonzero;stroke:none" /></g></g></svg>