<?xml version="1.0" encoding="UTF-8" standalone="no"?>
<!-- Created with Inkscape (http://www.inkscape.org/) -->

<svg
   xmlns:dc="http://purl.org/dc/elements/1.1/"
   xmlns:cc="http://creativecommons.org/ns#"
   xmlns:rdf="http://www.w3.org/1999/02/22-rdf-syntax-ns#"
   xmlns:svg="http://www.w3.org/2000/svg"
   xmlns="http://www.w3.org/2000/svg"
   viewBox="0 0 223.75 313.75"
   height="313.75"
   width="223.75"
   xml:space="preserve"
   version="1.1"
   id="svg2"><metadata
     id="metadata8"><rdf:RDF><cc:Work
         rdf:about=""><dc:format>image/svg+xml</dc:format><dc:type
           rdf:resource="http://purl.org/dc/dcmitype/StillImage" /></cc:Work></rdf:RDF></metadata><defs
     id="defs6" /><g
     transform="matrix(1.25,0,0,-1.25,0,313.75)"
     id="g10"><g
       transform="scale(0.1,0.1)"
       id="g12"><path
         id="path14"
         style="fill:#ffffff;fill-opacity:1;fill-rule:nonzero;stroke:none"
         d="m 85.0391,2504.49 1615.7409,0 c 47.11,0 85.04,-37.93 85.04,-85.04 l 0,-2324.4109 C 1785.82,47.9297 1747.89,10 1700.78,10 L 85.0391,10 C 37.9297,10 0,47.9297 0,95.0391 L 0,2419.45 c 0,47.11 37.9297,85.04 85.0391,85.04" /><path
         id="path16"
         style="fill:none;stroke:#000000;stroke-width:7.97384024;stroke-linecap:butt;stroke-linejoin:miter;stroke-miterlimit:4;stroke-dasharray:none;stroke-opacity:1"
         d="m 85.0391,2504.49 1615.7409,0 c 47.11,0 85.04,-37.93 85.04,-85.04 l 0,-2324.4109 C 1785.82,47.9297 1747.89,10 1700.78,10 L 85.0391,10 C 37.9297,10 0,47.9297 0,95.0391 L 0,2419.45 c 0,47.11 37.9297,85.04 85.0391,85.04 z" /><path
         id="path18"
         style="fill:#d40000;fill-opacity:1;fill-rule:nonzero;stroke:none"
         d="m 142.699,2133.51 0,22.5 20.66,0 0,37.07 -103.3981,0 0,26.17 111.8791,168.79 18.281,-0.08 0,-168.71 31.641,0 0,-26.17 -31.641,0 -0.59,-37.07 17.348,0 0,-22.5 -64.18,0 z m 20.66,192.78 -71.0192,-107.04 71.0192,0" /><path
         id="path20"
         style="fill:#d40000;fill-opacity:1;fill-rule:nonzero;stroke:none"
         d="m 1643.12,380.969 0,-22.5 -20.66,0 0,-37.071 103.4,0 0,-26.168 -111.88,-168.789 -18.28,0.039 0,168.75 -31.64,0 0,26.168 31.64,0 0.59,37.071 -17.34,0 0,22.5 64.17,0 z m -20.66,-192.77 71.02,107.031 -71.02,0" /><path
         id="path22"
         style="fill:#d40000;fill-opacity:1;fill-rule:nonzero;stroke:none"
         d="m 70.0781,2016.52 c -12.7383,27.77 -14.0586,75.27 23.75,81.68 28.4729,3.67 40.0819,-9.61 42.4219,-29.92 1.09,-5.98 4.449,-6.33 5.512,0.47 1.679,20.86 22.297,33.04 38.468,30 44.258,-7.58 41.61,-56.25 27.192,-89.26 -21.832,-43.83 -44.762,-71.53 -65.973,-115.63 -24.34,45.94 -52.0701,83.25 -71.3709,122.66" /><path
         id="path24"
         style="fill:#d40000;fill-opacity:1;fill-rule:nonzero;stroke:none"
         d="m 360,2295.97 c 57.109,3.79 86.949,-45 92.73,-83.47 3.52,-6.14 5.36,-4.42 6.719,0.31 2.781,49.41 46.961,89.76 87.891,84.26 66.64,-0.86 107.148,-75 95.781,-137.78 -13.941,-76.64 -55.191,-122.77 -86.48,-170.31 -35.352,-49.22 -82.969,-120.31 -98.321,-154.53 0,0 -48.398,73.63 -111.371,160.23 -42.07,57.89 -75.738,120.63 -78.859,174.65 -3.602,61.76 21.75,117.07 91.91,126.64" /><path
         id="path26"
         style="fill:#d40000;fill-opacity:1;fill-rule:nonzero;stroke:none"
         d="m 1236.25,2295.97 c 57.11,3.79 86.95,-45 92.77,-83.47 3.44,-6.14 5.39,-4.42 6.64,0.31 2.82,49.41 47.07,89.76 88.01,84.26 66.56,-0.86 107.03,-75 95.71,-137.78 -13.95,-76.64 -55.24,-122.77 -86.49,-170.31 -35.35,-49.22 -82.97,-120.31 -98.32,-154.53 0,0 -48.32,73.63 -111.29,160.23 -42.15,57.89 -75.86,120.63 -78.94,174.65 -3.64,61.76 21.75,117.07 91.91,126.64" /><path
         id="path28"
         style="fill:#d40000;fill-opacity:1;fill-rule:nonzero;stroke:none"
         d="m 360,245.27 c 57.109,-3.829 86.949,45 92.73,83.48 3.52,6.09 5.36,4.371 6.719,-0.359 2.781,-49.371 46.961,-89.762 87.891,-84.211 66.64,0.859 107.148,75 95.781,137.73 -13.941,76.641 -55.191,122.809 -86.48,170.352 -35.352,49.218 -82.969,120.308 -98.321,154.527 0,0 -48.398,-73.629 -111.371,-160.23 C 304.879,488.629 271.211,425.891 268.09,371.871 264.488,310.148 289.84,254.84 360,245.27" /><path
         id="path30"
         style="fill:#d40000;fill-opacity:1;fill-rule:nonzero;stroke:none"
         d="m 1236.25,245.27 c 57.11,-3.829 86.95,45 92.77,83.48 3.44,6.09 5.39,4.371 6.64,-0.359 2.82,-49.371 47.07,-89.762 88.01,-84.211 66.56,0.859 107.03,75 95.71,137.73 -13.95,76.641 -55.24,122.809 -86.49,170.352 -35.35,49.218 -82.97,120.308 -98.32,154.527 0,0 -48.32,-73.629 -111.29,-160.23 -42.15,-57.93 -75.86,-120.668 -78.94,-174.688 -3.64,-61.723 21.75,-117.031 91.91,-126.601" /><path
         id="path32"
         style="fill:#d40000;fill-opacity:1;fill-rule:nonzero;stroke:none"
         d="m 1567.85,495.621 c -12.73,-27.769 -14.1,-75.23 23.75,-81.641 28.48,-3.671 40.08,9.571 42.38,29.918 1.14,5.942 4.5,6.293 5.55,-0.468 1.68,-20.86 22.31,-33.039 38.48,-30 44.14,7.582 41.6,56.211 27.19,89.261 -21.92,43.829 -44.81,71.489 -66.02,115.59 -24.3,-45.902 -52.07,-83.242 -71.33,-122.66" /></g></g></svg>