<?xml version="1.0" encoding="UTF-8" standalone="no"?>
<!-- Created with Inkscape (http://www.inkscape.org/) -->

<svg
   xmlns:dc="http://purl.org/dc/elements/1.1/"
   xmlns:cc="http://creativecommons.org/ns#"
   xmlns:rdf="http://www.w3.org/1999/02/22-rdf-syntax-ns#"
   xmlns:svg="http://www.w3.org/2000/svg"
   xmlns="http://www.w3.org/2000/svg"
   xmlns:inkscape="http://www.inkscape.org/namespaces/inkscape"
   version="1.1"
   width="225"
   height="315"
   id="svg2"
   xml:space="preserve"><metadata
     id="metadata8"><rdf:RDF><cc:Work
         rdf:about=""><dc:format>image/svg+xml</dc:format><dc:type
           rdf:resource="http://purl.org/dc/dcmitype/StillImage" /></cc:Work></rdf:RDF></metadata><defs
     id="defs6" /><g
     transform="matrix(1.25,0,0,-1.25,0,315)"
     id="g10"><g
       transform="scale(0.1,0.1)"
       id="g12"><path
         d="m 89.1406,2508.48 1615.7394,0 c 47.11,0 85.04,-37.93 85.04,-85.04 l 0,-2324.4205 c 0,-47.1093 -37.93,-85.039 -85.04,-85.039 l -1615.7394,0 c -47.1094,0 -85.03904,37.9297 -85.03904,85.039 l 0,2324.4205 c 0,47.11 37.92964,85.04 85.03904,85.04"
         inkscape:connector-curvature="0"
         id="path14"
         style="fill:#ffffff;fill-opacity:1;fill-rule:nonzero;stroke:none" /><path
         d="m 89.1406,2508.48 1615.7394,0 c 47.11,0 85.04,-37.93 85.04,-85.04 l 0,-2324.4205 c 0,-47.1093 -37.93,-85.039 -85.04,-85.039 l -1615.7394,0 c -47.1094,0 -85.03904,37.9297 -85.03904,85.039 l 0,2324.4205 c 0,47.11 37.92964,85.04 85.03904,85.04 z"
         inkscape:connector-curvature="0"
         id="path16"
         style="fill:none;stroke:#000000;stroke-width:7.9738698;stroke-linecap:butt;stroke-linejoin:miter;stroke-miterlimit:4;stroke-opacity:1;stroke-dasharray:none" /><path
         d="m 146.762,2137.5 0,22.5 20.699,0 0,37.11 -103.4024,0 0,26.13 111.8824,168.79 18.278,-0.04 0,-168.75 31.64,0 0,-26.13 -31.64,0 -0.629,-37.11 17.351,0 0,-22.5 -64.179,0 z m 20.699,192.77 -71.0508,-107.03 71.0508,0"
         inkscape:connector-curvature="0"
         id="path18"
         style="fill:#000000;fill-opacity:1;fill-rule:nonzero;stroke:none" /><path
         d="m 1647.23,385 0,-22.5 -20.67,0 0,-37.109 103.4,0 0,-26.172 -111.87,-168.789 -18.32,0.082 0,168.707 -31.61,0 0,26.172 31.61,0 0.62,37.109 -17.34,0 0,22.5 64.18,0 z m -20.67,-192.77 71.02,106.989 -71.02,0"
         inkscape:connector-curvature="0"
         id="path20"
         style="fill:#000000;fill-opacity:1;fill-rule:nonzero;stroke:none" /><path
         d="m 443.32,1978.4 c 0.16,16.21 -12.699,16.52 -12.539,4.69 -1.051,-59.42 -51.332,-88.71 -87.851,-81.76 -56.289,10.7 -74.258,66.56 -73.711,99.49 1.679,101.56 103.902,176.45 196.172,306.68 67.621,-117.54 179.179,-209.84 185.781,-300.7 8.789,-120.78 -144.063,-165.82 -165.902,-25.04 -1.399,9.92 -13.122,14.41 -12.18,0.51 3.281,-38.6 -1.41,-54.65 42.109,-149.77 l -113.789,0 c 25.192,44.45 40.231,99.02 41.91,145.9"
         inkscape:connector-curvature="0"
         id="path22"
         style="fill:#000000;fill-opacity:1;fill-rule:nonzero;stroke:none" /><path
         d="m 1335.59,1978.4 c 0.11,16.21 -12.7,16.52 -12.54,4.69 -1.06,-59.42 -51.33,-88.71 -87.85,-81.76 -56.29,10.7 -74.26,66.56 -73.72,99.49 1.68,101.56 103.91,176.45 196.18,306.68 67.57,-117.54 179.18,-209.84 185.78,-300.7 8.79,-120.78 -144.06,-165.82 -165.9,-25.04 -1.41,9.92 -13.13,14.41 -12.23,0.51 3.32,-38.6 -1.36,-54.65 42.15,-149.77 l -113.79,0 c 25.2,44.45 40.2,99.02 41.92,145.9"
         inkscape:connector-curvature="0"
         id="path24"
         style="fill:#000000;fill-opacity:1;fill-rule:nonzero;stroke:none" /><path
         d="m 443.441,570.621 c 0.11,-16.211 -12.703,-16.519 -12.582,-4.68 -1.058,59.411 -51.328,88.707 -87.808,81.758 -56.289,-10.711 -74.262,-66.609 -73.75,-99.5 1.679,-101.558 103.898,-176.48 196.168,-306.679 67.621,117.539 179.179,209.851 185.781,300.71 8.789,120.782 -144.059,165.821 -165.898,25.04 -1.403,-9.93 -13.122,-14.418 -12.192,-0.508 3.32,38.59 -1.398,54.648 42.11,149.758 l -113.75,0 c 25.199,-44.45 40.199,-99.02 41.921,-145.899"
         inkscape:connector-curvature="0"
         id="path26"
         style="fill:#000000;fill-opacity:1;fill-rule:nonzero;stroke:none" /><path
         d="m 1335.7,570.621 c 0.12,-16.211 -12.69,-16.519 -12.58,-4.68 -1.05,59.411 -51.32,88.707 -87.81,81.758 -56.29,-10.711 -74.26,-66.609 -73.75,-99.5 1.68,-101.558 103.91,-176.48 196.17,-306.679 67.62,117.539 179.18,209.851 185.79,300.71 8.78,120.782 -144.07,165.821 -165.9,25.04 -1.41,-9.93 -13.13,-14.418 -12.19,-0.508 3.32,38.59 -1.41,54.648 42.11,149.758 l -113.79,0 c 25.23,-44.45 40.23,-99.02 41.95,-145.899"
         inkscape:connector-curvature="0"
         id="path28"
         style="fill:#000000;fill-opacity:1;fill-rule:nonzero;stroke:none" /><path
         d="m 140.078,1948.09 c 0.121,6.95 -7.148,3.71 -8.129,1.52 -9.289,-15.9 -22.929,-19.57 -36.3592,-13.87 -13.3593,5.67 -20.8593,18.24 -19.6484,36.17 2.5,27.5 24.2886,57.62 34.8396,74.61 10,15.47 21.02,33.79 32.617,57.23 13.551,-26.87 20.473,-34.53 35.231,-59.1 13.012,-21.64 31.141,-42.85 32.543,-68.99 0,-19.88 -8.363,-38.67 -27.192,-42.07 -10.66,-1.95 -20.621,3.52 -28.039,16.29 -2.23,3.24 -6.8,1.57 -6.722,-2.89 1.332,-16.76 7.66,-31.87 22.66,-49.69 l -55.117,0 c 11.289,12.58 22.808,29.61 23.316,50.79"
         inkscape:connector-curvature="0"
         id="path30"
         style="fill:#000000;fill-opacity:1;fill-rule:nonzero;stroke:none" /><path
         d="m 1637.85,572.07 c 0.08,-6.949 -7.15,-3.711 -8.16,-1.519 -9.3,15.898 -22.89,19.57 -36.37,13.859 -13.32,-5.66 -20.82,-18.238 -19.65,-36.172 2.5,-27.5 24.3,-57.617 34.85,-74.609 10.03,-15.469 21.05,-33.789 32.61,-57.219 13.6,26.871 20.47,34.531 35.24,59.102 13.01,21.636 31.17,42.847 32.54,68.976 0,19.891 -8.36,38.672 -27.19,42.071 -10.63,1.961 -20.63,-3.508 -28.01,-16.289 -2.26,-3.239 -6.8,-1.559 -6.72,2.89 1.33,16.762 7.62,31.879 22.62,49.692 l -55.08,0 c 11.29,-12.582 22.77,-29.614 23.32,-50.782"
         inkscape:connector-curvature="0"
         id="path32"
         style="fill:#000000;fill-opacity:1;fill-rule:nonzero;stroke:none" /></g></g></svg>