<?xml version="1.0" encoding="UTF-8" standalone="no"?>
<!-- Created with Inkscape (http://www.inkscape.org/) -->

<svg
   xmlns:dc="http://purl.org/dc/elements/1.1/"
   xmlns:cc="http://creativecommons.org/ns#"
   xmlns:rdf="http://www.w3.org/1999/02/22-rdf-syntax-ns#"
   xmlns:svg="http://www.w3.org/2000/svg"
   xmlns="http://www.w3.org/2000/svg"
   xmlns:inkscape="http://www.inkscape.org/namespaces/inkscape"
   version="1.1"
   width="225"
   height="315"
   id="svg2"
   xml:space="preserve"><metadata
     id="metadata8"><rdf:RDF><cc:Work
         rdf:about=""><dc:format>image/svg+xml</dc:format><dc:type
           rdf:resource="http://purl.org/dc/dcmitype/StillImage" /></cc:Work></rdf:RDF></metadata><defs
     id="defs6" /><g
     transform="matrix(1.25,0,0,-1.25,0,315)"
     id="g10"><g
       transform="scale(0.1,0.1)"
       id="g12"><path
         d="m 88.9492,2508.48 1615.7408,0 c 47.11,0 85.04,-37.93 85.04,-85.04 l 0,-2324.4205 c 0,-47.1093 -37.93,-85.039 -85.04,-85.039 l -1615.7408,0 c -47.1094,0 -85.03904,37.9297 -85.03904,85.039 l 0,2324.4205 c 0,47.11 37.92964,85.04 85.03904,85.04"
         inkscape:connector-curvature="0"
         id="path14"
         style="fill:#ffffff;fill-opacity:1;fill-rule:nonzero;stroke:none" /><path
         d="m 88.9492,2508.48 1615.7408,0 c 47.11,0 85.04,-37.93 85.04,-85.04 l 0,-2324.4205 c 0,-47.1093 -37.93,-85.039 -85.04,-85.039 l -1615.7408,0 c -47.1094,0 -85.03904,37.9297 -85.03904,85.039 l 0,2324.4205 c 0,47.11 37.92964,85.04 85.03904,85.04 z"
         inkscape:connector-curvature="0"
         id="path16"
         style="fill:none;stroke:#000000;stroke-width:7.9738698;stroke-linecap:butt;stroke-linejoin:miter;stroke-miterlimit:4;stroke-opacity:1;stroke-dasharray:none" /><path
         d="m 69.9609,2208.2 25.7383,0.2 c 4.9218,-15.55 15.7808,-31.41 30.5508,-35.78 41.68,-9.77 68.551,13.51 77.379,40.39 10.711,32.58 -0.231,78.36 -28.938,94.61 -23.793,13.47 -59.14,2.11 -75.3512,-26.72 l -18.0898,11.05 9.6914,107.39 117.8476,0 0,-25.39 -95.508,0 -1.48,-44.73 c 20.5,14.41 52.148,14.3 72.687,4.14 38.91,-18.52 56.992,-60.7 49.422,-110.47 -10.512,-49.45 -33.601,-77.5 -85.75,-81.52 -57.9608,-0.51 -78.4295,39.33 -78.1991,66.83"
         inkscape:connector-curvature="0"
         id="path18"
         style="fill:#000000;fill-opacity:1;fill-rule:nonzero;stroke:none" /><path
         d="m 1724.92,314.301 -25.78,-0.242 c -4.88,15.55 -15.74,31.41 -30.51,35.82 -41.72,9.769 -68.55,-13.508 -77.38,-40.391 -10.74,-32.578 0.23,-78.359 28.95,-94.609 23.78,-13.508 59.14,-2.109 75.35,26.68 l 18.08,-11.008 -9.72,-107.391 -117.82,0 0,25.391 95.47,0 1.53,44.73 c -20.55,-14.41 -52.15,-14.301 -72.7,-4.179 -38.91,18.558 -56.99,60.738 -49.41,110.507 10.47,49.45 33.59,77.461 85.74,81.52 57.97,0.473 78.44,-39.367 78.2,-66.828"
         inkscape:connector-curvature="0"
         id="path20"
         style="fill:#000000;fill-opacity:1;fill-rule:nonzero;stroke:none" /><path
         d="m 838.051,1032.46 c 23.039,46.21 39.801,93.63 42.808,144.3 2.731,18.67 -8.589,18.98 -10.308,5.86 -32.621,-124.77 -206.102,-90.98 -200.16,26.36 4.839,95.16 99.379,115.63 148.668,84.5 19.461,-11.45 18.363,-4.57 7.742,7.3 -73.25,81.68 -28.871,186.92 70.109,188.83 107.04,-6.37 134.81,-118.95 69.141,-185.2 -8.16,-7.96 -26.281,-33.51 0.98,-15.66 66.289,47.11 158.319,-3.52 156.449,-76.13 -3.48,-133.95 -166.718,-143.91 -201.64,-32.07 -3.36,12.42 -13.051,18.63 -10.36,-2.43 4.848,-38.12 14.848,-95.62 43.481,-145.66"
         inkscape:connector-curvature="0"
         id="path22"
         style="fill:#000000;fill-opacity:1;fill-rule:nonzero;stroke:none" /><path
         d="m 1231.99,1826.56 c 23.05,46.21 39.81,93.64 42.81,144.3 2.74,18.67 -8.59,18.98 -10.31,5.86 -32.61,-124.77 -206.09,-90.98 -200.15,26.37 4.84,95.15 99.37,115.62 148.67,84.49 19.45,-11.45 18.36,-4.57 7.73,7.3 -73.24,81.68 -28.86,186.92 70.12,188.83 107.03,-6.37 134.8,-118.98 69.14,-185.19 -8.16,-7.97 -26.29,-33.52 0.98,-15.67 66.29,47.11 158.28,-3.51 156.4,-76.13 -3.43,-133.95 -166.68,-143.91 -201.6,-32.07 -3.36,12.42 -13.05,18.63 -10.35,-2.42 4.8,-38.13 14.84,-95.63 43.48,-145.67"
         inkscape:connector-curvature="0"
         id="path24"
         style="fill:#000000;fill-opacity:1;fill-rule:nonzero;stroke:none" /><path
         d="m 442.539,1826.56 c 23.051,46.21 39.801,93.64 42.813,144.3 2.738,18.67 -8.59,18.98 -10.313,5.86 -32.617,-124.77 -206.09,-90.98 -200.16,26.37 4.851,95.15 99.383,115.62 148.672,84.49 19.461,-11.45 18.359,-4.57 7.738,7.3 -73.238,81.68 -28.867,186.92 70.121,188.83 107.031,-6.37 134.801,-118.98 69.141,-185.19 -8.172,-7.97 -26.289,-33.52 0.969,-15.67 66.289,47.11 158.32,-3.51 156.449,-76.13 -3.481,-133.95 -166.719,-143.91 -201.641,-32.07 -3.359,12.42 -13.047,18.63 -10.348,-2.42 4.84,-38.13 14.84,-95.63 43.469,-145.67"
         inkscape:connector-curvature="0"
         id="path26"
         style="fill:#000000;fill-opacity:1;fill-rule:nonzero;stroke:none" /><path
         d="m 1349.61,710.512 c -23.01,-46.211 -39.81,-93.633 -42.77,-144.301 -2.74,-18.672 8.59,-18.981 10.31,-5.859 32.62,124.769 206.09,90.976 200.12,-26.372 -4.85,-95.152 -99.34,-115.621 -148.64,-84.492 -19.49,11.453 -18.4,4.571 -7.77,-7.297 73.24,-81.679 28.91,-186.921 -70.08,-188.832 -107.03,6.371 -134.8,118.942 -69.14,185.192 8.16,7.969 26.25,33.519 -0.98,15.668 -66.28,-47.11 -158.32,3.511 -156.44,76.133 3.48,133.91 166.72,143.91 201.64,32.07 3.36,-12.422 13.05,-18.633 10.35,2.418 -4.84,38.129 -14.84,95.629 -43.48,145.672"
         inkscape:connector-curvature="0"
         id="path28"
         style="fill:#000000;fill-opacity:1;fill-rule:nonzero;stroke:none" /><path
         d="m 560.16,710.512 c -23.012,-46.211 -39.808,-93.633 -42.781,-144.301 -2.731,-18.672 8.601,-18.981 10.32,-5.859 32.61,124.769 206.09,90.976 200.11,-26.372 -4.797,-95.152 -99.329,-115.621 -148.629,-84.492 -19.489,11.453 -18.36,4.571 -7.731,-7.297 73.199,-81.679 28.86,-186.921 -70.121,-188.832 -107.027,6.371 -134.808,118.942 -69.137,185.192 8.161,7.969 26.25,33.519 -0.98,15.668 -66.289,-47.11 -158.32,3.511 -156.441,76.133 3.468,133.91 166.71,143.91 201.64,32.07 3.36,-12.422 13.039,-18.633 10.352,2.418 -4.852,38.129 -14.852,95.629 -43.481,145.672"
         inkscape:connector-curvature="0"
         id="path30"
         style="fill:#000000;fill-opacity:1;fill-rule:nonzero;stroke:none" /><path
         d="m 117.66,1908.28 c 9.531,19.57 18.789,37.77 23.86,59.22 3.359,20.23 -3.508,12.7 -7.418,-0.55 -5.743,-18.36 -21.762,-26.75 -36.6411,-26.95 -26.9492,-0.35 -40.4297,20.82 -39.5703,43.63 -2.9297,23.99 21.3711,40.98 39.6875,39.65 13.7929,-0.98 25.7809,-8.4 33.0819,-14.18 4.77,-2.54 9.852,-3.63 2.738,2.85 -13.398,14.65 -24.609,23.71 -24.378,45.71 0.242,20.62 17.89,42.14 41.25,41.44 29.218,-0.82 42.5,-23.12 42.429,-43.83 -0.078,-15.11 -7.621,-29.02 -19.301,-37.61 -7.539,-6.14 -5.429,-10.75 3.204,-4.93 8.277,7.15 18.128,10.28 28.359,10.47 27.93,0.43 38.828,-23.67 37.23,-46.09 -1.492,-21.02 -19.382,-42.66 -42.929,-40.2 -21.063,2.43 -32.114,20.08 -38.442,38.21 -2.109,5.58 -5.429,7.07 -5.351,-1.21 4.883,-40.47 19.961,-65.63 20.082,-65.63"
         inkscape:connector-curvature="0"
         id="path32"
         style="fill:#000000;fill-opacity:1;fill-rule:nonzero;stroke:none" /><path
         d="m 1676.02,612.27 c -9.54,-19.571 -18.83,-37.782 -23.87,-59.219 -3.36,-20.199 3.51,-12.699 7.38,0.539 5.78,18.398 21.8,26.762 36.64,26.961 26.99,0.39 40.43,-20.821 39.61,-43.641 2.93,-23.98 -21.37,-40.93 -39.73,-39.64 -13.75,0.968 -25.78,8.429 -33.04,14.21 -4.77,2.5 -9.89,3.641 -2.78,-2.89 13.44,-14.641 24.61,-23.711 24.38,-45.66 -0.23,-20.629 -17.85,-42.149 -41.25,-41.481 -29.18,0.852 -42.46,23.121 -42.42,43.821 0.08,15.121 7.65,29.031 19.29,37.66 7.58,6.09 5.43,10.699 -3.16,4.922 -8.28,-7.153 -18.16,-10.274 -28.36,-10.512 -27.93,-0.43 -38.87,23.711 -37.26,46.14 1.52,20.969 19.41,42.61 42.96,40.149 21.06,-2.379 32.11,-20.078 38.44,-38.199 2.11,-5.551 5.39,-7.071 5.31,1.211 -4.84,40.468 -19.92,65.66 -20.04,65.629"
         inkscape:connector-curvature="0"
         id="path34"
         style="fill:#000000;fill-opacity:1;fill-rule:nonzero;stroke:none" /></g></g></svg>