<?xml version="1.0" encoding="UTF-8" standalone="no"?>
<!-- Created with Inkscape (http://www.inkscape.org/) -->

<svg
   xmlns:dc="http://purl.org/dc/elements/1.1/"
   xmlns:cc="http://creativecommons.org/ns#"
   xmlns:rdf="http://www.w3.org/1999/02/22-rdf-syntax-ns#"
   xmlns:svg="http://www.w3.org/2000/svg"
   xmlns="http://www.w3.org/2000/svg"
   xmlns:inkscape="http://www.inkscape.org/namespaces/inkscape"
   version="1.1"
   width="225"
   height="315"
   id="svg2"
   xml:space="preserve"><metadata
     id="metadata8"><rdf:RDF><cc:Work
         rdf:about=""><dc:format>image/svg+xml</dc:format><dc:type
           rdf:resource="http://purl.org/dc/dcmitype/StillImage" /></cc:Work></rdf:RDF></metadata><defs
     id="defs6" /><g
     transform="matrix(1.25,0,0,-1.25,0,315)"
     id="g10"><g
       transform="scale(0.1,0.1)"
       id="g12"><path
         d="m 88.9492,2508.48 1615.7408,0 c 47.11,0 85.04,-37.93 85.04,-85.04 l 0,-2324.4205 c 0,-47.1093 -37.93,-85.039 -85.04,-85.039 l -1615.7408,0 c -47.1094,0 -85.03904,37.9297 -85.03904,85.039 l 0,2324.4205 c 0,47.11 37.92964,85.04 85.03904,85.04"
         inkscape:connector-curvature="0"
         id="path14"
         style="fill:#ffffff;fill-opacity:1;fill-rule:nonzero;stroke:none" /><path
         d="m 88.9492,2508.48 1615.7408,0 c 47.11,0 85.04,-37.93 85.04,-85.04 l 0,-2324.4205 c 0,-47.1093 -37.93,-85.039 -85.04,-85.039 l -1615.7408,0 c -47.1094,0 -85.03904,37.9297 -85.03904,85.039 l 0,2324.4205 c 0,47.11 37.92964,85.04 85.03904,85.04 z"
         inkscape:connector-curvature="0"
         id="path16"
         style="fill:none;stroke:#000000;stroke-width:7.9738698;stroke-linecap:butt;stroke-linejoin:miter;stroke-miterlimit:4;stroke-opacity:1;stroke-dasharray:none" /><path
         d="m 274.961,2053.24 c 79.34,77.46 131.488,161.92 181.328,243.13 C 500,2206.99 562.73,2128.83 630.59,2053.24 557.969,1978.32 501.719,1898.16 456.48,1813.91 c -50.109,86.36 -102.929,164.57 -181.519,239.33"
         inkscape:connector-curvature="0"
         id="path18"
         style="fill:#d40000;fill-opacity:1;fill-rule:nonzero;stroke:none" /><path
         d="M 274.961,480.039 C 354.301,557.5 406.449,641.949 456.289,723.16 500,633.789 562.73,555.621 630.59,480.039 557.969,405.078 501.719,324.961 456.48,240.699 406.371,327.07 353.551,405.27 274.961,480.039"
         inkscape:connector-curvature="0"
         id="path20"
         style="fill:#d40000;fill-opacity:1;fill-rule:nonzero;stroke:none" /><path
         d="m 1160.39,2053.24 c 79.38,77.46 131.49,161.92 181.33,243.13 43.71,-89.38 106.44,-167.54 174.3,-243.13 -72.58,-74.92 -128.83,-155.08 -174.07,-239.33 -50.15,86.36 -102.93,164.57 -181.56,239.33"
         inkscape:connector-curvature="0"
         id="path22"
         style="fill:#d40000;fill-opacity:1;fill-rule:nonzero;stroke:none" /><path
         d="m 718.441,1259.14 c 79.368,77.46 131.481,161.91 181.36,243.13 43.719,-89.38 106.449,-167.54 174.259,-243.13 -72.58,-74.92 -128.83,-155.08 -174.06,-239.34 -50.16,86.37 -102.93,164.58 -181.559,239.34"
         inkscape:connector-curvature="0"
         id="path24"
         style="fill:#d40000;fill-opacity:1;fill-rule:nonzero;stroke:none" /><path
         d="m 1160.39,480.039 c 79.38,77.461 131.49,161.91 181.33,243.121 43.71,-89.371 106.44,-167.539 174.3,-243.121 -72.58,-74.961 -128.83,-155.078 -174.07,-239.34 -50.15,86.371 -102.93,164.571 -181.56,239.34"
         inkscape:connector-curvature="0"
         id="path26"
         style="fill:#d40000;fill-opacity:1;fill-rule:nonzero;stroke:none" /><path
         d="m 1570.2,516.09 c 32.53,31.719 53.86,66.289 74.29,99.57 17.89,-36.601 43.6,-68.629 71.41,-99.57 -29.73,-30.699 -52.78,-63.551 -71.33,-98.039 -20.55,35.347 -42.15,67.379 -74.37,98.039"
         inkscape:connector-curvature="0"
         id="path28"
         style="fill:#d40000;fill-opacity:1;fill-rule:nonzero;stroke:none" /><path
         d="m 76.5586,2002.93 c 32.5004,31.72 53.8714,66.33 74.2614,99.61 17.93,-36.6 43.629,-68.63 71.41,-99.61 -29.73,-30.7 -52.781,-63.52 -71.289,-98.05 -20.55,35.39 -42.191,67.42 -74.3824,98.05"
         inkscape:connector-curvature="0"
         id="path30"
         style="fill:#d40000;fill-opacity:1;fill-rule:nonzero;stroke:none" /><path
         d="m 69.3398,2208.2 25.7813,0.2 c 4.8789,-15.55 15.7769,-31.41 30.4999,-35.78 41.719,-9.77 68.559,13.51 77.391,40.39 10.738,32.58 -0.242,78.36 -28.91,94.61 -23.832,13.47 -59.18,2.11 -75.3911,-26.72 l -18.0507,11.05 9.6914,107.39 117.8474,0 0,-25.39 -95.5,0 -1.527,-44.73 c 20.547,14.41 52.148,14.26 72.699,4.14 38.899,-18.52 56.988,-60.74 49.41,-110.47 -10.472,-49.45 -33.59,-77.5 -85.742,-81.52 -57.9687,-0.51 -78.4374,39.33 -78.1992,66.83"
         inkscape:connector-curvature="0"
         id="path32"
         style="fill:#d40000;fill-opacity:1;fill-rule:nonzero;stroke:none" /><path
         d="m 1724.3,314.301 -25.75,-0.242 c -4.92,15.55 -15.78,31.41 -30.54,35.781 -41.68,9.808 -68.56,-13.469 -77.39,-40.352 -10.7,-32.578 0.24,-78.359 28.95,-94.609 23.79,-13.508 59.14,-2.109 75.39,26.68 l 18.05,-11.008 -9.69,-107.391 -117.85,0 0,25.391 95.51,0 1.48,44.73 c -20.51,-14.41 -52.15,-14.301 -72.66,-4.179 -38.94,18.558 -56.99,60.738 -49.45,110.507 10.51,49.45 33.6,77.461 85.74,81.52 57.97,0.473 78.44,-39.367 78.21,-66.828"
         inkscape:connector-curvature="0"
         id="path34"
         style="fill:#d40000;fill-opacity:1;fill-rule:nonzero;stroke:none" /></g></g></svg>