<?xml version="1.0" encoding="UTF-8" standalone="no"?>
<!-- Created with Inkscape (http://www.inkscape.org/) -->

<svg
   xmlns:dc="http://purl.org/dc/elements/1.1/"
   xmlns:cc="http://creativecommons.org/ns#"
   xmlns:rdf="http://www.w3.org/1999/02/22-rdf-syntax-ns#"
   xmlns:svg="http://www.w3.org/2000/svg"
   xmlns="http://www.w3.org/2000/svg"
   viewBox="0 0 223.75 313.75"
   height="313.75"
   width="223.75"
   xml:space="preserve"
   version="1.1"
   id="svg2"><metadata
     id="metadata8"><rdf:RDF><cc:Work
         rdf:about=""><dc:format>image/svg+xml</dc:format><dc:type
           rdf:resource="http://purl.org/dc/dcmitype/StillImage" /></cc:Work></rdf:RDF></metadata><defs
     id="defs6" /><g
     transform="matrix(1.25,0,0,-1.25,0,313.75)"
     id="g10"><g
       transform="scale(0.1,0.1)"
       id="g12"><path
         id="path14"
         style="fill:#ffffff;fill-opacity:1;fill-rule:nonzero;stroke:none"
         d="m 85.0391,2504.49 1615.7409,0 c 47.11,0 85.04,-37.93 85.04,-85.04 l 0,-2324.4109 C 1785.82,47.9297 1747.89,10 1700.78,10 L 85.0391,10 C 37.9297,10 0,47.9297 0,95.0391 L 0,2419.45 c 0,47.11 37.9297,85.04 85.0391,85.04" /><path
         id="path16"
         style="fill:none;stroke:#000000;stroke-width:7.97384024;stroke-linecap:butt;stroke-linejoin:miter;stroke-miterlimit:4;stroke-dasharray:none;stroke-opacity:1"
         d="m 85.0391,2504.49 1615.7409,0 c 47.11,0 85.04,-37.93 85.04,-85.04 l 0,-2324.4109 C 1785.82,47.9297 1747.89,10 1700.78,10 L 85.0391,10 C 37.9297,10 0,47.9297 0,95.0391 L 0,2419.45 c 0,47.11 37.9297,85.04 85.0391,85.04 z" /><path
         id="path18"
         style="fill:#d40000;fill-opacity:1;fill-rule:nonzero;stroke:none"
         d="m 65.4297,2204.18 25.7422,0.23 c 4.9179,-15.55 15.7771,-31.41 30.5471,-35.78 41.722,-9.81 68.551,13.51 77.383,40.39 10.738,32.58 -0.231,78.32 -28.942,94.61 -23.789,13.48 -59.14,2.11 -75.3592,-26.72 l -18.0391,11.05 9.6485,107.35 117.8518,0 0,-25.35 -95.473,0 -1.519,-44.73 c 20.539,14.41 52.14,14.26 72.691,4.14 38.91,-18.51 56.988,-60.74 49.418,-110.47 -10.469,-49.45 -33.598,-77.5 -85.75,-81.52 -57.9688,-0.51 -78.4298,39.33 -78.1993,66.8" /><path
         id="path20"
         style="fill:#d40000;fill-opacity:1;fill-rule:nonzero;stroke:none"
         d="m 1720.39,310.309 -25.78,-0.239 c -4.88,15.551 -15.78,31.41 -30.51,35.789 -41.72,9.801 -68.55,-13.48 -77.38,-40.359 -10.7,-32.57 0.23,-78.359 28.94,-94.641 23.79,-13.48 59.14,-2.109 75.36,26.711 l 18.08,-11.011 -9.72,-107.379 -117.82,0 0,25.351 95.51,0 1.48,44.719 c -20.5,-14.371 -52.14,-14.25 -72.69,-4.141 -38.91,18.563 -56.99,60.75 -49.41,110.469 10.5,49.492 33.59,77.5 85.74,81.531 57.97,0.5 78.43,-39.339 78.2,-66.8" /><path
         id="path22"
         style="fill:#d40000;fill-opacity:1;fill-rule:nonzero;stroke:none"
         d="m 76.0898,2019.72 c -12.6484,27.78 -14.1015,75.24 23.75,81.64 28.4802,3.68 40.0822,-9.57 42.4302,-29.92 1.089,-5.94 4.449,-6.29 5.582,0.47 1.597,20.86 22.226,33.05 38.398,30 44.262,-7.58 41.68,-56.25 27.191,-89.26 -21.839,-43.83 -44.812,-71.48 -65.902,-115.62 -24.34,45.93 -52.1093,83.24 -71.4492,122.69" /><path
         id="path24"
         style="fill:#d40000;fill-opacity:1;fill-rule:nonzero;stroke:none"
         d="m 352.422,2281.13 c 57.187,3.79 86.957,-45.04 92.777,-83.52 3.43,-6.09 5.391,-4.37 6.711,0.35 2.82,49.38 47,89.77 87.93,84.22 66.64,-0.86 107.109,-75 95.781,-137.73 -13.941,-76.64 -55.23,-122.81 -86.48,-170.35 -35.391,-49.22 -83.051,-120.31 -98.321,-154.53 0,0 -48.398,73.63 -111.371,160.23 -42.07,57.93 -75.777,120.66 -78.859,174.69 -3.641,61.72 21.68,117.07 91.832,126.64" /><path
         id="path26"
         style="fill:#d40000;fill-opacity:1;fill-rule:nonzero;stroke:none"
         d="m 1237.93,2281.13 c 57.11,3.79 86.87,-45.04 92.73,-83.52 3.44,-6.09 5.36,-4.37 6.72,0.35 2.78,49.38 46.96,89.77 87.89,84.22 66.64,-0.86 107.15,-75 95.78,-137.73 -13.94,-76.64 -55.19,-122.81 -86.48,-170.35 -35.35,-49.22 -82.97,-120.31 -98.32,-154.53 0,0 -48.4,73.63 -111.37,160.23 -42.07,57.93 -75.74,120.66 -78.86,174.69 -3.6,61.72 21.75,117.07 91.91,126.64" /><path
         id="path28"
         style="fill:#d40000;fill-opacity:1;fill-rule:nonzero;stroke:none"
         d="m 796.48,1487.22 c 57.192,3.79 86.961,-45.04 92.821,-83.47 3.429,-6.14 5.347,-4.42 6.719,0.31 2.691,49.41 46.949,89.76 87.929,84.26 66.641,-0.86 107.101,-75 95.661,-137.78 -13.83,-76.64 -55.2,-122.77 -86.411,-170.31 -35.347,-49.22 -83.039,-120.35 -98.32,-154.53 0,0 -48.399,73.59 -111.359,160.19 -42.071,57.93 -75.75,120.67 -78.95,174.69 -3.519,61.76 21.758,117.07 91.91,126.64" /><path
         id="path30"
         style="fill:#d40000;fill-opacity:1;fill-rule:nonzero;stroke:none"
         d="m 352.422,247.961 c 57.187,-3.781 86.957,45 92.777,83.48 3.43,6.129 5.391,4.379 6.711,-0.312 2.82,-49.418 47,-89.809 87.93,-84.258 66.64,0.859 107.109,75 95.781,137.738 -13.941,76.68 -55.23,122.813 -86.48,170.352 -35.391,49.219 -83.051,120.309 -98.321,154.527 0,0 -48.398,-73.629 -111.371,-160.238 -42.07,-57.891 -75.777,-120.66 -78.859,-174.68 -3.641,-61.718 21.68,-117.031 91.832,-126.609" /><path
         id="path32"
         style="fill:#d40000;fill-opacity:1;fill-rule:nonzero;stroke:none"
         d="m 1237.93,247.961 c 57.11,-3.781 86.87,45 92.73,83.48 3.44,6.129 5.36,4.379 6.72,-0.312 2.78,-49.418 46.96,-89.77 87.89,-84.258 66.64,0.859 107.15,75 95.78,137.738 -13.94,76.68 -55.19,122.813 -86.48,170.352 -35.35,49.219 -82.97,120.309 -98.32,154.527 0,0 -48.4,-73.629 -111.37,-160.238 -42.07,-57.891 -75.74,-120.66 -78.86,-174.68 -3.6,-61.718 21.75,-117.031 91.91,-126.609" /><path
         id="path34"
         style="fill:#d40000;fill-opacity:1;fill-rule:nonzero;stroke:none"
         d="m 1569.77,492.852 c -12.66,-27.782 -14.07,-75.243 23.75,-81.68 28.47,-3.633 40.07,9.609 42.42,29.957 1.09,5.941 4.45,6.293 5.51,-0.469 1.67,-20.859 22.3,-33.09 38.47,-30 44.26,7.539 41.6,56.211 27.19,89.262 -21.84,43.828 -44.77,71.476 -65.98,115.578 -24.25,-45.93 -51.99,-83.238 -71.36,-122.648" /></g></g></svg>