<?xml version="1.0" encoding="UTF-8" standalone="no"?>
<!-- Created with Inkscape (http://www.inkscape.org/) -->

<svg
   xmlns:dc="http://purl.org/dc/elements/1.1/"
   xmlns:cc="http://creativecommons.org/ns#"
   xmlns:rdf="http://www.w3.org/1999/02/22-rdf-syntax-ns#"
   xmlns:svg="http://www.w3.org/2000/svg"
   xmlns="http://www.w3.org/2000/svg"
   xmlns:inkscape="http://www.inkscape.org/namespaces/inkscape"
   version="1.1"
   width="225"
   height="315"
   id="svg2"
   xml:space="preserve"><metadata
     id="metadata8"><rdf:RDF><cc:Work
         rdf:about=""><dc:format>image/svg+xml</dc:format><dc:type
           rdf:resource="http://purl.org/dc/dcmitype/StillImage" /></cc:Work></rdf:RDF></metadata><defs
     id="defs6" /><g
     transform="matrix(1.25,0,0,-1.25,0,315)"
     id="g10"><g
       transform="scale(0.1,0.1)"
       id="g12"><path
         d="m 88.9492,2508.48 1615.7408,0 c 47.11,0 85.04,-37.93 85.04,-85.04 l 0,-2324.4205 c 0,-47.1093 -37.93,-85.039 -85.04,-85.039 l -1615.7408,0 c -47.1094,0 -85.03904,37.9297 -85.03904,85.039 l 0,2324.4205 c 0,47.11 37.92964,85.04 85.03904,85.04"
         inkscape:connector-curvature="0"
         id="path14"
         style="fill:#ffffff;fill-opacity:1;fill-rule:nonzero;stroke:none" /><path
         d="m 88.9492,2508.48 1615.7408,0 c 47.11,0 85.04,-37.93 85.04,-85.04 l 0,-2324.4205 c 0,-47.1093 -37.93,-85.039 -85.04,-85.039 l -1615.7408,0 c -47.1094,0 -85.03904,37.9297 -85.03904,85.039 l 0,2324.4205 c 0,47.11 37.92964,85.04 85.03904,85.04 z"
         inkscape:connector-curvature="0"
         id="path16"
         style="fill:none;stroke:#000000;stroke-width:7.9738698;stroke-linecap:butt;stroke-linejoin:miter;stroke-miterlimit:4;stroke-opacity:1;stroke-dasharray:none" /><path
         d="m 69.3398,2208.2 25.7813,0.2 c 4.8789,-15.55 15.7769,-31.41 30.4999,-35.78 41.719,-9.77 68.559,13.51 77.391,40.39 10.738,32.58 -0.242,78.36 -28.91,94.61 -23.832,13.47 -59.18,2.11 -75.3911,-26.72 l -18.0507,11.05 9.6914,107.39 117.8474,0 0,-25.39 -95.5,0 -1.527,-44.73 c 20.547,14.41 52.148,14.26 72.699,4.14 38.899,-18.52 56.988,-60.74 49.41,-110.47 -10.472,-49.45 -33.59,-77.5 -85.742,-81.52 -57.9687,-0.51 -78.4374,39.33 -78.1992,66.83"
         inkscape:connector-curvature="0"
         id="path18"
         style="fill:#000000;fill-opacity:1;fill-rule:nonzero;stroke:none" /><path
         d="m 1724.3,314.301 -25.75,-0.242 c -4.92,15.55 -15.78,31.41 -30.54,35.781 -41.68,9.808 -68.56,-13.469 -77.39,-40.352 -10.7,-32.578 0.24,-78.359 28.95,-94.609 23.79,-13.508 59.14,-2.109 75.39,26.68 l 18.05,-11.008 -9.69,-107.391 -117.85,0 0,25.391 95.51,0 1.48,44.73 c -20.51,-14.41 -52.15,-14.301 -72.66,-4.179 -38.94,18.558 -56.99,60.738 -49.45,110.507 10.51,49.45 33.6,77.461 85.74,81.52 57.97,0.473 78.44,-39.367 78.21,-66.828"
         inkscape:connector-curvature="0"
         id="path20"
         style="fill:#000000;fill-opacity:1;fill-rule:nonzero;stroke:none" /><path
         d="m 435.621,1963.52 c 0.117,16.21 -12.691,16.52 -12.531,4.68 -1.102,-59.41 -51.328,-88.67 -87.86,-81.72 -56.281,10.71 -74.25,66.57 -73.71,99.46 1.64,101.6 103.91,176.48 196.179,306.68 67.571,-117.5 179.18,-209.85 185.781,-300.67 8.75,-120.78 -144.101,-165.86 -165.902,-25.07 -1.406,9.96 -13.129,14.41 -12.226,0.5 3.32,-38.55 -1.403,-54.65 42.148,-149.72 l -113.789,0 c 25.199,44.41 40.199,98.98 41.91,145.86"
         inkscape:connector-curvature="0"
         id="path22"
         style="fill:#000000;fill-opacity:1;fill-rule:nonzero;stroke:none" /><path
         d="m 1321.09,1963.52 c 0.12,16.21 -12.69,16.52 -12.57,4.68 -1.06,-59.41 -51.33,-88.67 -87.82,-81.72 -56.29,10.71 -74.25,66.57 -73.75,99.46 1.68,101.6 103.91,176.48 196.17,306.68 67.62,-117.5 179.18,-209.85 185.79,-300.67 8.79,-120.78 -144.07,-165.86 -165.9,-25.07 -1.41,9.96 -13.13,14.41 -12.19,0.5 3.32,-38.55 -1.41,-54.65 42.11,-149.72 l -113.75,0 c 25.2,44.41 40.2,98.98 41.91,145.86"
         inkscape:connector-curvature="0"
         id="path24"
         style="fill:#000000;fill-opacity:1;fill-rule:nonzero;stroke:none" /><path
         d="m 879.141,1169.45 c 0.121,16.17 -12.692,16.49 -12.539,4.65 -1.09,-59.41 -51.332,-88.67 -87.852,-81.72 -56.289,10.71 -74.262,66.57 -73.711,99.46 1.641,101.6 103.91,176.48 196.133,306.68 67.617,-117.5 179.178,-209.81 185.778,-300.67 8.79,-120.78 -144.059,-165.86 -165.86,-25.08 -1.399,9.96 -13.121,14.42 -12.219,0.55 3.32,-38.59 -1.41,-54.65 42.109,-149.77 l -113.75,0 c 25.192,44.42 40.192,98.99 41.911,145.9"
         inkscape:connector-curvature="0"
         id="path26"
         style="fill:#000000;fill-opacity:1;fill-rule:nonzero;stroke:none" /><path
         d="m 435.699,573.32 c 0.121,-16.211 -12.687,-16.519 -12.539,-4.691 -1.051,59.461 -51.32,88.711 -87.851,81.762 -56.289,-10.7 -74.258,-66.563 -73.707,-99.493 1.679,-101.558 103.91,-176.449 196.168,-306.679 67.582,117.543 179.179,209.84 185.781,300.703 8.789,120.777 -144.063,165.816 -165.891,25.039 -1.41,-9.922 -13.129,-14.371 -12.23,-0.512 3.32,38.602 -1.371,54.653 42.148,149.77 l -113.789,0 C 418.98,674.77 433.98,620.23 435.699,573.32"
         inkscape:connector-curvature="0"
         id="path28"
         style="fill:#000000;fill-opacity:1;fill-rule:nonzero;stroke:none" /><path
         d="m 1321.17,573.32 c 0.12,-16.211 -12.69,-16.519 -12.54,-4.691 -1.09,59.461 -51.33,88.711 -87.85,81.762 -56.29,-10.7 -74.26,-66.563 -73.71,-99.493 1.64,-101.558 103.91,-176.449 196.13,-306.679 67.62,117.543 179.18,209.84 185.78,300.703 8.79,120.777 -144.06,165.816 -165.86,25.039 -1.44,-9.922 -13.12,-14.371 -12.22,-0.512 3.32,38.602 -1.41,54.653 42.11,149.77 l -113.75,0 c 25.19,-44.449 40.19,-98.989 41.91,-145.899"
         inkscape:connector-curvature="0"
         id="path30"
         style="fill:#000000;fill-opacity:1;fill-rule:nonzero;stroke:none" /><path
         d="m 145.98,1951.25 c 0.071,6.99 -7.191,3.71 -8.171,1.52 -9.289,-15.86 -22.887,-19.57 -36.36,-13.82 -13.3592,5.66 -20.8279,18.24 -19.6482,36.17 2.5,27.5 24.2892,57.58 34.8402,74.61 10.039,15.43 21.019,33.75 32.621,57.22 13.59,-26.91 20.468,-34.57 35.226,-59.14 13.012,-21.64 31.172,-42.81 32.543,-68.98 0,-19.88 -8.359,-38.63 -27.191,-42.07 -10.621,-1.92 -20.621,3.55 -28,16.29 -2.27,3.28 -6.801,1.56 -6.719,-2.89 1.328,-16.76 7.609,-31.88 22.609,-49.69 l -55.07,0 c 11.289,12.62 22.77,29.65 23.32,50.78"
         inkscape:connector-curvature="0"
         id="path32"
         style="fill:#000000;fill-opacity:1;fill-rule:nonzero;stroke:none" /><path
         d="m 1639.65,569.301 c 0.08,-6.961 -7.19,-3.711 -8.17,-1.531 -9.29,15.902 -22.93,19.57 -36.36,13.871 -13.36,-5.7 -20.86,-18.243 -19.65,-36.172 2.5,-27.5 24.3,-57.617 34.84,-74.61 10,-15.468 21.02,-33.789 32.62,-57.269 13.59,26.922 20.47,34.57 35.23,59.14 13.01,21.649 31.14,42.821 32.54,68.989 0,19.883 -8.36,38.672 -27.18,42.07 -10.67,1.949 -20.63,-3.519 -28.05,-16.289 -2.23,-3.238 -6.76,-1.559 -6.68,2.891 1.29,16.757 7.62,31.879 22.62,49.687 l -55.08,0 c 11.25,-12.578 22.77,-29.609 23.32,-50.777"
         inkscape:connector-curvature="0"
         id="path34"
         style="fill:#000000;fill-opacity:1;fill-rule:nonzero;stroke:none" /></g></g></svg>