<?xml version="1.0" encoding="UTF-8" standalone="no"?>
<!-- Created with Inkscape (http://www.inkscape.org/) -->

<svg
   xmlns:dc="http://purl.org/dc/elements/1.1/"
   xmlns:cc="http://creativecommons.org/ns#"
   xmlns:rdf="http://www.w3.org/1999/02/22-rdf-syntax-ns#"
   xmlns:svg="http://www.w3.org/2000/svg"
   xmlns="http://www.w3.org/2000/svg"
   xmlns:inkscape="http://www.inkscape.org/namespaces/inkscape"
   version="1.1"
   width="225"
   height="315"
   id="svg2"
   xml:space="preserve"><metadata
     id="metadata8"><rdf:RDF><cc:Work
         rdf:about=""><dc:format>image/svg+xml</dc:format><dc:type
           rdf:resource="http://purl.org/dc/dcmitype/StillImage" /></cc:Work></rdf:RDF></metadata><defs
     id="defs6" /><g
     transform="matrix(1.25,0,0,-1.25,0,315)"
     id="g10"><g
       transform="scale(0.1,0.1)"
       id="g12"><path
         d="m 89.0195,2508.48 1615.7505,0 c 47.11,0 85.03,-37.93 85.03,-85.04 l 0,-2324.4205 c 0,-47.1093 -37.92,-85.039 -85.03,-85.039 l -1615.7505,0 c -47.1093,0 -85.03903,37.9297 -85.03903,85.039 l 0,2324.4205 c 0,47.11 37.92973,85.04 85.03903,85.04"
         inkscape:connector-curvature="0"
         id="path14"
         style="fill:#ffffff;fill-opacity:1;fill-rule:nonzero;stroke:none" /><path
         d="m 89.0195,2508.48 1615.7505,0 c 47.11,0 85.03,-37.93 85.03,-85.04 l 0,-2324.4205 c 0,-47.1093 -37.92,-85.039 -85.03,-85.039 l -1615.7505,0 c -47.1093,0 -85.03903,37.9297 -85.03903,85.039 l 0,2324.4205 c 0,47.11 37.92973,85.04 85.03903,85.04 z"
         inkscape:connector-curvature="0"
         id="path16"
         style="fill:none;stroke:#000000;stroke-width:7.9738698;stroke-linecap:butt;stroke-linejoin:miter;stroke-miterlimit:4;stroke-opacity:1;stroke-dasharray:none" /><path
         d="m 68.9805,2220.47 c -3.2813,21.99 -3.1993,78.79 -0.5391,95.55 8.2383,51.44 28.2774,74.96 61.7886,82.65 32.54,7.5 78.321,-0.82 88.36,-43.83 l -27.262,-0.5 c -14.726,29.06 -51.949,21.28 -72.93,8.63 -16.718,-10.08 -24.2964,-52.15 -21.0582,-54.73 -0.039,0 31.6402,23.01 56.6092,21.33 53.352,-5.47 75.352,-50.86 73.473,-93.75 -1.684,-51.6 -18.363,-92.85 -74.883,-95.59 -53.7499,2.04 -78.3984,30.82 -83.5585,80.24 z m 132.5785,13.67 c 0.281,35.78 -16.289,62.58 -47.61,65.51 -31.328,2.97 -62.8982,-27.03 -60.7107,-63.52 2.1914,-36.64 16.6017,-67.46 54.6137,-67.3 40.82,0.19 53.476,39.8 53.707,65.31"
         inkscape:connector-curvature="0"
         id="path18"
         style="fill:#000000;fill-opacity:1;fill-rule:nonzero;stroke:none" /><path
         d="m 1722.97,301.988 c 3.28,-21.949 3.2,-78.75 0.55,-95.539 -8.25,-51.41 -28.29,-74.929 -61.8,-82.66 -32.54,-7.461 -78.32,0.859 -88.36,43.871 l 27.26,0.5 c 14.73,-29.058 51.96,-21.281 72.93,-8.672 16.72,10.121 24.3,52.192 21.06,54.774 0.04,0 -31.64,-23.012 -56.6,-21.332 -53.36,5.468 -75.35,50.859 -73.48,93.75 1.68,51.601 18.36,92.808 74.88,95.59 53.75,-2.04 78.4,-30.821 83.56,-80.282 z m -132.58,-13.629 c -0.27,-35.781 16.29,-62.578 47.62,-65.55 31.33,-2.93 62.89,27.07 60.7,63.562 -2.19,36.598 -16.6,67.457 -54.61,67.258 -40.82,-0.149 -53.48,-39.801 -53.71,-65.27"
         inkscape:connector-curvature="0"
         id="path20"
         style="fill:#000000;fill-opacity:1;fill-rule:nonzero;stroke:none" /><path
         d="m 1236.41,1031.91 c 23.04,46.18 39.8,93.6 42.81,144.3 2.73,18.63 -8.6,18.95 -10.31,5.82 -32.62,-124.76 -206.1,-90.98 -200.16,26.37 4.84,95.15 99.37,115.62 148.67,84.53 19.46,-11.48 18.36,-4.61 7.74,7.27 -73.25,81.71 -28.87,186.91 70.11,188.82 107.03,-6.32 134.81,-118.94 69.14,-185.19 -8.16,-7.93 -26.29,-33.52 0.98,-15.63 66.29,47.11 158.32,-3.55 156.41,-76.17 -3.44,-133.91 -166.68,-143.91 -201.6,-32.07 -3.36,12.42 -13.05,18.63 -10.36,-2.42 4.85,-38.13 14.85,-95.63 43.48,-145.63"
         inkscape:connector-curvature="0"
         id="path22"
         style="fill:#000000;fill-opacity:1;fill-rule:nonzero;stroke:none" /><path
         d="m 440.16,1031.91 c 23.039,46.18 39.801,93.6 42.77,144.3 2.73,18.63 -8.59,18.95 -10.27,5.82 -32.621,-124.76 -206.14,-90.98 -200.16,26.37 4.84,95.15 99.379,115.62 148.672,84.53 19.449,-11.48 18.359,-4.61 7.738,7.27 -73.25,81.71 -28.871,186.91 70.07,188.82 107.04,-6.32 134.809,-118.94 69.18,-185.19 -8.16,-7.93 -26.281,-33.52 0.981,-15.63 66.289,47.11 158.281,-3.55 156.41,-76.17 -3.442,-133.91 -166.723,-143.91 -201.602,-32.07 -3.359,12.42 -13.051,18.63 -10.398,-2.42 4.847,-38.13 14.89,-95.63 43.519,-145.63"
         inkscape:connector-curvature="0"
         id="path24"
         style="fill:#000000;fill-opacity:1;fill-rule:nonzero;stroke:none" /><path
         d="m 1236.41,1823.05 c 23.04,46.21 39.8,93.59 42.81,144.29 2.73,18.68 -8.6,18.99 -10.31,5.82 -32.62,-124.72 -206.1,-90.93 -200.16,26.37 4.84,95.16 99.37,115.67 148.67,84.53 19.46,-11.44 18.36,-4.61 7.74,7.31 -73.25,81.68 -28.87,186.87 70.11,188.83 107.03,-6.37 134.81,-118.99 69.14,-185.2 -8.16,-7.97 -26.29,-33.55 0.98,-15.66 66.29,47.11 158.32,-3.56 156.41,-76.18 -3.44,-133.9 -166.68,-143.9 -201.6,-32.03 -3.36,12.39 -13.05,18.64 -10.36,-2.42 4.85,-38.16 14.85,-95.66 43.48,-145.66"
         inkscape:connector-curvature="0"
         id="path26"
         style="fill:#000000;fill-opacity:1;fill-rule:nonzero;stroke:none" /><path
         d="m 440.16,1823.05 c 23.039,46.21 39.801,93.59 42.77,144.29 2.73,18.68 -8.59,18.99 -10.27,5.82 -32.621,-124.72 -206.14,-90.93 -200.16,26.37 4.84,95.16 99.379,115.67 148.672,84.53 19.449,-11.44 18.359,-4.61 7.738,7.31 -73.25,81.68 -28.871,186.87 70.07,188.83 107.04,-6.37 134.809,-118.99 69.18,-185.2 -8.16,-7.97 -26.281,-33.55 0.981,-15.66 66.289,47.11 158.281,-3.56 156.41,-76.18 -3.442,-133.9 -166.723,-143.9 -201.602,-32.03 -3.359,12.39 -13.051,18.64 -10.398,-2.42 4.847,-38.16 14.89,-95.66 43.519,-145.66"
         inkscape:connector-curvature="0"
         id="path28"
         style="fill:#000000;fill-opacity:1;fill-rule:nonzero;stroke:none" /><path
         d="m 1354.02,700.23 c -23,-46.21 -39.8,-93.589 -42.77,-144.289 -2.73,-18.64 8.59,-18.953 10.31,-5.82 32.62,124.719 206.1,90.969 200.12,-26.371 -4.84,-95.16 -99.34,-115.629 -148.63,-84.531 -19.5,11.48 -18.4,4.609 -7.78,-7.309 73.25,-81.68 28.91,-186.871 -70.07,-188.789 -107.04,6.328 -134.81,118.949 -69.15,185.16 8.17,7.969 26.25,33.559 -0.97,15.668 -66.29,-47.109 -158.32,3.551 -156.45,76.172 3.48,133.899 166.72,143.899 201.64,32.027 3.36,-12.378 13.05,-18.628 10.35,2.461 -4.84,38.121 -14.84,95.621 -43.47,145.621"
         inkscape:connector-curvature="0"
         id="path30"
         style="fill:#000000;fill-opacity:1;fill-rule:nonzero;stroke:none" /><path
         d="M 557.77,700.23 C 534.73,654.02 517.969,606.641 515,555.941 c -2.73,-18.64 8.59,-18.953 10.309,-5.82 32.582,124.719 206.101,90.969 200.121,-26.371 -4.84,-95.16 -99.34,-115.629 -148.668,-84.531 -19.461,11.48 -18.364,4.609 -7.742,-7.309 73.25,-81.68 28.91,-186.871 -70.071,-188.789 -107.039,6.328 -134.808,118.949 -69.148,185.16 8.168,7.969 26.25,33.559 -1.012,15.668 -66.289,-47.109 -158.277,3.551 -156.41,76.172 3.48,133.899 166.723,143.899 201.641,32.027 3.359,-12.378 13.011,-18.628 10.359,2.461 -4.848,38.121 -14.848,95.621 -43.52,145.621"
         inkscape:connector-curvature="0"
         id="path32"
         style="fill:#000000;fill-opacity:1;fill-rule:nonzero;stroke:none" /><path
         d="m 109.301,1918.09 c 9.527,19.57 18.789,37.77 23.859,59.21 3.36,20.2 -3.512,12.7 -7.422,-0.54 C 120,1958.36 103.98,1950 89.1016,1949.8 c -26.9532,-0.39 -40.3907,20.82 -39.5704,43.64 -2.9296,23.98 21.3672,40.94 39.6876,39.65 13.7932,-0.98 25.8202,-8.44 33.0822,-14.22 4.769,-2.5 9.847,-3.64 2.738,2.89 -13.398,14.65 -24.609,23.71 -24.34,45.66 0.199,20.63 17.852,42.15 41.211,41.49 29.219,-0.86 42.5,-23.13 42.43,-43.87 -0.078,-15.08 -7.621,-28.99 -19.262,-37.62 -7.578,-6.13 -5.469,-10.7 3.16,-4.92 8.282,7.15 18.133,10.27 28.364,10.51 27.929,0.43 38.828,-23.71 37.226,-46.13 -1.488,-21.02 -19.379,-42.62 -42.93,-40.16 -21.058,2.38 -32.109,20.08 -38.437,38.2 -2.109,5.55 -5.43,7.07 -5.313,-1.21 4.84,-40.47 19.922,-65.66 20.043,-65.62"
         inkscape:connector-curvature="0"
         id="path34"
         style="fill:#000000;fill-opacity:1;fill-rule:nonzero;stroke:none" /><path
         d="m 1684.53,622.07 c -9.53,-19.57 -18.83,-37.769 -23.87,-59.218 -3.36,-20.231 3.48,-12.692 7.39,0.546 5.78,18.364 21.79,26.762 36.64,26.954 26.95,0.347 40.43,-20.864 39.57,-43.633 2.97,-23.989 -21.37,-40.981 -39.69,-39.649 -13.75,0.981 -25.78,8.399 -33.05,14.18 -4.76,2.539 -9.88,3.629 -2.77,-2.852 13.44,-14.687 24.61,-23.707 24.37,-45.699 -0.23,-20.629 -17.85,-42.148 -41.24,-41.449 -29.22,0.82 -42.5,23.09 -42.43,43.828 0.08,15.121 7.62,29.024 19.3,37.621 7.54,6.129 5.43,10.742 -3.2,4.922 -8.25,-7.152 -18.13,-10.281 -28.32,-10.473 -27.93,-0.429 -38.87,23.672 -37.27,46.09 1.52,21.024 19.38,42.66 42.97,40.203 21.02,-2.421 32.11,-20.082 38.44,-38.211 2.11,-5.582 5.39,-7.07 5.31,1.219 -4.88,40.461 -19.92,65.621 -20.04,65.621"
         inkscape:connector-curvature="0"
         id="path36"
         style="fill:#000000;fill-opacity:1;fill-rule:nonzero;stroke:none" /></g></g></svg>