<?xml version="1.0" encoding="UTF-8" standalone="no"?>
<!-- Created with Inkscape (http://www.inkscape.org/) -->

<svg
   xmlns:dc="http://purl.org/dc/elements/1.1/"
   xmlns:cc="http://creativecommons.org/ns#"
   xmlns:rdf="http://www.w3.org/1999/02/22-rdf-syntax-ns#"
   xmlns:svg="http://www.w3.org/2000/svg"
   xmlns="http://www.w3.org/2000/svg"
   xmlns:inkscape="http://www.inkscape.org/namespaces/inkscape"
   version="1.1"
   width="225"
   height="315"
   id="svg2"
   xml:space="preserve"><metadata
     id="metadata8"><rdf:RDF><cc:Work
         rdf:about=""><dc:format>image/svg+xml</dc:format><dc:type
           rdf:resource="http://purl.org/dc/dcmitype/StillImage" /></cc:Work></rdf:RDF></metadata><defs
     id="defs6" /><g
     transform="matrix(1.25,0,0,-1.25,0,315)"
     id="g10"><g
       transform="scale(0.1,0.1)"
       id="g12"><path
         d="m 89.0195,2508.48 1615.7505,0 c 47.11,0 85.03,-37.93 85.03,-85.04 l 0,-2324.4205 c 0,-47.1093 -37.92,-85.039 -85.03,-85.039 l -1615.7505,0 c -47.1093,0 -85.03903,37.9297 -85.03903,85.039 l 0,2324.4205 c 0,47.11 37.92973,85.04 85.03903,85.04"
         inkscape:connector-curvature="0"
         id="path14"
         style="fill:#ffffff;fill-opacity:1;fill-rule:nonzero;stroke:none" /><path
         d="m 89.0195,2508.48 1615.7505,0 c 47.11,0 85.03,-37.93 85.03,-85.04 l 0,-2324.4205 c 0,-47.1093 -37.92,-85.039 -85.03,-85.039 l -1615.7505,0 c -47.1093,0 -85.03903,37.9297 -85.03903,85.039 l 0,2324.4205 c 0,47.11 37.92973,85.04 85.03903,85.04 z"
         inkscape:connector-curvature="0"
         id="path16"
         style="fill:none;stroke:#000000;stroke-width:7.9738698;stroke-linecap:butt;stroke-linejoin:miter;stroke-miterlimit:4;stroke-opacity:1;stroke-dasharray:none" /><path
         d="m 274.102,2049.73 c 79.339,77.46 131.488,161.91 181.328,243.12 43.711,-89.37 106.449,-167.54 174.3,-243.12 -72.621,-74.96 -128.871,-155.08 -174.109,-239.34 -50.109,86.37 -102.922,164.57 -181.519,239.34"
         inkscape:connector-curvature="0"
         id="path18"
         style="fill:#d40000;fill-opacity:1;fill-rule:nonzero;stroke:none" /><path
         d="m 274.102,1258.59 c 79.339,77.43 131.488,161.88 181.328,243.09 43.711,-89.34 106.449,-167.54 174.3,-243.09 -72.621,-74.96 -128.871,-155.11 -174.109,-239.37 -50.109,86.37 -102.922,164.57 -181.519,239.37"
         inkscape:connector-curvature="0"
         id="path20"
         style="fill:#d40000;fill-opacity:1;fill-rule:nonzero;stroke:none" /><path
         d="M 274.102,469.801 C 353.441,547.23 405.59,631.68 455.43,712.891 499.141,623.551 561.879,545.352 629.73,469.801 557.109,394.84 500.859,314.691 455.621,230.43 405.512,316.801 352.699,395.039 274.102,469.801"
         inkscape:connector-curvature="0"
         id="path22"
         style="fill:#d40000;fill-opacity:1;fill-rule:nonzero;stroke:none" /><path
         d="m 1166.33,2049.73 c 79.37,77.46 131.52,161.91 181.37,243.12 43.71,-89.37 106.44,-167.54 174.25,-243.12 -72.57,-74.96 -128.83,-155.08 -174.06,-239.34 -50.12,86.37 -102.93,164.57 -181.56,239.34"
         inkscape:connector-curvature="0"
         id="path24"
         style="fill:#d40000;fill-opacity:1;fill-rule:nonzero;stroke:none" /><path
         d="m 1166.33,1258.59 c 79.37,77.43 131.52,161.88 181.37,243.09 43.71,-89.34 106.44,-167.54 174.25,-243.09 -72.57,-74.96 -128.83,-155.11 -174.06,-239.37 -50.12,86.37 -102.93,164.57 -181.56,239.37"
         inkscape:connector-curvature="0"
         id="path26"
         style="fill:#d40000;fill-opacity:1;fill-rule:nonzero;stroke:none" /><path
         d="m 1166.33,469.801 c 79.37,77.429 131.52,161.879 181.37,243.09 43.71,-89.34 106.44,-167.539 174.25,-243.09 -72.57,-74.961 -128.83,-155.11 -174.06,-239.371 -50.12,86.371 -102.93,164.609 -181.56,239.371"
         inkscape:connector-curvature="0"
         id="path28"
         style="fill:#d40000;fill-opacity:1;fill-rule:nonzero;stroke:none" /><path
         d="m 1580.27,525.859 c 32.5,31.719 53.83,66.332 74.26,99.61 17.93,-36.641 43.63,-68.629 71.41,-99.61 -29.73,-30.699 -52.78,-63.519 -71.33,-98.05 -20.51,35.39 -42.15,67.421 -74.34,98.05"
         inkscape:connector-curvature="0"
         id="path30"
         style="fill:#d40000;fill-opacity:1;fill-rule:nonzero;stroke:none" /><path
         d="m 69.7305,2012.73 c 32.5395,31.72 53.8595,66.33 74.2895,99.57 17.89,-36.6 43.601,-68.63 71.41,-99.57 -29.77,-30.7 -52.809,-63.55 -71.328,-98.04 -20.551,35.39 -42.153,67.42 -74.3715,98.04"
         inkscape:connector-curvature="0"
         id="path32"
         style="fill:#d40000;fill-opacity:1;fill-rule:nonzero;stroke:none" /><path
         d="m 69.9219,2220.47 c -3.2813,21.99 -3.2422,78.79 -0.543,95.55 8.2422,51.44 28.2813,74.96 61.7931,82.65 32.539,7.5 78.316,-0.82 88.359,-43.83 l -27.261,-0.5 c -14.731,29.06 -51.961,21.28 -72.93,8.63 -16.762,-10.08 -24.3009,-52.15 -21.0588,-54.73 -0.0429,0 31.6408,23.01 56.5978,21.33 53.32,-5.47 75.32,-50.86 73.48,-93.75 -1.679,-51.6 -18.359,-92.85 -74.879,-95.59 -53.7495,2.04 -78.4019,30.82 -83.5581,80.24 z m 132.5391,13.67 c 0.309,35.78 -16.25,62.58 -47.582,65.51 -31.328,2.97 -62.9298,-27.03 -60.7384,-63.52 2.2305,-36.64 16.6404,-67.46 54.6094,-67.3 40.859,0.19 53.52,39.8 53.711,65.31"
         inkscape:connector-curvature="0"
         id="path34"
         style="fill:#d40000;fill-opacity:1;fill-rule:nonzero;stroke:none" /><path
         d="m 1723.91,301.988 c 3.24,-21.949 3.2,-78.75 0.5,-95.539 -8.2,-51.41 -28.24,-74.929 -61.75,-82.66 -32.54,-7.461 -78.32,0.859 -88.36,43.871 l 27.26,0.5 c 14.69,-29.058 51.96,-21.281 72.89,-8.672 16.76,10.121 24.34,52.192 21.1,54.774 0.04,0 -31.64,-23.012 -56.6,-21.332 -53.36,5.468 -75.36,50.859 -73.48,93.75 1.68,51.601 18.36,92.808 74.88,95.59 53.75,-2.04 78.4,-30.821 83.56,-80.282 z m -132.58,-13.629 c -0.28,-35.781 16.29,-62.578 47.62,-65.55 31.32,-2.93 62.89,27.07 60.7,63.562 -2.19,36.598 -16.64,67.457 -54.61,67.258 -40.86,-0.149 -53.48,-39.801 -53.71,-65.27"
         inkscape:connector-curvature="0"
         id="path36"
         style="fill:#d40000;fill-opacity:1;fill-rule:nonzero;stroke:none" /></g></g></svg>