<?xml version="1.0" encoding="UTF-8" standalone="no"?>
<!-- Created with Inkscape (http://www.inkscape.org/) -->

<svg
   xmlns:dc="http://purl.org/dc/elements/1.1/"
   xmlns:cc="http://creativecommons.org/ns#"
   xmlns:rdf="http://www.w3.org/1999/02/22-rdf-syntax-ns#"
   xmlns:svg="http://www.w3.org/2000/svg"
   xmlns="http://www.w3.org/2000/svg"
   viewBox="0 0 223.75 313.75"
   height="313.75"
   width="223.75"
   xml:space="preserve"
   version="1.1"
   id="svg2"><metadata
     id="metadata8"><rdf:RDF><cc:Work
         rdf:about=""><dc:format>image/svg+xml</dc:format><dc:type
           rdf:resource="http://purl.org/dc/dcmitype/StillImage" /></cc:Work></rdf:RDF></metadata><defs
     id="defs6" /><g
     transform="matrix(1.25,0,0,-1.25,0,313.75)"
     id="g10"><g
       transform="scale(0.1,0.1)"
       id="g12"><path
         id="path14"
         style="fill:#ffffff;fill-opacity:1;fill-rule:nonzero;stroke:none"
         d="m 85.0391,2504.49 1615.7409,0 c 47.11,0 85.04,-37.93 85.04,-85.04 l 0,-2324.4109 C 1785.82,47.9297 1747.89,10 1700.78,10 L 85.0391,10 C 37.9297,10 0,47.9297 0,95.0391 L 0,2419.45 c 0,47.11 37.9297,85.04 85.0391,85.04" /><path
         id="path16"
         style="fill:none;stroke:#000000;stroke-width:7.97384024;stroke-linecap:butt;stroke-linejoin:miter;stroke-miterlimit:4;stroke-dasharray:none;stroke-opacity:1"
         d="m 85.0391,2504.49 1615.7409,0 c 47.11,0 85.04,-37.93 85.04,-85.04 l 0,-2324.4109 C 1785.82,47.9297 1747.89,10 1700.78,10 L 85.0391,10 C 37.9297,10 0,47.9297 0,95.0391 L 0,2419.45 c 0,47.11 37.9297,85.04 85.0391,85.04 z" /><path
         id="path18"
         style="fill:#d40000;fill-opacity:1;fill-rule:nonzero;stroke:none"
         d="m 65.9414,2216.48 c -3.2812,21.99 -3.2422,78.75 -0.5508,95.55 8.2383,51.44 28.2383,74.96 61.8004,82.65 32.539,7.5 78.278,-0.86 88.321,-43.86 l -27.231,-0.51 c -14.73,29.1 -51.992,21.33 -72.929,8.67 -16.7622,-10.08 -24.3012,-52.15 -21.0903,-54.73 0,0 31.6793,23.01 56.6363,21.29 53.321,-5.43 75.313,-50.82 73.481,-93.75 -1.719,-51.6 -18.359,-92.81 -74.93,-95.54 -53.7107,2.03 -78.3982,30.78 -83.5076,80.23 z m 132.5386,13.63 c 0.309,35.82 -16.25,62.58 -47.582,65.55 -31.328,2.97 -62.9292,-27.03 -60.7378,-63.52 2.1796,-36.64 16.6408,-67.46 54.6098,-67.3 40.851,0.2 53.511,39.8 53.71,65.27" /><path
         id="path20"
         style="fill:#d40000;fill-opacity:1;fill-rule:nonzero;stroke:none"
         d="m 1719.92,298 c 3.24,-21.988 3.2,-78.75 0.51,-95.539 -8.24,-51.41 -28.24,-74.961 -61.76,-82.66 -32.58,-7.5 -78.32,0.859 -88.36,43.871 l 27.23,0.508 c 14.73,-29.071 51.99,-21.328 72.93,-8.68 16.76,10.078 24.33,52.148 21.09,54.73 0,0 -31.68,-23.011 -56.6,-21.289 -53.36,5.43 -75.35,50.821 -73.51,93.75 1.71,51.598 18.35,92.809 74.92,95.547 53.71,-2.027 78.4,-30.777 83.55,-80.238 z m -132.58,-13.629 c -0.31,-35.82 16.29,-62.582 47.58,-65.551 31.33,-2.961 62.93,27.071 60.74,63.559 -2.18,36.601 -16.64,67.422 -54.61,67.262 -40.85,-0.192 -53.51,-39.801 -53.71,-65.27" /><path
         id="path22"
         style="fill:#d40000;fill-opacity:1;fill-rule:nonzero;stroke:none"
         d="m 69.2188,2029.49 c -12.7383,27.77 -14.0586,75.27 23.75,81.68 28.4802,3.67 40.0822,-9.61 42.4222,-29.96 1.089,-5.94 4.449,-6.29 5.507,0.47 1.68,20.89 22.301,33.08 38.481,30 44.25,-7.54 41.601,-56.22 27.18,-89.22 -21.829,-43.83 -44.758,-71.53 -65.969,-115.63 -24.262,45.94 -52.0002,83.24 -71.3712,122.66" /><path
         id="path24"
         style="fill:#d40000;fill-opacity:1;fill-rule:nonzero;stroke:none"
         d="m 351.52,2277.57 c 57.152,3.79 86.921,-45 92.742,-83.47 3.437,-6.14 5.347,-4.42 6.718,0.35 2.809,49.37 46.95,89.73 87.93,84.22 66.641,-0.86 107.11,-75 95.738,-137.74 -13.91,-76.68 -55.199,-122.81 -86.488,-170.35 -35.351,-49.22 -82.93,-120.31 -98.32,-154.53 0,0 -48.391,73.63 -111.32,160.24 -42.11,57.89 -75.79,120.66 -78.911,174.68 -3.589,61.72 21.762,117.03 91.911,126.6" /><path
         id="path26"
         style="fill:#d40000;fill-opacity:1;fill-rule:nonzero;stroke:none"
         d="m 1243.79,2277.57 c 57.11,3.79 86.95,-45 92.73,-83.47 3.52,-6.14 5.36,-4.42 6.72,0.35 2.78,49.37 47.03,89.73 87.89,84.22 66.64,-0.86 107.15,-75 95.78,-137.74 -13.94,-76.68 -55.19,-122.81 -86.48,-170.35 -35.35,-49.22 -82.97,-120.31 -98.32,-154.53 0,0 -48.4,73.63 -111.37,160.24 -42.07,57.89 -75.74,120.66 -78.86,174.68 -3.6,61.72 21.75,117.03 91.91,126.6" /><path
         id="path28"
         style="fill:#d40000;fill-opacity:1;fill-rule:nonzero;stroke:none"
         d="m 1243.79,1486.44 c 57.11,3.79 86.95,-45.04 92.73,-83.51 3.52,-6.1 5.36,-4.38 6.72,0.35 2.78,49.41 47.03,89.76 87.89,84.26 66.64,-0.86 107.15,-75 95.78,-137.78 -13.94,-76.64 -55.19,-122.81 -86.48,-170.31 -35.35,-49.26 -82.97,-120.35 -98.32,-154.57 0,0 -48.4,73.67 -111.37,160.27 -42.07,57.89 -75.74,120.63 -78.86,174.65 -3.6,61.72 21.75,117.07 91.91,126.64" /><path
         id="path30"
         style="fill:#d40000;fill-opacity:1;fill-rule:nonzero;stroke:none"
         d="m 351.52,1486.44 c 57.152,3.79 86.921,-45.04 92.742,-83.51 3.437,-6.1 5.347,-4.38 6.718,0.35 2.809,49.41 46.95,89.76 87.93,84.26 66.641,-0.86 107.11,-75 95.738,-137.78 -13.91,-76.64 -55.199,-122.81 -86.488,-170.31 -35.351,-49.26 -82.93,-120.35 -98.32,-154.57 0,0 -48.391,73.67 -111.32,160.27 -42.11,57.89 -75.79,120.63 -78.911,174.65 -3.589,61.72 21.762,117.07 91.911,126.64" /><path
         id="path32"
         style="fill:#d40000;fill-opacity:1;fill-rule:nonzero;stroke:none"
         d="m 351.52,237.691 c 57.152,-3.793 86.921,45.039 92.742,83.52 3.437,6.09 5.347,4.367 6.718,-0.352 2.809,-49.379 46.95,-89.769 87.93,-84.257 66.641,0.898 107.11,75 95.738,137.769 -13.91,76.641 -55.199,122.809 -86.488,170.348 -35.351,49.222 -82.93,120.32 -98.32,154.531 0,0 -48.391,-73.629 -111.32,-160.23 C 296.41,481.09 262.73,418.359 259.609,364.328 256.02,302.609 281.371,247.262 351.52,237.691" /><path
         id="path34"
         style="fill:#d40000;fill-opacity:1;fill-rule:nonzero;stroke:none"
         d="m 1243.79,237.691 c 57.11,-3.793 86.95,45.039 92.69,83.52 3.56,6.09 5.4,4.367 6.72,-0.352 2.82,-49.379 47.07,-89.769 87.93,-84.257 66.64,0.898 107.11,75 95.78,137.769 -13.94,76.641 -55.19,122.809 -86.48,170.348 -35.35,49.222 -82.97,120.32 -98.32,154.531 0,0 -48.4,-73.629 -111.37,-160.23 -42.07,-57.93 -75.74,-120.661 -78.86,-174.692 -3.64,-61.719 21.75,-117.066 91.91,-126.637" /><path
         id="path36"
         style="fill:#d40000;fill-opacity:1;fill-rule:nonzero;stroke:none"
         d="m 1579.69,502.648 c -12.62,-27.808 -13.99,-75.269 23.79,-81.679 28.55,-3.668 40.15,9.57 42.38,29.922 1.21,5.98 4.57,6.328 5.59,-0.461 1.6,-20.86 22.34,-33.051 38.51,-30 44.14,7.57 41.6,56.25 27.11,89.25 -21.84,43.832 -44.8,71.492 -65.94,115.629 -24.29,-45.938 -52.07,-83.239 -71.44,-122.661" /></g></g></svg>