<?xml version="1.0" encoding="UTF-8" standalone="no"?>
<!-- Created with Inkscape (http://www.inkscape.org/) -->

<svg
   xmlns:dc="http://purl.org/dc/elements/1.1/"
   xmlns:cc="http://creativecommons.org/ns#"
   xmlns:rdf="http://www.w3.org/1999/02/22-rdf-syntax-ns#"
   xmlns:svg="http://www.w3.org/2000/svg"
   xmlns="http://www.w3.org/2000/svg"
   xmlns:inkscape="http://www.inkscape.org/namespaces/inkscape"
   version="1.1"
   width="225"
   height="315"
   id="svg2"
   xml:space="preserve"><metadata
     id="metadata8"><rdf:RDF><cc:Work
         rdf:about=""><dc:format>image/svg+xml</dc:format><dc:type
           rdf:resource="http://purl.org/dc/dcmitype/StillImage" /></cc:Work></rdf:RDF></metadata><defs
     id="defs6" /><g
     transform="matrix(1.25,0,0,-1.25,0,315)"
     id="g10"><g
       transform="scale(0.1,0.1)"
       id="g12"><path
         d="m 89.0195,2508.48 1615.7505,0 c 47.11,0 85.03,-37.93 85.03,-85.04 l 0,-2324.4205 c 0,-47.1093 -37.92,-85.039 -85.03,-85.039 l -1615.7505,0 c -47.1093,0 -85.03903,37.9297 -85.03903,85.039 l 0,2324.4205 c 0,47.11 37.92973,85.04 85.03903,85.04"
         inkscape:connector-curvature="0"
         id="path14"
         style="fill:#ffffff;fill-opacity:1;fill-rule:nonzero;stroke:none" /><path
         d="m 89.0195,2508.48 1615.7505,0 c 47.11,0 85.03,-37.93 85.03,-85.04 l 0,-2324.4205 c 0,-47.1093 -37.92,-85.039 -85.03,-85.039 l -1615.7505,0 c -47.1093,0 -85.03903,37.9297 -85.03903,85.039 l 0,2324.4205 c 0,47.11 37.92973,85.04 85.03903,85.04 z"
         inkscape:connector-curvature="0"
         id="path16"
         style="fill:none;stroke:#000000;stroke-width:7.9738698;stroke-linecap:butt;stroke-linejoin:miter;stroke-miterlimit:4;stroke-opacity:1;stroke-dasharray:none" /><path
         d="m 69.9219,2220.47 c -3.2813,21.99 -3.2422,78.79 -0.543,95.55 8.2422,51.44 28.2813,74.96 61.7931,82.65 32.539,7.5 78.316,-0.82 88.359,-43.83 l -27.261,-0.5 c -14.731,29.06 -51.961,21.28 -72.93,8.63 -16.762,-10.08 -24.3009,-52.15 -21.0588,-54.73 -0.0429,0 31.6408,23.01 56.5978,21.33 53.32,-5.47 75.32,-50.86 73.48,-93.75 -1.679,-51.6 -18.359,-92.85 -74.879,-95.59 -53.7495,2.04 -78.4019,30.82 -83.5581,80.24 z m 132.5391,13.67 c 0.309,35.78 -16.25,62.58 -47.582,65.51 -31.328,2.97 -62.9298,-27.03 -60.7384,-63.52 2.2305,-36.64 16.6404,-67.46 54.6094,-67.3 40.859,0.19 53.52,39.8 53.711,65.31"
         inkscape:connector-curvature="0"
         id="path18"
         style="fill:#000000;fill-opacity:1;fill-rule:nonzero;stroke:none" /><path
         d="m 1723.91,301.988 c 3.24,-21.949 3.2,-78.75 0.5,-95.539 -8.2,-51.41 -28.24,-74.929 -61.75,-82.66 -32.54,-7.461 -78.32,0.859 -88.36,43.871 l 27.26,0.5 c 14.69,-29.058 51.96,-21.281 72.89,-8.672 16.76,10.121 24.34,52.192 21.1,54.774 0.04,0 -31.64,-23.012 -56.6,-21.332 -53.36,5.468 -75.36,50.859 -73.48,93.75 1.68,51.601 18.36,92.808 74.88,95.59 53.75,-2.04 78.4,-30.821 83.56,-80.282 z m -132.58,-13.629 c -0.28,-35.781 16.29,-62.578 47.62,-65.55 31.32,-2.93 62.89,27.07 60.7,63.562 -2.19,36.598 -16.64,67.457 -54.61,67.258 -40.86,-0.149 -53.48,-39.801 -53.71,-65.27"
         inkscape:connector-curvature="0"
         id="path20"
         style="fill:#000000;fill-opacity:1;fill-rule:nonzero;stroke:none" /><path
         d="m 434.77,1960 c 0.109,16.21 -12.7,16.52 -12.54,4.69 -1.101,-59.42 -51.332,-88.67 -87.851,-81.76 -56.289,10.7 -74.258,66.6 -73.719,99.49 1.641,101.56 103.91,176.49 196.18,306.68 67.57,-117.54 179.18,-209.84 185.781,-300.7 8.789,-120.78 -144.101,-165.82 -165.902,-25.04 -1.41,9.92 -13.129,14.41 -12.231,0.51 3.321,-38.56 -1.398,-54.65 42.153,-149.77 l -113.789,0 c 25.199,44.45 40.199,99.02 41.918,145.9"
         inkscape:connector-curvature="0"
         id="path22"
         style="fill:#000000;fill-opacity:1;fill-rule:nonzero;stroke:none" /><path
         d="m 1327.03,1960 c 0.12,16.21 -12.69,16.52 -12.54,4.69 -1.09,-59.42 -51.33,-88.67 -87.85,-81.76 -56.29,10.7 -74.26,66.6 -73.71,99.49 1.64,101.56 103.91,176.49 196.17,306.68 67.58,-117.54 179.18,-209.84 185.78,-300.7 8.75,-120.78 -144.1,-165.82 -165.9,-25.04 -1.4,9.92 -13.12,14.41 -12.22,0.51 3.32,-38.56 -1.41,-54.65 42.15,-149.77 l -113.79,0 c 25.19,44.45 40.19,99.02 41.91,145.9"
         inkscape:connector-curvature="0"
         id="path24"
         style="fill:#000000;fill-opacity:1;fill-rule:nonzero;stroke:none" /><path
         d="m 434.84,1351.88 c 0.121,-16.22 -12.692,-16.53 -12.539,-4.69 -1.051,59.41 -51.321,88.67 -87.852,81.76 -56.289,-10.71 -74.25,-66.61 -73.711,-99.5 1.684,-101.56 103.91,-176.48 196.172,-306.68 67.578,117.54 179.18,209.85 185.789,300.67 8.781,120.78 -144.07,165.86 -165.898,25.08 -1.41,-9.97 -13.129,-14.42 -12.231,-0.51 3.321,38.55 -1.371,54.65 42.149,149.72 l -113.789,0 c 25.191,-44.41 40.191,-98.98 41.91,-145.85"
         inkscape:connector-curvature="0"
         id="path26"
         style="fill:#000000;fill-opacity:1;fill-rule:nonzero;stroke:none" /><path
         d="m 1327.11,1351.88 c 0.12,-16.22 -12.7,-16.53 -12.54,-4.69 -1.05,59.41 -51.33,88.67 -87.85,81.76 -56.29,-10.71 -74.26,-66.61 -73.71,-99.5 1.64,-101.56 103.9,-176.48 196.17,-306.68 67.58,117.54 179.18,209.85 185.78,300.67 8.79,120.78 -144.06,165.86 -165.9,25.08 -1.4,-9.97 -13.12,-14.42 -12.22,-0.51 3.32,38.55 -1.37,54.65 42.14,149.72 l -113.78,0 c 25.19,-44.41 40.19,-98.98 41.91,-145.85"
         inkscape:connector-curvature="0"
         id="path28"
         style="fill:#000000;fill-opacity:1;fill-rule:nonzero;stroke:none" /><path
         d="m 1327.11,563.09 c 0.12,-16.211 -12.7,-16.531 -12.54,-4.692 -1.05,59.411 -51.33,88.672 -87.85,81.762 -56.29,-10.711 -74.26,-66.609 -73.71,-99.5 1.64,-101.558 103.9,-176.48 196.17,-306.68 67.58,117.54 179.18,209.848 185.78,300.668 8.79,120.782 -144.06,165.864 -165.9,25.082 -1.4,-9.96 -13.12,-14.421 -12.22,-0.511 3.32,38.551 -1.37,54.652 42.14,149.73 l -113.78,0 c 25.19,-44.418 40.19,-98.988 41.91,-145.859"
         inkscape:connector-curvature="0"
         id="path30"
         style="fill:#000000;fill-opacity:1;fill-rule:nonzero;stroke:none" /><path
         d="m 434.84,563.09 c 0.121,-16.211 -12.692,-16.531 -12.539,-4.692 -1.051,59.411 -51.321,88.672 -87.852,81.762 -56.289,-10.711 -74.25,-66.609 -73.711,-99.5 1.684,-101.558 103.91,-176.48 196.172,-306.68 67.578,117.54 179.18,209.848 185.789,300.668 8.781,120.782 -144.07,165.864 -165.898,25.082 -1.41,-9.96 -13.129,-14.421 -12.231,-0.511 3.321,38.551 -1.371,54.652 42.149,149.73 l -113.789,0 c 25.191,-44.418 40.191,-98.988 41.91,-145.859"
         inkscape:connector-curvature="0"
         id="path32"
         style="fill:#000000;fill-opacity:1;fill-rule:nonzero;stroke:none" /><path
         d="m 139.141,1961.05 c 0.078,6.96 -7.153,3.72 -8.121,1.53 -9.301,-15.9 -22.93,-19.57 -36.3716,-13.87 -13.3593,5.67 -20.8593,18.24 -19.6484,36.17 2.5,27.5 24.3008,57.62 34.84,74.61 10,15.47 21.019,33.79 32.621,57.23 13.559,-26.88 20.469,-34.53 35.238,-59.1 13,-21.64 31.129,-42.85 32.531,-68.99 0,-19.88 -8.351,-38.67 -27.179,-42.07 -10.672,-1.95 -20.629,3.52 -28.051,16.29 -2.23,3.24 -6.801,1.56 -6.719,-2.89 1.328,-16.76 7.66,-31.87 22.66,-49.69 l -55.121,0 c 11.289,12.58 22.809,29.61 23.321,50.78"
         inkscape:connector-curvature="0"
         id="path34"
         style="fill:#000000;fill-opacity:1;fill-rule:nonzero;stroke:none" /><path
         d="m 1649.69,579.102 c 0.08,-6.993 -7.19,-3.75 -8.17,-1.524 -9.29,15.863 -22.89,19.57 -36.36,13.832 -13.36,-5.672 -20.82,-18.25 -19.65,-36.18 2.5,-27.5 24.29,-57.57 34.84,-74.609 10.04,-15.422 21.02,-33.781 32.62,-57.223 13.59,26.911 20.47,34.571 35.23,59.141 13.01,21.641 31.18,42.813 32.54,68.981 0,19.851 -8.36,38.64 -27.19,42.07 -10.66,1.922 -20.62,-3.551 -28,-16.289 -2.27,-3.281 -6.8,-1.563 -6.72,2.898 1.33,16.711 7.62,31.832 22.62,49.68 l -55.08,0 c 11.29,-12.609 22.77,-29.649 23.32,-50.777"
         inkscape:connector-curvature="0"
         id="path36"
         style="fill:#000000;fill-opacity:1;fill-rule:nonzero;stroke:none" /></g></g></svg>