<?xml version="1.0" encoding="UTF-8" standalone="no"?>
<!-- Created with Inkscape (http://www.inkscape.org/) -->

<svg
   xmlns:dc="http://purl.org/dc/elements/1.1/"
   xmlns:cc="http://creativecommons.org/ns#"
   xmlns:rdf="http://www.w3.org/1999/02/22-rdf-syntax-ns#"
   xmlns:svg="http://www.w3.org/2000/svg"
   xmlns="http://www.w3.org/2000/svg"
   xmlns:inkscape="http://www.inkscape.org/namespaces/inkscape"
   version="1.1"
   width="225"
   height="315"
   id="svg2"
   xml:space="preserve"><metadata
     id="metadata8"><rdf:RDF><cc:Work
         rdf:about=""><dc:format>image/svg+xml</dc:format><dc:type
           rdf:resource="http://purl.org/dc/dcmitype/StillImage" /></cc:Work></rdf:RDF></metadata><defs
     id="defs6" /><g
     transform="matrix(1.25,0,0,-1.25,0,315)"
     id="g10"><g
       transform="scale(0.1,0.1)"
       id="g12"><path
         d="m 88.9102,2508.52 1615.7398,0 c 47.11,0 85.04,-37.93 85.04,-85.04 l 0,-2324.4214 c 0,-47.1094 -37.93,-85.0391 -85.04,-85.0391 l -1615.7398,0 c -47.1094,0 -85.03911,37.9297 -85.03911,85.0391 l 0,2324.4214 c 0,47.11 37.92971,85.04 85.03911,85.04"
         inkscape:connector-curvature="0"
         id="path14"
         style="fill:#ffffff;fill-opacity:1;fill-rule:nonzero;stroke:none" /><path
         d="m 88.9102,2508.52 1615.7398,0 c 47.11,0 85.04,-37.93 85.04,-85.04 l 0,-2324.4214 c 0,-47.1094 -37.93,-85.0391 -85.04,-85.0391 l -1615.7398,0 c -47.1094,0 -85.03911,37.9297 -85.03911,85.0391 l 0,2324.4214 c 0,47.11 37.92971,85.04 85.03911,85.04 z"
         inkscape:connector-curvature="0"
         id="path16"
         style="fill:none;stroke:#000000;stroke-width:7.92000008;stroke-linecap:butt;stroke-linejoin:miter;stroke-miterlimit:3.79999995;stroke-opacity:1;stroke-dasharray:none" /><path
         d="m 100.23,2136.41 c 17.071,88.71 35.282,155.31 83.051,227.57 l -97.0701,0 0,-31.09 -25.8203,0 0,58.63 142.0314,0 17.539,-27.54 C 169.219,2309.61 122.77,2133.87 130.98,2136.41"
         inkscape:connector-curvature="0"
         id="path18"
         style="fill:#000000;fill-opacity:1;fill-rule:nonzero;stroke:none" /><path
         d="m 1688.59,386.09 c -17.07,-88.711 -35.27,-155.27 -83.04,-227.57 l 97.07,0 0,31.128 25.82,0 0,-58.668 -142.03,0 -17.5,27.54 c 50.7,54.371 97.18,230.152 88.94,227.57"
         inkscape:connector-curvature="0"
         id="path20"
         style="fill:#000000;fill-opacity:1;fill-rule:nonzero;stroke:none" /><path
         d="m 1244.84,1811.52 c 23.05,46.18 39.81,93.6 42.82,144.3 2.69,18.63 -8.64,18.95 -10.32,5.82 -32.61,-124.76 -206.09,-90.98 -200.15,26.37 4.84,95.15 99.37,115.62 148.67,84.49 19.45,-11.45 18.36,-4.57 7.73,7.3 -73.24,81.72 -28.86,186.92 70.08,188.83 107.07,-6.33 134.85,-118.94 69.18,-185.19 -8.16,-7.93 -26.29,-33.52 0.98,-15.63 66.29,47.07 158.28,-3.55 156.4,-76.17 -3.43,-133.91 -166.71,-143.91 -201.6,-32.07 -3.36,12.42 -13.04,18.63 -10.39,-2.42 4.85,-38.13 14.88,-95.63 43.52,-145.63"
         inkscape:connector-curvature="0"
         id="path22"
         style="fill:#000000;fill-opacity:1;fill-rule:nonzero;stroke:none" /><path
         d="m 1244.84,1009.53 c 23.05,46.17 39.81,93.59 42.82,144.3 2.69,18.63 -8.64,18.94 -10.32,5.82 -32.61,-124.77 -206.09,-90.98 -200.15,26.37 4.84,95.15 99.37,115.62 148.67,84.53 19.45,-11.49 18.36,-4.61 7.73,7.26 -73.24,81.72 -28.86,186.92 70.08,188.83 107.07,-6.33 134.85,-118.94 69.18,-185.19 -8.16,-7.93 -26.29,-33.52 0.98,-15.63 66.29,47.11 158.28,-3.55 156.4,-76.17 -3.43,-133.91 -166.71,-143.91 -201.6,-32.07 -3.36,12.42 -13.04,18.63 -10.39,-2.42 4.85,-38.13 14.88,-95.63 43.52,-145.63"
         inkscape:connector-curvature="0"
         id="path24"
         style="fill:#000000;fill-opacity:1;fill-rule:nonzero;stroke:none" /><path
         d="m 432.578,1009.53 c 23.043,46.17 39.801,93.59 42.813,144.3 2.73,18.63 -8.59,18.94 -10.313,5.82 -32.617,-124.77 -206.098,-90.98 -200.156,26.37 4.848,95.15 99.379,115.62 148.668,84.53 19.461,-11.49 18.359,-4.61 7.738,7.26 -73.238,81.72 -28.867,186.92 70.082,188.83 107.07,-6.33 134.84,-118.94 69.18,-185.19 -8.168,-7.93 -26.289,-33.52 0.969,-15.63 66.293,47.11 158.281,-3.55 156.41,-76.17 -3.438,-133.91 -166.68,-143.91 -201.598,-32.07 -3.359,12.42 -13.051,18.63 -10.351,-2.42 4.8,-38.13 14.839,-95.63 43.468,-145.63"
         inkscape:connector-curvature="0"
         id="path26"
         style="fill:#000000;fill-opacity:1;fill-rule:nonzero;stroke:none" /><path
         d="m 836.051,1410.51 c 23.051,46.21 39.808,93.59 42.777,144.29 2.731,18.68 -8.598,18.99 -10.277,5.82 -32.61,-124.72 -206.129,-90.93 -200.153,26.37 4.84,95.2 99.372,115.67 148.672,84.53 19.45,-11.44 18.36,-4.61 7.731,7.31 -73.242,81.68 -28.86,186.87 70.078,188.83 107.031,-6.37 134.811,-118.99 69.18,-185.2 -8.161,-7.97 -26.289,-33.55 0.98,-15.66 66.291,47.11 158.281,-3.56 156.411,-76.18 -3.44,-133.9 -166.72,-143.86 -201.61,-32.03 -3.36,12.39 -13.039,18.64 -10.391,-2.42 4.852,-38.16 14.891,-95.62 43.52,-145.66"
         inkscape:connector-curvature="0"
         id="path28"
         style="fill:#000000;fill-opacity:1;fill-rule:nonzero;stroke:none" /><path
         d="m 432.578,1811.52 c 23.043,46.18 39.801,93.6 42.813,144.3 2.73,18.63 -8.59,18.95 -10.313,5.82 -32.617,-124.76 -206.098,-90.98 -200.156,26.37 4.848,95.15 99.379,115.62 148.668,84.49 19.461,-11.45 18.359,-4.57 7.738,7.3 -73.238,81.72 -28.867,186.92 70.082,188.83 107.07,-6.33 134.84,-118.94 69.18,-185.19 -8.168,-7.93 -26.289,-33.52 0.969,-15.63 66.293,47.07 158.281,-3.55 156.41,-76.17 -3.438,-133.91 -166.68,-143.91 -201.598,-32.07 -3.359,12.42 -13.051,18.63 -10.351,-2.42 4.8,-38.13 14.839,-95.63 43.468,-145.63"
         inkscape:connector-curvature="0"
         id="path30"
         style="fill:#000000;fill-opacity:1;fill-rule:nonzero;stroke:none" /><path
         d="m 1362.46,677.852 c -23.01,-46.211 -39.8,-93.59 -42.77,-144.301 -2.74,-18.629 8.59,-18.942 10.31,-5.821 32.62,124.731 206.09,90.981 200.12,-26.359 -4.85,-95.16 -99.34,-115.633 -148.64,-84.531 -19.49,11.48 -18.39,4.609 -7.77,-7.309 73.24,-81.679 28.91,-186.871 -70.08,-188.793 -107.03,6.332 -134.8,118.953 -69.14,185.16 8.17,7.973 26.25,33.551 -0.97,15.661 -66.33,-47.11 -158.32,3.562 -156.45,76.171 3.48,133.911 166.72,143.911 201.64,32.04 3.36,-12.391 13.01,-18.641 10.35,2.46 -4.84,38.122 -14.84,95.622 -43.51,145.622"
         inkscape:connector-curvature="0"
         id="path32"
         style="fill:#000000;fill-opacity:1;fill-rule:nonzero;stroke:none" /><path
         d="m 550.199,677.852 c -23.008,-46.211 -39.808,-93.59 -42.777,-144.301 -2.731,-18.629 8.598,-18.942 10.308,-5.821 32.622,124.731 206.098,90.981 200.122,-26.359 -4.84,-95.16 -99.332,-115.633 -148.633,-84.531 -19.489,11.48 -18.399,4.609 -7.77,-7.309 73.242,-81.679 28.903,-186.871 -70.078,-188.793 -107.031,6.332 -134.812,118.953 -69.141,185.16 8.161,7.973 26.25,33.551 -0.98,15.661 -66.328,-47.11 -158.32,3.562 -156.449,76.171 3.48,133.911 166.719,143.911 201.648,32.04 3.352,-12.391 13,-18.641 10.352,2.46 -4.852,38.122 -14.852,95.622 -43.52,145.622"
         inkscape:connector-curvature="0"
         id="path34"
         style="fill:#000000;fill-opacity:1;fill-rule:nonzero;stroke:none" /><path
         d="m 109.141,1897.38 c 9.531,19.57 18.828,37.78 23.871,59.22 3.359,20.24 -3.481,12.7 -7.391,-0.55 -5.781,-18.35 -21.793,-26.75 -36.6405,-26.95 -26.9493,-0.35 -40.4297,20.86 -39.5703,43.63 -2.961,23.99 21.371,40.98 39.6914,39.65 13.7894,-0.97 25.7774,-8.4 33.0464,-14.18 4.762,-2.54 9.883,-3.63 2.774,2.85 -13.442,14.69 -24.613,23.72 -24.371,45.71 0.23,20.62 17.847,42.15 41.25,41.44 29.219,-0.82 42.5,-23.08 42.418,-43.82 -0.078,-15.12 -7.617,-29.03 -19.297,-37.62 -7.543,-6.14 -5.434,-10.71 3.199,-4.92 8.289,7.14 18.129,10.27 28.359,10.46 27.899,0.43 38.829,-23.67 37.231,-46.09 -1.481,-21.01 -19.371,-42.62 -42.973,-40.19 -21.008,2.42 -32.109,20.07 -38.437,38.24 -2.071,5.54 -5.391,7.03 -5.313,-1.25 4.891,-40.47 19.922,-65.63 20.043,-65.63"
         inkscape:connector-curvature="0"
         id="path36"
         style="fill:#000000;fill-opacity:1;fill-rule:nonzero;stroke:none" /><path
         d="m 1684.38,601.371 c -9.54,-19.57 -18.79,-37.781 -23.87,-59.18 -3.36,-20.242 3.51,-12.742 7.42,0.508 5.74,18.391 21.76,26.75 36.64,26.949 26.95,0.391 40.39,-20.82 39.57,-43.628 2.93,-23.989 -21.37,-40.942 -39.69,-39.649 -13.79,0.969 -25.82,8.43 -33.08,14.219 -4.77,2.5 -9.85,3.629 -2.74,-2.891 13.4,-14.648 24.61,-23.719 24.38,-45.668 -0.24,-20.621 -17.89,-42.152 -41.25,-41.48 -29.22,0.859 -42.5,23.121 -42.42,43.859 0.07,15.078 7.61,28.988 19.25,37.621 7.58,6.129 5.47,10.699 -3.16,4.918 -8.28,-7.148 -18.13,-10.269 -28.36,-10.5 -27.93,-0.429 -38.83,23.711 -37.23,46.129 1.49,21.012 19.38,42.621 42.93,40.152 21.06,-2.378 32.11,-20.07 38.44,-38.199 2.11,-5.551 5.43,-7.07 5.31,1.25 -4.84,40.43 -19.92,65.629 -20.04,65.59"
         inkscape:connector-curvature="0"
         id="path38"
         style="fill:#000000;fill-opacity:1;fill-rule:nonzero;stroke:none" /></g></g></svg>