<?xml version="1.0" encoding="UTF-8" standalone="no"?>
<!-- Created with Inkscape (http://www.inkscape.org/) -->

<svg
   xmlns:dc="http://purl.org/dc/elements/1.1/"
   xmlns:cc="http://creativecommons.org/ns#"
   xmlns:rdf="http://www.w3.org/1999/02/22-rdf-syntax-ns#"
   xmlns:svg="http://www.w3.org/2000/svg"
   xmlns="http://www.w3.org/2000/svg"
   xmlns:inkscape="http://www.inkscape.org/namespaces/inkscape"
   version="1.1"
   width="225"
   height="315"
   id="svg2"
   xml:space="preserve"><metadata
     id="metadata8"><rdf:RDF><cc:Work
         rdf:about=""><dc:format>image/svg+xml</dc:format><dc:type
           rdf:resource="http://purl.org/dc/dcmitype/StillImage" /></cc:Work></rdf:RDF></metadata><defs
     id="defs6" /><g
     transform="matrix(1.25,0,0,-1.25,0,315)"
     id="g10"><g
       transform="scale(0.1,0.1)"
       id="g12"><path
         d="m 88.9102,2508.52 1615.7398,0 c 47.11,0 85.04,-37.93 85.04,-85.04 l 0,-2324.4214 c 0,-47.1094 -37.93,-85.0391 -85.04,-85.0391 l -1615.7398,0 c -47.1094,0 -85.03911,37.9297 -85.03911,85.0391 l 0,2324.4214 c 0,47.11 37.92971,85.04 85.03911,85.04"
         inkscape:connector-curvature="0"
         id="path14"
         style="fill:#ffffff;fill-opacity:1;fill-rule:nonzero;stroke:none" /><path
         d="m 88.9102,2508.52 1615.7398,0 c 47.11,0 85.04,-37.93 85.04,-85.04 l 0,-2324.4214 c 0,-47.1094 -37.93,-85.0391 -85.04,-85.0391 l -1615.7398,0 c -47.1094,0 -85.03911,37.9297 -85.03911,85.0391 l 0,2324.4214 c 0,47.11 37.92971,85.04 85.03911,85.04 z"
         inkscape:connector-curvature="0"
         id="path16"
         style="fill:none;stroke:#000000;stroke-width:7.92000008;stroke-linecap:butt;stroke-linejoin:miter;stroke-miterlimit:3.79999995;stroke-opacity:1;stroke-dasharray:none" /><path
         d="m 267.93,2038.2 c 79.371,77.42 131.48,161.88 181.332,243.09 43.707,-89.34 106.437,-167.54 174.289,-243.09 C 550.98,1963.24 494.73,1883.09 449.488,1798.83 399.34,1885.2 346.559,1963.4 267.93,2038.2"
         inkscape:connector-curvature="0"
         id="path18"
         style="fill:#d40000;fill-opacity:1;fill-rule:nonzero;stroke:none" /><path
         d="m 267.93,1236.21 c 79.371,77.42 131.48,161.88 181.332,243.09 43.707,-89.34 106.437,-167.54 174.289,-243.09 C 550.98,1161.25 494.73,1081.09 449.488,996.84 399.34,1083.2 346.559,1161.45 267.93,1236.21"
         inkscape:connector-curvature="0"
         id="path20"
         style="fill:#d40000;fill-opacity:1;fill-rule:nonzero;stroke:none" /><path
         d="m 267.93,447.422 c 79.371,77.418 131.48,161.879 181.332,243.09 43.707,-89.34 106.437,-167.543 174.289,-243.09 C 550.98,372.461 494.73,292.301 449.488,208.051 399.34,294.41 346.559,372.66 267.93,447.422"
         inkscape:connector-curvature="0"
         id="path22"
         style="fill:#d40000;fill-opacity:1;fill-rule:nonzero;stroke:none" /><path
         d="m 719.41,1637.19 c 79.379,77.46 131.488,161.91 181.328,243.12 43.711,-89.37 106.452,-167.54 174.302,-243.12 -72.58,-74.96 -128.829,-155.08 -174.06,-239.34 -50.16,86.37 -102.929,164.57 -181.57,239.34"
         inkscape:connector-curvature="0"
         id="path24"
         style="fill:#d40000;fill-opacity:1;fill-rule:nonzero;stroke:none" /><path
         d="m 1160.2,2038.2 c 79.37,77.42 131.48,161.88 181.32,243.09 43.71,-89.34 106.45,-167.54 174.3,-243.09 -72.58,-74.96 -128.83,-155.11 -174.06,-239.37 -50.16,86.37 -102.93,164.57 -181.56,239.37"
         inkscape:connector-curvature="0"
         id="path26"
         style="fill:#d40000;fill-opacity:1;fill-rule:nonzero;stroke:none" /><path
         d="m 1160.2,1236.21 c 79.37,77.42 131.48,161.88 181.32,243.09 43.71,-89.34 106.45,-167.54 174.3,-243.09 -72.58,-74.96 -128.83,-155.12 -174.06,-239.37 -50.16,86.36 -102.93,164.61 -181.56,239.37"
         inkscape:connector-curvature="0"
         id="path28"
         style="fill:#d40000;fill-opacity:1;fill-rule:nonzero;stroke:none" /><path
         d="m 1160.2,447.422 c 79.37,77.418 131.48,161.879 181.32,243.09 43.71,-89.34 106.45,-167.543 174.3,-243.09 C 1443.24,372.461 1386.99,292.301 1341.76,208.051 1291.6,294.41 1238.83,372.66 1160.2,447.422"
         inkscape:connector-curvature="0"
         id="path30"
         style="fill:#d40000;fill-opacity:1;fill-rule:nonzero;stroke:none" /><path
         d="m 1581.52,505.199 c 32.54,31.711 53.87,66.321 74.3,99.571 17.93,-36.61 43.59,-68.641 71.41,-99.571 -29.73,-30.711 -52.78,-63.558 -71.33,-98.051 -20.51,35.391 -42.15,67.422 -74.38,98.051"
         inkscape:connector-curvature="0"
         id="path32"
         style="fill:#d40000;fill-opacity:1;fill-rule:nonzero;stroke:none" /><path
         d="m 71.0195,1992.03 c 32.5005,31.76 53.8595,66.33 74.2895,99.61 17.89,-36.6 43.601,-68.63 71.371,-99.61 -29.731,-30.7 -52.77,-63.51 -71.289,-98.05 -20.551,35.4 -42.153,67.43 -74.3715,98.05"
         inkscape:connector-curvature="0"
         id="path34"
         style="fill:#d40000;fill-opacity:1;fill-rule:nonzero;stroke:none" /><path
         d="m 102.578,2136.41 c 17.07,88.71 35.274,155.27 83.043,227.57 l -97.0702,0 0,-31.09 -25.8203,0 0,58.63 142.0705,0 17.5,-27.54 c -50.742,-54.37 -97.18,-230.11 -88.981,-227.57"
         inkscape:connector-curvature="0"
         id="path36"
         style="fill:#d40000;fill-opacity:1;fill-rule:nonzero;stroke:none" /><path
         d="m 1690.94,386.09 c -17.07,-88.711 -35.28,-155.27 -83.05,-227.57 l 97.07,0 0,31.128 25.82,0 0,-58.668 -142.03,0 -17.5,27.54 c 50.74,54.371 97.19,230.152 88.95,227.57"
         inkscape:connector-curvature="0"
         id="path38"
         style="fill:#d40000;fill-opacity:1;fill-rule:nonzero;stroke:none" /></g></g></svg>