<?xml version="1.0" encoding="UTF-8" standalone="no"?>
<!-- Created with Inkscape (http://www.inkscape.org/) -->

<svg
   xmlns:dc="http://purl.org/dc/elements/1.1/"
   xmlns:cc="http://creativecommons.org/ns#"
   xmlns:rdf="http://www.w3.org/1999/02/22-rdf-syntax-ns#"
   xmlns:svg="http://www.w3.org/2000/svg"
   xmlns="http://www.w3.org/2000/svg"
   viewBox="0 0 223.75 313.75"
   height="313.75"
   width="223.75"
   xml:space="preserve"
   version="1.1"
   id="svg2"><metadata
     id="metadata8"><rdf:RDF><cc:Work
         rdf:about=""><dc:format>image/svg+xml</dc:format><dc:type
           rdf:resource="http://purl.org/dc/dcmitype/StillImage" /></cc:Work></rdf:RDF></metadata><defs
     id="defs6" /><g
     transform="matrix(1.25,0,0,-1.25,0,313.75)"
     id="g10"><g
       transform="scale(0.1,0.1)"
       id="g12"><path
         id="path14"
         style="fill:#ffffff;fill-opacity:1;fill-rule:nonzero;stroke:none"
         d="m 85.0391,2504.49 1615.7409,0 c 47.11,0 85.04,-37.93 85.04,-85.04 l 0,-2324.4109 C 1785.82,47.9297 1747.89,10 1700.78,10 L 85.0391,10 C 37.9297,10 0,47.9297 0,95.0391 L 0,2419.45 c 0,47.11 37.9297,85.04 85.0391,85.04" /><path
         id="path16"
         style="fill:none;stroke:#000000;stroke-width:7.92000008;stroke-linecap:butt;stroke-linejoin:miter;stroke-miterlimit:3.79999995;stroke-dasharray:none;stroke-opacity:1"
         d="m 85.0391,2504.49 1615.7409,0 c 47.11,0 85.04,-37.93 85.04,-85.04 l 0,-2324.4109 C 1785.82,47.9297 1747.89,10 1700.78,10 L 85.0391,10 C 37.9297,10 0,47.9297 0,95.0391 L 0,2419.45 c 0,47.11 37.9297,85.04 85.0391,85.04 z" /><path
         id="path18"
         style="fill:#d40000;fill-opacity:1;fill-rule:nonzero;stroke:none"
         d="m 98.75,2132.42 c 17.031,88.71 35.27,155.27 83.051,227.58 l -97.1096,0 0,-31.14 -25.7812,0 0,58.68 142.0308,0 17.5,-27.54 C 167.73,2305.62 121.25,2129.84 129.488,2132.42" /><path
         id="path20"
         style="fill:#d40000;fill-opacity:1;fill-rule:nonzero;stroke:none"
         d="m 1687.11,382.07 c -17.07,-88.711 -35.31,-155.281 -83.05,-227.582 l 97.07,0 0,31.133 25.78,0 0,-58.633 -142.03,0 -17.5,27.5 c 50.74,54.371 97.19,230.153 88.95,227.582" /><path
         id="path22"
         style="fill:#d40000;fill-opacity:1;fill-rule:nonzero;stroke:none"
         d="m 70.5898,2008.82 c -12.621,27.78 -13.9882,75.24 23.7891,81.64 28.5511,3.68 40.1521,-9.57 42.3831,-29.92 1.207,-5.93 4.566,-6.33 5.578,0.47 1.609,20.86 22.351,33.05 38.48,30 44.18,-7.58 41.602,-56.25 27.149,-89.26 -21.84,-43.82 -44.809,-71.48 -65.938,-115.62 -24.301,45.94 -52.0701,83.24 -71.4412,122.69" /><path
         id="path24"
         style="fill:#d40000;fill-opacity:1;fill-rule:nonzero;stroke:none"
         d="m 345.469,2266.01 c 57.23,3.83 86.953,-45 92.812,-83.47 3.438,-6.1 5.348,-4.38 6.641,0.35 2.808,49.37 47.027,89.76 88.008,84.22 66.64,-0.86 107.109,-75 95.66,-137.74 -13.82,-76.64 -55.192,-122.81 -86.399,-170.35 -35.429,-49.22 -83.011,-120.31 -98.32,-154.53 0,0 -48.402,73.63 -111.332,160.23 -42.109,57.89 -75.777,120.67 -78.988,174.69 -3.512,61.72 21.758,117.03 91.918,126.6" /><path
         id="path26"
         style="fill:#d40000;fill-opacity:1;fill-rule:nonzero;stroke:none"
         d="m 1237.81,2266.01 c 57.11,3.83 86.88,-45 92.7,-83.47 3.44,-6.1 5.39,-4.38 6.72,0.35 2.81,49.37 46.99,89.76 87.93,84.22 66.64,-0.86 107.11,-75 95.78,-137.74 -13.95,-76.64 -55.24,-122.81 -86.49,-170.35 -35.39,-49.22 -82.97,-120.31 -98.32,-154.53 0,0 -48.4,73.63 -111.36,160.23 -42.07,57.89 -75.79,120.67 -78.87,174.69 -3.63,61.72 21.76,117.03 91.91,126.6" /><path
         id="path28"
         style="fill:#d40000;fill-opacity:1;fill-rule:nonzero;stroke:none"
         d="m 796.988,1865.04 c 57.114,3.78 86.883,-45.04 92.742,-83.48 3.43,-6.13 5.348,-4.42 6.719,0.31 2.813,49.42 46.949,89.77 87.93,84.26 66.641,-0.86 107.101,-75 95.741,-137.77 -13.91,-76.65 -55.2,-122.78 -86.491,-170.32 -35.348,-49.22 -82.969,-120.31 -98.32,-154.53 0,0 -48.399,73.63 -111.36,160.24 -42.07,57.89 -75.75,120.66 -78.871,174.68 -3.598,61.72 21.762,117.03 91.91,126.61" /><path
         id="path30"
         style="fill:#d40000;fill-opacity:1;fill-rule:nonzero;stroke:none"
         d="m 345.469,1464.06 c 57.23,3.79 86.953,-45.04 92.812,-83.52 3.438,-6.09 5.348,-4.37 6.641,0.35 2.808,49.38 47.027,89.77 88.008,84.26 66.64,-0.9 107.109,-75.04 95.66,-137.77 -13.82,-76.64 -55.192,-122.81 -86.399,-170.35 -35.429,-49.22 -83.05,-120.32 -98.32,-154.53 0,0 -48.402,73.63 -111.371,160.23 -42.07,57.93 -75.738,120.66 -78.949,174.69 -3.512,61.72 21.758,117.07 91.918,126.6" /><path
         id="path32"
         style="fill:#d40000;fill-opacity:1;fill-rule:nonzero;stroke:none"
         d="m 1237.81,1464.06 c 57.11,3.79 86.88,-45.04 92.7,-83.52 3.44,-6.09 5.35,-4.37 6.72,0.35 2.81,49.38 46.95,89.77 87.93,84.26 66.64,-0.9 107.11,-75.04 95.78,-137.77 -13.95,-76.64 -55.24,-122.81 -86.49,-170.35 -35.39,-49.22 -82.97,-120.32 -98.32,-154.53 0,0 -48.4,73.63 -111.36,160.23 -42.07,57.93 -75.79,120.66 -78.91,174.69 -3.59,61.72 21.8,117.07 91.95,126.6" /><path
         id="path34"
         style="fill:#d40000;fill-opacity:1;fill-rule:nonzero;stroke:none"
         d="m 1581.17,481.949 c -12.65,-27.769 -14.1,-75.238 23.75,-81.679 28.48,-3.668 40.08,9.609 42.38,29.96 1.14,5.942 4.5,6.29 5.55,-0.468 1.68,-20.903 22.31,-33.082 38.48,-30 44.22,7.539 41.6,56.207 27.19,89.218 -21.84,43.872 -44.81,71.52 -66.02,115.629 -24.22,-45.937 -51.99,-83.25 -71.33,-122.66" /><path
         id="path36"
         style="fill:#d40000;fill-opacity:1;fill-rule:nonzero;stroke:none"
         d="m 1237.81,215.309 c 57.11,-3.789 86.88,45.043 92.7,83.48 3.44,6.133 5.39,4.41 6.72,-0.32 2.81,-49.41 46.99,-89.758 87.93,-84.258 66.64,0.859 107.11,75 95.78,137.738 -13.95,76.68 -55.24,122.813 -86.49,170.352 -35.39,49.219 -82.97,120.308 -98.32,154.527 0,0 -48.4,-73.629 -111.36,-160.226 -42.07,-57.891 -75.79,-120.672 -78.87,-174.692 -3.63,-61.719 21.76,-117.031 91.91,-126.601" /><path
         id="path38"
         style="fill:#d40000;fill-opacity:1;fill-rule:nonzero;stroke:none"
         d="m 345.469,215.309 c 57.23,-3.789 86.953,45.043 92.812,83.48 3.438,6.133 5.348,4.41 6.641,-0.32 2.808,-49.41 47.027,-89.758 88.008,-84.258 66.64,0.859 107.109,75 95.66,137.738 -13.82,76.68 -55.192,122.813 -86.399,170.352 -35.429,49.219 -83.05,120.308 -98.32,154.527 0,0 -48.402,-73.629 -111.371,-160.226 C 290.43,458.711 256.762,395.93 253.551,341.91 250.039,280.191 275.309,224.879 345.469,215.309" /></g></g></svg>