<?xml version="1.0" encoding="UTF-8" standalone="no"?>
<!-- Created with Inkscape (http://www.inkscape.org/) -->

<svg
   xmlns:dc="http://purl.org/dc/elements/1.1/"
   xmlns:cc="http://creativecommons.org/ns#"
   xmlns:rdf="http://www.w3.org/1999/02/22-rdf-syntax-ns#"
   xmlns:svg="http://www.w3.org/2000/svg"
   xmlns="http://www.w3.org/2000/svg"
   xmlns:inkscape="http://www.inkscape.org/namespaces/inkscape"
   version="1.1"
   width="225"
   height="315"
   id="svg2"
   xml:space="preserve"><metadata
     id="metadata8"><rdf:RDF><cc:Work
         rdf:about=""><dc:format>image/svg+xml</dc:format><dc:type
           rdf:resource="http://purl.org/dc/dcmitype/StillImage" /></cc:Work></rdf:RDF></metadata><defs
     id="defs6" /><g
     transform="matrix(1.25,0,0,-1.25,0,315)"
     id="g10"><g
       transform="scale(0.1,0.1)"
       id="g12"><path
         d="m 88.9102,2508.52 1615.7398,0 c 47.11,0 85.04,-37.93 85.04,-85.04 l 0,-2324.4214 c 0,-47.1094 -37.93,-85.0391 -85.04,-85.0391 l -1615.7398,0 c -47.1094,0 -85.03911,37.9297 -85.03911,85.0391 l 0,2324.4214 c 0,47.11 37.92971,85.04 85.03911,85.04"
         inkscape:connector-curvature="0"
         id="path14"
         style="fill:#ffffff;fill-opacity:1;fill-rule:nonzero;stroke:none" /><path
         d="m 88.9102,2508.52 1615.7398,0 c 47.11,0 85.04,-37.93 85.04,-85.04 l 0,-2324.4214 c 0,-47.1094 -37.93,-85.0391 -85.04,-85.0391 l -1615.7398,0 c -47.1094,0 -85.03911,37.9297 -85.03911,85.0391 l 0,2324.4214 c 0,47.11 37.92971,85.04 85.03911,85.04 z"
         inkscape:connector-curvature="0"
         id="path16"
         style="fill:none;stroke:#000000;stroke-width:7.92000008;stroke-linecap:butt;stroke-linejoin:miter;stroke-miterlimit:3.79999995;stroke-opacity:1;stroke-dasharray:none" /><path
         d="m 102.578,2136.41 c 17.07,88.71 35.274,155.27 83.043,227.57 l -97.0702,0 0,-31.09 -25.8203,0 0,58.63 142.0705,0 17.5,-27.54 c -50.742,-54.37 -97.18,-230.11 -88.981,-227.57"
         inkscape:connector-curvature="0"
         id="path18"
         style="fill:#000000;fill-opacity:1;fill-rule:nonzero;stroke:none" /><path
         d="m 1690.94,386.09 c -17.07,-88.711 -35.28,-155.27 -83.05,-227.57 l 97.07,0 0,31.128 25.82,0 0,-58.668 -142.03,0 -17.5,27.54 c 50.74,54.371 97.19,230.152 88.95,227.57"
         inkscape:connector-curvature="0"
         id="path20"
         style="fill:#000000;fill-opacity:1;fill-rule:nonzero;stroke:none" /><path
         d="m 428.629,1948.48 c 0.121,16.21 -12.688,16.48 -12.539,4.68 -1.09,-59.45 -51.36,-88.71 -87.852,-81.75 -56.289,10.7 -74.258,66.56 -73.707,99.49 1.641,101.56 103.867,176.44 196.129,306.68 67.621,-117.54 179.18,-209.85 185.789,-300.7 8.781,-120.79 -144.07,-165.83 -165.898,-25.08 -1.41,9.96 -13.09,14.41 -12.192,0.54 3.321,-38.59 -1.41,-54.64 42.11,-149.76 l -113.75,0 c 25.191,44.45 40.191,98.98 41.91,145.9"
         inkscape:connector-curvature="0"
         id="path22"
         style="fill:#000000;fill-opacity:1;fill-rule:nonzero;stroke:none" /><path
         d="m 1320.9,1948.48 c 0.12,16.21 -12.7,16.48 -12.58,4.68 -1.05,-59.45 -51.33,-88.71 -87.81,-81.75 -56.29,10.7 -74.26,66.56 -73.75,99.49 1.68,101.56 103.9,176.44 196.17,306.68 67.62,-117.54 179.18,-209.85 185.78,-300.7 8.79,-120.79 -144.06,-165.83 -165.9,-25.08 -1.4,9.96 -13.08,14.41 -12.19,0.54 3.33,-38.59 -1.4,-54.64 42.11,-149.76 l -113.75,0 c 25.2,44.45 40.2,98.98 41.92,145.9"
         inkscape:connector-curvature="0"
         id="path24"
         style="fill:#000000;fill-opacity:1;fill-rule:nonzero;stroke:none" /><path
         d="m 880.078,1547.46 c 0.152,16.21 -12.699,16.52 -12.539,4.69 -1.059,-59.42 -51.328,-88.67 -87.848,-81.76 -56.293,10.7 -74.261,66.6 -73.711,99.49 1.68,101.57 103.899,176.49 196.168,306.68 67.622,-117.54 179.182,-209.84 185.782,-300.66 8.79,-120.82 -144.059,-165.86 -165.899,-25.08 -1.41,9.96 -13.121,14.41 -12.191,0.51 3.281,-38.56 -1.399,-54.65 42.109,-149.73 l -113.789,0 c 25.199,44.42 40.238,98.99 41.918,145.86"
         inkscape:connector-curvature="0"
         id="path26"
         style="fill:#000000;fill-opacity:1;fill-rule:nonzero;stroke:none" /><path
         d="m 1320.9,1146.48 c 0.12,16.22 -12.7,16.53 -12.58,4.69 -1.05,-59.45 -51.33,-88.71 -87.81,-81.76 -56.29,10.71 -74.26,66.57 -73.75,99.5 1.68,101.56 103.9,176.44 196.17,306.68 67.62,-117.54 179.18,-209.85 185.78,-300.71 8.79,-120.78 -144.06,-165.82 -165.9,-25.04 -1.4,9.93 -13.08,14.38 -12.19,0.51 3.33,-38.59 -1.4,-54.65 42.11,-149.76 l -113.75,0 c 25.2,44.45 40.2,98.98 41.92,145.89"
         inkscape:connector-curvature="0"
         id="path28"
         style="fill:#000000;fill-opacity:1;fill-rule:nonzero;stroke:none" /><path
         d="m 428.629,1146.48 c 0.121,16.22 -12.688,16.53 -12.539,4.69 -1.09,-59.45 -51.36,-88.71 -87.852,-81.76 -56.289,10.71 -74.258,66.57 -73.707,99.5 1.641,101.56 103.867,176.44 196.129,306.68 67.621,-117.54 179.18,-209.85 185.789,-300.71 8.781,-120.78 -144.07,-165.82 -165.898,-25.04 -1.41,9.93 -13.09,14.38 -12.192,0.51 3.321,-38.59 -1.41,-54.65 42.11,-149.76 l -113.75,0 c 25.191,44.45 40.191,98.98 41.91,145.89"
         inkscape:connector-curvature="0"
         id="path30"
         style="fill:#000000;fill-opacity:1;fill-rule:nonzero;stroke:none" /><path
         d="m 1320.98,540.699 c 0.11,-16.211 -12.7,-16.519 -12.54,-4.679 -1.1,59.41 -51.33,88.671 -87.85,81.75 -56.29,-10.7 -74.26,-66.598 -73.71,-99.489 1.64,-101.562 103.9,-176.48 196.13,-306.679 67.61,117.539 179.18,209.847 185.78,300.668 8.79,120.82 -144.06,165.851 -165.86,25.07 -1.41,-9.961 -13.13,-14.41 -12.23,-0.5 3.32,38.551 -1.4,54.64 42.11,149.719 l -113.75,0 c 25.2,-44.411 40.2,-98.981 41.92,-145.86"
         inkscape:connector-curvature="0"
         id="path32"
         style="fill:#000000;fill-opacity:1;fill-rule:nonzero;stroke:none" /><path
         d="m 428.711,540.699 c 0.117,-16.211 -12.691,-16.519 -12.539,-4.679 -1.094,59.41 -51.332,88.671 -87.852,81.75 -56.289,-10.7 -74.261,-66.598 -73.711,-99.489 1.641,-101.562 103.911,-176.48 196.172,-306.679 67.578,117.539 179.141,209.847 185.778,300.668 8.75,120.82 -144.098,165.851 -165.899,25.07 -1.398,-9.961 -13.121,-14.41 -12.219,-0.5 3.321,38.551 -1.41,54.64 42.149,149.719 l -113.789,0 c 25.187,-44.411 40.187,-98.981 41.91,-145.86"
         inkscape:connector-curvature="0"
         id="path34"
         style="fill:#000000;fill-opacity:1;fill-rule:nonzero;stroke:none" /><path
         d="m 140.43,1940.35 c 0.082,6.99 -7.149,3.75 -8.129,1.53 -9.289,-15.86 -22.922,-19.58 -36.4026,-13.83 -13.3203,5.66 -20.8203,18.24 -19.6093,36.17 2.4609,27.5 24.3009,57.58 34.8399,74.61 10,15.43 21.019,33.79 32.621,57.22 13.551,-26.91 20.469,-34.57 35.23,-59.14 13.008,-21.64 31.141,-42.81 32.54,-68.98 0,-19.84 -8.36,-38.63 -27.18,-42.07 -10.668,-1.91 -20.629,3.55 -28.051,16.29 -2.269,3.28 -6.801,1.56 -6.719,-2.89 1.328,-16.72 7.66,-31.84 22.66,-49.69 l -55.121,0 c 11.289,12.62 22.813,29.65 23.321,50.78"
         inkscape:connector-curvature="0"
         id="path36"
         style="fill:#000000;fill-opacity:1;fill-rule:nonzero;stroke:none" /><path
         d="m 1650.98,558.398 c 0.07,-6.949 -7.19,-3.707 -8.17,-1.519 -9.29,15.891 -22.89,19.57 -36.36,13.859 -13.36,-5.66 -20.86,-18.238 -19.65,-36.168 2.5,-27.5 24.29,-57.621 34.84,-74.609 10.04,-15.473 21.02,-33.789 32.62,-57.231 13.59,26.879 20.47,34.54 35.23,59.11 13.01,21.64 31.13,42.851 32.54,68.98 0,19.879 -8.36,38.668 -27.19,42.071 -10.66,1.949 -20.62,-3.512 -28.04,-16.289 -2.23,-3.243 -6.76,-1.563 -6.68,2.886 1.29,16.762 7.61,31.883 22.61,49.692 l -55.07,0 c 11.25,-12.578 22.77,-29.61 23.32,-50.782"
         inkscape:connector-curvature="0"
         id="path38"
         style="fill:#000000;fill-opacity:1;fill-rule:nonzero;stroke:none" /></g></g></svg>