<?xml version="1.0" encoding="UTF-8" standalone="no"?>
<!-- Created with Inkscape (http://www.inkscape.org/) -->

<svg
   xmlns:dc="http://purl.org/dc/elements/1.1/"
   xmlns:cc="http://creativecommons.org/ns#"
   xmlns:rdf="http://www.w3.org/1999/02/22-rdf-syntax-ns#"
   xmlns:svg="http://www.w3.org/2000/svg"
   xmlns="http://www.w3.org/2000/svg"
   xmlns:inkscape="http://www.inkscape.org/namespaces/inkscape"
   version="1.1"
   width="225"
   height="315"
   id="svg2"
   xml:space="preserve"><metadata
     id="metadata8"><rdf:RDF><cc:Work
         rdf:about=""><dc:format>image/svg+xml</dc:format><dc:type
           rdf:resource="http://purl.org/dc/dcmitype/StillImage" /></cc:Work></rdf:RDF></metadata><defs
     id="defs6" /><g
     transform="matrix(1.25,0,0,-1.25,0,315)"
     id="g10"><g
       transform="scale(0.1,0.1)"
       id="g12"><path
         d="m 88.9805,2508.52 1615.7495,0 c 47.11,0 85.04,-37.93 85.04,-85.04 l 0,-2324.4214 c 0,-47.1094 -37.93,-85.0391 -85.04,-85.0391 l -1615.7495,0 c -47.1016,0 -85.03128,37.9297 -85.03128,85.0391 l 0,2324.4214 c 0,47.11 37.92968,85.04 85.03128,85.04"
         inkscape:connector-curvature="0"
         id="path14"
         style="fill:#ffffff;fill-opacity:1;fill-rule:nonzero;stroke:none" /><path
         d="m 88.9805,2508.52 1615.7495,0 c 47.11,0 85.04,-37.93 85.04,-85.04 l 0,-2324.4214 c 0,-47.1094 -37.93,-85.0391 -85.04,-85.0391 l -1615.7495,0 c -47.1016,0 -85.03128,37.9297 -85.03128,85.0391 l 0,2324.4214 c 0,47.11 37.92968,85.04 85.03128,85.04 z"
         inkscape:connector-curvature="0"
         id="path16"
         style="fill:none;stroke:#000000;stroke-width:7.9738698;stroke-linecap:butt;stroke-linejoin:miter;stroke-miterlimit:4;stroke-opacity:1;stroke-dasharray:none" /><path
         d="m 52.6602,2208.09 c 1.289,35 14.1796,48.16 39.5703,66.48 -20.2813,14.38 -28.7891,35.51 -27.0703,53.52 4.1796,43.55 38.4688,65.35 75.8908,64.41 37.39,-0.94 69.609,-30.12 72.148,-61.8 2.192,-27.54 -6.168,-40.78 -26.051,-55.31 23.59,-19.53 38.711,-32.38 38.122,-66.87 -0.54,-34.5 -30.43,-75.51 -82.5,-76.76 -52.0708,-1.29 -91.3598,41.33 -90.1098,76.33 z m 145.3908,-0.12 c 2.219,31.72 -26.289,53.08 -58.52,53.44 -31.371,0.31 -59.4529,-25.98 -59.4529,-54.46 0,-30.54 36.5239,-47.15 60.1209,-47.26 28.629,-0.08 55.93,20.97 57.852,48.28 z m -10.321,113.4 c 0.629,26.72 -24.449,45.82 -50.308,45.08 -23.012,-0.71 -47.3439,-17.93 -47.3829,-40.28 0,-27.89 27.6909,-41.83 51.3709,-42.38 21.442,-0.47 45.86,17.42 46.32,37.58"
         inkscape:connector-curvature="0"
         id="path18"
         style="fill:#000000;fill-opacity:1;fill-rule:nonzero;stroke:none" /><path
         d="m 1728.98,314.41 c -1.28,-35 -14.14,-48.16 -39.53,-66.48 20.24,-14.34 28.79,-35.469 27.03,-53.481 -4.14,-43.59 -38.47,-65.39 -75.86,-64.449 -37.42,0.98 -69.64,30.121 -72.14,61.801 -2.19,27.539 6.17,40.82 26.05,55.308 -23.63,19.532 -38.71,32.379 -38.16,66.871 0.58,34.5 30.47,75.508 82.54,76.801 52.07,1.25 91.36,-41.371 90.07,-76.371 z m -145.35,0.121 c -2.26,-31.679 26.29,-53.082 58.48,-53.402 31.41,-0.348 59.45,25.941 59.45,54.422 0,30.578 -36.48,47.179 -60.08,47.258 -28.67,0.121 -55.93,-20.969 -57.85,-48.278 z m 10.28,-113.402 c -0.63,-26.68 24.45,-45.82 50.31,-45.039 23.01,0.672 47.38,17.89 47.38,40.238 0.04,27.934 -27.69,41.832 -51.33,42.383 -21.44,0.469 -45.89,-17.383 -46.36,-37.582"
         inkscape:connector-curvature="0"
         id="path20"
         style="fill:#000000;fill-opacity:1;fill-rule:nonzero;stroke:none" /><path
         d="m 1252.27,1828.87 c 23,46.21 39.8,93.59 42.77,144.29 2.73,18.68 -8.59,18.99 -10.31,5.82 -32.62,-124.72 -206.1,-90.93 -200.12,26.37 4.84,95.16 99.34,115.63 148.63,84.53 19.49,-11.44 18.4,-4.61 7.78,7.31 -73.25,81.68 -28.91,186.87 70.07,188.79 107.03,-6.33 134.81,-118.95 69.14,-185.16 -8.16,-7.97 -26.25,-33.55 0.98,-15.66 66.29,47.11 158.32,-3.56 156.45,-76.18 -3.48,-133.9 -166.72,-143.9 -201.64,-32.03 -3.36,12.39 -13.05,18.64 -10.36,-2.42 4.85,-38.16 14.85,-95.66 43.48,-145.66"
         inkscape:connector-curvature="0"
         id="path22"
         style="fill:#000000;fill-opacity:1;fill-rule:nonzero;stroke:none" /><path
         d="m 1252.27,1026.88 c 23,46.21 39.8,93.59 42.77,144.29 2.73,18.67 -8.59,18.99 -10.31,5.82 -32.62,-124.72 -206.1,-90.94 -200.12,26.37 4.84,95.19 99.34,115.66 148.63,84.53 19.49,-11.44 18.4,-4.61 7.78,7.31 -73.25,81.68 -28.91,186.87 70.07,188.82 107.03,-6.36 134.81,-118.98 69.14,-185.19 -8.16,-7.97 -26.25,-33.56 0.98,-15.67 66.29,47.11 158.32,-3.55 156.45,-76.17 -3.48,-133.9 -166.72,-143.87 -201.64,-32.03 -3.36,12.38 -13.05,18.63 -10.36,-2.42 4.85,-38.16 14.85,-95.63 43.48,-145.66"
         inkscape:connector-curvature="0"
         id="path24"
         style="fill:#000000;fill-opacity:1;fill-rule:nonzero;stroke:none" /><path
         d="m 423.98,1026.88 c 23.051,46.21 39.809,93.59 42.782,144.29 2.726,18.67 -8.602,18.99 -10.282,5.82 -32.609,-124.72 -206.128,-90.94 -200.152,26.37 4.844,95.19 99.371,115.66 148.672,84.53 19.449,-11.44 18.359,-4.61 7.73,7.31 -73.242,81.68 -28.859,186.87 70.079,188.82 107.031,-6.36 134.812,-118.98 69.179,-185.19 -8.16,-7.97 -26.289,-33.56 0.981,-15.67 66.293,47.11 158.281,-3.55 156.41,-76.17 -3.438,-133.9 -166.719,-143.87 -201.609,-32.03 -3.36,12.38 -13.04,18.63 -10.391,-2.42 4.851,-38.16 14.891,-95.63 43.519,-145.66"
         inkscape:connector-curvature="0"
         id="path26"
         style="fill:#000000;fill-opacity:1;fill-rule:nonzero;stroke:none" /><path
         d="m 825.469,1427.89 c 23.011,46.17 39.801,93.59 42.769,144.3 2.742,18.63 -8.59,18.94 -10.308,5.82 -32.621,-124.77 -206.09,-90.98 -200.121,26.37 4.851,95.15 99.339,115.62 148.64,84.53 19.492,-11.49 18.391,-4.61 7.77,7.26 -73.239,81.72 -28.91,186.92 70.082,188.83 107.027,-6.33 134.799,-118.95 69.14,-185.2 -8.171,-7.92 -26.25,-33.51 0.969,-15.62 66.29,47.07 158.32,-3.56 156.45,-76.17 -3.48,-133.91 -166.719,-143.91 -201.641,-32.07 -3.36,12.42 -13.047,18.63 -10.348,-2.42 4.84,-38.13 14.84,-95.63 43.469,-145.63"
         inkscape:connector-curvature="0"
         id="path28"
         style="fill:#000000;fill-opacity:1;fill-rule:nonzero;stroke:none" /><path
         d="m 423.98,1828.87 c 23.051,46.21 39.809,93.59 42.782,144.29 2.726,18.68 -8.602,18.99 -10.282,5.82 -32.609,-124.72 -206.128,-90.93 -200.152,26.37 4.844,95.16 99.371,115.63 148.672,84.53 19.449,-11.44 18.359,-4.61 7.73,7.31 -73.242,81.68 -28.859,186.87 70.079,188.79 107.031,-6.33 134.812,-118.95 69.179,-185.16 -8.16,-7.97 -26.289,-33.55 0.981,-15.66 66.293,47.11 158.281,-3.56 156.41,-76.18 -3.438,-133.9 -166.719,-143.9 -201.609,-32.03 -3.36,12.39 -13.04,18.64 -10.391,-2.42 4.851,-38.16 14.891,-95.66 43.519,-145.66"
         inkscape:connector-curvature="0"
         id="path30"
         style="fill:#000000;fill-opacity:1;fill-rule:nonzero;stroke:none" /><path
         d="m 1369.88,695.23 c -23.04,-46.21 -39.8,-93.628 -42.81,-144.289 -2.73,-18.671 8.59,-18.992 10.31,-5.863 32.62,124.762 206.1,90.973 200.16,-26.367 -4.84,-95.16 -99.38,-115.621 -148.67,-84.492 -19.46,11.441 -18.36,4.57 -7.74,-7.309 73.25,-81.68 28.87,-186.91 -70.11,-188.82 -107.04,6.359 -134.81,118.941 -69.14,185.191 8.16,7.969 26.28,33.52 -0.98,15.668 -66.29,-47.109 -158.28,3.512 -156.41,76.129 3.44,133.942 166.68,143.902 201.6,32.07 3.36,-12.418 13.05,-18.628 10.36,2.422 -4.81,38.129 -14.85,95.629 -43.48,145.66"
         inkscape:connector-curvature="0"
         id="path32"
         style="fill:#000000;fill-opacity:1;fill-rule:nonzero;stroke:none" /><path
         d="m 943.09,1089.61 c -23.051,-46.21 -39.809,-93.59 -42.82,-144.301 -2.731,-18.629 8.601,-18.938 10.32,-5.821 32.609,124.732 206.09,90.982 200.15,-26.367 -4.84,-95.152 -99.37,-115.621 -148.67,-84.531 -19.449,11.488 -18.359,4.609 -7.73,-7.301 73.24,-81.68 28.859,-186.879 -70.121,-188.789 -107.028,6.328 -134.809,118.949 -69.141,185.16 8.16,7.961 26.293,33.551 -0.976,15.66 -66.293,-47.109 -158.282,3.559 -156.403,76.168 3.43,133.912 166.68,143.912 201.602,32.032 3.359,-12.379 13.039,-18.629 10.347,2.46 -4.808,38.129 -14.847,95.63 -43.476,145.63"
         inkscape:connector-curvature="0"
         id="path34"
         style="fill:#000000;fill-opacity:1;fill-rule:nonzero;stroke:none" /><path
         d="m 541.602,695.23 c -23.012,-46.21 -39.801,-93.628 -42.774,-144.289 -2.738,-18.671 8.594,-18.992 10.313,-5.863 32.578,124.762 206.089,90.973 200.121,-26.367 -4.852,-95.16 -99.34,-115.621 -148.672,-84.492 -19.461,11.441 -18.36,4.57 -7.738,-7.309 73.238,-81.68 28.91,-186.91 -70.082,-188.82 -107.032,6.359 -134.801,118.941 -69.141,185.191 8.172,7.969 26.25,33.52 -1.008,15.668 -66.293,-47.109 -158.281,3.512 -156.41,76.129 3.48,133.942 166.719,143.902 201.641,32.07 3.359,-12.418 13.007,-18.628 10.347,2.422 -4.84,38.129 -14.84,95.629 -43.508,145.66"
         inkscape:connector-curvature="0"
         id="path36"
         style="fill:#000000;fill-opacity:1;fill-rule:nonzero;stroke:none" /><path
         d="m 111.602,1889.8 c 9.527,19.58 18.828,37.78 23.867,59.22 3.359,20.2 -3.52,12.7 -7.379,-0.54 -5.789,-18.4 -21.801,-26.76 -36.6408,-26.96 -27,-0.39 -40.4297,20.82 -39.6094,43.64 -2.9296,23.98 21.3594,40.93 39.6797,39.64 13.7895,-0.97 25.8205,-8.43 33.0895,-14.21 4.77,-2.5 9.879,-3.64 2.731,2.89 -13.391,14.64 -24.61,23.71 -24.328,45.66 0.226,20.63 17.847,42.15 41.207,41.48 29.222,-0.85 42.5,-23.12 42.461,-43.86 -0.078,-15.08 -7.66,-28.99 -19.301,-37.62 -7.578,-6.13 -5.43,-10.7 3.172,-4.92 8.277,7.15 18.121,10.27 28.359,10.51 27.93,0.43 38.82,-23.71 37.262,-46.14 -1.524,-21.01 -19.41,-42.61 -42.973,-40.15 -21.051,2.38 -32.109,20.08 -38.429,38.2 -2.11,5.55 -5.43,7.07 -5.321,-1.21 4.852,-40.47 19.93,-65.66 20.039,-65.63"
         inkscape:connector-curvature="0"
         id="path38"
         style="fill:#000000;fill-opacity:1;fill-rule:nonzero;stroke:none" /><path
         d="m 1682.11,601.371 c -9.53,-19.57 -18.83,-37.781 -23.87,-59.18 -3.36,-20.242 3.48,-12.742 7.38,0.508 5.79,18.391 21.8,26.75 36.65,26.949 26.95,0.391 40.43,-20.82 39.57,-43.628 2.96,-23.989 -21.37,-40.942 -39.69,-39.649 -13.79,0.969 -25.78,8.43 -33.05,14.219 -4.76,2.5 -9.88,3.629 -2.77,-2.891 13.44,-14.648 24.61,-23.719 24.37,-45.668 -0.23,-20.621 -17.85,-42.152 -41.25,-41.48 -29.22,0.859 -42.5,23.121 -42.42,43.859 0.08,15.078 7.62,28.988 19.3,37.621 7.54,6.129 5.43,10.699 -3.21,4.918 -8.28,-7.148 -18.12,-10.269 -28.35,-10.5 -27.89,-0.429 -38.83,23.711 -37.23,46.129 1.48,21.012 19.37,42.621 42.97,40.152 21.01,-2.378 32.07,-20.07 38.44,-38.199 2.07,-5.551 5.39,-7.07 5.31,1.207 -4.88,40.473 -19.92,65.672 -20.04,65.633"
         inkscape:connector-curvature="0"
         id="path40"
         style="fill:#000000;fill-opacity:1;fill-rule:nonzero;stroke:none" /></g></g></svg>