<?xml version="1.0" encoding="UTF-8" standalone="no"?>
<!-- Created with Inkscape (http://www.inkscape.org/) -->

<svg
   xmlns:dc="http://purl.org/dc/elements/1.1/"
   xmlns:cc="http://creativecommons.org/ns#"
   xmlns:rdf="http://www.w3.org/1999/02/22-rdf-syntax-ns#"
   xmlns:svg="http://www.w3.org/2000/svg"
   xmlns="http://www.w3.org/2000/svg"
   xmlns:inkscape="http://www.inkscape.org/namespaces/inkscape"
   version="1.1"
   width="225"
   height="315"
   id="svg2"
   xml:space="preserve"><metadata
     id="metadata8"><rdf:RDF><cc:Work
         rdf:about=""><dc:format>image/svg+xml</dc:format><dc:type
           rdf:resource="http://purl.org/dc/dcmitype/StillImage" /></cc:Work></rdf:RDF></metadata><defs
     id="defs6" /><g
     transform="matrix(1.25,0,0,-1.25,0,315)"
     id="g10"><g
       transform="scale(0.1,0.1)"
       id="g12"><path
         d="m 88.9805,2508.52 1615.7495,0 c 47.11,0 85.04,-37.93 85.04,-85.04 l 0,-2324.4214 c 0,-47.1094 -37.93,-85.0391 -85.04,-85.0391 l -1615.7495,0 c -47.1016,0 -85.03128,37.9297 -85.03128,85.0391 l 0,2324.4214 c 0,47.11 37.92968,85.04 85.03128,85.04"
         inkscape:connector-curvature="0"
         id="path14"
         style="fill:#ffffff;fill-opacity:1;fill-rule:nonzero;stroke:none" /><path
         d="m 88.9805,2508.52 1615.7495,0 c 47.11,0 85.04,-37.93 85.04,-85.04 l 0,-2324.4214 c 0,-47.1094 -37.93,-85.0391 -85.04,-85.0391 l -1615.7495,0 c -47.1016,0 -85.03128,37.9297 -85.03128,85.0391 l 0,2324.4214 c 0,47.11 37.92968,85.04 85.03128,85.04 z"
         inkscape:connector-curvature="0"
         id="path16"
         style="fill:none;stroke:#000000;stroke-width:7.9738698;stroke-linecap:butt;stroke-linejoin:miter;stroke-miterlimit:4;stroke-opacity:1;stroke-dasharray:none" /><path
         d="m 263.012,2055.55 c 79.367,77.46 131.476,161.91 181.328,243.12 43.711,-89.37 106.441,-167.54 174.289,-243.12 -72.578,-74.96 -128.828,-155.08 -174.059,-239.34 -50.16,86.37 -102.929,164.57 -181.558,239.34"
         inkscape:connector-curvature="0"
         id="path18"
         style="fill:#d40000;fill-opacity:1;fill-rule:nonzero;stroke:none" /><path
         d="m 263.012,1253.55 c 79.367,77.47 131.476,161.92 181.328,243.13 43.711,-89.38 106.441,-167.54 174.289,-243.13 -72.578,-74.96 -128.828,-155.07 -174.059,-239.33 -50.16,86.37 -102.929,164.57 -181.558,239.33"
         inkscape:connector-curvature="0"
         id="path20"
         style="fill:#d40000;fill-opacity:1;fill-rule:nonzero;stroke:none" /><path
         d="M 263.012,464.77 C 342.379,542.23 394.488,626.68 444.34,707.891 488.051,618.52 550.781,540.352 618.629,464.77 546.051,389.801 489.801,309.691 444.57,225.43 394.41,311.801 341.641,390 263.012,464.77"
         inkscape:connector-curvature="0"
         id="path22"
         style="fill:#d40000;fill-opacity:1;fill-rule:nonzero;stroke:none" /><path
         d="m 712.461,1654.57 c 79.379,77.42 131.488,161.88 181.328,243.09 43.711,-89.34 106.441,-167.54 174.301,-243.09 -72.578,-74.96 -128.828,-155.12 -174.07,-239.37 -50.149,86.36 -102.93,164.57 -181.559,239.37"
         inkscape:connector-curvature="0"
         id="path24"
         style="fill:#d40000;fill-opacity:1;fill-rule:nonzero;stroke:none" /><path
         d="m 1155.27,2055.55 c 79.34,77.46 131.49,161.91 181.33,243.12 43.71,-89.37 106.45,-167.54 174.3,-243.12 -72.58,-74.96 -128.87,-155.08 -174.06,-239.34 -50.16,86.37 -102.93,164.57 -181.57,239.34"
         inkscape:connector-curvature="0"
         id="path26"
         style="fill:#d40000;fill-opacity:1;fill-rule:nonzero;stroke:none" /><path
         d="m 1155.27,1253.55 c 79.34,77.47 131.49,161.92 181.33,243.13 43.71,-89.38 106.45,-167.54 174.3,-243.13 -72.58,-74.96 -128.87,-155.07 -174.06,-239.33 -50.16,86.37 -102.93,164.57 -181.57,239.33"
         inkscape:connector-curvature="0"
         id="path28"
         style="fill:#d40000;fill-opacity:1;fill-rule:nonzero;stroke:none" /><path
         d="m 1155.27,464.77 c 79.34,77.46 131.49,161.91 181.33,243.121 43.71,-89.371 106.45,-167.539 174.3,-243.121 -72.58,-74.969 -128.87,-155.079 -174.06,-239.34 -50.16,86.371 -102.93,164.57 -181.57,239.34"
         inkscape:connector-curvature="0"
         id="path30"
         style="fill:#d40000;fill-opacity:1;fill-rule:nonzero;stroke:none" /><path
         d="m 712.461,859.18 c 79.379,77.422 131.488,161.87 181.328,243.09 C 937.5,1012.93 1000.23,934.73 1068.09,859.18 995.512,784.219 939.262,704.059 894.02,619.801 843.871,706.172 791.09,784.41 712.461,859.18"
         inkscape:connector-curvature="0"
         id="path32"
         style="fill:#d40000;fill-opacity:1;fill-rule:nonzero;stroke:none" /><path
         d="m 1587.66,497.578 c 32.5,31.723 53.86,66.332 74.29,99.613 17.89,-36.601 43.6,-68.64 71.37,-99.613 -29.73,-30.699 -52.77,-63.519 -71.29,-98.047 -20.55,35.391 -42.19,67.418 -74.37,98.047"
         inkscape:connector-curvature="0"
         id="path34"
         style="fill:#d40000;fill-opacity:1;fill-rule:nonzero;stroke:none" /><path
         d="m 77.1094,1984.45 c 32.5386,31.72 53.8706,66.33 74.3006,99.57 17.93,-36.6 43.59,-68.63 71.399,-99.57 -29.719,-30.7 -52.77,-63.55 -71.329,-98.04 -20.5,35.39 -42.14,67.42 -74.3706,98.04"
         inkscape:connector-curvature="0"
         id="path36"
         style="fill:#d40000;fill-opacity:1;fill-rule:nonzero;stroke:none" /><path
         d="m 58.6719,2208.09 c 1.289,35 14.1797,48.16 39.5664,66.48 -20.2695,14.38 -28.7891,35.51 -27.0664,53.52 4.1797,43.55 38.4761,65.35 75.8981,64.41 37.379,-0.94 69.61,-30.12 72.149,-61.8 2.191,-27.54 -6.168,-40.78 -26.059,-55.31 23.602,-19.53 38.719,-32.38 38.129,-66.87 -0.551,-34.5 -30.43,-75.51 -82.5,-76.76 -52.0702,-1.29 -91.3671,41.33 -90.1171,76.33 z m 145.3871,-0.12 c 2.23,31.72 -26.289,53.08 -58.508,53.44 -31.371,0.31 -59.4612,-25.98 -59.4612,-54.46 0,-30.54 36.5312,-47.15 60.0822,-47.26 28.668,-0.08 55.976,20.97 57.887,48.28 z m -10.309,113.4 c 0.629,26.72 -24.449,45.82 -50.309,45.08 -23.011,-0.71 -47.3512,-17.93 -47.3902,-40.28 0,-27.89 27.6992,-41.83 51.3712,-42.38 21.449,-0.47 45.859,17.42 46.328,37.58"
         inkscape:connector-curvature="0"
         id="path38"
         style="fill:#d40000;fill-opacity:1;fill-rule:nonzero;stroke:none" /><path
         d="m 1735,314.41 c -1.29,-35 -14.14,-48.16 -39.53,-66.48 20.23,-14.34 28.79,-35.469 27.03,-53.481 -4.14,-43.59 -38.48,-65.39 -75.86,-64.449 -37.42,0.98 -69.65,30.121 -72.15,61.801 -2.19,27.539 6.17,40.82 26.06,55.308 -23.64,19.532 -38.71,32.379 -38.17,66.871 0.59,34.5 30.47,75.508 82.54,76.801 52.07,1.25 91.37,-41.371 90.08,-76.371 z m -145.35,0.121 c -2.27,-31.679 26.29,-53.082 58.47,-53.402 31.41,-0.348 59.46,25.941 59.46,54.422 0,30.578 -36.49,47.179 -60.08,47.258 -28.67,0.121 -55.94,-20.969 -57.85,-48.278 z m 10.27,-113.402 c -0.62,-26.68 24.46,-45.82 50.31,-45.039 23.01,0.672 47.39,17.89 47.39,40.238 0.04,27.934 -27.7,41.832 -51.33,42.383 -21.45,0.469 -45.9,-17.383 -46.37,-37.582"
         inkscape:connector-curvature="0"
         id="path40"
         style="fill:#d40000;fill-opacity:1;fill-rule:nonzero;stroke:none" /></g></g></svg>