<?xml version="1.0" encoding="UTF-8" standalone="no"?>
<!-- Created with Inkscape (http://www.inkscape.org/) -->

<svg
   xmlns:dc="http://purl.org/dc/elements/1.1/"
   xmlns:cc="http://creativecommons.org/ns#"
   xmlns:rdf="http://www.w3.org/1999/02/22-rdf-syntax-ns#"
   xmlns:svg="http://www.w3.org/2000/svg"
   xmlns="http://www.w3.org/2000/svg"
   viewBox="0 0 223.75 313.75"
   height="313.75"
   width="223.75"
   xml:space="preserve"
   version="1.1"
   id="svg2"><metadata
     id="metadata8"><rdf:RDF><cc:Work
         rdf:about=""><dc:format>image/svg+xml</dc:format><dc:type
           rdf:resource="http://purl.org/dc/dcmitype/StillImage" /></cc:Work></rdf:RDF></metadata><defs
     id="defs6" /><g
     transform="matrix(1.25,0,0,-1.25,0,313.75)"
     id="g10"><g
       transform="scale(0.1,0.1)"
       id="g12"><path
         id="path14"
         style="fill:#ffffff;fill-opacity:1;fill-rule:nonzero;stroke:none"
         d="m 85.0391,2504.49 1615.7409,0 c 47.11,0 85.04,-37.93 85.04,-85.04 l 0,-2324.4109 C 1785.82,47.9297 1747.89,10 1700.78,10 L 85.0391,10 C 37.9297,10 0,47.9297 0,95.0391 L 0,2419.45 c 0,47.11 37.9297,85.04 85.0391,85.04" /><path
         id="path16"
         style="fill:none;stroke:#000000;stroke-width:7.97384024;stroke-linecap:butt;stroke-linejoin:miter;stroke-miterlimit:4;stroke-dasharray:none;stroke-opacity:1"
         d="m 85.0391,2504.49 1615.7409,0 c 47.11,0 85.04,-37.93 85.04,-85.04 l 0,-2324.4109 C 1785.82,47.9297 1747.89,10 1700.78,10 L 85.0391,10 C 37.9297,10 0,47.9297 0,95.0391 L 0,2419.45 c 0,47.11 37.9297,85.04 85.0391,85.04 z" /><path
         id="path18"
         style="fill:#d40000;fill-opacity:1;fill-rule:nonzero;stroke:none"
         d="m 54.7695,2204.1 c 1.25,35 14.1407,48.12 39.5313,66.44 -20.2422,14.38 -28.7891,35.51 -27.0703,53.52 4.1797,43.59 38.4685,65.39 75.8905,64.41 37.391,-0.93 69.649,-30.08 72.149,-61.76 2.191,-27.53 -6.168,-40.82 -26.051,-55.31 23.633,-19.53 38.711,-32.42 38.121,-66.87 -0.539,-34.49 -30.43,-75.55 -82.5,-76.8 -52.0705,-1.25 -91.3595,41.37 -90.0705,76.37 z m 145.3515,-0.12 c 2.258,31.68 -26.293,53.09 -58.48,53.4 -31.411,0.31 -59.4496,-25.98 -59.4496,-54.42 0,-30.58 36.4806,-47.18 60.0786,-47.26 28.628,-0.12 55.929,20.98 57.851,48.28 z m -10.281,113.36 c 0.629,26.72 -24.449,45.86 -50.309,45.08 -23.011,-0.67 -47.3826,-17.93 -47.3826,-40.24 -0.039,-27.93 27.6916,-41.87 51.3316,-42.38 21.442,-0.47 45.899,17.38 46.36,37.54" /><path
         id="path20"
         style="fill:#d40000;fill-opacity:1;fill-rule:nonzero;stroke:none"
         d="m 1731.09,310.391 c -1.29,-35 -14.18,-48.129 -39.57,-66.45 20.24,-14.371 28.79,-35.511 27.07,-53.511 -4.18,-43.559 -38.47,-65.391 -75.89,-64.418 -37.39,0.937 -69.61,30.117 -72.15,61.758 -2.19,27.539 6.17,40.82 26.05,55.308 -23.59,19.531 -38.71,32.422 -38.12,66.922 0.54,34.449 30.43,75.5 82.5,76.75 52.07,1.25 91.36,-41.32 90.11,-76.359 z M 1585.7,310.5 c -2.22,-31.68 26.29,-53.078 58.52,-53.391 31.37,-0.32 59.41,25.969 59.45,54.411 0,30.589 -36.52,47.191 -60.12,47.269 -28.63,0.109 -55.93,-20.98 -57.85,-48.289 z m 10.32,-113.359 c -0.63,-26.711 24.45,-45.852 50.31,-45.071 22.97,0.7 47.34,17.93 47.34,40.231 0.04,27.929 -27.69,41.879 -51.33,42.379 -21.44,0.511 -45.86,-17.379 -46.32,-37.539" /><path
         id="path22"
         style="fill:#d40000;fill-opacity:1;fill-rule:nonzero;stroke:none"
         d="m 76.6797,2001.21 c -12.6992,27.77 -14.0586,75.23 23.7893,81.68 28.48,3.67 40.082,-9.61 42.383,-29.96 1.128,-5.94 4.488,-6.29 5.507,0.46 1.68,20.9 22.34,33.09 38.481,30 44.18,-7.53 41.601,-56.21 27.219,-89.21 -21.829,-43.87 -44.797,-71.53 -66.008,-115.63 -24.34,45.94 -52.0705,83.24 -71.3713,122.66" /><path
         id="path24"
         style="fill:#d40000;fill-opacity:1;fill-rule:nonzero;stroke:none"
         d="m 356.449,2283.39 c 57.18,3.79 86.949,-45.03 92.813,-83.47 3.437,-6.13 5.347,-4.42 6.718,0.31 2.809,49.41 46.95,89.77 87.93,84.26 66.641,-0.86 107.11,-75 95.738,-137.78 -13.91,-76.64 -55.199,-122.81 -86.488,-170.35 -35.351,-49.18 -83.039,-120.31 -98.32,-154.49 0,0 -48.391,73.63 -111.36,160.24 -42.07,57.89 -75.75,120.62 -78.871,174.68 -3.589,61.72 21.68,117.03 91.84,126.6" /><path
         id="path26"
         style="fill:#d40000;fill-opacity:1;fill-rule:nonzero;stroke:none"
         d="m 1232.77,2283.39 c 57.11,3.79 86.96,-45.03 92.74,-83.47 3.51,-6.13 5.35,-4.42 6.72,0.31 2.77,49.41 46.95,89.77 87.89,84.26 66.64,-0.86 107.15,-75 95.78,-137.78 -13.95,-76.64 -55.2,-122.81 -86.49,-170.35 -35.35,-49.18 -82.96,-120.31 -98.32,-154.49 0,0 -48.39,73.63 -111.36,160.24 -42.07,57.89 -75.75,120.62 -78.87,174.68 -3.59,61.72 21.76,117.03 91.91,126.6" /><path
         id="path28"
         style="fill:#d40000;fill-opacity:1;fill-rule:nonzero;stroke:none"
         d="m 789.961,1882.42 c 57.109,3.79 86.949,-45.04 92.738,-83.52 3.512,-6.09 5.352,-4.37 6.711,0.35 2.82,49.38 46.961,89.77 87.93,84.22 66.64,-0.86 107.11,-75 95.75,-137.73 -13.91,-76.64 -55.2,-122.81 -86.488,-170.35 -35.352,-49.22 -82.973,-120.32 -98.321,-154.53 0,0 -48.402,73.63 -111.371,160.23 -42.07,57.89 -75.738,120.66 -78.859,174.69 -3.602,61.72 21.75,117.07 91.91,126.64" /><path
         id="path30"
         style="fill:#d40000;fill-opacity:1;fill-rule:nonzero;stroke:none"
         d="m 356.449,1481.4 c 57.18,3.79 86.949,-45.04 92.813,-83.47 3.437,-6.14 5.347,-4.42 6.718,0.31 2.809,49.41 46.95,89.76 87.93,84.26 66.641,-0.86 107.11,-75 95.738,-137.74 -13.91,-76.68 -55.199,-122.81 -86.488,-170.35 -35.351,-49.22 -83.039,-120.31 -98.32,-154.53 0,0 -48.391,73.63 -111.36,160.23 -42.07,57.89 -75.75,120.67 -78.871,174.69 -3.589,61.72 21.68,117.03 91.84,126.6" /><path
         id="path32"
         style="fill:#d40000;fill-opacity:1;fill-rule:nonzero;stroke:none"
         d="m 1232.77,1481.4 c 57.11,3.79 86.96,-45.04 92.74,-83.47 3.51,-6.14 5.35,-4.42 6.72,0.31 2.77,49.41 46.95,89.76 87.89,84.26 66.64,-0.86 107.15,-75 95.78,-137.74 -13.95,-76.68 -55.2,-122.81 -86.49,-170.35 -35.35,-49.22 -82.96,-120.31 -98.32,-154.53 0,0 -48.39,73.63 -111.36,160.23 -42.07,57.89 -75.75,120.67 -78.87,174.69 -3.59,61.72 21.76,117.03 91.91,126.6" /><path
         id="path34"
         style="fill:#d40000;fill-opacity:1;fill-rule:nonzero;stroke:none"
         d="m 1232.77,232.648 c 57.11,-3.789 86.96,45.043 92.74,83.524 3.51,6.09 5.35,4.367 6.72,-0.352 2.77,-49.379 46.95,-89.769 87.89,-84.218 66.64,0.859 107.15,75 95.78,137.726 -13.95,76.641 -55.2,122.813 -86.49,170.352 -35.35,49.218 -82.96,120.32 -98.32,154.531 0,0 -48.39,-73.633 -111.36,-160.231 -42.07,-57.929 -75.75,-120.66 -78.87,-174.691 -3.59,-61.719 21.76,-117.07 91.91,-126.641" /><path
         id="path36"
         style="fill:#d40000;fill-opacity:1;fill-rule:nonzero;stroke:none"
         d="m 789.961,627.07 c 57.109,-3.789 86.949,45.039 92.738,83.469 3.512,6.141 5.352,4.422 6.711,-0.309 2.82,-49.41 46.961,-89.769 87.93,-84.261 66.64,0.859 107.11,75 95.75,137.781 -13.91,76.641 -55.2,122.77 -86.488,170.309 -35.352,49.222 -82.973,120.311 -98.321,154.531 0,0 -48.402,-73.63 -111.371,-160.231 -42.07,-57.898 -75.738,-120.668 -78.859,-174.687 -3.602,-61.723 21.75,-117.031 91.91,-126.602" /><path
         id="path38"
         style="fill:#d40000;fill-opacity:1;fill-rule:nonzero;stroke:none"
         d="m 356.449,232.648 c 57.18,-3.789 86.949,45.043 92.813,83.524 3.437,6.09 5.347,4.367 6.718,-0.352 2.809,-49.379 46.95,-89.769 87.93,-84.218 66.641,0.859 107.11,75 95.738,137.726 -13.91,76.641 -55.199,122.813 -86.488,170.352 -35.351,49.218 -83.039,120.32 -98.32,154.531 0,0 -48.391,-73.633 -111.36,-160.231 -42.07,-57.929 -75.75,-120.66 -78.871,-174.691 -3.589,-61.719 21.68,-117.07 91.84,-126.641" /><path
         id="path40"
         style="fill:#d40000;fill-opacity:1;fill-rule:nonzero;stroke:none"
         d="m 1587.19,474.328 c -12.66,-27.769 -14.1,-75.226 23.75,-81.637 28.47,-3.671 40.08,9.571 42.38,29.918 1.13,5.942 4.49,6.332 5.63,-0.468 1.6,-20.852 22.22,-33.039 38.39,-30 44.22,7.578 41.68,56.218 27.19,89.257 -21.83,43.832 -44.8,71.493 -65.94,115.59 -24.29,-45.898 -52.07,-83.199 -71.4,-122.66" /></g></g></svg>