<?xml version="1.0" encoding="UTF-8" standalone="no"?>
<!-- Created with Inkscape (http://www.inkscape.org/) -->

<svg
   xmlns:dc="http://purl.org/dc/elements/1.1/"
   xmlns:cc="http://creativecommons.org/ns#"
   xmlns:rdf="http://www.w3.org/1999/02/22-rdf-syntax-ns#"
   xmlns:svg="http://www.w3.org/2000/svg"
   xmlns="http://www.w3.org/2000/svg"
   xmlns:inkscape="http://www.inkscape.org/namespaces/inkscape"
   version="1.1"
   width="225"
   height="315"
   id="svg2"
   xml:space="preserve"><metadata
     id="metadata8"><rdf:RDF><cc:Work
         rdf:about=""><dc:format>image/svg+xml</dc:format><dc:type
           rdf:resource="http://purl.org/dc/dcmitype/StillImage" /></cc:Work></rdf:RDF></metadata><defs
     id="defs6" /><g
     transform="matrix(1.25,0,0,-1.25,0,315)"
     id="g10"><g
       transform="scale(0.1,0.1)"
       id="g12"><path
         d="m 88.9805,2508.52 1615.7495,0 c 47.11,0 85.04,-37.93 85.04,-85.04 l 0,-2324.4214 c 0,-47.1094 -37.93,-85.0391 -85.04,-85.0391 l -1615.7495,0 c -47.1016,0 -85.03128,37.9297 -85.03128,85.0391 l 0,2324.4214 c 0,47.11 37.92968,85.04 85.03128,85.04"
         inkscape:connector-curvature="0"
         id="path14"
         style="fill:#ffffff;fill-opacity:1;fill-rule:nonzero;stroke:none" /><path
         d="m 88.9805,2508.52 1615.7495,0 c 47.11,0 85.04,-37.93 85.04,-85.04 l 0,-2324.4214 c 0,-47.1094 -37.93,-85.0391 -85.04,-85.0391 l -1615.7495,0 c -47.1016,0 -85.03128,37.9297 -85.03128,85.0391 l 0,2324.4214 c 0,47.11 37.92968,85.04 85.03128,85.04 z"
         inkscape:connector-curvature="0"
         id="path16"
         style="fill:none;stroke:#000000;stroke-width:7.9738698;stroke-linecap:butt;stroke-linejoin:miter;stroke-miterlimit:4;stroke-opacity:1;stroke-dasharray:none" /><path
         d="m 58.6719,2208.09 c 1.289,35 14.1797,48.16 39.5664,66.48 -20.2695,14.38 -28.7891,35.51 -27.0664,53.52 4.1797,43.55 38.4761,65.35 75.8981,64.41 37.379,-0.94 69.61,-30.12 72.149,-61.8 2.191,-27.54 -6.168,-40.78 -26.059,-55.31 23.602,-19.53 38.719,-32.38 38.129,-66.87 -0.551,-34.5 -30.43,-75.51 -82.5,-76.76 -52.0702,-1.29 -91.3671,41.33 -90.1171,76.33 z m 145.3871,-0.12 c 2.23,31.72 -26.289,53.08 -58.508,53.44 -31.371,0.31 -59.4612,-25.98 -59.4612,-54.46 0,-30.54 36.5312,-47.15 60.0822,-47.26 28.668,-0.08 55.976,20.97 57.887,48.28 z m -10.309,113.4 c 0.629,26.72 -24.449,45.82 -50.309,45.08 -23.011,-0.71 -47.3512,-17.93 -47.3902,-40.28 0,-27.89 27.6992,-41.83 51.3712,-42.38 21.449,-0.47 45.859,17.42 46.328,37.58"
         inkscape:connector-curvature="0"
         id="path18"
         style="fill:#000000;fill-opacity:1;fill-rule:nonzero;stroke:none" /><path
         d="m 1735,314.41 c -1.29,-35 -14.14,-48.16 -39.53,-66.48 20.23,-14.34 28.79,-35.469 27.03,-53.481 -4.14,-43.59 -38.48,-65.39 -75.86,-64.449 -37.42,0.98 -69.65,30.121 -72.15,61.801 -2.19,27.539 6.17,40.82 26.06,55.308 -23.64,19.532 -38.71,32.379 -38.17,66.871 0.59,34.5 30.47,75.508 82.54,76.801 52.07,1.25 91.37,-41.371 90.08,-76.371 z m -145.35,0.121 c -2.27,-31.679 26.29,-53.082 58.47,-53.402 31.41,-0.348 59.46,25.941 59.46,54.422 0,30.578 -36.49,47.179 -60.08,47.258 -28.67,0.121 -55.94,-20.969 -57.85,-48.278 z m 10.27,-113.402 c -0.62,-26.68 24.46,-45.82 50.31,-45.039 23.01,0.672 47.39,17.89 47.39,40.238 0.04,27.934 -27.7,41.832 -51.33,42.383 -21.45,0.469 -45.9,-17.383 -46.37,-37.582"
         inkscape:connector-curvature="0"
         id="path20"
         style="fill:#000000;fill-opacity:1;fill-rule:nonzero;stroke:none" /><path
         d="m 423.672,1965.82 c 0.156,16.21 -12.692,16.52 -12.543,4.69 -1.051,-59.42 -51.328,-88.67 -87.848,-81.76 -56.293,10.7 -74.261,66.6 -73.711,99.49 1.68,101.56 103.91,176.49 196.168,306.68 67.621,-117.54 179.184,-209.84 185.782,-300.7 8.789,-120.78 -144.059,-165.82 -165.899,-25.04 -1.402,9.92 -13.121,14.41 -12.18,0.51 3.278,-38.56 -1.41,-54.65 42.11,-149.77 l -113.789,0 c 25.187,44.46 40.226,99.03 41.91,145.9"
         inkscape:connector-curvature="0"
         id="path22"
         style="fill:#000000;fill-opacity:1;fill-rule:nonzero;stroke:none" /><path
         d="m 1315.94,1965.82 c 0.11,16.21 -12.7,16.52 -12.54,4.69 -1.06,-59.42 -51.33,-88.67 -87.85,-81.76 -56.29,10.7 -74.26,66.6 -73.71,99.49 1.68,101.56 103.9,176.49 196.17,306.68 67.58,-117.54 179.18,-209.84 185.78,-300.7 8.79,-120.78 -144.06,-165.82 -165.9,-25.04 -1.41,9.92 -13.12,14.41 -12.23,0.51 3.32,-38.56 -1.36,-54.65 42.15,-149.77 l -113.79,0 c 25.2,44.46 40.2,99.03 41.92,145.9"
         inkscape:connector-curvature="0"
         id="path24"
         style="fill:#000000;fill-opacity:1;fill-rule:nonzero;stroke:none" /><path
         d="m 873.16,1564.84 c 0.121,16.21 -12.691,16.49 -12.539,4.69 -1.09,-59.45 -51.359,-88.71 -87.851,-81.76 -56.29,10.71 -74.25,66.57 -73.711,99.5 1.64,101.56 103.871,176.44 196.14,306.68 67.61,-117.54 179.181,-209.85 185.781,-300.71 8.79,-120.78 -144.07,-165.82 -165.902,-25.08 -1.406,9.96 -13.09,14.42 -12.187,0.55 3.32,-38.59 -1.411,-54.65 42.109,-149.76 l -113.75,0 c 25.199,44.45 40.199,98.98 41.91,145.89"
         inkscape:connector-curvature="0"
         id="path26"
         style="fill:#000000;fill-opacity:1;fill-rule:nonzero;stroke:none" /><path
         d="m 423.672,1163.83 c 0.156,16.21 -12.692,16.52 -12.543,4.69 -1.051,-59.42 -51.328,-88.68 -87.848,-81.76 -56.293,10.7 -74.261,66.6 -73.711,99.49 1.68,101.56 103.91,176.48 196.168,306.68 67.621,-117.54 179.184,-209.84 185.782,-300.66 8.789,-120.82 -144.059,-165.86 -165.899,-25.08 -1.402,9.96 -13.121,14.41 -12.18,0.51 3.278,-38.56 -1.41,-54.65 42.11,-149.73 l -113.789,0 c 25.187,44.41 40.226,98.98 41.91,145.86"
         inkscape:connector-curvature="0"
         id="path28"
         style="fill:#000000;fill-opacity:1;fill-rule:nonzero;stroke:none" /><path
         d="m 1315.94,1163.83 c 0.11,16.21 -12.7,16.52 -12.54,4.69 -1.06,-59.42 -51.33,-88.68 -87.85,-81.76 -56.29,10.7 -74.26,66.6 -73.71,99.49 1.68,101.56 103.9,176.48 196.17,306.68 67.58,-117.54 179.18,-209.84 185.78,-300.66 8.79,-120.82 -144.06,-165.86 -165.9,-25.08 -1.41,9.96 -13.12,14.41 -12.23,0.51 3.32,-38.56 -1.36,-54.65 42.15,-149.73 l -113.79,0 c 25.2,44.41 40.2,98.98 41.92,145.86"
         inkscape:connector-curvature="0"
         id="path30"
         style="fill:#000000;fill-opacity:1;fill-rule:nonzero;stroke:none" /><path
         d="m 1316.05,558.051 c 0.12,-16.211 -12.69,-16.531 -12.57,-4.692 -1.06,59.45 -51.33,88.711 -87.82,81.762 -56.28,-10.711 -74.25,-66.57 -73.75,-99.5 1.68,-101.562 103.91,-176.441 196.18,-306.672 67.61,117.531 179.18,209.84 185.78,300.699 8.79,120.782 -144.07,165.821 -165.9,25.043 -1.41,-9.921 -13.13,-14.382 -12.19,-0.511 3.32,38.59 -1.4,54.648 42.11,149.769 l -113.79,0 c 25.24,-44.461 40.24,-98.988 41.95,-145.898"
         inkscape:connector-curvature="0"
         id="path32"
         style="fill:#000000;fill-opacity:1;fill-rule:nonzero;stroke:none" /><path
         d="m 873.238,952.461 c 0.121,-16.211 -12.687,-16.52 -12.539,-4.691 -1.09,59.42 -51.32,88.68 -87.847,81.76 -56.293,-10.7 -74.262,-66.6 -73.711,-99.491 1.64,-101.559 103.91,-176.488 196.129,-306.68 67.621,117.539 179.18,209.84 185.82,300.661 8.75,120.78 -144.102,165.86 -165.891,25.082 -1.41,-9.961 -13.129,-14.411 -12.23,-0.512 3.32,38.558 -1.41,54.65 42.109,149.73 l -113.75,0 c 25.192,-44.41 40.192,-98.98 41.91,-145.859"
         inkscape:connector-curvature="0"
         id="path34"
         style="fill:#000000;fill-opacity:1;fill-rule:nonzero;stroke:none" /><path
         d="m 423.789,558.051 c 0.121,-16.211 -12.699,-16.531 -12.578,-4.692 -1.051,59.45 -51.332,88.711 -87.813,81.762 -56.289,-10.711 -74.257,-66.57 -73.75,-99.5 1.68,-101.562 103.903,-176.441 196.172,-306.672 67.621,117.531 179.18,209.84 185.782,300.699 8.789,120.782 -144.063,165.821 -165.903,25.043 -1.398,-9.921 -13.121,-14.382 -12.179,-0.511 3.32,38.59 -1.411,54.648 42.101,149.769 l -113.742,0 c 25.191,-44.461 40.191,-98.988 41.91,-145.898"
         inkscape:connector-curvature="0"
         id="path36"
         style="fill:#000000;fill-opacity:1;fill-rule:nonzero;stroke:none" /><path
         d="m 146.559,1932.77 c 0.082,6.96 -7.18,3.71 -8.161,1.53 -9.296,-15.9 -22.886,-19.57 -36.367,-13.87 -13.3591,5.66 -20.8591,18.24 -19.6521,36.17 2.5,27.5 24.3011,57.62 34.8511,74.61 10.04,15.47 21.008,33.79 32.61,57.27 13.601,-26.92 20.469,-34.57 35.238,-59.14 13.012,-21.64 31.133,-42.86 32.543,-68.99 0,-19.88 -8.359,-38.67 -27.191,-42.07 -10.66,-1.95 -20.629,3.52 -28.008,16.29 -2.262,3.24 -6.801,1.56 -6.723,-2.89 1.289,-16.76 7.621,-31.88 22.621,-49.69 l -55.082,0 c 11.25,12.58 22.782,29.61 23.321,50.78"
         inkscape:connector-curvature="0"
         id="path38"
         style="fill:#000000;fill-opacity:1;fill-rule:nonzero;stroke:none" /><path
         d="m 1657.07,550.82 c 0.08,-6.992 -7.15,-3.75 -8.12,-1.519 -9.34,15.859 -22.93,19.57 -36.41,13.82 -13.32,-5.66 -20.82,-18.242 -19.61,-36.172 2.46,-27.5 24.26,-57.57 34.84,-74.609 10,-15.43 21.02,-33.789 32.58,-57.219 13.6,26.91 20.47,34.57 35.27,59.141 13.01,21.636 31.14,42.808 32.54,68.976 0,19.883 -8.39,38.641 -27.22,42.071 -10.63,1.921 -20.63,-3.547 -28.01,-16.289 -2.27,-3.282 -6.8,-1.559 -6.72,2.89 1.33,16.719 7.66,31.879 22.62,49.692 l -55.08,0 c 11.29,-12.622 22.77,-29.653 23.32,-50.782"
         inkscape:connector-curvature="0"
         id="path40"
         style="fill:#000000;fill-opacity:1;fill-rule:nonzero;stroke:none" /></g></g></svg>