<?xml version="1.0" encoding="UTF-8" standalone="no"?>
<!-- Created with Inkscape (http://www.inkscape.org/) -->

<svg
   xmlns:dc="http://purl.org/dc/elements/1.1/"
   xmlns:cc="http://creativecommons.org/ns#"
   xmlns:rdf="http://www.w3.org/1999/02/22-rdf-syntax-ns#"
   xmlns:svg="http://www.w3.org/2000/svg"
   xmlns="http://www.w3.org/2000/svg"
   xmlns:inkscape="http://www.inkscape.org/namespaces/inkscape"
   version="1.1"
   width="225"
   height="315"
   id="svg2"
   xml:space="preserve"><metadata
     id="metadata8"><rdf:RDF><cc:Work
         rdf:about=""><dc:format>image/svg+xml</dc:format><dc:type
           rdf:resource="http://purl.org/dc/dcmitype/StillImage" /></cc:Work></rdf:RDF></metadata><defs
     id="defs6" /><g
     transform="matrix(1.25,0,0,-1.25,0,315)"
     id="g10"><g
       transform="scale(0.1,0.1)"
       id="g12"><path
         d="m 89.0586,2508.52 1615.7414,0 c 47.11,0 85.04,-37.93 85.04,-85.04 l 0,-2324.4214 c 0,-47.1094 -37.93,-85.0391 -85.04,-85.0391 l -1615.7414,0 c -47.1094,0 -85.03907,37.9297 -85.03907,85.0391 l 0,2324.4214 c 0,47.11 37.92967,85.04 85.03907,85.04"
         inkscape:connector-curvature="0"
         id="path14"
         style="fill:#ffffff;fill-opacity:1;fill-rule:nonzero;stroke:none" /><path
         d="m 89.0586,2508.52 1615.7414,0 c 47.11,0 85.04,-37.93 85.04,-85.04 l 0,-2324.4214 c 0,-47.1094 -37.93,-85.0391 -85.04,-85.0391 l -1615.7414,0 c -47.1094,0 -85.03907,37.9297 -85.03907,85.0391 l 0,2324.4214 c 0,47.11 37.92967,85.04 85.03907,85.04 z"
         inkscape:connector-curvature="0"
         id="path16"
         style="fill:none;stroke:#000000;stroke-width:7.9738698;stroke-linecap:butt;stroke-linejoin:miter;stroke-miterlimit:4;stroke-opacity:1;stroke-dasharray:none" /><path
         d="m 69.8008,2193.71 24.2187,7.54 c 9.1405,-23.98 27.6215,-31.05 47.1525,-29.53 35.039,2.73 46.68,41.17 49.34,75.19 -13.672,-14.18 -34.223,-21.4 -51.684,-20.7 -55.8592,2.97 -70.1561,46.84 -70.7069,92.81 -1.5195,38.79 14.8086,66.84 42.8199,79.73 14.797,6.52 48.75,6.52 63.668,-1.21 34.262,-17.74 46.911,-48.4 44.61,-121.52 0.043,-60.2 -12.969,-130.32 -78.668,-131.8 -38.012,-5.16 -66.8401,23.83 -70.7502,49.49 z m 95.1212,65.94 c 11.406,7.07 17.808,13.71 22.93,23.71 4.218,8.16 5.628,12.42 4.418,29.34 -3.051,43.67 -26.372,68.39 -60.2,63.47 -18.832,-2.73 -29.14,-13.12 -35.0388,-32.38 -10.9414,-35.59 2.9297,-77.27 28.8668,-86.88 11.68,-4.29 29.723,-3.04 39.024,2.74"
         inkscape:connector-curvature="0"
         id="path18"
         style="fill:#000000;fill-opacity:1;fill-rule:nonzero;stroke:none" /><path
         d="m 1718.12,328.828 -24.21,-7.539 c -9.14,23.941 -27.62,31.012 -47.15,29.492 -35.04,-2.691 -46.68,-41.172 -49.3,-75.191 13.63,14.211 34.18,21.398 51.64,20.699 55.86,-2.93 70.16,-46.84 70.7,-92.809 1.57,-38.75 -14.8,-66.839 -42.81,-79.691 -14.8,-6.519 -48.75,-6.519 -63.67,1.172 -34.26,17.738 -46.91,48.398 -44.61,121.519 -0.04,60.2 12.97,130.321 78.67,131.801 38.01,5.16 66.84,-23.832 70.74,-49.453 z m -95.11,-65.976 c -11.41,-7.071 -17.81,-13.711 -22.93,-23.672 -4.22,-8.2 -5.63,-12.418 -4.42,-29.379 3.09,-43.629 26.37,-68.391 60.2,-63.473 18.83,2.731 29.14,13.121 35.04,32.383 10.94,35.59 -2.93,77.269 -28.87,86.879 -11.68,4.332 -29.69,3.082 -39.02,-2.738"
         inkscape:connector-curvature="0"
         id="path20"
         style="fill:#000000;fill-opacity:1;fill-rule:nonzero;stroke:none" /><path
         d="m 1244.3,1297.93 c 23,46.17 39.8,93.59 42.77,144.3 2.73,18.63 -8.59,18.94 -10.31,5.82 -32.62,-124.77 -206.1,-90.98 -200.12,26.36 4.84,95.16 99.34,115.63 148.63,84.54 19.5,-11.49 18.4,-4.61 7.78,7.26 -73.25,81.72 -28.91,186.91 70.07,188.83 107.04,-6.33 134.81,-118.95 69.15,-185.2 -8.17,-7.93 -26.25,-33.51 0.97,-15.62 66.29,47.11 158.32,-3.56 156.45,-76.17 -3.48,-133.91 -166.72,-143.91 -201.64,-32.07 -3.36,12.42 -13.05,18.63 -10.35,-2.43 4.84,-38.12 14.84,-95.62 43.47,-145.62"
         inkscape:connector-curvature="0"
         id="path22"
         style="fill:#000000;fill-opacity:1;fill-rule:nonzero;stroke:none" /><path
         d="m 837.73,1080.7 c 23.008,46.21 39.809,93.6 42.782,144.3 2.726,18.63 -8.602,18.95 -10.313,5.82 -32.621,-124.73 -206.097,-90.98 -200.121,26.37 4.844,95.15 99.332,115.62 148.633,84.53 19.488,-11.49 18.398,-4.61 7.769,7.26 -73.242,81.72 -28.902,186.92 70.079,188.83 107.031,-6.33 134.811,-118.94 69.14,-185.19 -8.16,-7.93 -26.25,-33.52 0.981,-15.63 66.33,47.11 158.32,-3.55 156.44,-76.17 -3.47,-133.91 -166.71,-143.91 -201.64,-32.03 -3.359,12.38 -13,18.59 -10.351,-2.46 4.851,-38.13 14.851,-95.63 43.519,-145.63"
         inkscape:connector-curvature="0"
         id="path24"
         style="fill:#000000;fill-opacity:1;fill-rule:nonzero;stroke:none" /><path
         d="m 432.031,1297.93 c 23.008,46.17 39.809,93.59 42.77,144.3 2.738,18.63 -8.59,18.94 -10.313,5.82 -32.609,-124.77 -206.09,-90.98 -200.109,26.36 4.84,95.16 99.332,115.63 148.633,84.54 19.488,-11.49 18.398,-4.61 7.769,7.26 -73.242,81.72 -28.902,186.91 70.078,188.83 107.032,-6.33 134.801,-118.95 69.141,-185.2 -8.16,-7.93 -26.25,-33.51 0.98,-15.62 66.321,47.11 158.321,-3.56 156.442,-76.17 -3.473,-133.91 -166.723,-143.91 -201.641,-32.07 -3.359,12.42 -13.011,18.63 -10.351,-2.43 4.84,-38.12 14.84,-95.62 43.519,-145.62"
         inkscape:connector-curvature="0"
         id="path26"
         style="fill:#000000;fill-opacity:1;fill-rule:nonzero;stroke:none" /><path
         d="m 1244.3,1820.55 c 23,46.21 39.8,93.63 42.77,144.29 2.73,18.68 -8.59,18.99 -10.31,5.86 -32.62,-124.76 -206.1,-90.97 -200.12,26.37 4.84,95.16 99.34,115.63 148.63,84.49 19.5,-11.44 18.4,-4.57 7.78,7.31 -73.25,81.68 -28.91,186.87 70.07,188.83 107.04,-6.37 134.81,-118.99 69.15,-185.2 -8.17,-7.97 -26.25,-33.52 0.97,-15.66 66.29,47.11 158.32,-3.52 156.45,-76.14 -3.48,-133.94 -166.72,-143.9 -201.64,-32.07 -3.36,12.42 -13.05,18.64 -10.35,-2.42 4.84,-38.12 14.84,-95.62 43.47,-145.66"
         inkscape:connector-curvature="0"
         id="path28"
         style="fill:#000000;fill-opacity:1;fill-rule:nonzero;stroke:none" /><path
         d="m 432.031,1820.55 c 23.008,46.21 39.809,93.63 42.77,144.29 2.738,18.68 -8.59,18.99 -10.313,5.86 -32.609,-124.76 -206.09,-90.97 -200.109,26.37 4.84,95.16 99.332,115.63 148.633,84.49 19.488,-11.44 18.398,-4.57 7.769,7.31 -73.242,81.68 -28.902,186.87 70.078,188.83 107.032,-6.37 134.801,-118.99 69.141,-185.2 -8.16,-7.97 -26.25,-33.52 0.98,-15.66 66.321,47.11 158.321,-3.52 156.442,-76.14 -3.473,-133.94 -166.723,-143.9 -201.641,-32.07 -3.359,12.42 -13.011,18.64 -10.351,-2.42 4.84,-38.12 14.84,-95.62 43.519,-145.66"
         inkscape:connector-curvature="0"
         id="path30"
         style="fill:#000000;fill-opacity:1;fill-rule:nonzero;stroke:none" /><path
         d="M 549.648,699.02 C 526.602,652.809 509.84,605.43 506.84,554.73 c -2.738,-18.679 8.629,-18.992 10.308,-5.82 32.622,124.719 206.09,90.93 200.153,-26.371 -4.84,-95.16 -99.371,-115.66 -148.672,-84.527 -19.449,11.437 -18.359,4.609 -7.731,-7.313 73.243,-81.679 28.872,-186.871 -70.078,-188.789 -107.07,6.328 -134.84,118.949 -69.179,185.16 8.16,7.969 26.289,33.551 -0.981,15.66 -66.281,-47.109 -158.281,3.559 -156.398,76.18 3.437,133.899 166.679,143.899 201.597,32.031 3.36,-12.39 13.051,-18.64 10.352,2.418 -4.801,38.161 -14.84,95.661 -43.481,145.661"
         inkscape:connector-curvature="0"
         id="path32"
         style="fill:#000000;fill-opacity:1;fill-rule:nonzero;stroke:none" /><path
         d="m 1361.91,699.02 c -23.04,-46.211 -39.8,-93.59 -42.81,-144.29 -2.73,-18.679 8.6,-18.992 10.31,-5.82 32.62,124.719 206.1,90.93 200.16,-26.371 -4.84,-95.16 -99.37,-115.66 -148.67,-84.527 -19.45,11.437 -18.36,4.609 -7.74,-7.313 73.25,-81.679 28.87,-186.871 -70.11,-188.789 -107.03,6.328 -134.81,118.949 -69.14,185.16 8.16,7.969 26.29,33.551 -0.98,15.66 -66.29,-47.109 -158.28,3.559 -156.41,76.18 3.44,133.899 166.68,143.899 201.6,32.031 3.36,-12.39 13.05,-18.64 10.36,2.418 -4.81,38.161 -14.85,95.661 -43.48,145.661"
         inkscape:connector-curvature="0"
         id="path34"
         style="fill:#000000;fill-opacity:1;fill-rule:nonzero;stroke:none" /><path
         d="m 1361.91,1219.88 c -23.04,-46.21 -39.8,-93.63 -42.81,-144.29 -2.73,-18.68 8.6,-18.99 10.31,-5.86 32.62,124.76 206.1,90.97 200.16,-26.37 -4.84,-95.161 -99.37,-115.63 -148.67,-84.489 -19.45,11.438 -18.36,4.57 -7.74,-7.312 73.25,-81.68 28.87,-186.911 -70.11,-188.829 -107.03,6.372 -134.81,118.95 -69.14,185.2 8.16,7.968 26.29,33.519 -0.98,15.66 -66.29,-47.11 -158.28,3.519 -156.41,76.14 3.44,133.9 166.68,143.9 201.6,32.07 3.36,-12.42 13.05,-18.64 10.36,2.42 -4.81,38.12 -14.85,95.62 -43.48,145.66"
         inkscape:connector-curvature="0"
         id="path36"
         style="fill:#000000;fill-opacity:1;fill-rule:nonzero;stroke:none" /><path
         d="m 549.648,1219.88 c -23.046,-46.21 -39.808,-93.63 -42.808,-144.29 -2.738,-18.68 8.629,-18.99 10.308,-5.86 32.622,124.76 206.09,90.97 200.153,-26.37 -4.84,-95.161 -99.371,-115.63 -148.672,-84.489 -19.449,11.438 -18.359,4.57 -7.731,-7.312 73.243,-81.68 28.872,-186.911 -70.078,-188.829 -107.07,6.372 -134.84,118.95 -69.179,185.2 8.16,7.968 26.289,33.519 -0.981,15.66 -66.281,-47.11 -158.281,3.519 -156.398,76.14 3.437,133.9 166.679,143.9 201.597,32.07 3.36,-12.42 13.051,-18.64 10.352,2.42 -4.801,38.12 -14.84,95.62 -43.481,145.66"
         inkscape:connector-curvature="0"
         id="path38"
         style="fill:#000000;fill-opacity:1;fill-rule:nonzero;stroke:none" /><path
         d="m 109.301,1926.48 c 9.527,19.57 18.82,37.78 23.859,59.22 3.36,20.2 -3.469,12.7 -7.379,-0.54 -5.781,-18.4 -21.801,-26.76 -36.6404,-26.96 -26.9492,-0.39 -40.4297,20.82 -39.5703,43.64 -2.9687,23.98 21.3711,40.93 39.6914,39.64 13.7893,-0.97 25.7773,-8.43 33.0393,-14.21 4.769,-2.5 9.89,-3.64 2.777,2.89 -13.437,14.64 -24.609,23.71 -24.379,45.66 0.242,20.63 17.852,42.15 41.25,41.48 29.223,-0.85 42.5,-23.12 42.43,-43.86 -0.078,-15.08 -7.617,-28.99 -19.301,-37.62 -7.539,-6.13 -5.43,-10.7 3.203,-4.92 8.278,7.15 18.129,10.27 28.36,10.51 27.89,0.43 38.828,-23.71 37.23,-46.14 -1.492,-20.97 -19.383,-42.61 -42.973,-40.15 -21.019,2.38 -32.109,20.08 -38.437,38.2 -2.07,5.55 -5.391,7.07 -5.313,-1.21 4.883,-40.47 19.922,-65.66 20.043,-65.63"
         inkscape:connector-curvature="0"
         id="path40"
         style="fill:#000000;fill-opacity:1;fill-rule:nonzero;stroke:none" /><path
         d="m 1684.53,609.102 c -9.53,-19.571 -18.79,-37.774 -23.87,-59.223 -3.36,-20.188 3.52,-12.688 7.43,0.551 5.74,18.398 21.75,26.761 36.64,26.949 26.95,0.351 40.39,-20.82 39.57,-43.629 2.93,-23.98 -21.37,-40.941 -39.69,-39.648 -13.79,0.976 -25.82,8.437 -33.09,14.218 -4.76,2.5 -9.84,3.629 -2.73,-2.89 13.4,-14.649 24.61,-23.711 24.37,-45.66 -0.23,-20.668 -17.89,-42.149 -41.25,-41.489 -29.21,0.86 -42.5,23.129 -42.42,43.828 0.08,15.121 7.62,29.02 19.26,37.621 7.58,6.129 5.47,10.739 -3.16,4.918 -8.29,-7.109 -18.13,-10.238 -28.36,-10.468 -27.93,-0.43 -38.83,23.711 -37.23,46.129 1.48,20.98 19.38,42.621 42.93,40.16 21.05,-2.418 32.11,-20.078 38.44,-38.199 2.11,-5.551 5.43,-7.071 5.31,1.21 -4.84,40.469 -19.92,65.661 -20.04,65.622"
         inkscape:connector-curvature="0"
         id="path42"
         style="fill:#000000;fill-opacity:1;fill-rule:nonzero;stroke:none" /></g></g></svg>