<?xml version="1.0" encoding="UTF-8" standalone="no"?>
<!-- Created with Inkscape (http://www.inkscape.org/) -->

<svg
   xmlns:dc="http://purl.org/dc/elements/1.1/"
   xmlns:cc="http://creativecommons.org/ns#"
   xmlns:rdf="http://www.w3.org/1999/02/22-rdf-syntax-ns#"
   xmlns:svg="http://www.w3.org/2000/svg"
   xmlns="http://www.w3.org/2000/svg"
   xmlns:inkscape="http://www.inkscape.org/namespaces/inkscape"
   version="1.1"
   width="225"
   height="315"
   id="svg2"
   xml:space="preserve"><metadata
     id="metadata8"><rdf:RDF><cc:Work
         rdf:about=""><dc:format>image/svg+xml</dc:format><dc:type
           rdf:resource="http://purl.org/dc/dcmitype/StillImage" /></cc:Work></rdf:RDF></metadata><defs
     id="defs6" /><g
     transform="matrix(1.25,0,0,-1.25,0,315)"
     id="g10"><g
       transform="scale(0.1,0.1)"
       id="g12"><path
         d="m 89.0586,2508.52 1615.7414,0 c 47.11,0 85.04,-37.93 85.04,-85.04 l 0,-2324.4214 c 0,-47.1094 -37.93,-85.0391 -85.04,-85.0391 l -1615.7414,0 c -47.1094,0 -85.03907,37.9297 -85.03907,85.0391 l 0,2324.4214 c 0,47.11 37.92967,85.04 85.03907,85.04"
         inkscape:connector-curvature="0"
         id="path14"
         style="fill:#ffffff;fill-opacity:1;fill-rule:nonzero;stroke:none" /><path
         d="m 89.0586,2508.52 1615.7414,0 c 47.11,0 85.04,-37.93 85.04,-85.04 l 0,-2324.4214 c 0,-47.1094 -37.93,-85.0391 -85.04,-85.0391 l -1615.7414,0 c -47.1094,0 -85.03907,37.9297 -85.03907,85.0391 l 0,2324.4214 c 0,47.11 37.92967,85.04 85.03907,85.04 z"
         inkscape:connector-curvature="0"
         id="path16"
         style="fill:none;stroke:#000000;stroke-width:7.9738698;stroke-linecap:butt;stroke-linejoin:miter;stroke-miterlimit:4;stroke-opacity:1;stroke-dasharray:none" /><path
         d="m 265.43,2047.23 c 79.34,77.46 131.48,161.91 181.332,243.12 43.707,-89.37 106.437,-167.54 174.289,-243.12 -72.61,-74.93 -128.86,-155.08 -174.102,-239.34 -50.109,86.37 -102.929,164.57 -181.519,239.34"
         inkscape:connector-curvature="0"
         id="path18"
         style="fill:#d40000;fill-opacity:1;fill-rule:nonzero;stroke:none" /><path
         d="m 265.43,1524.61 c 79.34,77.42 131.48,161.87 181.332,243.09 43.707,-89.34 106.437,-167.54 174.289,-243.09 -72.61,-74.96 -128.86,-155.12 -174.102,-239.38 -50.109,86.37 -102.929,164.61 -181.519,239.38"
         inkscape:connector-curvature="0"
         id="path20"
         style="fill:#d40000;fill-opacity:1;fill-rule:nonzero;stroke:none" /><path
         d="m 265.43,989.41 c 79.34,77.47 131.48,161.92 181.332,243.13 C 490.469,1143.16 553.199,1065 621.051,989.41 548.441,914.449 492.191,834.34 446.949,750.078 396.84,836.449 344.02,914.648 265.43,989.41"
         inkscape:connector-curvature="0"
         id="path22"
         style="fill:#d40000;fill-opacity:1;fill-rule:nonzero;stroke:none" /><path
         d="M 265.43,468.59 C 344.77,546.02 396.91,630.469 446.762,711.68 490.469,622.34 553.199,544.141 621.051,468.59 548.441,393.629 492.191,313.48 446.949,229.219 396.84,315.59 344.02,393.789 265.43,468.59"
         inkscape:connector-curvature="0"
         id="path24"
         style="fill:#d40000;fill-opacity:1;fill-rule:nonzero;stroke:none" /><path
         d="m 716.949,1259.49 c 79.379,77.46 131.492,161.92 181.371,243.13 43.711,-89.38 106.45,-167.54 174.26,-243.13 -72.58,-74.96 -128.83,-155.08 -174.06,-239.33 -50.161,86.36 -102.93,164.57 -181.571,239.33"
         inkscape:connector-curvature="0"
         id="path26"
         style="fill:#d40000;fill-opacity:1;fill-rule:nonzero;stroke:none" /><path
         d="m 1157.66,2047.23 c 79.37,77.46 131.52,161.91 181.36,243.12 43.71,-89.37 106.45,-167.54 174.26,-243.12 -72.58,-74.93 -128.83,-155.08 -174.06,-239.34 -50.12,86.37 -102.93,164.57 -181.56,239.34"
         inkscape:connector-curvature="0"
         id="path28"
         style="fill:#d40000;fill-opacity:1;fill-rule:nonzero;stroke:none" /><path
         d="m 1157.66,1524.61 c 79.37,77.42 131.52,161.87 181.36,243.09 43.71,-89.34 106.45,-167.54 174.26,-243.09 -72.58,-74.96 -128.83,-155.12 -174.06,-239.38 -50.12,86.37 -102.93,164.61 -181.56,239.38"
         inkscape:connector-curvature="0"
         id="path30"
         style="fill:#d40000;fill-opacity:1;fill-rule:nonzero;stroke:none" /><path
         d="m 1157.66,989.41 c 79.37,77.47 131.52,161.92 181.36,243.13 43.71,-89.38 106.45,-167.54 174.26,-243.13 -72.58,-74.961 -128.83,-155.07 -174.06,-239.332 -50.12,86.371 -102.93,164.57 -181.56,239.332"
         inkscape:connector-curvature="0"
         id="path32"
         style="fill:#d40000;fill-opacity:1;fill-rule:nonzero;stroke:none" /><path
         d="m 1157.66,468.59 c 79.37,77.43 131.52,161.879 181.36,243.09 43.71,-89.34 106.45,-167.539 174.26,-243.09 -72.58,-74.961 -128.83,-155.11 -174.06,-239.371 -50.12,86.371 -102.93,164.57 -181.56,239.371"
         inkscape:connector-curvature="0"
         id="path34"
         style="fill:#d40000;fill-opacity:1;fill-rule:nonzero;stroke:none" /><path
         d="m 1579.73,534.262 c 32.54,31.718 53.86,66.328 74.29,99.609 17.89,-36.601 43.6,-68.641 71.41,-99.609 -29.73,-30.711 -52.77,-63.524 -71.33,-98.051 -20.55,35.391 -42.15,67.418 -74.37,98.051"
         inkscape:connector-curvature="0"
         id="path36"
         style="fill:#d40000;fill-opacity:1;fill-rule:nonzero;stroke:none" /><path
         d="m 69.2188,2021.13 c 32.5002,31.72 53.8712,66.33 74.3012,99.57 17.89,-36.6 43.589,-68.63 71.359,-99.57 -29.719,-30.7 -52.77,-63.55 -71.289,-98.04 -20.539,35.39 -42.141,67.42 -74.3712,98.04"
         inkscape:connector-curvature="0"
         id="path38"
         style="fill:#d40000;fill-opacity:1;fill-rule:nonzero;stroke:none" /><path
         d="m 70.2305,2193.71 24.1797,7.54 c 9.1408,-23.98 27.6208,-31.05 47.1488,-29.53 35.043,2.73 46.679,41.17 49.339,75.19 -13.668,-14.18 -34.218,-21.4 -51.679,-20.7 -55.8596,2.97 -70.1604,46.84 -70.6995,92.81 -1.5312,38.79 14.8008,66.84 42.8085,79.73 14.801,6.52 48.75,6.52 63.672,-1.21 34.262,-17.74 46.91,-48.4 44.609,-121.52 0.039,-60.2 -12.968,-130.32 -78.668,-131.8 -38.011,-5.16 -66.8394,23.83 -70.7105,49.49 z m 95.0785,65.94 c 11.41,7.07 17.851,13.71 22.929,23.71 4.223,8.16 5.633,12.42 4.422,29.34 -3.051,43.67 -26.371,68.39 -60.199,63.47 -18.832,-2.73 -29.141,-13.12 -35.0391,-32.38 -10.9414,-35.59 2.9301,-77.27 28.8671,-86.88 11.68,-4.29 29.731,-3.04 39.02,2.74"
         inkscape:connector-curvature="0"
         id="path40"
         style="fill:#d40000;fill-opacity:1;fill-rule:nonzero;stroke:none" /><path
         d="m 1718.52,328.828 -24.22,-7.539 c -9.14,23.941 -27.62,31.012 -47.15,29.492 -35.04,-2.691 -46.68,-41.172 -49.3,-75.191 13.63,14.211 34.18,21.398 51.68,20.699 55.86,-2.93 70.16,-46.84 70.67,-92.809 1.56,-38.75 -14.81,-66.839 -42.78,-79.691 -14.84,-6.519 -48.79,-6.519 -63.71,1.172 -34.26,17.738 -46.91,48.398 -44.61,121.519 -0.04,60.2 12.97,130.321 78.67,131.801 38.01,5.16 66.84,-23.832 70.75,-49.453 z m -95.12,-65.976 c -11.41,-7.071 -17.81,-13.711 -22.93,-23.672 -4.18,-8.2 -5.63,-12.418 -4.42,-29.379 3.09,-43.629 26.41,-68.391 60.2,-63.473 18.83,2.731 29.14,13.121 35.04,32.383 10.94,35.59 -2.89,77.269 -28.87,86.879 -11.68,4.332 -29.69,3.082 -39.02,-2.738"
         inkscape:connector-curvature="0"
         id="path42"
         style="fill:#d40000;fill-opacity:1;fill-rule:nonzero;stroke:none" /></g></g></svg>