<?xml version="1.0" encoding="UTF-8" standalone="no"?>
<!-- Created with Inkscape (http://www.inkscape.org/) -->

<svg
   xmlns:dc="http://purl.org/dc/elements/1.1/"
   xmlns:cc="http://creativecommons.org/ns#"
   xmlns:rdf="http://www.w3.org/1999/02/22-rdf-syntax-ns#"
   xmlns:svg="http://www.w3.org/2000/svg"
   xmlns="http://www.w3.org/2000/svg"
   viewBox="0 0 223.75 313.75"
   height="313.75"
   width="223.75"
   xml:space="preserve"
   version="1.1"
   id="svg2"><metadata
     id="metadata8"><rdf:RDF><cc:Work
         rdf:about=""><dc:format>image/svg+xml</dc:format><dc:type
           rdf:resource="http://purl.org/dc/dcmitype/StillImage" /></cc:Work></rdf:RDF></metadata><defs
     id="defs6" /><g
     transform="matrix(1.25,0,0,-1.25,0,313.75)"
     id="g10"><g
       transform="scale(0.1,0.1)"
       id="g12"><path
         id="path14"
         style="fill:#ffffff;fill-opacity:1;fill-rule:nonzero;stroke:none"
         d="m 85.0391,2504.49 1615.7409,0 c 47.11,0 85.04,-37.93 85.04,-85.04 l 0,-2324.4109 C 1785.82,47.9297 1747.89,10 1700.78,10 L 85.0391,10 C 37.9297,10 0,47.9297 0,95.0391 L 0,2419.45 c 0,47.11 37.9297,85.04 85.0391,85.04" /><path
         id="path16"
         style="fill:none;stroke:#000000;stroke-width:7.97384024;stroke-linecap:butt;stroke-linejoin:miter;stroke-miterlimit:4;stroke-dasharray:none;stroke-opacity:1"
         d="m 85.0391,2504.49 1615.7409,0 c 47.11,0 85.04,-37.93 85.04,-85.04 l 0,-2324.4109 C 1785.82,47.9297 1747.89,10 1700.78,10 L 85.0391,10 C 37.9297,10 0,47.9297 0,95.0391 L 0,2419.45 c 0,47.11 37.9297,85.04 85.0391,85.04 z" /><path
         id="path18"
         style="fill:#d40000;fill-opacity:1;fill-rule:nonzero;stroke:none"
         d="m 66.2109,2189.68 24.2188,7.54 c 9.1406,-23.98 27.5823,-31.01 47.1093,-29.53 35.082,2.74 46.723,41.21 49.34,75.2 -13.68,-14.18 -34.18,-21.41 -51.68,-20.71 -55.8592,2.97 -70.1599,46.84 -70.6678,92.82 -1.5624,38.79 14.7696,66.87 42.7698,79.72 14.808,6.53 48.75,6.53 63.679,-1.21 34.25,-17.69 46.95,-48.36 44.641,-121.52 0.039,-60.2 -13,-130.28 -78.711,-131.8 -37.9608,-5.15 -66.8319,23.87 -70.6991,49.49 z m 95.0781,65.94 c 11.41,7.11 17.852,13.75 22.973,23.71 4.179,8.17 5.578,12.42 4.41,29.38 -3.082,43.63 -26.402,68.36 -60.192,63.43 -18.871,-2.73 -29.1402,-13.08 -35.0816,-32.38 -10.9375,-35.58 2.9297,-77.22 28.8716,-86.83 11.71,-4.34 29.718,-3.09 39.019,2.69" /><path
         id="path20"
         style="fill:#d40000;fill-opacity:1;fill-rule:nonzero;stroke:none"
         d="m 1714.49,324.801 -24.22,-7.539 c -9.14,23.988 -27.57,31.058 -47.15,29.527 -35.03,-2.73 -46.67,-41.211 -49.29,-75.187 13.67,14.179 34.18,21.398 51.68,20.699 55.86,-2.973 70.15,-46.84 70.66,-92.813 1.56,-38.789 -14.76,-66.879 -42.77,-79.726 -14.81,-6.524 -48.75,-6.524 -63.67,1.207 -34.26,17.742 -46.96,48.402 -44.65,121.531 -0.04,60.191 13.01,130.27 78.71,131.789 37.97,5.16 66.8,-23.828 70.7,-49.488 z m -95.11,-65.942 c -11.37,-7.109 -17.82,-13.75 -22.93,-23.711 -4.18,-8.16 -5.59,-12.418 -4.42,-29.367 3.09,-43.64 26.41,-68.359 60.2,-63.441 18.86,2.73 29.14,13.09 35.07,32.379 10.9,35.59 -2.92,77.23 -28.86,86.84 -11.72,4.332 -29.73,3.082 -39.06,-2.7" /><path
         id="path22"
         style="fill:#d40000;fill-opacity:1;fill-rule:nonzero;stroke:none"
         d="m 68.7109,2037.89 c -12.7304,27.77 -14.1015,75.23 23.75,81.68 28.4801,3.67 40.0781,-9.61 42.3791,-29.96 1.14,-5.94 4.5,-6.29 5.551,0.46 1.679,20.9 22.308,33.09 38.48,30 44.141,-7.53 41.598,-56.21 27.18,-89.21 -21.832,-43.87 -44.801,-71.53 -65.973,-115.63 -24.34,45.94 -52.1092,83.24 -71.3671,122.66" /><path
         id="path24"
         style="fill:#d40000;fill-opacity:1;fill-rule:nonzero;stroke:none"
         d="m 358.789,2275.07 c 57.191,3.79 86.949,-45 92.813,-83.47 3.437,-6.14 5.347,-4.38 6.718,0.35 2.77,49.37 46.95,89.73 87.891,84.22 66.641,-0.86 107.148,-75 95.777,-137.74 -13.937,-76.68 -55.187,-122.81 -86.476,-170.35 -35.352,-49.22 -83.051,-120.31 -98.321,-154.53 0,0 -48.402,73.63 -111.371,160.24 -42.07,57.89 -75.742,120.66 -78.871,174.68 -3.59,61.72 21.68,117.03 91.84,126.6" /><path
         id="path26"
         style="fill:#d40000;fill-opacity:1;fill-rule:nonzero;stroke:none"
         d="m 1235.12,2275.07 c 57.11,3.79 86.95,-45 92.69,-83.47 3.52,-6.14 5.35,-4.38 6.72,0.35 2.81,49.37 46.95,89.73 87.93,84.22 66.64,-0.86 107.11,-75 95.78,-137.74 -13.94,-76.68 -55.23,-122.81 -86.48,-170.35 -35.39,-49.22 -82.97,-120.31 -98.32,-154.53 0,0 -48.4,73.63 -111.37,160.24 -42.07,57.89 -75.78,120.66 -78.91,174.68 -3.59,61.72 21.8,117.03 91.96,126.6" /><path
         id="path28"
         style="fill:#d40000;fill-opacity:1;fill-rule:nonzero;stroke:none"
         d="m 1235.12,1752.46 c 57.11,3.79 86.95,-45.04 92.69,-83.52 3.52,-6.09 5.39,-4.37 6.72,0.35 2.81,49.38 46.99,89.77 87.93,84.22 66.64,-0.86 107.11,-75 95.78,-137.73 -13.94,-76.64 -55.23,-122.82 -86.48,-170.35 -35.39,-49.22 -82.97,-120.32 -98.32,-154.54 0,0 -48.4,73.64 -111.37,160.24 -42.07,57.93 -75.78,120.66 -78.87,174.69 -3.63,61.72 21.76,117.07 91.92,126.64" /><path
         id="path30"
         style="fill:#d40000;fill-opacity:1;fill-rule:nonzero;stroke:none"
         d="m 796.52,1487.22 c 57.152,3.79 87,-45.04 92.742,-83.47 3.508,-6.14 5.347,-4.42 6.718,0.31 2.809,49.41 46.95,89.76 87.93,84.26 66.64,-0.86 107.11,-75 95.74,-137.78 -13.91,-76.64 -55.2,-122.77 -86.451,-170.31 -35.39,-49.22 -82.969,-120.35 -98.32,-154.53 0,0 -48.43,73.59 -111.359,160.19 -42.11,57.93 -75.79,120.67 -78.911,174.69 -3.589,61.76 21.762,117.07 91.911,126.64" /><path
         id="path32"
         style="fill:#d40000;fill-opacity:1;fill-rule:nonzero;stroke:none"
         d="m 358.789,1752.46 c 57.191,3.79 86.949,-45.04 92.813,-83.52 3.437,-6.09 5.347,-4.37 6.718,0.35 2.77,49.38 46.95,89.77 87.891,84.22 66.641,-0.86 107.148,-75 95.777,-137.73 -13.937,-76.64 -55.187,-122.82 -86.476,-170.35 -35.352,-49.22 -83.051,-120.32 -98.321,-154.54 0,0 -48.402,73.64 -111.371,160.24 -42.07,57.93 -75.742,120.66 -78.871,174.69 -3.59,61.72 21.68,117.07 91.84,126.64" /><path
         id="path34"
         style="fill:#d40000;fill-opacity:1;fill-rule:nonzero;stroke:none"
         d="m 1235.12,757.301 c 57.11,-3.789 86.95,45.039 92.69,83.519 3.52,6.09 5.39,4.371 6.72,-0.359 2.81,-49.371 46.99,-89.762 87.93,-84.211 66.64,0.859 107.11,75 95.78,137.73 -13.94,76.641 -55.23,122.81 -86.48,170.35 -35.39,49.22 -82.97,120.31 -98.32,154.53 0,0 -48.4,-73.63 -111.37,-160.23 -42.07,-57.93 -75.78,-120.669 -78.87,-174.689 -3.63,-61.722 21.76,-117.07 91.92,-126.64" /><path
         id="path36"
         style="fill:#d40000;fill-opacity:1;fill-rule:nonzero;stroke:none"
         d="m 1235.12,236.48 c 57.11,-3.789 86.95,45 92.69,83.481 3.52,6.129 5.39,4.41 6.72,-0.32 2.81,-49.411 46.99,-89.762 87.93,-84.25 66.64,0.859 107.11,75 95.78,137.73 -13.94,76.68 -55.23,122.809 -86.48,170.348 -35.39,49.222 -82.97,120.32 -98.32,154.531 0,0 -48.4,-73.629 -111.37,-160.23 -42.07,-57.891 -75.78,-120.661 -78.87,-174.692 -3.63,-61.719 21.76,-117.027 91.92,-126.598" /><path
         id="path38"
         style="fill:#d40000;fill-opacity:1;fill-rule:nonzero;stroke:none"
         d="m 358.789,236.48 c 57.191,-3.789 86.949,45 92.813,83.481 3.437,6.129 5.347,4.41 6.718,-0.32 2.77,-49.411 46.95,-89.762 87.891,-84.25 66.641,0.859 107.148,75 95.777,137.73 -13.937,76.68 -55.187,122.809 -86.476,170.348 -35.352,49.222 -83.051,120.32 -98.321,154.531 0,0 -48.402,-73.629 -111.371,-160.23 -42.07,-57.891 -75.742,-120.661 -78.871,-174.692 -3.59,-61.719 21.68,-117.027 91.84,-126.598" /><path
         id="path40"
         style="fill:#d40000;fill-opacity:1;fill-rule:nonzero;stroke:none"
         d="m 358.789,757.301 c 57.191,-3.789 86.949,45.039 92.813,83.519 3.437,6.09 5.347,4.371 6.718,-0.359 2.77,-49.371 46.95,-89.762 87.891,-84.211 66.641,0.859 107.148,75 95.777,137.73 -13.937,76.641 -55.187,122.81 -86.476,170.35 -35.352,49.22 -83.051,120.31 -98.321,154.53 0,0 -48.402,-73.63 -111.371,-160.23 -42.07,-57.93 -75.742,-120.669 -78.871,-174.689 -3.59,-61.722 21.68,-117.07 91.84,-126.64" /><path
         id="path42"
         style="fill:#d40000;fill-opacity:1;fill-rule:nonzero;stroke:none"
         d="m 1579.18,511.051 c -12.62,-27.813 -14.06,-75.27 23.75,-81.68 28.48,-3.672 40.08,9.57 42.42,29.918 1.1,5.941 4.45,6.332 5.59,-0.469 1.6,-20.859 22.26,-33.039 38.4,-30 44.25,7.578 41.68,56.25 27.22,89.258 -21.87,43.832 -44.8,71.492 -65.94,115.633 -24.33,-45.941 -52.07,-83.25 -71.44,-122.66" /></g></g></svg>