<?xml version="1.0" encoding="UTF-8" standalone="no"?>
<!-- Created with Inkscape (http://www.inkscape.org/) -->

<svg
   xmlns:dc="http://purl.org/dc/elements/1.1/"
   xmlns:cc="http://creativecommons.org/ns#"
   xmlns:rdf="http://www.w3.org/1999/02/22-rdf-syntax-ns#"
   xmlns:svg="http://www.w3.org/2000/svg"
   xmlns="http://www.w3.org/2000/svg"
   xmlns:inkscape="http://www.inkscape.org/namespaces/inkscape"
   version="1.1"
   width="225"
   height="315"
   id="svg2"
   xml:space="preserve"><metadata
     id="metadata8"><rdf:RDF><cc:Work
         rdf:about=""><dc:format>image/svg+xml</dc:format><dc:type
           rdf:resource="http://purl.org/dc/dcmitype/StillImage" /></cc:Work></rdf:RDF></metadata><defs
     id="defs6" /><g
     transform="matrix(1.25,0,0,-1.25,0,315)"
     id="g10"><g
       transform="scale(0.1,0.1)"
       id="g12"><path
         d="m 89.0586,2508.52 1615.7414,0 c 47.11,0 85.04,-37.93 85.04,-85.04 l 0,-2324.4214 c 0,-47.1094 -37.93,-85.0391 -85.04,-85.0391 l -1615.7414,0 c -47.1094,0 -85.03907,37.9297 -85.03907,85.0391 l 0,2324.4214 c 0,47.11 37.92967,85.04 85.03907,85.04"
         inkscape:connector-curvature="0"
         id="path14"
         style="fill:#ffffff;fill-opacity:1;fill-rule:nonzero;stroke:none" /><path
         d="m 89.0586,2508.52 1615.7414,0 c 47.11,0 85.04,-37.93 85.04,-85.04 l 0,-2324.4214 c 0,-47.1094 -37.93,-85.0391 -85.04,-85.0391 l -1615.7414,0 c -47.1094,0 -85.03907,37.9297 -85.03907,85.0391 l 0,2324.4214 c 0,47.11 37.92967,85.04 85.03907,85.04 z"
         inkscape:connector-curvature="0"
         id="path16"
         style="fill:none;stroke:#000000;stroke-width:7.9738698;stroke-linecap:butt;stroke-linejoin:miter;stroke-miterlimit:4;stroke-opacity:1;stroke-dasharray:none" /><path
         d="m 70.2305,2193.71 24.1797,7.54 c 9.1408,-23.98 27.6208,-31.05 47.1488,-29.53 35.043,2.73 46.679,41.17 49.339,75.19 -13.668,-14.18 -34.218,-21.4 -51.679,-20.7 -55.8596,2.97 -70.1604,46.84 -70.6995,92.81 -1.5312,38.79 14.8008,66.84 42.8085,79.73 14.801,6.52 48.75,6.52 63.672,-1.21 34.262,-17.74 46.91,-48.4 44.609,-121.52 0.039,-60.2 -12.968,-130.32 -78.668,-131.8 -38.011,-5.16 -66.8394,23.83 -70.7105,49.49 z m 95.0785,65.94 c 11.41,7.07 17.851,13.71 22.929,23.71 4.223,8.16 5.633,12.42 4.422,29.34 -3.051,43.67 -26.371,68.39 -60.199,63.47 -18.832,-2.73 -29.141,-13.12 -35.0391,-32.38 -10.9414,-35.59 2.9301,-77.27 28.8671,-86.88 11.68,-4.29 29.731,-3.04 39.02,2.74"
         inkscape:connector-curvature="0"
         id="path18"
         style="fill:#000000;fill-opacity:1;fill-rule:nonzero;stroke:none" /><path
         d="m 1718.52,328.828 -24.22,-7.539 c -9.14,23.941 -27.62,31.012 -47.15,29.492 -35.04,-2.691 -46.68,-41.172 -49.3,-75.191 13.63,14.211 34.18,21.398 51.68,20.699 55.86,-2.93 70.16,-46.84 70.67,-92.809 1.56,-38.75 -14.81,-66.839 -42.78,-79.691 -14.84,-6.519 -48.79,-6.519 -63.71,1.172 -34.26,17.738 -46.91,48.398 -44.61,121.519 -0.04,60.2 12.97,130.321 78.67,131.801 38.01,5.16 66.84,-23.832 70.75,-49.453 z m -95.12,-65.976 c -11.41,-7.071 -17.81,-13.711 -22.93,-23.672 -4.18,-8.2 -5.63,-12.418 -4.42,-29.379 3.09,-43.629 26.41,-68.391 60.2,-63.473 18.83,2.731 29.14,13.121 35.04,32.383 10.94,35.59 -2.89,77.269 -28.87,86.879 -11.68,4.332 -29.69,3.082 -39.02,-2.738"
         inkscape:connector-curvature="0"
         id="path20"
         style="fill:#000000;fill-opacity:1;fill-rule:nonzero;stroke:none" /><path
         d="m 426.09,1957.5 c 0.121,16.21 -12.692,16.52 -12.539,4.69 -1.09,-59.42 -51.321,-88.67 -87.852,-81.72 -56.289,10.7 -74.25,66.56 -73.711,99.45 1.641,101.6 103.91,176.49 196.172,306.68 67.578,-117.5 179.18,-209.84 185.789,-300.66 8.75,-120.78 -144.109,-165.86 -165.898,-25.08 -1.41,9.96 -13.129,14.41 -12.231,0.51 3.321,-38.56 -1.41,-54.65 42.149,-149.73 l -113.789,0 c 25.199,44.41 40.199,98.98 41.91,145.86"
         inkscape:connector-curvature="0"
         id="path22"
         style="fill:#000000;fill-opacity:1;fill-rule:nonzero;stroke:none" /><path
         d="m 1318.36,1957.5 c 0.12,16.21 -12.7,16.52 -12.54,4.69 -1.09,-59.42 -51.33,-88.67 -87.85,-81.72 -56.29,10.7 -74.26,66.56 -73.71,99.45 1.64,101.6 103.9,176.49 196.17,306.68 67.58,-117.5 179.18,-209.84 185.78,-300.66 8.75,-120.78 -144.1,-165.86 -165.9,-25.08 -1.4,9.96 -13.12,14.41 -12.22,0.51 3.32,-38.56 -1.41,-54.65 42.14,-149.73 l -113.78,0 c 25.19,44.41 40.19,98.98 41.91,145.86"
         inkscape:connector-curvature="0"
         id="path24"
         style="fill:#000000;fill-opacity:1;fill-rule:nonzero;stroke:none" /><path
         d="m 1318.36,1434.88 c 0.12,16.21 -12.7,16.53 -12.54,4.69 -1.09,-59.45 -51.33,-88.71 -87.85,-81.76 -56.29,10.71 -74.26,66.57 -73.71,99.49 1.64,101.57 103.9,176.45 196.17,306.68 67.58,-117.53 179.18,-209.84 185.78,-300.7 8.75,-120.78 -144.1,-165.82 -165.9,-25.08 -1.4,9.96 -13.12,14.42 -12.22,0.55 3.32,-38.59 -1.41,-54.65 42.14,-149.77 l -113.78,0 c 25.19,44.46 40.19,98.99 41.91,145.9"
         inkscape:connector-curvature="0"
         id="path26"
         style="fill:#000000;fill-opacity:1;fill-rule:nonzero;stroke:none" /><path
         d="m 426.09,1434.88 c 0.121,16.21 -12.692,16.53 -12.539,4.69 -1.09,-59.45 -51.321,-88.71 -87.852,-81.76 -56.289,10.71 -74.25,66.57 -73.711,99.49 1.641,101.57 103.91,176.45 196.172,306.68 67.578,-117.53 179.18,-209.84 185.789,-300.7 8.75,-120.78 -144.109,-165.82 -165.898,-25.08 -1.41,9.96 -13.129,14.42 -12.231,0.55 3.321,-38.59 -1.41,-54.65 42.149,-149.77 l -113.789,0 c 25.199,44.46 40.199,98.99 41.91,145.9"
         inkscape:connector-curvature="0"
         id="path28"
         style="fill:#000000;fill-opacity:1;fill-rule:nonzero;stroke:none" /><path
         d="m 1318.44,561.879 c 0.11,-16.219 -12.7,-16.527 -12.54,-4.688 -1.06,59.411 -51.33,88.668 -87.85,81.719 -56.29,-10.672 -74.26,-66.57 -73.71,-99.461 1.64,-101.597 103.9,-176.48 196.17,-306.679 67.58,117.5 179.18,209.851 185.78,300.671 8.79,120.778 -144.06,165.86 -165.9,25.079 -1.41,-9.969 -13.12,-14.418 -12.23,-0.508 3.32,38.547 -1.36,54.648 42.15,149.718 l -113.79,0 c 25.2,-44.41 40.2,-98.98 41.92,-145.851"
         inkscape:connector-curvature="0"
         id="path30"
         style="fill:#000000;fill-opacity:1;fill-rule:nonzero;stroke:none" /><path
         d="m 1318.44,1082.7 c 0.11,-16.22 -12.7,-16.53 -12.54,-4.69 -1.06,59.45 -51.33,88.71 -87.85,81.76 -56.29,-10.71 -74.26,-66.57 -73.71,-99.5 1.64,-101.559 103.9,-176.442 196.17,-306.68 67.58,117.539 179.18,209.851 185.78,300.71 8.79,120.78 -144.06,165.82 -165.9,25.04 -1.41,-9.93 -13.12,-14.38 -12.23,-0.51 3.32,38.59 -1.36,54.65 42.15,149.76 l -113.79,0 c 25.2,-44.45 40.2,-98.98 41.92,-145.89"
         inkscape:connector-curvature="0"
         id="path32"
         style="fill:#000000;fill-opacity:1;fill-rule:nonzero;stroke:none" /><path
         d="m 877.73,1352.77 c 0.122,-16.21 -12.691,-16.52 -12.531,-4.68 -1.097,59.45 -51.328,88.71 -87.859,81.75 -56.289,-10.7 -74.25,-66.56 -73.711,-99.49 1.641,-101.56 103.91,-176.44 196.172,-306.68 67.578,117.54 179.179,209.85 185.789,300.71 8.79,120.78 -144.11,165.82 -165.899,25.03 -1.41,-9.92 -13.132,-14.37 -12.23,-0.5 3.32,38.59 -1.41,54.64 42.148,149.76 l -113.789,0 c 25.2,-44.45 40.2,-98.98 41.91,-145.9"
         inkscape:connector-curvature="0"
         id="path34"
         style="fill:#000000;fill-opacity:1;fill-rule:nonzero;stroke:none" /><path
         d="m 426.172,1082.7 c 0.117,-16.22 -12.692,-16.53 -12.543,-4.69 -1.051,59.45 -51.328,88.71 -87.848,81.76 -56.293,-10.71 -74.261,-66.57 -73.711,-99.5 1.68,-101.559 103.91,-176.442 196.168,-306.68 67.582,117.539 179.184,209.851 185.782,300.71 8.789,120.78 -144.059,165.82 -165.899,25.04 -1.402,-9.93 -13.121,-14.38 -12.223,-0.51 3.321,38.59 -1.367,54.65 42.153,149.76 l -113.789,0 c 25.187,-44.45 40.187,-98.98 41.91,-145.89"
         inkscape:connector-curvature="0"
         id="path36"
         style="fill:#000000;fill-opacity:1;fill-rule:nonzero;stroke:none" /><path
         d="m 426.172,561.879 c 0.117,-16.219 -12.692,-16.527 -12.543,-4.688 -1.051,59.411 -51.328,88.668 -87.848,81.719 -56.293,-10.672 -74.261,-66.57 -73.711,-99.461 1.68,-101.597 103.91,-176.48 196.168,-306.679 67.582,117.5 179.184,209.851 185.782,300.671 8.789,120.778 -144.059,165.86 -165.899,25.079 -1.402,-9.969 -13.121,-14.418 -12.223,-0.508 3.321,38.547 -1.367,54.648 42.153,149.718 l -113.789,0 c 25.187,-44.41 40.187,-98.98 41.91,-145.851"
         inkscape:connector-curvature="0"
         id="path38"
         style="fill:#000000;fill-opacity:1;fill-rule:nonzero;stroke:none" /><path
         d="m 138.629,1969.45 c 0.082,6.96 -7.149,3.71 -8.117,1.53 -9.301,-15.9 -22.934,-19.57 -36.4104,-13.87 -13.3204,5.66 -20.8204,18.24 -19.6133,36.17 2.4609,27.5 24.2617,57.62 34.8517,74.61 10,15.47 21.012,33.79 32.609,57.27 13.563,-26.92 20.473,-34.57 35.242,-59.14 13.008,-21.64 31.129,-42.82 32.539,-68.99 0,-19.88 -8.359,-38.67 -27.191,-42.07 -10.66,-1.95 -20.66,3.52 -28.051,16.29 -2.258,3.24 -6.789,1.56 -6.718,-2.89 1.332,-16.76 7.66,-31.88 22.66,-49.69 l -55.121,0 c 11.293,12.58 22.812,29.61 23.32,50.78"
         inkscape:connector-curvature="0"
         id="path40"
         style="fill:#000000;fill-opacity:1;fill-rule:nonzero;stroke:none" /><path
         d="m 1649.18,587.5 c 0.08,-6.988 -7.19,-3.711 -8.16,-1.52 -9.3,15.86 -22.93,19.571 -36.37,13.821 -13.36,-5.66 -20.86,-18.242 -19.65,-36.172 2.5,-27.5 24.3,-57.578 34.84,-74.609 10,-15.43 21.02,-33.75 32.62,-57.219 13.59,26.91 20.47,34.57 35.24,59.14 13,21.637 31.13,42.809 32.53,68.981 0,19.879 -8.35,38.629 -27.18,42.066 -10.67,1.922 -20.63,-3.547 -28.05,-16.289 -2.23,-3.277 -6.76,-1.558 -6.68,2.891 1.29,16.762 7.62,31.879 22.62,49.691 l -55.08,0 c 11.25,-12.621 22.77,-29.652 23.32,-50.781"
         inkscape:connector-curvature="0"
         id="path42"
         style="fill:#000000;fill-opacity:1;fill-rule:nonzero;stroke:none" /></g></g></svg>