<?xml version="1.0" encoding="UTF-8" standalone="no"?>
<!-- Created with Inkscape (http://www.inkscape.org/) -->

<svg
   xmlns:dc="http://purl.org/dc/elements/1.1/"
   xmlns:cc="http://creativecommons.org/ns#"
   xmlns:rdf="http://www.w3.org/1999/02/22-rdf-syntax-ns#"
   xmlns:svg="http://www.w3.org/2000/svg"
   xmlns="http://www.w3.org/2000/svg"
   xmlns:inkscape="http://www.inkscape.org/namespaces/inkscape"
   version="1.1"
   width="225"
   height="315"
   id="svg2"
   xml:space="preserve"><metadata
     id="metadata8"><rdf:RDF><cc:Work
         rdf:about=""><dc:format>image/svg+xml</dc:format><dc:type
           rdf:resource="http://purl.org/dc/dcmitype/StillImage" /></cc:Work></rdf:RDF></metadata><defs
     id="defs6" /><g
     transform="matrix(1.25,0,0,-1.25,0,315)"
     id="g10"><g
       transform="scale(0.1,0.1)"
       id="g12"><path
         d="m 89.1406,2508.48 1615.7394,0 c 47.11,0 85.04,-37.93 85.04,-85.04 l 0,-2324.4205 c 0,-47.1093 -37.93,-85.039 -85.04,-85.039 l -1615.7394,0 c -47.1094,0 -85.03904,37.9297 -85.03904,85.039 l 0,2324.4205 c 0,47.11 37.92964,85.04 85.03904,85.04"
         inkscape:connector-curvature="0"
         id="path14"
         style="fill:#ffffff;fill-opacity:1;fill-rule:nonzero;stroke:none" /><path
         d="m 89.1406,2508.48 1615.7394,0 c 47.11,0 85.04,-37.93 85.04,-85.04 l 0,-2324.4205 c 0,-47.1093 -37.93,-85.039 -85.04,-85.039 l -1615.7394,0 c -47.1094,0 -85.03904,37.9297 -85.03904,85.039 l 0,2324.4205 c 0,47.11 37.92964,85.04 85.03904,85.04 z"
         inkscape:connector-curvature="0"
         id="path16"
         style="fill:none;stroke:#000000;stroke-width:7.9738698;stroke-linecap:butt;stroke-linejoin:miter;stroke-miterlimit:4;stroke-opacity:1;stroke-dasharray:none" /><path
         d="m 61.9883,2139.96 0,21.92 21.2929,0 45.3088,234.14 25.789,0 49.922,-234.14 17.179,0 0,-21.92 -58.511,0 0,21.92 15.781,0 -6.289,35.85 -59.063,0 -4.57,-35.85 15.82,0 0,-21.92 -62.6597,0 z m 105.4337,83.32 -25.66,125.39 -24.063,-125.39"
         inkscape:connector-curvature="0"
         id="path18"
         style="fill:#000000;fill-opacity:1;fill-rule:nonzero;stroke:none" /><path
         d="m 1732.03,382.539 0,-21.918 -21.25,0 -45.35,-234.172 -25.78,0 -49.92,234.172 -17.19,0 0,21.918 58.55,0 0,-21.918 -15.82,0 6.29,-35.891 59.1,0 4.57,35.891 -15.82,0 0,21.918 62.62,0 z m -105.39,-83.359 25.66,-125.352 24.03,125.352"
         inkscape:connector-curvature="0"
         id="path20"
         style="fill:#000000;fill-opacity:1;fill-rule:nonzero;stroke:none" /><path
         d="m 838.199,1032.7 c 23.051,46.17 39.813,93.59 42.821,144.29 2.691,18.63 -8.641,18.95 -10.321,5.82 -32.609,-124.76 -206.09,-90.97 -200.148,26.37 4.84,95.16 99.371,115.62 148.668,84.53 19.453,-11.48 18.359,-4.61 7.73,7.27 -73.238,81.72 -28.859,186.91 70.082,188.82 107.069,-6.32 134.849,-118.94 69.18,-185.19 -8.16,-7.93 -26.289,-33.52 0.98,-15.63 66.289,47.11 158.279,-3.55 156.399,-76.17 -3.43,-133.9 -166.711,-143.9 -201.602,-32.07 -3.359,12.42 -13.039,18.64 -10.386,-2.42 4.847,-38.12 14.878,-95.62 43.519,-145.62"
         inkscape:connector-curvature="0"
         id="path22"
         style="fill:#000000;fill-opacity:1;fill-rule:nonzero;stroke:none" /><path
         d="m 107.379,1907.03 c 9.531,19.57 18.832,37.77 23.871,59.22 3.359,20.2 -3.52,12.7 -7.379,-0.55 -5.781,-18.4 -21.801,-26.75 -36.6405,-26.95 -27,-0.35 -40.4297,20.82 -39.6094,43.63 -2.9297,23.99 21.3594,40.94 39.6797,39.65 13.7892,-0.98 25.8202,-8.4 33.0902,-14.22 4.769,-2.5 9.879,-3.63 2.73,2.89 -13.391,14.65 -24.6015,23.71 -24.3319,45.67 0.2304,20.66 17.8519,42.15 41.2109,41.48 29.219,-0.82 42.5,-23.12 42.461,-43.83 -0.082,-15.11 -7.66,-29.02 -19.301,-37.61 -7.57,-6.14 -5.43,-10.75 3.168,-4.93 8.281,7.11 18.16,10.24 28.363,10.47 27.93,0.43 38.829,-23.71 37.258,-46.13 -1.519,-20.98 -19.41,-42.62 -42.969,-40.16 -21.05,2.43 -32.101,20.08 -38.429,38.21 -2.11,5.58 -5.43,7.07 -5.321,-1.21 4.848,-40.47 19.93,-65.63 20.04,-65.63"
         inkscape:connector-curvature="0"
         id="path24"
         style="fill:#000000;fill-opacity:1;fill-rule:nonzero;stroke:none" /><path
         d="m 1679.14,612.379 c -9.53,-19.57 -18.83,-37.77 -23.87,-59.219 -3.36,-20.23 3.48,-12.691 7.39,0.551 5.78,18.398 21.79,26.758 36.64,26.949 26.95,0.36 40.43,-20.82 39.57,-43.629 2.97,-23.98 -21.37,-40.98 -39.69,-39.652 -13.79,0.98 -25.78,8.402 -33.05,14.18 -4.76,2.543 -9.88,3.671 -2.77,-2.848 13.44,-14.652 24.61,-23.711 24.37,-45.699 -0.23,-20.633 -17.85,-42.114 -41.25,-41.453 -29.21,0.82 -42.5,23.132 -42.42,43.832 0.08,15.121 7.62,29.019 19.3,37.621 7.54,6.129 5.43,10.738 -3.2,4.918 -8.25,-7.11 -18.13,-10.231 -28.36,-10.469 -27.89,-0.43 -38.83,23.668 -37.23,46.09 1.48,21.019 19.38,42.66 42.97,40.199 21.01,-2.422 32.11,-20.078 38.44,-38.199 2.07,-5.59 5.39,-7.071 5.31,1.211 -4.88,40.468 -19.92,65.617 -20.04,65.617"
         inkscape:connector-curvature="0"
         id="path26"
         style="fill:#000000;fill-opacity:1;fill-rule:nonzero;stroke:none" /></g></g></svg>