<?xml version="1.0" encoding="UTF-8" standalone="no"?>
<!-- Created with Inkscape (http://www.inkscape.org/) -->

<svg
   xmlns:dc="http://purl.org/dc/elements/1.1/"
   xmlns:cc="http://creativecommons.org/ns#"
   xmlns:rdf="http://www.w3.org/1999/02/22-rdf-syntax-ns#"
   xmlns:svg="http://www.w3.org/2000/svg"
   xmlns="http://www.w3.org/2000/svg"
   xmlns:inkscape="http://www.inkscape.org/namespaces/inkscape"
   version="1.1"
   width="225"
   height="315"
   id="svg2"
   xml:space="preserve"><metadata
     id="metadata8"><rdf:RDF><cc:Work
         rdf:about=""><dc:format>image/svg+xml</dc:format><dc:type
           rdf:resource="http://purl.org/dc/dcmitype/StillImage" /></cc:Work></rdf:RDF></metadata><defs
     id="defs6" /><g
     transform="matrix(1.25,0,0,-1.25,0,315)"
     id="g10"><g
       transform="scale(0.1,0.1)"
       id="g12"><path
         d="m 89.1406,2508.48 1615.7394,0 c 47.11,0 85.04,-37.93 85.04,-85.04 l 0,-2324.4205 c 0,-47.1093 -37.93,-85.039 -85.04,-85.039 l -1615.7394,0 c -47.1094,0 -85.03904,37.9297 -85.03904,85.039 l 0,2324.4205 c 0,47.11 37.92964,85.04 85.03904,85.04"
         inkscape:connector-curvature="0"
         id="path14"
         style="fill:#ffffff;fill-opacity:1;fill-rule:nonzero;stroke:none" /><path
         d="m 89.1406,2508.48 1615.7394,0 c 47.11,0 85.04,-37.93 85.04,-85.04 l 0,-2324.4205 c 0,-47.1093 -37.93,-85.039 -85.04,-85.039 l -1615.7394,0 c -47.1094,0 -85.03904,37.9297 -85.03904,85.039 l 0,2324.4205 c 0,47.11 37.92964,85.04 85.03904,85.04 z"
         inkscape:connector-curvature="0"
         id="path16"
         style="fill:none;stroke:#000000;stroke-width:7.9738698;stroke-linecap:butt;stroke-linejoin:miter;stroke-miterlimit:4;stroke-opacity:1;stroke-dasharray:none" /><path
         d="m 718.051,1260.2 c 79.371,77.46 131.48,161.91 181.328,243.12 43.711,-89.37 106.441,-167.54 174.291,-243.12 -72.58,-74.97 -128.83,-155.08 -174.061,-239.34 -50.16,86.37 -102.929,164.57 -181.558,239.34"
         inkscape:connector-curvature="0"
         id="path18"
         style="fill:#d40000;fill-opacity:1;fill-rule:nonzero;stroke:none" /><path
         d="m 1573.95,516.172 c 32.5,31.758 53.86,66.328 74.25,99.609 17.93,-36.601 43.64,-68.633 71.41,-99.609 -29.73,-30.703 -52.77,-63.512 -71.29,-98.051 -20.55,35.399 -42.19,67.43 -74.37,98.051"
         inkscape:connector-curvature="0"
         id="path20"
         style="fill:#d40000;fill-opacity:1;fill-rule:nonzero;stroke:none" /><path
         d="m 66.9102,2001.68 c 32.5,31.72 53.8278,66.33 74.2618,99.61 17.93,-36.64 43.598,-68.63 71.406,-99.61 -29.726,-30.7 -52.777,-63.52 -71.328,-98.05 -20.512,35.39 -42.1484,67.42 -74.3398,98.05"
         inkscape:connector-curvature="0"
         id="path22"
         style="fill:#d40000;fill-opacity:1;fill-rule:nonzero;stroke:none" /><path
         d="m 61.9883,2139.96 0,21.92 21.2929,0 45.3088,234.14 25.789,0 49.922,-234.14 17.179,0 0,-21.92 -58.511,0 0,21.92 15.781,0 -6.289,35.85 -59.063,0 -4.57,-35.85 15.82,0 0,-21.92 -62.6597,0 z m 105.4337,83.32 -25.66,125.39 -24.063,-125.39"
         inkscape:connector-curvature="0"
         id="path24"
         style="fill:#d40000;fill-opacity:1;fill-rule:nonzero;stroke:none" /><path
         d="m 1732.03,382.539 0,-21.918 -21.25,0 -45.35,-234.172 -25.78,0 -49.92,234.172 -17.19,0 0,21.918 58.55,0 0,-21.918 -15.82,0 6.29,-35.891 59.1,0 4.57,35.891 -15.82,0 0,21.918 62.62,0 z m -105.39,-83.359 25.66,-125.352 24.03,125.352"
         inkscape:connector-curvature="0"
         id="path26"
         style="fill:#d40000;fill-opacity:1;fill-rule:nonzero;stroke:none" /></g></g></svg>