<?xml version="1.0" encoding="UTF-8" standalone="no"?>
<!-- Created with Inkscape (http://www.inkscape.org/) -->

<svg
   xmlns:dc="http://purl.org/dc/elements/1.1/"
   xmlns:cc="http://creativecommons.org/ns#"
   xmlns:rdf="http://www.w3.org/1999/02/22-rdf-syntax-ns#"
   xmlns:svg="http://www.w3.org/2000/svg"
   xmlns="http://www.w3.org/2000/svg"
   viewBox="0 0 223.75 313.75"
   height="313.75"
   width="223.75"
   xml:space="preserve"
   version="1.1"
   id="svg2"><metadata
     id="metadata8"><rdf:RDF><cc:Work
         rdf:about=""><dc:format>image/svg+xml</dc:format><dc:type
           rdf:resource="http://purl.org/dc/dcmitype/StillImage" /></cc:Work></rdf:RDF></metadata><defs
     id="defs6" /><g
     transform="matrix(1.25,0,0,-1.25,0,313.75)"
     id="g10"><g
       transform="scale(0.1,0.1)"
       id="g12"><path
         id="path14"
         style="fill:#ffffff;fill-opacity:1;fill-rule:nonzero;stroke:none"
         d="m 85.0391,2504.49 1615.7409,0 c 47.11,0 85.04,-37.93 85.04,-85.04 l 0,-2324.4109 C 1785.82,47.9297 1747.89,10 1700.78,10 L 85.0391,10 C 37.9297,10 0,47.9297 0,95.0391 L 0,2419.45 c 0,47.11 37.9297,85.04 85.0391,85.04" /><path
         id="path16"
         style="fill:none;stroke:#000000;stroke-width:7.97384024;stroke-linecap:butt;stroke-linejoin:miter;stroke-miterlimit:4;stroke-dasharray:none;stroke-opacity:1"
         d="m 85.0391,2504.49 1615.7409,0 c 47.11,0 85.04,-37.93 85.04,-85.04 l 0,-2324.4109 C 1785.82,47.9297 1747.89,10 1700.78,10 L 85.0391,10 C 37.9297,10 0,47.9297 0,95.0391 L 0,2419.45 c 0,47.11 37.9297,85.04 85.0391,85.04 z" /><path
         id="path18"
         style="fill:#d40000;fill-opacity:1;fill-rule:nonzero;stroke:none"
         d="m 57.8906,2135.97 0,21.88 21.25,0 45.3474,234.18 25.782,0 49.929,-234.18 17.18,0 0,-21.88 -58.508,0 0,21.88 15.777,0 -6.289,35.9 -59.058,0 -4.571,-35.9 15.821,0 0,-21.88 -62.6604,0 z m 105.4294,83.32 -25.66,125.35 -24.07,-125.35" /><path
         id="path20"
         style="fill:#d40000;fill-opacity:1;fill-rule:nonzero;stroke:none"
         d="m 1727.93,378.551 0,-21.91 -21.29,0 -45.27,-234.18 -25.82,0 -49.93,234.18 -17.18,0 0,21.91 58.55,0 0,-21.91 -15.86,0 6.33,-35.903 59.1,0 4.57,35.903 -15.82,0 0,21.91 62.62,0 z m -105.39,-83.36 25.66,-125.351 24.03,125.351" /><path
         id="path22"
         style="fill:#d40000;fill-opacity:1;fill-rule:nonzero;stroke:none"
         d="m 66.2891,2018.47 c -12.7383,27.78 -14.0977,75.24 23.75,81.64 28.4809,3.68 40.0819,-9.57 42.3829,-29.92 1.129,-5.94 4.488,-6.33 5.547,0.47 1.679,20.86 22.301,33.05 38.48,30 44.211,-7.58 41.602,-56.25 27.18,-89.26 -21.828,-43.83 -44.801,-71.48 -65.969,-115.62 -24.34,45.93 -52.0389,83.24 -71.3709,122.69" /><path
         id="path24"
         style="fill:#d40000;fill-opacity:1;fill-rule:nonzero;stroke:none"
         d="m 796.52,1487.22 c 57.109,3.79 86.96,-45.04 92.699,-83.51 3.551,-6.1 5.472,-4.38 6.761,0.35 2.77,49.41 47.032,89.76 87.891,84.26 66.639,-0.86 107.149,-75 95.779,-137.78 -13.95,-76.64 -55.2,-122.77 -86.49,-170.31 -35.351,-49.26 -82.961,-120.35 -98.32,-154.57 0,0 -48.391,73.63 -111.289,160.23 -42.141,57.93 -75.821,120.67 -78.942,174.69 -3.589,61.72 21.762,117.07 91.911,126.64" /><path
         id="path26"
         style="fill:#d40000;fill-opacity:1;fill-rule:nonzero;stroke:none"
         d="m 1573.32,492.961 c -12.73,-27.77 -14.1,-75.27 23.75,-81.672 28.48,-3.68 40.08,9.602 42.42,29.961 1.1,5.93 4.46,6.289 5.51,-0.469 1.68,-20.902 22.3,-33.09 38.48,-30 44.25,7.539 41.6,56.207 27.18,89.219 -21.83,43.82 -44.8,71.52 -65.97,115.621 -24.34,-45.941 -52.07,-83.242 -71.37,-122.66" /></g></g></svg>