<?xml version="1.0" encoding="UTF-8" standalone="no"?>
<!-- Created with Inkscape (http://www.inkscape.org/) -->

<svg
   xmlns:dc="http://purl.org/dc/elements/1.1/"
   xmlns:cc="http://creativecommons.org/ns#"
   xmlns:rdf="http://www.w3.org/1999/02/22-rdf-syntax-ns#"
   xmlns:svg="http://www.w3.org/2000/svg"
   xmlns="http://www.w3.org/2000/svg"
   xmlns:inkscape="http://www.inkscape.org/namespaces/inkscape"
   version="1.1"
   width="225"
   height="315"
   id="svg2"
   xml:space="preserve"><metadata
     id="metadata8"><rdf:RDF><cc:Work
         rdf:about=""><dc:format>image/svg+xml</dc:format><dc:type
           rdf:resource="http://purl.org/dc/dcmitype/StillImage" /></cc:Work></rdf:RDF></metadata><defs
     id="defs6" /><g
     transform="matrix(1.25,0,0,-1.25,0,315)"
     id="g10"><g
       transform="scale(0.1,0.1)"
       id="g12"><path
         d="m 89.1406,2508.48 1615.7394,0 c 47.11,0 85.04,-37.93 85.04,-85.04 l 0,-2324.4205 c 0,-47.1093 -37.93,-85.039 -85.04,-85.039 l -1615.7394,0 c -47.1094,0 -85.03904,37.9297 -85.03904,85.039 l 0,2324.4205 c 0,47.11 37.92964,85.04 85.03904,85.04"
         inkscape:connector-curvature="0"
         id="path14"
         style="fill:#ffffff;fill-opacity:1;fill-rule:nonzero;stroke:none" /><path
         d="m 89.1406,2508.48 1615.7394,0 c 47.11,0 85.04,-37.93 85.04,-85.04 l 0,-2324.4205 c 0,-47.1093 -37.93,-85.039 -85.04,-85.039 l -1615.7394,0 c -47.1094,0 -85.03904,37.9297 -85.03904,85.039 l 0,2324.4205 c 0,47.11 37.92964,85.04 85.03904,85.04 z"
         inkscape:connector-curvature="0"
         id="path16"
         style="fill:none;stroke:#000000;stroke-width:7.9738698;stroke-linecap:butt;stroke-linejoin:miter;stroke-miterlimit:4;stroke-opacity:1;stroke-dasharray:none" /><path
         d="m 61.9883,2139.96 0,21.92 21.2929,0 45.3088,234.14 25.789,0 49.922,-234.14 17.179,0 0,-21.92 -58.511,0 0,21.92 15.781,0 -6.289,35.85 -59.063,0 -4.57,-35.85 15.82,0 0,-21.92 -62.6597,0 z m 105.4337,83.32 -25.66,125.39 -24.063,-125.39"
         inkscape:connector-curvature="0"
         id="path18"
         style="fill:#000000;fill-opacity:1;fill-rule:nonzero;stroke:none" /><path
         d="m 1732.03,382.539 0,-21.918 -21.25,0 -45.35,-234.172 -25.78,0 -49.92,234.172 -17.19,0 0,21.918 58.55,0 0,-21.918 -15.82,0 6.29,-35.891 59.1,0 4.57,35.891 -15.82,0 0,21.918 62.62,0 z m -105.39,-83.359 25.66,-125.352 24.03,125.352"
         inkscape:connector-curvature="0"
         id="path20"
         style="fill:#000000;fill-opacity:1;fill-rule:nonzero;stroke:none" /><path
         d="m 886.719,1170.47 c 0.121,16.21 -12.699,16.52 -12.539,4.69 -1.09,-59.42 -51.371,-88.68 -87.852,-81.76 -56.289,10.7 -74.258,66.6 -73.707,99.49 1.641,101.56 103.859,176.49 196.129,306.68 67.621,-117.54 179.18,-209.84 185.78,-300.7 8.79,-120.78 -144.061,-165.82 -165.901,-25.04 -1.399,9.92 -13.078,14.41 -12.18,0.51 3.321,-38.56 -1.41,-54.65 42.102,-149.77 l -113.75,0 c 25.199,44.45 40.199,99.02 41.918,145.9"
         inkscape:connector-curvature="0"
         id="path22"
         style="fill:#000000;fill-opacity:1;fill-rule:nonzero;stroke:none" /><path
         d="m 144.301,1950 c 0.078,6.99 -7.153,3.71 -8.172,1.52 -9.289,-15.9 -22.891,-19.57 -36.3595,-13.86 -13.3203,5.7 -20.8203,18.24 -19.6484,36.21 2.5,27.5 24.2889,57.58 34.8399,74.61 10.039,15.43 21.059,33.75 32.617,57.22 13.594,-26.91 20.473,-34.57 35.231,-59.14 13.011,-21.64 31.171,-42.81 32.543,-68.98 0,-19.88 -8.364,-38.63 -27.192,-42.07 -10.621,-1.96 -20.621,3.51 -28,16.29 -2.269,3.24 -6.801,1.56 -6.719,-2.89 1.329,-16.76 7.61,-31.88 22.61,-49.69 l -55.071,0 c 11.29,12.62 22.77,29.61 23.321,50.78"
         inkscape:connector-curvature="0"
         id="path24"
         style="fill:#000000;fill-opacity:1;fill-rule:nonzero;stroke:none" /><path
         d="m 1651.33,569.41 c 0.08,-6.988 -7.15,-3.711 -8.13,-1.519 -9.33,15.859 -22.93,19.57 -36.4,13.828 -13.32,-5.668 -20.82,-18.239 -19.61,-36.168 2.46,-27.5 24.26,-57.582 34.84,-74.61 10,-15.429 21.02,-33.75 32.58,-57.23 13.59,26.91 20.47,34.57 35.27,59.141 13.01,21.636 31.14,42.808 32.54,68.988 0,19.879 -8.4,38.629 -27.22,42.07 -10.63,1.91 -20.63,-3.558 -28.01,-16.289 -2.27,-3.242 -6.8,-1.57 -6.72,2.891 1.33,16.758 7.65,31.867 22.62,49.687 l -55.08,0 c 11.29,-12.621 22.77,-29.609 23.32,-50.789"
         inkscape:connector-curvature="0"
         id="path26"
         style="fill:#000000;fill-opacity:1;fill-rule:nonzero;stroke:none" /></g></g></svg>