<?xml version="1.0" encoding="UTF-8" standalone="no"?>
<!-- Created with Inkscape (http://www.inkscape.org/) -->

<svg
   xmlns:dc="http://purl.org/dc/elements/1.1/"
   xmlns:cc="http://creativecommons.org/ns#"
   xmlns:rdf="http://www.w3.org/1999/02/22-rdf-syntax-ns#"
   xmlns:svg="http://www.w3.org/2000/svg"
   xmlns="http://www.w3.org/2000/svg"
   xmlns:inkscape="http://www.inkscape.org/namespaces/inkscape"
   version="1.1"
   width="223.75"
   height="313.75"
   id="svg2"
   xml:space="preserve"><metadata
     id="metadata8"><rdf:RDF><cc:Work
         rdf:about=""><dc:format>image/svg+xml</dc:format><dc:type
           rdf:resource="http://purl.org/dc/dcmitype/StillImage" /></cc:Work></rdf:RDF></metadata><defs
     id="defs6"><pattern
       id="pattern20"
       height="11074"
       width="10862"
       y="0"
       x="0"
       patternUnits="userSpaceOnUse"
       patternTransform="matrix(-8.84796e-4,-8.84796e-4,8.84796e-4,-8.84796e-4,-5.28945,601.709)"><g
         id="g22"
         transform="scale(0.1,0.1)"><g
           id="g24"
           transform="scale(6.79387,6.79387)"><path
             id="path26"
             style="fill:#131f67;fill-opacity:1;fill-rule:nonzero;stroke:none"
             d="M 7993.86,14245.6 6409.46,11872.8 7465.9,9222.45 4719.62,9996.07 2525.42,8172.32 2412.53,11023.2 0,12546.5 l 2676.51,988.3 703.17,2765.2 1767.06,-2240.1" /></g></g></pattern></defs><g
     transform="matrix(1.25,0,0,-1.25,0,313.75)"
     id="g10"><g
       transform="scale(0.1,0.1)"
       id="g12"><path
         d="m 89.1406,2500.48 1607.7394,0 c 47.1,0 85.03,-37.93 85.03,-85.04 l 0,-2316.4088 c 0,-47.1093 -37.93,-85.0429 -85.03,-85.0429 l -1607.7394,0 c -47.1094,0 -85.03904,37.9336 -85.03904,85.0429 l 0,2316.4088 c 0,47.11 37.92964,85.04 85.03904,85.04"
         inkscape:connector-curvature="0"
         id="path14"
         style="fill:#ffffff;fill-opacity:1;fill-rule:nonzero;stroke:none" /><path
         d="m 89.1406,2500.48 1607.7394,0 c 47.1,0 85.03,-37.93 85.03,-85.04 l 0,-2316.4088 c 0,-47.1093 -37.93,-85.0429 -85.03,-85.0429 l -1607.7394,0 c -47.1094,0 -85.03904,37.9336 -85.03904,85.0429 l 0,2316.4088 c 0,47.11 37.92964,85.04 85.03904,85.04 z"
         inkscape:connector-curvature="0"
         id="path16"
         style="fill:none;stroke:#000000;stroke-width:8;stroke-linecap:butt;stroke-linejoin:miter;stroke-miterlimit:4;stroke-opacity:1;stroke-dasharray:none" /><path
         d="m 104.801,110.641 1576.41,0 0,2293.16 -1576.41,0 0,-2293.16 z"
         inkscape:connector-curvature="0"
         id="path18"
         style="fill:none;stroke:#131f67;stroke-width:39.61909866;stroke-linecap:round;stroke-linejoin:miter;stroke-miterlimit:4;stroke-opacity:1;stroke-dasharray:none" /><path
         d="m 139.879,141.609 1506.21,0 0,2231.25 -1506.21,0 0,-2231.25 z"
         inkscape:connector-curvature="0"
         id="path28"
         style="fill:url(#pattern20);fill-opacity:1;fill-rule:nonzero;stroke:none" /><path
         d="m 139.879,141.609 1506.21,0 0,2231.25 -1506.21,0 0,-2231.25 z"
         inkscape:connector-curvature="0"
         id="path30"
         style="fill:none;stroke:#131f67;stroke-width:8;stroke-linecap:round;stroke-linejoin:miter;stroke-miterlimit:4;stroke-opacity:1;stroke-dasharray:none" /></g></g></svg>