<?xml version="1.0" encoding="UTF-8" standalone="no"?>
<!-- Created with Inkscape (http://www.inkscape.org/) -->

<svg
   xmlns:dc="http://purl.org/dc/elements/1.1/"
   xmlns:cc="http://creativecommons.org/ns#"
   xmlns:rdf="http://www.w3.org/1999/02/22-rdf-syntax-ns#"
   xmlns:svg="http://www.w3.org/2000/svg"
   xmlns="http://www.w3.org/2000/svg"
   xmlns:inkscape="http://www.inkscape.org/namespaces/inkscape"
   version="1.1"
   width="225"
   height="315"
   id="svg2"
   xml:space="preserve"><metadata
     id="metadata8"><rdf:RDF><cc:Work
         rdf:about=""><dc:format>image/svg+xml</dc:format><dc:type
           rdf:resource="http://purl.org/dc/dcmitype/StillImage" /></cc:Work></rdf:RDF></metadata><defs
     id="defs6" /><g
     transform="matrix(1.25,0,0,-1.25,0,315)"
     id="g10"><g
       transform="scale(0.1,0.1)"
       id="g12"><path
         d="m 88.9492,2508.52 1615.7408,0 c 47.11,0 85.04,-37.93 85.04,-85.04 l 0,-2324.4214 c 0,-47.1094 -37.93,-85.0391 -85.04,-85.0391 l -1615.7408,0 c -47.1094,0 -85.03904,37.9297 -85.03904,85.0391 l 0,2324.4214 c 0,47.11 37.92964,85.04 85.03904,85.04"
         inkscape:connector-curvature="0"
         id="path14"
         style="fill:#ffffff;fill-opacity:1;fill-rule:nonzero;stroke:none" /><path
         d="m 88.9492,2508.52 1615.7408,0 c 47.11,0 85.04,-37.93 85.04,-85.04 l 0,-2324.4214 c 0,-47.1094 -37.93,-85.0391 -85.04,-85.0391 l -1615.7408,0 c -47.1094,0 -85.03904,37.9297 -85.03904,85.0391 l 0,2324.4214 c 0,47.11 37.92964,85.04 85.03904,85.04 z"
         inkscape:connector-curvature="0"
         id="path16"
         style="fill:none;stroke:#000000;stroke-width:7.9738698;stroke-linecap:butt;stroke-linejoin:miter;stroke-miterlimit:4;stroke-opacity:1;stroke-dasharray:none" /><path
         d="m 251.602,204.41 -4.063,2104.03 1305.081,-2.46 1.64,-2100.75 -1302.658,-0.82 z m 467.847,1753.21 c -46.64,12.73 -45.5,-33.64 -11.328,-35.35 38.289,-3.29 54.649,61.95 36.41,87.69 0,0 -15.941,-49.18 -25.082,-52.34 z m -302.847,-262.07 -56.051,-25 -0.199,-41.88 c 23.359,18.6 41.636,41.29 56.25,66.88 z M 799.219,438.281 c -11.059,5.547 -24.34,17.5 -22.309,19.61 1.02,1.058 7,-0.86 12.43,-3.282 43.781,-18.437 77.808,-17.269 130.039,1.68 3.941,1.441 9.84,-6.09 7.652,-10.238 C 903.91,411.84 829.02,424.02 799.219,438.281 z m -23.129,51.328 c -10.039,15.121 3.32,3.672 7.781,-0.629 32.418,-30.152 76.328,-40.351 114.02,-11.949 1.757,1.949 1.988,3.75 1.449,5.117 -1.059,2.774 -1.059,-0.199 -17.192,-5.777 -36.168,-13.562 -66.679,-2.422 -96.41,20.309 -12.218,9.449 -17.929,14.101 -17.929,16.558 0,2.274 2.269,3.711 6.41,2.973 2.543,-0.43 9.691,-1.91 14.883,-2.34 9.058,-0.75 8.359,-0.351 17.617,3.938 19.84,9.14 38.082,12.5 58.832,8.793 4.801,-0.864 10.82,-2.461 11.64,-2.192 4.649,1.57 -2.23,7.66 -19.769,21.57 -3.473,2.77 -7.774,5.11 -9.184,7.461 -2.218,3.707 0.203,4.68 2.703,4.649 7.219,-0.078 39.649,-27.192 50.778,-43.289 3.402,-4.879 5.703,-5.422 5.742,-10.5 -0.66,-5.281 -1.52,-10.352 4.219,-17.781 4.101,-5.27 8.09,-13.821 8.09,-14.25 0.07,-0.469 -0.79,-3.129 -4.571,-0.668 -1.679,0.347 -2.539,2.187 -5.668,1.718 -2.73,-0.39 -7.191,-2.539 -12.031,-4.84 -45.469,-29.218 -87.301,-14.96 -121.41,21.129 z m 99.57,2.032 c 0.942,-0.082 -3.121,16.718 -7.691,21.679 -9.02,9.77 -22.809,11.52 -31.09,1.559 -4.688,-5.66 -9.848,-21.328 -9.848,-21.328 0,0 7.309,-2.141 9.34,-2.141 0.27,3.512 0.309,13.36 7.539,19.102 3.551,2.808 11.211,2.726 14.211,0.386 5.938,-2.886 8.438,-14.687 8.52,-19.257 3.238,-1.02 10.699,-0.121 9.019,0 z m -54.922,24.218 c -6.437,-2.847 -14.758,-4.808 -16.679,-9.058 -2.5,-5.672 6.41,-7.391 11.019,-9.301 6.402,-3.09 6.563,-1.949 8.633,3.012 1.289,3.039 3.008,7.066 4.609,10.777 4.801,9.262 0.039,7.973 -7.582,4.57 z m 69.34,-16.089 c 3.672,3.71 4.371,6.128 1.094,10.308 -1.524,1.91 -5.742,3.832 -10.391,5.391 -5.941,1.992 -8.511,4.41 -4.801,-3.629 l 5.348,-11.488 c 2.731,-5.512 5.121,-4.024 8.75,-0.582 z M 283.672,892.191 c 2.269,0 24.648,7.34 32.578,10.899 7.93,3 8.871,2.93 5.699,7.262 -1.168,1.636 -2.109,6.25 -1.558,11.328 l 0.629,7.031 c -13.79,2.809 -34.379,-4.801 -41.45,-14.449 -5.039,-6.172 -4.531,-19.883 4.102,-22.071 z m -2.774,-34.382 c 4.18,-4.219 5.313,-4.329 17.891,0.312 4.41,2.93 13.633,6.649 20.082,7.078 15.149,4.02 15.149,2.422 10.859,12.102 -2,4.461 -2.621,8.168 -2,12.308 0.711,4.879 1.29,5.551 -1.441,6.411 -7.269,2.261 -40.937,-10.36 -46.988,-20.161 -4.262,-6.879 -3.68,-12.808 1.597,-18.05 z M 1072.23,560.121 c -2.23,-3.281 -6.02,-9.101 -7.62,-13.051 -2.77,-6.84 -1.09,-8.121 0,-21.48 0.62,-7.738 0.82,-19.77 0.82,-26.25 0.04,-12.352 -0.12,-16.219 3.67,-16.918 3.32,-0.66 4.85,1.879 6.45,8.316 0.78,3.211 2.69,6.563 3.28,8.602 2.38,13.941 6.79,37.18 16.83,46.949 1.37,1.133 5.47,1.871 12.86,1.949 9.06,0.121 11.95,0.391 14.76,2.461 15.9,13.91 3.36,31.84 -10.78,33.09 -16.41,1.441 -38.98,-21.211 -40.27,-23.668 z m 62.97,5.82 c 0.97,-15.98 -14.93,-26.839 -31.1,-23.171 -6.56,1.679 -8.51,0.16 -12.93,-9.18 -9.53,-25.66 -13.32,-51.399 -15.82,-68.281 -1.09,-15.11 -6.68,-54.571 -2.65,-67.149 46.13,-56.988 94.64,-115.781 147.81,-174.449 l 316.09,-0.43 1.92,372.149 -91.84,86.8 0.2,137.649 c -98.29,-46.289 -196.26,-93.238 -294.34,-139.957 21.37,-68.551 -51.09,-82.934 -66.99,-36.953 -13.75,-12.617 -25.04,-80.699 -19.96,-84.059 0,0 1.83,-2.461 4.88,2.969 5,8.902 11.56,15.461 18.55,19.801 20.43,12.66 44.77,6.41 46.18,-15.739 z m -251.61,6.95 c -15.5,12.308 -7.18,31.129 5.711,36.757 6.828,3.012 17.769,2.582 29.84,-1.679 10.589,-4.848 16.91,-4.18 27.769,-2.848 7.231,0.82 5.899,-14.262 -1.64,-18.172 -5.309,-2.73 -17.461,-1.437 -32.258,7 -25.512,14.531 -36.723,-4.34 -20.942,-21.328 8.789,-9.383 -6.211,-1.883 -8.48,0.27 z m -525.391,225.39 c 13.641,8.75 7.973,24.258 -4.758,26.84 -17.113,-0.351 -21.453,-20 -9.222,-26.801 0,-2.379 -6.059,-0.429 -9.379,2.032 -5.07,3.828 -0.43,18.75 -5.192,19.339 -3.597,-0.043 -38.949,-12.543 -42.769,-15.043 -15.859,-9.027 -0.981,-29.378 8.242,-27.027 19.141,4.84 45.149,9.141 63.078,20.66 z M 279.18,827.34 c 0.351,-9.059 2.89,-13.078 8.832,-13.16 12.418,2.148 24.019,8.09 35.617,11.84 9.07,2.96 12.742,6.281 5.82,11.992 -2.07,2.379 -3.937,5.816 -2.929,12.34 2.39,7.5 0.55,7.847 -2.61,8.199 -3.172,0.398 -10.359,-2.653 -28.871,-9.762 -9.769,-3.711 -11.641,-5.348 -14.18,-10.699 -1.089,-4.11 -1.8,-6.641 -1.679,-10.75 z M 382.23,710.391 c 2.149,2.539 6.911,18.32 6.911,22.23 -0.981,6.481 -5.821,7.969 -10.082,3.789 -5.188,-4.691 -3.829,-11.719 -6.911,-17.109 -1.058,-1.879 -2.187,-4.461 -1.878,-5.512 1.679,-5.668 8.64,-6.719 11.96,-3.398 z m 40.54,85.98 c 158.402,168.707 256.57,402.149 84.89,724.099 -19.262,8.2 -25.199,-23.09 -27.039,-24.38 l -21.949,-19.1 C 574.879,1276.6 554.691,1046.13 412.621,882.23 l 0.149,-10.429 c 0.351,-22.852 6.921,-21.879 16.57,-11.18 10.191,10.75 3.359,2 -0.789,-2.422 -3.59,-3.82 -9.332,-11.398 -10.852,-13.359 1.871,-13.75 10.539,-39.328 5.071,-48.469 z m -10.5,50.699 c -1.649,4.532 -3.36,14.961 -4.258,22.969 -0.551,5.231 -0.742,10.16 -1.024,15.231 -1.679,10.16 -5.816,33.402 -9.179,38.558 -3.629,5.512 -12.5,9.57 -22.379,10.192 -8.442,0.55 -9.141,0.39 -10.942,-2.34 -3.078,-4.731 -0.968,-28.559 2.192,-37.301 3.519,-10.238 1.441,-15.828 -1.41,-25.981 -1.008,-3.668 -1.36,-3.91 0.429,-4.179 7.93,0.551 10.551,10.269 13.68,7.383 1.051,-1.051 -1.68,-9.024 -5.399,-17.071 -3.859,-8.48 -5.031,-20.152 -0.429,-34.531 2.621,-8.051 1.527,-10.59 -0.071,-15.43 -1.019,-3.242 -2.859,-13.199 -2.929,-23.09 3.711,-12.421 1.828,-17.96 -0.321,-22.07 -4.718,-10.5 -8.351,-24.762 -5.82,-32.769 1.102,-3.52 4.031,-0.512 6.141,5.507 3.32,11.872 7.219,14.532 16.988,14.532 7.109,0 7.77,-2.5 10.121,0.699 5.352,7.191 18.36,32.781 18.629,39.922 5.039,18.168 5.27,33.789 -4.019,59.769 z m 75.742,-119.41 c 4.328,1.602 10.937,10.738 10.937,13.86 0.031,3.441 -26.57,29.3 -37.621,36.41 -5,3.242 -7.379,0.941 -16.25,-10.981 -7.848,-10.578 -8.906,-10.699 -7.418,-12.73 1.75,-2.457 28.82,-20.039 37.809,-25.039 3.082,-1.719 8.359,-3.129 12.543,-1.52 z m 49.797,45.93 c -3.981,3.051 -35.739,38.32 -45.188,40.039 -3.601,0.672 -15.082,-12.418 -15.082,-15.391 0,-2.027 19.84,-22.218 33.91,-34.527 4.02,-3.481 8.43,-6.371 9.84,-6.371 4.492,2.308 15.941,11.57 16.52,16.25 z m 33.75,33.289 c 0,2.07 -3.469,6.359 -12.071,14.762 -21.789,21.41 -33.898,31.211 -37.726,31.168 -4.184,-1.36 -11.762,-14.059 -12.192,-18.508 1.41,-2.621 37.891,-35.711 42.621,-38.91 5.821,-5.621 18.547,7.5 19.368,11.488 z m 34.222,34.141 c 0.938,3.121 -0.902,5.82 -5.511,10.23 -3.282,3.129 -14.918,14.531 -25.86,25.309 -22.93,22.582 -22.961,22.621 -30.351,12.031 -7.579,-10.86 -7.539,-10.93 14.851,-32.731 23.82,-23.281 29.41,-27.968 33.078,-27.968 5.672,2.578 11.84,6.949 13.793,13.129 z m -255.582,20.39 c -3.988,1.168 -7.66,0.469 -10.82,-2.031 -16.879,-14.34 7.07,-32.859 16.949,-21.328 6.563,6.48 6.293,20.39 -6.129,23.359 z m 290.66,15.039 c 0,2.379 -4.918,7.77 -21.949,24.063 -42.148,40.226 -40.281,38.707 -44.961,36.207 -2.898,-1.559 -8.558,-12.379 -8.558,-16.41 0,-3.008 4.058,-7.188 35.308,-36.36 18.321,-17.109 23.711,-21.41 26.879,-21.41 5,2.461 13.082,7.813 13.281,13.91 z M 351.25,874.922 c 8.281,3.598 9.84,12.578 5.16,19.648 -9.031,7.93 -21.531,1.371 -21.762,-8.871 1.563,-9.57 9.692,-13.629 16.602,-10.777 z m 324.262,35.308 c 0,4.809 -72.192,72.309 -77.352,72.309 -3.469,0 -5.969,-2.809 -9.25,-10.469 -2.859,-6.64 -2.539,-10.55 1.012,-13.98 5.238,-5.039 19.137,-17.86 32.379,-29.852 7.82,-7.066 16.84,-15.539 20,-18.789 7.429,-7.609 15.59,-13.508 18.719,-13.508 4.492,2.61 10.699,6.129 14.492,14.289 z M 347.5,918.949 c 0.039,2.692 -0.66,5.461 -2.578,7.531 -4.961,5.282 -14.184,2.5 -16.481,-4.492 -2.113,-16.437 18.36,-17.148 19.059,-3.039 z m 53.441,525.431 14.137,43.16 43.121,1.13 6.063,42.89 44.41,6.41 0.707,44.33 42.461,5.82 -2.621,47.47 39.371,9.33 -1.949,43.95 35.781,10.97 -1.402,38.28 6.128,4.81 -15.468,15.74 -13.321,-4.33 -0.238,-39.3 -35.781,-11.52 3.789,-43.52 -36.129,-8.24 -0.469,-47.31 -41.48,-4.65 -2.973,-41.75 -40.508,-7.97 -6.019,-40.9 -39.289,-2.66 -11.992,-35.93 -25.981,-0.32 0,-24.06 39.652,-1.83 z M 870.309,672.031 c -1.329,3.199 2.191,2.739 8.363,-1.172 6.488,-4.058 15.859,-7.461 22.539,-7.461 2.769,0 12.738,1.762 22.109,3.942 11.211,4.109 21.168,4.34 32.809,1.84 8.641,-1.168 17.351,-2.11 19.383,-2.11 5.777,-0.781 15.578,6.328 18.199,10.821 7.109,12.187 5.43,-9.922 5.43,-12.461 0.16,-11.328 1.559,-24.34 -6.563,-18.282 -4.808,2.461 -13.168,4.692 -19.879,0.192 -6.719,-4.488 -12.308,-5.43 -20.199,-0.699 -6.48,2.578 -9.879,3.089 -14.77,-1.411 -5.39,-5 -18.468,-3.242 -25.5,-0.929 -12.07,2.027 -18.832,3.75 -26.921,-2.621 -4.289,-2.5 -5.43,-0.629 -8.668,8.91 -3.243,9.57 -5.821,20.23 -6.332,21.441 z M 901.051,680 c -0.781,1.25 5.711,7.578 10.078,9.84 12.851,6.64 38.32,6.332 56.57,-0.391 9.531,-3.508 10.973,-9.527 1.711,-8.238 -19.211,4.019 -43.359,7.34 -61.949,-1.52 -1.481,-0.781 -6.051,-0.281 -6.41,0.309 z m 16.289,30.078 c -13.16,4.883 -19.641,10.082 -19.641,11.723 0,1.789 2.852,1.437 13.16,-1.371 14.102,-5.231 30.782,-7.969 44.692,-3.129 10,3.719 15,6.058 15,3.828 0,-2.34 -4.141,-8.469 -11.02,-11.988 -13.672,-5.59 -31.722,-2.93 -42.191,0.937 z m 285.67,36.524 9.76,1.367 -3.39,40.742 35.97,10.668 -2.54,40.543 38.36,13.199 -2.3,45.629 39.84,7.852 5.2,39.918 37.61,2.66 7.82,43.441 40.39,1.399 8.32,36.1 26.87,0.19 -0.12,20.28 -41.87,-0.16 -8.87,-39.06 -39.53,-1.14 -8.36,-42.929 -41.44,0.32 -5.32,-46.293 -38.98,-6.367 0.04,-49.84 -37.58,-9.73 2.89,-42.621 -37.54,-13.711 4.22,-40.618 10.55,-11.839 z m 251.17,956.328 c -5.39,-3.83 -7.42,-11.41 -5.78,-17.58 5.31,-13.98 23.94,-9.61 26.13,0.55 1.13,4.41 -1.8,11.05 -6.91,12.5 -0.86,0.27 -4.03,-0.04 -5.67,1.68 -1.21,1.21 6.21,5 10.59,3.59 5.43,-1.83 9.88,-9.02 9.92,-15.27 0,-2.42 -0.7,-6.02 0.2,-7.23 8.98,0.24 19.29,5.2 28.98,7.89 16.33,4.49 22.23,13.87 18.59,24.85 -3,9.14 -12.34,12.77 -24.64,8.12 -16.88,-6.33 -36.68,-9.37 -51.41,-19.1 z M 757.109,702.34 c 55.313,38.871 87.852,61.058 158.832,64.89 -25.32,10.43 -29.461,24.098 -36.562,37.18 -87.93,-8.32 -134.609,-36.359 -176.367,-62.57 17.258,-8.129 35.269,-17.578 54.097,-39.5 z m 308.201,53.871 c -26.83,18.949 -58.71,30.43 -91.83,39.258 L 948.121,769.18 c -1.48,0.941 73.439,-0.739 117.189,-12.969 z m 257.39,249.339 c -172.9,265.7 -56.76,499.49 63.47,648.47 3.87,4.89 4.81,5.12 3.95,9.03 -1.14,5.11 -2.58,30.93 -1.68,45.86 -222.27,-220.24 -227.93,-507.19 -88.56,-734.93 9.96,8.911 30.08,20.75 22.82,31.57 z m 25.93,22.73 c -28.36,47.27 -179.57,303.2 51.37,588.71 0,0 -0.82,14.57 -2.54,20.04 -3.08,9.81 -7.93,13.75 -7.93,13.75 -96.95,-145.58 -237.93,-327.73 -61.87,-644.1 l 20.97,21.6 z m -132.18,481.68 c 3.43,2.85 8.47,13.09 8.47,17.31 0,3.78 -2.73,6.91 -28.79,33.35 -34.72,35.24 -40.7,40.63 -45.15,40.63 -4.22,0 -15.16,-10.43 -15.16,-14.37 0,-1.92 10.2,-12.93 34.34,-37 44.76,-44.68 42.61,-42.89 46.29,-39.92 z m 31.95,64.92 c 0,2.11 -3.2,6.33 -10.82,14.14 -20.08,20.67 -48.71,46.88 -51.21,46.88 -3.21,0 -11.96,-7.11 -14.26,-11.56 -1.6,-3.13 -1.6,-3.83 0.31,-6.8 3.56,-5.55 48.32,-48.05 61.06,-58.75 7.65,-6.99 14.57,10.74 14.92,16.09 z m 17.34,26.33 c 3.52,1.91 10.28,14.49 9.46,17.7 -0.4,1.52 -11.76,13.75 -25.28,27.18 -26.72,26.61 -28.24,27.54 -34.92,21.61 -6.02,-5.4 -9.8,-10.82 -9.06,-12.97 0.9,-2.66 40.9,-43.32 49.1,-49.93 6.44,-5.19 7.19,-5.42 10.7,-3.59 z m 203.87,1.99 c 12.58,12.03 -1.68,25.28 -11.99,19.18 -4.42,-2.73 -7.03,-8.67 -5.67,-12.61 2.23,-6.53 11.1,-10.08 17.66,-6.57 z m 24.88,3.09 c 21.25,5.55 31.45,9.3 35.9,15.94 3.05,4.57 3.4,7.38 -0.04,14.88 -3.2,6.87 -6.95,8.98 -20.27,1.68 -9.14,-5 -29.49,-7.38 -36.6,-11.6 -2.86,-2.46 -1.49,-2.42 0.82,-3.87 5.11,-3.28 7.61,-5.47 7.07,-9.8 -1.21,-9.34 -0.24,-10.79 13.12,-7.23 z m -22.5,33.32 c 10.31,5.27 8.24,18.01 -3.28,23.09 -15.23,3.98 -25.04,-14.34 -12.58,-23.25 3.36,-2.34 11.8,-1.91 15.86,0.16 z m 34.3,5.16 c 14.92,5.11 20.66,9.1 24.96,17.34 3.4,6.56 1.95,9.45 1.52,15.78 -0.7,9.57 -5.5,8.48 -19.41,3.48 -6.8,-2.62 -39.3,-11.76 -39.73,-15.08 15.67,-8.99 11.68,-13.71 11.8,-25.16 0.82,-2.58 8.16,-0.74 20.86,3.64 z M 1302.85,1660 c 0,4.34 -41.68,45.16 -46.09,45.16 -6.92,0 -16.76,-10.71 -15.28,-16.57 0.67,-2.65 39.77,-42.03 44.65,-44.92 6.8,-4.02 16.29,9.81 16.72,16.33 z m 23.99,25.47 c 1.79,1.41 4.96,5.08 7.07,8.12 4.49,6.53 4.18,10.16 -1.21,13.64 -1.96,1.25 -10.71,9.14 -19.42,17.57 -8.71,8.4 -16.99,15.71 -18.36,16.22 -7.19,0.93 -20.15,-10.59 -18.83,-16.45 0.79,-3.09 32.74,-34.57 39.89,-39.26 4.61,-3.04 6.79,-3.01 10.86,0.16 z m 56.44,60.82 c 0,1.17 -7.26,5.86 -18.87,12.15 -35.5,19.29 -36.13,19.41 -47.22,10.39 -3.79,-3.09 -6.92,-6.64 -6.92,-7.85 0,-1.25 7.7,-9.5 17.5,-18.75 20.39,-19.3 25.39,-23.44 28.25,-23.44 5.86,4.3 26.36,22.15 27.26,27.5 z m 49.73,18.16 c 4.37,5.24 9.29,23.44 6.95,27.07 -2.15,2.19 -7.69,1.84 -10.35,-0.54 -2.73,-2.5 -9.49,-25.36 -8.44,-28.05 1.06,-2.77 8.01,-1.48 11.84,1.52 z M 1045.08,990.039 c 3.36,0.43 9.92,4.531 19.49,12.771 10.23,8.79 42.66,28.32 46.17,36.17 1.56,4.5 0.43,10.9 -2.97,11.37 -2.54,0.39 -3.08,-1.6 -24.65,-17.11 -14.53,-10.47 -40.07,-29.22 -43.9,-33.16 -1.68,-4.26 2.11,-9.611 5.86,-10.041 z m -3.01,-125.16 c 22.19,15.391 40.12,31.332 69.06,49.141 2.23,2.929 2.58,7.351 1.21,10.902 -1.68,4.457 -4.02,2.699 -12.77,-3.402 -21.33,-14.329 -43.24,-31.25 -61.6,-43.79 -5.9,-3.98 -10.86,-6.21 -9.61,-8.429 1.68,-2.973 10.78,-3.91 13.71,-4.422 z m 21.56,-9.449 c 14.57,11.91 32.03,23.32 47.62,34.84 2.19,2.191 2.73,9.531 0.51,12.539 -1.76,2.39 -0.31,1.961 -4.61,-0.508 -6.33,-3.59 -44.03,-29.289 -51.06,-35.11 -4.1,-3.402 -7.54,-5.082 -6.52,-6.25 4.73,-3.05 9.73,-4.921 14.06,-5.511 z m 18.32,-9.258 c 3.01,2.027 28.95,18.598 31.06,20.816 2.38,2.5 1.68,13.793 -0.63,14.692 -6.56,-5.2 -41.13,-26.289 -41.21,-29.692 3.52,-3.16 8.17,-6.047 10.78,-5.816 z m 27.74,-2.301 c 3.98,3.668 4.76,4.289 4.84,8.359 0.16,7.418 -1.68,7.11 -12.23,-0.429 -7.38,-4.813 -11.87,-8.129 -10.54,-11.02 5.23,-8.203 12.69,-1.722 17.93,3.09 z m 2.85,-15.121 c 2.07,0.738 2.11,1.84 1.8,4.41 -0.36,2.891 -0.75,2.781 -3.91,2.781 -8.36,-0.32 -0.82,-7.929 2.11,-7.191 z m -100.94,41.449 c 3.79,12.571 9.14,22.531 17.85,31.992 34.89,30.899 24.22,68.938 2.19,99.919 28.52,39.88 56.99,82.15 81.45,120.9 l -0.08,62.93 3.28,-0.32 c -1.13,-137.42 5.16,-362.729 5.16,-362.729 l 28.32,-21.602 -3.79,-1.879 c 4.64,0.711 -82.5,55.281 -134.38,70.789 z m 25.59,15.699 c 24.14,18.204 47.61,32.5 71.52,51.911 2.54,2.07 4.06,2.191 4.14,6.961 0.12,9.058 -1.68,9.179 -10.62,2.769 -3.99,-2.848 -18.48,-12.969 -32.27,-22.269 -14.34,-9.68 -27.66,-18.321 -30.35,-21.442 -13.44,-15.59 -18.44,-22.93 -17.03,-25.199 1.44,-2.301 4.18,0.199 14.61,7.269 z M 1063.52,930 c 12.38,8.16 42.03,28.75 44.76,31.328 4.69,4.41 5.51,11.442 1.25,12.262 -2.07,0.39 -25,-14.918 -44.41,-29.641 -9.46,-7.148 -11.57,-8.789 -11.57,-15.551 0,-4.097 2.5,-3.32 9.97,1.602 z m 12.34,32.07 c 38.01,27.032 37.03,24.77 36.21,34.809 -0.27,3.391 -1.02,4.961 -2.54,5.231 -1.17,0.23 -7.89,-4.61 -15.47,-9.919 -7.54,-5.312 -16.56,-12.461 -21.09,-15.589 -13.2,-9.18 -17.58,-11.641 -17.58,-16.911 0,-5.16 1.41,-8.441 3.67,-8.441 0.86,0 8.44,4.879 16.8,10.82 z m -5.43,20.942 c 17.5,12.379 36.8,26.328 39.41,29.648 3.21,4.02 2.62,12.77 -1.44,12.77 -17.58,-11.76 -38.71,-27.192 -53.6,-39.379 -1.91,-1.672 -4.37,-3.321 -5.11,-5.5 -0.16,-2.891 3.43,-6.641 4.88,-6.762 2.89,-0.039 7.34,3.199 15.86,9.223 z m -11.41,41.828 c 13.36,9.07 25.51,19.85 38.79,28.99 9.96,6.79 12.81,8.9 12.23,17.5 -0.35,4.96 -4.73,2.11 -21.6,-9.14 -12.39,-8.24 -18.09,-11.53 -22.46,-17.15 -3.09,-7.15 -13.25,-13.83 -13.79,-21.95 0,-3.05 1.99,-1.61 6.83,1.75 z m 41.02,54.46 c 10.27,6.79 11.25,6.95 10.16,15.97 -1.41,11.33 -2.58,10.67 -12.39,-4.33 -6.44,-9.85 -8.67,-12.7 -7.69,-14.53 1.68,-3.13 3.55,-1.37 9.92,2.89 z m -37.38,83.2 c -1.1,5 -2.62,3.91 -7.78,-0.62 -9.53,-8.33 -11.01,-14.38 -5.11,-17.54 3.16,-1.68 5.58,-1.53 7.46,2.61 4.02,8.91 5.15,12.03 5.43,15.55 z m -53.28,-79.06 c -1.22,4.61 -6.84,10.86 -11.099,13.04 -4.222,2.19 -6.801,1.8 -10.859,-3.36 -3.711,-4.72 -1.992,-7.53 3.629,-14.64 4.109,-5.2 5.75,-6.84 8.989,-6.84 3.91,1.52 10.16,6.8 9.34,11.8 z M 803.199,885.23 c -2.687,5.239 -8.469,10.79 -11.09,9.848 -2.808,-0.976 -5.55,-5 -5.589,-7.5 1.179,-5.156 5.511,-8.629 8.871,-8.75 6.289,0.902 10.121,1.992 7.808,6.402 z m 25.16,7.969 c -5.429,5.75 -16.168,18.36 -17.929,18.36 -2.731,0 -9.301,-6.868 -9.301,-9.68 0,-3.359 9.769,-17.039 13.051,-18.129 8.199,0.781 23.32,-0.16 14.179,9.449 z m 31.02,-1.597 c -0.551,2.777 -31.141,35.277 -33.359,35.277 -2.93,0 -8.68,-6.41 -8.68,-9.34 0,-2.379 9.851,-15.269 18.988,-24.809 4.531,-4.718 4.922,-5.429 10.512,-4.531 6.051,0.942 13.98,-0.39 12.539,3.403 z m 54.019,7.269 c 0,6.559 -3.437,10.149 -17.226,25.078 -5,5.43 -13.473,14.84 -18.793,20.93 -10.309,11.762 -14.758,15.391 -18.859,15.391 -3.25,0 -8.211,-5.27 -8.211,-8.629 0,-2.153 25.39,-31.25 48.402,-55.981 5.117,-5.5 7.379,-7.07 12.309,-4.488 2.808,1.949 2.378,5.199 2.378,7.699 z m -39.769,78.008 c -5.149,-4.219 -7.109,-5.981 -7.109,-8.789 -0.04,-4.34 43.789,-52.5 47.699,-52.5 2.301,0 1.953,0.308 3.32,5.5 2.691,15.711 -1.559,20.32 -12.93,30.711 -7.621,6.949 -22.968,30.898 -30.98,25.078 z m 77.312,32.221 c -12.23,14.65 -18.992,21.37 -21.492,21.37 -1.719,0 -4.25,-1.64 -6.988,-4.69 -4.57,-4.3 -4.141,-4.14 -1.25,-9.3 1.519,-2.69 5.699,-7.93 9.379,-11.71 6.711,-6.961 10.191,-9.149 13.43,-5.821 2.89,2.961 9.96,6.441 6.921,10.151 z m -6.371,36.52 c -3.011,0.04 -8.011,-5.35 -8.011,-8.28 0,-2.46 9.921,-14.92 16.839,-21.09 5.622,-5.04 8.243,-6.37 12.153,-3.09 2.929,4.26 2.258,8.13 0.429,11.33 -4.96,5.67 -15.781,20.9 -21.41,21.13 z m 34.379,-3.59 c -0.078,4.3 -12.578,20.55 -16.57,22.19 -3.277,0 -10.27,-7.7 -10.27,-11.21 0,-1.92 2.661,-6.13 7.231,-11.41 8.898,-10.39 11.211,-12.65 13.16,-11.05 3.199,2.65 6.52,7.3 6.449,11.48 z m 14.141,18.36 c 0.82,3.56 -1.371,7.27 -6.371,13.52 -6.289,7.85 -9.34,8.39 -15.239,2.3 -2.179,-2.23 -3.199,-4.18 -3.199,-5.27 0,-3.01 13.129,-19.69 15.547,-19.69 5.66,0.7 7.383,4.8 9.262,9.14 z M 970,1019.1 c -1.172,-5.39 -3.441,-8.9 -8.629,-11.4 -40.043,-28.872 -38.75,-75.899 -47.312,-119.302 -64.84,0.661 -167.379,-25.976 -166.758,-27.347 l 344.689,347.699 c 0,0 4.26,-1.05 1.64,-4.1 -27.89,-20.08 -26.13,-59.06 -44.49,-78.6 C 1018.48,1089.02 990,1056.88 970,1019.1 z M 782.93,877.07 c 0.55,3.95 -3.051,5 -6.211,1.84 -3.09,-3.09 -1.879,-5.512 2.543,-5 2.297,0.27 3.398,1.211 3.668,3.16 z m 106.211,14.61 c 1.289,3.32 -1.719,6.41 -20.192,26.91 -18.719,20.75 -22.969,25.59 -26.179,25.59 -2.77,0 -9.45,-6.801 -9.45,-9.571 0,-1.289 2.93,-5.468 6.52,-9.339 3.601,-3.86 10.43,-11.442 15.16,-16.872 8.16,-9.296 12.07,-13.789 15.16,-15.976 3.039,-2.152 5.352,-2.031 10.27,-2.031 6.679,0 8.16,-0.192 8.711,1.289 z m 31.949,65.23 c 1.289,4.11 3.09,7.699 3.129,9.219 0,2.851 -23.598,26.961 -27.617,29.531 -4.762,3.09 -13.75,-7.031 -11.524,-12.89 0.621,-1.641 7.652,-9.879 15.621,-18.36 10.121,-10.781 15.199,-15.859 16.84,-15.582 1.68,0.231 1.91,2.774 3.551,8.082 z m 9.89,25.32 c 1.719,2.54 3.122,5.891 3.122,7.461 0,1.758 -3.942,6.52 -9.571,12.889 -10.551,11.83 -13.242,13.2 -19.019,7.69 -5.742,-5.5 -3.793,-8.04 6.328,-19.489 12.609,-14.332 14.058,-16.051 19.14,-8.551 z m 90.27,113 c 3.91,4.69 4.02,7 0.43,11.25 -1.56,1.84 -3.75,4.46 -4.96,5.9 -3.24,3.87 -7.5,3.24 -11.95,-1.79 -2.11,-2.43 -3.52,-4.85 -3.48,-5.67 0,-0.82 2.26,-4.14 5.04,-7.38 6.21,-7.27 10.08,-8.05 14.92,-2.31 z m 13.83,17.86 c 2.65,4.06 1.44,8.55 -3.56,13.12 -4.72,4.3 -7.07,4.49 -10.39,0.82 -4.45,-4.96 -3.71,-6.6 1.06,-11.87 5.39,-5.98 9.72,-6.88 12.89,-2.07 z m 11.09,14.8 c 3.67,3.67 3.6,6.84 0.31,11.06 -3.12,3.94 -6.32,5 -9.57,3.28 -5.7,-3.05 -5.07,-8.28 0.51,-14.14 3.36,-3.6 4.96,-3.99 8.75,-0.2 z M 782.422,386.211 c 70.59,-7.891 146.449,-13.441 280.118,7.34 l 0.66,45.359 c -41.68,-32.5 -96.399,-10.199 -99.571,27.219 -0.391,33.359 8.519,71.84 16.062,99.262 5.579,20.39 7.188,28.281 1.95,32.23 -11.563,6.52 -32.032,7.34 -37.231,20.899 -2.531,7.14 -2.769,14.8 0.899,9.332 1.679,-2.5 15,-8.711 25.39,-11.012 18.129,-4.07 21.02,-5.391 23.09,-12.82 1.289,-4.719 -1.719,-20.899 -6.488,-35.54 -3.391,-10.468 -7.379,-27.269 -7.379,-30.511 0,-3.559 2.777,-4.098 5.898,-3.129 1.328,0.43 7.7,6.801 11.68,10.359 17.42,15.5 22.46,15.071 7.62,-0.121 -5.94,-6.058 -14.069,-14.379 -14.069,-15 0,-3.199 3.008,-2.848 9.689,-0.43 10.28,3.711 34.38,3.282 45.12,-2.109 13.32,-6.719 13.91,-6.41 13.59,13.91 -2.38,37.93 -8.59,82.852 -20.93,117.891 -18.87,53.43 -58.051,103.039 -115.899,100.82 -70.551,-3.68 -113.133,-31.762 -161.141,-65.43 28.989,-64.3 -12.89,-113.558 -28.039,-120.039 -1.492,-0.632 18.981,-65.39 27.731,-98.281 7.93,-29.89 21.25,-90.199 21.25,-90.199 z M 1082.73,1937.19 c -1.64,4.26 -40.89,132.11 -51.87,185.58 -106.09,6.18 -184.532,15 -277.93,-11.52 0,0 -2.032,-36.02 -1.051,-37.77 0.93,-4.46 4.172,-4.34 6.793,-2.89 43.168,23.71 89.918,13 93.168,-45.43 1.211,-22.35 -6.289,-38.09 -7.66,-59.26 -1.168,-18.48 -15.739,-43.13 -6.91,-57.19 1.128,-1.72 7.339,-5.12 15.82,-8.79 15.859,-6.76 22.07,-13.01 23.238,-23.36 1.723,-7.15 -2.656,-11.95 -3.988,-4.61 -0.82,4.69 -1.641,8.79 -21.211,15.47 -19.059,6.53 -24.18,14.1 -26.09,18.09 -2.617,5.51 -2.148,9.37 0.313,18.16 5.238,18.63 10.386,37.62 9.878,46.6 -0.152,3.25 -3.75,1.68 -8.32,-2.22 -5.781,-4.93 -30.66,-21.29 -31.359,-20.63 -0.321,0.35 4.097,6.96 11.09,13.6 8.437,8.08 18.949,17.85 18.949,19.64 0,3.17 -1.25,0.94 -9.461,-1.48 -14.25,-3.91 -30.699,-3.36 -41.75,1.52 -9.379,4.14 -15.938,6.53 -17.309,4.26 -3.48,-56.95 4.961,-115.66 28.871,-161.44 21.399,-41.61 65.899,-93.72 132.77,-82.04 69.141,12.07 136.369,67.7 133.989,67.74 -25.82,58.44 3.59,101.91 30.03,127.97 z M 534.801,382.422 C 504.18,413.09 426.949,446.48 373.91,461.801 c -4.262,0.898 -8.441,2.929 -8.48,-2.11 L 364.801,354.41 270,265.551 l 1.641,-43.36 201.211,0.969 133.558,195.789 c 0,0 6.442,1.172 7.141,2.379 -24.531,103.981 -61.442,186.992 -84.879,228.633 0.387,-0.512 -33.711,-27.582 -63.711,6.059 -16.84,18.859 -6.52,52.031 9.449,64.179 -13.469,9.879 -41.398,27.852 -59.68,33.039 -3.832,0.942 -9.5,-6.758 -11.371,-13.75 -3.32,-11.328 -8.91,-21.437 -12.621,-32.847 -4.097,-9.532 -8.078,-10.981 -14.179,-8.321 -9.528,2.852 -12.071,3.828 -12.071,3.828 l 0.313,-123.75 c 73.211,-25.386 148.519,-90.468 170,-195.976 z m 304.219,1322.538 21.718,23.56 c -34.328,4.21 -70.308,10.35 -112.379,23.55 29.219,-21.72 59.801,-35.16 90.661,-47.11 z m -119.18,66.29 c 38.25,-12.77 86.64,-42.5 147.07,-31.33 -55.07,21.88 -96.91,72.93 -114.719,176.88 -3.91,-20.2 -11.961,-62.15 -24.652,-66.68 -17.809,68.98 -89.488,28.86 -60.738,-27.39 -72.621,-49.92 -159.961,-78.08 -239.141,-116.56 0,0 -11.961,-36.6 -71.25,-86.72 -11.211,58.79 2.11,145.98 -4.808,205 l -93.012,87.85 c 1.41,-16.71 0.75,-27.1 0,-46.71 2.582,-3.4 6.101,-5.2 9.691,-7.31 6.02,-338.55 -2.07,-673.2 -1.992,-980.659 -0.937,-188.441 4.063,-384.769 1.289,-562.699 l -3.476,-6.402 0.16,-42.54 94.957,90.43 c 0,0 -4.418,64.18 0.551,113.199 59.96,-12.07 115.851,-40.23 165.968,-71.129 6.293,-1.761 -30.777,123.2 -165.539,178.711 0,0 -0.199,39.02 -0.199,123.86 0,81.84 -1.25,90.508 -3.09,91.84 -5.461,-5.942 -74.41,-29.18 -77.93,-25.231 1.84,-0.629 -19.449,144.84 -1.011,166.949 l 65.98,-1.41 c 18.86,-15.187 11.281,3.321 22.223,6.41 6.598,1.762 37.109,-10.16 37.109,-10.16 125.739,148.481 113.199,392.621 22.93,529.961 -23.121,-18.75 -47.691,-44.21 -70.902,-55.11 -0.27,0.78 -0.387,75.7 -0.387,75.7 120.156,77.15 250.859,300.59 242.539,301.33 0,0 37.187,-36.25 51.641,-56.72 L 530.469,1552.77 c 27.191,-54.68 54.652,-104.29 72.5,-152.42 2.422,-6.48 9.84,-6.33 11.722,-13.16 1.598,-5.86 -5.55,-13.99 -4.57,-20.43 25.039,-95.74 30.699,-197.35 6.008,-289.38 -5.188,-20.7 4.34,-37.5 17.07,-53.08 1.063,-1.37 -11.871,11.21 -13,11.91 -4.461,2.66 -11.84,-6.68 -13.398,-18.48 1.008,-7.22 4.918,-8.51 10.109,-14.37 9.18,-7.622 45.551,-43.399 61.57,-59.77 14.219,-14.531 17.891,-15.192 27.5,-4.879 2.692,2.539 5.5,5.98 8.122,8.09 0.468,-0.781 4.019,2.929 5.238,4.097 L 933.551,1160 c 24.89,24.26 -213.903,-219.41 -213.903,-219.41 0,0 -115.777,-113.68 -144.179,-141.68 -29.34,-28.949 -33.321,-35.32 -34.489,-37.461 -2.07,-3.828 9.45,-3.719 14.719,-2.929 0.43,0.031 -4.41,-1.141 -9.289,-1.098 -30.16,6.758 -40.43,-26.602 -59.461,-33.32 C 436.68,688.398 470.469,631.051 518.551,650 l 11.679,5.621 C 559.379,601.52 601.371,502.969 621.09,417.34 l -7.93,-3.668 -126.711,-190.082 718.591,0 c -51.64,51.371 -95.55,114.461 -140.24,161.68 -71.679,-21.442 -288.351,-17.071 -284.96,-7.731 0,0 -32.809,132.813 -51.36,198.082 58.899,50.43 52.891,130.039 -32.621,165.75 62.231,49.18 124.922,65.82 186.02,69.801 19.84,-50.391 66.441,-53.551 88.43,-7.422 0.16,0.551 82.621,-25.352 113.011,-53.359 -45.08,4.687 -89.609,13.668 -134.73,15.82 39.73,-15.699 80.16,-56.641 93.13,-103.481 6.33,-16.71 16.01,-71.949 18.59,-72.14 0,0 15.04,63.789 26.72,60.269 29.77,-62.109 81.06,-15.39 59.45,34.063 75.79,36.168 161.1,76.598 230.82,110.117 20.36,30.699 70.4,88.981 73.68,89.223 0,0 92.03,527.258 91.99,703.548 -3.05,211.88 4.26,447.78 -4.88,645.98 l -0.08,56.95 -194.38,-0.08 -138.79,-204.06 c 0,0 -1.01,-3.24 -1.01,-4.65 18.94,-82.34 43.24,-152.38 81.37,-228.47 52.61,39.76 96.95,-25.71 57.5,-63.68 -7.43,-7.14 -5.43,-8.94 1.99,-13.9 7.3,-4.88 57.22,-30.04 59.57,-30.04 9.02,13.44 11.64,33.24 17.73,48.4 1.53,5.74 5.9,6.44 14.57,5.43 11.21,-1.33 11.14,-5.98 10.78,65.19 l -0.31,61.14 c -67.46,31.05 -156.8,110.07 -160.98,192.22 39.03,-28.4 128.64,-69.65 152.58,-73.32 10.51,-2.97 8.91,15.35 9.22,22.74 2.85,-1.92 3.87,-30.24 3.87,-30.24 -39.57,11.99 -60.31,9.53 -159.14,66.8 16.95,-80.78 97.85,-144.53 156.52,-173.6 0,0 2.46,-38.39 2.35,-81.36 -0.4,-131.14 0.93,-136.92 0.93,-136.92 0,0.08 32.31,8.25 41.25,12.7 16.02,12.81 41.68,2.97 45.24,-6.45 5.19,-49.49 0.19,-95.39 -0.9,-142.61 -27.35,-1.96 -42.35,-7.74 -55.82,-8.28 -8.79,1.17 -14.1,1.25 -18.6,6.21 -13.04,28.24 -12.22,10.35 -13.78,-10.86 -1.22,-6.25 -33.91,4.65 -37.19,6.52 -141.17,-162.54 -129.14,-349.65 -33.24,-522.97 15.82,10.7 43.08,31.1 70.39,44.49 0.66,-22.03 1.01,-67.42 1.01,-67.42 C 1340.2,942.578 1207.81,727.699 1212.3,727.109 l -44.92,53.629 c 0,0 28.28,44.922 38.24,56.801 1.18,1.371 1.92,15.313 1.92,15.313 l 68.63,99.218 c -31.05,54.96 -52.22,101.99 -74.29,156.02 -1.26,4.53 -6.68,23.98 -5.47,25.82 -45.79,206.83 3.82,309.72 0.15,317.57 0,0 -0.58,4.14 -1.56,4.97 -1.52,1.25 0.39,2.42 2.07,5.39 3.24,5.7 8.48,17.46 6.68,20.93 -1.29,2.58 -38.44,39.73 -70.27,70.28 -16.76,16.09 -16.1,17.93 -24.73,9.14 -3.2,-3.24 -11.09,-12.5 -11.09,-12.5 -115,-106.41 -206.289,-203.32 -321.719,-316.6 l -5.55,5.03 C 938.32,1405 1107.77,1570.23 1274.02,1738.75 l -29.22,-0.51 c 0.82,2.11 2.04,4.1 3.72,4.69 15.7,-0.04 31.83,4.73 43.47,11.33 23.71,17.62 57.78,41.21 60.43,64.45 -1.72,44.73 -39.45,51.21 -66.68,29.34 -37.85,68 -67.81,149.84 -83.9,226.21 -0.75,3.79 -6.1,10.31 -6.88,14.65 8.13,25.39 136.68,200.58 136.68,200.58 l -722.109,0 137.418,-163.63 c 0,6.52 195.86,29.65 285.591,2.34 l 54.61,-194.06 c -49.61,-47.97 -64.3,-126.87 26.99,-167.93 1.76,-3.87 -8.67,-10.19 -8.67,-10.19 1.48,2.38 3.98,4.8 2.97,6.99 -24.61,10.74 -50.94,37.97 -50.94,37.97 -54.92,-42.89 -106.25,-66.76 -156.52,-68.87 0,0 26.559,-18.01 31.68,-37.77 0,0 -2.461,0.27 -3.09,1.09 -5.468,6.64 -18.011,28.2 -28.55,34.53 -17.899,4.3 -28.481,1.17 -42.622,-8.55 l -19.097,-18.48 c -43.871,13.36 -92.621,35.16 -119.461,68.32 z m -7.34,-474.96 20.039,19.76 c 2.262,14.65 6.25,33.29 23.16,53.6 18.789,22.54 39.531,43.71 54.813,63.75 18.359,24.1 28.316,45.9 23.468,56.01 27.348,4.93 52.469,29.07 53.25,72.86 0.348,23 11.442,56.56 12.258,56.09 0,0 190.902,6.48 322.192,131.68 0,0 9.18,-1.99 7.03,-3.67 -49.76,-49.85 -102.66,-86.57 -165.19,-109.96 l -344.93,-344.53 -6.09,4.41 z m 38.199,39.53 c 5.16,5.16 6.332,6.84 3.403,9.26 -4.454,3.71 -13.012,-3.91 -13.012,-11.56 0,-4.89 3.871,-3.44 9.609,2.3 z m 17.852,17.54 c 4.109,3.94 3.949,6.8 0.551,10.19 -4.653,4.65 -11.442,1.8 -13.711,-5.74 -2.301,-7.58 6.718,-10.62 13.16,-4.45 z m 15.711,15.9 c 2.109,2.42 3.859,4.88 3.859,5.47 0,2.69 -6.601,8.75 -9.492,8.75 -3.707,0 -10.309,-6.25 -10.309,-9.73 0,-2.89 6.641,-8.87 9.84,-8.87 1.25,0 3.988,2 6.102,4.38 z m 14.84,29.61 c -4.723,3.94 -7.813,3.98 -11.68,0.11 -4.492,-4.49 -4.024,-9.45 1.367,-14.18 4.063,-4.21 5.82,-3.82 11.332,-0.42 4.649,4.72 5.469,9.14 -1.019,14.49 z m 17.378,2.65 c 5.079,4.26 4.34,7.78 -1.21,13.28 -5.821,5.82 -10.309,5.9 -14.45,-0.27 -1.519,-2.34 -1.84,-4.65 -1.84,-5.31 0,-2.27 9.61,-10.82 12.149,-10.82 1.371,0 3.25,1.37 5.351,3.12 z m 16.719,16.49 c 4.301,4.53 3.75,7.73 -2.418,14.1 -5.191,5.35 -8.832,5.78 -13.402,1.52 -4.758,-4.41 -3.789,-9.02 1.57,-14.37 5.43,-5.43 9.449,-6.25 14.25,-1.25 z m 18.949,19.18 c 3.161,3.36 2.301,3.08 0.082,6.72 -3.48,5.62 -13.601,14.92 -16.492,14.92 -3.629,0 -6.789,-5.78 -6.758,-11.53 0,-5.66 2.782,-7.96 10,-13.63 4.77,-3.75 3.321,-4.1 7,-1.95 2.032,1.21 4.801,3.67 6.168,5.47 z m 15.043,13.75 c 6.758,7.73 5.469,9.22 -10.902,26.48 -5.551,5.82 -6.719,6.49 -10.668,6.17 -3.781,-0.31 -4.019,-1.25 -5.973,-5.23 -3.597,-7.31 -0.937,-11.06 9.372,-21.99 10.589,-11.29 12.152,-12.27 18.171,-5.43 z m 16.758,18.01 c 2.653,2.3 4.371,5 4.371,6.67 0,3.05 -13.242,17.74 -17.968,20.43 -3.364,1.96 -6.872,0.86 -11.211,-2.89 -2.621,-2.22 -2.539,-2.77 -1.95,-5.27 1.008,-4.02 18.079,-21.99 20.899,-21.99 1.172,0 3.469,0.94 5.859,3.05 z m 16.672,16.17 c 2.82,2.89 5.039,6.36 5.039,7.89 0,3.24 -14.289,19.76 -18.711,22.07 -3.789,1.99 -5.929,1.17 -9.648,-4.06 -4.289,-5.98 -2.61,-8.75 5.859,-18.52 8.051,-9.26 10.629,-12.07 12.11,-12.07 0.511,0 2.582,1.87 5.351,4.69 z m 15.707,16.91 c 3.633,2.19 8.32,6.84 6.402,10.59 -2.031,3.86 -27.031,30.39 -29.718,31.83 -5.282,2.82 -5.121,-1.25 -5.121,-14.37 l 0,-6.84 11.488,-11.25 c 16.793,-16.44 13.043,-12.46 16.949,-9.96 z m 20.352,18.67 c 1.992,2 3.871,5.35 3.871,6.6 -10.391,12.66 -40.629,52.66 -46.063,51.18 -0.578,-0.16 -0.816,-0.2 -1.207,-1.33 -1.332,-4.03 -1.91,-12.31 -0.941,-19.03 9.539,-9.14 32,-38.98 37.109,-40.85 3.012,-1.14 4.379,0.58 7.231,3.43 z m 16.25,17.03 c 1.91,1.84 3.48,4.3 3.48,5.51 0,1.21 -3.359,5.39 -6.961,9.61 -3.551,4.22 -10.539,12.74 -15.539,18.95 -28.441,35.5 -30.512,38.16 -34.89,34.53 -2.848,-2.35 -3.508,-10.71 -2.11,-13.83 2.5,-5.43 33.602,-42.89 43.602,-52.58 6.367,-6.13 7.609,-6.76 12.418,-2.19 z m 16.371,15.71 c 2.418,2.3 4.41,5.31 4.41,6.76 0,1.4 -4.57,7.18 -9.371,12.85 -4.809,5.62 -12.82,15.27 -17.82,21.36 -12.77,15.75 -12.848,16.29 -22.379,17.27 -14.45,1.48 -12.539,-1.68 3.828,-20.78 3.941,-4.61 11.441,-13.75 16.64,-20.28 12.11,-15.27 17.461,-20.93 19.879,-20.93 1.063,0 2.391,1.44 4.813,3.75 z m 16.679,16.36 c 7.418,6.22 5.969,8.25 -18.128,33.13 -7.891,8.16 -8.442,9.45 -14.571,9.45 -6.172,0 -8.16,-1.29 -8.16,-4.26 0,-1.83 31.359,-39.14 33.629,-40.03 3.09,-1.25 3.48,-1.49 7.23,1.71 z m 17.54,17.97 c 1.99,2.11 3.59,4.85 3.59,6.06 0,2.69 -6.8,11.33 -13.161,16.91 -3.008,2.62 -6.758,5.35 -9.179,5.35 -4.11,0 -11.098,-2.34 -12.309,-4.29 -0.781,-1.25 8.519,-12.78 17.66,-22.42 6.09,-6.37 8.43,-6.96 13.399,-1.61 z m 15.43,15.28 c 3.86,3.86 3.82,7.42 -0.12,12.61 -2.89,3.75 -3.75,4.14 -9.65,4.14 -11.211,0 -11.52,-2.89 -2.85,-12.14 6.44,-6.88 8.2,-9.03 12.62,-4.61 z m 16.48,16.21 c 4.34,5.54 0.62,8.59 -6.52,5.31 -1.68,-0.78 -2.62,-2.77 -2.97,-3.71 -2.19,-5.74 5.31,-6.91 9.49,-1.6 z m -275.352,-46.8 c -15.898,-10.08 -42.656,-29.14 -60.859,-41.87 -0.508,-2.74 -0.821,-9.69 0,-15.12 10.312,6.99 43.48,28.16 58.511,40.12 0.79,4.45 1.879,12.34 2.348,16.87 z m 29.223,46.17 c -0.551,2.74 -2.313,1.02 -7.031,-2.97 -6.18,-5.23 -58.52,-44.02 -72.43,-53.78 -5.309,-3.72 -10.27,-6.84 -10.86,-8.13 -0.5,-1.25 -1.011,-11.76 0.981,-14.41 11.328,8.63 65.16,44.76 65.98,45.97 5.539,8.91 17.969,24.38 23.36,33.32 z m -6.02,-116.91 c 0,0 -64.222,-77.19 -84.84,-115.63 0,0 -0.16,-43.98 -0.742,-69.33 l -3.519,-0.98 c 0,0 -0.309,67.89 -1.168,141.56 -2.153,184.14 -3.953,228.87 -3.953,228.87 l -20.86,15.27 -0.898,7.23 c 0,0 92.539,-64.8 137.699,-75.12 -32.969,-51.71 -63.48,-71.64 -21.719,-131.87 z m -76.211,-92.31 c 1.289,3.09 0.43,2.93 -2.23,2.82 -1.949,-0.08 -3.039,-1.88 -3.121,-3.83 -0.117,-2.27 0.082,-2.78 1.832,-2.46 1.25,0.23 2.929,1.99 3.519,3.47 z m 15.469,22.89 c 9.223,11.37 16.871,18.75 18.242,27.11 -5.941,-0.97 -40,-24.84 -40.511,-27.38 0.32,-12.65 -2.571,-14.18 7.82,-8.59 4.57,2.5 8.281,5.54 14.449,8.86 z m 2.891,28.17 c 9.961,8.28 46.172,27.73 50.308,37.34 1.602,4.42 -3.547,8.56 -4.367,8.13 0.66,-0.55 -51.84,-32.03 -71.019,-48.52 -1.723,-2.15 -1.25,-5.78 -0.122,-8.75 2.11,-5.55 6.29,-1.05 25.2,11.8 z m -12.032,15.19 c 10.782,7.19 36.332,24.85 42.692,29.26 10.82,7.54 12.969,10.04 9.07,15.63 -1.57,2.18 -3.68,3.51 -7.23,1.95 -31.289,-21.8 -33.981,-25.47 -57.731,-40.74 -1.609,-4.26 -1.219,-10.67 1.281,-12.93 1.801,-0.12 4.809,2.11 11.918,6.83 z m -0.117,23.52 c 28.481,20.59 43.828,31.02 44.84,33.28 1.141,2.5 1.449,12.31 -0.391,13.36 -10.621,-8.05 -38.941,-25.39 -58.32,-41.13 -0.5,-3.21 -1.09,-10.47 0.469,-12.03 3.949,-1.61 5.121,0.5 13.402,6.52 z m -3.402,74.37 c 20.742,15.4 39.891,28.79 61.492,43.21 18.277,12.15 21.359,14.84 14.328,18.47 -2.418,1.25 -7.301,3.21 -10.429,2.15 -24.29,-19.61 -51.29,-38.4 -77.071,-57.46 -0.621,-2.85 0,-8.44 -0.148,-10.94 -0.242,-3.9 4.879,-0.58 11.828,4.57 z m -2.848,21.96 c 1.68,1.48 12.539,8.67 24.141,17.07 31.019,22.46 34.648,24.65 34.648,27.03 0,6.48 -8.941,7.89 -17.07,1.25 -14.961,-12.19 -50.66,-34.38 -50.781,-37.54 -0.117,-4.61 -0.899,-9.18 0.472,-11.21 1.719,-2.58 4.219,-0.43 8.59,3.4 z m 8.949,30.43 c 31.559,21.99 30.309,20.97 30.309,24.92 0,3.44 -3.09,1.91 -7.891,2.26 -4.57,0.32 -4.648,-0.93 -13.32,-7.5 -18.398,-13.9 -25.156,-17.73 -27.066,-21.83 -0.633,-1.29 -1.063,-6.41 0.078,-7.54 2.219,-2.19 4.762,0.51 17.89,9.69 z m 2.071,21.87 c 6.211,5.16 11.168,8.91 11.558,10 0.903,2.35 -3.75,6.53 -7.269,6.53 -3.82,0 -6.789,-1.96 -16.211,-10.08 -8.359,-7.19 -10.039,-5.67 -9.367,-9.73 0.386,-2.34 0.429,-7.54 1.207,-8.48 1.992,-2.42 6.332,0.32 20.082,11.76 z m -12.781,14.22 c 6.679,5.63 8.089,6.76 3.21,11.64 -4.378,4.42 -9.531,5.51 -12.23,2.81 -1.52,-1.99 -0.039,-13.63 -0.199,-15.93 -0.27,-3.71 4.687,-2.35 9.219,1.48 z m 142.968,121.17 c 0,2.39 11.602,10.9 20.313,12.85 11.097,2.47 25.039,1.18 34.808,-3.71 8.403,-4.18 17.539,-14.29 4.02,-8.12 -12.418,5.51 -38.981,5.58 -48.629,1.13 -7.148,-3.63 -10.512,-4.57 -10.512,-2.15 z m -8.629,42.54 c 0.903,0.9 12.5,-2.11 18.911,-3.79 17.14,-4.49 31.21,-1.87 49.179,3.32 4.211,1.21 6.321,-1.68 3.711,-3.82 -9.14,-6.33 -20.98,-10 -31.18,-10.94 -22.46,-2.11 -46.601,9.37 -40.621,15.23 z m -110.121,33.13 c 9.571,4.68 21.293,70.43 17.5,81.75 -11.718,-17.92 -24.879,-25.97 -43.59,-22.85 -30.699,5.08 -31.839,42.82 -8.128,46.64 9.46,1.53 21.058,-4.72 22.929,-3.28 10.121,4.77 18.051,38.67 20.512,49.69 1.801,10.74 4.488,40.59 4.879,50.08 0.859,20.23 0.039,50 0.039,50 l -149.289,178.59 -326.961,1.41 c 0,0 -1.051,-250.16 -0.27,-378.13 l 92.582,-88.82 1.168,-143.64 c 103.481,45.16 203.59,92.58 301.602,143.83 -11.371,13.59 -11.012,47.81 9.687,60.78 30.512,19.06 55.864,-6.17 57.34,-26.05 z m 81.961,-30.43 c 0.699,8.08 6.711,14.76 7.141,23.01 0,1.83 1.488,3.94 6.332,1.36 6.367,-3.36 8.277,-1.01 15.469,2.31 12.73,5.86 16.371,5.74 26.168,1.79 6.371,-3.39 8.32,-3.36 14.261,-0.27 8.129,5.35 16.758,7.11 23.91,4.61 10.7,-3.75 14.411,-5.78 20.5,-2.85 3.051,1.48 6.918,7.07 7.579,6.64 4.382,-6.49 3.48,-16.76 6.293,-22.54 4.957,-9.77 3.007,-16.76 -2.813,-11.95 -12.269,10.11 -21.84,10.35 -39.449,6.01 -10.32,-2.58 -15.469,-4.57 -26.918,-3.2 -35.352,4.18 -37.774,3.12 -44.961,-1.68 -6.992,-4.65 -12.34,-5.16 -13.512,-3.24 z m 94.961,64.14 c -10.199,2.54 -21.879,11.83 -30.359,9.33 -10.43,-0.7 -16.36,11.61 -11.012,18.32 9.141,8.91 23.359,-0.07 28.91,-4.25 11.949,-9.1 13.672,-9.81 18.512,-9.81 19.918,0.39 16.09,18.99 6.488,25.74 -5.711,5.98 -6.289,9.89 -5.078,11.33 1.988,2.38 7.649,0.35 13.899,-6.17 11.878,-11.17 12.191,-33.48 -2.418,-40.23 -7.301,-4.07 -12.071,-5.98 -18.942,-4.26 z m 41.52,64.41 c -9.258,6.72 -25.739,21.76 -30.039,27.15 -7.27,9.06 -10.192,14.84 -9.262,22.11 0.711,5.66 1.57,9.06 -2.07,10.94 -3.86,1.95 -7.579,10.54 -6.829,15.04 0.192,1.21 4.571,0.47 7.18,-2.82 3.36,-0.54 2.66,1.45 6.289,3.83 37.852,25.43 68.211,20.51 104.101,3.05 10.4,-5 37.58,-25.59 23.01,-18.91 -0.86,0.39 -10.39,4.53 -20,9.38 -31.13,14.92 -65.822,23.94 -94.06,4.76 -4.84,-3.4 -7.77,-6.01 -4.02,-6.01 15.891,3.08 31.559,9.69 47.891,8.67 24.289,-0.31 39.019,-12.3 57.219,-20.59 19.81,-8.86 23.64,-11.87 16.41,-19.18 -2.03,-2.22 -3.67,-2.18 -13.24,-1.44 -10.28,0.78 -11.1,0.51 -16.88,-3.2 -15.15,-9.73 -34.841,-15 -52.341,-13.56 -20.59,1.76 -22.769,3.4 -23.199,0.43 -0.281,-1.91 4.14,-5.19 10.23,-10.78 4.649,-4.22 10.86,-10.47 11.41,-11.41 1.719,-3.04 -6.14,-1.56 -11.8,2.54 z m -5.782,32.97 c -0.039,2.42 -4.57,13.05 -7.269,15.78 -2.609,2.62 -4.649,1.6 -10.188,-2.3 -4.14,-2.93 -4.613,-5.24 -0.781,-8.64 8.16,-7.26 18.32,-9.06 18.238,-4.84 z m 31.012,-1.44 c 8.32,4.02 16.801,18.28 12.93,22.89 -2.262,2.77 -4.25,0.15 -8.629,-7.58 -2.07,-3.71 -5.66,-8.4 -7.231,-9.49 -6.789,-4.73 -15.742,-0.32 -19.531,10.19 -2.258,6.33 -4.648,10.35 -7.301,7.97 -4.808,-4.38 0.622,-20.04 10.153,-24.06 5.629,-2.42 13.789,-2.78 19.609,0.08 z m 25.86,2.3 c 8.44,2.62 12.46,6.41 11.76,10.08 -0.58,3.05 -6.68,6.64 -10.78,6.64 -1.84,0 -5.469,0.08 -6.762,-1.64 -2.886,-3.83 -7.418,-15.39 -7.617,-16.64 0.981,-2.58 3.828,-1.37 13.399,1.56 z m 29.14,62.85 c -42.031,16.1 -75.23,22.54 -115.23,5.47 -12.809,-5.55 -20.121,-6.13 -20.739,-1.6 -0.55,3.83 8.668,15.16 18.629,20.39 27.891,12.77 61.41,13.98 89.49,0.51 10.51,-5.16 39.96,-26.1 39.96,-28.01 0,-2.07 -2.65,-0.43 -12.11,3.24 z m 492.07,-471.09 c 10.04,5.31 14.65,15.66 8.52,21.8 -1.8,1.79 -4.34,1.79 -6.41,1.79 -3.51,0 -29.8,-7.03 -34.92,-9.76 -3.32,-1.8 -2.11,-4.93 1.06,-7.78 1.48,-1.33 2.57,-4.18 2.81,-7.26 0.27,-4.03 -0.51,-7.62 2.11,-6.99 5.39,1.21 13.87,2.42 26.83,8.2 z m -37.38,-9.61 c 2.85,5.19 1.64,12.3 -5.86,16.68 -3.9,2.03 -6.99,0.94 -10.11,-3.56 -7.47,-13.55 11.05,-19.41 15.97,-13.12 z m -37.5,-6.37 c 1.6,17.35 0.82,68.63 0.82,68.63 0,0 -9.33,-7.89 -15.23,-8.16 2.15,7.5 4.49,10.23 7.85,17.58 1.91,7.81 3.01,21.56 2.46,29.45 -0.59,8.6 -6.68,8.83 -0.39,24.34 3.16,7.89 3.75,16.25 -0.39,26.01 -1.8,4.85 -2.38,7.62 2.3,13.79 4.34,5.67 2.62,8.52 2.54,20.43 -0.11,16.45 -0.04,19.14 -5,5.86 -7.46,-11.01 -10.9,-8.91 -22.22,-7.58 -10.98,-24.61 -23.83,-50.39 -24.3,-71.6 -0.35,-13.28 -0.51,-15.35 7.77,-43.28 3.09,-10.43 4.18,-13.87 4.34,-26.45 0.15,-12.03 1.05,-16.24 2.89,-22.89 3.24,-11.79 16.48,-31.28 36.56,-26.13 z m -381.72,-1106.088 0.04,24.718 c 0,0 -39.57,-12.179 -59.65,-4.679 -20.661,5.578 -20.579,6.597 -20.192,4.371 0.742,-3.981 16.094,-12.113 30.272,-15.434 10,-2.34 30,0.043 39.81,2.934 5.58,1.637 6.17,0.117 3.94,-1.602 -24.26,-18.941 -55,-10.23 -74.33,5.508 -10.321,10.121 -17.27,10.152 -11.68,-3.398 26.558,-53.789 92.42,-22.071 91.79,-12.418 z m -26.72,36.758 8.99,-0.2 c 0,0 -2.74,15.7 -7.42,20.27 -9.53,9.34 -23.01,7.93 -31.57,-1.289 -3.9,-4.172 -6.91,-19.063 -6.91,-19.063 l 7.27,-0.148 c 2.65,6.949 14.06,39.531 29.64,0.43 z m -35.97,23.71 c -5.12,1.36 -16.331,-3.71 -21.799,-7.269 -2.032,-2.231 -2.032,-2.539 0.347,-5.699 5.242,-6.922 13.282,-10.242 13.832,-7.621 2.34,3.629 8.13,19.179 7.62,20.589 z m 59.41,-17.46 c 1.17,4.839 -3.36,13.082 -10.43,15.968 -3.08,0.742 -6.09,1.371 -5.19,-2.027 0.97,-3.75 3.08,-9.961 5.07,-14.102 1.45,-3.089 2.35,-4.687 5.4,-3.48 2.34,0.781 4.33,1.531 5.15,3.641 z m 385.98,327.808 0.08,41.871 c -21.14,-21.437 -48.79,-57.418 -57.15,-70.859 l 57.07,28.988 z M 800.352,1985.55 c 8.949,3.83 15.546,15.54 13.277,21.44 -1.399,3.67 -5.149,0.74 -8.899,-4.69 -6.058,-8.75 -7.582,-9.72 -12.89,-9.72 -5.668,0 -7.93,1.48 -11.801,9.1 -2.699,7.19 -4.57,8.32 -7.07,5.2 -1.168,-1.45 -1.09,-3.48 0.429,-8.72 3.981,-13.71 14.262,-18.04 26.954,-12.61 z m 24.418,4.33 c 9.96,3.4 11.992,4.5 11.48,7.82 -0.469,3.47 -8.398,8.08 -12.852,7.22 -3.238,-1.95 -11.636,-15.23 -11.168,-17.62 1.168,-1.83 4.489,-0.19 12.54,2.58 z m -57.309,5.78 c -0.352,3.05 -0.781,6.1 -1.602,7.11 -3.199,3.83 -9.918,1.14 -9.918,-3.75 0,-3.71 5.27,-7.93 9.528,-7.93 3.011,0 2.582,-0.74 1.992,4.57 z m 56.168,25.04 c 14.101,-5.31 21.293,-5.9 13.601,1.33 -10.589,11.72 -59.031,25.12 -85.039,5.98 -1.839,-2.66 -1.453,-12.78 0.579,-12.19 21.14,14.26 48.21,13.48 70.859,4.88 z m -48.399,40.43 c -11.871,-3.94 -23.039,-10.15 -24.449,-15.93 -2.301,-9.3 1.84,-9.42 17.379,-4.54 20,6.57 42.391,3.6 59.461,-6.25 12.93,-9.41 16.758,-6.32 14.57,1.61 -7.23,26.17 -47.703,30.89 -66.961,25.11"
         inkscape:connector-curvature="0"
         id="path18"
         style="fill:#131f67;fill-opacity:1;fill-rule:nonzero;stroke:none" /><path
         d="m 1537.77,2229.34 -87.38,-86.61 1.21,-102.42 c 8.79,-16.09 -134.84,45.9 -157.5,64.65 2.62,-68.44 96.02,-146.41 156.76,-174.92 l 1.68,-217.31 c 0,0 24.45,9.46 37.89,14.15 9.96,3.47 32.73,3.12 40.23,6.71 11.96,148.99 22.11,342.78 7.11,495.75 z M 1051.8,2122.11 c -8.48,-0.16 -13.6,-2.46 -13.48,-7.93 -2.58,0.43 32.27,-127.93 48.13,-181.52 -30.86,-31.18 -63.09,-85.36 -16.96,-135.51 9.85,-10.7 27.85,-19.77 45,-30.08 7.66,-7.38 -93.75,-72.77 -184.021,-72.81 -28.91,63.47 -69.34,28.4 -91.641,6.25 -17.418,1.52 -82.418,40.23 -115.668,62.42 -0.5,0.35 -0.148,9.53 -0.109,11.21 2.34,-15.16 130.269,-47.77 136.051,-32.62 -3.711,0 -57.383,36.33 -72.813,72.15 -19.687,40.43 -35.469,95.94 -35.469,95.94 -7.148,-20.51 -4.691,-48.99 -24.41,-59.14 -5.941,66.8 -101.332,32.73 -53.832,-32.62 -26.68,-7.81 -49.527,-21.64 -75.43,-33.12 54.223,-73.75 128.793,-122.78 207.582,-151.72 -10.39,-22.11 -71.761,-71.96 -21.332,-130.67 2.262,-1.83 -48.168,-56.83 -72.968,-99.84 -18.668,-32.38 -13.051,-57.27 -10.899,-58.05 68.321,78.28 106.719,144.53 106.719,144.53 -0.59,-9.1 81.09,-4.18 79.73,69.38 1.79,19.84 5.391,41.37 13,59.76 124.65,-5.85 231.8,38.56 322.39,131.8 0,0 18.47,-5.27 30.08,-7.07 5.85,-0.9 14.1,2.89 15.46,3.28 5.24,0.28 12.82,1.29 19.89,5.28 9.68,5.43 19.45,14.76 29.76,23.12 13.56,11.02 27.11,21.56 31.92,32.89 5.39,12.58 1.17,27.74 -3.44,41.13 -29.06,34.26 -48.36,-2.57 -61.25,2.23 -44.73,60.78 -82.03,232.81 -88.13,234.14 -25,5.04 -110.46,37.74 -143.86,37.19 z M 744.801,2004.69 c -3.352,-0.2 -15.352,-53.67 -25.973,-53.28 -44.957,28.98 -45.937,-30.98 -7.269,-28.25 32.703,2.31 50.98,55.04 33.402,81.49 -0.082,0.04 -0.121,0.04 -0.16,0.04 z M 263.949,1902.97 c 1.52,-325.16 7.34,-650.2 14.961,-975.24 29.41,7.231 50.781,12.782 79.61,0.2 2.691,92.38 -5.43,325.59 -3.481,551.41 109.84,85.39 186.949,179.61 241.172,302.77 L 428.48,1703.55 c 0,0 -54.808,-78.55 -72.308,-83.59 -2.5,11.17 -5.274,144.14 -3.012,201.17 l -89.211,81.84 z m 372.653,-201.13 -32.93,-47.66 c 0,0 0.738,-163.75 2.656,-242.66 1.371,-15.7 15.621,-30.11 4.223,-44.18 6.949,0 37.418,-212.42 8.469,-298.55 -5.192,-15.43 -0.348,-26.33 7.781,-29.84 l 62.769,-63.751 c 19.809,-6.57 39.102,-3.988 55.739,0 59.421,54.371 143.871,149.641 143.871,149.641 l -223.239,211.02 c -19.14,51.17 -29.339,365.98 -29.339,365.98 z m 813.518,-682.86 c -161.6,-120.82 -231.1,-292.73 -232.15,-291.601 0.58,-1.988 -0.82,-9.059 9.33,-3.469 41.8,22.649 149.38,71.481 149.38,71.481 25.55,30.699 45.16,60.308 74.41,89.531 0,0 3.17,-133.242 0.59,-200.082 26.37,-19.61 89.02,-80.891 89.02,-80.891 -0.04,0.031 17.31,946.601 -20.04,970.621 -36.25,-7.03 -54.45,-20.27 -67.96,21.76 -9.58,-192.74 -0.12,-386.1 -2.58,-577.35 z m -350.98,532.74 c -38.98,-31.88 -173.011,-163.32 -172.73,-164.69 35.539,-59.61 175.93,-179.02 243.24,-245.78 l 9.73,-340.078 c 9.92,13.316 17.1,25.859 27.85,39.18 0,0 -1.76,172.188 -5.94,252.888 -1.21,23.91 -6.68,42.7 -4.96,44.88 -18.95,97.97 -26.8,206.22 0,311.29 -63.56,54.73 -83.75,91.14 -97.19,102.31 z m 10.43,-388.44 c -0.08,-0.04 -0.19,-0.12 -0.31,-0.23 -32.89,-46.84 -95.82,-148.6 -100.31,-148.36 -1.33,3.04 -65.04,0.19 -77.071,-39.889 C 921.762,945 920.98,917.539 913.629,886.762 785.82,890.941 692.27,850.551 593.75,759.77 c -28.012,-1.141 -52.539,-3.399 -69.801,-9.809 -14.418,-5.352 -22.187,-14.961 -31.058,-21.41 -25.039,-18.121 -31.801,-33.59 -30.551,-52.5 2.191,-34.289 62.82,-39.172 65.898,-15.031 3.09,0 59.301,-128.442 64.774,-150.321 13.277,-35.39 27.5,-101.597 29.179,-101.719 22.61,-1.441 149.719,-37.07 150.188,-24.14 11.961,5.121 -44.219,188.949 -44.219,188.949 98.211,82.34 -10.039,170.352 -35.5,167.152 55.891,39.797 120.07,66.598 190.781,70.11 10.969,-39.289 61.719,-59.492 87.297,-7.262 0,0 109.962,-39.34 109.492,-52.379 -45.27,6.828 -82.5,10.391 -127.851,14.719 C 1039.26,718.98 1041.91,656.84 1059.65,595 c 2.42,10.941 25.35,58.789 25.35,58.789 29.45,-65.309 85.47,-20 62.38,32.77 l 69.69,32.312 c 8.05,4.098 -104.22,130.348 -206.29,148.238 5.16,9.371 7.19,18.243 12.5,25.903 25.59,25.109 45.43,61.867 6.29,105.859 25.86,36.089 85.74,123.239 81.95,124.799 0,0 1.18,40.71 -1.95,39.61 z M 270.23,761.719 c -0.968,0 -2.769,-302.149 -0.66,-452.149 -2.5,-6.211 -4.14,-39.371 -4.14,-39.371 l 92.968,87.301 2.774,112.852 c 24.258,5.82 175.547,-70.973 163.437,-70.551 11.563,4.847 -69.839,158.519 -164.769,175.59 -1.75,87.07 -2.649,185.629 -5.11,212.109 -32.968,-6.289 -84.5,-25.98 -84.5,-25.781 z m 825.32,-181.758 c -26.02,-7.77 -36.88,-62.5 -28.44,-89.02 1.52,-4.921 0.55,-5.98 4.69,-1.171 10.15,14.878 6.95,44.57 24.88,60.191 47.3,-14.262 42.62,47.269 -1.13,30"
         inkscape:connector-curvature="0"
         id="path20"
         style="fill:#e2cf00;fill-opacity:1;fill-rule:nonzero;stroke:none" /><path
         d="m 1587.07,93.1602 0,27.8598 25.04,0 0,150.191 c 0,0 0.12,36.129 1.76,40.668 19.33,65.851 126.33,61.281 131.64,2.531 2.26,-10 1.64,-43.199 1.64,-43.199 l -28.32,0 c 0,0 -0.2,10.59 -0.59,18.398 3.67,62.379 -72.03,49.411 -75.78,7.539 -1.56,-7.5 -1.72,-25.937 -1.72,-25.937 l 0,-150.191 29.22,0 0,-27.8598 -82.89,0 z M 493.32,223.59 616.371,409.488 c 146.91,-49.097 296.91,-50 448.469,-25.777 l 135.47,-160.121 -55.39,0 -85.27,121.762 c -30.9,-7.153 -63.009,-10.274 -95.002,-14.653 l 39.922,-107.109 -43.441,0 -31.359,105.941 c -73.52,-2.851 -123.598,3.707 -174.692,9.688 l -18.359,-115.629 -44.219,0 29.84,119.379 c -34.719,6.519 -69.801,12.109 -98.899,21.41 l -90.32,-140.789 -39.801,0 z m 140.942,109.379 51.047,-13.828 -24.918,-95.551 -93.481,0 67.352,109.379 z m 131.91,-109.379 14.449,84.422 c 34.301,-6.762 79.07,-8.133 126.289,-7.66 l 22.192,-76.762 -162.93,0 z m 241.838,78.25 40.27,10.699 60.43,-88.949 -73.44,0 -27.26,78.25 z m 318.98,-63.442 c -42.61,85.622 -100.78,160.122 -163.98,231.012 61.72,64.93 113.79,139.93 163.75,225.238 49.61,-86.097 106.83,-165.859 169.84,-228.558 -69.33,-68.981 -122.42,-144.059 -169.61,-227.692 z m 343.21,154.18 c -20.51,33.512 -45.04,67.07 -75.2,100.582 27.5,30.981 51.52,64.141 73.12,98.789 24.89,-38.199 50.55,-71.359 76.92,-99.961 -27.89,-31.168 -51.29,-65.347 -74.84,-99.41 z M 420.078,839.059 C 616.641,1067.7 590.512,1307.7 481.91,1501.25 L 505,1525 c 125.59,-206.33 152.301,-499.73 -79.102,-727.109 -2.457,13.711 -5.82,41.168 -5.82,41.168 z m 783.872,256.411 c 28.24,-48.05 45.5,-96.72 75.35,-145.079 l -70.82,-95.661 -4.53,240.74 z M 358.238,944.059 c -1.828,150.821 0.434,456.491 0.434,456.491 L 425,1451.29 c 79.379,-96.33 122.66,-350.24 -19.84,-519.22 -10.359,7.539 -38.601,4.41 -46.922,11.989 z m 941.642,30.429 c -181.91,306.802 -89.41,530.552 85.9,729.222 0.51,-15.31 1.68,-30.55 3.05,-45.82 -150.51,-172.34 -210.71,-427.19 -63.13,-657.77 l -25.82,-25.632 z m -329.411,44.572 82.851,112.89 c 0,0 15.7,44.89 28.95,58.17 l 15.19,13.43 c 5.04,-4.88 14.69,-11.05 14.38,-16.67 -0.32,-5.32 -8.13,-33.33 -8.13,-33.33 l -96.87,-141.67 c 0,0 -29.418,5.15 -36.371,7.18 z m 440.661,547.89 c 2.62,2.97 35.47,-10.74 35.47,-10.74 l 2.11,-463.87 -65.82,-42.3 c -19.1,-9.69 -168.36,294.73 28.24,516.91 z M 717.578,1371.56 c 30,40.82 61.563,76.17 90.621,113.67 7.5,-2.57 27.231,-3 27.231,-3 2.07,-1.14 -6.641,-31.14 -28.129,-51.8 -21.602,-22.03 -73.039,-82.34 -74.571,-112.73 -0.46,-9.38 -21.48,-20.12 -21.48,-20.12 l -14.961,15.78 c 4.57,23.12 11.762,40.82 21.289,58.2 z m -186.957,177.93 65.981,85.59 6.558,-227.38 -72.539,141.79 z m -225.422,504.26 c 62.813,66.84 118.321,143.55 170.742,222.85 47.848,-78.71 100.938,-159.22 167.34,-224.49 -60.472,-66.29 -117.769,-145.86 -167.769,-224.69 -48.012,76.76 -101.684,156.25 -170.313,226.33 z M 54.6094,2033.71 c 29.8789,28.95 54.7306,60.98 74.9606,95.86 23.239,-35.23 45.16,-71.52 76.168,-100.35 -28.629,-30.7 -37.808,-40.47 -76.867,-97.77 -22.031,35.74 -44.9218,70.93 -74.2616,102.26 z m 691.9106,92.54 -130.579,163.24 63.239,0 77.769,-115.51 93.172,10.63 -32.781,104.88 38.601,0 27.258,-103.2 c 57.153,-1.33 112.973,-5.78 167.191,-11.21 l 27.89,114.41 39.3,0 -35.67,-119.72 105.2,-27.62 93.75,147.34 46.56,0 -132.85,-190.23 c -173.67,52.15 -313.16,46.17 -448.05,26.99 z m -698.3989,83.4 c -2.0313,14.45 -2.5,28.67 0.1172,42.5 l 28.2422,0 c 0,0 -0.1914,-10.39 0.1992,-19.22 0,-55.9 66.9103,-48.71 76.8003,-13.52 3.469,12.47 2.93,32.35 2.93,32.35 l 0.11,148.71 -28.668,0 0,28.87 84.878,0 0,-28.87 -26.441,0 0,-148.32 c 0,0 -0.238,-0.63 -0.078,-3.2 0.508,-8.95 0.777,-30.4 -3.941,-40.47 -26.84,-66.8 -124.9302,-51.64 -134.1489,1.17 z m 1074.9689,-15.04 29.76,95 88.99,-0.12 -68.13,-108.51 -50.62,13.63 z m -215.43,23.09 -18.789,71.79 156.909,0 -20.27,-80.27 c -41.451,6.99 -79.299,8.36 -117.85,8.48 z m -188.129,71.79 62.66,0 24.368,-74.29 -36.129,-4.11"
         inkscape:connector-curvature="0"
         id="path22"
         style="fill:#d40000;fill-opacity:1;fill-rule:nonzero;stroke:none" /><path
         d="m 595.469,2300.04 151.25,-180.94 c 31.48,11.25 190.312,29.38 285.621,7.62 16.61,-65.04 34.14,-130.7 52.74,-189.92 0,0 -5.98,-6.96 -10.28,-11.37 -60.82,-70.12 -17.77,-137.85 37.93,-159.92 -10.03,-20.86 -116.75,-72.78 -181.71,-66.6 0.109,0.62 -19.969,47.65 -60.629,31.75 -13.911,-5.43 -19.653,-15.89 -30.391,-26.09 -38.828,11.68 -90.078,37.23 -116.719,65.27 49.84,-24.8 98.949,-38.16 148.239,-31.6 0,0 -6.09,5.08 -13.04,8.28 -4.179,1.92 -14.218,7.93 -22.308,13.4 -22.934,15.47 -38.121,34.06 -53.832,65.9 -18.078,32.27 -21.012,66.95 -30.891,97.58 -5.238,-15.7 -7.5,-57.11 -21.179,-65.7 -3.551,-2.35 -4.219,-1.65 -6.872,7.14 -10.429,31.84 -48.668,27.82 -61.289,5.16 -6.371,-19.53 -5.468,-28.09 2.621,-46.17 l -23.171,-12.89 -0.039,-3.83 -14.29,-6.8 -2.968,1.99 c -66.332,-32.03 -131.332,-65.35 -199.032,-96.05 0,0 -35.929,-59.61 -68.82,-83.36 l -1.289,202.5 -97.391,87.97 -0.46,-48.16 c 0,0 4.679,-4.89 6.992,-7.35 1.328,-338.98 0.226,-672.5 0.429,-980.229 l 0.469,-283.32 -5.941,-0.352 -0.309,-33.051 6.68,-1.488 -0.942,-46.68 -3.476,-0.23 -0.512,-29.531 5.32,-0.821 -0.082,-166.757 -5.277,-6.762 0.117,-47.609 101.723,96.64 2.269,109.879 C 444.922,452.422 528.789,394.77 528.789,394.77 514.648,486.801 417.109,562.66 361.051,577.809 l 0.16,218.089 c 0,0 -41.641,-17.347 -62.231,-20.039 -10.191,-1.449 -14.101,0.121 -18.98,7.461 -3.551,5.391 -3.629,10.27 -0.43,21.371 1.52,5.188 1.45,6.52 -0.429,11.758 -2.621,7.301 -2.621,10.621 -0.082,23.551 2.703,7.578 1.531,11.641 -1.289,18.672 -3.04,7.5 -3.282,8.906 -1.989,13.238 3.399,11.449 3.629,13.289 1.84,18.399 -3.519,9.961 -3.641,17.152 -0.391,23.601 15,25.192 48.59,18.981 66.829,18.078 9.261,-10.308 14.769,-16.047 15.632,-1.129 6.481,17.77 31.598,-0.429 43.321,-7.968 99.758,133.709 148.976,314.729 23.828,541.329 l -69.649,-55.74 0.149,69.76 c 92.351,59.34 196.25,194.26 241.211,300.67 14.969,-17.54 32.148,-34.77 48.359,-52.46 l -10.582,-17.7 -3.129,1.76 c -28.668,-54.65 -106.437,-158.01 -107.687,-156.99 28.789,-53.36 54.41,-107.23 76.207,-161.76 l 5.742,2.58 5.078,-16.45 -10.039,-3.01 c 34.059,-111.76 35.16,-215.27 9.531,-310.7 l 6.02,-25.35 c 0,0 36.051,-34.92 45.777,-45.158 25.391,-24.613 53.711,-52.07 53.711,-52.07 l 32.891,32.226 -1.91,2.731 288.43,286.371 18.01,-17.19 C 878.281,1067.81 571.449,760.621 571.449,760.621 l -10.629,-1.519 c -6.05,-0.903 -15,-1.293 -20.699,-0.903 -9.383,0.672 -10.512,0.43 -18.051,-3.121 -8.48,-4.027 -15.511,-10 -24.879,-21.25 -4.261,-5.117 -7.23,-7.348 -11.961,-9.027 -60.152,-35.852 -5.781,-108.082 45.36,-70.071 37.5,-71.64 69.25,-155.039 86.75,-237.582 0,-0.589 -6.719,-2.886 -6.719,-2.886 L 475.82,214.379 l 51.84,0 5.43,9.211 -38.871,0 124.019,179.109 C 775.98,359.73 920.781,353.59 1067.73,379.18 l 127.93,-155.59 -50.74,0 7.23,-9.211 65.66,-1.059 -150.35,177.418 c -53.83,-14.367 -195.819,-25.937 -284.882,-10.859 -13.629,66.172 -36.098,138.09 -52.738,195.32 85.039,66.52 21.211,154.371 -31.25,166.602 -2.539,4.801 106.371,71.008 183.988,66.437 22.223,-53.359 70.863,-45.468 88.32,-5.738 32.192,-11.84 73.942,-23.629 107.112,-50 -44.22,9.691 -95.432,15 -137.619,15.621 80.199,-31.09 102.699,-96.601 112.579,-158.391 1.76,-10.281 7.23,-23.48 7.23,-23.48 6.83,22.301 12.42,45.352 25.89,64.449 6.18,-21.828 28.91,-38.82 51.88,-25.82 13.32,9.652 17.93,26.172 13.71,49.07 -1.17,6.36 -1.76,9.84 -1.76,9.84 l 17.81,9.652 2.35,-1.992 c 0,0 19.53,8.352 29.22,13.082 1.52,0.739 -1.8,3.75 -1.8,3.75 l 180.2,84.957 c -0.71,0.391 45.39,63.321 71.87,87.621 0.78,-75.429 0.59,-106.449 0.55,-195.98 l 10.19,-9.918 c 9.03,-8.832 28.67,-27.109 73.05,-67.852 9.96,-9.14 16.95,-13.668 16.95,-13.668 l -1.36,1318.899 -1.49,0 -0.04,25.39 2.11,0.12 0.04,65.98 -1.87,1.09 -0.04,20.78 2.5,1.8 0.15,178.16 -2.85,0.51 -0.19,42.74 -100.39,-106.21 0.74,-100.2 c -44.81,5.82 -100.28,34.49 -138.44,57.62 -12.34,7.54 -19.22,9.53 -18.83,5.23 5.35,-59.65 91.68,-150.82 158.05,-174.69 l 0.12,-224.33 c 0,-0.12 15.66,7.81 25.23,11.83 l 1.41,-3.98 21.4,8.87 1.72,4.61 18.56,2.34 c 0.19,-3.79 0.86,-3.28 0.86,-3.28 16.48,-4.61 23.82,-15.9 17.14,-28.56 -2.3,-4.21 -2.77,-10.23 -0.86,-11.79 7.19,-11.33 9.07,-21.25 0.4,-31.96 -3.33,-5.46 -3.29,-8.55 0.11,-14.33 8.95,-18.05 3.87,-16.84 -2.85,-27.58 -1.52,-8.12 7.38,-13.4 4.45,-21.05 -1.36,-5.04 -6.68,-10.94 -10.27,-13.6 -4.26,-3.05 -7.7,2.62 -7.7,2.62 0,0 -13.39,-5.74 -23,-7.58 -9.5,-3.05 -25.78,-8.55 -31.41,4.18 -3.24,7.31 -0.62,13.98 -0.86,22.11 l -13.87,1.52 -0.5,-37.03 c -7.97,-4.26 -39.53,11.88 -39.53,11.88 -135.47,-175.59 -131.68,-370.35 -31.22,-533.52 0.98,-2.62 70.82,47.74 70.82,47.74 0,0 -0.15,-41.29 0.47,-63.68 -88.79,-73.391 -174.53,-172.18 -235.82,-293.942 l -37.97,45 c 6.53,5.782 6.8,14.922 6.65,21.832 l 27.57,41.141 0.24,10.66 71.68,100.117 c 1.13,-5.976 -73.95,134.452 -83.95,180.152 l 4.96,1.37 c -33.71,127.5 -26.79,216.76 -2.46,320.74 l -6.91,6.72 -94.61,94.46 c -7.66,-7.11 -15.31,-14.22 -22.97,-21.37 -1.17,-1.09 -6.95,-0.47 -8.13,-1.56 -49.76,-46.64 -97.609,-93.52 -144.96,-142.19 -1.25,-1.25 0.82,-6.45 -0.391,-7.7 -47.418,-48.86 -96.64,-95.23 -144.648,-144.02 l -17.5,16.72 c 170,169.96 490.279,485.66 490.279,485.66 0,0 1.37,2.5 3.59,2.58 8.91,0.35 16.88,2.34 25.67,4.92 10.54,2.42 12.26,3.21 16.71,7.82 2.7,2.77 7.15,6.71 9.89,8.71 4.65,3.39 15.23,12.34 31.83,26.75 10.12,8.83 16.37,21.68 16.14,33.17 -0.39,20.39 -13.91,37.81 -31.29,40.31 -7.27,1.06 -21.45,-2.73 -28.64,-7.58 -5.46,-3.71 -8.04,-5.39 -10.39,-3.75 -34.72,70.39 -68.47,158.87 -82.81,231.88 -0.74,4.61 -0.35,5.97 3.44,11.76 2.3,3.63 7.38,11.56 11.33,17.69 31.01,44.84 66.95,99.3 100.7,148.48 5.63,8.16 16.48,23.9 16.48,23.9 l 8.25,13.52 -53.52,0 -6.6,-10.55 44.06,0 -131.01,-188.51 c -241.371,78.9 -439.18,28.9 -443.91,27.81 l -130.512,160.7 59.692,0 -7.231,10.55 -76.48,0 z m 117.461,0 6.64,-10.55 62.621,0 -3.562,10.55 -65.699,0 z m 104.41,-10.55 38.601,0 -2.23,10.55 -39.57,0 3.199,-10.55 z m 69.07,10.55 2.461,-10.55 156.909,0 2.77,10.55 -162.14,0 z m 191.87,-10.55 39.3,0 2.97,10.55 -39.53,0 -2.74,-10.55 z m 77.81,10.55 -3.36,-10.55 89.15,0 6.67,10.55 -92.46,0 z m 381.21,-72.77 1.37,-29.22 -64.26,-67.74 0.08,-94.57 -18.71,4.34 -0.74,97.73 82.26,89.46 z m -18.04,-62.31 c 0.54,-28.94 -4.14,-56.72 3.51,-86.25 3.79,-14.53 11.45,-31.56 12.39,-48.75 l -21.21,0.51 c -2.66,8.67 -3.72,18.24 -6.88,28.91 -7.85,26.32 -14.18,54.06 -8.4,81.99 l 20.59,23.59 z m -462.66,-47.23 c 0.78,-1.44 3.32,-13.67 5.67,-25.03 11.13,-62.31 26.05,-108.52 41.25,-155.59 19.33,-59.3 47.96,-133.91 75.78,-168.52 3.71,-4.29 5.5,-9.21 4.18,-11.36 -2.23,-3.64 -13.6,1.44 -21.21,9.49 -3.13,3.28 -9.15,12.5 -13.56,20.74 -9.73,18.2 -22.77,44.69 -24.1,48.87 -0.51,1.72 -5.63,14.8 -11.41,29.1 -10.04,25 -16.01,42.11 -24.41,69.88 -6.68,22.07 -12.81,45.16 -20.27,68.4 -12.15,38.01 -19.22,68.2 -25.98,103.17 -1.02,5.11 -2.7,11.09 -2.07,12.34 3.83,2.77 14.3,1.64 16.13,-1.49 z m 6.8,-2.38 c -1.17,1.02 11.05,1.21 15,-2.07 1.13,-1.17 3.24,-8.48 5,-17.85 11.09,-57.34 27.77,-116.56 47.15,-172.7 15.47,-44.84 32.42,-88 53.47,-122.96 6.6,-11.65 15.55,-24.11 26.96,-37.54 6.36,-7.54 6.91,-8.6 5.19,-10.67 -2.11,-2.58 -5.82,-2.22 -12.93,1.14 -6.64,3.16 -13.83,10.03 -20.58,19.8 -2.31,3.32 -5.78,8.36 -7.82,11.13 -31.05,53.75 -49.92,104.81 -67.03,156.64 -17.54,53.17 -33.28,106.96 -44.02,168.91 -0.12,2.07 -0.24,4.14 -0.39,6.17 z m 39.06,-8.05 c 2.74,-2.77 4.3,-8.08 6.68,-19.14 12.93,-53.16 23.52,-100.66 38.79,-144.29 8.24,-23.48 15.35,-46.92 24.18,-69.03 14.1,-35.31 31.33,-67.46 52.5,-94.25 6.99,-8.83 19.69,-19.69 30.31,-26.02 7.38,-4.41 8.52,-5.51 8.01,-8.05 -0.63,-2.3 -7.81,-3.24 -10.2,-3.04 -11.64,1.99 -28.86,11.01 -33.78,17.69 -35.63,38.52 -61.14,101.53 -79.69,153.21 -31.88,89.02 -57.62,200.19 -52.7,196.75 -0.35,2.58 12.74,-0.39 15.9,-3.83 z m 15.31,-3.24 c 1.18,0 2.46,-0.19 3.91,-0.58 6.68,-1.84 7.54,-2.78 9.14,-10.12 11.41,-50.82 23.48,-95.63 36.91,-138.28 13.72,-43.36 27.82,-84.3 49.77,-127.19 16.13,-31.33 36.52,-52.97 58.44,-63.94 6.29,-3.13 11.91,-6.18 12.5,-6.72 0.54,-0.55 0.39,-2.19 -0.35,-3.64 -1.18,-2.14 -2.5,-2.61 -7.86,-2.5 -9.96,0.16 -16.91,3.25 -27.61,10.43 -28.01,19.3 -52.5,63.05 -63.28,87.86 -13.21,30.27 -25.32,61.71 -36.25,96.01 -19.61,61.52 -31.84,102.23 -40.79,154.18 0,2.97 2.04,4.57 5.47,4.49 z m 419.73,-83.04 -0.2,-18.01 c -70.54,-4.69 -142.85,25.11 -200.93,51.95 43.75,-58.05 90.51,-109.61 200.93,-120.23 l 0.2,-18.6 c -143.83,2.03 -245.12,147.7 -239.8,183.99 59.14,-38.21 166.01,-82.42 239.8,-79.1 z m -396.95,76.28 c 3.47,-0.15 8.12,-1.6 9.96,-3.43 11.76,-43.87 20.31,-92.58 39.72,-141.49 23.91,-60.08 37.15,-113.08 81.41,-162.58 13.79,-14.18 40.74,-13.75 40.74,-13.75 0,0 -3.4,-7.65 -7.97,-8.94 -9.49,-1.41 -16.36,-1.84 -23.28,0.39 -25.66,10.82 -45.27,38.2 -55.39,56.76 -9.49,13.94 -32.62,71.25 -51.68,129.69 -20.78,63.59 -37.89,129.72 -35.94,143.04 0.75,0.28 1.29,0.35 2.43,0.31 z m 23.71,-7.38 c 1.68,0 3.94,-0.62 6.64,-1.91 2.89,-1.41 4.14,-2.27 5.66,-7.66 0.98,-3.55 0.82,-9.02 2.54,-17.93 10,-45.82 23.79,-83.01 37.46,-119.26 13.01,-34.41 26.99,-68.2 44.18,-98.78 8.67,-15.4 17.31,-29.77 22.74,-35.24 14.8,-14.8 39.96,-15.55 47.38,-0.82 4.1,8.36 3.24,21.6 -4.88,28.44 -6.29,6.01 -20.59,3.47 -20.98,-3.79 0,-1.92 3.55,-1.06 8.71,-0.47 14.38,1.68 18.87,-23.79 0.39,-28.01 -23.4,-5.39 -39.65,26.25 -18.98,45.67 35,23.75 61.76,-8.71 53.47,-39.93 -8,-18.43 -21.4,-27.85 -39.1,-28.47 -22.85,-0.74 -32.3,6.33 -55.7,40.35 -26.88,43.09 -38.52,85.16 -57.42,132.3 -17.89,44.57 -29.81,92.07 -35.43,133.6 0.51,1.29 1.64,1.91 3.32,1.91 z m 22.22,-7.34 c 2.07,-0.08 6.41,-1.17 8.32,-2.35 1.18,-0.74 2.82,-2.3 2.82,-2.3 31.48,-114.92 57.73,-183.75 84.49,-232.31 0,0 -0.47,-8.94 -2.23,-11.48 -3.2,-4.57 -4.76,-3.44 -8.9,3.75 -16.8,32.54 -32.82,68.52 -47.74,105.55 -17.58,43.63 -33.16,88.75 -39.76,131.72 0.35,5.54 -0.9,7.07 3,7.42 z m 212.43,-65.7 c 4.45,0 8.08,-3.6 8.08,-8.05 0,-4.45 -3.63,-8.09 -8.08,-8.09 -4.46,0 -8.09,3.64 -8.09,8.09 0,4.45 3.63,8.05 8.09,8.05 z m -654.34,1.48 c -9.34,-12.74 -16.992,-58.28 -26.718,-58.83 -10.661,0.16 -23.672,6.29 -32.071,-3.36 -10.191,-11.76 -3.941,-24.72 8.629,-31.87 5.789,-2.85 18.051,-3.52 25.512,-1.37 30.59,10.23 42.187,59.8 24.648,95.43 z m 684.88,-11.95 c 6.45,0 11.64,-5.24 11.64,-11.68 0,-6.45 -5.19,-11.64 -11.64,-11.64 -6.44,0 -11.64,5.19 -11.64,11.64 0,6.44 5.2,11.68 11.64,11.68 z m -684.329,-5.55 c 10.43,-26.25 -1.141,-57.66 -13.871,-68.24 -11.719,-9.73 -30.078,-10.98 -40.59,-1.49 -8.75,8.21 -4.84,27.93 11.449,26.49 5.469,-0.2 12.032,-5.2 15.7,-10.47 10.632,-1.1 22.851,52.77 27.312,53.71 z m 724.919,-6.41 c 7.26,0 13.16,-5.9 13.16,-13.16 0,-7.23 -5.9,-13.13 -13.16,-13.13 -7.27,0 -13.13,5.9 -13.13,13.13 0,7.26 5.86,13.16 13.13,13.16 z m 46.56,-9.29 c 7.42,0 13.44,-5.98 13.44,-13.4 0,-7.42 -6.02,-13.44 -13.44,-13.44 -7.42,0 -13.4,6.02 -13.4,13.44 0,7.42 5.98,13.4 13.4,13.4 z m -433.28,-61.02 c 2.03,0.04 3.4,-1.87 4.73,-5.74 2.73,-8.01 2.65,-8.95 -1.6,-14.3 -41.25,-57.15 -3.64,-115.55 56.17,-121.91 5.04,-0.35 7.58,-6.02 10.23,-12.62 -0.35,-3.12 -0.39,-3.12 -13.94,-3.36 -8.87,-0.16 -15.98,0.39 -20.43,1.56 -20.94,5.67 -46.6,24.57 -57.11,42.11 -12.11,20.24 -14.1,41.14 -6.64,68.99 4.76,17.89 10.86,29.72 20.23,39.45 3.75,3.87 6.37,5.82 8.36,5.82 z m 391.25,-6.33 0.7,-196.01 -20.89,-7.62 0.85,208.48 19.34,-4.85 z m 39.49,-7.58 c 26.02,-64.57 27.19,-123.75 3.67,-177.61 l -23.71,-3.44 c 32.54,75.9 18.71,130.2 0.32,182.62 l 19.72,-1.57 z m -1247.54,-10.74 84.46,-79.69 2.93,-887.851 -13.48,4.731 -5.352,873.28 -68.558,62.89 0,26.64 z m 824.69,-2.54 c 0.16,0 0.27,-0.04 0.43,-0.04 2.27,-0.27 4.34,-3.12 6.21,-8.51 2.27,-6.37 2.23,-6.56 -0.27,-12.85 -11.6,-28.4 -2.15,-55.43 26.48,-63.95 6.8,-2.15 7.89,-3.24 11.92,-11.68 2.57,-5.47 3.75,-7.46 2.73,-8.67 -1.48,-1.09 -5.12,-1.6 -15.9,0.74 -42.58,14.53 -58.04,61.1 -38.67,98.05 2.42,4.22 4.61,6.52 6.64,6.87 0.16,0 0.31,0.04 0.43,0.04 z m -339.019,3.52 c 0,0 8.899,-31.45 8.039,-38.56 -2.261,-13.79 -21.832,-35.78 -38.941,-43.82 -15.898,-6.1 -39.84,-3.01 -49.879,7.53 -36.449,42.66 31.52,85.47 48.629,41.06 10.27,-29.1 -31.519,-36.02 -33.359,-13.63 0,5.78 1.84,7.57 7.23,11.33 4.762,3.32 4.211,6.28 0.11,6.28 -15.782,-5.74 -16.129,-20.27 -9.059,-29.45 14.219,-14.88 31.84,-6.21 43.949,4.69 16.32,14.72 19.531,35.82 23.281,54.57 z m 352.579,-32.42 c 0.82,0 17.53,-39.93 19.72,-45.63 -0.54,-3.98 -4.92,-3.71 -12.34,1.53 -7.58,5.27 -9.85,8.98 -13.05,21.25 -0.94,4.37 -2.58,20.19 5.67,22.85 z m -339.032,-16.88 c 3.672,0 7.5,-13.47 5.782,-20.39 -3,-11.99 -34.372,-32.23 -56.442,-36.4 -4.418,-0.83 -9.137,-1.72 -10.508,-1.96 -4.531,-0.82 -9.879,1.72 -15.429,7.38 -3.911,3.99 -5.782,7.93 -4.801,8.87 0.738,0.78 10.859,-0.97 19.41,-0.86 24.02,-0.27 42.578,16.96 56.84,37.5 2.14,3.24 4.488,5.86 5.148,5.86 z m -477.34,-9.96 c 0,0 16.25,-14.73 24.801,-23.16 -0.898,-39.14 -15.347,-81.6 -15.347,-116.57 0.347,-30.46 20.078,-55.82 22.07,-82.3 1.168,-17.15 -3.871,-42.58 -12.301,-61.88 -7.851,-17.92 -12,-37.07 -12,-55.66 1.02,-43.24 32.078,-90.55 21.18,-133.32 -10.281,-40.2 -21.961,-63.44 -18.871,-84.77 5.98,-41.21 27.89,-77.69 22.07,-111.95 -5.43,-31.91 -19.84,-63.75 -18.32,-92.54 1.8,-33.2 14.218,-60.97 17.73,-91.29 2.27,-19.719 -3.281,-50.43 -3.281,-50.43 l -22.809,-1.871 c 12.539,46.64 -6.129,88.831 -13.281,133.711 -6.09,38.16 11.012,68.55 16.133,101.13 3.168,20.24 -0.434,39.53 -10.434,65.28 -19.797,47.57 -12.687,78.59 1.563,120.03 17.66,44.15 -6.602,79.07 -12.653,121.33 -3.128,36.45 -0.699,62.19 12.973,94.61 10.188,31.17 13.078,49.26 -2.109,79.18 -9.614,18.91 -12.153,30.08 -12.153,54.96 4.961,49.42 18.282,77.15 15.039,135.51 z m 488.204,-19.73 c 3.558,0 5.308,-2.5 5.308,-7.53 0,-9.22 -13.75,-20.9 -38.039,-32.31 -12.621,-5.94 -19.922,-6.84 -27.312,-3.32 -6.868,3.24 -6.52,6.09 1.019,8.28 18.981,5.55 32.461,13.17 47.813,26.92 4.879,4.37 9.961,7.96 11.211,7.96 z m -109.961,-6.36 c 62.699,-67.07 124.179,-101.64 171.168,-117.78 l -7.379,-17.54 c -61.758,23.91 -124.77,57.19 -178.129,128.72 l 14.34,6.6 z m 120.82,-10.94 c 1.68,0 8.051,-8.09 8.051,-10.27 0,-1.25 -2.313,-5.32 -5.16,-8.95 -4.141,-5.31 -7.813,-8.05 -18.161,-13.75 -14.07,-7.66 -22.543,-9.53 -28.64,-6.33 -6.051,3.21 -4.02,5.9 11.097,14.77 7.813,4.61 18.204,11.99 23.122,16.44 4.929,4.46 9.261,8.09 9.691,8.09 z m -166.09,-9.92 c 51.359,-70.28 117.5,-116.96 195.27,-141.88 l -12.231,-16.52 c -71.051,24.45 -140.5,68.75 -203.98,146.72 l 20.941,11.68 z m 179.367,-8.64 c 2.582,0 8.403,-6.56 8.403,-9.49 0,-1.4 -1.129,-3.98 -2.5,-5.7 -2.77,-3.52 -17.11,-14.3 -23.2,-17.46 -4.812,-2.46 -8.402,-2.42 -13.601,0.15 -6.168,3.09 -5.11,5.67 4.961,12.15 4.929,3.17 12.39,9.07 16.609,13.09 4.18,3.98 8.391,7.26 9.328,7.26 z m -206.636,-5.15 c -1.442,-1.84 -75.622,-171.68 -232.731,-292.11 l -0.75,28.2 c 87.039,69.03 150.32,163.52 198.051,246.06 l 35.43,17.85 z m 221.558,-12.19 c 2.391,0.08 4.07,-1.52 5.75,-4.73 1.988,-3.78 -0.199,-7.14 -8.988,-13.78 -5.473,-4.15 -7.543,-4.97 -12.07,-4.89 -11.68,0.24 -11.403,3.05 1.449,14.5 6.64,5.97 10.82,8.82 13.859,8.9 z m 303.44,-8.4 32.74,-2.5 c 8.82,-6.13 -128.01,-95.7 -222.86,-87.65 l 2.5,21.44 c 83.29,-2.34 189.89,64.85 187.62,68.71 z m -280.94,-8.36 c 7.5,-4.22 16.879,-9.22 14.57,-10.86 -3.511,-2.14 -25.699,-0.74 -30.82,2 -3.859,2.03 -3.629,3.12 1.641,9.02 6.488,7.27 7.578,3.71 14.609,-0.16 z m -291.949,5.32 c -51.91,-91.57 -113.75,-175.12 -185.27,-229.57 l -0.98,48.39 c 68.129,52.43 119.648,148.21 119.809,148.56 l 66.441,32.62 z m 650.039,-5.82 15.86,-9.3 c -98.95,-91.6 -205.86,-131.06 -308.559,-121.17 l 8.25,18.55 c 166.719,-13.16 277.379,110.12 284.449,111.92 z m 24.06,-3.25 c 0,0 5.31,0.67 4.77,-0.43 -32.89,-32.18 -78.01,-66.56 -107.54,-85.78 C 977.621,1517.89 857.809,1404.45 735.941,1276.45 l -19.492,20.39 17.653,18.67 c 0.039,36.91 45.199,78.24 71.988,110.11 11.18,12.58 32.148,44.97 29.769,58.56 -0.82,3.12 -0.937,4.3 -0.937,4.3 42.348,8.47 52.5,42.81 53.398,73.16 1.989,20.31 4.692,38.75 11.52,55.43 191.68,-15.39 315.2,125.74 320.47,130.7 z m -334.021,-21.21 c 21.723,0.08 38.16,-17.15 38.121,-41.52 -0.191,-10.2 -3.789,-17.97 -17.609,-44.92 -13.403,-23.09 -15.16,-37.11 -20.391,-63.75 l -13.64,12.22 -24.801,-22.34 0.351,32.54 c 0,0 8.559,10.9 22.379,26.41 17.539,19.45 33.403,44.49 32.66,58.55 -0.468,14.06 -15.347,25.51 -30.55,16.33 -13.2,-9.22 -19.289,-25.94 -27.071,-75.86 -1.359,-8.87 -2.648,-19.26 -3.398,-21.56 -1.949,-6.14 -21.051,-24.22 -21.051,-24.22 -1.598,0 -9.18,36.68 -9.18,36.68 l -19.3,-3.21 c 22.39,24.3 39.73,53.56 51.019,84.22 10.352,18.91 23.551,30.24 42.461,30.43 z m -420,-7.77 c 0,0 -38.398,-79.84 -105.898,-131.76 l -0.43,31.25 c 39.219,30.43 69.059,82.81 69.019,82.7 l 37.309,17.81 z m 924.961,-2.03 c -133.4,-138.13 -307.5,-392.46 -91.41,-749.772 l 28.52,32.934 c -173.98,323.168 -50.66,490.668 63.87,658.708 l -0.98,58.13 z m -721.328,-11.37 c 39.058,-27.77 79.848,-55.35 132.539,-72.89 -2.77,-9.38 -75.27,-70.35 -23.242,-126.76 2.152,-2.97 -3.36,-10.12 -11.84,-20.31 -24.84,-33.95 -49.649,-58.13 -70.43,-96.37 l -0.859,-71.79 -20.738,18.32 -5.43,369.8 z m 716.208,-6.64 0.9,-40.94 c -198.2,-240.9 -175.9,-457.77 -63.87,-657.58 l -21.44,-21.75 c -183.63,316.05 -69.06,554.33 84.41,720.27 z m -488.982,-24.22 c -8.75,-23.08 -46.949,-62.62 -46.949,-62.62 0,0 5.031,38.52 8.242,50.67 2.418,9.26 7.93,21.8 13.36,27.77 15.429,16.99 30.82,-2.26 25.347,-15.82 z m -262.968,21.64 3.711,-322.73 -27.852,28.08 -4.098,246.8 28.239,47.85 z m -37.621,-63.12 5.55,-219.14 c -27.808,65.66 -66.91,137.5 -67.699,136.79 0,0 32,42.46 62.149,82.35 z m 220.043,-68.6 c 0,0 4.218,3.6 10.898,11.21 14.449,14.61 15.781,14.73 14.41,-4.96 -0.5,-7.58 -0.07,-17.3 -0.07,-17.3 8.469,4.92 28.39,28.48 34.058,24.22 4.332,-4.1 7.852,-12.62 7.93,-25.86 -0.469,-25.98 -15.156,-49.77 -38.437,-57.54 -64.219,-19.88 -107.27,54.18 -62.692,101.13 4.449,4.65 17.071,13.32 23.121,11.6 7.539,-13.71 7.27,-28.94 10.782,-42.5 z m 637.228,23.28 c 3.71,-10.19 8.51,-20.31 21.52,-24.88 -1.99,-313.79 -0.51,-869.37 -0.51,-869.37 l 63.09,-59.218 -0.39,-25.864 -83.63,76.563 c 0,0 -4.5,655.159 -0.08,902.769 z m 62.65,-14.53 c 2.27,-30.35 -2.89,-62.3 2.31,-93.47 5.16,-21.57 12.97,-41.02 13.59,-62.23 0.59,-19.41 -0.66,-30.47 -8.98,-57.54 -5.78,-18.91 -6.37,-21.91 -7.7,-40.86 -3.12,-26.29 5.39,-50.15 11.92,-71.13 8.67,-27.81 6.25,-61.45 -7.62,-105.78 -5,-15.98 -5.94,-22.7 -5.2,-37.19 1.92,-30.35 12.74,-59.22 18.29,-89.02 2.96,-17.109 -0.08,-39.46 -10.59,-77.351 -3.95,-14.098 -8.05,-38.668 -8.05,-47.969 0,-9.961 3.17,-28.711 6.25,-36.789 14.61,-38.359 15.32,-45.242 16.06,-68.281 0.12,-17.309 -4.88,-34.809 -11.02,-50.039 -10.23,-24.34 -3.51,-49.34 0,-76.68 l -25.15,21.481 c -7.43,23.437 -4.81,45.308 2.07,62.769 9.76,27.348 12.22,29.891 12.07,45.59 -0.16,20.859 -12.11,45.551 -17.07,60.199 -8.79,26.051 -8.83,51.602 -0.08,79.141 4.3,13.508 10.47,40.039 11.87,50.777 2.66,20.703 0.67,37.032 -9.76,78.592 -5.04,20.28 -6.14,28.09 -6.49,48.24 -0.31,18.72 2.39,38.13 8.4,60.63 8.63,35.82 8.56,57.3 -2.69,90.51 -9.11,27.42 -11.64,46.05 -9.34,67.89 1.37,12.69 4.81,24.57 10.63,36.44 10.78,26.88 12.42,52.62 4.41,78.32 -13.79,52.58 -13.56,79.3 -12.19,126.76 l 24.06,6.99 z m -70.66,-17.18 c -2.23,-215.08 0,-461.25 0,-461.25 0,0 -63.67,-44.61 -63.44,-42.31 -82.07,135.35 -113.36,334.77 30,514.61 0,0 23.09,-9.84 33.44,-11.05 z m -968.91,-51.29 c 116.18,-216.92 131.289,-436.06 -60.781,-660.859 6.172,-19.891 5.16,-38.402 2.07,-56.531 37.461,29.14 337.781,329.11 84.852,746.76 l -26.141,-29.37 z m 592.04,17.65 57.07,-3.32 3.82,-49.1 -18.43,-18.28 c 0,0 -0.36,10.16 -0.59,19.22 -0.27,11.09 -1.87,20.78 -2.89,20.43 -0.98,-0.31 -1.99,-13.24 -2.81,-27.35 l -0.86,-21.09 -6.41,-6.37 c -8.47,-8.51 -10.19,-7.85 -10.55,4.14 -0.7,26.02 -0.62,27.82 -2.53,25.9 -1.1,-1.05 -1.68,-10 -1.96,-23.44 -0.19,-10.66 -0.93,-20.89 -1.64,-22.73 -1.44,-3.71 -12.3,-13.4 -15.04,-13.4 -2.65,0 -2.5,3.75 -2.54,19.92 0,13.68 -1.4,21.18 -3.63,16.14 -0.51,-1.17 -1.41,-14.77 -1.6,-25.78 -0.2,-11.02 -0.94,-21.1 -1.6,-22.35 -2.35,-4.45 -13.56,-13.9 -15.55,-13.16 -2.81,1.09 -3.51,9.18 -3.44,22.73 0.04,6.64 1.1,12.23 -1.44,14.06 -2.58,1.8 -3.05,-5.89 -2.35,-25.39 l -0.19,-21.17 -7.15,-7.81 c -11.33,-11.68 -12.11,-11.13 -12.15,9.02 0.51,15.98 -0.04,22.97 -3.2,21.72 -3.13,-1.29 -1.88,-8.98 -1.29,-24.72 0.59,-14.07 0.39,-21.1 -0.55,-22.9 -0.78,-1.4 -4.45,-5.54 -8.16,-9.18 -3.751,-3.63 -8.321,-8.67 -8.868,-8.67 -0.863,16.92 -2.301,53.4 -2.301,53.4 l -59.531,2.62 c 0,0 12.18,14.45 17.379,17.26 2.652,1.45 6.871,1.61 21.801,0.94 10.152,-0.43 23.82,0.43 25.031,0.9 4.5,1.72 -4.84,3.24 -17.961,4.1 -8.75,0.63 -11.02,0.39 -20.75,1.84 l 8.64,8.9 6.52,6.49 18.98,-0.63 c 11.49,-0.39 20,-0.31 21.33,0.43 11.25,2.19 0.71,4.77 -12.111,4.77 -12.5,0.04 -19.57,0.04 -19.57,2.81 0,2.77 13.992,15.47 18.012,16.29 2.031,0.43 12.229,0.86 22.619,0.94 17.81,0.15 24.29,0.39 23.32,3.36 -1.02,2.97 -12.85,2.11 -20.71,2.46 -21.83,0 -22.85,0.86 -7.92,13.9 l 7.22,6.33 13.71,-0.39 c 20.63,-0.55 30.67,0.28 30.67,2.23 0,1.76 -13.48,3.48 -24.89,3.48 -6.83,0 -12.38,-0.12 -12.38,-0.12 5.12,6.64 10.59,12.03 16.56,17.93 l 18.44,0.35 c 13.48,-0.2 21.76,-0.7 21.95,1.76 0.24,2.46 -4.8,2.42 -11.01,2.46 -8.36,0.04 -18.32,0.78 -19.65,2.11 -1.41,1.4 1.25,5.35 7.11,10.58 l 6.02,5.43 z m -564.93,-0.62 c 159.609,-260.74 102,-542.498 -75.969,-717.889 l -5.242,34.219 c 168.011,204.33 197.351,415.31 61.453,663.55 l 19.758,20.12 z m 296.839,-35 c -28.668,-43.09 -72.461,-85.63 -89.019,-120.78 -3.36,-3.99 -4.5,-12.89 -9.731,-14.69 -2.621,0 -3.48,4.96 -2.808,16.48 0.469,8.68 1.289,11.57 5.469,20.04 22.609,41.29 48.82,70.94 77.769,110.16 l 18.32,-11.21 z m 6.719,-4.18 26.481,-1.68 c -5.899,-18.75 -13.829,-32.11 -23.2,-44.3 -12.031,-15.58 -26.48,-31.29 -43.32,-50.47 -24.379,-27.77 -36.598,-56.09 -35.469,-68.51 -6.129,-6.45 -10.351,-10.86 -18.09,-17.46 l -15.46,14.22 c 11.441,58.74 66.949,112.73 109.058,168.2 z m 324.102,-23.87 8.55,-0.51 c 29.42,-1.72 47.74,-3.51 48.79,-4.8 0.63,-0.78 1.49,-5.28 1.92,-10 0.66,-7.15 0.04,-11.92 -3.75,-28.99 -2.46,-11.25 -5.28,-21.21 -6.17,-22.14 -3.4,-3.44 -4.73,0 -6.33,15.93 -0.94,9.65 -1.33,16.64 -2.58,15.86 -0.59,-0.39 -1.91,-10.7 -1.56,-18.4 1.01,-20.07 0.86,-24.96 -5.35,-31.01 -10.9,-10.59 -11.53,-9.53 -12.35,9.3 -0.35,7.77 -2.19,19.14 -2.73,19.68 -2.39,2.39 -3.17,-8.43 -3.17,-26.72 l 0,-19.49 -5.19,-5.62 c -6.76,-7.35 -8.95,-8.44 -11.45,-5.94 -1.52,1.52 -0.97,4.84 -0.97,15.98 0,13.04 -2.27,20.58 -4.77,18.08 -0.43,-0.47 -0.55,-13.12 -0.59,-24.1 -0.03,-11.02 -0.19,-20.74 -0.31,-21.6 -0.43,-2.66 -12.77,-15.12 -15,-15.12 -2.62,0 -4.69,14.38 -4.69,26.13 0,7.82 -1.68,9.22 -3.32,4.89 -0.43,-1.06 -0.74,-12.07 -0.74,-21.96 l 0,-17.93 -7.26,-7.5 c -9.73,-10.07 -11.33,-9.49 -11.33,4.3 -0.04,11.84 -0.82,18.13 -3.21,18.13 -1.4,0 -1.71,-5.63 -1.71,-18.95 0,-9.14 -0.59,-18.2 -1.33,-20.12 -0.7,-1.91 -3.91,-6.13 -7.07,-9.33 -3.17,-3.24 -6.41,-5.9 -7.23,-5.9 -1.33,0 -3.24,11.25 -2.73,16.09 0.11,1.02 0.11,8.09 0,15.75 -0.28,18.2 0.97,17.46 -28.13,18.35 -34.139,1.06 -34.65,1.29 -24.33,11.22 9.72,9.45 8.36,9.1 30.97,7.57 18.21,-1.21 20.39,-1.13 22.23,0.71 1.09,1.09 1.72,2.3 1.37,2.65 -0.36,0.35 -7.27,0.98 -15.39,1.45 -22.47,1.25 -24.42,2.85 -14.93,12.38 l 5.39,5.39 23.01,0 c 15.51,0 26.1,0.7 26.64,1.6 1.53,2.43 -4.65,3.05 -19.41,3.91 -7.93,0.47 -15.39,1.09 -16.6,1.45 -3.75,1.13 -2.35,4.92 3.98,10.85 l 6.13,5.71 20.28,0 c 18.86,0 28.08,1.21 28.08,3.71 0,1.76 -3.75,2.46 -13.43,2.58 -13.68,0.19 -22.82,1.52 -23.4,3.39 3.32,6.45 7.93,10.04 13.32,15.43 l 20.66,-0.7 c 20.78,-0.74 27.31,0 27.31,3.63 0,1.88 -8.91,3.25 -20.43,2.54 -7.42,-0.43 -16.41,1.33 -16.41,3.95 0,1.13 3.01,5.04 6.64,8.67 l 6.72,6.56 20.2,-0.82 c 11.28,-0.43 23.32,-0.35 24.21,0.28 3.36,2.3 -4.41,4.1 -17.11,4.84 -19.6,1.13 -20.89,2.66 -10.54,12.46 l 6.6,6.25 z m -705.16,-10.82 c 104.769,-187.62 89.07,-364.37 -22.5,-514.8 -12.809,7.461 -26.481,11.519 -41.09,13.082 l -2.809,453.008 66.399,48.71 z m 749.34,-73.32 c 2.11,0.31 2.07,-3.12 1.48,-10.39 -0.46,-5.86 -1.36,-11.99 -1.99,-13.63 -1.21,-3.17 -2.15,-3.28 -12.34,-1.84 -11.56,1.64 -11.41,3.75 1.33,16.29 6.17,6.05 9.68,9.3 11.52,9.57 z m -562.501,-8.44 c 0,0 13.789,0.08 20.7,-0.15 0,0 1.062,-35.08 3.91,-55.36 l 44.883,-2.14 -17.422,-18.13 -34.059,1.06 c 0,0 -10.351,49.84 -18.012,74.72 z m 535.121,-21.21 c 6.32,0.12 22.93,-2.73 24.88,-4.69 1.52,-1.52 1.56,-5.27 0.23,-27.93 -0.5,-8.16 -0.97,-25.7 -1.09,-38.98 -0.2,-24.02 -0.2,-24.1 -2.97,-24.49 -3.67,-0.51 -4.1,0.74 -5.08,16.6 -0.54,8.91 -1.79,16.68 -2.81,17.03 -1.21,0.39 -1.09,-7.46 -1.09,-23.71 l 0,-20.98 c -3.56,-2.97 -6.88,-6.91 -10.98,-8.98 -2.5,0 -3.87,3.94 -5.12,14.92 -1.21,10.9 -2.42,18.59 -3.9,16.17 -0.32,-0.58 -0.2,-12.46 0.5,-22.18 l 1.29,-17.78 -7.89,-7.93 c -8.08,-8.12 -9.1,-8.79 -10.39,-6.72 -3.04,8.09 1.25,45.12 -6.05,49.81 -1.17,0.62 -10.86,0.9 -22.07,1.37 -18.95,0.78 -29.73,1.09 -32.39,3.39 -1.6,1.37 7.39,11.76 11.96,13.83 3.32,1.53 7.07,1.6 22.69,0.55 18.13,-1.21 27.23,-1.06 24.85,1.25 -0.63,0.58 -9.85,1.95 -17.07,2.65 -14.53,1.45 -19.69,2.93 -19.69,5.63 3.4,6.02 7.54,9.53 12.54,14.69 l 7.03,-0.74 c 3.87,-0.4 13.05,-1.37 20.35,-2.19 7.31,-0.86 22.07,-0.98 16.13,-0.47 1.92,1.91 -5.62,3.91 -16.09,5.19 -19.73,2.47 -21.52,4.69 -11.6,14.5 l 6.09,5.97 c 10.39,-0.78 20.86,-1.05 31.14,-2.61 7.53,-1.21 11.6,-0.79 11.6,1.75 0,1.8 -3.75,1.72 -12.82,3.52 -3.32,0.66 -20.31,0.43 -20.58,5.43 4.02,5.55 11.17,15.66 18.4,16.13 z m -460.16,-42.58 c 3.051,0.16 3.16,-7.18 3.52,-26.56 0.308,-21.25 0.66,-24.92 2.5,-26.72 1.75,-1.76 6.09,-2.34 24.719,-3.28 28.562,-1.44 29.3,-1.87 19.222,-11.56 -6.992,-6.76 -7.301,-5.9 -13.051,-5.24 -15.07,1.76 -37.14,1.37 -38,-0.03 -1.492,-2.43 0.11,-2.9 13.899,-3.95 16.801,-1.29 21.41,-1.88 21.41,-4.73 0,-1.25 -2.891,-4.92 -6.367,-8.2 l -6.332,-5.9 -17.692,0.71 c -18.597,0.74 -28.128,1.01 -28.128,-1.53 0,-1.52 10.628,-3.2 27.46,-4.88 4.379,-0.43 8.829,-0.47 9.071,-1.21 0.621,-1.84 -7.891,-12.38 -13.129,-16.29 -4.301,-3.17 -5.703,-1.41 -24.371,-1.02 -19.031,0.43 -20.672,-0.31 -17.11,-3.83 0.821,-0.82 3.981,-0.93 11.09,-1.4 11.641,-0.82 17.231,-2.58 17.231,-5.47 0,-2.73 -10.512,-13.63 -15.434,-15.98 -4.34,-2.03 -6.207,-2.15 -15.816,-0.78 -7.582,1.06 -8.992,2.62 -8.793,9.73 0.082,3.2 0.621,23.94 1.211,46.13 1.129,42.81 1.48,45 7.148,44.18 2.422,-0.31 3.012,-3.24 3.633,-17.77 0.699,-15.47 1.367,-18.52 3.91,-18.52 0.969,0 1.129,6.14 0.5,21.02 -0.93,23.12 -0.973,26.56 6.098,33.28 3.121,2.97 5.621,5.35 7.109,3.2 2.973,-9.14 2.113,-19.1 3.012,-28.24 -0.078,-9.22 3.512,-11.13 4.332,-2.34 -0.434,13.9 -0.551,26.4 -0.621,41.25 l 8.59,8.51 c 4.531,4.49 7.379,7.31 9.179,7.42 z M 632.699,1285 c 3.391,0.59 22.531,0.27 25.27,-0.39 -4.809,-7.58 -15.039,-17.46 -22.028,-21.84 -1.761,-0.07 -3.601,18.44 -3.242,22.23 z m 541.251,-42.03 4.06,-28.56 -31.21,2.11 27.15,26.45 z m -420.509,-4.61 c 0.231,0 0.43,-0.04 0.539,-0.08 2.27,-0.86 2.899,-6.4 3.79,-32.93 0.429,-12.5 1.289,-22.26 2.07,-23.2 0.898,-1.1 4.769,-1.6 12.039,-1.6 5.851,0 16.91,-0.39 24.57,-0.82 16.711,-0.98 17.141,-1.68 7.18,-11.49 l -6.719,-6.64 -20.89,0.82 c -21.45,0.9 -25.04,0.55 -25.04,-2.42 0,-1.99 3.668,-2.97 10.5,-2.77 2.739,0.07 9.571,-0.32 15.161,-0.82 12.539,-1.18 12.808,-2.11 3.437,-12.19 l -6.719,-7.23 -6.519,0.9 c -10.512,1.45 -38.129,1.09 -39.731,-0.51 -2.578,-2.58 0.782,-3.67 13.36,-4.45 19.492,-1.17 22.89,-1.76 22.89,-3.98 0,-1.06 -2.769,-4.73 -6.129,-8.09 l -6.058,-6.06 -24.723,1.29 c -17.39,0.28 -23.289,0 -23.679,-1.13 -0.661,-1.95 2.152,-2.58 20.039,-4.41 17.191,-1.76 19.691,-3.56 13.171,-11.68 -7.191,-8.91 -9.89,-9.92 -23.402,-8.64 -14.879,1.45 -30.078,1.49 -32.269,0.08 -3.43,-2.15 0.082,-3.59 10.671,-4.41 16.008,-1.17 25.348,-2.89 25.348,-5.24 0,-2.65 -5.308,-9.45 -10.43,-13.39 l -4.218,-3.21 -18.282,1.96 c -18.238,1.91 -27.539,0.97 -24.957,-1.64 0.778,-0.75 7.539,-1.8 15.039,-2.35 13.75,-1.01 20.579,-2.77 20.579,-5.62 0,-0.86 -3.508,-5 -7.77,-9.22 -4.34,-4.3 -9.219,-7.15 -9.219,-7.15 l -56.289,5.04 c 0,0 -2.851,10.04 2.77,37.34 5.121,24.61 7.187,30.16 9.648,25.59 0.672,-1.29 1.289,-7.27 1.762,-11.33 1.168,-9.88 3.59,-16.09 5.039,-16.09 1.641,0 1.641,5.86 -0.512,19.68 -2.968,19.22 -3.277,20 4.032,27.74 6.281,6.64 9.839,8.24 11.789,5.19 0.55,-0.86 1.293,-9.57 2.07,-16.91 1.293,-12.85 2.07,-15.82 3.75,-14.14 1.062,1.09 1.883,4.76 0.672,23.87 l -1.492,18.55 8.242,8.4 c 7.5,7.65 8.359,8.2 9.89,6.21 1.047,-1.33 2.18,-9.34 2.731,-18.83 0.816,-14.02 1.949,-18.67 3.988,-16.6 0.969,0.94 0.5,32.85 -0.551,40.23 -0.66,4.81 -0.308,5.55 5.782,12.39 7.269,8.12 11.089,11.52 13.089,11.56 2.571,0.04 4.02,-7.97 4.02,-18.59 0.039,-11.37 0.941,-15.86 1.988,-17.31 2.742,-3.67 3.051,9.18 2.391,21.84 l -0.707,23.12 7.5,7.5 c 7.066,7.11 7.656,7.42 9.648,5.43 1.641,-1.64 1.52,-5.58 2.192,-17.22 1.008,-16.18 4.179,-24.03 5.078,-12.82 0.461,2.54 0.43,7.46 -0.16,10.98 -0.551,3.52 -1.02,11.48 -1.02,17.66 0.039,9.45 0.512,11.99 2.82,15.7 3.321,5.39 13.122,13.83 16.211,14.14 z m 325.229,-17.62 c 0,0 12.58,-10.74 12.58,-13.79 0,-1.36 -4.96,-7.26 -11.72,-13.9 -12.42,-12.19 -13.59,-14.26 -15.04,-27.35 -0.54,-4.88 -3.01,-11.36 -8.75,-22.89 -4.37,-8.86 -10.74,-19.18 -10.74,-19.18 -19.84,-23.71 -38.55,-45.43 -73.32,-95.47 -1.989,-4.57 -2.071,-9.18 -4.102,-13 -1.558,-2.82 -5.078,-5.16 -6.637,-5.82 -2.269,-0.94 -6.882,-3.79 -10.203,-6.33 -13.008,-9.92 -21.359,-22.971 -25.148,-39.221 -2.039,-8.75 -3.25,-16.641 -6.801,-43.711 C 917.34,908.949 912.461,889.57 912.461,889.57 837.73,890.621 767.809,877.699 705.43,842.5 l 373.24,378.24 z m 99.85,-11.48 16.64,-75.51 -17.11,0.35 -1.72,54.85 -53.44,5.07 19.1,18.48 36.53,-3.24 z m -81.06,-6.92 c 4.57,-4.64 10.27,-9.76 14.42,-14.84 -14.3,-47.77 -59.54,-109.73 -104.5,-171.21 l -32.931,3.59 c -0.578,1.33 45.631,65.78 67.741,90.2 8.43,10.19 14.14,19.88 21.68,34.92 2.69,5.43 7.46,19.49 11.09,34.18 7.77,9.37 22.54,23.01 22.5,23.16 z m 17.74,-16.75 24.88,-25.24 6.09,-357.541 c -38.4,30.16 -83.67,52.461 -131.95,69.461 l 8.44,19.21 9.29,10 c 32.82,35.508 25.51,73.75 0.55,100.79 30.39,44.37 57.97,77.42 81.13,120.74 l -0.31,29.69 c -0.27,27.38 1.88,32.89 1.88,32.89 z m -297.93,-14.93 c 2.57,0.28 2.929,-6.32 3.589,-25.07 0.621,-17.54 1.332,-25.82 2.5,-27.66 1.563,-2.46 3.051,-2.66 23.75,-3.28 21.84,-0.67 26.371,-1.29 26.371,-3.63 0,-0.67 -2.82,-4.03 -6.21,-7.47 l -6.25,-6.25 -19.461,0.32 c -10.348,-0.32 -22.579,-0.12 -22.93,-0.43 -1.719,-1.57 4.769,-3.75 14.262,-3.79 5.898,0 15.269,-1.06 16.328,-1.45 3.711,-1.4 1.992,-5.04 -6.059,-12.77 l -8,-7.73 -17.66,0.35 c -9.73,0.19 -21.52,-0.12 -23.051,-0.63 -5.39,-1.76 -2.687,-3.24 6.172,-3.36 14.891,-0.19 25.117,-1.44 25.551,-3.75 0.238,-1.13 -2.543,-5.23 -6.172,-9.14 l -6.602,-7.11 -25.976,1.1 c -24.57,-0.2 -27.891,-2 -7.383,-4.07 7.813,-0.78 20.16,-2.69 20.582,-2.77 0.43,-0.08 1.141,-1.02 1.57,-2.07 0.86,-2.23 -9.031,-13.4 -14.339,-16.09 -2.692,-1.41 -4.571,-1.53 -9.301,-0.43 -5.539,1.25 -29.332,1.01 -31.91,-0.51 -2.153,-1.29 2.539,-2.77 9.14,-2.89 9.918,-0.24 21.797,-3.09 21.797,-5.47 0,-1.95 -5.039,-8.2 -10.387,-12.89 -2.5,-2.15 -8.402,-0.2 -24.851,-0.74 -11.25,-0.39 -18.75,-1.449 -18.75,-2.191 0,-0.668 5.59,-2.891 12.781,-3.398 7.109,-0.512 16.828,-2.192 17.5,-2.852 1.68,-1.68 -10.98,-16.598 -10.98,-16.598 l -54.02,0.739 -4.961,57.23 4.57,5.31 c 10.348,11.91 12.61,10.19 14.68,-11.21 1.488,-15.71 2.621,-20.51 4.891,-18.24 0.859,0.85 0.5,9.8 -0.352,22.96 -0.668,10.86 -1.25,20.75 -1.25,22 0,2.97 12.262,15.86 14.68,15.43 2.351,-0.47 3.672,-5.82 4.961,-20.47 1.019,-12.03 1.609,-15.35 3.988,-12.97 1.094,1.13 1.25,7.42 0.152,22.66 l -1.48,19.92 5.23,6.21 c 10.469,12.38 12.5,11.01 13.79,-9.14 0.859,-13.6 2.191,-20.78 4.691,-20.78 0.82,0 0.859,10.19 0.348,25.54 l -0.778,23.05 6.52,6.64 c 3.597,3.63 7.269,6.6 8.129,6.6 2.539,0 3.98,-5.78 5.621,-19.45 1.801,-15.31 2.39,-17.93 3.871,-16.45 0.629,0.63 0.469,9.89 -0.352,21.8 l -1.84,22.81 7.969,8.09 c 4.379,4.41 8.789,7.89 9.77,7.69 2.422,-0.46 3.98,-7.38 4.14,-17.14 0.192,-9.11 1.762,-16.96 3.75,-18.99 1.012,-0.98 1.332,4.61 1.051,20.9 -0.39,25.04 -1.012,26.95 10.238,38.71 3.051,3.13 5,5.16 6.372,5.27 z m 291.68,-10.23 0.27,-34.96 c -14.02,-30 -46.41,-73.95 -79.26,-121.09 l -17.11,9.25 c 41.06,53.83 75.39,104.03 96.1,146.8 z M 640,1149.45 c 0.781,0 1.641,-0.04 2.578,-0.07 8.871,-0.51 9.102,-3.6 0.863,-11.29 -3.441,-3.25 -7.39,-5.82 -8.871,-5.82 -2.582,0 -2.691,0.39 -1.91,7.03 0.969,8.2 1.949,10.11 7.34,10.15 z m 535.2,-25.23 24.21,-23.79 6.06,-256.051 -25.47,-41.57 -4.8,321.411 z m 30.31,-33.75 c 21.83,-51.33 44.49,-99.49 69.61,-138.521 l -64.69,-91.359 -4.92,229.88 z m -217.701,-79.81 c 29.771,0.43 57.151,-23.121 60.591,-47.07 6.52,-27.461 -7.62,-57.07 -30.86,-66.129 -8.09,-2.93 -12.81,-3.121 -12.81,-3.121 -2.85,16.558 -1.61,32.539 -5.39,49.371 0,0 -13.91,-18.402 -21.762,-24.801 -4.058,-2.269 -5.898,-2.859 -5.348,2.461 0.27,9.289 0.969,29.957 0.969,29.957 l -34.371,-35.59 c 0,0 -2.808,3.871 -6.098,12.742 -10.82,28.899 3.211,59.059 25.36,72.93 9.64,6.36 19.801,9.14 29.719,9.25 z m 457.391,2.19 0.66,-31.33 C 1391.88,939.691 1314.92,851.559 1248.98,736.68 l -29.02,-12.231 c 44.73,106.922 139.18,215.781 225.24,288.401 z m 0.58,-41.17 0.55,-46.68 c -47.58,-45.738 -88.95,-93.012 -124.96,-153.871 -21.02,-10.109 -59.92,-29.289 -59.92,-29.289 -4.89,1.211 106.05,173.859 184.33,229.84 z M 965.551,931.719 c 2.179,0.043 2.07,-4.18 1.398,-10.27 -1.558,-13.75 -3.16,-18.75 -8.199,-25.469 -17.461,-20.589 -45.16,-48.601 -48.91,-74.609 -1.91,-13.949 8.949,-26.961 19.609,-25.633 33.129,4.141 36.723,63.051 39.5,92.114 1.172,7.187 1.711,13.238 2.891,15.507 6.988,8.911 14.488,17.621 23.941,24.653 l 4.059,-45.043 18.68,6.25 c -52.7,-71.559 -37.54,-76.059 -65.321,-105.391 -25.82,-27.226 -75.898,3.793 -63.078,45.231 11.129,27.851 28.359,55.82 33,85.711 1.289,8.859 2.039,15 2.039,15 l 11.949,-24.969 c 6.09,6.019 23.871,25.859 28.442,26.918 z m 482.179,-15.43 -0.11,-32.148 c -24.57,-27.661 -45.74,-48.911 -70.82,-87.11 l -39.85,-18.16 c 25.98,49.57 68.67,95.899 110.78,137.418 z M 960.898,887.93 c 0,0 2.622,-15 -3.199,-42.27 -2.777,-12.93 -15.199,-50.621 -34.847,-41.75 -16.68,14.762 3.628,42.11 13.91,55.039 7.886,9.25 16.519,19.289 24.136,28.981 z M 908.441,884.059 897.578,860.82 C 799.961,860.469 705.121,825.551 620.738,754.262 l -21.328,6.988 c 89.379,84.57 200.238,125.66 309.031,122.809 z m 102.609,-17.848 c 110.04,-36.832 160.83,-90.59 202.43,-146.992 l -17.39,-8.91 c -43.59,56.453 -97.42,108.089 -197.649,137.972 l 12.609,17.93 z M 885,831.449 880.309,811.52 C 818.711,809.691 753.711,787.809 690.43,743.91 l -22.809,3.629 C 731.289,797.5 804.02,826.02 885,831.449 z m 281.6,-134.539 -19.57,-9.211 c -58.28,75.66 -111.01,97.18 -170.94,116.442 l 6.488,16.8 C 1063.05,799.57 1122.15,758.711 1166.6,696.91 z m -813.08,89.219 1.679,-201.867 -14.07,2.808 -1.988,195.2 14.379,3.859 z M 320.941,775.16 c -26.8,-100.39 -6.019,-126.41 3.668,-185 l -22.187,3.551 C 280.82,653.09 278.59,707.07 296.84,770.121 l 24.101,5.039 z M 995.27,759.77 c 1.679,-1.61 -1.321,-6.571 -5.469,-8.989 -4.02,-2.383 -3.121,-1.992 -9.531,0.309 -6.211,2.23 -14.141,8.129 -14.141,10.359 4.531,-0.078 25.16,0.153 29.141,-1.679 z m 18.91,-1.45 c 3.67,-0.429 14.3,-0.23 14.96,-3.55 0.24,-2 -3.91,-5.2 -12.42,-11.02 -12.97,-8.871 -17.341,-10.59 -21.169,-6.41 -3.602,3.988 -2.539,8.129 3.508,13.711 5.901,5.429 9.341,7.308 15.121,7.269 z m -441.91,-2.191 c 7.421,0 20.66,-9.18 28.671,-19.801 8.118,-12.699 17.457,-25.738 25,-38.598 17.11,-29.21 30.348,-58.82 41.399,-89.179 28.988,-72.102 45.98,-142.071 60.121,-211.563 -0.27,-5.816 -5.352,-5.738 -9.492,-4.328 -2.188,0.66 -4.34,2.11 -4.77,3.238 -5.969,16.993 -8.078,34.411 -12.648,51.481 -11.449,42.742 -15.551,67.23 -37.582,127.461 -11.449,31.25 -28.008,74.769 -46.09,108.25 -11.609,21.441 -25,41.25 -42.43,58.75 -4.609,4.609 -10.308,8.781 -10.308,9.68 0,2.968 2.89,4.609 8.129,4.609 z m 470.15,-2.34 c 6.88,-1.68 23.48,-3.629 17.15,-9.098 -23.28,-8.992 -30.86,-18.711 -43.2,-28.601 -1.88,0 -9.26,9.14 -9.26,11.371 10.04,12.34 22.66,17.578 35.31,26.328 z m -436.44,-0.078 c 9.719,0.348 19.29,-12.231 23.79,-20.191 29.96,-44.11 55.621,-107 76.75,-168.641 22.742,-66.359 37.152,-130.188 43.402,-175.469 -0.512,-1.398 -3.32,-1.91 -6.563,-1.871 -6.129,0.039 -6.988,1.441 -8.589,6.332 -15.629,74.879 -36.61,152.18 -62,217.809 -13.668,35 -29.141,70.082 -50.891,105.351 -14.848,21.758 -23.289,33.168 -22.617,34.879 0.429,1.141 2.886,1.719 5.738,1.719 0.309,0.043 0.66,0.082 0.98,0.082 z m -67.031,-1.289 c 13.16,0.039 34.922,-15.582 49.723,-35.621 31.289,-42.93 49.219,-93.129 67.848,-141.801 21.371,-55.781 36.761,-117.77 45.98,-166.602 1.559,-6.988 4.102,-10.039 -2.5,-12.226 -9.961,2.848 -9.77,2.578 -12.578,14.726 -3.902,13.051 -5.082,26.25 -8.793,39.532 -21.129,76.019 -44.758,160.351 -84.059,228.98 -47.191,75.551 -60.941,54.539 -68.519,67.86 0.59,3 5.828,5.109 12.898,5.152 z m 113.59,-18.473 c 40.551,-70.551 58.441,-113.91 70.781,-156.527 18.668,-64.57 40.821,-116.172 50.551,-191.602 0,0 -10.672,-0.199 -14.922,1.559 -1.758,1.762 -3.64,9.301 -4.769,15.473 -9.731,53.238 -25.59,116.25 -42.461,165.937 -18.168,55.231 -39.77,107.813 -71.719,158.59 -8.359,13.672 -9.961,19.07 -4.84,19.301 9.18,-0.629 13.199,-7.66 17.379,-12.731 z m 422.541,7.531 c 1.91,0 2.65,0.282 6.09,-0.89 5.35,-1.879 7.07,-3.051 7.38,-5.16 0.43,-3.09 -2.89,-4.102 -13.28,-6.52 -8.12,-1.922 -24.06,-10.43 -35.11,-19.609 -5.16,-4.262 -9.57,-8.871 -10.82,-8.871 -2.54,0 -8.6,6.679 -8.6,9.492 8.48,12.93 35.43,30.699 54.34,31.558 z m -558.869,-1.71 c 34.34,-1.059 61.211,-40.942 75.309,-67.821 5.468,-10.539 12.582,-21.988 17.968,-34.019 27.891,-62.27 51.532,-140.43 63.09,-190.352 5.543,-24.027 11.953,-41.637 9.692,-46.328 -2.821,-1.762 -8.79,-0.43 -11.571,1.91 -1.75,1.488 -2.687,7 -5.82,17 -8,25.738 -21.289,99.25 -55.859,176.52 -0.782,1.718 -17.5,50.621 -46.399,96.992 -11.762,18.867 -30.781,30.738 -48.133,34.609 -8.75,1.41 -11.328,0.391 -10.777,5.117 0.309,2.973 1.289,3.793 5.937,5.274 2.071,0.668 4.262,1.019 6.563,1.098 z M 730.82,580.43 c -2.34,0 -4.41,4.449 -5.98,11.8 -0.781,3.629 -1.828,6.211 4.961,10.469 42.578,45.27 5.937,111.789 -47.571,117.571 -4.96,0.75 -11.371,0.781 -13.21,1.492 -2.731,1.519 -7.731,11.129 -9.879,15.039 73.98,17.929 152.5,-88.012 71.679,-156.371 z m 368.56,147.968 c 4.41,-1.097 13.98,-10 12.81,-11.949 -1.45,-2.347 -9.73,-2.429 -21.72,-4.539 -25.43,-4.488 -36.33,-21.09 -48.17,-33.39 -2.61,-0.821 -4.96,1.011 -7.3,5.031 -1.72,2.929 -3.12,6.488 -3.12,7.898 13.2,19.211 48.63,38.711 67.5,36.949 z m -600.552,-5.699 c 21.641,0 43.242,-10.469 55.434,-27.539 44.367,-66.488 94.258,-214.18 106.168,-287.039 -1.211,-2.383 -4.379,-2.609 -10.508,-0.82 -3.442,0.98 -3.043,2.078 -5.192,8.828 -13.949,53.09 -29.218,104.652 -47.23,151.922 -9.262,24.328 -20.16,48.16 -30.43,69.57 -6.48,13.508 -19.57,37.578 -24.492,44.957 -11.68,21.91 -35.277,28.363 -50.156,21.293 -15.391,-8.359 -17.301,-28.211 -5.621,-37.031 9.719,-6.801 25.078,-5.668 30.699,4.84 1.949,3.711 1.328,8.32 0.078,9.492 -1.207,1.129 -3.359,0.816 -3.828,-0.434 0.781,-12.886 -15.66,-13.75 -22.852,-8.629 -11.488,8.551 -3.867,35.743 27.461,24.801 12.071,-6.32 16.129,-18.359 10.391,-31.129 -5.859,-13.051 -14.922,-18.98 -28.949,-18.902 -17.031,0.312 -36.321,12.262 -36.481,33.711 0.039,16.051 7.461,29.371 21.41,38.281 5.149,3.32 7.149,3.828 14.098,3.828 z m 183.16,-9.969 c 52.5,-2.421 76.602,-64.179 48.992,-101.48 -7.031,-8.91 -11.492,-7.27 -14.5,4.219 -1.48,4.73 -3.121,5.429 1.141,9.101 24.57,23.551 4.367,69.34 -36.141,71.168 0,0 -7.531,11.024 -8.32,16.883 2.738,0.969 6.371,0.109 8.828,0.109 z m 437.702,-4.25 c 3.98,-0.98 12.42,-9.07 12.42,-11.921 0,-3.36 -1.68,-2.731 -11.02,-1.129 -22.07,3.98 -44.18,-8.828 -62.61,-36.68 -8.95,-16.719 -10.08,-15.16 -14.77,-0.738 -2.42,7.418 -2.46,7.218 6.91,20.898 17.5,22.461 43.36,32.731 69.07,29.57 z m 20.51,-28.359 c 18.47,-16.762 9.88,-53.711 -15.08,-57.543 -22.03,-2.539 -41.57,21.25 -27.7,37.461 8.99,9.762 20.28,10.742 27.19,2.34 7.19,-8.668 4.14,-20.5 -6.06,-21.719 -1.17,-0.43 -2.14,-1.359 -2.14,-2.07 0,-2.141 9.02,-1.559 12.11,0.941 6.21,6.84 6.32,17.309 0.78,24.809 -4.89,6.601 -15.39,11.871 -23.79,8.43 -14.81,-5.27 -29.89,-25.348 -38.48,-50.622 -2.46,-7.109 -3.87,-13.789 -4.88,-15.347 -2.11,-3.25 -1.95,-3.172 -3.91,-1.922 -1.72,1.101 -4.88,16.57 -4.88,22.461 0,4.5 3.87,16.332 8.98,26.449 16.02,29.801 52.07,49.801 77.86,26.332 z m -450.04,7.5 c 21.481,-1.293 38.469,-31.723 29.141,-52.93 -2.891,-3.91 -7.071,-6.531 -8.992,-4.101 -0.7,0.89 -4.02,10.859 -8.59,21.398 -4.571,10.551 -8.789,20.864 -10.078,23.442 -3.442,7.3 -5.903,12.269 -1.481,12.191 z m -146.058,-17.66 c 24.488,-43.359 44.957,-93.082 61.949,-141.641 13.25,-37.808 24.07,-74.922 30.32,-107.73 0.578,-3.289 1.399,-5.039 -0.043,-6.488 -2.379,-2.422 -14.098,3.597 -14.098,3.597 -20.468,70.539 -37,141.25 -85.75,231.129 0,0 -2.101,3.551 -2.691,5.863 -0.668,5.618 0.981,12.77 4.41,16.758 1.371,1.442 3.25,1.563 5.903,-1.488 z M 269.379,588.051 C 385.16,580.27 474.73,531.48 522.578,402.621 505.59,412.191 419.34,478.359 270.699,487.109 L 270.43,505 c 106.601,0.859 210.55,-54.609 208.359,-53.789 -39.609,81.719 -139.258,114.84 -209.73,116.988 l 0.32,19.852 z M 1072.7,561.988 c -7.31,-11.437 -7,-10.968 -10.47,-20.816 0.39,-3.203 0.97,-23.203 1.44,-34.844 0.63,-14.848 1.06,-21.328 2.23,-22.738 1.99,-2.379 6.01,-2.77 7.77,-0.621 0.71,0.859 1.88,4.062 2.7,7.109 9.57,36.094 14.06,49.613 17.89,54.102 2.54,3.281 3.4,2.968 13.9,1.8 23.6,-2.109 31.61,26.008 16.22,37.34 -20.67,11.481 -42.54,-7.769 -51.68,-21.332 z m 24.92,-7.648 c -16.88,-13.871 -17.39,-33.871 -22.5,-52.27 -2.74,-12.379 -6.6,-18.91 -8.13,-0.23 -2.89,25.89 0.71,45.23 11.96,60.461 6.95,11.179 18.35,18.719 28.63,19.418 22.07,1.562 24.33,-15.938 18.2,-25.348 -4.45,-6.801 -16.83,-9.769 -28.16,-2.031 z M 300,545.98 c 8.32,0 15.078,-6.718 15.078,-15.082 0,-8.32 -6.758,-15.078 -15.078,-15.078 -8.32,0 -15.078,6.758 -15.078,15.078 0,8.364 6.758,15.082 15.078,15.082 z m 48.051,-10.32 c 7.461,0 13.508,-6.012 13.508,-13.43 0,-7.46 -6.047,-13.519 -13.508,-13.519 -7.43,0 -13.442,6.059 -13.442,13.519 0,7.418 6.012,13.43 13.442,13.43 z m 43.828,-14.762 c 6.051,0 10.93,-4.918 10.93,-10.976 0,-6.051 -4.879,-10.973 -10.93,-10.973 -6.059,0 -10.981,4.922 -10.981,10.973 0,6.058 4.922,10.976 10.981,10.976 z m 31.09,-19.687 c 4.691,0 8.48,-3.832 8.48,-8.512 0,-4.648 -3.789,-8.437 -8.48,-8.437 -4.688,0 -8.52,3.789 -8.52,8.437 0,4.68 3.832,8.512 8.52,8.512 z M 314.02,474.141 c -3.2,-16.332 -0.7,-33.121 3.05,-44.731 8.59,-24.961 4.692,-69.64 4.692,-69.64 l -25.121,-25.161 c 1.8,23.442 4.57,48.09 3.281,67.77 -0.902,13.051 -6.801,25.281 -8.32,38.402 -1.442,12.149 0.699,36.449 0.699,36.449 l 21.719,-3.089 z m 40.75,-7.5 0.851,-106.602 -86.012,-83.359 -0.121,21.992 73.364,72.738 -1.563,98.75 13.481,-3.519 z m 212.14,-243.051 -5.621,-9.211 97.031,0 2.071,9.211 -93.481,0 z m 125.629,0 -2.269,-9.211 44.929,0 1.52,9.211 c 0,0 -23.629,-0.039 -44.18,0 z m 73.633,0 -1.402,-9.211 166.789,0 -2.457,9.211 -162.93,0 z m 194.957,0 2.66,-9.211 44.451,0 -3.67,9.211 -43.441,0 z m 74.301,0 3.24,-9.211 76.37,0 -6.33,9.211"
         inkscape:connector-curvature="0"
         id="path24"
         style="fill:#000000;fill-opacity:1;fill-rule:nonzero;stroke:none" /></g></g></svg>