<?xml version="1.0" encoding="UTF-8" standalone="no"?>
<!-- Created with Inkscape (http://www.inkscape.org/) -->

<svg
   xmlns:dc="http://purl.org/dc/elements/1.1/"
   xmlns:cc="http://creativecommons.org/ns#"
   xmlns:rdf="http://www.w3.org/1999/02/22-rdf-syntax-ns#"
   xmlns:svg="http://www.w3.org/2000/svg"
   xmlns="http://www.w3.org/2000/svg"
   viewBox="0 0 226.25 315"
   height="315"
   width="226.25"
   xml:space="preserve"
   version="1.1"
   id="svg2"><metadata
     id="metadata8"><rdf:RDF><cc:Work
         rdf:about=""><dc:format>image/svg+xml</dc:format><dc:type
           rdf:resource="http://purl.org/dc/dcmitype/StillImage" /></cc:Work></rdf:RDF></metadata><defs
     id="defs6" /><g
     transform="matrix(1.25,0,0,-1.25,0,315)"
     id="g10"><g
       transform="scale(0.1,0.1)"
       id="g12"><path
         id="path14"
         style="fill:#ffffff;fill-opacity:1;fill-rule:nonzero;stroke:none"
         d="m 98.5195,2506.72 1615.7405,0 c 47.11,0 85.04,-37.93 85.04,-85.04 l 0,-2324.4105 c 0,-47.1093 -37.93,-85.039 -85.04,-85.039 l -1615.7405,0 c -47.1093,0 -85.039,37.9297 -85.039,85.039 l 0,2324.4105 c 0,47.11 37.9297,85.04 85.039,85.04" /><path
         id="path16"
         style="fill:none;stroke:#000000;stroke-width:7.9738698;stroke-linecap:butt;stroke-linejoin:miter;stroke-miterlimit:4;stroke-dasharray:none;stroke-opacity:1"
         d="m 98.5195,2506.72 1615.7405,0 c 47.11,0 85.04,-37.93 85.04,-85.04 l 0,-2324.4105 c 0,-47.1093 -37.93,-85.039 -85.04,-85.039 l -1615.7405,0 c -47.1093,0 -85.039,37.9297 -85.039,85.039 l 0,2324.4105 c 0,47.11 37.9297,85.04 85.039,85.04 z" /><path
         id="path18"
         style="fill:#e2cf00;fill-opacity:1;fill-rule:nonzero;stroke:none"
         d="m 1550.16,2217.34 -92.23,-60.07 -1.29,-70.12 c -54.65,26.25 -78.44,69.22 -87.03,119.57 -15.47,-19.53 -12.38,-118.01 -12.38,-118.01 -14.07,-7.3 -19.22,-16.8 -28.21,-25.39 8.83,-14.53 33.79,-39.34 33.79,-39.34 -0.15,0.43 -11.44,-102.53 2.19,-106.64 12.46,43.87 29.06,82.19 90.16,122.35 0,0 0.89,-163.52 -3.01,-321.45 -25.82,17.78 -80.47,49.73 -115.78,82.42 45.78,59.03 -0.9,135.98 -69.18,84.85 -44.3,23.98 -51.1,137.15 -62.03,196.44 -2.11,11.92 -12.43,46.76 -12.43,46.76 0,0 -145.89,40.35 -208.55,37.07 52.62,-137.11 42.42,-304.18 -190.43,-335.51 -111.559,-51.01 -240.469,-107.89 -365.738,-214.14 -23.09,-158.2 -104.692,-236.09 -162.313,-279.18 0.391,-64.1 -0.429,-127.57 2.192,-192.26 -0.039,-0.39 52.621,34.53 60.859,28.12 44.02,-285.931 205.121,-342.611 188.98,-350.54 -2.57,-1.29 -52.769,-52.891 -52.769,-52.891 L 268.32,898.91 c -6.718,-197.699 -2.808,-399.301 0,-597.308 34.731,19.609 98.559,66.558 98.559,66.558 l 0.93,67.231 c -0.27,6.41 89.421,-56.012 89.652,-130.391 6.988,-4.73 22.309,107.031 8.359,119.102 l 36.758,37.968 -39.609,38.129 c 0,0 10.082,63.281 -10.469,99.723 -13.281,-83.442 -82.578,-109.453 -82.578,-109.453 0,0 -1.332,305.043 -3.121,305.312 l 123.551,-78.242 c -9.18,-1.918 -32.731,-45.66 -8.161,-81.09 14.957,-21.57 68.707,-20.16 72.848,4.68 C 631.02,570.309 601.762,485.66 635,385.16 l 215.699,-39.539 c -88.898,164.891 7.539,352.777 182.111,339.379 32.7,13.59 62.31,33.281 62.31,33.281 0,0 -21.72,35.469 -49.14,68.36 l -373.558,6.168 174.137,326.531 -114.528,3.67 c 0,0 93.09,197.42 72.969,213.32 -7.07,5.58 -4.141,69.26 -4.141,69.26 l 102.34,-3.83 c 4.031,45.58 -49.488,219.22 -125,332.77 l 419.891,-3.79 -236.371,-329.65 126.951,-3.67 -75.78,-155.62 12.15,-121.37 -112.661,-3.63 C 931.84,948.52 1056.84,771.25 1100.78,716.48 c 72.62,17.231 208.24,121.02 292.42,185.551 10.9,112.929 49.81,209.059 151.45,280.739 l 0.31,185.9 c 0,0 -58.01,-37.46 -58.01,-34.84 0.24,40.23 -20.74,123.98 -59.41,198.63 -41.52,80.12 -109.69,152.66 -125.35,157.23 36.05,54.53 51.44,59.41 50.9,60.27 l 196.36,-125.9 0.71,593.28 z M 560.512,1820.98 c 0,0 -38.211,-14.53 -71.371,-14.07 -59.493,-3.08 -104.84,-7.89 -128.942,-56.64 -4.929,-14.84 5.821,-20.31 13.711,-24.22 44.84,55.67 163.942,-17.85 186.602,94.93 z M 296.52,1565.59 c 0,-7.86 8.789,-20.71 13.21,-7.39 3.821,9.53 4.61,24.96 0.309,34.46 -11.949,6.72 -13.359,-19.38 -13.519,-27.07 z m 643.949,-269.3 -58.047,-0.24 -0.352,-68.16 59.141,-2.81 -0.742,71.21 z M 1510.9,957.031 c -1.29,-6.801 -7.54,-37.23 6.64,-31.953 16.72,12.891 2.46,72.07 -6.64,31.953 z m -54.69,-171.09 c -6.83,9.957 -28.05,-14.89 -45.47,-15.781 -77.34,-4.14 -134.37,6.211 -143.98,-74.73 44.61,28.48 107.11,15.468 147.38,24.691 29.1,9.68 62.5,36.008 42.07,65.82" /><path
         id="path20"
         style="fill:#131f67;fill-opacity:1;fill-rule:nonzero;stroke:none"
         d="m 258.012,209.02 c -8.672,709.609 -4.492,1410.08 -2.071,2111.76 l 1309.719,-7.34 c -4.68,-700.32 -5.58,-1402.741 3.72,-2109.999 L 258.012,209.02 Z m 56.008,1365.2 c 1.14,20.31 -7.219,28.71 -14.45,14.76 -1.718,-3.32 -7.34,-38.59 6.02,-39.76 8.75,-0.78 7.961,16.29 8.43,25 z m -21.211,-23.79 c -0.079,4.77 -3.008,6.87 3.519,48.59 -12.457,4.81 -23.277,25.04 -14.18,37.86 3.512,5 2.5,6.09 1.051,10.27 -3.59,10.39 -1.679,18.83 7.93,25.43 6.172,4.26 6.41,5.35 4.461,10.94 -5.078,14.33 -0.32,28.32 13.39,33.08 9.5,3.28 7.661,3.75 8.68,9.77 2.219,13.47 9.641,21.64 23.199,20.27 12.539,-1.25 13.403,-1.25 14.45,4.88 3.011,17 23.601,35.55 50.511,48.17 13.36,6.25 35.508,10.7 77.93,10.58 24.301,0.43 54.57,3.68 71.602,18.6 2.769,2.61 6.679,9.49 8.046,8.55 3.161,-2.15 2.383,-19.1 -3.828,-34.53 -18.09,-44.96 -42.582,-57.34 -111.761,-56.91 -20.661,0.97 -51.047,-1.84 -63.938,-14.96 -3.832,-4.07 -6.41,-7.9 -4.961,-9.97 28.668,-4.1 58.121,-17.03 75.27,-73.59 51.992,36.84 134.84,93.32 237.66,144.34 -12.352,67.61 46.281,78.04 79.14,64.61 0,0 0.86,4.41 -0.429,9.53 -1.25,4.96 -3.051,11.48 -9.102,19.88 -1.57,3.05 -10.789,8.87 -8.949,13.48 2.969,7.5 1.641,9.57 -4.648,16.52 -4.102,4.49 -1.372,14.14 -0.391,18.01 1.289,7.22 6.059,17.58 1.84,21.48 -6.492,6.02 -28.68,16.21 -40.121,24.34 -12.621,9.18 -12.852,17.42 5.66,47.65 8.398,17.54 16.371,36.41 23.09,49.03 10.191,19.06 11.211,31.64 5.082,42.58 -8.051,14.29 -6.723,31.25 -6.532,30.82 0,0 -75.968,108.04 -107.261,150.54 l -355.348,1.18 -3.48,-812.47 63.32,58.44 -16.602,19.65 c -2.339,-11.41 -0.23,-22.58 -14.3,-23.24 -4.797,-0.16 -9.219,1.87 -10,6.6 z M 503.98,467.148 c 2.04,32.153 -13.359,84.731 -36.48,121.172 0.98,-27.66 2.969,-61.519 -2.578,-88.55 l 39.058,-32.622 z m 560.79,-83.828 c -2.82,0.899 -26.14,2.34 -40.79,3.129 -48.589,2.571 -80.109,25.852 -101.171,58.082 -5.149,7.93 -3.008,7.578 8.441,-1.41 32.27,-25.191 62.461,-40.269 88.95,-36.48 37.57,5.347 57.85,-8.403 52.61,-24.45 -0.9,-2.812 -1.21,-1.062 -8.04,1.129 z M 937.539,455 c -7.539,6.52 -8.09,9.449 0.82,3.52 27.262,-18.168 60.192,-47.782 100.901,-30.43 8.44,5.39 0.66,4.68 -13.48,3.199 -21.56,-2.309 -47.889,8.672 -80.229,30.981 -15.821,10.929 -8.832,20.109 8.937,11.601 5.512,-2.66 11.063,-4.609 14.614,-4.812 17.5,11.601 54.338,11.492 53.478,11.41 4.18,3.59 -9.57,9.332 -30.041,17.07 -13.277,5.039 -16.488,7.07 -6.598,7.461 8.629,0.352 22.219,-3.949 32.029,-10.309 16.41,-10.511 24.65,-16.371 29.53,-17.031 8.01,-0.629 16.21,-1.801 2.42,-8.172 -6.25,-2.929 -5.7,-3.668 -5,-10.699 1.13,-10.98 1.8,-10.859 6.88,-17.07 8.55,-9.418 12.26,-26.949 0.08,-15.981 -2.66,1.211 -2.9,-1.129 -10.08,-4.019 -42.191,-11.918 -73.601,6.679 -104.261,33.281 z m 77.811,-3.121 c 2.35,3.082 5.9,10.973 6.37,13.199 -0.82,5.121 -5.35,3.512 -7.66,0.621 -3.94,-4.84 -9.45,-11.91 -4.92,-14.328 2.15,-1.172 4.22,-2.109 6.21,0.508 z m -14.41,3.32 9.37,16.68 c -2.3,1.09 -34.06,-5.469 -29.06,-10 4.41,-4.07 19.69,-6.68 19.69,-6.68 z m 35.74,56.051 c -14.45,7.73 -18.67,24.41 -7.85,35.469 9.06,9.301 24.49,8.511 42.89,-2.809 6.48,-4.031 10.47,-6.019 14.92,-4.422 7.42,2.742 10.24,-1.398 9.65,-7.218 -1.37,-12.821 -21.33,-15.981 -33.91,-1.329 -16.64,19.329 -34.76,5.821 -29.45,-8.171 2.73,-7.11 7.97,-8.2 13.98,-10.891 0,-1.367 -6.01,-2.899 -10.23,-0.629 z m -65.899,86.129 c 23.949,6.492 59.569,-18.859 78.869,-15.43 8.4,1.801 7.23,-10.269 -1.49,-14.609 -10.15,-5.11 -24.61,-1.68 -55.23,14.301 -25.27,13.629 -45.66,-8.981 -28.828,-25.821 3.628,-3.441 8.91,-5.468 15.386,-5.16 8.524,0.391 11.024,-1.949 0.043,-4.762 -6.332,-1.636 -18.082,0.942 -23.793,6.68 -13.59,13.75 -10.226,40.231 15.043,44.801 z M 463.789,671.41 c -0.699,28.469 14.492,44.289 14.883,44.41 l -107.652,73.051 1.601,-291.762 c 53.32,33.871 70.859,76.563 73.899,131.641 105.32,-117.969 72.46,-261.559 6.679,-343.359 -2.73,50.078 -17.648,109.218 -78.469,139.531 l -0.121,-59.723 -100.898,-71.57 0.59,-65.93 237.461,-0.75 114.84,167.66 c -20.782,76.051 -17.653,139.34 -31.723,174.141 -10.539,28.59 -30.578,65.551 -43.508,59.84 -43.75,-34.641 -86.723,5.789 -87.582,42.82 z m 90.59,-33.68 c 37.301,-26.871 47.262,-70.742 54.922,-109.761 0.23,-0.309 19.57,-132.231 20.187,-133.989 2.5,-7.218 1.641,-14.449 -4.718,-19.96 C 590.309,326.801 522.969,225.469 522.969,225.469 l 659.921,-3.867 c -35.19,51.207 -62.69,101.839 -96.17,143.949 1.4,2.258 -2.58,31.008 -8.17,40.308 -5.74,9.571 -7.07,14.61 -3.16,23.36 9.65,21.601 19.53,45 28.48,64.801 17.07,37.929 19.02,38.25 -4.3,50.55 -27.66,16.09 -32.58,21.328 -26.76,39.731 2.11,6.679 2.39,9.328 -6.21,11.09 -3.94,0.781 -13.59,3.089 -20.04,4.879 -18.67,5.902 -13.28,2.23 -20.08,-2.571 -5.19,-2.578 -9.68,7.262 -15.78,18.903 -6.99,13.398 -8.75,13.707 2.82,6.839 21.48,-12.781 59.57,-7.82 46.13,6.95 -6.56,7.187 -12.62,10.898 -11.92,27.23 0.67,16.168 0.94,20.899 -10.07,23.16 -22,4.489 -45.859,2.617 -66.371,-2.5 -62.269,-15.551 -112.23,-69.57 -131.168,-109.73 -4.301,-6.992 5.5,-6.641 9.719,-6.641 20.43,1.801 34.93,-30.699 21.57,-45.308 -6.18,-6.481 -12.351,-2.5 -5.75,5.937 7.5,13.981 -3.711,32.5 -20.109,27.77 -20.711,-5.899 -21.289,-32.649 -23.871,-51.289 -7.032,-53.711 20.23,-125.469 26.91,-140.11 0,0 1.449,-2.191 0.98,-2.191 -0.511,0 -3.789,-3.008 -5.191,-1.449 -4.77,5.429 -16.879,49.378 -23.438,80.75 -12.703,86.789 9.758,166.601 81.989,211.91 63.949,46.172 96.172,36.211 132.5,38.359 12.38,4.449 29.61,11.211 42.62,17.621 63.98,34.918 115.82,64.719 170.15,94.328 52.78,28.711 88.13,69.731 136.37,95.352 2.19,1.18 4.45,3.871 6.72,4.961 60,52.148 119.3,103.329 155.08,138.989 4.33,4.37 7.93,10.27 7.93,10.27 l -6.1,300.82 c 0,0 -6.01,5 -5.97,9.81 0.04,10.43 -3.83,8.44 -25.28,-6.68 -26.99,-18.95 -28.83,-18.01 -28.83,-18.01 -14.25,138.01 -88.9,273.71 -179.37,353.09 l 3.75,5.07 c 0,0 30.23,-20 45.35,-29.49 l 0,19.26 -36.44,22.81 c 0,0 -3.25,2.62 0.31,7.42 1.95,2.66 6.95,0.71 6.95,0.71 l 29.18,-21.53 0,17.58 -23.59,15.04 7.54,9.53 12.65,-8.2 c -5.35,13.91 2.23,13.4 10,4.18 3.25,-4.22 7.43,-9.61 9.18,-14.77 0.67,-1.95 2.7,-6.72 2.7,-6.72 l 20.7,-15.39 c 0,0 -0.82,7.5 -0.08,9.77 3.52,10.94 28.48,-24.3 25.35,-25.12 l 21.18,-15.27 c 5.04,7.66 23.9,-7.58 24.68,-15.08 1.68,-3.28 73.05,-49.22 73.05,-49.22 l 0.78,25.39 7.7,10 3.47,585.94 -94.8,-60.59 -1.02,-70.93 c -44.76,14.49 -83.55,79.33 -89.22,119.8 -2.92,1.56 -15.89,-79.8 -9.02,-115.43 -11.83,-8.79 -31.8,-29.41 -31.64,-29.49 l 35.9,-39.3 c 0,0 -7.15,-60.15 -5.47,-90.04 1.45,-14.18 1.72,-15.62 5.98,-15.66 3.43,0 6.52,3.71 6.52,6.95 8.44,35.78 36.17,91.6 84.1,110.63 3.17,0.11 -0.27,-319.22 -0.27,-319.22 l -118.95,81.17 c -5.93,5.08 7.78,4.77 16.14,31.8 21.56,69.68 -53.25,94.29 -82.11,53.94 -4.73,0.04 -24.61,24.57 -27.58,34.81 -21.99,44.33 -26.21,94.57 -30.47,134.84 -2.58,18.36 -9.3,48.4 -14.88,66.49 -2.97,9.64 -3.28,16.6 3.16,25.62 29.45,39.77 57.97,81.6 82.81,122.38 22.66,29.77 18.21,31.25 18.21,31.25 l -661.64,2.15 105.781,-139.33 10.7,-4.18 c -18.282,-2.35 -12.071,-18.36 -4.961,-35.55 8.711,-21.17 7.769,-25.51 -14.41,-69.1 -32.469,-63.87 -34.219,-58.28 -1.801,-78.05 20,-12.81 23.633,-15.62 20.703,-33.01 -2.934,-17.42 -3.75,-12.03 12.777,-13.43 8.821,-0.79 15.852,-2.39 19.84,-4.18 4.531,-2.04 7.891,-4.89 13.711,-2.97 9.77,3.2 10,0.82 10.391,-6.33 0.199,-3.09 4.808,-9.38 6.25,-11.72 3.75,-6.17 1.988,-7.23 -4.922,-2.85 -21.25,13.4 -56.84,7.66 -43.75,-6.92 5.39,-5.97 10.82,-25.93 11.293,-35.85 0.816,-17.78 12.34,-24.07 36.558,-20.4 46.481,3.48 151.328,61.18 175.739,126.02 -53.707,-18.32 -42.649,47.58 -23.508,45.51 0,0 -5.16,-11.68 -5.321,-18.36 -0.582,-23.56 19.141,-25.39 32.739,-8.67 5.941,8.75 13.121,41.33 9.571,78.08 -4.26,44.53 -22.31,94.34 -25.591,106.72 76.801,-183.32 6.289,-263.9 -101.64,-316.52 -41.329,-17.27 -46.989,-17.15 -71.329,-18.28 -16.679,-1.33 -31.71,-9.61 -47.691,-14.89 C 667.699,1771.6 554.262,1716.64 452.73,1634.69 379.922,1580.7 322.07,1532.23 264.57,1469.92 l -0.23,-323.44 c 17.301,2.7 45.351,19.54 61.988,29.22 19.024,-120.78 81.172,-260.661 184.063,-344.329 -0.082,0.039 -2.422,-4.531 -2.5,-4.492 -14.653,9.723 -29.301,19.41 -43.481,26.871 l -0.738,-15.391 34.609,-23.828 c 0.938,-3.711 -5.941,-8.871 -5.941,-8.871 l -28.59,19.77 -0.199,-15.7 22.109,-14.109 c 5.981,-5.973 -7.219,-9.101 -7.219,-9.101 l -13.132,9.5 c 0,0 0.941,-7.622 0.55,-8.95 -3.398,-11.558 -22.339,13.981 -25.781,26.719 l -18.629,11.051 c 2.653,-7.57 -4.027,-8.629 -9.301,-6.719 -13.988,7.109 -13.199,19.027 -16.128,26.098 l -24.77,15.703 c -4.262,-23.594 -29.449,9.648 -25.469,17.617 L 313.98,899.18 c 1.758,-0.66 -12.14,-3.559 -16.832,-0.469 -5.386,3.519 -7.308,17.93 -7.308,17.93 l -19.059,11.8 0,-20.671 196.059,-136.829 -2.86,-5.351 -204.449,139.922 8.278,-607.192 99.691,68.95 c -1.91,22.73 2.27,43 0.391,68.902 51.25,-31.871 68.48,-53.551 91.058,-120.512 14.602,38.129 12.071,74.692 5.5,108.52 13.09,10.699 25.821,21.129 32.43,37.269 -12.348,16.992 -24.379,21.711 -37.348,37.461 -1.011,19.18 10.199,76.32 -4.883,95.149 0,0 -27.539,-82.969 -86.839,-107.93 -1.829,87.621 0.242,307.93 0.242,307.93 0,0 60.969,-42.071 92.07,-59.18 14.609,-7.809 24.758,-12.688 24.957,-18.238 0.121,-2.813 -5.738,-6.442 -8.316,-10.391 -1.602,-2.461 -8.364,-26.172 -5.742,-44.73 1.21,-13.668 7.609,-22.301 13.781,-28.821 19.578,-20.789 55.398,-10.98 69.578,5.031 z M 672.422,792.809 906.91,1120.86 c 27.93,-120.7 75,-231.29 136.45,-331.481 l -370.938,3.43 z m 115.937,344.811 c 0,0 16.371,32.46 23.871,49.65 l -28.71,0 17.179,19.29 42.781,0 -22.89,-48.75 18.16,0 25.078,48.75 66.641,0 -23.278,-48.75 15.348,0 24.922,48.75 61.949,0 -21.789,-48.75 14.529,0 12.73,24.57 3.09,-44.76 -61.56,0 24.328,49.65 -19.84,0 -27.457,-49.65 -57.66,0 25,49.65 -21.91,0 -27.461,-49.65 -63.051,0 z m 189.922,174.68 24.839,52.54 -19.64,0 -27.5,-51.4 -61.492,0 24.223,50.82 -15.313,-0.04 c -10.386,-16.06 -26.949,-48.6 -26.949,-48.6 l -65.199,0 c 0,0 18.441,34.54 25.699,51.41 l -16.051,0 -13.089,-20.86 c -4.61,7.78 -1.598,28.48 -2.34,37.27 l 61.41,0 -24.688,-50.39 19.61,0 26.91,50.39 64.879,0 -26.442,-50.39 15.391,0 26.172,47.61 66.019,0 -23.13,-47.61 20.35,0 -8.98,-20.75 -44.689,0 z m -60.742,91.57 -12.418,-2.35 c -15.941,136.1 -91.25,274.89 -123.133,332.19 l 374.812,-5.27 -239.261,-324.57 z m 440.081,785.9 c 0,0 -35.74,-45.98 -38.13,-123.05 l 34.06,27.19 c -2.18,78.2 4.07,95.86 4.07,95.86 z m -37.74,-128.87 c -0.58,-57.35 14.46,-93.95 33.48,-122.58 0.35,36.95 4.06,74.38 6.25,84.18 l -39.73,38.4 z M 391.988,963.238 l -121.207,83.482 0,-18.28 144.059,-97.85 -22.852,32.648 z m -21.828,44.812 c -32.461,16.33 -99.379,66.75 -99.379,66.75 l 0,-16.68 106.489,-74.8 c 2.109,-2.07 4.921,-1.558 5.89,0.739 -4.18,7.07 -9.211,16.721 -13,23.991 z m -29.769,72.5 -69.61,48.55 0,-15.12 c 17.848,-15.97 76.598,-54.02 76.598,-54.02 l -6.988,20.59 z m -69.61,59.61 65.508,-42.35 -4.059,18.75 -46.531,31.6 -14.918,-8 z m 1176.989,586.83 3.52,301.68 c -68.24,-32.26 -81.8,-126.4 -79.53,-129.29 -67.93,70 -93.52,220.93 1.76,322.46 7.18,-32.58 9.57,-79.81 76.99,-122.97 l 1.72,63.9 94.41,60.32 -0.78,72.61 -226.48,1.76 c -35.16,-44.49 -70.28,-95.16 -105.04,-142.38 -13.05,-17.74 -16.29,-26.06 -13.79,-35.31 22.85,-82.11 18.28,-183.25 66.25,-231.06 64.33,60.51 124.61,-30.59 74.61,-86.76 l 106.36,-74.96 z M 469.059,422.539 c 8.711,-27.461 2.742,-82.891 2.152,-82.891 10.391,5.661 38.668,85.903 31.598,116.051 M 830.621,1928.95 c -16.012,4.57 -28.082,11.44 -45,9.8 -13.32,-1.37 -17.851,3.05 -9.723,10.31 10.622,8.99 20.942,12.7 40.622,2.39 59.218,-30.98 61.058,14.25 34.378,17.46 -7.578,0.93 -7.226,5.74 0.313,4.53 41.41,-1.64 28.789,-56.49 -20.59,-44.49 z m -69.211,45.19 c -7.859,2.85 -17.308,7.62 -20.789,6.68 -8.781,-2.34 -9.101,2.5 -8.043,8.2 2.5,13.83 16.641,11.33 35.313,-0.58 26.757,-16.99 36.988,7.46 12.66,20.7 -8.172,4.41 -5.672,5.66 -0.86,5.86 12.649,0.51 24.61,-16.76 21.25,-30.86 -8.519,-22.66 -29.222,-13.79 -39.531,-10 z m 78.36,41.8 c -17.309,3.01 -42.391,26.29 -54.032,27.89 -6.519,0.74 -14.218,-0.08 -16.289,2.58 -6.398,8 11.723,8 12.93,10.93 0.043,6.8 0.473,11.02 0.199,13.36 -3.199,4.3 -15.777,21.64 -15.348,30 0.309,0.55 6.598,-4.61 9.84,-4.65 30.942,16.29 52.032,9.07 78.129,-2.42 10.781,-4.76 38.59,-26.33 38.942,-29.76 0.589,-5.78 -11.801,5.08 -21.481,11.56 -23.832,16.6 -45.32,28.36 -75.281,18.55 -4.649,-1.6 -3.828,-2.46 11.492,-1.52 15,0.9 27.301,-3.71 46.438,-16.21 4.769,-3.09 10.511,-8.4 13.953,-10 24.058,-11.48 29.328,-22.77 13.976,-19.73 -3.277,0.67 -9.648,4.07 -15.898,6.29 -11.012,3.87 -7.11,2.7 -17.692,-2.22 -3.707,-1.72 -12.699,-5.39 -20.039,-6.25 -5.629,-0.94 -23.91,-0.79 -15.82,-8.52 8.551,-8.59 22.813,-14.92 32.582,-18.83 7.027,-3.16 1.641,-2.46 -6.601,-1.05 z m 2.07,37.42 c 11.281,4.18 2.461,13.63 -11.918,15.74 -3.32,0.47 -10.352,-15.08 -10.512,-18.36 -0.109,-2.42 16.25,0.31 22.43,2.62 z m -31.141,-1.68 c 2.582,1.64 11.25,14.18 11.25,16.17 0.039,8.05 -10.23,5.78 -12.609,-2.58 -2.891,-10.19 -3.168,-16.44 1.359,-13.59 z m -36.051,64.8 c -9.296,4.11 -21.878,22.07 -7.457,19.03 3.079,-0.71 19.289,-1.56 29.719,-1.6 35.59,-0.16 71.02,-16.25 93.559,-39.69 12.543,-13.05 13.359,-22.7 0.621,-13.71 -45.07,40.47 -72.77,32.93 -116.442,35.97 z M 1125.9,721.172 l -12.58,-6.723 c 0.04,-6.949 2.54,-5.859 8.13,-10.82 0,0 -7.74,-1.25 -13.4,-0.859 -9.18,0.589 -11.29,0.429 -7.23,-6.008 1.88,-3.012 4.45,-7.422 4.45,-7.422 0,0 -5,-1.102 -12.5,0.969 -11.36,3.132 -17.18,1.57 -12.89,-4.758 1.17,-1.762 3.48,-5.039 3.48,-5.039 -8.32,1.91 -23.56,9.289 -23.56,9.289 l -10.74,-3.242 c 21.45,-41.911 97.74,-15.469 76.84,34.613 z m 372.15,59.769 c 11.79,9.918 6.05,22.028 -11.17,30.938 -7.15,3.711 -6.45,3.742 -18.09,-3.09 -14.34,-8.398 -15.35,-8.828 -5.12,-19.648 12.31,-13.09 25.71,-15.469 34.38,-8.2 z m -43.79,28.008 c 10.86,4.801 6.83,3.981 6.09,15.313 -3.16,13.078 4.22,13.976 7.89,26.168 1.53,6.679 -4.14,4.218 -15.08,-5.981 -9.06,-7.609 -11.71,-9.449 -11.71,-5.738 1.01,3.051 -6.22,10.98 -12.66,12.07 -5.51,0.899 -4.96,2.149 0.39,9.059 9.26,12.039 13.09,27.191 6.87,40.551 -7.89,16.839 -10.46,19.339 -27.89,4.609 -8.9,-8.199 -21.48,-14.531 -27.57,-24.648 -4.38,-7.461 -1.84,-14.692 5.03,-29.372 17.19,-36.64 43.76,-53.089 68.64,-42.031 z m 60.97,-0.359 c 19.11,7.5 11.41,28.172 -18.47,48.949 -18.05,12.582 -23.13,12.422 -7.85,-1.168 9.8,-8.672 11.32,-11.762 7.14,-18.012 -3.51,-5.238 -7.18,-11.371 -3.71,-16.129 5.47,-7.5 14.81,-16.761 22.89,-13.64 z m -1076.789,34.34 -20.863,13.16 0,-18 20.863,-12.43 0,17.27 z M 1480.27,826.68 c 4.14,2.89 7.7,11.05 7.74,14.691 0.94,8.359 -12.7,6.359 -19.22,-2.891 -7.34,-10.429 1.33,-18.949 11.48,-11.8 z m 46.68,28.32 c 9.5,9.961 4.89,20.59 -14.61,33.199 -7.54,4.922 -11.36,8.172 -10.46,-1.64 0.31,-2.969 -2.97,-6.911 -5.08,-9.258 -6.76,-7.571 -3.75,-8.942 15.5,-21.129 9.81,-6.25 9.3,-6.762 14.65,-1.172 z m -1088.509,19.141 -20.863,12.621 0,-16.371 20.863,-14.063 0,17.813 z m -45.589,-16.289 0.269,16.367 -27.031,17.972 -0.352,-18.281 27.114,-16.058 z m 1062.108,6.597 c -3.48,-9.371 10.51,-5.109 11.33,-4.14 2.42,4.73 0.27,5.16 -0.9,5.671 -2.46,1.051 -11.99,-0.589 -10.43,-1.531 z m 6.09,11.879 c 4.81,1.524 5.4,0.942 4.73,9.57 -1.01,13.082 0.94,14.102 9.61,19.883 6.95,4.571 6.99,3.867 6.88,11.918 -0.12,9.641 0.54,13.821 13.24,15.781 5.23,0.821 8.2,2.071 8.63,6.211 0.74,6.868 -10.39,18.547 -24.18,25.27 -2.03,0 -32.89,-26.84 -41.48,-36.09 l -5.28,-5.672 6.29,-11.789 c 9.81,-18.398 8.21,-25.16 2.42,-49.57 -1.17,-6.531 3.87,-5.59 5.2,2.301 1.72,7.308 2.73,10 13.94,12.187 z m 47.04,65.043 c -2.39,-14.812 5.31,-23.91 12.53,-16.57 3.95,4.027 7.27,36.719 4.54,41.918 -14.89,15.941 -16.49,-21.758 -17.07,-25.348 z M 1268.4,696.051 c 55.31,32.39 126.4,5.898 166.48,32.5 18.67,20.59 37.46,33.719 26.88,47.898 -8.24,11.051 -13.64,12.77 -13.64,12.77 0.59,-0.778 -29.17,-25.899 -72.38,-20.078 -71.99,2.5 -106.05,-20.121 -107.34,-73.09 z m 94.53,77.148 c 35.23,-1.25 63.87,4.891 76.99,15.082 8.13,6.367 9.34,7.457 -3.4,8.52 -27.38,2.179 -55.07,33.898 -63.75,64.679 -1.75,6.329 -3.86,13.211 -3.86,13.211 -72.89,-58.171 -233.36,-149.851 -233.36,-149.851 10.62,-49.531 -25.24,-79.059 -73.83,-61.481 -8.48,0.782 -7.38,-10.121 -5.78,-14.57 2.65,-7.34 8.51,-13.48 9.68,-14.449 7.23,-6.219 8.56,-10.32 7.5,-16.25 -1.09,-5.86 -0.97,-5.668 3.13,-7.86 7.3,-3.902 6.91,-9.492 2.93,-20.968 -4.3,-16.172 -4.57,-20.242 7.03,-27.934 14.96,-9.609 44.3,-20.117 40,-34.566 -9.84,-32.742 -25.98,-60.942 -40.16,-91.563 -5.23,-8.519 -4.14,-22.5 0.04,-29.07 5.12,-10 4.53,-21.988 11.21,-31.168 36.84,-54.731 68.6,-102.852 102.15,-152.262 l 351.29,-3.32 -8.75,810.151 c 0,0 -54.14,-53.319 -53.98,-57.069 0.19,-4.492 12.73,-11.52 18.08,-12.422 0.24,2.422 0,12.031 0.67,15.391 0.51,4.879 16.13,3.629 21.33,-0.629 3.59,-2.961 2.5,-22.34 -1.18,-38.121 -3,-12.93 -2.57,-13.09 2.97,-20.551 6.72,-9.098 9.07,-16.789 8.21,-27.07 -0.51,-5.661 -0.47,-10.079 1.13,-13.829 3.75,-8.75 2.66,-21.089 -1.49,-26.832 -5.97,-8.32 -6.09,-9.57 -4.76,-14.019 4.88,-15.43 3.05,-28.559 -14.14,-35.238 -2.19,-0.86 -4.61,-4.653 -6.02,-7.93 -7.5,-24.691 -21.56,-24.652 -40.78,-17.539 -13.63,-53.121 -69.02,-66.442 -108.94,-64.883 -41.57,1.641 -83.87,-1.488 -102.66,-28.668 4.37,64.41 33.2,95.469 102.5,93.078 z M 1488.4,880.16 c 7.07,2.61 7.93,10 1.99,14.719 -9.1,7.269 -19.57,-0.109 -15.27,-10.617 2.38,-5.903 6.4,-6.684 13.28,-4.102 z m -1094.38,23.36 -27.692,19.179 0.152,-17.148 27.579,-17.742 -0.039,15.711 z m 52.23,-14.11 -19.609,23.52 c -57.731,35.308 -107.813,74.8 -155.86,106.64 l -0.351,-21.8 13.75,-6.911 c 0,0 1.129,4.762 2.07,7.539 1.801,5.192 17.66,-9.418 22.73,-21.097 1.25,-2.922 3.989,-9.449 3.989,-9.449 L 331.48,957.66 c 0,0 0.282,5.231 0.282,6.68 0.078,11.172 19.879,-4.18 28.898,-22.391 2.192,-4.41 5.039,-9.097 5.039,-9.097 l 17.422,-10.582 c 6.879,9.371 24.379,-3.481 28.867,-14.891 5.672,-14.449 15.711,-15.699 16.102,-15.738 l 18.16,-2.231 z m -104.262,3.168 0.043,16.684 -28.871,18.976 -0.39,-16.91 29.218,-18.75 z m 1188.442,-1.367 c 0.74,4.379 -3.59,21.449 -10.08,22.379 -4.02,0.59 -10.39,-5.539 -10.39,-9.84 -0.04,-5.551 19.65,-17.27 20.47,-12.539 z m -23.52,20.238 c 6.33,6.91 -1.64,15.852 -11.29,12.77 -11.44,-3.707 -7.46,-14.098 5.36,-14.297 2.85,-0.043 4.57,0.039 5.93,1.527 z m -1166.398,12.301 0.078,15.898 -26.641,17.622 -0.551,-15.551 27.114,-17.969 z m -52.461,5.59 0.269,15.308 -17.539,12.231 0,-18.328 17.27,-9.211 z m 0.621,45.89 -17.891,11.68 0,-16.601 18.707,-10.7 -0.816,15.621 z m 72.699,50.47 c -1.84,4.92 -9.422,20.43 -9.422,20.43 l -81.168,56.68 0,-17.46 90.821,-61.05 -0.231,1.4 z m -37.973,134.65 -0.976,7.07 -7.223,-3.83 8.199,-3.24 z m -17.226,-1.8 -11.332,-6.13 34.301,-22.3 -2.77,15.86 -20.199,12.57 z m 1190.778,187.93 8.83,6.41 -15.62,10.55 -1.14,-10.71 7.93,-6.25 z m 15.82,10.16 11.61,9.61 -38.83,27.38 2.73,-17.03 24.49,-19.96 z m 27.54,14.34 0,11.72 -63.01,42.53 4.34,-21.36 c 11.13,-6.41 24.69,-15.82 38.91,-25.78 8.98,-6.33 9.02,-8.79 19.76,-7.11 z m 0,21.68 0,18.59 -72.89,48.4 5.9,-21.8 66.99,-45.19 z m 0,27.89 0.04,19.49 -88.24,58.28 9.65,-25.74 78.55,-52.03 z m 0,48.9 -111.25,74.46 14.26,-28.52 96.99,-64.84 0,18.9 z m 0,28.44 -139.61,92.89 15.67,-26.01 123.94,-83.79 0,16.91 z m 0,30.2 -5.23,0.03 c -0.39,-13.32 -14.81,-3.67 -20.24,10.98 -4.1,9.81 -5,12.27 -5,12.27 l -28.12,19.02 c 0.58,-3.87 2.19,-14.92 2.19,-14.92 l -18.91,11.56 c 0,0 -5.47,18.32 -5.66,18.44 l -32.35,21.99 c 0.67,-3.75 1.21,-9.92 -0.9,-10.35 0,0 -9.84,4.22 -14.33,10.74 -4.69,6.84 -5.39,13.67 -5.39,13.67 l -26.41,17.07 -6.56,-0.7 c 0,0 -3.56,2.42 -6.92,5.12 -6.25,11.21 -13.59,12.89 -22.34,17.46 0,0 18.59,-21.68 28.52,-34.49 9.1,-11.84 20.15,-20.28 20.15,-20.28 l 147.5,-98.43 0,20.82 z m 0,30.35 -11.4,6.87 0.86,-17.97 10.54,-7.18 0,18.28 z m -1149.841,39.57 c 0.703,1.13 -2.231,2.42 -5.43,9.45 -7.93,17.46 -8.711,23.56 -4.449,41.88 2.031,8.75 -5.942,12.5 -9.57,3.16 -2.86,-7.23 -7.27,-11.33 -11.489,-10.78 -3.98,0.47 -4.84,-1.21 -3.121,-6.72 2.11,-7.62 -2.461,-17.54 -8.871,-20.23 -6.449,-1.68 -7.617,-5.75 -5.82,-11.68 3.011,-9.85 -7.617,-18.17 -15.938,-17.7 -12.89,0.74 -7.851,-10.98 7.699,-22.15 5.739,-4.14 8.321,-6.36 12.848,-4.29 11.762,11.09 33.594,26.99 44.141,39.06 z m 1118.201,-36.02 -0.62,17.11 -32.43,21.92 3.99,-22.93 29.06,-16.1 z m 31.64,7.19 0,17.27 -13.32,8.55 0.67,-18.32 12.65,-7.5 z M 320.199,1595.9 c 3.121,-3.13 6.211,-3.44 11.129,-0.47 5.703,2.97 3.512,7.46 -2.418,10.39 -5.59,2.93 -13.359,-5.98 -8.711,-9.92 z m -9.648,7.58 c -0.473,3.59 3.937,8.47 6.988,8.63 6.641,0.43 5.473,3.98 -2.148,8.59 -3.551,2.15 -9.879,7.19 -12.192,8.87 -11.398,8.28 -22.418,-4.49 -13.937,-15.27 7.066,-9.03 17.539,-14.38 21.289,-10.82 z m 1194.919,-10.71 -2.5,19.07 -29.3,19.45 2.31,-20.98 29.49,-17.54 z m -1064.259,46.45 c 1.598,2.66 2.109,5.19 1.949,8.4 -0.621,11.99 -6.789,26.09 -15.461,37.85 -6.449,8.79 -14.301,16.29 -22.23,20.7 -22.379,11.53 -52.27,6.56 -47.93,-8.28 3.121,-10 2.383,-18.4 -6.211,-23.44 -5.859,-3.43 -6.598,-8.04 -0.387,-8.04 4.45,0 16.36,4.1 21.36,11.91 7,11.02 10.98,17.42 9.418,-0.55 -0.668,-7.54 0.269,-6.95 11.953,-6.36 15.816,0.82 12.887,-2.15 3.629,-9.3 -13.43,-10.35 -16.129,-27.93 -9.332,-42.85 4.222,-9.26 7.109,-14.18 12.621,-12.93 11.832,7.77 31.172,23.44 40.621,32.89 z m 1012.539,-22.23 -28.79,18.99 1.13,-20.32 31.1,-18.36 -3.44,19.69 z m -1105.859,18.56 c -10.551,13.32 -22.969,-3.67 -14.922,-11.14 5.82,-5.11 20.472,0.12 14.922,11.14 z m -24.961,-1.84 c -1.328,4.14 6.332,10.82 7.5,13.48 3.519,7.69 -27.77,29.18 -37.5,16.44 -6.68,-8.75 -2.032,-17.54 16.019,-29.53 10.93,-7.26 16.129,-7.26 13.981,-0.39 z m 1128.05,12.85 -26.64,16.6 0.46,-17.54 28.29,-17.07 -2.11,18.01 z m -46.96,-15.66 0,17.89 -26.83,18.71 -0.47,-18.55 27.3,-18.05 z m -1043.239,21.13 c 4.879,4.81 3.239,6.37 -6.172,5.9 -5.937,-0.31 -7.769,0.66 -8.16,-2.03 -0.898,-6.06 9.332,-8.83 14.332,-3.87 z m -22.301,6.76 c 0.469,1.25 -2.89,3.71 -8.402,8.32 -10.469,8.79 -11.637,14.26 -1.558,21.09 14.371,9.77 -0.711,23.68 -17.391,18.01 -13.469,-4.57 -13.508,-18.12 -5.508,-26.87 10.981,-7.31 30.859,-28.4 32.859,-20.55 z m 1065.54,17.89 -26.4,18.09 0,-17.62 26.4,-15.39 0,14.92 z m -1060.579,-1.13 c 11.758,5.97 12.379,21.01 0.618,15.5 -4.879,-2.26 -11.207,-8.43 -11.25,-11.21 -0.039,-5.43 4.613,-7.38 10.632,-4.29 z m 8.629,34.49 c 15.231,8.16 12.891,15.78 -2.269,25.27 -18.551,10.63 -31.52,-9.72 -16.25,-23.59 7.969,-7.27 9.847,-6.37 18.519,-1.68 z m 19.77,14.76 c 24.762,26.61 41.172,25.24 73.859,24.54 84.34,-0.79 110.199,39.53 107.539,67.81 -41.008,-20.35 -77.578,-9.45 -116.597,-15.31 -67.301,-15.04 -75.192,-46.68 -79.879,-64.81 l 15.078,-12.23 z m 338.121,90.63 c 21.719,-0.2 20.738,-0.86 11.801,16.99 21.168,-2.89 29.687,-13.01 22.726,8.05 11.211,-4.02 17.934,-7.11 29.532,-10.9 l 7.351,4.26 c -44.769,43.55 -94.422,6.64 -81.332,-37.31 l 16.641,7.97" /><path
         id="path22"
         style="fill:#d40000;fill-opacity:1;fill-rule:nonzero;stroke:none"
         d="m 1592.19,86.3281 0,28.7109 25.86,0 c 0,0 -0.24,-10.039 0,93.16 0.19,89.961 0.9,90.672 3.47,99.379 18.05,60.231 125.2,60.192 132.07,-6.68 0.36,-32.539 0.51,-39.378 0.75,-39.418 l -28.68,0 c 0,0 -0.04,8.168 0,12.86 0.16,33.512 -10.23,48.32 -36.75,48.551 -20.16,0.16 -31.41,-7.11 -37.78,-23.629 -3.55,-8.012 -3.9,-15.512 -3.9,-22.852 0.04,-37.109 0.04,-161.41 0,-161.371 l 28.82,0 0.4,-28.5195 -84.26,-0.1914 z m -773.01,136.6839 10.429,50.429 92.891,-4.492 c 0,0 10.82,-31.679 15.199,-45.937 l -118.519,0 z m -214.532,1.25 49.301,81.398 70,-19.019 -16.14,-63.629 -103.161,1.25 z m 136.133,-1.25 21.207,86.91 C 721.949,318.75 684.18,324.531 640,336.449 l -71.762,-113.328 -43.16,1.141 c 37.192,49.527 105.121,149.609 105.121,149.609 155.781,-53.601 312.852,-62.66 470.971,-34.34 0,0 58.24,-76.871 79.14,-118.511 l -41.09,1.992 -51.06,85.508 c -35.54,-3.872 -70.5,-8.598 -107.57,-10.161 l 25.39,-75.347 -40.82,0 -23.129,75.148 c -44.492,1.719 -81.871,-1.75 -135.191,6.57 l -18.789,-81.679 -47.27,-0.039 z m 294.019,-0.043 -14.06,53.441 50.16,5.86 c 0,0 23.24,-40.75 35.98,-59.258 l -72.08,-0.043 z m 146.88,160.152 c 2.42,37.231 9.84,66.41 44.41,115.75 44.14,63.078 124.42,185.969 126.41,191.75 0,0 82.3,-123.512 119.14,-179.293 31.41,-47.808 50.55,-101.129 51.6,-133.129 1.99,-61.398 -36.68,-99.801 -88.59,-106.168 -35.59,-4.371 -72.58,27.891 -75.35,65.821 -1.18,15.546 -9.65,20.269 -11.92,6.636 -2.97,-47.34 -40.43,-75.347 -83.4,-71.168 -63.82,6.25 -85,69.059 -82.3,109.801 z m 447.03,5.629 c -16.37,5.199 -28.12,21.988 -30.19,43.129 -2.35,24.141 6.36,48.82 35.86,93.98 13.98,21.95 28.67,45.082 40.19,68.403 17.34,-25.473 26.37,-45.043 43.87,-71.371 40.15,-64.371 47.85,-99.063 27.38,-123.711 -14.45,-17.418 -44.88,-17.891 -57.42,-0.899 -3.79,5.117 -4.69,7.457 -7.35,18.707 -1.21,5 -4.8,5.672 -5.82,1.063 -5.23,-23.75 -24.96,-36.172 -46.52,-29.301 z M 584.84,719.488 c 62.351,94.813 282.582,400.392 282.582,400.392 l 32.066,-3.04 c 0,0 -195.578,-272.82 -290.617,-411.18 l -24.031,13.828 z m -318.039,147.461 76.789,-55.269 0.551,-430.551 -78.051,-54.918 0.711,540.738 z m 318.82,704.381 46.488,-90.98 c -197.5,-187.15 -158.75,-406.76 -52.929,-563.401 0,0 -13.711,-35.039 -43.52,-72.258 -143.16,94.411 -186.711,339.799 -185.621,342.419 157.77,140.74 179.063,185.55 235.582,384.22 z M 1392.77,900.621 c 10.24,138.559 77.97,229.109 153.91,284.459 l 3.91,-140.94 C 1500.86,996.449 1448.32,947.191 1392.77,900.621 Z M 1186.56,1040.2 c 172.97,161.52 178.87,390.97 52.85,559.37 l 51.57,72.03 c 73.12,-78.24 144.8,-160.23 175.31,-350.78 -109.57,-86.33 -206.37,-229.02 -232.11,-373.05 l -47.62,92.43 z m -238.4,187.96 -0.308,66.02 64.688,0.31 -1.84,-65.9 -62.54,-0.43 z m -136.75,0.51 -0.941,65.78 63.941,-0.47 -0.969,-66.68 -62.031,1.37 z m 110.738,176.17 c 0,0 214.452,300.12 298.592,408.44 l 17.89,-13.12 -285.15,-397 -31.332,1.68 z m -500.82,209.89 C 421.129,1496.29 345.23,1402.46 267.699,1341.25 l 1.051,134.8 152.578,138.68 z m 45.192,215.47 c 0,0 -154.329,206.48 -170.821,296.32 -5.5,54.65 25.551,112.03 79.223,119.38 41.68,5.08 81.918,-24.85 86.957,-67.46 0.93,-8.36 2.851,-10.63 7.223,-8.67 3.199,1.44 3.707,3.12 5.117,17.61 3.98,41.17 42.422,63.99 82.301,60.51 71.449,-9.18 96.41,-98.44 76.449,-143.51 C 590.781,2009.26 457.809,1826.72 466.52,1830.2 Z M 57.8086,2068.63 c -5.9688,24.18 3.1719,55.35 20.5117,63.21 25.7817,11.64 50.5507,-3.05 54.6917,-25.98 1.558,-8.59 5.187,-8.05 6.636,0.9 3.512,22.03 29.063,34.45 51.293,23.01 27.5,-14.15 32.969,-50.79 12.457,-91.57 -22.968,-38.79 -69.726,-113.08 -69.726,-113.08 -1.442,4.26 -65.5118,100.7 -75.8634,143.51 z m 1490.0814,117.5 0.43,-525.58 -72.46,43.63 6.17,440.74 65.86,41.21 z M 1202.5,2155 c -163.55,42.54 -312.578,55.27 -469.262,21.68 -20.386,24.37 -89.019,125.78 -89.019,125.78 l 39.609,-0.58 56.051,-89.73 106.762,13.98 -27.461,72.97 44.019,-0.19 21.922,-71.57 c -0.242,0.55 86.867,-0.86 135.269,-6.6 7.7,26.56 22.03,79.38 22.03,79.38 l 48.48,0.04 c -6.21,-25.39 -22.97,-85.75 -22.97,-85.75 39.73,-5.54 113.4,-24.25 114.06,-25.07 25.86,36.52 49.89,73.08 73.24,109.61 l 47.27,0.23 c -13.91,-23.59 -97.38,-145.35 -100,-144.18 z m -1143.4805,101.6 29.4219,0 c -0.9805,-21.44 -0.6719,-46.95 19.0976,-56.13 35.121,-11.99 58.402,9.3 60.742,40.12 1.598,35.31 0.699,163.08 0.699,163.08 l -27.929,0 0,28.91 85.789,0 0,-28.91 -28.168,0 c 0,0 1.988,-109.45 -0.152,-164.02 -1.372,-53.87 -42.5,-72.07 -76.489,-70.12 -70.4294,2.62 -64.531,52.97 -63.0115,87.07 z m 1113.3205,-38.59 -72.26,16.83 18.87,63.71 101.01,0.04 -47.62,-80.58 z m -415,23.04 -33.59,59.11 64.648,0 21.403,-52.07 -52.461,-7.04 z m 146.801,12.04 -9.801,47.07 117.42,0 -12.03,-50.16" /><path
         id="path24"
         style="fill:#000000;fill-opacity:1;fill-rule:nonzero;stroke:none"
         d="m 635.66,2304.1 104.418,-150.7 c 0.512,0.51 58.512,11.56 115.582,14.37 56.68,2.78 124.301,-0.78 124.891,-2.5 0,0 17.847,-53.86 23.899,-80.31 7.97,-35.35 7.15,-76.05 -1.29,-103.05 -12.34,-39.53 -18.859,-51.4 -46.48,-78.59 -20.43,-19.84 -49.379,-41.41 -79.18,-52.93 -41.328,-17.27 -45.551,-17.19 -69.922,-18.32 -16.098,-0.74 -17.738,-1.37 -26.527,-5.94 -2.731,-0.93 -4.492,-3.79 -6.91,-4.61 -2.032,-0.66 -5.903,0.12 -5.903,0.12 -134.328,-58.87 -239.449,-124.53 -318.898,-183.12 -0.899,-0.71 -1.531,-3.75 -2.391,-4.46 -6.519,-5.31 -12.5,-9.37 -18.828,-14.22 -0.891,-0.66 -2.851,0.55 -3.711,-0.15 C 330.98,1547.7 278.051,1489.34 258.551,1472.5 l 1.918,-335.23 c 0,0 42.582,21.87 64.371,35.19 15.32,-129.8 80.082,-255.901 182.269,-343.44 l -44.339,-61.129 -204.329,140.66 2.848,-618.473 108.633,75.434 0,65.226 c 32.379,-21.789 63.988,-30.269 86.957,-129.566 18.391,34.879 16.793,86.797 8.551,121.527 0.121,0 27.582,22.653 35.98,40.071 l -40.359,35.781 c 0,0 10.429,86.719 -8.59,104.179 -15.039,-39.332 -27.07,-81.05 -83.359,-111.441 l -0.704,301.289 c 28.051,-17.777 54.614,-37.777 82.34,-56.019 l 3.793,0.781 28.707,-19.641 c 0,0 -3.039,-6.179 -5.816,-10.398 -34.883,-52.852 23.199,-117.692 70.469,-78.672 18.519,15.281 53.238,-48.238 59.769,-109.367 6.68,-39.461 10.27,-88.481 20.969,-122.782 3.32,-10 2.031,-15.582 -5.039,-21.679 -36.211,-50.93 -108.981,-153.59 -108.981,-153.59 l 52.461,0 3.789,6.019 -38.668,0 c 33.278,44.29 65.079,95.93 99.61,139.18 128.711,-48.441 339.527,-59.648 466.869,-30.281 26.29,-36.867 51.88,-75.508 77.15,-113.078 l -36.6,0 5.04,-7.891 49.53,0 -104.34,153.59 c -71.95,-21.371 -247.259,-13.051 -244.098,-11.289 0,0 -0.473,1.211 -6.524,18.629 -30.117,97.191 -32.887,183.441 42.621,253.172 40.11,35.66 84.922,59.179 134.961,54.718 22.34,0.43 22.77,1.641 32.11,5.86 5.11,2.308 15.78,4.73 15.78,4.73 l 50.7,28.09 6.68,1.32 14.57,7.7 3.01,3.59 23.55,11.96 2.66,-0.242 31.83,18.321 0.43,2.621 12.54,7.691 2.97,-3.121 c 3.48,-0.309 124.85,79.34 175.47,123.711 l 3.13,-1.133 c 59.1,47.813 139.49,123.202 163.32,151.832 l -1.29,143.52 -2.03,1.72 -0.82,158.9 -4.61,0 -0.2,19.57 c -26.13,-9.64 -54.88,-33.94 -56.8,-32.92 -16.64,134.53 -78.59,258.43 -179.8,349.41 l 43.09,59.49 200.11,-134.61 0.55,39.34 2.5,0 c 2.42,150.82 3.79,541.76 3.79,541.76 l -1.99,0.19 -0.04,31.21 -102.27,-65.31 -1.44,-65.98 c -45.36,14.81 -74.07,69.3 -83.6,117.85 -13.2,-5.31 -19.33,-56.44 -14.45,-121.17 -14.02,-8.36 -23.01,-17.54 -31.6,-28.59 11.13,-13.99 23.44,-25.47 37.03,-37.19 -2.85,-6.09 -8.83,-92.5 -2.89,-103.24 2.73,-7.89 12.19,-6.76 12.22,1.52 13.79,67.42 77.7,111.64 81.29,107.54 l -1.56,-310.7 -113.55,79.61 c 23.86,26.91 28.86,72.3 -1.18,94.53 -30.11,22.26 -59.57,3.4 -66.56,-10.78 -36.87,24.02 -49.26,113.04 -54.65,147.89 -1.32,16.95 -5.7,40 -10.7,60.74 -3.12,13.05 -6.87,25.47 -7.38,37.15 -0.2,5.47 0.47,7.85 5.43,14.73 l 110.39,156.64 -56.33,0.19 -0.55,-0.97 44.34,-0.12 -99.57,-141.37 c -149.81,47.03 -305.118,58.44 -471.29,28.56 l -82.07,115.46 37.34,0.16 -1.481,2.46 -46.879,0 z m 86.641,-1.33 1.57,-2.81 64.527,0.2 -0.976,2.38 c 0,0 -65,0.23 -65.121,0.23 z m 95.629,-0.35 1.25,-3.4 44.019,-0.15 -1.32,3.32 -43.949,0.23 z m 224.77,-1.17 -0.47,-1.56 48.51,-0.08 0.43,1.56 -48.47,0.08 z m -148.641,-0.04 0.472,-1.99 116.989,0 0.43,1.87 -117.891,0.12 z m 225.321,-1.05 -0.47,-1.64 101.01,0.07 0.86,1.57 -101.4,0 z m 426.17,-86.18 0.31,-21.25 -67.81,-43.12 c -1.72,-90.94 -4.34,-440.7 -4.34,-440.7 l -16.25,10.66 3.2,437.97 c 0,0 60,38.59 84.89,56.44 z m -178.01,-17.1 2.26,0 0.71,-4.93 -3.95,0 0.98,4.93 z m 4.8,-12.82 1.76,-6.68 -9.92,0.04 1.68,6.45 6.48,0.19 z m 171.25,-3.47 0,-13.87 -58.55,-36.6 0,13.79 58.55,36.68 z m -180.7,-11.57 15.35,-0.19 2.54,-7.66 -19.26,0 1.37,7.85 z m -375.941,-4.1 10.242,-1.52 c 23.469,-55.98 29.529,-104.06 33.589,-154.06 9.38,-64.93 28.24,-129.96 41.37,-157.62 l -15.04,0.16 c -1.72,0.19 -33.4,94.17 -40,149.68 -1.8,10.98 -1.09,21.17 -1.64,31.37 -3.36,42.89 -9.22,75.16 -28.521,131.99 z m 19.261,-2.26 13.05,-1.33 c 9.14,-39.73 22.46,-77.27 27.85,-117.19 8.67,-63.87 13.28,-129.1 44.06,-192.07 l -12.22,0.12 c -18.68,42.58 -30.24,86.95 -37.7,134.96 -5.82,27.54 -5.86,48.2 -8.95,73.08 -3.75,29.89 -15.27,67.86 -26.09,102.43 z m 19.84,-1.84 13.09,-1.95 c 8.59,-39.46 23.36,-82.89 27.27,-118.56 7.93,-72.65 19.33,-140.39 42.26,-188.43 l -9.14,0.27 c -35.43,68.59 -35.98,129.69 -45.9,193.98 -5.86,37.82 -18.24,75.71 -27.58,114.69 z m 20.83,-3.09 11.56,-1.75 c 8.04,-39.26 22.46,-83.71 25.78,-123.56 5.94,-70.51 18.48,-123.87 44.69,-180.78 l -10.82,-0.19 c -31.68,55.43 -35.94,123.47 -45.79,192.38 -5.46,38.05 -17.73,76.37 -25.42,113.9 z m 496.71,-0.07 0,-17.15 -58.55,-37.62 0,16.95 58.55,37.82 z m -477.81,-3.32 12.07,-1.88 c 7.77,-37.85 22.23,-78.28 25.63,-115.16 5.82,-63 17.42,-126.64 43.4,-185.31 l -11.14,-0.66 c -27.46,59.18 -39.45,113.08 -44.65,181.13 -2.89,38.16 -17.57,84.69 -25.31,121.88 z m 318.79,-0.2 4.22,-10.19 -28.05,-1.37 0.35,11.44 23.48,0.12 z m -298.95,-3.55 14.38,-2.82 c 15.2,-60.39 19.18,-117.61 29.53,-175.04 12.93,-71.32 26.56,-107.18 37.74,-120.5 l -11.88,-0.35 c -28.98,61.75 -39.26,123.16 -45.98,186.79 -3.98,37.54 -16.29,74.53 -23.79,111.92 z m 21.88,-4.11 10.94,-2.18 c 13.04,-49.38 18.94,-95.55 24.68,-140.24 10.43,-84.88 38.72,-149.45 44.73,-152.42 l -12.07,0.51 c -26.17,36.17 -35.86,97.73 -48.71,184.61 -5.66,38.2 -11.29,74.14 -19.57,109.72 z m 17.62,-3.51 12.26,-3.01 c 0,0 11.06,-43.44 19.38,-101.09 6.95,-48.05 10.62,-142.58 62.85,-196.96 26.09,-27.11 71.99,-50.7 103.36,-25.07 13.36,11.4 21.99,29.68 13.94,49.25 -13.51,32.74 -59.33,27.15 -44.1,-7.22 1.72,-8.25 -9.06,-8.6 -16.56,-0.55 -7.89,8.59 -5.94,18.4 -0.31,27.42 11.76,18.99 43.32,20.94 61.83,3.99 29.57,-28.99 16.8,-78.71 -20.66,-94.46 -43.16,-18.36 -98.79,19.5 -120.82,55.63 -36.41,62.89 -42.07,122.62 -50.63,186.13 -4.33,34.3 -12.69,70.31 -20.54,105.94 z m 18.47,-5.08 12.46,-3.01 c 0.04,-0.19 13.64,-61.25 18.13,-97.42 5.59,-44.69 11.76,-97.38 30.9,-138.05 11.87,-25.31 29.22,-46.56 46.72,-58.94 15.08,-10.67 28.59,-17.42 48.63,-13.05 23.12,5.04 24.1,40.82 2.03,40.94 -11.25,0.04 -3.91,10.9 5.43,11.21 33.28,1.09 34.22,-51.37 2.93,-63.05 -35.86,-13.4 -74.65,11.84 -98.67,43.56 -41.99,65.23 -40.31,124.72 -49.57,177.34 -2.46,27.7 -18.05,99.18 -18.99,100.47 z m 251.72,-1.84 7.58,-10.15 -42.23,0.19 0.2,9.65 34.45,0.31 z m -233.2,-3.35 11.91,-4.15 c 0.36,0 11.96,-47.42 19.18,-103.43 8.56,-53.99 11.37,-98.95 39.34,-137.97 11.64,-16.21 33.59,-37.89 47.42,-40.47 8.59,-1.84 17.46,0.04 19.65,6.56 3.55,10.67 12.69,5.78 12.89,-3.9 -0.04,-6.8 -5,-13.83 -13.4,-16.25 -41.13,-7.11 -78.75,44.49 -90.15,70.66 -15.47,38.09 -22.07,80.63 -28.79,133.59 -2.82,22.43 -16.41,93.91 -18.05,95.36 z m 381.48,-1.92 -0.19,-17.11 -58.36,-36.76 0,16.64 58.55,37.23 z m -363.55,-3.32 13.36,-3.63 c 0,0 11.13,-41.72 17.77,-93.21 6.72,-52.18 21.17,-112.85 48.21,-144.25 2.46,-3.01 4.14,-5.12 5.19,-6.88 1.95,-4.29 -0.35,-11.48 -2.38,-11.48 -48.13,25.04 -59.49,125.7 -63.64,159.72 -6.09,52.62 -18.51,99.73 -18.51,99.73 z m 187.23,-8.08 42.46,-1.18 10.11,-10 -56.25,0.51 c -5.93,6.13 -2.22,5.43 3.68,10.67 z m 176.32,-13.87 0,-14.22 -58.55,-37.07 0,14.49 58.55,36.8 z m -174.88,-4.49 62.15,-1.1 21.8,-12.97 -94.96,0.78 11.01,13.29 z m 174.88,-18.01 0,-17.03 -58.55,-36.68 0,15.97 58.55,37.74 z m -197.89,-3.24 105.59,-1.1 0.27,-11.44 -114.49,2.93 8.63,9.61 z m -13.75,-19.57 119.42,-0.32 0.31,-12.65 -108.59,1.05 -11.14,11.92 z m 211.64,-1.96 0,-17.73 -58.55,-36.29 0,16.83 58.55,37.19 z m -189.18,-18.59 91.53,-0.43 -9.92,-10.59 -69.03,0.71 -12.58,10.31 z m 189.18,-6.25 0,-16.76 -58.55,-36.84 0,16.53 58.55,37.07 z m -120.31,-12.81 -11.09,-10.79 -47.42,0.67 1.64,9.8 56.87,0.32 z m 120.31,-11.76 0,-17.97 -58.55,-35.74 0,15.54 58.55,38.17 z m -179.49,-6.56 39.14,-0.82 -5.97,-8.25 -34.26,-0.15 1.09,9.22 z m -351.99,-14.3 c 5.94,-45.2 38.71,-136.25 38.71,-136.21 l -12.93,-0.12 c 0.63,-0.9 -23.44,57.34 -32.11,112.23 -1.05,5.23 2.5,22.89 6.33,24.1 z m 349.45,-2.62 30.12,-0.51 -6.56,-11.64 -24.53,0.04 0.97,12.11 z m 182.03,-2.73 0,-15.71 -58.55,-36.01 0,14.33 58.55,37.39 z m -183,-15.9 19.96,-0.63 -4.73,-10.78 -15.47,0.47 0.24,10.94 z m 183,-8.48 0,-16.76 -58.55,-36.28 0,16.17 58.55,36.87 z m -543.789,-3.55 c 5.859,-32.89 30.819,-98.99 32.739,-103.32 l -11.06,-0.16 c -0.5,-1.52 -25.968,59.26 -28.671,85.24 -1.329,5.46 1.57,16.21 6.992,18.24 z m 360.589,-6.99 11.84,-0.55 -2.03,-6.17 -9.58,-0.24 -0.23,6.96 z m 1.06,-14.81 6.13,-0.16 -1.45,-5.85 -3.86,0 -0.82,6.01 z m 182.14,-0.31 0,-13.56 -58.55,-37.03 0,12.85 58.55,37.74 z m -558.469,-1.49 c 8.899,-26.36 17.769,-53.24 28.279,-78.98 l -13.09,0.31 c -8.708,18.56 -14.798,39.42 -21.599,59.88 -1.832,8.52 2.148,15.82 6.41,18.79 z m -13.051,-17.61 21.801,-60.9 -12.391,0 c -5.07,12.26 -10.82,25.97 -14.839,38.55 -4.102,13.09 -3.711,13.52 5.429,22.35 z m 571.52,-3.79 0,-16.06 -58.55,-36.21 0,13.83 58.55,38.44 z m -580.66,-23.56 11.949,-33.75 -15.27,0.39 c -4.488,10.63 -7.23,19.93 -8.359,30.24 -0.391,5 -1.328,10 2.191,12.11 6.911,3.9 6.129,0.7 9.489,-8.99 z m -16.211,-13.83 6.332,-19.76 -14.262,0.35 c -4.219,9.38 -5.82,16.09 -4.57,25.86 8.59,9.92 9.261,4.73 12.5,-6.45 z m 596.871,11.65 0,-16.8 -58.55,-35.2 0,15.59 58.55,36.41 z m -617.141,-12.07 5.973,-19.5 -12.891,0.32 c -2.152,4.57 -0.781,10.15 -0.859,15.31 l 7.777,3.87 z m -16.879,-9.97 c 0.2,-0.03 0.352,-0.07 0.43,-0.15 1.84,-8.64 0.039,-9.18 0.16,-9.1 l -18.012,0.11 c 0,0 14.614,9.26 17.422,9.14 z m 634.02,-5.03 0,-13.44 -58.55,-36.49 0,13.6 58.55,36.33 z m -696.012,-21.29 351.762,-0.98 11.71,-16.56 c 0,0 -34.21,-0.94 -146.32,-0.24 -94.378,-1.25 -283.992,1.99 -283.992,1.99 l 18.481,8.72 c 25.551,0.58 48.711,7.22 48.359,7.07 z m 696.012,-1.96 0,-14.8 -58.55,-35.43 0,14.3 58.55,35.93 z m -989.801,-14.18 c -28.277,-12.54 -54.687,-15.62 -74.41,-14.02 -42.469,3.44 -107.43,-14.34 -120.508,-55.12 -4.101,-14.41 -4.141,-14.8 3.629,-22.15 3.871,-3.63 7.66,-6.4 8.359,-6.13 6.84,6.06 15.903,17.31 25.59,20.59 12.77,3.86 19.68,4.37 40.621,5.31 45.078,1.99 55.27,3.91 66.481,6.87 24.687,6.53 49.57,30.82 51.058,57.86 0.192,3.12 -0.82,6.79 -0.82,6.79 z m -1.211,-3.71 c -4.769,-56.44 -65.898,-63.79 -92.738,-62.19 -54.449,3.29 -75.891,-13 -84.531,-23.08 -2.809,-2.7 -4.489,-2.07 -4.02,0.39 6.332,31.25 56.801,32.42 82.231,32.11 62.3,-2.85 78.082,27.19 76.32,27.46 -4.719,-2.11 -8.238,-3.98 -13.039,-6.25 -2.071,-0.86 -1.602,0.39 -7,3.52 -0.071,-0.4 -6.25,-14.38 -14.211,-1.14 0.23,-0.66 -5.668,-11.76 -16.531,-1.36 0.082,-1.14 -6.559,-10.67 -17.149,-0.9 -10,-8.56 -14.762,-3.87 -19.058,2.15 -3.122,-1.88 -12.383,-14.38 -20.122,-0.94 -8.199,-5.24 -11.64,-10.9 -18.71,-7.46 -16.52,-2.97 -30.782,-19.93 -36.598,-35.43 -1.832,-5.32 -5.512,-6.17 -5.942,-0.32 -1.949,16.22 24.692,44.26 51.411,52 20.82,6.01 35,10.35 80.699,8.63 25.98,-1.02 58.988,12.81 58.988,12.81 z m 667.302,-4.26 16.49,-11.17 -286.921,-395.62 -25.347,0.66 295.778,406.13 z m -460.271,-0.27 32.621,0 0,-53.91 -28.128,0 -10.043,14.93 c 2.582,-1.53 5.632,-2.46 8.832,-2.46 9.648,0 17.5,7.85 17.5,17.5 0,9.64 -7.852,17.46 -17.5,17.46 -9.653,0 -17.5,-7.82 -17.5,-17.46 0,-0.86 0.078,-1.68 0.199,-2.5 l -10.512,15.58 c 0,0 4.492,2.66 15.152,7.38 2.739,1.25 9.379,3.48 9.379,3.48 z m 100.551,0 55.27,0 0,-53.91 -55.27,0 0,53.91 z m 121.09,0 57.23,0 0,-54.26 -57.23,0.35 0,53.91 z m 123.55,0 57.15,0 0,-53.91 -57.15,0 0,53.91 z m 437.93,-1.29 0.86,-16.83 -58.55,-35.59 0,16.64 57.69,35.78 z m -411.44,-5.58 c -10.2,0 -18.56,-8.25 -18.56,-18.48 0,-10.2 8.36,-18.48 18.56,-18.48 10.23,0 18.51,8.28 18.51,18.48 0,10.23 -8.28,18.48 -18.51,18.48 z m -243.36,-0.98 c -10.231,0 -18.52,-8.24 -18.52,-18.44 0,-10.23 8.289,-18.51 18.52,-18.51 10.191,0 18.48,8.28 18.48,18.51 0,10.2 -8.289,18.44 -18.48,18.44 z m 120.55,-0.35 c -10.199,0 -18.519,-8.24 -18.519,-18.44 0,-10.23 8.32,-18.52 18.519,-18.52 10.23,0 18.51,8.29 18.51,18.52 0,10.2 -8.28,18.44 -18.51,18.44 z m 62.3,-2.19 c 8.56,0 15.51,-6.95 15.51,-15.55 0,-8.55 -6.95,-15.5 -15.51,-15.5 -8.55,0 -15.51,6.95 -15.51,15.5 0,8.6 6.96,15.55 15.51,15.55 z m -245.268,-0.23 c 8.59,0 15.508,-6.96 15.508,-15.51 0,-8.6 -6.918,-15.55 -15.508,-15.55 -8.563,0 -15.512,6.95 -15.512,15.55 0,8.55 6.949,15.51 15.512,15.51 z m 367.648,-0.55 c 3.68,0 7.04,-1.41 9.57,-3.71 l -16.91,-22.93 c -4.18,2.5 -6.99,7.03 -6.99,12.26 0,7.93 6.4,14.38 14.33,14.38 z m -242.89,-0.08 c 8.558,0 15.511,-6.95 15.511,-15.51 0,-8.59 -6.953,-15.54 -15.511,-15.54 -8.59,0 -15.54,6.95 -15.54,15.54 0,8.56 6.95,15.51 15.54,15.51 z m -187.379,-1.13 c 6.41,0 11.558,-5.16 11.558,-11.56 0,-6.37 -5.148,-11.61 -11.558,-11.61 -6.371,0 -11.602,5.24 -11.602,11.61 0,6.4 5.231,11.56 11.602,11.56 z m -35.469,-0.63 C 825.98,1672.66 878.359,1545.39 901.41,1406.72 l -16.531,0.74 C 857.5,1558.32 795.82,1687.7 712.191,1792.11 l 15.231,6.09 z m 403.868,-0.11 c 6.76,0 12.26,-5.47 12.26,-12.23 0,-6.76 -5.5,-12.23 -12.26,-12.23 -6.76,0 -12.27,5.47 -12.27,12.23 0,6.76 5.51,12.23 12.27,12.23 z m -243.36,-0.98 c 6.761,0 12.269,-5.43 12.269,-12.19 0,-6.8 -5.508,-12.26 -12.269,-12.26 -6.758,0 -12.27,5.46 -12.27,12.26 0,6.76 5.512,12.19 12.27,12.19 z m 120.55,-0.35 c 6.75,0 12.26,-5.43 12.26,-12.19 0,-6.76 -5.51,-12.27 -12.26,-12.27 -6.76,0 -12.269,5.51 -12.269,12.27 0,6.76 5.509,12.19 12.269,12.19 z m 306.75,-8.75 c 6.49,-49.69 -6.32,-81.76 -44.21,-86.96 -48.32,-6.64 -54.57,-10.27 -54.85,-56.01 -0.31,-54.22 -8.36,-69.88 -46.76,-74.18 -43.2,-4.81 -53.24,-9.92 -49.37,-63.63 2.81,-39.22 -12.62,-55.9 -45.9,-63.17 -26.02,-5.7 -48.52,-14.41 -58.16,-40.62 l -23.789,-0.32 c 6.168,41.29 47.689,61.02 74.289,62.39 28.68,6.79 34.65,16.4 30,66.68 -3.47,37.85 10.4,49.33 54.85,58.01 35.55,6.99 44.26,17.18 42.34,46.25 -4.14,62.34 -0.04,71.71 35.35,79.29 18.05,4.26 47.46,6.17 58.68,19.96 12.73,15.71 9.49,29.07 8.32,48.32 l 19.21,3.99 z m 228.36,-1.68 0,-16.29 -58.55,-36.09 0,15.85 58.55,36.53 z m -860.309,-9.65 c -12.543,-54.02 30.508,-65.78 56.68,-74.88 30.469,-10.63 37.891,-26.02 34.418,-79.69 -2.617,-40.63 1.871,-49.61 28.16,-63.56 40.231,-20.74 51.051,-50.23 33.16,-93.43 -11.008,-26.6 -5.23,-34.1 1.762,-57.35 l -19.531,0.2 c -1.41,-0.43 -17.891,28.98 -3.828,60.66 16.679,37.54 16.168,56.41 -20.942,73.28 -28.75,13.09 -37.539,25.39 -39.332,52.31 -0.738,11.33 -0.668,16.95 1.992,41.56 3.321,31.06 -7.73,44.42 -53.629,61.45 -20.429,7.61 -34.339,25.31 -38.519,53.36 -1.172,7.85 -0.121,16.91 -0.121,16.91 l 19.73,9.18 z m 686.249,-5.86 174.53,-116.09 -1.21,-25.82 -185.15,123.67 11.83,18.24 z m -112.46,-2.54 c 8.44,0 15.31,-6.87 15.31,-15.31 0,-8.44 -6.87,-15.27 -15.31,-15.27 -8.44,0 -15.27,6.83 -15.27,15.27 0,8.44 6.83,15.31 15.27,15.31 z m -549.019,-6.68 c 7.648,0 13.859,-6.21 13.859,-13.87 0,-7.65 -6.211,-13.86 -13.859,-13.86 -7.66,0 -13.871,6.21 -13.871,13.86 0,7.66 6.211,13.87 13.871,13.87 z m 835.039,-1.64 -0.59,-15.55 -57.46,-35.54 0,15.54 58.05,35.55 z M 632.379,1749.1 c 52.781,-68.79 104.652,-139.65 144.652,-273.2 l -17.07,-6.56 C 726.91,1576.84 676.129,1666.13 616.25,1740 l 16.129,9.1 z m 137.82,0.67 397.571,0 -10.19,-13.75 -379.81,3.9 -7.571,9.85 z m 773.391,-12.93 0,-17.04 -44.02,-26.79 -12.97,8.47 56.99,35.36 z m -934.57,-1.8 7.82,-10.27 c 0,0 -8.481,-6.61 -18.012,-13.44 -26.058,-18.63 -29.418,-20.74 -31.168,-32.85 -4.109,-28.79 25.5,-43.01 55.231,-26.37 10.629,4.88 33.988,19.69 33.988,19.69 l 6.711,-9.89 c 0,0 -33.469,-25.07 -53.121,-30.78 -43.129,-12.5 -75.309,42.11 -43.438,74.57 4.848,4.96 15.16,11.6 23.321,16.92 8.398,5.43 18.668,12.42 18.668,12.42 z m 177.46,-6.8 366.33,-2.19 -233.939,-319.72 -10.391,0.58 c -18.128,119.57 -63.128,224.07 -122,321.33 z m -159.718,-13.55 21.398,-29.89 c 0,0 -13.941,-13.35 -36.988,-25.97 -18.473,-10.08 -38.473,8.28 -26.871,24.84 11.949,16.45 42.461,31.02 42.461,31.02 z m 916.828,-3.05 0,-15.59 -25.39,-15.58 -11.6,7.42 36.99,23.75 z m -919.531,-11.99 c -10.149,-0.55 -26.989,-12.07 -32.731,-21.99 -2.457,-4.3 -1.558,-7.86 0.703,-10.78 3.481,-4.46 7.578,-4.22 19.77,2.26 24.84,13.28 29.527,21.13 18.551,28.91 -1.524,1.09 -3.321,1.56 -5.352,1.6 l -0.941,0 z m -0.821,-6.41 c 1.641,0.16 3.481,-0.31 5.043,-0.19 4.297,-1.76 2.969,-7.11 -1.519,-8.36 -0.981,1.56 -8.481,1.76 -7.973,-5.82 -1.801,-4.3 -1.719,-3.99 -7.187,-4.61 -3.633,0.9 -6.051,-1.6 -6.762,-3.21 -3.789,-2.03 -8.391,-1.36 -9.289,0.9 -0.821,2.19 2.258,8.6 4.918,8.56 1.25,-0.08 3.48,1.79 5.82,3.36 -0.117,4.14 4.762,4.72 6.172,4.72 1.41,-0.31 6.059,-0.35 8.32,3.44 0.629,0.82 1.52,1.13 2.457,1.21 z m 920.352,-3.71 0,-24.06 -18.39,11.76 18.39,12.3 z M 527.148,1686.48 C 593.871,1607.73 641.91,1523.87 672.5,1407.81 l -13.398,-9.22 c -20.192,81.37 -51.332,167.35 -143.403,279.11 l 11.449,8.78 z m 780.552,-1.32 c 30.19,-25.63 153.98,-142.15 177.57,-348.95 l -16.56,-10.16 c -13.28,109.15 -56.21,234.3 -171.72,345.2 l 10.71,13.91 z m -59.69,-7.15 c 8.44,0 15.27,-6.84 15.27,-15.28 0,-8.47 -6.83,-15.31 -15.27,-15.31 -8.44,0 -15.28,6.84 -15.28,15.31 0,8.44 6.84,15.28 15.28,15.28 z m -739.459,-5.98 c 0,0 14.027,-14.41 14.027,-17.85 -0.078,-6.8 -5.469,-10.63 -37.699,-22.38 -5.43,-2 -29.219,-7.46 -29.219,-7.46 l -0.859,11.56 c 12.109,4.37 44.73,12.19 47.109,19.1 1.18,2.73 -4.64,9.61 -3.39,9.61 l 10.031,7.42 z m 222.269,-2.93 c 7.7,0 13.871,-6.25 13.871,-13.9 0,-7.66 -6.171,-13.87 -13.871,-13.87 -7.66,0 -13.871,6.21 -13.871,13.87 0,7.65 6.211,13.9 13.871,13.9 z m 561.56,-3.98 c 100.86,-98.52 156.37,-220.24 169.34,-345.94 -117.46,-95.51 -197.27,-215.59 -228.95,-365.821 -15.66,26.129 -28.98,56.131 -43.47,85.511 156.68,137.69 189.68,385.74 54.14,559.57 l 48.94,66.68 z m -616.759,-18.79 7.078,-10.94 c 0,0 -1.488,-1.33 -23.437,-14.96 -32.114,-19.92 -37.422,-32.93 -26.684,-53.32 10.942,-20.86 23.16,-21.99 57.652,-5.27 12.192,5.89 22.54,12.11 22.54,12.11 l 5.511,-11.45 c 0,0 -15.429,-12.58 -45.191,-23.48 -27.969,-10.27 -54.418,7.23 -59.379,39.53 -3.59,23.48 6.641,36.06 47.461,59.22 4.566,2.43 14.449,8.56 14.449,8.56 z m 480.549,-5.2 c 8.44,0 15.28,-6.83 15.28,-15.27 0,-8.44 -6.84,-15.27 -15.28,-15.27 -8.47,0 -15.31,6.83 -15.31,15.27 0,8.44 6.84,15.27 15.31,15.27 z m -623.201,-0.54 9.222,-8.71 c 0,0 -3.992,-5.86 -26.722,-19.54 -20.43,-12.3 -22.539,-10.31 -12.379,-18.9 18.98,-16.06 45.308,-51.56 45.148,-60.71 -0.117,-8.86 -8.039,-16.99 -23.199,-23.82 -8.32,-3.75 -41.211,-15.47 -46.019,-16.29 -9.61,-1.06 -12.301,-4.92 -2.692,-13.64 16.293,-18.71 30.231,-58.75 24.613,-70.97 -6.293,-13.75 -13.871,-16.06 -74.261,-18.83 -6.879,-0.31 -10.16,1.64 -6.45,-7.19 2.7,-6.4 5.551,-15.19 10.942,-42.34 4.808,-24.22 3.988,-35.12 -5.434,-40.12 -5.386,-2.89 -47.418,-1.87 -64.758,1.56 -19.89,3.91 -22.031,4.14 -18.832,-8.79 4.18,-17.85 6.762,-65.74 -6.757,-74.96 -5.621,-3.67 -11.68,-2.77 -36.332,5.55 -15.739,5.27 -29.368,11.37 -29.368,11.37 l 0.27,14.84 c 12.809,-5.27 48.008,-20.47 58.008,-15.66 11.832,16.99 -4.61,76.56 -10.899,89.33 -7.621,15.24 0.309,18.56 17.809,9.11 9.18,-6.49 88.32,-37.66 83.832,-9.77 -4.84,26.48 -13.441,56.64 -30.121,75.55 -15.43,17.5 -7.77,24.68 9.422,16.99 30.386,-13.56 93.199,-10.24 90.078,3.83 -4.141,22.89 -24.93,53.94 -53.399,78 -7.929,6.68 -8.211,9.54 1.129,11.22 26.559,2.1 102.66,9.92 92.032,27.77 -9.141,14.61 -21.332,30.78 -31.723,39.49 -17.027,14.3 -34.219,20.51 -41.828,23.48 l 0.469,10.94 c 34.64,2.89 52.652,13.32 78.199,31.21 z m -83.91,-10.82 C 436.641,1499.53 382.148,1392.19 269.648,1317.34 l -0.628,14.57 c 98.91,74.3 146.371,179.85 159.261,282 l 20.778,15.86 z m 239.652,-8.17 c 0.039,0 0.039,-0.04 0.078,-0.04 0,0 18.09,-32.54 18.051,-35.51 -10.75,-9.92 -38.91,-24.49 -50.469,-21.09 -17.781,5.66 -20.551,24.65 -3.48,35.86 14.769,10.74 33.129,20.08 35.629,20.74 0.07,0.04 0.152,0.04 0.191,0.04 z m -144.141,2.03 9.219,-8.28 c 0,0 -2.34,-3.63 -15.668,-14.26 -10.351,-7.97 -6.75,-4.84 0.32,-14.33 6.25,-7.5 17.457,-22.66 17.457,-22.66 l -3.359,-20.12 c -11.68,16.68 -21.41,28.79 -38.789,46.64 -8.828,9.07 -8.32,9.34 4.262,15.9 9.449,5.2 17.148,11.57 26.558,17.11 z m 252.5,-12.97 c 7.66,0 13.871,-6.21 13.871,-13.86 0,-7.66 -6.211,-13.87 -13.871,-13.87 -7.66,0 -13.871,6.21 -13.871,13.87 0,7.65 6.211,13.86 13.871,13.86 z m -112.191,-1.17 c -13.199,-3.47 -26.129,-15.27 -33.43,-20.47 -2.621,-1.91 -0.551,-11.4 1.992,-14.68 3.278,-4.18 9.289,-3.48 16.481,0.5 3.008,1.68 8.476,4.42 12.109,6.1 10.16,4.68 14.418,8.2 14.02,12.11 -1.602,5.27 -5.781,16.83 -11.172,16.44 z m 0.742,-6.01 c 3.719,-0.16 6.41,-4.93 5.199,-7.74 -6.371,-3.47 -9.879,-0.54 -9.058,-5.35 0,0 0.617,-7.54 -8.711,-7.69 -2.27,0.97 -6.211,0.82 -8.129,-1.14 -6.524,-2.69 -12.192,3.01 -5.121,6.25 1.918,0.86 6.648,2.35 7.929,5.28 0.711,3.63 3.68,6.52 6.961,4.49 1.758,-0.12 5.661,-0.39 6.911,2.38 -0.473,3.09 1.718,3.36 3.277,3.48 0.281,0.04 0.512,0.04 0.742,0.04 z m -266.601,0.97 c 2.859,-14.61 -5.969,-40.31 -10.969,-54.76 -29.571,-38.71 -72.461,-58.48 -113.25,-71.99 -9.063,-3.01 -21.25,-1.49 -21.25,-1.49 56.449,58.05 104.847,100.63 145.469,128.24 z m -103.079,-13.16 c 0.387,3.28 -14.492,7.23 -15.902,5.16 -2.769,-2.54 -7.148,-42.9 -4.301,-45.79 3.992,-4.06 14.922,-5.15 15.981,-0.35 3.402,15.82 2.582,27.66 4.222,40.98 z m 252.93,1.21 9.68,-11.99 C 558.09,1386.17 419.262,1218.01 271.02,1151.37 l -0.43,12.85 c 169.57,89.06 271.601,237.34 298.281,428.28 z m 670.899,-0.82 18.35,-25.27 -26.32,-0.82 7.97,26.09 z m -928.75,-4.69 c -0.161,-6.64 -0.899,-20.43 -3.481,-28.16 -1.598,-5.98 -6.211,-4.61 -7.969,0.9 -1.84,5.74 -0.308,22.07 3.129,28.75 3.672,6.29 6.563,5.23 8.321,-1.49 z m 140.308,-3.51 c 9.102,0 57.383,-29.73 50.942,-44.53 -5.161,-11.8 -45.59,-12.74 -64.11,-11.1 l 2.82,11.37 c 0,0 5.622,-1.99 27.141,0.31 22.617,1.49 20.981,9.26 -4.961,25.67 -11.129,6.99 -13.711,8.71 -13.711,8.71 l 1.879,9.57 z m 133.832,-15.94 c 14.961,-25.24 29.141,-53.67 42.461,-85.51 C 445,1309.73 459.18,1075.08 574.301,921.051 l -49.61,-66.949 C 425.512,948.75 371.48,1065.2 353.238,1188.87 498.051,1293.05 566.09,1448.48 585.16,1567.54 Z m 678.08,-7.66 10.9,-20.82 -26.17,0.43 15.27,20.39 z m -113.04,-10.43 c 8.43,0 15.27,-6.83 15.27,-15.27 0,-8.44 -6.84,-15.27 -15.27,-15.27 -8.48,0 -15.32,6.83 -15.32,15.27 0,8.44 6.84,15.27 15.32,15.27 z m -424.891,-4.1 5.203,-11.83 c 0.226,-1.49 -36.961,-13.25 -48.91,-28.32 -11.051,-13.95 -10.043,-28.48 -3.793,-38.52 10.589,-14.3 18.089,-16.33 35.98,-10.82 14.57,4.45 25.313,10.51 39.762,17.89 l 2.308,-5.98 c 0,0.32 -20.781,-12.22 -36.64,-21.17 -5.938,-3.32 -13.09,-4.76 -19.297,-4.61 -36.094,0.9 -55.192,47.42 -25.473,74.92 4.379,4.03 19.102,12.11 31.531,18.48 8.239,4.3 19.329,9.96 19.329,9.96 z m 477.541,-7.34 c 119.1,-171.8 37.58,-360 -39.33,-426.6 l -2.04,20.19 c 129.46,147.5 84.42,319.73 30.47,396.29 l 10.9,10.12 z m 76.64,-7.74 9.38,-21.21 -27.66,2.93 18.28,18.28 z m -480.041,-6.95 c 7.66,0 13.91,-6.21 13.91,-13.87 0,-7.65 -6.25,-13.86 -13.91,-13.86 -7.648,0 -13.828,6.21 -13.828,13.86 0,7.66 6.18,13.87 13.828,13.87 z m 389.221,-2.7 c 104.38,-151.64 46.17,-393.43 -152.97,-467.1 l -1.01,16.95 c 203.04,84.88 222.97,310.82 141.4,438.32 l 12.58,11.83 z m -452.498,-0.93 13.207,-35.59 c -16.609,-11.13 -23.129,-13.01 -41.719,-17.54 -14.648,-3.36 -26.058,21.99 -14.808,31.68 12.847,11.1 26.679,15.86 43.32,21.45 z m -338.551,-0.12 c 2.457,0.12 -0.121,-5.94 -6.449,-21.21 -13.871,-33.59 -14.801,-34.34 -49.762,-39.88 -18.211,-2.89 -31.762,-3.6 -44.691,-2.35 -19.489,1.88 -27.848,7.39 -15.199,10.04 36.64,8.05 77.191,27.03 103.519,45.43 6.871,4.92 10.902,7.89 12.582,7.97 z m 663.469,-4.14 c 9.5,0 17.19,-7.7 17.19,-17.19 0,-9.45 -7.69,-17.11 -17.19,-17.11 -9.45,0 -17.14,7.66 -17.14,17.11 0,9.49 7.69,17.19 17.14,17.19 z m -518.899,-4.73 -1.453,-13.24 c 0,0 -21.207,-11.17 -31.207,-15.39 -7.652,-3.12 -8.203,-3.79 -5.742,-10.9 4.961,-14.18 14.492,-31.76 14.492,-31.76 l -8.832,-20.03 c -5.39,18 -11.09,37.07 -21.008,53.86 -9.421,13.13 -11.171,14.77 3.469,17.5 18.91,6.37 33.68,10.98 50.281,19.96 z m 189.098,-4.29 c -10.348,-0.47 -31.988,-9.18 -34.141,-17.5 -1.207,-4.73 0.153,-11.29 4.102,-12.78 10.781,-3.98 32.422,4.89 38.129,12.97 1.75,2.5 -0.938,7.66 -2.859,10.9 -1.442,2.46 -1.168,6.56 -5.231,6.41 z m 0.551,-7.11 0.539,0 c 1.762,0.15 8.133,-7.93 0.98,-7.27 -2.5,0.24 -4.73,-0.66 -6.757,-2.77 -0.274,-3.91 -5.821,-5.35 -8.512,-4.06 -2,1.01 -4.77,-1.02 -5.078,-2.23 -4.032,-2.89 -9.102,-2.77 -9.774,-0.7 -1.359,1.44 2.703,7.38 6.25,7.18 0.742,-0.04 3.282,1.64 5.633,3.67 1.129,4.07 5.391,3.36 8.078,3.13 3.09,-1.21 5.86,2.77 8.641,3.05 z m 560.78,-0.63 7.65,-21.25 -27.34,2.42 19.69,18.83 z m -117.54,-24.49 c -5.67,-7.23 -10.86,-7.27 -19.14,-6.91 6.76,-8.01 9.76,-19.07 3.16,-26.33 -10,-10.2 -29.33,5.47 -27.89,6.87 l 34.65,46.17 c 9.18,-2.61 14.3,-11.21 9.22,-19.8 z m -752.459,12.03 c 0,0 42.149,-36.25 42.418,-52.54 0.121,-6.17 -1.879,-8.2 -6.801,-9.84 -16.558,-5.47 -62.617,8.63 -62.617,8.63 l 5.938,11.21 c 7.23,-1.99 42.929,-11.21 45.98,-6.68 3.199,4.73 -29.809,36.92 -29.879,36.96 l 4.961,12.26 z m 209.059,-15.16 5.039,-17.53 -17.231,4.25 12.192,13.28 z m 672.58,-3.12 4.49,-24.26 -27.58,6.45 23.09,17.81 z m -525.74,-0.39 4.101,-14.26 C 599.648,1368.48 546.25,1173.63 641.641,1012.89 L 630.859,998.051 C 503.16,1205 632.5,1415 778.52,1467.54 Z m -164.848,-14.92 2.5,-21.6 -21.25,1.25 18.75,20.35 z m -251.762,0.58 c 3.602,-0.04 4.301,-1.99 4.301,-4.14 -0.039,-2.93 -18.481,-26.48 -24.449,-31.79 -13.012,-5.24 -63.051,15.66 -70.512,31.87 -1.48,4.73 3.441,2.66 14.531,0.39 28.09,-8.01 56.559,2.97 76.129,3.67 z m 487.391,-0.27 c 7.648,0 13.898,-6.21 13.898,-13.87 0,-7.65 -6.25,-13.86 -13.898,-13.86 -7.66,0 -13.832,6.21 -13.832,13.86 0,7.66 6.172,13.87 13.832,13.87 z m -576.25,-17.07 c 13.898,-12.54 34.371,-22.89 52.5,-26.48 11.328,-2.5 8.039,-3.68 -2.43,-14.46 -9.801,-10.27 -9.019,-11.56 -18.98,-6.48 -16.641,8.44 -34.762,27.61 -34.02,38.04 0.309,4.34 1.051,9.38 2.93,9.38 z m 1039.099,-2.34 3.47,-23.05 -26.05,9.02 22.58,14.03 z m -724.38,-8.32 8.48,-20.63 -23.129,0.66 14.649,19.97 z m 587.5,-19.69 c 0,-2.89 -0.7,-7.78 -0.7,-7.78 13.59,8.68 31.64,1.57 31.13,-12.42 -0.78,-19.72 -10.39,-19.88 -26.17,-17.26 8.63,-14.3 -1.6,-28.09 -17.81,-22.82 -14.77,4.81 -11.92,20.39 -5.04,29.61 -34.84,-5.66 -44.18,-55.27 -3.91,-70 -8.08,12.54 -10.11,27.5 7.46,30 16.33,2.35 23.21,-10.04 16.18,-24.92 15.31,5.35 29.76,-3.44 25.15,-18.36 -5.58,-18.04 -21.6,-16.79 -31.05,-5.82 6.79,-16.33 -8.91,-28.08 -20.78,-21.76 -18.68,9.97 -9.46,27.78 3.08,32.5 -48.12,4.97 -59.26,-61.56 -23.83,-71.05 -9.1,5.7 -10.11,31.91 10.67,28.32 20.43,-4.1 15.55,-23.05 2.46,-31.68 15.82,3.36 30.62,-10.43 20.98,-24.41 -11.33,-16.45 -26.96,-4.73 -32.78,6.48 1.84,-15 -7.73,-24.57 -20.04,-18.94 -21.09,9.68 -5.5,33.86 11.02,32.34 -33.48,19.76 -78.99,-21.72 -52.19,-56.06 -1.01,15.59 6.72,28.4 17.46,26.64 9.42,-1.05 17.7,-11.83 15.04,-20.27 -2.46,-7.23 -10.7,-12.73 -19.3,-14.49 25.59,-2.81 27.78,-20.94 17.15,-29.84 -18,-15.16 -26.36,2.34 -30.54,12.53 -3.64,-25.39 -33.64,-16.75 -34.69,1.61 -1.02,20.11 22.23,19.72 26.52,18.59 0.55,0.7 -17.97,19.02 -37.73,21.6 l 0.11,11.68 c 77.9,48.87 104.69,134.14 79.97,215 l 4.68,5.39 c 12.7,-9.69 25.47,-30.51 48.95,-22.89 0,0 -5.47,3.87 -8.17,6.52 -12.1,11.92 -5.31,25.94 11.53,26.72 10.9,0.51 15.12,-7.89 15.19,-14.76 z m -528.43,0.04 8.082,-11.84 C 536.801,1255.35 558.32,1096.99 626.25,992.191 l -9.879,-11.961 c -60.121,77.07 -109.223,263.95 30.469,425.32 z m 100.66,-19.14 c -0.16,-3.09 0.078,-5.55 0.078,-5.55 0,0 2.543,3.16 4.57,6.95 10.122,16.84 31.801,7.15 28.243,-12.22 -1.68,-9.07 -16.95,-12.62 -21.129,-10.04 3.937,-10.82 14.687,-13.36 27.769,-18.05 4.571,-0.86 12.418,-3.09 12.418,-3.09 l 0.321,-7.34 c -70.86,-44.61 -110.981,-120.31 -85,-223.83 l -7.86,-10.58 c -14.289,34.37 -27.301,33.63 -50.82,35 0,0 5.859,-4.14 9.219,-8.09 7.113,-8.44 3.953,-23.12 -5.899,-24.65 -22.851,-3.55 -23.082,12.66 -20.031,23.63 0,0 -4.109,-3.43 -6.098,-4.72 -9.062,-5.9 -20.351,0.19 -21.402,11.87 -1.02,11.02 2.73,18.13 14.062,19.5 3.789,0.46 9.649,-0.51 9.649,-0.51 0,0 -2.231,4.33 -3.481,6.76 -5.429,10.62 6.442,19.72 17.379,17.42 17.231,-4.14 15.864,-19.03 5.903,-30.71 26.679,-1.99 40.699,15.47 38.711,32.82 -2.383,21.13 -12.114,32.57 -33.122,36.25 0,0 3.399,-5.32 4.84,-7.89 5.352,-9.54 -2.34,-21.25 -13.672,-21.18 -11.558,0.08 -18.988,10.71 -14.527,21.18 1.09,2.57 5.43,5.78 4.758,6.05 -0.469,0.2 -6.399,-1.64 -8.078,-1.91 -13.91,-2.15 -22.852,10.07 -17,22.3 4.109,8.67 16.57,11.02 25.59,6.76 1.449,-0.51 3.16,-2.54 3.437,-2.07 0.274,0.43 -0.898,3.24 -1.25,5.27 -2.887,11.17 2.5,17.19 14.652,16.41 16.989,-1.1 23.321,-14.96 11.911,-27.42 -2.969,-3.25 -7.5,-8.01 -7.5,-8.01 0.589,-2.46 24.257,-4.26 36.371,8.4 13.976,14.68 16.168,45.23 2.109,55.23 -2.312,1.64 -7,4.92 -7,4.92 6.719,-13.43 -5.621,-28.9 -16.48,-26.01 -21.762,5.23 -19.879,23.04 -5.59,28.67 0,0 -14.492,5.43 -18.672,11.25 -5.93,8.28 -3.938,15.86 3.172,21.68 8.898,7.19 21.597,2.46 27.73,-6.41 3.707,11.29 8.91,18.91 24.34,12.78 10.777,-5.16 10.66,-19.53 -1.172,-27.39 -3.828,-2.5 -10.59,-4.84 -10.59,-4.84 0,0 10.192,-5.78 22.621,-5.94 23.942,-0.27 42.891,27.97 33.239,49.53 -1.949,4.38 -6.879,10.04 -6.879,10.04 0,0 -0.5,-7.54 -1.988,-10.43 -5.551,-10.78 -18.282,-10.97 -25.782,-4.18 -6.84,6.18 -4.84,14.42 0.469,20.04 4.02,4.26 7.66,5.12 13.242,7.74 -6.371,2.15 -13.48,3.71 -16.562,10.27 -2.891,6.33 -0.86,14.06 6.801,18.83 13.781,7.22 24.601,-5 23.98,-14.49 z m -475,17.42 c 9.73,-5.63 16.25,-14.14 25.352,-21.56 7.027,-5.71 6.949,-6.72 1.128,-12.15 -13.082,-12.62 -20.429,5.66 -24.64,13.12 -5.199,10 -5.711,20.2 -1.84,20.59 z m 1045.78,-3.48 1.64,-24.41 -27.19,10.43 25.55,13.98 z m -749.331,-1.44 9.762,-22.19 -25.231,0.12 15.469,22.07 z m 527.651,-0.04 c 23.75,-87.7 -9.65,-150.67 -72.97,-200 l -6.99,9.18 c 49.49,42.07 86.52,91.64 70.16,179.92 l 9.8,10.9 z m -290.901,-0.39 278.401,-5.12 -8.36,-14.65 -21.68,-0.12 -43.01,-76.05 -200.07,0.04 -5.281,95.9 z m -407.34,-63.44 c -9.73,-15.35 -67.539,17.66 -66.8,19.41 l 7.269,6.96 c 9.184,-3.71 37.774,-19.5 44.102,-17 2.191,14.34 -14.649,32.93 -21.02,45.28 l 7.07,8.9 c 0,0 36.68,-47.5 29.379,-63.55 z m 94.879,55.78 -9.648,-17.38 c -8.981,-2.78 -36.168,-3.24 -38.36,-5.04 3.29,-8.95 6.879,-35.16 6.879,-35.16 l -10.699,-13.71 c -2.89,16.88 -7.66,38.2 -11.879,53.83 -3.59,13.24 -2.582,10.31 25.668,12.5 12.653,0.74 25.699,2.34 38.039,4.96 z m 57.114,-20.98 11.449,-20.31 -23.211,-0.23 11.762,20.54 z m -278.793,-1.36 c 1.25,0.54 8.441,-7.5 9.691,-9.85 -0.551,-5.27 -8.75,-8.16 -10,-6.29 -0.512,0.78 -0.66,12.62 0.16,15.94 0.039,0.12 0.07,0.2 0.149,0.2 z m 1050.161,-0.24 -0.24,-25.47 -27.57,12.23 27.81,13.24 z m 218.94,-5.74 -0.39,-16.48 c -100,-48.87 -249.18,-180 -291.72,-415.239 l -8.75,9.649 c 42.54,224.57 189.34,357.34 300.86,422.07 z m -1006.012,-22.7 12.461,-18.75 -22.461,-2.46 10,21.21 z m 787.622,-7.18 -2.23,-22.54 -27.15,15.04 29.38,7.5 z m -522.469,-4.69 c 0.078,-5.35 0.551,-9.22 0.898,-14.57 -61.64,-39.88 -82.461,-102.66 -72.179,-181.68 l -8.559,-12.62 c -20.039,71.64 0.199,159.92 79.84,208.87 z m 714.499,-4.65 c 6.29,-3.71 26.64,-9.69 26.64,-9.69 l -0.24,-15 -41.91,15.04 15.51,9.65 z M 309.531,1259.53 c -9.019,-7.38 -29.84,4.88 -39.301,9.85 l -0.269,12.65 c 0,0 7.23,-3.71 14.449,-6.6 14.93,-6.6 14.969,1.29 6.801,23.36 -2.852,7.77 -5.699,16.76 -5.699,16.76 l 9.797,9.29 c 0,0 23.48,-52.89 14.222,-65.31 z m 210.508,47.42 16.051,-16.79 -22.379,-5.12 6.328,21.91 z m 978.871,-2.03 c 14.21,-0.04 41.6,-11.56 41.6,-11.56 l -0.16,-16.6 c -13.94,4.02 -30.08,11.76 -44.8,13.9 -11.6,1.61 -10.94,-4.88 -11.02,-21.32 -0.08,-22.23 5.51,-42.35 16.17,-64.57 8.79,-18.44 4.22,-23.36 -10.19,-15.12 -25.86,17.77 -81.06,31.17 -89.53,20.82 -8.75,-10.63 8.43,-63.59 28.32,-88.83 8.08,-10.27 8.59,-11.91 4.84,-15.9 -3.09,-3.24 -8.01,-3.44 -16.72,-0.66 -28.71,9.14 -70.23,11.17 -82.19,3.44 -11.87,-7.66 19.03,-60.71 44.97,-77.82 16.83,-11.99 13.59,-17.97 -13.6,-18.55 -44.41,-0.24 -78.55,-10.12 -76.68,-22.228 3.24,-20.621 31.99,-48.871 65,-63.871 20.2,-8.242 11.76,-11.52 -1.68,-16.281 -22.46,-7.579 -44.02,-19.731 -65.15,-31.059 l -10.16,12.969 c 0,0 21.25,13.519 44.37,26.519 5.4,3.012 5.12,4.141 -2.46,10.512 -24.61,20.629 -42.69,43.668 -46.48,59.18 -3.67,15.079 3.87,24.569 26.25,33.089 13.83,5.27 18.91,6.79 31.09,9.53 17.58,3.94 17.89,4.49 10.35,18.01 -3.35,6.05 -8.86,16.05 -12.26,22.22 -26.17,44.81 -12.34,60.94 48.44,61.88 14.92,0.78 17.77,0.82 16.95,5.97 -3.24,21.1 -12.58,45.32 -11.25,63.21 2.77,26.95 30.51,33.47 79.22,21.32 11.29,-2.81 12.07,-2.26 10.12,6.84 -9.46,41.06 0.39,78.09 26.64,74.96 z m -178.83,-2.89 -4.26,-26.13 -25.98,17.26 30.24,8.87 z m -970.471,-6.13 71.563,-4.73 -11.371,-13.32 -43.242,0.82 -1.637,-36.95 -13.871,-11.88 -1.442,66.06 z m 463.832,-2.85 58.938,0 -0.469,-62.31 -58.75,0 0.281,62.31 z m 70.231,0 54.848,0 0,-62.31 -54.379,-0.58 -0.469,62.89 z m 65.668,0 58.78,0 -0.54,-62.31 -58.201,0 -0.039,62.31 z m 513.55,-4.96 c -1.37,-16.02 1.99,-45 3.32,-57.43 -0.94,-3.71 -3.51,-3.16 -18.91,0.32 -10.66,3.59 -40.27,4.64 -40.27,4.64 l 12.42,13.13 c 10.12,-1.21 18.13,-1.09 28.64,-2.42 -0.16,10.47 0.27,30.51 0.27,30.51 l 14.53,11.25 z m -952.191,-12.35 16.449,-16.56 -21.058,-5.39 4.609,21.95 z m 803.681,-5.39 -6.57,-26.64 -23.79,21.41 30.36,5.23 z m 225.58,-14.14 0.08,-13.59 -23.4,10.5 c -0.27,-15.5 13.44,-43.51 13.44,-43.51 l -11.13,-5.23 c -9.65,15.74 -16.33,29.92 -16.88,47.65 0.12,6.41 -0.78,17.31 5,17.58 11.91,0.27 21.88,-3.75 32.89,-13.4 z m -1037.3,-13.48 19.57,-11.64 -21.679,-8.75 2.109,20.39 z m 804.22,-5.97 -9.58,-27.42 -20.89,23.75 30.47,3.67 z m -1036.759,-8.71 52.77,-17.89 -9.411,-9.96 -43.832,13.82 0.473,14.03 z m 740.149,-7.27 4.34,-97.15 -278.751,2.27 9.692,13.75 18.121,0.15 47.738,80.43 198.86,0.55 z m -511.321,-7.58 20.699,-14.61 -21.527,-9.49 0.828,24.1 z m 1042.261,-8.55 0.04,-15.9 c -67.3,-49.73 -140.04,-135.43 -152.42,-286.949 l -18.17,-15.512 c 8.87,147.971 70.47,249.961 170.55,318.361 z m -245.55,-0.59 -9.76,-24.65 -19.34,22.93 29.1,1.72 z m 189.65,-33.55 -6.48,-7.27 c -1.8,-0.58 -27.46,13.17 -47.66,16.37 6.6,-13.05 9.73,-22.81 24.38,-43.52 l -9.46,-9.29 c -2.81,0.62 -39.41,54.65 -29.72,66.83 15.7,10.59 53.79,-11.6 68.94,-23.12 z m -109.45,29.02 c -0.39,-14.69 11.48,-60.19 11.48,-60.19 -18.36,-0.9 -36.13,1.21 -55.93,-4.38 l 9.29,16.64 c 0,0 8.64,0.9 16.18,2.42 15.62,3.09 13.98,1.21 10.39,14.77 -3.44,12.77 -3.64,15.43 -3.64,15.43 0,0 11.14,15.39 12.23,15.31 z M 347.148,1183.79 C 371.25,1037.89 428.789,937.73 519.57,847.578 l -9.218,-12.066 c -106.723,97.687 -165,221.988 -180.231,338.868 l 17.027,9.41 z m 150.192,-6.13 19.648,-10.71 -20.187,-11.75 0.539,22.46 z m 1043.6,-0.43 -0.12,-21.41 -12.27,12.42 c 3.29,2.97 7.35,5.98 12.39,8.99 z m -258.71,-4.38 -13.4,-24.57 -17.46,23.28 30.86,1.29 z m 257.3,-55.55 c -2.77,4.3 -27.26,19.58 -38.4,25.94 -0.7,1.88 17.23,17.89 20.78,19.03 17.82,-2.5 23.52,-38.05 17.62,-44.97 z m -1041.909,26.68 22.18,-10.82 -20.11,-14.21 -2.07,25.03 z m 738.159,0 28.48,-2.69 -15.12,-23.48 -13.36,26.17 z m 263.6,-10.43 c 3.67,-0.03 7.85,-1.56 13,-4.45 20.08,-11.17 30.63,-23.44 29.5,-34.3 -0.51,-5 -3.33,-6.01 -6.57,-2.38 -5.82,6.56 -25.58,15.08 -42.58,18.4 -12.89,2.5 -14.06,3.63 -10.19,9.57 5.86,9.06 10.66,13.2 16.84,13.16 z m -343.09,-10.31 c 30.82,-116.79 85.04,-206.681 153.12,-280.662 l -14.1,-12.027 c -51.72,59.289 -108.55,128.711 -155,278.749 l 15.98,13.94 z m 61.56,-6.25 28.48,-4.29 -16.68,-21.29 -11.8,25.58 z m -401.87,-1.25 c 3.282,-0.12 -9.808,-49.84 -55.082,-53.24 -28.668,-4.77 -31.878,-9.61 -32.308,-54.22 -0.621,-60.471 -10.352,-74.608 -59.801,-78.358 -32.738,-2.461 -37.027,-9.102 -31.488,-56.094 5.277,-44.769 -11.641,-67.539 -53.321,-67.5 -36.128,-3.008 -51.05,-19.848 -51.011,-53.316 0,-13.563 0.23,-16.84 0.23,-16.84 l -23.359,-1.793 c 0,0 0.039,22.031 1.84,32.73 7.109,43.282 25.66,60.621 64.73,60.43 30.192,2.301 34.918,7.191 33.86,52.973 -1.168,46.597 -1.79,46.289 10.351,58.468 7.82,7.86 16.758,11.372 32.617,12.86 49.422,4.68 53.321,7.961 53.172,58.63 -4.57,42.07 7.07,67.85 33.789,69.96 54.102,4.3 52.813,33.67 50.422,34.88 l 25.199,0.39 c 0.039,0.04 0.078,0.04 0.16,0.04 z m 110.622,0 C 958.32,944.648 1058.71,784.379 1113.79,725.23 l -10.74,-5.699 c -80.32,99.731 -153.28,214.258 -189.378,395.939 l 12.93,0.27 z m -57.301,-0.08 25.109,-0.27 -289.101,-406.87 -15.27,11.48 279.262,395.66 z m 35.078,-0.27 c 27.141,-98.63 48.512,-195.081 133.941,-324.101 l -362.3,2.383 228.359,321.718 z M 1004.41,1115 c 2.11,0.98 10.63,-49.88 -2.07,-73.4 -11.399,-31.8 -5.82,-49.69 18.99,-61.291 42.58,-19.879 53.36,-39.719 47.93,-88.59 -3.79,-34.18 6.56,-50.699 38.67,-61.719 38.32,-13.09 55.08,-33.672 54.84,-67.422 0,-5.199 -1.95,-11.098 -1.95,-11.098 l -21.37,-12.57 c 0,0 0.24,4.57 1.06,10.07 5.58,37.43 -1.53,47.579 -45.67,65.2 -41.72,16.679 -52.07,35.941 -44.96,83.98 2.31,15.668 -0.9,31.531 -7.38,43.442 -10.94,19.449 -35.04,19.257 -52.422,37.027 -14.34,15.199 -15.898,36.451 -3.707,72.781 7.578,22.54 8.707,31.09 2.848,49.88 -3.91,12.34 -5.391,13.44 -5.391,13.44 l 20.582,0.27 z m -503.199,-5.43 24.609,-6.8 -18.519,-19.18 -6.09,25.98 z m 976.089,-5.08 c 8.44,0.24 24.77,-2.73 38.13,-9.37 30.62,-15.28 36.21,-27.78 9.34,-21.06 -15.12,3.83 -36.92,2.97 -57.89,-2.22 -22.23,-5.51 -21.76,-5.75 -14.11,7.69 9.69,16.95 12.23,24.61 24.53,24.96 z m -55.62,-18.04 -5.55,-9.57 c -12.18,2.03 -25,8 -43.55,6.52 7.62,-14.57 16.64,-22.07 28.71,-34.92 l -4.49,-9.61 c -1.1,-1.29 -35.32,27.26 -42.19,46.44 -3.13,8.67 -0.31,12.46 12.19,12.78 18.55,0.27 37.3,-5.04 54.88,-11.64 z m -457.621,9.41 c 9.179,0 16.601,-7.42 16.601,-16.6 0,-9.18 -7.422,-16.64 -16.601,-16.64 -9.18,0 -16.598,7.46 -16.598,16.64 0,9.18 7.418,16.6 16.598,16.6 z m 233.991,-4.49 28.04,-5.04 -18.71,-20.94 -9.33,25.98 z m -524.53,-0.2 c 6.601,0.51 16.871,-12.34 16.832,-12.34 l -33.981,-46.99 c -16.172,3.28 -12.742,27.77 2.07,28.51 3.438,0 9.68,-0.58 9.68,-0.58 0,0 -4.57,2.46 -7.18,5.97 -9.921,11.99 -0.55,24.38 12.579,25.43 z m 634.49,4.18 c 0,0 27.07,-53.51 25.35,-55.55 -16.8,-7.42 -35.12,-11.21 -53.56,-17.92 l 3.56,15.54 c 0,0 6.13,0.43 26.76,8.28 9.84,3.75 -10.78,31.21 -10.78,31.21 l 8.67,18.44 z m -187.23,-15.78 c 39.49,-0.35 40,-48.83 32.42,-64.84 -5.5,-10.98 -13.86,-17.07 -39.14,-28.519 -21.91,-9.883 -24.33,-9.223 -24.33,-9.223 l -5.28,11.684 c 0,0 12.78,5.629 26.53,11.168 28.4,11.45 35.31,20.24 32.18,40.78 -4.41,29.07 -26.87,33.6 -70.31,14.11 -5.08,-2.27 -11.4,-4.53 -11.4,-4.53 l -3.01,5.85 c 0.7,0.59 34.8,18.44 53.9,22.9 3.01,0.43 5.82,0.62 8.44,0.62 z m -610.78,-5.31 22.34,-7.35 -16.289,-16.01 -6.051,23.36 z m 995.31,-6.21 c 19.73,0.04 35.98,-3.28 35.94,-10.35 0,-3.32 -0.78,-3.64 -18.52,-6.06 -26.95,-3.75 -71.95,-26.76 -97.3,-48.09 -15,-12.652 -11.13,-9.722 -4.81,8.64 6.29,18.2 15.67,39.96 20.75,43.28 12.69,8.32 41.56,12.5 63.94,12.58 z m -322.85,-2.54 18.99,-4.14 -12.35,-11.99 -6.64,16.13 z m -63.71,-10.31 c 6.84,0.07 10.16,-3.13 12.85,-9.61 5.78,-14.11 0.08,-22.35 -21.95,-31.8 -10,-4.45 -18.91,-10.74 -29.85,-12.74 l -13.82,37.15 c 0,0 4.37,1.6 18.75,7.58 16.44,6.76 27.22,9.3 34.02,9.42 z m -64.22,-4.5 c 43.95,-124.372 97.77,-205.149 154.69,-272.071 L 1195.43,770 c -60.43,71.52 -116.09,155.352 -156.17,278.75 l 15.27,1.95 z m 60.98,-4.45 c -5.31,-0.12 -13.32,-3.36 -23.99,-7.46 -15.5,-5.98 -16.83,-13.2 -9.88,-22.15 3.05,-3.91 6.17,-3.05 21.06,2.85 15.23,6.06 21.79,8.71 22.69,14.14 1.33,7.89 -3.05,12.82 -9.88,12.62 z m 427.38,-1.68 c -0.04,-5.19 -79.1,-80.16 -124.3,-118.32 -20.58,-17.379 -19.88,-17.23 -21.64,-15.078 -1.13,12.887 7.62,59.027 12.97,67.066 30.2,31.962 76.76,57.972 122.11,67.782 7.11,1.4 11.52,1.25 10.86,-1.45 z m -425.98,-2.5 c 2.82,-0.08 5.28,-2.54 5.28,-5.7 -0.04,-2.42 -3.52,-4.73 -7.15,-4.73 -1.29,0 -4.42,-0.7 -6.41,-2.73 -1.95,-2.86 -3.2,-5.59 -6.75,-4.89 -2.04,0.36 -5.83,0.51 -7.31,-0.78 -6.95,-6.05 -13.87,-1.05 -10.62,5.04 0.78,1.52 3.59,2.31 5.85,2.27 2,0 6.49,0.47 7.15,2.89 0.78,2.89 5.24,3.71 8.32,3.59 3.36,-0.43 6.06,1.25 6.92,2.66 1.25,1.09 2.73,2.22 4.14,2.34 0.19,0.04 0.39,0.04 0.58,0.04 z m -597.89,-1.33 25.199,-3.4 -15.86,-20.31 -9.339,23.71 z m 240.32,0.35 c 9.18,0 16.64,-7.42 16.64,-16.6 0,-9.18 -7.46,-16.64 -16.64,-16.64 -9.18,0 -16.61,7.46 -16.61,16.64 0,9.18 7.43,16.6 16.61,16.6 z m 262.22,-13.16 c 9.14,0 16.6,-7.42 16.6,-16.6 0,-9.14 -7.46,-16.6 -16.6,-16.6 -9.18,0 -16.6,7.46 -16.6,16.6 0,9.18 7.42,16.6 16.6,16.6 z m -491.29,-18.75 27.308,-1.76 -15.629,-20.9 -11.679,22.66 z m 144.179,-3.98 c 9.18,0 16.602,-7.43 16.602,-16.61 0,-9.18 -7.422,-16.602 -16.602,-16.602 -9.179,0 -16.597,7.422 -16.597,16.602 0,9.18 7.418,16.61 16.597,16.61 z m 682.231,-10.36 c 11.41,0.16 24.61,-0.969 24.61,-0.969 l -3.2,-12.781 c -13.87,-1.32 -31.72,2.539 -46.61,-3.711 5.55,-9.02 37.97,-21.828 41.53,-25.039 0.35,-1.32 -2.66,-13.512 -2.66,-13.512 0.86,-3.129 -54.88,22.621 -56.72,44.332 0.04,7.352 24.1,11.371 43.05,11.68 z m -191.64,-13.281 c 31.68,-0.27 47.3,-44.489 35,-64.059 -4.88,-8.871 -15.9,-19.379 -30.39,-28.59 -6.95,-4.461 -25.43,-13.519 -25.43,-13.519 l -8.32,12.847 c 0,0 7.38,2.973 14.33,6.762 17.43,9.84 52.82,30.82 35.71,59.41 -9.61,15.469 -23.99,18.481 -53.83,3.32 -22.31,-11.281 -27.34,-12.339 -27.34,-12.339 l -5.67,10.23 c 1.49,-0.851 44.49,25.039 65.94,25.938 z m -618.239,-4.61 24.879,-0.039 -10.629,-22.422 -14.25,22.461 z m 720.269,2.93 c 15.12,-29.219 40.98,-51.328 48.05,-56.641 0,0 -25.78,-16.558 -41.17,-27.066 l -9.03,10.629 22.11,18.937 -24.92,34.731 4.96,19.41 z m 242.58,-7.027 c -2.77,-14.454 -3.24,-29.801 -4.42,-46.68 5.43,-4.961 10.36,-7.461 14.65,-7.152 4.81,15.16 8.24,32.39 5.98,50.16 -4.57,3.55 -10.55,3.16 -16.21,3.672 z m 12.5,-10.973 c -0.12,-9.539 1.21,-21.449 -2.85,-30.629 -2.35,-5.23 -7.62,-3.281 -7.82,3.828 -0.23,9.652 1.72,17.692 2.27,26.442 0.31,5 2.5,8.011 5.47,6.839 3.08,-1.48 2.85,-3.711 2.93,-6.48 z m -359.03,-6.57 c 16.33,-1.207 22.62,-14.879 16.61,-24.688 -14.73,-18.82 -29.85,-22.262 -49.18,-33.16 l -19.3,36.129 c 0,0 37.58,21.211 51.87,21.719 z m -0.42,-8.079 c -10.79,-1.25 -17.62,-6.531 -26.68,-10.98 -11.14,-5.43 -14.77,-13.828 -7.23,-21.48 8.32,-9.258 37.34,12.808 42.15,18.16 2.97,4.57 2.46,8.75 -1.68,12.07 -1.8,1.41 -4.03,2.23 -6.56,2.23 z m -595.47,-1.492 24.29,-0.269 -13.122,-18.59 -11.168,18.859 z m 597.69,-3.828 c 4.14,-2.93 3.79,-8.199 -2.07,-9.68 -2.93,-0.75 -8.05,-0.781 -8.16,-4.73 -0.08,-2.93 -4.53,-4.02 -7.11,-3.59 -2.62,0.43 -7.03,0.621 -7.89,-2.621 -2.23,-4.488 -3.91,-4.527 -7.03,-1.449 -3.36,3.398 -1.8,7.699 4.76,8.441 2.81,0.309 5.24,2.34 6.25,4.489 -0.15,2.781 1.8,4.421 4.88,3.75 4.38,0.039 7.23,1.679 10.32,5.75 2.18,1.011 4.57,0.699 6.05,-0.36 z m -142.3,-0.461 c 9.18,0 16.6,-7.429 16.6,-16.609 0,-9.18 -7.42,-16.641 -16.6,-16.641 -9.18,0 -16.6,7.461 -16.6,16.641 0,9.18 7.42,16.609 16.6,16.609 z M 668.012,910.898 c 9.179,0 16.636,-7.457 16.636,-16.636 0,-9.184 -7.457,-16.602 -16.636,-16.602 -9.184,0 -16.602,7.418 -16.602,16.602 0,9.179 7.418,16.636 16.602,16.636 z M 270.699,896.172 460.898,766.09 447.891,747.109 271.25,867.27 l -0.551,28.902 z m 954.891,-4.262 c 12.38,0 21.91,-7.109 31.13,-21.48 18.36,-28.52 9.14,-50.981 -28.79,-73.981 -17.66,-10.668 -17.77,-10.789 -17.77,-10.789 l -8.99,11.059 c 0,0 12.85,7.582 18.17,10.902 31.21,19.719 40,37.18 26.25,56.789 -13.21,18.949 -27.07,17.43 -65.63,-7.07 -7.77,-4.961 -17.11,-8.86 -17.11,-8.86 l -8.44,11.481 c 0,0 21.8,11.211 29.26,15.937 17.07,10.903 30.98,16.012 41.92,16.012 z m 141.75,4.93 0.16,-12.5 c 0.39,-0.59 -25.86,-12.149 -41.25,-19.141 -5,-2.699 -3.05,-8.008 -2.73,-13.48 l -7.43,-5 c 0,0 -10.23,7.461 -11.6,12.261 -3.75,15.161 44.46,33.29 62.85,37.86 z m -274.57,-13.442 c 9.18,0 16.64,-7.418 16.64,-16.597 0,-9.18 -7.46,-16.641 -16.64,-16.641 -9.18,0 -16.6,7.461 -16.6,16.641 0,9.179 7.42,16.597 16.6,16.597 z m -515.231,-4.687 c 9.18,0 16.602,-7.422 16.602,-16.602 0,-9.14 -7.422,-16.597 -16.602,-16.597 -9.18,0 -16.598,7.457 -16.598,16.597 0,9.18 7.418,16.602 16.598,16.602 z m 647.341,-13.242 c 6.33,0.23 11.06,-3.867 13.64,-10.16 6.6,-16.047 -2.39,-27.969 -34.89,-46.168 -2.73,-1.52 -8.47,-4.653 -8.47,-4.653 l -23.95,33.051 c 0,0 8.4,5.781 16.37,10.551 17.81,11.64 29.22,17.109 37.3,17.379 z m -3.16,-7.93 c -1.52,-0.039 -3.32,-0.629 -5.35,-1.801 -8.36,-4.797 -22.31,-10.039 -28.87,-18.75 -3.87,-5.308 -2.11,-10.617 5.2,-17.457 6.17,-4.062 38.08,19.418 38.86,26.25 -2.69,7.188 -5.27,11.918 -9.84,11.758 z m -949.65,-1.758 5.309,-3.59 -5.309,-4.179 0,7.769 z M 1226.76,850 c 2.38,-2.891 0.97,-7.77 -4.03,-8.629 -2.53,-0.43 -6.25,-1.101 -7.46,-4.851 -1.01,-2.461 -4.45,-4.532 -7.85,-4.45 -3.9,0.899 -5.97,-1.449 -6.17,-3.199 -1.91,-3.281 -6.68,-3.793 -9.61,-0.711 -2.26,2.391 1.8,9.34 4.45,9.219 0.51,-0.188 3.44,-0.859 7,3.871 0.7,3.48 4.72,5.59 7.65,5.469 2.97,-1.02 4.69,2.261 5.9,4.062 2.7,1.449 8.24,1.449 10.12,-0.781 z m -942.069,-2.539 7.649,-5.16 -20.27,-14.371 0,11.601 12.621,7.93 z m 14.84,-9.691 10.391,-6.95 -37.852,-27.109 0,14.73 27.461,19.329 z m 19.379,-12.379 10.969,-7.231 -57.809,-39.058 0,15.039 46.84,31.25 z m 20.82,-10.551 0,-12.57 -67.66,-47.231 0,12.731 67.66,47.07 z m 7.649,-9.02 14.57,-9.961 3.672,-425.937 -91.211,-62.652 0.078,18.628 76.563,55.352 -3.672,424.57 z M 1447.5,794.301 c -20.43,-23.36 -47.89,-24.922 -71.8,-24.301 -64.45,-0.898 -104.49,-4.34 -112.77,-81.211 26.25,19.652 54.1,22.191 86.37,21.25 40.82,0.039 59.18,2.731 75.78,11.012 26.68,13.328 43.51,37.148 40.31,53.828 -3.16,3.641 -11.44,18.519 -17.89,19.422 z m -1107.77,-3.711 0,-14.77 -67.66,-45.351 0,15 67.66,45.121 z m 772.93,-1.371 c 9.18,0 16.64,-7.457 16.64,-16.598 0,-9.18 -7.46,-16.601 -16.64,-16.601 -9.18,0 -16.61,7.421 -16.61,16.601 0,9.141 7.43,16.598 16.61,16.598 z M 670.781,787.5 c 119.61,-3.711 373.599,-2.301 373.599,-2.301 l 13.51,-19.5 -399.339,4.18 12.23,17.621 z m 776.059,-12.809 c -14.3,-14.031 -29.14,-20.902 -76.18,-20.043 -49.68,0.903 -69.06,-6.949 -81.91,-29.097 -3.75,-6.41 -3.67,-8.949 1.72,-4.071 4.57,5.399 14.88,15.79 19.14,5.942 8.44,5.547 15.74,13.949 20.16,3.316 2.46,0.551 16.79,14.883 20.15,2.192 6.88,7.66 12.74,10.039 15.94,-0.821 9.73,4.61 14.88,13.36 20.43,1.289 7.81,5.582 13.79,12.622 18.36,1.911 6.68,1.992 13.47,14.261 17.34,4.461 0.71,-0.239 24.89,14.289 31.72,28.671 5.63,12.688 10.74,4.289 4.38,-8.671 -16.37,-31.719 -44.38,-43.321 -108.68,-43.399 -39.02,-0.043 -55.19,-3.871 -67.42,-11.019 -19.69,-11.481 -9.1,17.418 4.69,34.957 17.38,22.07 37.23,28.601 91.52,26.64 29.65,-0.187 48.64,3.91 56.64,10.391 6.84,5.469 11.76,9.219 15.39,9.461 3.68,0.23 4.18,-4.692 -3.39,-12.11 z m -878.719,5.387 c 9.18,0 16.649,-7.457 16.649,-16.637 0,-9.179 -7.469,-16.601 -16.649,-16.601 -9.172,0 -16.601,7.422 -16.601,16.601 0,9.18 7.429,16.637 16.601,16.637 z M 339.73,767.77 l 0,-15 -67.66,-46.168 0,15.308 67.66,45.86 z m 327.301,-7.18 52.5,0 0,-55.43 -52.5,0 0,55.43 z m 117.66,0 56.52,0 0,-55.43 -56.52,0 0,55.43 z m 125.821,-1.801 54.527,0 0,-53.629 -54.527,0 0,53.629 z m 118.118,-1.09 36.33,-1.219 c 0,0 20.16,-25.66 28.67,-37.5 l -26.83,-13.75 -38.17,-0.07 0,52.539 z m -336.36,-3.75 c -10.2,0 -18.52,-8.25 -18.52,-18.48 0,-10.199 8.32,-18.481 18.52,-18.481 10.23,0 18.511,8.282 18.511,18.481 0,10.23 -8.281,18.48 -18.511,18.48 z m 120.781,-1.84 c -10.242,0 -18.52,-8.238 -18.52,-18.437 0,-10.231 8.278,-18.512 18.52,-18.512 10.187,0 18.469,8.281 18.469,18.512 0,10.199 -8.282,18.437 -18.469,18.437 z m 123.469,-0.468 c -10.192,0 -18.469,-8.243 -18.469,-18.481 0,-10.191 8.277,-18.469 18.469,-18.469 10.242,0 18.519,8.278 18.519,18.469 0,10.238 -8.277,18.481 -18.519,18.481 z m -294.758,-3.75 c 3.629,-2.582 6.047,-6.801 6.047,-11.641 0,-7.891 -6.438,-14.34 -14.329,-14.34 -2.82,0 -5.429,0.789 -7.621,2.149 l 15.903,23.832 z m 50.508,-0.192 c 6.75,0 12.261,-5.469 12.261,-12.23 0,-6.758 -5.511,-12.231 -12.261,-12.231 -6.758,0 -12.27,5.473 -12.27,12.231 0,6.761 5.512,12.23 12.27,12.23 z m 367.22,-0.508 c -10.23,0 -18.51,-8.242 -18.51,-18.441 0,-10.23 8.28,-18.52 18.51,-18.52 10.24,0 18.52,8.29 18.52,18.52 0,10.199 -8.28,18.441 -18.52,18.441 z m -307.299,-0.55 c 8.2,0 14.879,-6.641 14.879,-14.84 0,-8.211 -6.679,-14.852 -14.879,-14.852 -8.211,0 -14.812,6.641 -14.812,14.852 0,8.199 6.601,14.84 14.812,14.84 z m 244.719,0.589 c 8.21,0 14.89,-6.64 14.89,-14.851 0,-8.199 -6.68,-14.84 -14.89,-14.84 -8.199,0 -14.801,6.641 -14.801,14.84 0,8.211 6.602,14.851 14.801,14.851 z m -657.18,-1.57 0,-14.922 -67.66,-47.258 0,14.641 67.66,47.539 z m 473.321,0.238 c 6.75,0 12.219,-5.468 12.219,-12.226 0,-6.762 -5.469,-12.262 -12.219,-12.262 -6.762,0 -12.27,5.5 -12.27,12.262 0,6.758 5.508,12.226 12.27,12.226 z m 123.469,-0.507 c 6.8,0 12.269,-5.43 12.269,-12.231 0,-6.75 -5.469,-12.219 -12.269,-12.219 -6.75,0 -12.219,5.469 -12.219,12.219 0,6.801 5.469,12.231 12.219,12.231 z m -61.911,-1.52 c 8.2,0 14.879,-6.641 14.879,-14.851 0,-8.2 -6.679,-14.879 -14.879,-14.879 -8.199,0 -14.839,6.679 -14.839,14.879 0,8.21 6.64,14.851 14.839,14.851 z m 184.881,-2.93 c 6.76,0 12.27,-5.429 12.27,-12.191 0,-6.762 -5.51,-12.27 -12.27,-12.27 -6.76,0 -12.26,5.508 -12.26,12.27 0,6.762 5.5,12.191 12.26,12.191 z m -526.439,-12.82 c 31.519,0.359 65.621,-15.66 84.84,-42.223 29.14,-38.91 48.589,-88.558 57.418,-153.707 4.382,-32.269 19.421,-129.179 27.972,-152.07 l -11.761,2.258 c -1.559,-0.738 -16.68,60.941 -26.168,142.422 -3.512,30.199 -9.961,69.148 -27.461,104.73 -20,40.59 -53.981,83.59 -99.301,87.028 -26.442,1.992 -51.25,-14.571 -53.942,-37.887 -3.789,-18.442 7.032,-35.621 21.211,-41.371 13.911,-5.621 30.551,-1.442 32.422,17.539 0.309,3.129 0,6.25 -1.172,9.14 6.442,1.059 11.332,-1.832 13.942,-7.261 1.371,-0.199 0.078,-27.539 -21.442,-32.891 -25.937,-8.519 -55.898,17.192 -58.199,43.363 -1.801,22.028 15,49.289 36.129,56.68 8.051,2.77 16.68,4.141 25.512,4.25 z m -193.321,-8.512 0,-15.199 -67.66,-46.711 0,15.352 67.66,46.558 z m 194.758,-9.648 c 37.891,1.09 74.774,-41.133 90.352,-68.941 16.289,-28.989 29.18,-75.079 33.64,-118.442 7.571,-73.75 21.68,-134.058 24.68,-136.84 l -10.308,2.274 c -2.192,-1.453 -16.403,65.109 -25.082,139.258 -4.84,41.558 -20.27,82.769 -38.629,114.531 -16.95,29.328 -39.762,51.211 -66.801,54.41 -16.949,1.68 -34.371,-3.199 -37.77,-21.051 -1.84,-10.469 3.668,-20.75 16.09,-21.64 2.93,-0.2 5.75,-0.43 6.25,-0.551 6.57,-1.168 -3.75,-11.84 -10.539,-10.899 -24.301,3.399 -35.473,35.821 -16.332,53.09 11.172,10.07 22.891,14.488 34.449,14.801 z m 81.102,-10.82 425.15,-4.301 c 0,0 0.35,-7.61 -26.09,-6.36 -22.502,1.051 -37.029,-2.07 -51.951,-6.878 l -334.07,0.738 -13.039,16.801 z m -275.86,-4.922 0,-14.141 -67.66,-47.348 0,15.59 67.66,45.899 z m 197.61,-5.981 c 8.172,0.121 16.488,-1.988 22.781,-5.617 52.649,-30.512 72.77,-106.211 79.68,-153.871 9.5,-70.59 20.398,-136.172 23.437,-137.809 l -11.476,2.61 c -1.532,-0.031 -14.063,61.14 -21.922,129.73 -6.32,55.43 -25.27,111.098 -62.852,134.489 -24.136,16.449 -28.867,18.089 -40.039,8.519 -9.648,-8.277 -19.449,4.18 -11.359,14.301 5.539,5.23 13.59,7.531 21.75,7.648 z m -197.61,-19.136 0,-11.602 -67.66,-47.109 0,13.711 67.66,45 z m 309.489,-0.313 c 0.859,0.82 36.562,-59.809 47.851,-155.391 5.942,-50.308 22.969,-136.097 25.7,-136.796 l -12.379,1.328 c -12.661,50.59 -19.653,98.48 -26.411,141.64 -7.652,48.828 -13.82,92.231 -44.25,148.871 l 9.45,0.27 c 0,0.078 0,0.078 0.039,0.078 z m 8.082,-0.469 11.058,-0.16 c 18.911,-36.012 39.02,-91.949 45.981,-148 6.012,-48.398 12.07,-97.66 29.41,-148.949 l -11.871,3.238 c -14.891,41.641 -20.16,91.961 -28.168,144.071 -8.871,57.652 -22.731,107.808 -46.41,149.8 z m 68.25,-0.082 c 19.328,-50.117 31.91,-74.019 40.777,-135.66 6.832,-47.848 16.524,-107.699 38.594,-171.098 l -11.211,0.469 c -16.332,43.75 -28.832,102.391 -34.57,158.672 -7.77,76.488 -42.11,147.859 -42.422,147.43 l 8.832,0.187 z m -19.071,-0.187 c 1.059,1.519 36.918,-70.16 45.2,-148.992 5.55,-52.418 17.808,-104.289 34.648,-154.411 l -11.449,0.274 c -13.199,15.277 -23.117,87.699 -34.02,155.277 -11.129,68.981 -26.8,111.442 -44.218,147.731 l 9.808,0 c 0,0.039 0.031,0.082 0.031,0.121 z m -28.859,-0.082 10.149,-0.039 c 26.57,-58.129 37.621,-92.7 45.82,-148.871 10.359,-71.008 20.281,-135.11 31.289,-151.789 l -12.418,0.82 c -17.109,51.172 -24.84,102.34 -30.902,153.551 -6.598,55.429 -22.539,102.929 -43.938,146.328 z m 56.09,-0.469 12.027,-0.199 c 20.821,-42.141 38.133,-93.352 44.184,-151.949 3.359,-31.762 9.219,-80.512 33.09,-155.743 l -9.692,0.621 c -19.531,50.43 -31.289,109.809 -38.281,161.61 -7.07,52.219 -19.527,95.308 -41.328,145.66 z m 74.301,-0.352 c 11.398,-29.218 20.816,-58.238 26.949,-88.089 l -6.801,-13.321 c -10.699,39.422 -22.769,70.121 -34.719,101.211 l 14.571,0.199 z m -55.043,-0.039 14.691,-0.347 c 25.27,-58.641 38.238,-120.59 41.789,-141.41 0,0 3.481,-18.403 3.711,-24.411 -0.82,-51.25 8.012,-87.781 27.07,-142.851 l -8.71,0.621 c -22.141,64.019 -28.079,109.488 -33.75,152.93 -4.68,54.609 -22.461,110.859 -44.801,155.468 z m 33.941,-0.468 c 15.039,-37.582 26.531,-73.789 36.961,-110.039 -0.473,-8.243 -1.25,-17.262 -6.601,-23.903 -12.309,44.332 -22.661,90.422 -41.61,133.86 l 11.25,0.082 z m 27.781,-0.313 11.637,-0.199 23.203,-66.438 -9.101,-10.043 c -6.801,21.993 -13.789,46.172 -25.739,76.68 z m 67.93,-0.469 8.469,-19.961 -9.141,-7.777 c 0,0 -9.328,18.719 -11.789,27.5 l 12.461,0.238 z m 17.258,0 4.262,-11.519 -7.692,-5.86 -5.98,17.141 9.41,0.238 z m -66.641,-0.238 11.992,-0.07 c 4.809,-13.949 17.7,-48.129 17.7,-48.129 l -8.59,-9.063 c 0,0 -16.25,43.2 -21.102,57.262 z m 18.563,0 10.621,-0.109 c 3.199,-9.063 13.168,-34.184 13.168,-34.184 l -7.352,-6.988 -16.437,41.281 z m 55.578,-0.461 10.512,-0.512 -1.211,-2.578 -6.559,-3.281 -2.742,6.371 z M 562.621,650.391 c 44.059,-23.2 56.168,-92.731 60.93,-130.981 8.359,-66.68 17.699,-120.93 19.687,-122.422 l -9.758,1.563 c 0,0 -7.23,34.258 -12.23,66.879 -4.18,27.109 -7.379,49.84 -8.52,60.23 -0.699,6.488 -1.789,14.07 -2.378,16.801 -6.172,27.418 -8.122,33.668 -16.051,50.348 -7.621,16.019 -10.321,20.043 -22.973,34.3 -4.879,5.469 -9.609,9.493 -11.25,13.012 -2.379,5 2.543,10.27 2.543,10.27 z m -222.891,-3.59 0,-13.09 -67.66,-47.813 0,15 67.66,45.903 z m 0,-22.973 0,-15.117 -67.66,-44.652 0,13.402 67.66,46.367 z m 0,-25.738 0,-13.988 -67.66,-47.192 0,14.5 67.66,46.68 z m 113.04,-14.141 5.98,0 0.43,-9.847 -9.219,0.589 2.809,9.258 z m -113.04,-12.109 0,-14.961 -67.66,-44.688 0,13.938 67.66,45.711 z m 106.051,-5.711 14.34,-0.149 -0.16,-10.281 -18.402,0.629 4.222,9.801 z m -8.281,-16.481 23.52,-0.429 0,-9.77 -29.141,0.473 5.621,9.726 z m -97.77,-2.148 0,-15.699 -67.66,-45 0,15.777 67.66,44.922 z m 85.782,-16.328 34.41,-0.391 -0.192,-8.16 -41.101,0.27 6.883,8.281 z m -85.782,-9.102 0,-15.351 -67.66,-43.36 0,13.832 67.66,44.879 z m 71.442,-7.3 47.226,-0.668 -1.168,-7.891 -53.871,0.238 7.813,8.321 z m -71.442,-16.719 0,-14.77 -67.66,-44.062 0,14.179 67.66,44.653 z m 53.711,0 62.18,-1.449 13.09,-11.872 -96.762,-0.589 21.492,13.91 z m -18.832,-21.801 106.911,-1.328 7.46,-6.871 -114.718,-0.43 0.347,8.629 z m -34.879,-3.359 0,-15.661 -67.66,-44.378 0,14.339 67.66,45.7 z m 35,-13.789 118.469,-0.551 -8.59,-9.492 -110.039,-0.309 0.16,10.352 z m -35,-11.872 0,-14.339 -67.66,-45.942 0,16.492 67.66,43.789 z m 32.071,-7.46 102.379,-0.36 -12.032,-9.449 -70.738,-1.602 -19.609,11.411 z m -32.071,-17.739 0,-13.711 -67.66,-48.48 0,15.359 67.66,46.832 z m 61.989,-1.761 60.16,-0.27 1.09,-8.051 -51.68,0.121 -9.57,8.2 z m 16.64,-16.641 46.172,-0.469 2.188,-10.43 -41.098,0.551 -7.262,10.348 z m -78.629,-7.301 0,-12.699 -67.66,-47.258 0,14.098 67.66,45.859 z m 127.969,-10.43 0.539,-9.918 -27.539,-1.058 -7.73,10.387 34.73,0.589 z m -0.238,-17.578 -0.191,-10.468 -19.219,-0.313 -4.301,10.082 23.711,0.699 z m -17.031,-18.59 15.121,-0.121 -1.289,-8.05 -11.723,-0.149 -2.109,8.32 z m 4.531,-19.3 7.34,0 -1.211,-6.289 -3.789,0 -2.34,6.289 z m 149.73,-106.211 -3.562,-4.528 105.82,0 1.172,4.528 -103.43,0 z m 136.399,0 -1.828,-6.098 47.726,0 1.332,6.098 -47.23,0 z m 78.012,-1.168 -1.481,-5.781 122.109,0 -2.031,5.781 -118.597,0 z m 146.058,0 2.461,-7.031 41.089,0 -2.69,7.031 -40.86,0 z m 141.72,0 -72.11,-0.039 2.61,-7.852 74.57,0" /></g></g></svg>