<?xml version="1.0" encoding="UTF-8" standalone="no"?>
<!-- Created with Inkscape (http://www.inkscape.org/) -->

<svg
   xmlns:dc="http://purl.org/dc/elements/1.1/"
   xmlns:cc="http://creativecommons.org/ns#"
   xmlns:rdf="http://www.w3.org/1999/02/22-rdf-syntax-ns#"
   xmlns:svg="http://www.w3.org/2000/svg"
   xmlns="http://www.w3.org/2000/svg"
   xmlns:inkscape="http://www.inkscape.org/namespaces/inkscape"
   version="1.1"
   width="225"
   height="315"
   id="svg2"
   xml:space="preserve"><metadata
     id="metadata8"><rdf:RDF><cc:Work
         rdf:about=""><dc:format>image/svg+xml</dc:format><dc:type
           rdf:resource="http://purl.org/dc/dcmitype/StillImage" /></cc:Work></rdf:RDF></metadata><defs
     id="defs6" /><g
     transform="matrix(1.25,0,0,-1.25,0,315)"
     id="g10"><g
       transform="scale(0.1,0.1)"
       id="g12"><path
         d="m 89.0586,2508.37 1615.7414,0 c 47.11,0 85.04,-37.93 85.04,-85.04 l 0,-2324.3691 c 0,-47.1523 -37.93,-85.039 -85.04,-85.039 l -1615.7414,0 c -47.1094,0 -85.03907,37.8867 -85.03907,85.039 l 0,2324.3691 c 0,47.11 37.92967,85.04 85.03907,85.04"
         inkscape:connector-curvature="0"
         id="path14"
         style="fill:#ffffff;fill-opacity:1;fill-rule:nonzero;stroke:none" /><path
         d="m 89.0586,2508.37 1615.7414,0 c 47.11,0 85.04,-37.93 85.04,-85.04 l 0,-2324.373 c 0,-47.1484 -37.93,-85.039 -85.04,-85.039 l -1615.7414,0 c -47.1094,0 -85.03907,37.8906 -85.03907,85.039 l 0,2324.373 c 0,47.11 37.92967,85.04 85.03907,85.04 z"
         inkscape:connector-curvature="0"
         id="path16"
         style="fill:none;stroke:#000000;stroke-width:7.97383022;stroke-linecap:butt;stroke-linejoin:miter;stroke-miterlimit:4;stroke-opacity:1;stroke-dasharray:none" /><path
         d="m 235.898,2327.82 -0.308,-2127.07 1317.07,-2.852 0.78,2128.402 -1317.542,1.52 z m 418.321,-12.42 596.761,-2.19 c 0,0 -68.4,-88.47 -82.5,-128.71 -11.02,-14.1 -15.98,-11.56 -34.1,-7.89 -48.52,12.7 -130.24,12.46 -170.829,13.21 -76.672,3.39 -145.5,-20.36 -222.262,-24.22 -26.519,44.33 -64.961,100 -87.07,149.8 z m -401.84,-3.86 383.793,-1.14 89.957,-164.22 c 3.281,-4.57 0.16,-13.98 -1.789,-19.29 -11.102,-31.25 -20.899,-49.38 -43.36,-86.64 -21.289,-35.32 -28.91,-67.62 -21.371,-89.34 1.129,-2.7 2.11,-6.72 1.719,-10.16 -1.25,-10.82 -10.348,-23.36 -22.738,-31.95 -8.391,-1.37 -25.891,-2.42 -36.012,-12.42 -8.668,-8.59 -15.777,-21.17 -14.687,-44.1 0.507,-8.21 1.558,-13.44 1.558,-13.44 -114.41,-47.58 -196.437,-103.36 -193.711,-105.43 -1.09,0.51 -100.578,46.29 -142.027,57.66 l -1.332,520.47 z m 1019.891,-2.93 263.08,-0.24 1.56,-750.7 -100.97,65.43 c 8.28,5.78 13.4,9.18 22.11,15.11 1.52,0.47 4.45,0.51 6.36,0.94 17.58,3.91 29.85,17.07 23.75,30.71 -4.14,9.25 1.53,8.67 6.61,16.21 5.74,8.51 4.53,16.05 0.89,23.2 -1.79,3.55 -0.82,4.96 2.23,11.52 8.05,10 2.23,26.88 -8.16,32.35 -1.1,1.6 1.13,4.1 1.64,6.4 2.93,13.56 -2.46,25.43 -14.18,28.44 -6.02,1.56 -8.01,2.62 -5.9,8.01 3.79,9.53 -1.17,13.08 -9.02,16.17 -13.21,5.23 -9.46,6.05 6.83,13.4 33.36,15 41.21,59.61 18.28,100.08 -2.93,5.11 -10.7,17.22 -16.01,25.31 -6.17,9.45 -12.15,17.58 -12.15,17.58 l 44.14,61.6 c 0,0 -30.74,36.41 -41.68,56.56 2.58,9.92 33.36,41.17 37.34,71.49 6.29,47.5 -29.8,77.93 -63.94,74.37 -23.67,-2.5 -52.81,-17.66 -50.63,-61.64 0.67,-13.67 6.02,-27.77 15.67,-44.88 6.76,-12.78 15.54,-26.29 23.9,-39.3 l -44.41,-60.74 44.88,-56.92 c 0,0 -0.58,-0.89 -1.56,-2.46 -4.45,-7.11 -17.46,-28 -23.09,-40.27 -16.56,-32.77 -22.42,-68.71 11.61,-94.06 5.93,-3.64 10.54,-6.76 13.04,-9.26 3.36,-3.32 1.29,-5.82 -4.1,-7.11 -6.29,-1.33 -12.73,-1.21 -19.41,-3.87 -21.29,-7.77 -42.7,-20.31 -57.89,-32.61 -8.52,-6.92 -22.27,-28.75 -30.67,-46.49 -9.1,-19.26 -11.64,-23.55 -11.64,-23.55 l -156.21,100 c 0,0 -3.98,3.12 -5.08,4.33 -2.89,3.28 -1.83,5.16 0.16,8.79 1.72,3.05 1.8,12.03 1.01,18.87 -0.19,13.12 -0.07,13.16 7.46,25.19 2.66,4.26 3.76,8.48 2.23,15.04 -2.46,7.35 -2.69,5 1.99,10.04 1.84,2.27 4.03,3.36 4.38,5.82 0.47,3.24 0.19,8.95 0.23,19.53 0.12,21.29 -0.15,19.54 11.8,28.87 14.8,11.64 20.35,17.11 22.7,22.34 3.39,7.54 0,13.21 -8.33,28.25 -3.78,6.87 -9.68,16.17 -12.53,21.33 -5.36,9.33 -13.05,21.56 -16.72,33.32 -5.55,8.98 -4.73,24.57 0.43,33.75 6.44,11.48 8.24,18.43 8,41.68 -0.19,21.56 -1.75,19.57 3.72,26.75 41.05,54.34 106.25,155.32 106.25,155.32 z m 167.18,-79.46 c 0.86,0 1.76,-0.04 2.66,-0.08 12.93,-0.58 25.74,-4.76 37.69,-16.28 16.18,-16.25 15.08,-39.69 9.77,-64.07 -2.46,-7.07 -4.3,-14.26 -9.26,-21.68 -2.81,-4.1 -5.08,-7.93 -5.08,-8.43 0,-0.51 -3.98,-6.96 -8.86,-14.3 -4.77,-7.23 -10.24,-17.27 -10.24,-17.27 0,0 7.62,-13.71 21.14,-30.82 10.23,-15.19 16.83,-28.4 17.61,-27.61 0,0 -2.58,-6.57 -6.13,-11.25 -10.74,-14.11 -30.51,-43.52 -31.29,-46.61 -0.19,-0.74 -2.23,-1.48 -2.19,-2.22 0.12,-2.74 4.07,-5.94 9.96,-14.07 35.67,-48.98 40.71,-90.35 13.91,-114.64 -13.32,-12.07 -26.48,-15.86 -40.59,-14.34 -25.85,2.77 -49.72,24.84 -46.95,57.03 1.25,14.81 0.51,19.18 9.18,36.37 3.95,9.69 12.85,26.29 18.75,34.65 5.2,5.97 10.7,14.53 10.7,14.53 0,0 -12.69,19.57 -36.05,47.03 -4.18,5.04 -6.8,11.84 -6.8,11.84 l 39.96,59.21 c 0,0 -4.61,11.49 -12.42,23.13 -15.97,23.83 -26.29,49.18 -26.21,63.44 0.24,35.58 23.52,56.4 50.74,56.44 z m 99.57,-846.13 c -23.63,-12.58 -46.6,-55.43 -1.68,-25.55 l 1.14,-24.65 c -23.36,-33.16 -69.07,-8.86 -57.43,25.47 -31.56,-4.06 -36.48,27.93 -34.88,43.17 -41.48,9.06 -27.15,53 -27.15,53 -23.98,20.04 -28.16,41.02 -8.75,63.13 -19.65,12.23 -25.19,20.04 -46.75,28.91 16.56,-147.11 95.93,-223.56 179.53,-291.64 0,0 1.83,-47.39 -7.7,-38.68 -119.33,89.18 -196.05,191.14 -209.26,356.06 -1.01,-2.58 -56.6,43.05 -65.78,40.62 -19.26,-267.07 193.36,-442.61 281.8,-477.22 0,0 1.25,-37.23 -0.27,-37.35 -134.03,58.44 -283.01,230 -311.72,434.14 l -79.07,-122.46 -29.6,12.66 127.85,201.44 -86.49,54.18 -140.74,-223 c 0,0 -3.75,-18.6 6.45,-18.32 197.57,-21.14 491.44,-258.52 392.96,-644.891 -8.51,3.359 -22.1,10 -22.81,9.691 15.47,33.321 58.56,248.98 -71.05,423.24 -59.38,79.81 -151.49,164.77 -299.26,189.85 12.23,-25.2 6.87,-82.35 6.87,-82.35 l 34.46,-6.95 c -11.64,12.27 -21.33,22.38 -25.94,35.7 -6.45,20.74 3.01,33.05 25.98,20.71 9.1,-5.12 11.4,-4.93 20.31,1.68 18.48,13.75 39.61,-0.43 34.73,-23.29 -0.75,-3.39 0.15,-5.5 8.94,-6.28 19.92,-2 39.96,-11.84 52.93,-27.31 6.37,-8.16 7.81,-6.95 13.48,-2.03 13.86,12.03 36.87,-4.69 32.77,-23.32 -2.34,-10.7 -1.05,-13.24 3.87,-15.31 27.15,-11.41 33.79,-18.6 42.26,-42.39 3.09,-8.67 5.63,-11.56 7.23,-11.05 1.13,0.35 5.59,1.83 9.49,3.32 20.28,7.69 32.15,-16.84 17.78,-36.02 -2.93,-3.94 -0.75,-7.73 4.45,-10.58 16.87,-9.18 28.32,-31.17 30.31,-54.22 0.78,-8.75 1.68,-8.75 10.47,-8.4 22.42,0.94 33.13,-29.34 14.84,-40.51 -6.32,-3.86 -5.15,-8.86 -0.23,-14.72 13.09,-15.51 16.13,-26.72 15,-44.42 -1.52,-23.55 -0.04,-23.08 7.46,-25.94 21.8,-8.281 17.73,-43.12 -3.63,-42.999 15.39,-35.86 -4.89,-79.61 -4.22,-80.43 41.09,-23.09 3.98,-47.66 -7.93,-43.32 0,0 -6.09,-16.141 0.82,-24.422 -36.06,-47.688 -83.2,-55.578 -135.47,-79.258 l -1.64,167.82 c 21.76,-17.5 43.28,-33.793 64.8,-50.082 0,0 5.47,1.641 0.47,6.25 -9.57,8.832 -33.63,24.41 -40.39,30.621 -14.53,11.02 -67.81,61.961 -77.3,74.032 -4.22,8.039 -10.63,3.398 -10.47,2.929 6.37,-11.019 11.13,-23.871 19.37,-35.281 17.82,-24.719 35.12,-52.18 33.32,-79.328 -0.03,-15.203 -6.09,-30.902 -9.45,-38.524 -2.5,-10.429 -19.14,1.762 -14.96,10.551 7.38,24.063 13.52,43.789 -12.89,82.461 -12.89,18.871 -29.61,53.09 -29.61,53.09 l -10.66,-2.578 0.39,-218.953 c -8.95,-0.391 -31.68,-6.25 -26.99,-6.399 70.78,14.141 92.46,-87.191 24.1,-90.468 -12.97,-0.473 -26.41,-22.813 -27.78,-34.922 0.59,-29.418 4.89,-60.43 -16.64,-88.719 -5.66,-7.422 -8.24,-19.211 -13.47,-28.473 -26.29,-46.527 -38.01,-73.199 -35.36,-85.199 0.71,-3.078 1.33,-7.148 1.33,-7.148 -83.669,-20.93 -146.439,-26.282 -230.74,-28.243 -0.859,1.293 28.282,83.243 49.532,125.243 15.738,31.05 23.828,52.3 19.418,58.711 -66.879,-3.364 -54.032,94.648 9.96,91.207 0,0 16.008,56.48 33.981,81.953 16.988,9.488 51.211,-3.403 70.429,9.297 45.2,13.871 74.77,-39.61 74.77,-39.61 l 12.18,50.86 -399.719,1.91 c 0,0 -41.211,-15.43 -62.269,-6.719 -13.442,5.551 -28.903,21.328 -28.903,21.328 0,0 152.731,245.312 175.192,280.742 1.8,2.86 -3.981,9.03 -3.981,9.11 -0.859,8.04 -177.859,-267.86 -177.109,-280 0,0 -4.731,-6.68 -13.25,-0.789 C 490.98,836.461 251.762,984.93 251.762,984.93 l -0.313,110.04 c 83.199,52.42 75.66,73.83 -1.328,16.68 -1.062,-0.9 -1.641,41.33 -1.641,41.33 58.711,52.42 9.879,36.02 -1.718,17.85 0.308,13.09 -2.742,30.82 5.617,38.63 25.672,23.64 55.902,1.96 57.391,-33 33.468,-6.57 29.332,-35.98 37.929,-47.78 34.141,-19.25 16.172,-48.47 24.602,-58.39 35.937,-22.66 10.898,-59.11 3.289,-58.29 4.531,-3.04 49.18,-32.961 53,-31.871 -3.86,156.951 -176.68,306.761 -181.481,298.911 l 3.672,33.82 c 0,0 215.981,-138.12 214.059,-359.801 l 68.871,-40.899 c -6.133,227.42 -107.66,380.9 -281.332,478.55 l -3.668,42.86 c 145.777,-67.86 280.937,-205.16 312.418,-430.24 l 80.711,125.28 28.43,-13.79 -129.571,-207.89 80.903,-53.25 c 62.777,82.66 115.117,183.99 147.027,232.19 -0.82,4.42 -2.578,10.74 -2.578,10.74 -308.551,50.9 -482.34,340 -399.492,642.11 l 21.41,-9.41 c -64.34,-223.75 40.582,-545.78 376.172,-611.64 -0.661,23.79 -4.84,82.3 -4.84,82.3 0,0 -44.102,13.24 -37.621,7.93 10.82,-9.22 35.082,-49.02 24.8,-63.16 -7.339,-1.06 -19.679,3.08 -33.199,12.97 -5.082,3.75 -5.23,2.93 -10.941,-3.17 -15.86,-16.95 -38.942,-7.22 -39.141,16.06 -0.078,9.8 -0.469,11.87 -14.371,11.99 -21.168,0.16 -30.668,3.79 -43.316,20.74 -8.992,12.03 -8.172,12.07 -18.75,8.44 -20.282,-9.65 -36.453,10.62 -30.082,27.3 3.121,7.86 -0.2,10.36 -9.41,11.88 -17.969,2.97 -38.29,25.47 -42,43.87 -0.782,3.79 -2.649,4.72 -13.239,4.37 -20.742,-0.74 -32.23,11.84 -24.019,29.49 4.41,9.53 5.66,13.36 -2.66,19.81 -10.153,7.93 -15.903,13.44 -20.391,23.01 -3.59,7.61 -4.141,12.5 -6.602,28.67 -0.859,5.66 -2.699,6.56 -10.078,7.54 -21.441,2.77 -29.922,24.76 -14.179,38.98 4.847,4.38 4.808,4.26 -2.5,13.71 -14.024,18.17 -19.301,41.92 -13.161,57.7 1.637,4.26 0.039,9.49 -4.961,10.74 -19.57,4.88 -19.929,26.6 -1.179,38.79 5.429,3.55 5.711,5.9 1.609,13.01 -7.23,12.54 -6.879,45.27 0.11,60.97 4.5,10.12 4.46,10.35 -2.5,14.81 -14.879,9.53 -10.622,35.66 6.96,39.96 8.551,2.07 9.098,3.2 6.79,13.55 -4.098,18.52 -4.801,23.32 6.101,30.63 30,19.45 106.828,56.72 106.828,56.72 l 25.391,12.07 c 0,0 2.539,-155.08 0.898,-173.4 -0.968,-7.93 6.133,-12.7 14.383,-20.9 17.07,-16.8 26.399,-37.07 49.18,-51.13 0,0 14.179,7.89 22.969,13.51 l 0.859,221.02 c 1.793,5 3.043,5.55 8.859,6.25 4.852,0.94 17.032,2.3 21.102,3.48 9.801,2.89 11.32,6.83 -1.531,5.5 -3.86,-0.39 -9.688,-2.03 -16.207,-3.36 -40.231,-12.07 -69.961,50.59 -39.332,82.15 5.851,5.28 27.851,14.46 37.808,15.08 2.891,-0.04 11.481,10.55 17.344,20.31 5.898,9.81 8.316,17.07 4.957,26.92 -7.109,20.66 -0.309,52.42 20.902,87.07 22.969,32.73 40.739,69.22 50.039,108.08 81.41,9.85 150.469,30.08 224.059,25.59 2.891,-24.84 -80.43,-171.52 -63.039,-180.12 65.582,-15.7 43.199,-93.44 -6.641,-90.86 -7.469,0.04 -8.211,-0.62 -12.969,-17.15 -9.031,-24.1 -14.89,-42.5 -24.609,-64.92 0,-5.78 -4.07,-5.19 -31.332,-5 -24.918,3.67 -42.109,-9.92 -60.238,-10.7 -23.121,-1.06 -42.852,10.04 -50.852,28.4 -3.597,8.2 -6.918,2.81 -7,-16.6 -0.109,-15.47 -0.699,-24.5 -0.699,-24.5 0,0 95.512,-0.31 204.379,-0.46 220.071,-0.4 198.161,-3.75 215.621,4.96 10.2,5.07 16.91,10.62 34.53,-0.9 28.24,-18.48 27.31,-15.94 19.1,-27.81 -55.31,-82.04 -177.579,-279.42 -177.579,-279.42 l 8.559,-8.36 c 0,0 123.48,195.08 179.73,286.53 2.57,2.96 14.33,-0.79 14.33,-0.79 l 336.84,-219.1 c -2.85,-33.08 0.47,-107.3 0.47,-107.3 -94.69,-50.28 -65.75,-75.9 -0.59,-15 l 1.13,-43.4 z M 967.422,2171.3 c 0,0 97.698,-0.78 146.678,-8.63 42.93,-6.88 40.7,-5.63 40.55,-36.8 -0.12,-22.11 -0.16,-21.6 -5.82,-32.23 -10.47,-19.57 -8.71,-38.82 7.85,-65.82 16.05,-26.21 27.81,-45.58 27.81,-49.29 0,-5.78 -0.97,-12.85 -14.88,-22.58 -16.45,-11.49 -19.57,-19.49 -19.34,-31.13 0.2,-9.46 -1.6,-12.54 -7.22,-12.5 -2.27,0.04 -10.28,-3.71 -18.83,-7.74 -15.08,-7.11 -15.12,-7.11 -29.18,-6.99 -7.07,0.04 -10.47,2.7 -12.46,1.95 -3.79,-1.79 -7.23,-14.45 -7.11,-18.16 0.39,-1.33 2.42,-0.51 6.56,0.9 23.36,8.01 58.09,4.41 59.02,0.9 4.73,-4.26 4.73,-10.86 -2.38,-17.7 -4.61,-7.23 -6.68,-10.98 -4.76,-22.15 2.61,-15.23 0.66,-21.29 -7.11,-26.52 -23.75,-16.06 -55.43,-18.09 -106.1,-8.36 -53.399,10.27 -89.919,30.62 -120.309,67.11 -13.551,16.29 -16.911,21.99 -10.192,23.12 8.281,1.25 17.422,2.97 25.93,6.64 37.543,16.14 36.883,84.89 -13.707,92.04 -20.621,0.74 42.617,98 65,173.94 z m 48.198,-47.34 c -18.159,-10.16 -27.651,-22.54 -27.651,-29.3 -0.039,-2.73 0.582,-2.27 9.261,3.44 25.15,16.56 91.44,40.47 115.07,26.64 17.08,-10.24 23.68,-6.88 13.83,6.87 -23.2,32.35 -85.7,5.86 -110.51,-7.65 z m 64.81,-10.82 c -2.66,-0.04 -5.47,-0.35 -8.24,-0.9 -17.5,-3.91 -36.76,-18.32 -52.7,-31.02 -7.89,-6.29 -18.98,-18.67 -20.74,-21.91 -3.949,-7.35 4.77,-15.43 16.6,-8.95 6.88,3.75 7.46,2.89 14.1,2 15.28,-4.61 32.7,-11.76 59.61,-9.5 2.54,-0.54 2.35,-1.17 1.49,-3.51 -1.6,-4.3 -11.17,-12.54 -23.6,-21.76 -6.44,-4.73 -12.07,-8.63 -12.5,-9.34 -1.99,-3.16 6.6,-3.43 16.02,1.92 13.32,7.58 28.71,24.29 38.08,37.73 0.9,1.29 2.15,2.35 2.54,3.75 0.94,3.09 -4.68,1.8 -7.69,2.66 -1.29,0.35 -1.02,3.59 -1.37,5.12 -0.9,3.94 0.67,10.46 1.37,16.05 0.58,4.57 5.43,8.16 8.63,11.48 14.06,14.65 12.97,21.25 -5.94,10 -3.16,-1.87 -5.7,-3 -8.79,-3.28 -27.92,-0.86 -44.06,0.2 -67.34,-19.41 -10.35,-8.32 -16.56,-9.14 -7.34,-0.27 14.02,11.4 31.64,27.57 51.13,31.87 11.76,2.93 22.93,-6.09 28.09,-3.79 0.04,6.45 -9.77,11.13 -21.41,11.06 z m -4.02,-40.43 c 3.16,-2.11 6.32,-13.05 6.01,-16.72 -0.35,-4.3 -7.69,-2.5 -8.71,-0.47 l -3.98,12.11 c -1.76,4.1 3.55,6.41 6.68,5.08 z m -14.26,-2.5 c 3.44,-3.36 4.22,-10.67 6.17,-16.68 -1.25,-4.38 -28.75,1.52 -32.19,6.36 4.14,5.36 18.28,11.76 26.02,10.32 z m 48.2,-78.32 c -2.07,0.15 -4.8,-0.86 -7.26,-3.4 -12.39,-12.66 -8.4,-34.26 6.48,-41.21 7.27,-3.44 18.24,-0.94 34.41,4.06 7.7,2.34 13.25,3.44 14.69,3.44 6.33,-0.04 9.77,9.76 5.31,14.22 -5.11,5.19 -17.22,4.45 -30.31,-5.67 -6.6,-5.12 -11.33,-7.58 -16.64,-7.5 -13.08,0.16 -19.41,13.6 -6.09,27.74 4.45,4.68 2.85,8.08 -0.59,8.32 z m -91.56,-92.85 c 15.43,-12.43 44.69,-5.9 64.33,7.1 17.58,11.65 24.89,15.08 38.99,12.62 17.27,-2.97 16.64,3.83 9.14,12.38 -8.48,9.69 -29.45,6.68 -46.99,-4.92 -38.87,-25.78 -52.93,-30.11 -64.22,-16.17 -12.11,15 2.3,34.22 16.56,23.75 11.72,-7.97 11.56,-1.99 6.72,3.48 -28.2,23.75 -48.55,-18.83 -24.53,-38.24 z m -136.681,-12.23 c 19.653,-24.88 38.442,-45.43 66.641,-60.59 l 0.309,-4.68 -91.207,0.19 c 6.367,11.13 24.449,64.34 24.257,65.08 z M 573.238,1822 c -1.949,-37.5 4.774,-59.53 26.762,-85.78 23.32,-27.85 21.602,-71.29 6.559,-98.12 -6.637,-11.88 -20.149,2.73 -13.789,10.31 9.07,11.41 9.609,39.22 5.351,56.6 -9.641,28.75 -31.441,42.81 -40.269,73.2 -2.973,12.97 -2.032,36.25 -2.032,36.25 l 17.418,7.54 z m 28.563,-3.16 c 1.597,0.23 4.14,-1.41 7.89,-4.69 12.887,-11.17 10.7,-43.12 -4.07,-63.63 -4.531,-6.21 -8.281,-4.45 -12.609,1.33 -5.821,5.78 -3.793,6.33 1.09,16.48 5.16,10.55 6.796,22.42 5.738,36.33 -0.738,9.38 -0.391,13.79 1.961,14.18 z m 836.829,-10.98 c 11.37,0.2 25.63,-2.22 26.92,-6.36 1.25,-5.04 -1.49,-9.07 -7.82,-11.76 -16.68,-7.03 -38.71,2.81 -33.16,14.84 1.41,2.15 7.23,3.21 14.06,3.28 z m -28.86,-2.73 c 3.28,0.08 5.82,-0.74 7.81,-1.64 5.47,-2.81 -3.13,-22.03 24.06,-21.68 6.48,-0.94 11.29,0.55 10.39,-2.38 -1.33,-4.42 -13.01,-11.1 -25.66,-12.93 -37.85,-5.63 -36.21,-3.71 -34.49,-30.51 1.13,-17.46 0,-23.36 -2.39,-33.95 -4.1,-18.36 -5.74,-36.13 -2.97,-30.27 3.68,7.81 13.13,32.46 13.05,46.48 -0.08,20.67 7.31,24.77 10.27,9.77 1.25,-9.92 -3.16,-15.51 3.48,-25.63 3.79,-5.66 5.51,-5.58 2.97,-14.37 -2.23,-7.77 -0.67,-10.08 2.03,-14.02 2.73,-3.99 5.51,-4.89 3.16,-10.43 -5,-12 2.86,-23.36 14.22,-24.3 5.24,-0.47 6.68,-2.73 5.12,-4.77 -2.77,-3.43 -8.32,-5.07 -12.89,-6.09 l -120.31,76.88 c 0,0 8.9,17.92 11.56,22.69 17.3,37.89 31.02,55.16 81.52,75 3.52,1.48 6.53,2.11 9.07,2.15 z m 63.9,-24.88 c 3.32,0.11 5.78,-1.61 8.6,-5.2 7.38,-9.49 0.93,-21.37 -17.23,-31.56 -15.51,-8.83 -20.04,-9.88 -23.4,3.98 -0.78,2.5 -2.85,5.59 -4.18,6.8 -3.59,3.28 -2.77,6.02 1.8,8.44 2.19,1.17 9.18,4.02 14.76,7.73 9.69,6.41 15.39,9.65 19.65,9.81 z m -51.21,-27.54 c 3.83,-0.04 7.74,-0.98 10.63,-2.85 4.8,-3.13 4.84,-10.98 0,-14.15 -9.69,-3.94 -24.93,1.37 -23.64,10.24 0.67,4.49 6.68,6.87 13.01,6.76 z m 61.92,-9.69 c 3.39,0.08 5.97,-1.52 8.12,-4.84 5.66,-8.75 -0.98,-17.5 -20.08,-26.88 -12.54,-6.13 -28.59,-8.79 -27.54,-5.19 0.86,2.93 -3.63,17.26 -5.62,19.57 -0.78,2.42 0.23,0.23 16.09,5.23 5.74,1.84 12.66,4.8 15.86,6.8 5.47,3.43 9.73,5.19 13.17,5.31 z m -902.501,-22.7 c -8.828,-21.21 -10.238,-30.58 -6.02,-52.89 3.481,-18.59 7.539,-27.89 26.602,-55.31 14.488,-20.9 19.141,-29.02 15.629,-35.62 -2.469,-3.56 -8.012,-6.88 -11.449,-3.44 -7.071,9.26 -11.332,20.51 -18.243,30.82 -26.636,39.06 -28.476,49.02 -31.878,79.84 -1.559,14.1 6.57,44.1 13.48,48.6 7.73,3.04 14.262,-7.11 11.879,-12 z m 615.311,9.77 c -0.63,-0.08 -1.33,-0.43 -1.96,-1.09 -3.63,-3.64 -13.98,-20.47 -13.63,-23.05 0.78,-5.59 5.35,-1.91 17.38,15.7 2.9,4.22 0.9,8.79 -1.79,8.44 z m 229.18,-9.57 c 10.66,-0.31 14.45,-9.88 9.68,-14.88 -6.95,-7.27 -19.49,-1.76 -19.49,8.43 0,4.3 2.03,6.53 9.81,6.45 z m 59.14,-13.63 c 6.09,-0.24 6.91,-6.33 3.67,-15.12 -4.06,-8.2 -8.95,-9.57 -23.59,-14.14 -17.54,-5.47 -20.39,-4.65 -23.05,11.48 -1.02,6.18 -0.51,4.81 15.66,9.1 6.92,1.84 15.04,5.12 19.34,6.92 3.28,1.33 5.94,1.87 7.97,1.76 z m -1036.061,-7.23 4.301,-32.58 6.988,24.42 -11.289,8.16 z m 979.071,-10.94 c 8.63,-0.04 13.24,-7.77 8.86,-12.42 -2.46,-2.58 -8.67,-2.62 -11.68,-1.13 -6.83,5 -5.58,13.55 2.82,13.55 z m -263.72,-17.03 16.84,-10.35 -136.64,-215.78 -16.48,0.35 -1.57,3.44 137.85,222.34 z m 310.08,-2.07 c 10.12,0.12 10.98,-9.37 -1.25,-18.12 -5,-3.21 -10.62,-3.99 -14.96,-4.18 -6.09,-0.28 -10.19,1.32 -10.66,5.5 -2.62,10.32 -4.14,12.86 5.23,12.27 1.88,-0.12 6.99,0.16 11.1,1.91 4.18,1.76 7.73,2.58 10.54,2.62 z m -41.76,-9.45 c 6.96,0 11.41,-7.58 6.72,-11.29 -5.78,-4.57 -12.96,-1.76 -12.96,5.16 0.03,4.41 1.24,6.17 6.24,6.13 z M 449.84,1644.93 412.66,1612 c 13.629,-16.13 25.07,-32.22 36.871,-49.14 l 0.309,82.07 z m 751.76,-2.11 c 16.13,0.63 21.41,-7.14 13.75,-12.42 -10.39,-6.95 -19.3,-6.6 -31.09,-5 -15.59,2.89 -3.17,15.39 13.94,17.19 1.18,0.12 2.31,0.2 3.4,0.23 z m -17.15,-23.47 c 3.28,0.08 8.09,-0.82 14.3,-2.93 10.55,-3.6 23.67,-14.65 23.09,-20.78 -1.02,-9.93 -19.73,-4.81 -34.77,9.41 -9.41,8.95 -9.77,14.1 -2.62,14.3 z m -14.25,-0.16 c 9.14,-0.86 18.28,-31.83 11.17,-41.37 -6.96,-9.33 -19.22,10.79 -16.99,26.53 0.89,6.25 2.46,14.49 4.92,14.8 0.27,0.04 0.58,0.08 0.9,0.04 z m -597.54,-6.8 c 5.149,-1.25 11.719,-8.35 10.309,-13.78 -1.059,-2.19 -3.199,-1.53 -5.547,-0.98 -4.262,1.8 -7.5,7.69 -6.723,12.62 0.43,1.29 0.981,2.07 1.961,2.14 z m 693.36,-5.35 26.87,-18.2 -26.87,-1.05 0,19.25 z m -111.37,-36.87 c 20.62,-0.12 24.96,-6.8 9.57,-14.92 -6.37,-3.36 -21.95,-3.99 -30.04,-1.21 -12.77,4.45 2.58,16.21 20.47,16.13 z m 166.8,-13.91 1.4,-18.67 -51.76,-4.53 -2.65,19.45 53.01,3.75 z m -178.91,-9.3 c 3.55,0.24 9.3,-1.44 16.76,-5.27 14.1,-7.26 22.11,-19.41 14.84,-23.24 -6.6,-3.48 -18.32,0.66 -26.6,9.34 -10.98,11.52 -11.88,18.75 -5,19.17 z m -17.62,-0.03 c 9.42,-0.55 17.54,-26.33 11.33,-39.07 -3.36,-6.99 -7.66,-5.47 -13.83,6.02 -5.97,11.09 -6.29,30.66 0.59,32.81 0.62,0.2 1.29,0.27 1.91,0.24 z m -673.201,-7.27 -22.617,-45.51 40.976,-35.78 -18.359,81.29 z m 876.131,-35.08 3.63,-17.97 -49.68,-12.26 -4.85,19.61 50.9,10.62 z m -216.99,-3.51 c 6.05,-0.08 11.76,-1.53 15.04,-4.42 4.53,-3.98 3.55,-5.78 -7.15,-10.11 -19.06,-7.78 -42.54,-3.09 -28.95,8.51 4.85,4.1 13.29,6.17 21.06,6.02 z m 322.77,1.05 c -18.98,-12.69 -0.7,-19.69 12.85,-10.08 -1.01,3.28 -8.86,10.04 -12.85,10.08 z m -336.68,-25.51 c 13.56,-0.43 40.2,-19.06 34.5,-27.97 -3.09,-4.88 -20.9,-0.7 -27.97,6.1 -9.3,8.9 -14.22,20.82 -9.07,21.72 0.79,0.15 1.64,0.19 2.54,0.15 z m -17.15,-0.86 c 7,1.33 18.21,-31.32 9.73,-39.68 -3.12,-3.13 -4.02,-2.93 -9.33,1.75 -10.59,9.38 -8.79,26.72 -2.43,36.37 0.63,0.94 1.33,1.45 2.03,1.56 z m 417.08,-17.18 c -1.88,3.43 -4.18,5.04 -6.72,6.95 -65.94,-25.35 -49.03,-49.49 6.72,-6.95 z m -156.33,-2.23 6.56,-18.24 -50.04,-19.85 -7.34,19.96 50.82,18.13 z m -855.859,-34.53 -16.921,-44.57 c 18.402,-0.12 35,-8.83 51.839,-16.56 l -34.918,61.13 z m 872.499,-13.09 10.58,-17.93 -47.07,-25.47 -9.37,18.91 45.86,24.49 z m -1093.362,-34.92 19.262,-13.59 -28.32,-35.2 -2.579,4.96 0.309,29.22 11.328,14.61 z m 1119.062,-11.05 11.37,-16.45 -45.31,-31.48 -11.1,17.89 45.04,30.04 z m -1070.468,-21.14 20.777,-16.01 -32.89,-39.73 -19.918,15.24 32.031,40.5 z m 228.988,-9.8 -0.98,-47.77 48.98,-1.88 -48,49.65 z m 566.13,-21.52 55.66,-32.08 -8.36,48.95 c -14.57,-2.85 -33.2,-12.34 -47.3,-16.87 z m 305.78,10 12.97,-16.14 -41.84,-35.19 -13.43,16.83 42.3,34.5 z m -1058.441,-14.15 19.422,-18.04 -34.18,-36.92 -17.973,16.92 32.731,38.04 z m 1094.181,-26.21 15.08,-15.31 -38.16,-39.65 -15.04,15.28 38.12,39.68 z m -1050.08,-19.45 15,-17.54 -39.019,-31.01 -14.492,17.61 38.511,30.94 z m 225,-4.1 10.942,-46.8 c -0.781,3.4 48.598,13.95 55.039,10.43 l -65.981,36.37 z m 575.12,-3.95 46.64,-49.25 5.24,47.42 -51.88,1.83 z m 288.36,-7.77 16.84,-13.16 -31.29,-44.61 -19.06,15 33.51,42.77 z m -1054.882,-29.73 13.902,-20.04 -40.929,-24.37 -11.602,17.69 38.629,26.72 z m 1099.062,-4.72 2.58,-2.58 -0.04,-31.84 -13.01,-19.1 -17.73,10.43 28.2,43.09 z m -263.79,-35.78 41.25,-74.97 11.64,55.9 c -15.27,0.24 -39.41,10 -52.89,19.07 z m -802.651,-10 9.84,-21.61 -43.238,-19.72 -9.852,21.52 43.25,19.81 z m 23.352,-51.64 7.929,-21.68 -45.968,-15.28 -7.274,20.94 45.313,16.02 z m -205.5,-39.3 14.328,-10.04 c 74.57,39.18 51.332,50.78 -14.328,10.04 z m 421.519,24.92 c 2.809,0.27 6.051,-3.59 8.668,-12.23 3.953,-13 1.883,-29.1 -6.949,-28.9 -5.937,0.74 -8.168,15.97 -8.199,20.39 -0.039,13.04 2.851,20.35 6.48,20.74 z m 40.86,-7.77 17.769,-1.96 -0.078,-5 -141.48,-224.571 -17.11,10.86 140.899,220.671 z m -76.168,-5.24 c 5.66,-0.04 13.898,-3.9 21.207,-11.68 4.301,-4.65 8.871,-11.21 9.961,-17.97 -0.121,-2.22 -3.91,-1.36 -7.578,-0.86 -9.372,1.33 -23.204,7.86 -27.622,15.86 -5.39,9.85 -2.339,14.73 4.032,14.65 z m 650.348,-7.97 18.87,-91.989 c 5.86,23.009 18.16,36.289 27.3,54.379 -24.02,11.05 -33.9,24.18 -46.17,37.61 z m -812.77,-18.63 4.41,-23.79 -47.66,-11.01 -4.918,23.08 48.168,11.72 z m 177.73,-8.24 c 0.66,0 1.328,0 1.989,-0.08 17.421,-1.95 19.89,-5.82 8.171,-13.71 -7.109,-4.77 -26.332,-5.43 -29.5,-0.35 -3.351,5.43 9.219,14.02 19.34,14.14 z m -345.742,-13.99 14.762,-8.63 c 25.359,18.32 -2.34,21.99 -14.762,8.63 z m 320.66,-8 c 5.313,-0.08 8.524,-9.57 10.391,-18.32 1.84,-8.44 2.461,-16.102 -0.82,-20.32 -3.981,-5.231 -7.887,-6.129 -11.047,-0.969 -9.301,15.079 -8.992,39.719 1.476,39.609 z m -39.289,-13.79 c 2.5,0.08 5.621,-0.55 9.289,-1.92 12.352,-4.68 28.75,-23.63 21.84,-26.212 -10.238,-3.859 -32.578,7.352 -36.797,18.672 -2.109,5.75 0.199,9.26 5.668,9.46 z m -101.961,-15.28 1.172,-23.512 -50.109,-2.027 -1.492,23.398 50.429,2.141 z M 641.02,979.699 c 4.96,0.16 9.878,-0.508 13.859,-2.23 7.152,-3.078 1.961,-8.707 -10.391,-12.969 -8.117,-2.852 -19.718,-3.551 -23.789,-0.309 -9.488,7.5 5.512,15.079 20.321,15.508 z m -387.54,-2.738 c 34.329,-20.852 105.071,-67.262 105.071,-67.262 -3.352,-0.66 -6.91,-3.32 -10.231,-5.898 -2.582,-2.11 -5.351,-4.063 -7.73,-5.039 -3.828,-1.563 -7.309,-1.762 -10.512,-2.461 -22.109,-4.801 -32.969,-17.34 -26.058,-32.891 2.742,-6.129 3.441,-5.16 -1.29,-10.308 -13.199,-12.582 -11.558,-16.332 -6.871,-32.461 0.082,-2.27 -15.699,-21.641 -1.757,-36.211 7.699,-6.719 8.089,-2.539 5.277,-17.821 -0.981,-9.179 1.519,-16.718 14.922,-19.371 7.418,-3.398 7.301,-2.226 4.679,-8.519 -1.789,-9.059 0.79,-12.77 7.11,-16.09 5.789,-3.59 8.09,-4.57 4.031,-7.738 -44.531,-22.813 -58.242,-62.5 -16.211,-120.969 4.918,-6.883 17.379,-26.332 17.379,-26.332 -14.141,-21.02 -27.66,-38.32 -42.109,-57.11 l 42.031,-58.789 c -6.801,-10.703 -22.731,-32.382 -32.5,-53.793 -14.691,-32.148 -5,-77.218 37.269,-90.738 18.122,-5.781 42.071,-1.09 57.141,16.449 12.27,14.211 18.949,42.461 7.777,71.871 -14.136,32.93 -31.097,49.098 -36.558,58.481 l 45,56.519 c 0,0 -31.02,44.61 -43.36,60.821 84.411,103.32 15.43,132.187 2.219,141.058 -2.07,1.36 -1.558,7.961 -1.558,7.961 75.82,8.719 101.679,50.36 123.98,103.09 45.238,-29.101 110,-68.281 155.359,-98.949 4.372,-4.02 7.258,-6.563 6.598,-8.781 -0.547,-1.84 -2.308,-10.2 -2.379,-18.828 2.102,-13.711 1.09,-19.891 -4.461,-25.161 -5.187,-4.921 -4.136,-7.152 -3.316,-12.5 1.449,-9.261 2.848,-10.191 -1.293,-14.882 -5.109,-5.739 -6.789,-8.438 -5.859,-22.418 0.55,-8.282 1.609,-14.5 -0.54,-19.379 -2.82,-6.371 -10.55,-9.614 -20.71,-17.582 -17.731,-13.942 -15.348,-18.2 9.179,-68.821 20.86,-43.129 23.25,-52.968 15.242,-68.289 -6.679,-12.73 -9.179,-22.609 -8.363,-41.011 0.192,-4.688 0.582,-9.77 0.582,-12.231 -0.039,-5.969 0.039,-5.269 -3.39,-9.019 -2.7,-2.887 -7.11,-8.629 -9.891,-12.739 -29.141,-43.711 -105.82,-154.961 -105.82,-154.961 l -257.848,0.43 -0.231,758.672 z m 361.598,-20.352 c 3.043,0.243 6.684,-5.187 10.82,-16.089 2.383,-6.329 2.114,-17.27 -1.718,-21.481 -7.7,-8.398 -18.282,11.25 -14.918,26.832 1.519,7.027 3.468,10.59 5.816,10.738 z m 725.192,11.84 c 0.04,-39.84 -0.82,-91.558 -14.53,-129.648 l 15.55,-7.071 c -5.04,39.141 1.21,71.29 37.11,88.2 -16.37,11.101 -28.83,29.808 -38.13,48.519 z M 576.449,943.328 c 1.25,0.043 2.653,-0.269 4.25,-0.777 5.821,-1.602 12.891,-5 17.231,-9.41 7.34,-7.5 14.961,-16.532 13.05,-17.391 -12.191,-5.352 -43.128,10.98 -39.07,23.789 0.86,2.699 2.469,3.711 4.539,3.789 z m -54.219,-1.68 0.309,-19.527 -30,19.18 29.691,0.347 z m 684.33,-9.41 c 4.85,-0.386 12.35,-6.758 11.17,-11.168 -2.07,-4.769 -4.64,-4.34 -7.96,0.66 -4.18,6.29 -5.86,10.2 -3.21,10.508 z M 599.379,908.102 c 7.262,0.226 13.551,-1.411 14.211,-5.204 0,-3.589 -5.539,-8.199 -12.34,-10.308 -17.031,-5.231 -29.84,-1.879 -25.16,6.48 2.89,5.551 13.91,8.789 23.289,9.032 z m 593.351,-22.114 c -7.18,-12.929 -8.08,-54.218 4.65,-71.058 19.73,-21.789 37.97,-50.192 35.86,-87.969 l -18.98,-8.512 c 1.05,31.09 -0.2,51.289 -24.46,78.09 -28.86,31.402 -22.07,85.82 -12.1,101.789 8.55,15.781 20.89,-6.558 15.03,-12.34 z m -831.25,17.153 c 6.098,0.347 13.52,-3.211 26.918,-12.071 34.372,-24.3 52.973,-33.711 87.032,-57.742 4.961,-4.687 4.73,-4.019 3.871,-7.687 -13.012,-49.813 -50.821,-89.34 -106.84,-96.571 -6.481,-0.859 -3.121,3.211 -7.031,11.02 -4.02,8.051 -11.45,11.558 -19.692,11.601 -23.117,0.239 -3.359,13.2 24.883,16.918 9.34,1.442 20.59,2.692 26.527,8.321 1.293,-0.59 -4.918,38.98 1.442,52.89 3.25,12.539 0.16,18.59 -3.32,10.891 -2.219,-4.84 -5.27,-17.531 -6.95,-30.539 -1.371,-11.024 -3.711,-12.5 -6.289,-7.192 -1.172,2.461 -1.133,8.2 0.699,12.77 2.11,10.359 -10.929,18.172 -8.32,27.66 3.52,7.93 -0.148,16.68 -4.531,19.57 -2.418,5.122 -2.109,8.829 -1.789,12.418 0.738,8.403 -4.891,16.493 -13.711,20 -3.91,1.993 -2.738,4.102 1.32,6.141 1.922,0.973 3.789,1.481 5.781,1.602 z m -28.082,-14.18 c 2.223,0.039 4.454,-0.199 6.563,-0.75 4.527,-2.77 8.199,-18.512 3.129,-19.141 -1.879,-0.23 -7.738,-0.929 -12.27,-2.261 -15.351,-4.528 -22.621,-3.911 -22.34,4.921 0.309,9.02 12.93,16.989 24.918,17.231 z m 20.43,-1.602 c 6.051,-0.039 10.942,-7.109 7.113,-10.898 -3.91,-3.871 -11.492,-1.063 -11.453,4.57 0,3.039 1.41,6.328 4.34,6.328 z m 4.102,-24.539 c 1.761,0.039 3.672,-0.308 5.742,-1.25 5.59,-2.609 8.828,-12.261 5.277,-15.82 -2.738,-2.691 -10.508,-1.75 -14.687,1.801 -7.422,6.328 -3.832,14.961 3.668,15.269 z m -19.02,-1.398 c 3.469,-0.082 5.969,-1.211 6.641,-3.602 0.539,-2.07 -0.391,-3.98 0.539,-6.949 1.449,-4.609 4.422,-8.16 1.84,-10.043 -11.801,0.711 -36.25,-14.098 -43.321,-13.398 -5.898,0.82 -6.558,6.25 -1.449,15.039 5.899,10.16 25.281,19.14 35.75,18.953 z m 7.11,-28.602 c 2.57,0.16 3,-1.281 1.949,-5.031 -0.739,-2.66 -0.117,-8.988 1.679,-13.09 1.954,-4.379 5.473,-6.988 3.633,-8.711 -3.011,-0.898 -13.121,-2.886 -21.64,-6.097 -10.981,-6.051 -41.801,-24.332 -34.02,4.929 2.457,9.758 13.828,16.52 33.59,23.43 7.5,2.66 12.23,4.379 14.809,4.57 z m 16.128,-0.351 c 4.762,0.32 10.231,-1.949 12.653,-7.891 7.148,-14.219 -13.352,-16.25 -19.922,-4.406 -3.859,7.027 1.172,11.828 7.269,12.297 z m 3.942,-33.16 c 10.629,-0.039 18.91,-13.239 11.18,-18.239 -5.75,-3.48 -12.86,-2.82 -19.418,-1.179 -9.84,4.339 -5.313,19.5 8.238,19.418 z m 1020.12,-0.27 c 40.55,-21.219 95.67,-40.789 149.14,-55.32 l -1.8,-525.86 -363.71,-0.23 -100.07,173.75 c 0,0 -3.32,5.621 -4.38,8.121 -2.03,4.73 -1.33,8.602 0.08,13.48 3.28,11.879 13.32,35.079 22.58,51.559 24.18,44.383 58.51,93.051 39.92,135.711 -2.11,4.84 19.22,31.289 19.22,31.289 32.85,-2.66 60,18.75 50.27,69.289 68.59,28.051 125.08,50.863 188.75,98.211 z M 347.191,796.461 c 0.93,0.039 -1.882,-11.492 3.938,-18.602 3.641,-5.539 3.051,-5.39 -9.25,-10.23 -4.609,-2.5 -9.219,-6.289 -11.84,-8.59 -17.617,-15.75 -35.078,4.84 -18.008,21.359 13.75,12.352 28.129,15.043 34.918,15.903 0.082,0.121 0.16,0.16 0.242,0.16 z M 1185.2,785.602 c 5.89,-1.063 13.55,-8.911 11.09,-13.211 -8.32,-13.981 -8.71,-21.481 -9.45,-35.93 -0.82,-16.141 1.95,-18.52 -4.22,-15.75 -4.03,1.879 -11.49,5.117 -13.17,9.219 -3.9,9.461 6.02,57.39 15.75,55.672 z M 341.449,745.09 c 6.52,0.121 13.391,-2.031 17.262,-6.988 3.238,-4.141 3.559,-7.704 0.348,-9.383 -7.61,-4.059 -32.848,-1.949 -34.137,3.242 -1.953,7.969 6.957,12.969 16.527,13.129 z m 382.5,-10.231 c 30.852,-0.121 66.871,-6.679 94.723,-18.871 39.566,-14.918 74.418,-52.929 82.269,-69.218 2.379,-4.918 -2.5,-4.918 -6.722,-5.391 -47.11,-7.77 -62.809,-65.738 -23.047,-93.438 12.457,-7.812 22.539,-6.992 22.539,-6.992 10.078,0.86 -44.801,-104.449 -66.68,-170.078 -67.621,2.77 -118.711,-7.66 -184.801,15.078 -7.109,11.801 -5.39,37.891 -0.242,51.332 4.774,12.219 11.024,21.68 8.012,35.739 -5.27,24.492 -27.621,56.41 -35.078,76.64 -6.563,15.43 -6.133,21.168 5.277,30.039 13.473,10.43 16.789,12.621 20.461,17.891 3.442,4.879 2,6.019 2.039,17.07 0.071,13.442 -0.238,11.328 10.852,13.32 3.871,0.661 12.969,3.59 19.929,7.27 14.45,7.609 24.532,7.34 33.04,2.609 3.679,-0.968 3.32,2.852 4.89,7.891 0.66,2.23 2.219,5.859 2.11,6.961 -0.282,2.258 -5.161,1.598 -10.508,0.859 -21.602,-3.05 -38.602,-3.711 -47.313,-0.429 -7.578,2.808 -7.609,7.929 -3.16,16.359 3.941,7.578 6.723,7.43 5.121,23.172 -2.039,19.758 0.699,23.898 9.918,30.387 11.524,8.082 32.383,11.871 56.371,11.8 z m 111.52,-17.429 100.269,0 c -9.84,-15.86 -20.816,-40.352 -26.988,-63.551 -0.941,-1.84 -1.988,-3.59 -4.34,-1.25 -13.512,19.332 -28.898,40.082 -68.941,64.801 z m -83.168,-70.621 c -11.949,-0.309 -26.949,-6.098 -45.781,-16.879 -12.809,-7.34 -23.282,-11.91 -36.872,-9.41 -7.769,1.441 -8.75,0.351 -9.769,-2.192 -4.57,-11.328 12.391,-23.508 29.531,-15.508 5,2.071 43.211,21.879 45.32,23.602 2.301,1.828 18.122,6.476 22.301,6.437 12.617,-0.148 20.43,-10.109 18.867,-21.558 -2.027,-15.313 -23.75,-16.09 -25.199,-2.461 -1.09,10.469 -5.429,5.82 -5.859,0.66 0,-4.41 3.32,-14.449 6.922,-16.711 18.359,-11.449 42.539,10.852 30.968,33.82 -7.109,14.032 -16.832,20.59 -30.429,20.2 z m -82.262,-53.36 c -12.418,-2.34 -20.551,-7.187 -33.949,-8.32 -11.051,-2.457 -10.231,-11.25 -3.32,-15.859 5.32,-3.52 12,-1.372 31.371,10.941 19.019,12.07 35.308,-13.09 20.121,-26.02 -9.571,-8.082 -3.012,-10.23 3.547,-5.351 16.839,12.582 7.191,49.371 -17.77,44.609 z m 58.91,-64.808 c -1.488,0.121 -3.789,-0.43 -6.879,-1.832 -14.261,-6.52 -25.191,-13.399 -32.031,-22.579 -1.168,-1.992 -0.551,-5.351 -1.09,-7.968 -0.429,-2.071 -2.07,-4.723 -1.801,-6.133 0.231,-1.207 4.301,-2.5 4.883,-3.668 2.5,-4.652 0.899,-16.531 -0.551,-25.121 -0.66,-4.102 -6.789,-5.352 -9.21,-7.852 -8.051,-8.168 -6.02,-10.668 2.531,-7.457 5.98,2.219 3.437,6.328 18.25,3.469 19.14,-3.711 34.328,1.488 49.371,9.852 16.758,9.289 22.808,14.449 23.476,13.359 1.133,-1.84 0.231,-2.82 -11.679,-12.742 -29.918,-24.84 -52.149,-30.617 -68.949,-21.328 -5,3.437 -9.02,4.847 -5.231,-2.5 0.512,-0.782 4.57,-3.942 7.383,-5.231 17.269,-7.769 38.867,-1.211 66.367,20.551 6.012,4.758 11.371,10.109 18.359,15.969 22.813,19.07 16.801,27.82 -8.988,18.519 -8.121,-2.929 -10.39,0.231 -21.398,4.492 -14.731,5.739 -19.571,6.289 -36.563,6.598 -14.769,0.242 -17,-1.129 -17,1.371 0.039,3.16 9.961,14.34 21.141,19.18 10.89,4.769 13.98,10.738 9.609,11.051 z m 27.18,-47.141 c 2.742,-2.781 -1.207,-4.57 -11.867,-9.609 -6.024,-2.891 -11.563,-5.243 -12.352,-5.243 -0.969,-1.718 -11.012,20.981 -8.281,22.071 1.172,0.472 25.82,-1.598 32.5,-7.219 z m -38.707,2.379 c 2.457,-5.117 4.379,-10.508 5.308,-15.469 0.239,-1.558 1.329,-3.75 -1.089,-3.75 -1.871,-0.269 -5,-0.43 -6.129,1.328 -2.422,3.793 -5.082,16.684 -4.184,19.184 1.832,2.5 5.121,0.738 6.094,-1.293 z m 87.738,-40.738 c -0.898,-0.039 -2.582,-0.711 -5.238,-2.27 -42.422,-25.043 -93.281,-38.082 -126.012,-25.699 -11.019,4.137 -13.051,2.687 -9.031,-4.883 2.781,-5.238 8.32,-11.367 16.723,-13.68 26.718,-7.339 69.769,3.36 102.886,25.082 13.481,8.829 24.532,21.45 20.672,21.45 z m 249.64,-67.153 c 0,0 74.97,-154.527 89.58,-161.797 l -610.001,1.098 102.769,146.871 c 0.903,-8.16 247.891,-42.07 417.652,13.828"
         inkscape:connector-curvature="0"
         id="path18"
         style="fill:#131f67;fill-opacity:1;fill-rule:nonzero;stroke:none" /><path
         d="M 538.238,216.809 636.719,362.32 C 782.422,334.621 913.52,349.23 1057.07,374.859 L 1152.7,213.57 538.238,216.809 z M 1310.7,759 l -0.66,86.359 30.12,-11.211 c -10.47,40.204 15.89,82.153 39.92,83.832 -76.72,57.891 -13.01,119.77 -14.3,121.09 -83.94,43.32 -41.83,109.81 -47.66,115.79 -102.22,26.48 -62.3,107.65 -70.03,99.29 -59.54,-17.93 -92.31,31.96 -93.32,72.54 -51.49,-29.22 -131.06,12.15 -106.14,58.63 0,0 27.27,-12.96 32.11,-10.35 42.03,30.59 38.75,-13.28 47.5,-22.81 31.37,4.53 49.88,-19.49 57.7,-31.13 46.25,-0.04 44.33,11.05 44.76,-33.83 34.85,-8.83 33.44,-27.7 53.64,-53.44 43.94,-0.51 36.56,-14.8 26.6,-39.1 31.68,-25.23 34.26,-44.96 39.45,-67.89 34.57,-12.54 40.78,-17.62 18.2,-46.76 30.51,-45.7 15.82,-72.19 20.47,-74.69 38.01,-27.422 19.03,-37.379 2.42,-47.89 5.79,-36.481 10.4,-41.828 -3,-78.942 43.67,-31.019 -6.96,-45 -9.53,-44.34 L 1378.83,803.41 1310.7,759 z M 252.379,984.148 251.52,1091.18 622.031,851.77 575.199,778.25 252.379,984.148 z m 492.23,-157.5 87.582,183.362 -31.492,200 251.021,-5.47 c 28.2,-64.14 45.23,-118.71 117.54,-224.88 l -76.41,-23.789 2.66,-128.551 -350.901,-0.672 z m 214.653,48.243 c -2.543,5.32 -3.992,8.91 -3.524,11.289 0.942,3.05 3.282,2.89 6.293,1.25 10.668,-5.149 21.328,-9.641 29.18,0.199 3.949,5.121 2.93,12.422 -0.43,16.641 -6.011,12.269 -24.961,3.402 -31.332,2.929 -5.898,-0.121 -8.16,4.84 -3.32,11.949 2.891,3.051 4.73,6.454 5.199,10.473 3.32,28.008 -44.449,18.051 -27.887,-9.101 7.539,-10.079 3.161,-16.129 -7.929,-9.77 -12.153,7 -29.102,0.469 -28.563,-14.25 0.43,-11.18 14.461,-18.09 26.25,-11.328 2.742,1.558 4.852,3.238 6.762,4.058 5.508,2.379 9.449,0.43 7.617,-5.742 -4.918,-7.738 -10.668,-18.789 -5.859,-26.097 4.84,-10.621 21.441,-9.641 27.152,-3 3.938,4.531 5.039,11.949 0.391,20.5 z m 579.018,562.039 -371.25,240.62 12.85,20.35 c 16.64,9.26 23.48,20.82 22.89,36.88 l 10.12,22.22 325.78,-209.06 -0.39,-111.01 z m -580.428,81.32 38.046,-194.21 -259.179,-3.72 c -14.258,65.24 -103.239,212.86 -103.008,210.28 l 69.098,169.84 343.911,0.39 -88.868,-182.58 z m -97.231,72.35 c 6.57,6.01 6.098,15.19 -1.133,25.54 -7.027,10 -3.898,17.23 7.352,10.43 6.211,-4.18 16.09,-5.03 22.769,-2.93 8.481,2.9 11.993,9.65 10.743,18.21 -1.524,10.31 -12.973,13.16 -25.192,8.63 -3.558,-0.74 -5.711,-3.63 -8.75,-5 -6.609,-2.89 -9.219,5.04 -3.172,15.31 6.684,11.41 -0.269,23.64 -12.578,24.69 -13.121,1.17 -20.969,-13.79 -15.582,-21.99 7.692,-11.76 2.113,-19.96 -8.949,-12.11 -15.859,11.33 -36.598,-3.01 -28.008,-19.88 4.18,-8.17 17.82,-10.32 30.039,-5.12 10.199,4.33 13.25,-0.67 7.07,-11.13 -12.73,-21.53 8.168,-40.43 25.391,-24.65 z m -376.051,190.74 -2.73,-103.52 c -38.75,23.72 -33.012,23.99 -34.461,23.64 11.41,-31.1 -1.867,-69.57 -34.758,-88.44 59.258,-55.63 27.219,-94.69 17.5,-121.09 75.699,-43.99 37.301,-119.93 37.609,-115.98 74.649,-0.43 73.129,-65.7 75.282,-92.93 92.34,5.78 79.957,-67.97 92.109,-74.34 44.758,20.04 97.027,13.17 110.899,-46.95 8.941,-34.14 -23.95,-1.25 -38.29,-2.69 -51.011,-31.76 -41.21,16.71 -44.058,23.47 -42.262,-4.02 -47.973,16.13 -66.481,30.43 -45.632,-8.79 -41.882,6.21 -39.179,33.95 -35.821,7.26 -43.602,29.61 -57.852,51.48 -49.461,-1.6 -29.262,33.32 -29.109,40.16 -5.973,5.39 -34.371,33.32 -35.781,65.31 -50.739,14.34 -18.86,39.92 -17.032,48.71 -19.218,23.95 -24.258,41.56 -17.808,71.72 -45.078,21.05 -7.418,40.74 -4.258,52.73 -14.692,39.26 -3.981,50.98 1.84,72.23 -29.032,33.98 -11.684,32.11 9.527,52.73 2.691,3.72 -4.73,20.79 -4.301,30.83 l 81.332,48.55 z m 260.309,383.63 -81.25,145.43 580.321,0 c 0,0 -63.17,-87.54 -87.66,-131.56 -144.69,22.85 -280.118,11.99 -411.411,-13.87"
         inkscape:connector-curvature="0"
         id="path20"
         style="fill:#d40000;fill-opacity:1;fill-rule:nonzero;stroke:none" /><path
         d="m 339.801,311.301 c -50.891,11.558 -59.531,75.508 -11.75,128.75 3.859,4.301 6.519,10.937 6.519,10.937 0,0 -8.519,13.981 -30.82,44.883 -4.141,5.738 -10.199,14.918 -10.199,14.918 12.23,17.621 25.039,32.231 38.719,51.332 1.832,2.578 5.23,5.469 4.718,7.809 -0.66,3.398 -5.617,6.761 -11.558,15.511 -34.45,50.778 -38.239,70.899 -20.739,101.098 16.438,28.391 55.7,31.641 79.61,6.641 25.859,-27.039 24.648,-51.61 -8.91,-101.61 -7.379,-10.968 -12.692,-20.89 -12.692,-20.89 0,0 -0.32,-3.481 11.832,-19.18 16.879,-21.762 29.258,-40.43 29.258,-40.43 0,0 -7.699,-9.808 -14.961,-18.32 -19.449,-22.859 -28.207,-38.641 -28.207,-38.641 0,0 1.328,-4.531 4.258,-7.847 53.32,-60.434 49.101,-129.801 -11.207,-135.703 -3.082,-0.309 -10.621,0.152 -13.871,0.742 z m 428.988,771.129 c -1.41,2.31 -191.91,-306.008 -191.91,-306.008 l 21.75,-13.953 182.23,285.001 c 2.77,-2.07 5.43,-4.57 4.879,-8.04 0,0 -150.117,-244.61 -175.117,-283.719 -0.66,-1.051 37.231,-23.512 38.52,-23.551 55.82,27.5 288.629,3.668 443.239,13.16 0.63,-0.461 -2.38,-54.332 -2.38,-54.332 0,0 -35.23,40.782 -42.34,41.051 -35.16,1.211 -72.148,-13.75 -98.64,-12.07 -16.872,-5.188 -36.211,-66.828 -40,-82.258 -30.782,3.551 -60.5,-28.641 -53.36,-58.641 10.039,-33.281 27.309,-30.781 46.02,-31.32 -1.719,-37.738 -68.321,-137.109 -68.59,-186.102 70.43,5.551 146.601,6.84 219.25,28.75 0,0 27.27,78.442 61.68,130.161 11.37,19.8 16.8,49.492 12.23,68.203 -2.93,20.508 5.9,25.699 13.79,40.039 4.8,8.988 22.54,8.59 24.8,9.258 46.21,13.363 29.73,73.121 10.04,83.75 -24.49,13.242 -59.18,-7.27 -72.5,19.613 -14.1,28.437 -9.53,87.258 -9.53,87.258 L 744.02,827 c 0,0 98.558,187.31 96.058,188.68 -26.957,14.8 -70.976,66.21 -71.289,66.75 z M 535.469,911.961 c 1.64,18.949 4.652,326.719 -286.168,479.729 l 1.558,40.47 c 1.762,2.11 264.532,-118.59 309.61,-432.11 l 81.09,127.07 29.851,-11.72 C 627.34,1049.19 539.648,888.449 535.469,911.961 z M 358.871,1022.82 c 11.988,35.55 -7.66,16.72 -25.59,18.17 -12.261,6.64 -24.301,15.27 -35.66,22.73 85,45.04 34.367,42.89 -15.121,11.25 -12.852,6.96 -29.102,22.23 -30.121,20.94 95.902,61.68 59.922,62.93 -1.438,18.24 2.11,41.92 0.618,26.17 1.438,40.28 52.351,56.05 3.601,25.58 0,24.92 -12.848,55.94 48.75,44.22 54.383,1.95 10.859,-8.09 32.148,-18.05 38.437,-52.73 29.571,-18.83 26.481,-34.46 25.11,-57.03 11.57,-11.41 41.453,-35.55 6.601,-57.82 l -18.039,9.1 z m -110.32,255.24 1.961,30.94 c 4.019,12.61 228.316,-147.39 212.148,-353.012 2.649,1.442 -24.851,14.332 -32.699,21.403 0.117,151.329 -177.93,308.209 -181.41,300.669 z M 1535,1104.5 c -149.65,68.6 -291.76,232.97 -299.22,446.76 l -84.53,-141.6 -30,12.7 c 2.77,-2.31 66.84,116.56 132.77,198.75 18.6,-269.77 124.38,-395.2 284.65,-486.29 L 1535,1104.5 z m -783.75,98.64 c -145.039,17.97 -354.691,215.43 -292.031,483.08 8.871,27.15 148.75,-123.43 148.75,-123.4 0.859,6.8 125.82,-194.45 122.301,-233.78 105.429,-30.04 311.25,-1.53 311.25,-1.53 171.14,-38.24 350.08,-222.89 285.47,-485.272 0,0 -45.47,29.883 -83.51,64.614 -115.47,111.678 -152.15,203.398 -193.05,304.608 -147.891,13.4 -286.52,-13.13 -299.18,-8.32 z m 785.16,222.89 c 2.5,-13.32 0.86,-40.94 1.36,-40.9 -38.51,-41.95 -42.54,-42.74 5.78,-29.26 -5.97,-40.23 -35.74,-46.83 -53.43,-33.12 -6.49,5.04 -6.57,32.77 -6.57,32.77 -29.29,7.34 -39.33,16.13 -35.19,47.66 -33.75,4.02 -32.42,20.46 -29.65,54.76 -30.74,17.31 -23.09,44.81 -4.88,56.56 l 15.19,-10.46 c -4.88,-4.38 -2.5,-31.68 24.42,-11.37 0,0 21.56,-17.89 31.91,-24.85 -77.93,-50.07 -30.7,-39.06 17.31,-6.17 8.98,-6.13 21.29,-16.17 27.69,-20.51 -63.24,-45.35 -83.98,-83.28 6.06,-15.11 z m 3.79,-170.39 -2.58,-36.1 c -153.87,94.1 -195.51,218.28 -206.96,350.51 0,0 20.67,-15.23 30.08,-21.52 13.75,-170.59 169.92,-285.78 179.46,-292.89 z m -842.93,447.61 368.98,-2.34 -97.891,-187.15 51.681,-61.05 c 0,0 128.16,199.76 192.62,304.41 l -22.31,13.32 -183.94,-289.1 -7.308,8.09 181.328,288.86 c -10.86,7.15 -31.45,18.56 -31.45,18.56 0,0 -314.21,-5.04 -450.781,-4.49 4.422,18.86 5.391,52.26 5.391,52.26 20.121,-28.91 41.719,-54.73 88.68,-26.33 0,0 55.539,-1.87 57.57,0.78 6.801,11.02 18.832,45.55 32.89,84.61 53.559,3.56 48.25,29.5 54.34,37.97 -4.101,76.17 -46.84,35.16 -43.16,62.81 12.07,49.34 73.789,161.02 65.969,170.83 -15.899,10.54 -173.707,-20.51 -219.649,-26.18 -4.25,1.64 -26.64,-71.68 -50.308,-103 -25.742,-34.11 -34.883,-70.63 -21.762,-105.12 -13.629,-37.89 -39.68,-34.03 -60.66,-44.77 -23.75,-25.74 -17.191,-65.15 5.43,-80.39 15.781,-10.62 40,-10.08 64.691,9.96 l 19.649,-122.54 z m 733.2,264.73 -43.2,57.97 41.87,61.01 c -16.52,26.18 -43.75,66.25 -38.87,98.05 10.67,63.01 95.63,53.75 103.01,-6.52 4.02,-27.97 -16.37,-62.27 -37.07,-91.45 13.67,-24.92 19.57,-28.98 39.41,-57.58 -11.79,-20.82 -40.54,-61.6 -40.54,-61.6 17.93,-30.19 42.89,-63.43 41.05,-94.1 -1.87,-26.37 -30.58,-53.05 -57.38,-47.42 -83.32,17.42 -36.8,106.56 -8.28,141.64"
         inkscape:connector-curvature="0"
         id="path22"
         style="fill:#e2cf00;fill-opacity:1;fill-rule:nonzero;stroke:none" /><path
         d="m 128.672,2444.46 0,-27.85 27.578,0 c 0,0 0.629,-26.87 0.898,-83.9 0.231,-55.32 1.372,-82.78 -2.226,-98.52 -9.692,-36.37 -63.2814,-36.52 -73.9025,-10.43 -6.2187,15.2 -4.539,27.03 -4.8906,42.31 l -29.6094,0 c 0,0 0.1602,-7.7 0.1993,-17.11 0.1601,-40.9 13.9804,-60.39 46.2109,-68.09 33.1603,-8.79 71.8713,4.57 85.6603,32.42 8.25,15.86 7.308,16.92 7.5,112.74 0.121,63.98 1.14,90.58 1.14,90.58 l 25.348,0 0,27.85 -83.906,0 z m 521.207,-127.42 c 22.851,-43 87.851,-158.94 87.851,-158.94 154.54,32.03 284.5,40.19 421.06,10.27 l 97.58,147.97 -606.491,0.7 z m 20.121,-8.75 27.93,0 54.84,-112.77 94.531,18.91 -16.09,93.63 26.758,-0.16 13.511,-90.04 138.91,3.52 18.01,86.91 25.62,-0.31 -18.4,-88.32 110.04,-14.84 53.83,103.47 36.96,0 -81.84,-127.73 c -145.59,28.36 -290.231,18.83 -411.29,-10.98 L 670,2308.29 z m 52.699,0 81.563,0 19.566,-76.09 c -10,-5.24 -47.418,-14.18 -59.918,-12.93 -14.961,26.17 -30.39,64.02 -41.211,89.02 z m 157.301,0 124.14,0 -10.589,-64.8 -104.102,-3.32 -9.449,68.12 z m 196.8,0 95.66,0 -37.77,-78.71 -72.15,9.85 14.26,68.86 z m -611.53,-19.68 c -19.18,-41.33 -46.211,-81.61 -68.86,-111.41 -67.191,-87.81 -81.609,-112.77 -94.89,-164.49 -20.782,-80.94 50.859,-146.33 112.968,-102.35 14.653,10.35 30.864,38.91 30.942,51.25 0.039,8.87 6.09,13.68 11.019,8.68 0.973,-0.98 1.25,-4.97 0.93,-10.63 -3.43,-36.68 -18.16,-96.29 -46.641,-133.71 l 113.832,0 c -34.449,45.66 -45.98,91.72 -45.351,135 0.082,18.59 11.09,16.8 13.551,-2.27 12.152,-93.39 132.621,-75.86 138.25,17.58 3.281,48.83 -27.54,100.9 -67.739,158.6 -32.769,47.07 -72.66,97.89 -98.011,153.75 z m 975.71,-59.11 c -5.59,0.04 -10.75,-0.43 -15.51,-1.44 -24.81,-5.2 -37.81,-24.26 -38.01,-55.39 -0.08,-14.26 10.43,-39.49 26.41,-63.32 7.81,-11.64 12.97,-22.35 12.97,-22.35 l -41.61,-61.17 44.3,-57.89 c 0,0 -6.91,-8.08 -11.01,-13.87 -20.32,-28.75 -29.69,-55.58 -28.4,-77.61 1.4,-23.79 15.27,-41.96 41.29,-50.67 14.25,-4.76 34.57,1.06 48.28,13.44 11.01,10 16.56,23.01 16.79,38.28 0.36,21.8 -10.19,48.2 -31.17,77.03 -5.7,7.82 -8.47,13.95 -8.47,13.95 0,0 29.37,41.83 40.43,60.97 l -40.12,57.66 c 31.91,47.97 38.32,58.59 39.22,88.05 -1.45,29.22 -22.62,54.18 -55.39,54.33 z m -3.99,-3.51 c 1.37,0.04 2.78,0 4.14,-0.12 36.45,-2.81 55.71,-29.88 50.86,-64.65 -4.96,-33.16 -34.84,-64.06 -39.65,-74.72 14.38,-23.36 41.49,-56.57 41.49,-56.57 -11.49,-20.89 -41.21,-61.44 -41.21,-61.44 0,0 1.72,-3.32 3.63,-6.02 30.98,-43.94 39.53,-64.68 37.38,-91.01 -1.68,-20.78 -18.08,-39.34 -38.51,-43.09 -32.42,-5.98 -58.99,17.03 -62.27,48.09 -1.99,27.18 15.55,53.59 29.14,74.22 5.78,8.63 10.74,16.87 10.74,16.87 l -44.14,57.97 c 0,0 3.17,4.96 5.2,7.93 7.77,11.25 17.81,25.19 22.93,31.87 9.3,12.07 14.8,20.43 14.8,20.43 0,0 -6.6,10.59 -12.69,20.24 -24.18,38.2 -30.94,57.81 -27.23,78.94 4.57,25.98 24.73,40.71 45.39,41.06 z m 3.28,-19.57 c -13.47,-0.39 -26.32,-10.31 -31.44,-24.65 -7.42,-26.95 20.94,-67.7 33.83,-78.63 24.18,27.77 39.57,58.94 30.62,80.78 -5.86,13.16 -19.53,22.85 -33.01,22.5 z m 3.32,-8.75 c 24.42,-0.51 33.56,-29.46 14.73,-62.42 -6.52,-11.25 -16.09,-23.01 -16.09,-23.01 0,0 -8.95,11.13 -14.3,19.57 -21.84,34.14 -16.21,60.78 10.59,65.55 1.75,0.23 3.43,0.35 5.07,0.31 z m -485.699,-15.04 c -63.871,-0.35 -149.219,-10.98 -224.262,-28.01 -6.52,-40.27 -26.719,-80.62 -48.75,-112.69 -21.207,-34.65 -28.899,-64.85 -21.789,-85.51 6.64,-19.38 -11.488,-48.28 -31.41,-50.08 -24.77,-2.27 -40.508,-19.49 -40.231,-44.06 -0.711,-39.34 26.442,-63.44 63.321,-50.08 3.71,0.47 6.171,-1.95 6.171,-1.95 l -2.152,-225.12 c -20.738,-3.28 -34.609,-7.77 -52.23,-17.15 l -7.418,7.97 c -4.102,4.41 -9.262,10 -11.52,12.54 -2.23,2.5 -6.332,6.01 -9.031,7.73 -2.731,1.72 -6.399,5.47 -8.199,8.32 -4.34,7 -22.77,24.69 -32.852,31.6 -1.719,1.18 -6.059,4.85 -9.648,8.17 l -6.563,6.01 0.043,74.77 c 0,41.13 -0.43,75.2 -0.941,75.74 -0.551,0.55 -8.981,-3.04 -18.75,-7.97 -33.59,-14.72 -65.66,-35 -90.309,-51.4 -10.902,-7.31 -11.992,-11.37 -7.891,-29.89 2.301,-10.35 1.719,-11.48 -6.8,-13.55 -17.578,-4.3 -23.09,-32.31 -8.239,-41.84 6.989,-4.45 7.028,-4.68 2.539,-14.8 -7,-15.7 -6.718,-45.67 0.5,-58.17 4.11,-7.14 3.829,-9.45 -1.601,-13 -18.75,-12.19 -17.457,-38.28 2.109,-43.17 5,-1.25 6.293,-3.36 4.653,-7.65 -6.129,-15.78 -0.551,-39.81 13.48,-57.97 7.301,-9.46 7.301,-9.34 2.457,-13.71 -15.738,-14.22 -7.226,-39.77 14.262,-42.54 7.34,-0.98 7.379,-0.98 8.238,-6.64 2.461,-16.17 3.594,-20.71 7.192,-28.32 4.492,-9.57 9.921,-16.06 20.07,-23.99 8.32,-6.44 8.32,-6.52 3.871,-16.05 -8.16,-17.62 4.84,-35.12 25.59,-34.42 10.578,0.39 10.578,0.43 11.359,-3.36 3.719,-18.39 25.59,-39.96 43.559,-42.93 9.222,-1.52 10.66,-3.75 7.543,-11.56 -5.043,-12.58 -1.801,-20.7 10.937,-27.22 8.551,-4.38 11.051,-4.54 20.391,-1.33 10.582,3.63 10.699,3.59 19.68,-8.44 12.66,-16.95 21.058,-21.21 42.191,-21.37 13.949,-0.11 14.488,-0.47 14.57,-10.27 0.199,-23.28 24.848,-33.01 40.699,-16.06 5.711,6.1 5.711,6.1 10.79,2.35 22.3,-16.33 42.101,-20.59 40.269,-5.27 -4.34,35.78 -30.238,57.61 -30.238,57.61 l 32.39,-8.44 c 1.399,-37.81 2.731,-83.35 10.618,-114.88 L 622.34,854.891 c 0,0 -8.711,5.359 -17.93,11.718 -13.551,9.34 -30.148,20.352 -40.351,26.719 -5.188,3.281 -11.829,7.231 -17.071,11.641 -5.039,4.179 3.09,9.73 4.813,14.14 C 585,978.41 636.949,1049.66 674.77,1118.96 l -36.61,14.14 c -28,-44.1 -48.629,-79.61 -74.719,-120.24 -25.98,190.55 -158.953,357.82 -319.851,428.28 l 0.551,-49.88 c 168.91,-86.4 289.449,-264.72 286.25,-475.041 -0.661,-0.778 -14.141,7.269 -32.34,19.422 -9.61,6.359 -28.949,19.019 -31.371,20.23 7.851,232.929 -223.16,370.669 -223.559,364.139 0,0 -1.441,-30.08 -2.101,-44.02 98.429,-65.98 175.742,-185.94 183.589,-292.74 0.082,-0.859 -46.211,28.91 -46.211,28.91 27.543,13.71 19.961,49.22 0.122,58.87 -6.219,2.77 -6.571,4.14 -3.481,12.5 6.332,17.22 -5.309,43.12 -21.328,47.46 -7.031,1.91 -8.16,3.75 -8.512,13.63 -0.629,18.01 -10.629,29.84 -28.597,33.79 -4.961,1.09 -5.043,1.13 -5.274,7.34 -1.527,34.96 -35.707,49.18 -61.367,25.55 -2.852,-2.62 -5.859,-7.66 -5.859,-7.66 l -0.192,-37.93 c 8.75,4.85 22.031,21.29 27.5,20.63 6.012,-0.7 3.078,-4.77 -10.43,-16.45 -8.789,-7.61 -17.351,-15.62 -17.351,-15.62 l 0.551,-49.92 c 14.609,9.49 29.218,20.19 42.929,29.72 11.801,8.25 17.813,10.9 19.262,8.56 1.641,-2.7 -0.98,-6.17 -7.699,-10.2 -17.973,-11.99 -38.902,-26.01 -54.024,-37.85 l -0.039,-34.41 2.891,-4.26 0.859,-30.12 -2.699,-0.66 0.039,-37.931 355.281,-226.949 180.782,285.19 2.968,-3.01 -180.82,-283.981 c 0,0 7.418,-6.41 14.449,-10.121 7.192,-4.019 16.172,-9.367 23.832,-14.449 3.629,-5.938 9.957,-11.168 16.758,-10.43 6.211,6.801 33.352,13.981 35.973,17.153 101.168,1.476 391.488,-0.512 391.488,-0.512 l 1.64,-46.449 C 1075,738.68 1032.93,747.98 999.84,727.82 l -54.328,-0.07 c -0.434,0 -32.153,-57.859 -36.801,-88.051 -22.852,3.121 -53.242,-19.14 -54.801,-41.719 -3.68,-32.152 17.418,-55.589 45.039,-51.019 0.5,-0.231 -4.34,-31.871 -19.969,-56.602 -20.699,-43.629 -31.402,-68.039 -44.019,-105.269 -8.59,-23.399 -5.66,-27.539 -4.18,-28.129 81.059,1.18 155.629,9.027 232.539,33.867 0,0 -1.41,5.473 -2.11,8.563 -2.77,12.461 7.7,37.929 37.31,90.578 22.85,40.711 29.37,56.211 31.68,75.39 1.17,9.731 0.93,12.231 -2.43,30.352 -0.19,1.719 -1.52,4.148 -1.17,5.98 2.38,12.188 20.98,33.629 21.41,33.129 0,0 6.72,1.25 9.41,1.481 41.92,2.929 54.88,59.918 19.53,85.59 -17.22,10.578 -27.38,11.359 -45.66,6.597 l -0.31,220.903 25.47,-0.942 28,13.832 c 45,-38.441 74.34,-77.703 122.78,-107.312 l -0.78,-1.949 -36.02,24.691 0.08,-144.731 c 41.68,21.68 80.51,41.68 117.97,72.032 l -7.54,6.527 0.31,20.699 c 35.2,-2.777 38.55,41.992 9.65,47.34 0,0 0.66,3.633 3.44,9.344 8.86,18.199 10,35.348 3.51,54.289 -3.94,11.57 -3.75,14.461 0.9,14.418 21.41,-0.117 19.41,37.851 -2.38,46.131 -7.5,2.85 -6.96,0.51 -5.43,24.03 1.17,17.69 -3.17,29.68 -16.25,45.19 -4.92,5.86 -4.49,8.67 1.87,12.54 18.24,11.17 5,43.32 -17.42,42.38 -8.75,-0.35 -8.75,-0.35 -9.49,8.4 -2.03,23.05 -14.88,45.04 -31.76,54.22 -5.19,2.85 -5.98,5.19 -3.05,9.14 14.38,19.18 0.94,45.47 -19.33,37.77 -3.91,-1.48 -8.05,-2.97 -9.18,-3.32 -1.6,-0.5 -2.89,1.76 -5.98,10.43 -8.44,23.71 -15.9,31.14 -42.73,42.42 -5.28,2.23 -5.59,3.79 -3.21,14.61 4.11,18.64 -21.6,36.02 -35.46,23.99 -5.67,-4.92 -5.86,-4.88 -12.23,3.28 -12.66,14.57 -33.32,24.77 -51.68,26.68 -8.79,0.78 -10.08,1.44 -9.38,4.84 4.89,22.85 -17.38,37.78 -35.86,24.03 -8.9,-6.6 -11.21,-6.8 -20.31,-1.68 -19.18,10.74 -27.58,11.17 -29.57,1.44 -0.62,-8.08 1.17,-17.69 3.13,-23.63 4.65,-16.06 10.7,-22.03 23.94,-33.32 0,0 -21.99,6.09 -27.5,7.19 0.55,0.58 -1.6,76.25 -16.01,119.1 l 140.39,223.44 80.43,-53.05 -128.64,-203.48 37.46,-15.19 c 0,0 50,83.04 76.18,123.75 17.15,-202.23 173.47,-379.57 315.11,-432.19 -0.46,-0.23 0.47,29.06 1.06,43.24 -149.42,65.82 -291.56,249.69 -282.62,470.35 l 60,-38.43 c 17.42,-176.88 94.49,-280.51 222.89,-368.13 l 0,54.18 c -88.44,65.43 -161.91,150.94 -181.4,287.73 0,0 30,-18.94 43.43,-27.92 0,0 -3.79,-2.15 -5.74,-3.79 -16.05,-13.36 -11.25,-40.75 9.92,-56.25 3.44,-2.54 3.48,-2.54 0.24,-11.18 -6.41,-17.11 3.47,-37.77 20.19,-42.11 9.57,-2.5 9.53,-2.38 9.69,-13.35 0.35,-21.29 8.95,-31.14 31.68,-36.22 3.13,-0.7 3.24,-1.01 3.16,-10.58 -0.11,-23.56 22.5,-39.38 42.23,-29.53 6.17,3.08 25.59,19.33 25.59,19.33 l 0,37.89 c 0,0 -8.79,-7.18 -15.16,-13.08 -11.09,-10.35 -14.61,-11.64 -14.57,-5.31 0.04,4.57 5.12,10.58 15.78,18.51 5.55,4.14 13.95,12.93 13.95,12.93 l 0,44.18 c 0,0 -4.96,7.85 -4.65,17.27 0.15,5.11 1.6,12.93 1.6,12.93 l 5.31,-0.12 -0.08,51.13 -6.44,5.04 0.27,33.87 -351.29,227.3 -182.97,-290.97 -4.57,5.35 183.17,289.14 -48.67,31.09 -29.38,-14.45 c 0,0 -203.319,3.2 -401.6,0.66 0,0 -0.469,5.47 -0.391,20.94 0.082,19.41 0.981,22.15 4.57,13.95 8.012,-18.36 27.93,-29.46 51.051,-28.4 13.051,0.58 14.852,1.13 29.379,8.94 5.391,2.93 6.371,3.01 31.801,2.81 27.262,-0.19 32.18,0.83 32.18,6.61 9.5,21.56 18.871,46.64 24.261,65.47 2.617,9.14 3.789,13.16 5.938,15.03 1.64,1.45 2.929,1.1 6.91,1.37 17.422,1.13 22.312,2.23 34.851,14.49 25.192,25.32 10.739,76.8 -25.75,77 -9.64,0.07 -3.039,25.78 17.391,67.5 21.129,43.16 24.098,49.76 35,78.71 7.149,18.9 10.539,32.46 11.438,40.74 -2.028,0 -4.098,0 -6.168,0 z m -1.911,-12.5 c 5.071,-4.22 -7.582,-35.39 -30.32,-82.58 -18.75,-38.94 -27.18,-58.44 -31.172,-72.54 -1.168,-4.06 -2.808,-9.92 -3.668,-13.01 -1.25,-4.37 -2.851,-6.52 -7.148,-9.61 -3.082,-2.18 -7.344,-5.39 -9.531,-7.14 -6.129,-4.93 -7.621,-3.36 -6.09,6.56 2.808,18.44 10.109,38.36 26.988,72.97 13.402,27.54 26.481,57.07 36.641,87.18 2.3,7.04 3.359,14.18 7.191,16.8 5.469,3.09 11.25,2.46 17.109,1.37 z m -27.39,-1.8 c 3.48,-2.42 -13,-45.12 -41.602,-104.37 -35.699,-73.95 -37.578,-125.78 -5.508,-138.44 25.321,-10 50.821,17.89 35.2,38.2 -7.5,9.77 -23.711,10.63 -29.301,0.47 -3.078,-5.51 1.172,-11.87 6.601,-4.14 7.899,11.29 23.719,-1.76 19.891,-15.12 -2.621,-9.14 -15.473,-16.52 -23.402,-14.92 -35.078,6.99 -28.481,56.45 7.89,59.14 34.801,2.62 50.621,-44.1 25.352,-70.86 -8.012,-8.63 -17.383,-12.97 -33.711,-12.93 -22.66,0.04 -43.828,18.71 -41.68,36.06 3.008,15.9 3.481,28.71 -1.91,41.21 -1.719,4.02 -3.832,8.01 -3.711,13.05 0.313,14.06 11.871,35.89 37.692,89.8 9.257,19.3 20.629,52.77 26.211,73.95 1.988,6.17 1.019,7.89 3.359,8.75 5.738,1.28 13.988,3 18.629,0.15 z m -29.84,-0.74 c 5.309,-0.23 -6.871,-39.1 -22.27,-72.27 -11.64,-25.35 -27.57,-57.96 -39.41,-88.08 -3.789,-6.41 -6.332,-6.88 -14.101,-2.74 -8.559,4.57 -6.02,11.84 14.179,52 15.192,30.46 29.84,64.96 40.082,99.72 0.93,4.14 2.34,7.78 5.821,9.77 5.23,2.3 10.39,1.83 15.699,1.6 z m -28.398,-4.38 c 2.808,-3.75 -15.661,-56.17 -44.301,-115.31 -6.09,-12.54 -10.231,-24.02 -16.36,-36.83 -2.972,-2.97 -14.339,-4.5 -20.043,-5.63 -5.859,0.78 -0.308,11.8 16.442,45.67 13.64,27.57 17.5,35.39 24.691,52.18 5.199,12.27 12.809,33.4 19.918,53.13 0.59,1.56 1.141,5.12 2.66,5.94 5.313,2.22 11.801,3.16 16.993,0.85 z m -27.93,-3.28 c 0.469,-1.29 -0.582,-3.86 -0.973,-5.89 -4.5,-21.1 -14.808,-40.75 -22.308,-60.9 -0.903,-2.74 -9.141,-19.93 -18.321,-38.13 -9.14,-18.24 -17.582,-35.62 -18.672,-38.71 -1.128,-3.05 -4.179,-11.21 -6.796,-18.09 -16.442,-35.31 1.25,-63.12 23.046,-65.07 34.024,-2.82 37.223,44.84 13.243,49.45 -9.063,1.52 -18.981,-3.44 -19.063,-13.87 -0.629,-5.43 6.051,-11.76 5.973,-3.94 -0.352,14.22 19.5,13.55 21.918,1.48 4.761,-23.51 -21.949,-35 -37.848,-16.52 -6.57,7.58 -6.531,16.25 -5.32,24.06 3.32,21.02 27.578,36.25 50.039,20.35 30.781,-21.72 20.16,-69.76 -19.57,-77.61 -13.59,-3.52 -30.739,1.01 -41.442,12.03 -6.84,6.99 -11.328,17.34 -13.008,30.19 -0.98,7.15 -1.371,15.55 -0.23,23.44 3.199,24.69 21.211,60.7 36.988,91.21 12.192,25.35 21.762,58.79 32.852,85.7 3.121,2.27 19.961,4.42 19.492,0.82 z m -30,-3.36 c 1.797,-0.58 -7.5,-29.8 -20.742,-61.4 -14.571,-32.03 -33.52,-68.67 -44.258,-100.24 -3.363,-7.73 -5.82,-7.5 -15.434,1.45 -5.078,4.73 -2.218,11.8 15.551,48.08 27.383,55.86 37.539,79.69 41.641,93.01 1.91,6.25 3.48,13.91 7.582,16.33 5.269,2.5 10.429,4.34 15.66,2.77 z m -27.344,-7.03 c -2.887,-9.37 -12.379,-37.26 -28.598,-70.27 -10.191,-20.86 -20.109,-43.95 -30.191,-65.47 -5.59,-13.28 -5.738,-13.24 -15.309,-15.23 -16.14,-3.4 -16.14,-3.21 -1.878,25.66 4.218,8.59 12.378,24.38 18.128,35.04 10.54,19.65 26.911,57.89 32.848,76.99 1.563,5.12 3.793,9.88 6.371,12.5 1.641,0.9 14.332,4.69 18.629,0.78 z m -35.277,-3.51 c 2.898,0.11 5.508,-0.39 6.719,-1.99 0.71,-6.57 -17.032,-48.52 -27.891,-67.97 -3.359,-5.94 -6.641,-13.68 -10.391,-20.55 -13.859,-22.07 -30.539,-64.53 -34.84,-82.11 -6.839,-28.01 25.153,-49.14 41.723,-28.79 10.5,12.31 -0.43,34.45 -15.59,28.28 -5.312,-2.19 -3.121,-4.53 4.098,-5.15 11.922,-1.02 12.851,-19.42 0.199,-23.44 -14.058,-4.34 -24.449,7.89 -24.379,20.35 0.082,25.63 28.129,35.04 45.672,21.05 17.5,-14.57 20.27,-49.21 -6.211,-62.61 -25.859,-13.09 -57.66,4.65 -64.07,35.66 -4.879,23.67 0.43,45.39 23.211,81.88 13.078,21.01 33.429,57.3 43.859,89.14 2.039,5.39 3.828,9.84 5.711,12.11 1.719,1.99 7.379,3.98 12.18,4.14 z m -622.61,-6.41 c 0,0 -10.281,-19.76 -24.531,-43.48 -17.3514,-29.29 -42.8905,-58.24 -46.6405,-91.01 -1.0195,-9.34 0.5,-18.71 2.4219,-24.45 7.9297,-24.14 42.4566,-27.78 54.5276,-7.43 3.633,6.1 4.84,7.23 8.359,5.32 1.524,-0.82 2.152,-3.21 2.07,-6.57 -3.007,-21.64 -11.328,-33.51 -23.32,-49.76 l 57.652,0 c -12.14,13.32 -22.421,31.76 -23.671,50.43 -0.387,7.62 4.261,8.28 11.25,-0.08 22.5,-31.09 57.812,3.83 54.921,32.81 -3.199,32.27 -36.949,73.99 -46.25,90.35 -14.019,20.82 -26.789,43.87 -26.789,43.87 z m 1315.269,-68.12 -34.69,-44.11 c 10,-14.49 33.79,-42.93 33.79,-42.93 l 32.89,42.5 -31.99,44.54 z m 0.31,-24.69 14.38,-18.6 -16.45,-19.41 -15.43,18.13 17.5,19.88 z m 1.29,-95.9 c 0,0 -41.95,-45.98 -32.3,-80.08 8.59,-30.39 54.33,-37.77 65.43,6.68 0.78,3.52 0.19,8.32 -0.31,14.26 -0.94,18.12 -32.82,59.14 -32.82,59.14 z m 0,-9.1 c 0,0 12.07,-17.46 20.55,-32.93 9.49,-14.73 11.99,-55.86 -21.76,-54.57 -18.28,-1.88 -35.74,22.23 -21.21,51.72 3.98,8.98 22.42,35.78 22.42,35.78 z m -692.458,-7.38 c 2.347,0.35 4.687,-4.69 6.168,-8.32 2,-5 -3.711,-19.34 -9.758,-26.45 -1.133,-1.21 -8.832,-1.87 -20.282,-7.73 -0.031,5.39 3.25,17.14 5.391,22.34 7.82,7.73 14.418,16.91 17.5,19.65 0.359,0.27 0.668,0.47 0.981,0.51 z m -83.59,-2.58 c 5.148,-5.82 10.226,-10.9 10.039,-14.53 -0.321,-5.28 -6.531,-11.8 -11.25,-16.45 -5.903,-5.86 -17.66,-2.38 -17.621,5.2 0,2.81 16.8,25.78 18.832,25.78 z m 177.578,-7.58 c 5,-2.7 10.031,-11.76 10.66,-15.9 -7.27,-39.3 -34.301,-87.34 -33.398,-85.55 0,0 -16.563,-2.96 -23.59,0.63 18.199,25.23 30.386,57.38 38.668,83.71 3.55,11.37 5.16,17.07 7.66,17.11 z m -15.36,-5.55 c 2.821,0.2 3.872,-2.07 1.571,-8.16 -10.711,-43.48 -34.77,-89.18 -53.68,-97.5 -24.801,-10.9 -49.492,-1.84 -60.07,16.83 -11.492,20.24 -9.422,52.11 28.789,59.11 22.5,2.3 45.539,-15.43 33.551,-43.91 -13.36,-21.17 -49.262,-9.38 -38.75,17.89 7.968,10 24.609,1.33 19.179,-9.96 -2.769,-5.74 -0.121,-9.26 3.981,-5.27 13.09,12.73 -8.43,34.61 -22.961,23.67 -23.68,-17.85 5.582,-57.11 33.121,-40.28 8.398,5.12 23.59,33.91 29.301,54.89 2.457,9.02 4.687,17.61 10.508,23.08 5.539,5.24 11.91,9.42 15.46,9.61 z M 767.461,1917 c 1.367,-0.04 2.93,-0.7 5.117,-1.79 2.774,-1.37 6.012,-3.83 5.621,-7.03 -0.429,-3.72 -2.539,-11.76 -6.789,-15.67 -2.539,0.9 -9.648,3.71 -14.461,5.04 -3.039,0.78 0.981,7.34 2.852,10.94 2.969,5.82 4.609,8.24 7.078,8.47 0.191,0.04 0.391,0.08 0.582,0.04 z m -78.121,-1.48 c 3.551,0.08 9.211,-3.87 12.961,-4.41 0.711,-5.4 -6.172,-16.96 -17.34,-30.59 -9.18,-11.21 -9.141,-11.21 -15.231,1.09 -3.949,8.01 -4.07,7.78 7.258,21.88 6.063,7.58 8.992,11.01 11.641,11.95 0.242,0.04 0.473,0.08 0.711,0.08 z m 35.461,-3.95 c 0.199,-2.89 -1.281,-9.25 -2.531,-12.93 -12.661,-37.89 -42.309,-75.43 -66.719,-84.64 -31.922,-10.39 -61.141,6.4 -61.879,45.11 0.816,45.63 55.156,58.28 71.558,16.68 7.43,-18.79 -12.769,-47.03 -30.23,-42.34 -17.621,4.76 -24.961,32.26 -10.43,39.06 9.489,4.45 19.34,-3.01 17.27,-13.12 -0.711,-3.48 -0.512,-3.99 1.519,-3.6 9.063,1.68 4.301,19.89 -6.41,24.42 -20.187,8.55 -35.469,-18.64 -21.828,-38.95 16.328,-24.26 41.988,-19.61 56.758,10.35 2.531,5.08 7.301,12.43 10.621,16.21 8.949,10.39 11.801,14.46 19.73,28.17 4.329,7.54 6.68,12.3 8.899,14.76 3.562,0.24 5.98,-0.74 13.672,0.82 z m 71.57,-1.99 c 3.828,-0.04 6.789,-2.5 6.68,-7.81 -0.039,-4.45 -6.41,-23.16 -9.379,-27.62 -1.133,-1.72 -3.793,-7.73 -4.184,-6.44 -3.75,12.46 -10.386,16.33 -11.367,19.57 -1.09,3.83 2.27,7.5 3.789,10.97 3.168,7.31 9.539,11.37 14.461,11.33 z m 67.457,-5.9 c 4.613,0.04 11.172,-2.07 12.5,-5.5 4.223,-7.43 -24.34,-76.41 -25.387,-76.61 l -21.332,0.94 c 12.813,27.5 24.141,54.77 32.379,81.02 0.551,0.08 1.172,0.15 1.84,0.15 z m 286.052,-109.18 27.11,-16.13 -178.709,-283.98 -25.98,19.88 177.579,280.23 z m -445.86,-5.89 c 166.921,-0.59 396.8,-0.32 396.8,-0.32 l -9.69,-18.4 c 0,0 -251.091,2.43 -387.11,2.19 l 0,16.53 z M 478.672,1777 478.32,1683.64 c 0,0 -1.25,0.55 -17.191,11.18 -19.098,12.69 -40.078,25.82 -46.828,29.25 -9.922,5.04 -8.641,7.5 10.5,19.69 18.789,11.29 53.871,33.24 53.871,33.24 z m 714.688,-9.25 16.8,-10.63 -187.78,-298.87 -10.47,20.47 181.45,289.03 z m -489.301,-4.18 26.14,0 0,-29.53 -26.14,0 0,29.53 z m 59.851,0 31.711,0 0,-29.53 -31.711,0 0,29.53 z m 69.328,-0.32 32.621,0 0,-29.53 -32.621,0 0,29.53 z m 68.012,-0.11 32.969,0 0,-29.53 -32.969,0 0,29.53 z m 68.551,-0.2 32.539,0 0,-29.53 -32.539,0 0,29.53 z m 68.599,-0.62 33.28,0 0,-20.78 -5.04,-8.75 -28.24,0 0,29.53 z m 179.41,-9.61 318.52,-206.06 -0.2,-28.44 -331.56,214.26 13.24,20.24 z m -20.86,-24.1 2.74,-1.96 -13.52,-20.66 -2.77,1.56 13.55,21.06 z m -491.989,-3.05 357.459,0 -10.74,-18.13 -346.719,0.51 0,17.62 z m -293.512,-9.22 c 2.422,0.16 7.102,-1.99 14.41,-6.09 17.582,-9.85 28.629,-30.67 21.051,-38.17 -6.75,-6.68 -22.57,7.62 -32.422,28.09 -5.187,10.86 -6.558,15.94 -3.039,16.17 z m 632.571,-17.85 -115.348,-184.34 c -26.051,35.74 -55.274,66.6 -119.102,45.71 -33.281,25.7 -68.48,29.68 -105.898,7.85 l 0.43,130.15 339.918,0.63 z m -593.711,-0.08 8.992,-7.77 c -2.66,-5.08 -3.871,-12.43 -5.59,-18.99 -0.121,8.99 -0.941,17.93 -3.402,26.76 z m 731.141,-1.91 355.35,-233.79 0,-21.68 -367.74,236.91 12.39,18.56 z m -778.29,-5.32 c 4.61,0.08 9.11,-1.87 12.5,-5.97 5.36,-6.45 3.129,-18.28 -4.41,-23.32 -15,-10.08 -33.051,9.41 -21.09,22.81 3.711,4.22 8.391,6.37 13,6.48 z m 58.828,-2.77 19.422,-15.55 c -33.68,-192.07 62.539,-386.01 269.762,-444.1 l 2.379,-24.61 c 0.398,-1.17 -88.039,26.25 -126.672,55.16 -52.82,35.74 -97.469,86.05 -128.207,144.57 -21.012,37.73 -32.5,79.26 -39.961,112.85 -8.789,57.62 -8.551,114.65 3.277,171.68 z m -22.027,-26.05 c 7.461,-0.32 8.238,-5.67 2.309,-15.98 -7.7,-13.24 -19.219,-22.46 -37.891,-30.31 -10.277,-4.34 -12.969,-2.39 -11.758,8.59 1.758,16.48 13.238,28.55 33.117,34.92 4.774,1.33 9.571,2.78 14.223,2.78 z m 57.148,-2.11 c 3.012,-2.54 3.981,-3.36 7.692,-6.53 -6.36,-2.18 -10.93,-8.16 -10.93,-15.27 0,-8.95 7.219,-16.21 16.168,-16.21 8.012,0 14.652,5.82 15.941,13.47 2.891,-2.5 5.622,-4.84 7.731,-6.67 -3.75,-9.42 -12.93,-16.06 -23.672,-16.06 -14.059,0 -25.469,11.41 -25.469,25.47 0,9.3 5.039,17.38 12.539,21.8 z m 12.93,-12.74 c 0.902,0 1.762,-0.15 2.539,-0.39 2.031,-1.72 3.672,-3.12 5.621,-4.8 0.59,-1.18 0.942,-2.5 0.942,-3.87 0,-5.04 -4.102,-9.1 -9.102,-9.1 -5,0 -9.059,4.06 -9.059,9.1 0,5 4.059,9.06 9.059,9.06 z m -61.129,-5.86 c -2.109,-24.76 -1.449,-50.66 -0.672,-76.6 -4.797,20.55 -15.468,35.9 -33.238,46.45 12.27,8.47 25.121,18.75 33.91,30.15 z m 93.36,-19.45 17.261,-14.92 c -14.84,-203.32 163.36,-280.47 168.168,-277.07 l 7.5,-23.01 c -123.051,41.87 -208.129,169.06 -192.929,315 z m 992.57,-487.46 -0.89,-25.63 c -139.65,54.18 -298.79,254.07 -296.76,445.59 -35.86,-54.96 -55.98,-91.64 -86.76,-141.13 l -24.49,11.68 c 40.27,60 78.59,124.18 118.98,183.16 4.61,6.64 8.36,9.69 8.56,-4.84 0,-65.9 20.43,-337.03 281.36,-468.83 z M 399.531,1606.3 c 4.489,0.31 10.899,-1.87 19.02,-7.3 12.777,-8.56 27.07,-35 22.109,-40.9 -4.449,-5.31 -23.359,0.97 -32.769,10.94 -18.59,19.72 -19.84,36.56 -8.36,37.26 z m 108.867,-2.66 c 14.063,0 25.473,-11.36 25.473,-25.43 0,-14.06 -11.41,-25.46 -25.473,-25.46 -14.058,0 -25.468,11.4 -25.468,25.46 0,14.07 11.41,25.43 25.468,25.43 z m 56.993,-2.42 16.64,-19.49 c 3.239,-170.62 137.93,-223.24 136.68,-223.67 l 4.059,-18.36 c -7.5,-1.06 -166.641,71.41 -157.379,261.52 z m -56.993,-6.79 c -8.949,0 -16.207,-7.27 -16.207,-16.22 0,-8.94 7.258,-16.17 16.207,-16.17 8.942,0 16.211,7.23 16.211,16.17 0,8.95 -7.269,16.22 -16.211,16.22 z m 0,-7.11 c 5,0 9.063,-4.07 9.063,-9.11 0,-5 -4.063,-9.06 -9.063,-9.06 -5,0 -9.058,4.06 -9.058,9.06 0,5.04 4.058,9.11 9.058,9.11 z m 86.051,-15.47 c 2.071,0 11.68,-13.95 11.68,-13.95 0,0 -10.539,-3.71 -15.109,0.9 -4.5,4.57 -2.071,13.09 3.429,13.05 z m 737.581,-6.29 24.96,-17.07 c 11.64,-115.12 77.58,-220.16 177.07,-293.01 l -0.62,-28.52 c -121.17,81.84 -188.4,193.05 -201.41,338.6 z m -935.151,-1.95 c 0.391,0 0.82,0 1.211,0 15.269,-0.28 21.711,-23.72 5.39,-30.43 -10.281,-4.26 -21.449,1.87 -22.539,12.3 -0.742,7.34 4.719,15.23 12.149,17.42 1.289,0.39 2.57,0.63 3.789,0.71 z m 208.281,-15.4 c 3.981,0 8.36,-2.3 12.461,-6.95 10.969,-12.34 10.859,-15.94 -0.711,-20.62 -16.25,-6.6 -29.719,2.57 -24.332,16.52 2.852,7.3 7.422,11.05 12.582,11.05 z m -166.332,-0.58 c 1.332,0.04 2.582,-0.16 3.711,-0.59 11.949,-4.65 -13.988,-52.22 -31.168,-57.03 -10.902,-3.05 -13.172,1.17 -9.609,17.89 3.937,18.52 24.328,39.46 37.066,39.73 z m 76.371,-1.09 c 14.063,0 25.461,-11.37 25.461,-25.43 0,-14.07 -11.398,-25.47 -25.461,-25.47 -14.027,0 -25.469,11.4 -25.469,25.47 0,14.06 11.442,25.43 25.469,25.43 z m 0,-9.22 c -8.949,0 -16.179,-7.27 -16.179,-16.21 0,-8.95 7.23,-16.22 16.179,-16.22 8.942,0 16.211,7.27 16.211,16.22 0,8.94 -7.269,16.21 -16.211,16.21 z m -63.64,-1.37 c 2.269,-23.56 6.101,-45.35 16.562,-74.34 -9.84,15.67 -23.82,23.48 -37.223,32.35 9.411,13.98 20.274,27.97 20.661,41.99 z m 63.64,-5.78 c 5.031,0 9.102,-4.06 9.102,-9.06 0,-5 -4.071,-9.07 -9.102,-9.07 -5,0 -9.07,4.07 -9.07,9.07 0,5 4.07,9.06 9.07,9.06 z m 144.141,-2.78 c 26.558,0.59 45.308,-21.28 44.18,-42.22 0.742,-24.34 1.64,-39.92 -0.36,-70.16 l -21.558,39.49 c -0.313,11.18 1.597,19.65 0.738,30.79 -2.461,29.92 -31.789,25.78 -33.16,22.81 l -9.301,15.04 c 6.801,2.81 13.32,4.14 19.461,4.25 z m 93.551,-3 c 24.879,0.04 39.3,-13.99 40.039,-38.91 1.449,-47.77 -1.09,-156.76 -1.09,-156.76 l -53.828,-0.04 -29.383,72.86 c 0,0 -1.168,6.99 -0.93,12.07 1.871,23.35 0.699,49.37 1.481,70.46 3.09,22.35 21.48,40.32 43.711,40.32 z m -124.571,-7.54 c 3.442,0.04 6.68,-1.02 9.102,-3.48 12.5,-12.62 12.418,-20.9 -0.231,-26.6 -16.722,-7.54 -25.429,-6.13 -31.14,5.08 -5.582,10.97 9.89,24.84 22.269,25 z m 784.77,-3.44 13.63,-8.83 c 0,0 -2.85,-4.45 -4.42,-7.15 -7.73,-13.32 5.43,-21.17 23.68,-14.06 3.32,1.25 6.09,3.09 6.09,3.09 l 11.29,-7.7 c 0,0 -8.13,-4.37 -16.99,-8.71 -22.78,-11.13 -39.14,-6.41 -44.61,12.89 -2.19,7.66 0,17.23 4.26,22.85 2.18,2.85 7.07,7.62 7.07,7.62 z m -577.43,-1.6 c 20.82,0.7 41.102,-15.59 45.899,-37.46 2.031,-10.24 -0.579,-145.67 -0.579,-145.67 l -82.66,0.04 1.45,142.07 c -0.551,8.99 0,17.89 4.839,24.26 9.063,11.33 20.121,16.37 31.051,16.76 z m -85.859,-6.21 c -16.68,-0.78 -26.172,-27.85 -8.981,-40.59 7.192,-5.31 7.34,-6.33 3.481,-24.33 -4.379,-20.55 0.148,-48.68 10.429,-64.5 7.848,-13.12 6.25,-6.44 2.219,5.28 -5.187,21.91 -2.648,38 10,63.47 11.332,21.45 22.27,54.46 -13.668,60.43 -1.172,0.16 -2.34,0.28 -3.48,0.24 z m 686.059,-6.21 7.46,-5.04 c 0,0 -1.13,-0.94 -2.73,-2.5 -2.97,-2.89 -8.95,-3.36 -10.75,-1.14 -3.04,3.68 6.02,8.68 6.02,8.68 z m -595.508,-10.47 c -17.93,0.58 -29.762,-32.7 -6.801,-40.74 5.199,-3.36 6.097,-7.78 2.859,-13.99 -4.379,-8.36 -8.711,-28.24 -8.051,-36.56 0.981,-11.92 4.02,-27.46 6.442,-32.85 6.019,-14.89 4.808,-8.95 3.25,8.24 -0.629,19.22 3.238,33.09 14.41,51.41 13.277,22.03 31.559,57.81 -10.352,64.33 -0.589,0.08 -1.168,0.12 -1.757,0.16 z m -308.75,-0.12 c 14.058,0 25.468,-11.37 25.468,-25.43 0,-14.06 -11.41,-25.47 -25.468,-25.47 -14.063,0 -25.473,11.41 -25.473,25.47 0,14.06 11.41,25.43 25.473,25.43 z m 118.046,-2.58 c 4.372,0.04 7.692,-2.89 11.68,-8.86 10.973,-16.37 9.723,-19.73 -11.449,-31.41 -22.457,-12.34 -37.5,18.71 -16.008,33.09 6.481,4.37 11.09,6.79 14.84,7.14 0.309,0.04 0.629,0.04 0.937,0.04 z m -233.089,-1.21 c 23.671,-0.27 60.671,-34.06 42.621,-38.98 -2.578,-0.71 -5.821,-1.17 -7.192,-1.1 -29.758,1.84 -63.867,40.36 -35.429,40.08 z m 115.043,-5.43 c -8.942,0 -16.211,-7.26 -16.211,-16.21 0,-8.94 7.269,-16.21 16.211,-16.21 8.949,0 16.207,7.27 16.207,16.21 0,8.95 -7.258,16.21 -16.207,16.21 z m 938.128,-4.8 11.83,-8.01 c 0,0 -7.22,-3.32 -15.74,-7.85 -23.09,-12.35 -29.8,-21.41 -21.84,-29.46 2.86,-2.89 6.22,-4.14 12.31,-1.83 16.01,6.21 30.94,17.15 45.86,25.82 l 8.9,-6.13 c -0.23,0.43 -35.31,-24.96 -54.49,-35.63 -30.11,-15.47 -47.3,16.13 -30.58,37.23 12.93,12.85 26.79,17.07 43.75,25.86 z m -938.128,-2.35 c 5,0 9.058,-4.06 9.058,-9.06 0,-5 -4.058,-9.06 -9.058,-9.06 -5,0 -9.063,4.06 -9.063,9.06 0,5 4.063,9.06 9.063,9.06 z m 956.598,-8.47 6.45,-4.34 c 0,0 -0.7,-0.35 -20.43,-11.68 -21.45,-12.3 -22.38,-12.54 -23.6,-10.58 -1.05,0.58 0.43,5.62 7.04,10.03 11.52,7.78 31.95,17.23 30.54,16.57 z m -558.399,-0.63 c 14.648,0.28 29.539,-6.68 38.051,-21.52 4.339,-11.29 4.687,-21.76 4.648,-33.6 l -0.352,-79.53 -83.238,0 c 0,0 -3.871,54.22 0,99.34 3.75,22.66 22.11,34.96 40.891,35.31 z M 671.25,1451.54 c 5.309,0.39 9.18,-4.77 14.219,-16.02 4.961,-11.13 1.25,-17.42 -14.418,-24.18 -1.949,-0.86 -4.211,-1.48 -5,-1.41 -15.781,1.49 -22.262,19.73 -10.891,30.78 7.031,6.88 11.988,10.55 16.09,10.83 z m 846.13,-8.13 7.23,-4.49 c 0,0 -3.71,-3.36 -30.59,-22.97 -21.72,-15.82 -24.84,-20.16 -20.31,-29.02 3.67,-7.19 11.6,-6.25 22.58,2.18 15.23,11.68 39.18,31.49 39.18,31.49 l 0.78,-13.52 c -15.78,-12.65 -34.8,-34.26 -49.92,-42.5 -29.22,-14.37 -50.2,25.12 -23.48,44.61 23.01,16.76 54.53,34.22 54.53,34.22 z m -584.411,-0.04 c -21.758,0.2 -29.848,-32.11 -6.449,-38.94 6.761,-3.64 6.179,-5.47 1.679,-21.57 -2.687,-9.76 -3.59,-21.75 -2.109,-29.37 1.762,-9.73 3.91,-9.53 3.012,0.94 0.039,5.7 5.937,20.93 11.796,30.5 21.68,30.24 16.012,58.17 -7.929,58.44 z m -506.989,-0.39 c 14.329,-0.08 22.379,-20.08 9.918,-28.71 -8.828,-6.09 -27.269,1.33 -27.226,10.98 0.039,8.24 6.527,16.05 14.379,17.46 1.008,0.19 1.949,0.27 2.929,0.27 z m 41.321,-1.68 c 4.5,0 7.109,-6.6 7.078,-19.73 -0.078,-18.78 -6.719,-35.15 -18.25,-44.72 -16.641,-13.87 -20.391,23.9 -4.801,48.86 6.481,10.43 11.953,15.59 15.973,15.59 z m 1065.359,-4.96 c 4.1,0.04 3.43,-3.09 -1.29,-6.37 -3.71,-2.58 -9.96,-7.69 -29.38,-24.06 -3.51,-2.97 -8.55,-6.87 -11.17,-8.63 -6.44,-4.3 -11.91,-3.21 -8.79,1.79 3.05,4.93 46.92,37.19 50.63,37.27 z m -975.629,-0.86 c 14.059,0 25.469,-11.37 25.469,-25.43 0,-14.06 -11.41,-25.47 -25.469,-25.47 -14.062,0 -25.472,11.41 -25.472,25.47 0,14.06 11.41,25.43 25.472,25.43 z m 0,-9.26 c -8.941,0 -16.211,-7.22 -16.211,-16.17 0,-8.94 7.27,-16.21 16.211,-16.21 8.949,0 16.207,7.27 16.207,16.21 0,8.95 -7.258,16.17 -16.207,16.17 z m -304.57,-0.47 c 172.269,-87.07 279.648,-250 306.129,-435.578 l 83.68,132.728 22.609,-8.55 -121.949,-198.709 -5.27,1.64 c -0.512,194.139 -97.269,377.809 -285.59,478.589 l 0.391,29.88 z m 304.57,-6.64 c 5,0 9.059,-4.06 9.059,-9.06 0,-5 -4.059,-9.1 -9.059,-9.1 -5,0 -9.062,4.1 -9.062,9.1 0,5 4.062,9.06 9.062,9.06 z m -71.09,-1.05 c 7.539,-16.64 16.719,-34.14 30.86,-54.1 -14.34,13.47 -30.039,12.93 -45.59,14.96 l 14.73,39.14 z m 204.797,-3.6 c 2.703,0.12 5.352,-1.01 7.422,-3.86 7.07,-9.69 8.36,-18.67 3.481,-23.52 -6.719,-6.64 -17.422,-4.02 -22.231,5.43 -5.031,9.85 3.32,21.56 11.328,21.95 z m 844.732,-13.47 0.27,-15.04 c 0,0 -3.24,-3.87 -6.64,-7.03 -9.57,-8.99 -22.69,-23.32 -23.63,-26.96 -3.09,-11.87 8.67,-16.25 20.23,-7.53 3.99,3 9.77,7.61 9.77,7.61 l 0,-18.55 c -9.77,-8.32 -19.49,-16.45 -32.85,-13.79 -7.74,2.38 -14.57,8.48 -15.98,16.29 -5.59,23.36 17.07,36.4 34.61,52.03 5.66,5.04 14.22,12.97 14.22,12.97 z m -942.579,-13.13 c 0.429,0.04 0.859,0 1.289,0 14.058,0 25.468,-11.36 25.468,-25.43 0,-14.06 -11.41,-25.47 -25.468,-25.47 -14.02,0 -25.469,11.41 -25.469,25.47 0,13.64 10.738,24.77 24.18,25.43 z m 511.409,-5.7 c 13.86,0.04 21.21,-18.63 10.04,-29.22 -4.38,-4.18 -14.3,-7.15 -19.89,-3.2 -15.47,10.74 -4.1,31.72 9.85,32.42 z m -27.7,-14.84 c 8.05,-8.52 14.1,-33.25 9.38,-37.93 -10.47,-10.82 -40.86,25.11 -39.07,48.63 3.25,14.06 26.72,-7.54 29.69,-10.7 z m -372.19,13.51 c 5.82,-0.04 6.918,-5.27 5.59,-8.36 -1.25,-2.93 -5.82,-3.16 -9.449,-1.68 -6.141,2.54 -3.25,10.08 3.859,10.04 z m -110.23,-2.19 c -8.95,0 -16.168,-7.26 -16.168,-16.21 0,-8.94 7.218,-16.21 16.168,-16.21 8.941,0 16.211,7.27 16.211,16.21 0,8.95 -7.27,16.21 -16.211,16.21 z m -121.211,-7.14 c 30.703,-0.04 63.121,-24.22 34.922,-29.03 -20.903,-3.55 -34.493,0.59 -50.782,15.47 -8.281,7.54 -5.308,11.56 9.731,13.24 2.031,0.24 4.058,0.32 6.129,0.32 z m 121.211,0 c 5.039,0 9.101,-4.07 9.101,-9.07 0,-5 -4.062,-9.06 -9.101,-9.06 -5,0 -9.059,4.06 -9.059,9.06 0,5 4.059,9.07 9.059,9.07 z m 42.539,-23.05 c 0.429,0.04 0.902,0 1.332,0 14.058,0 25.469,-11.37 25.469,-25.43 0,-14.02 -11.411,-25.47 -25.469,-25.47 -14.071,0 -25.473,11.45 -25.473,25.47 0,13.63 10.703,24.77 24.141,25.43 z m 500.471,-1.29 c 7.26,0.16 13.67,-1.21 17.34,-4.61 4.49,-4.1 -2.26,-12.03 -16.09,-18.75 -16.14,-7.89 -44.26,-6.8 -44.22,1.72 0.04,11.29 24.41,21.33 42.97,21.64 z m -613.088,-6.68 c 14.097,-0.08 17.929,-43.83 5.668,-64.8 -6.372,-10.9 -14.93,-3.64 -21.059,17.85 -5,17.61 4.609,47.03 15.391,46.95 z m 113.949,-1.25 c -8.949,0 -16.211,-7.27 -16.211,-16.21 0,-8.95 7.262,-16.17 16.211,-16.17 8.937,0 16.211,7.22 16.211,16.17 0,8.94 -7.274,16.21 -16.211,16.21 z m 527.689,-2.85 c 1.21,-0.04 2.74,-0.63 4.77,-1.6 15.39,-7.58 26.6,-42.89 18.55,-58.64 -8.44,-16.6 -27.46,15.32 -27.3,45.82 0.08,10 0.7,14.03 3.47,14.38 0.16,0 0.36,0.04 0.51,0.04 z m -681.681,-2.27 c 0.351,0 0.671,0 0.98,0 13.941,-0.35 24.063,-19.61 10.981,-29.49 -5.75,-4.33 -14.571,-5.04 -20,-1.56 -10.711,6.8 -10.122,23.32 1.011,29.1 2.379,1.21 4.77,1.88 7.028,1.95 z m 153.992,-1.99 c 5,0 9.058,-4.06 9.058,-9.1 0,-5 -4.058,-9.06 -9.058,-9.06 -5,0 -9.071,4.06 -9.071,9.06 0,5.04 4.071,9.1 9.071,9.1 z m -95.16,-3.05 c 7.66,-11.36 38.558,-41.32 42.808,-43.9 -13.629,4.41 -27.687,2.54 -41.75,0.66 1.602,10.39 3.281,27.38 -1.058,43.24 z m 496.519,-2.57 c 209.42,-49.03 337.23,-271.25 286.72,-479.73 0,0 -17.65,9.839 -20.43,14.57 7.39,36.051 11.96,93.199 2.7,150.62 -15.74,97.47 -94.73,240.47 -267.78,289.54 -1.91,6.29 -1.21,25 -1.21,25 z m 112.82,-1.53 c 2.38,-14.26 4.65,-28.63 8.16,-41.48 -14.73,10.62 -31.44,19.72 -48.55,27.07 12.22,2.58 23.36,4.73 40.39,14.41 z m 60.39,-4.61 c 8.36,0.24 16.83,-5.7 16.64,-15.97 -0.08,-4.53 -4.92,-12.66 -8.64,-14.57 -13.94,-7.11 -28.2,6.44 -22.07,20.89 2.74,6.49 8.36,9.54 14.07,9.65 z m -526.14,-5.5 c 14.071,0 25.469,-11.37 25.469,-25.43 0,-14.07 -11.398,-25.47 -25.469,-25.47 -14.058,0 -25.46,11.4 -25.46,25.47 0,14.06 11.402,25.43 25.46,25.43 z m 0,-9.22 c -8.941,0 -16.21,-7.27 -16.21,-16.21 0,-8.95 7.269,-16.18 16.21,-16.18 8.95,0 16.219,7.23 16.219,16.18 0,8.94 -7.269,16.21 -16.219,16.21 z m -433.359,-2.43 c 104.07,-61.44 197.43,-192.03 204.34,-339.722 L 432.27,979.93 c -10.86,99.5 -61.758,207.74 -179.969,296.49 0,0 0.32,9.53 0.82,26.79 z m 576.219,0 134.531,0 0,-28.98 40.309,20.74 0,-64.1 -40.309,24.42 0,-27.97 -134.531,0 0,29.41 -41.18,-19.92 0.469,63.83 40.711,-22.89 0,25.46 z m -142.86,-4.68 c 5,0 9.071,-4.1 9.071,-9.1 0,-5 -4.071,-9.07 -9.071,-9.07 -5,0 -9.058,4.07 -9.058,9.07 0,5 4.058,9.1 9.058,9.1 z m 52.899,-5.12 c 0.152,0.04 0.351,0 0.5,0 l 1.601,-9.22 c -0.269,0 -0.5,0.04 -0.781,0.04 -8.937,0 -16.211,-7.27 -16.211,-16.21 0,-8.95 7.274,-16.17 16.211,-16.17 2.153,0 4.223,0.39 6.102,1.17 l 1.558,-9.3 c -2.418,-0.74 -4.961,-1.17 -7.66,-1.17 -14.058,0 -25.469,11.45 -25.469,25.47 0,13.63 10.711,24.73 24.149,25.39 z m 303.821,-3.2 c 0.43,0.04 0.86,0 1.33,0 14.06,0 25.47,-11.37 25.47,-25.43 0,-12.07 -8.44,-22.15 -19.73,-24.77 l -1.52,9.18 c 6.87,1.84 11.95,8.13 11.95,15.59 0,8.94 -7.22,16.21 -16.17,16.21 -0.39,0 -0.74,-0.04 -1.09,-0.04 l -1.56,9.14 c 0.42,0.04 0.85,0.12 1.32,0.12 z m 178.6,-8.6 c 31.4,-0.15 44.41,-18.2 18.67,-25.86 -11.92,-3.55 -27.54,-1.68 -42.93,5.16 -12.89,5.7 4.84,20.82 24.26,20.7 z m -656.53,-1.72 c 7.621,0.04 14.96,-1.13 20.39,-3.71 13.129,-6.25 12.82,-10.47 -1.211,-18.55 -19.57,-11.29 -65.699,0.16 -51.75,12.81 6.563,5.98 19.922,9.42 32.571,9.45 z m 175.429,-2.77 c 0.711,0 1.371,-0.12 2.031,-0.23 l 2.821,-16.53 c -1.41,-0.9 -3.051,-1.4 -4.852,-1.4 -5,0 -9.058,4.06 -9.058,9.06 0,5.04 4.058,9.1 9.058,9.1 z m 303.911,-3.24 c 4.96,-0.08 8.98,-4.1 8.98,-9.1 0,-3.95 -2.54,-7.27 -6.05,-8.52 l -2.93,17.62 z m 55.39,-6.52 c 14.06,0 25.47,-11.37 25.47,-25.43 0,-14.03 -11.41,-25.47 -25.47,-25.47 -14.06,0 -25.47,11.44 -25.47,25.47 0,14.06 11.41,25.43 25.47,25.43 z m -495.781,-6.41 c 1.48,0.08 3.203,-0.63 5.043,-2.11 15.269,-12.46 22.847,-38.87 16.867,-58.52 -5.738,-18.75 -29.527,14.54 -29.41,41.06 0.082,12.26 2.972,19.33 7.5,19.57 z m 659.371,-2.23 c 2.11,0 4.34,-1.6 6.53,-5.27 9.49,-15.78 9.06,-48.4 -0.78,-58.52 -5.55,-5.78 -7.62,-4.68 -13.44,7.07 -9.92,20.08 -2.42,56.8 7.69,56.72 z M 1100,1258.14 c -8.95,0 -16.21,-7.27 -16.21,-16.21 0,-8.95 7.26,-16.18 16.21,-16.18 8.95,0 16.21,7.23 16.21,16.18 0,8.94 -7.26,16.21 -16.21,16.21 z m -475.551,-4.34 c 19.223,-12.15 38.91,-23.2 59.379,-32.42 -19.18,4.53 -33.316,-1.92 -47.93,-10.59 2.813,16.02 -2.66,29.07 -11.449,43.01 z m 577.821,-3.44 c 14.33,-2.03 28.51,-4.37 45.15,-1.25 -3.08,-14.1 -4.18,-28.43 -2.81,-43.12 -12.38,16.01 -26.17,31.01 -42.34,44.37 z m -102.27,0.67 c 5,0 9.06,-4.07 9.06,-9.1 0,-5 -4.06,-9.07 -9.06,-9.07 -5,0 -9.06,4.07 -9.06,9.07 0,5.03 4.06,9.1 9.06,9.1 z m -525.078,-6.29 c 2.808,-0.04 5.816,-0.82 8.949,-2.38 11.789,-5.79 12.149,-20.04 0.66,-27.54 -14.41,-9.38 -33.203,7.11 -24.222,21.25 3.441,5.43 8.089,8.36 13.402,8.63 0.391,0.04 0.777,0.08 1.211,0.04 z m 576.168,-10.63 c 14.07,0 25.47,-11.36 25.47,-25.43 0,-14.06 -11.4,-25.47 -25.47,-25.47 -14.06,0 -25.47,11.41 -25.47,25.47 0,14.07 11.41,25.43 25.47,25.43 z m 148.99,-4.25 c 2.42,0.03 5,-0.51 7.54,-1.84 9.06,-4.77 10.93,-16.76 3.75,-23.79 -7.97,-7.77 -18.87,-6.44 -24.22,2.97 -6.13,10.74 2.26,22.46 12.93,22.66 z m -245.67,-3.75 c 125.36,-42.7 209.3,-182.15 189.07,-316.372 l -15.63,14.762 c 11.92,76.1 -29.88,221.45 -169.49,281.14 l -3.95,20.47 z m 96.68,-1.22 c -8.94,0 -16.21,-7.26 -16.21,-16.21 0,-8.94 7.27,-16.21 16.21,-16.21 8.95,0 16.18,7.27 16.18,16.21 0,8.95 -7.23,16.21 -16.18,16.21 z m 0,-7.14 c 5,0 9.07,-4.07 9.07,-9.07 0,-5 -4.07,-9.06 -9.07,-9.06 -5,0 -9.06,4.06 -9.06,9.06 0,5 4.06,9.07 9.06,9.07 z m -476.641,-1.61 c 6.41,-0.54 17.192,0.59 19.731,-5.43 2.851,-7.61 -12.77,-20.82 -32.621,-23.39 -8.079,-0.47 -25.387,-2.54 -29.02,3.28 -3.437,7.26 19.922,25.35 41.91,25.54 z m -397.929,-4.45 c 16.96,0.74 36.058,-21.91 18.91,-40.39 -13.75,-14.22 -41.84,-33.59 -41.84,-33.59 l 0,12.46 c 0,0 27.539,20.12 27.969,29.18 0.082,10.51 -8.59,16.44 -18.239,10.11 -1.91,-1.25 -9.492,-7.38 -9.492,-7.38 l 0.621,20.86 c 5.121,5.59 14.18,8.4 22.071,8.75 z m 432.89,-5.31 c 12.539,-0.47 41.68,-45.39 34.262,-54.57 -5.863,-7.31 -29.531,8.87 -38.402,26.21 -4.758,9.3 -3.36,25.9 2.429,28.09 0.5,0.19 1.09,0.31 1.711,0.27 z m 193.711,-5.43 c 0,0 1.289,-104.49 -4.57,-114.38 -23.551,-42.61 -74.371,-20.43 -78.711,11.53 -3.121,19.26 -1.25,102.65 -1.25,102.65 l 84.531,0.2 z m 7.469,0 81.211,0 c 0,0 -0.391,-147.07 -3.641,-155.51 -2.691,-6.87 -14.488,-18.71 -21.871,-21.95 -23.867,-10.43 -49.379,4.37 -55.668,32.26 -4.57,20.12 -0.031,145.2 -0.031,145.2 z m 88,0 53.91,0 c 0,0 1.84,-7.81 3.98,-14.22 3.75,-11.17 16.45,-43.2 17.93,-45.19 6.57,-8.79 6.92,-104.93 0.39,-115.86 -23.78,-35.668 -63.35,-25.28 -77.812,14.21 -3.629,12.62 1.602,161.06 1.602,161.06 z m 62.86,-3.63 c 96.71,-45.94 170.7,-143.32 161.44,-268.281 l -17.77,17.731 c 6.48,86.25 -59.18,194.02 -135.78,226.09 l -7.89,24.46 z m 133.16,-2.93 c 14.02,0 25.47,-11.41 25.47,-25.43 0,-14.07 -11.45,-25.47 -25.47,-25.47 -14.06,0 -25.47,11.4 -25.47,25.47 0,14.02 11.41,25.43 25.47,25.43 z m 95.35,-2.62 c 9.45,-0.12 21.02,-3.4 29.65,-10.51 10.35,-8.51 11.8,-15.23 3.75,-17.73 -15.47,-4.77 -34.06,-0.16 -45.7,11.36 -10.86,10.67 -1.53,17.11 12.3,16.88 z m -95.35,-6.64 c -8.95,0 -16.21,-7.23 -16.21,-16.17 0,-8.95 7.26,-16.21 16.21,-16.21 8.91,0 16.17,7.26 16.17,16.21 0,8.94 -7.26,16.17 -16.17,16.17 z m -509.45,-2.03 c 13.551,-0.08 19.801,-19.18 9.371,-28.83 -4.261,-3.95 -15.902,-4.81 -20.98,-1.52 -13.903,9.02 -5.742,30.43 11.609,30.35 z m 179.289,-4.85 c -4.488,-12.93 -11.719,-27.5 -17.687,-37.46 -16.024,-26.68 -13.91,-44.57 2.968,-53.63 24.84,-13.24 42.848,22.38 18.391,36.37 -8.59,4.88 -8.59,4.96 -5.461,18.16 3.86,16.52 4.531,36.21 1.789,36.56 z m 330.161,-0.23 c 5,0 9.06,-4.06 9.06,-9.06 0,-5.04 -4.06,-9.1 -9.06,-9.1 -5.04,0 -9.1,4.06 -9.1,9.1 0,5 4.06,9.06 9.1,9.06 z m -243.13,-5.23 c -1.128,0.07 -0.269,-6.57 -0.351,-18.36 -0.109,-19.03 -1.719,-24.81 -13.859,-50.32 -15.551,-32.57 -13.481,-54.84 5.781,-62.03 14.961,-5.62 29.488,5.82 29.57,23.28 0.039,8.28 -3.672,14.81 -9.34,16.49 -5.16,0.35 -10.859,2.73 -10.472,5.19 3.171,19.46 20,56.1 -1.329,85.75 z m 321.22,-2.62 c 12.53,-7.93 25.46,-15.43 44.18,-16.37 -7.97,-19.1 -7.15,-33.09 -8.48,-48.32 -8.01,20.51 -20.35,43.24 -35.7,64.69 z m -958.95,-3.01 c 0.98,0.04 1.988,-0.04 3.012,-0.2 11.988,-1.83 22.148,-17.22 18.898,-28.71 -2.808,-10 -3.672,-11.68 -42.34,-37.5 -21.48,-14.33 -23.711,-14.96 -23.711,-14.96 l -11.519,7.78 c 0,0 9.762,6.48 25.148,16.83 29.692,19.96 34.063,24.69 31.024,33.64 -3.321,9.64 -14.422,7.61 -31.992,-5.9 -25.942,-20 -28.68,-21.29 -28.68,-21.29 l 0,11.91 c 0,0 11.41,9.06 16.332,13.32 12.027,8.56 28.668,24.92 43.828,25.08 z m 768.36,-5.2 c 2.93,0.04 5.16,-2.69 4.14,-5.27 -0.47,-1.25 -2.19,-2.03 -4.45,-2.03 -4.65,0.04 -4.89,6.64 -0.28,7.27 0.2,0.03 0.39,0.03 0.59,0.03 z m 260.74,-13.86 c 5.51,-18.83 -6.33,-50.24 -13.55,-54.22 -7.7,-7.62 -12.5,-0.35 -14.18,19.33 0.04,16.02 18.36,65.98 27.73,34.89 z m -309.18,10.54 c 2.38,-27.1 3.24,-49.64 -9.49,-71.68 -16.48,-28.55 -12.23,-53.04 5.43,-58.43 17.58,-5.39 33.12,7.18 30,24.29 -0.94,5.24 -8.13,13.79 -12.5,14.93 -5.43,1.36 -6.06,4.72 -2.97,15.46 5.94,20.86 3.95,47.23 -5.04,66.29 -0.86,2.86 -4.14,9.26 -5.43,9.14 z m 59.18,-9.02 c 14.81,-0.08 21.8,-19.37 10.7,-29.53 -6.17,-5.66 -10.11,-3.13 -16.6,10.78 -5.97,12.89 -4.14,18.79 5.9,18.75 z m 138.09,-3.94 c 14.06,0 25.47,-11.41 25.47,-25.43 0,-14.07 -11.41,-25.47 -25.47,-25.47 -14.06,0 -25.47,11.4 -25.47,25.47 0,14.02 11.41,25.43 25.47,25.43 z m 0,-9.26 c -8.95,0 -16.21,-7.23 -16.21,-16.17 0,-8.95 7.26,-16.21 16.21,-16.21 8.94,0 16.21,7.26 16.21,16.21 0,8.94 -7.27,16.17 -16.21,16.17 z m 0,-7.11 c 5,0 9.06,-4.06 9.06,-9.06 0,-5.04 -4.06,-9.11 -9.06,-9.11 -5,0 -9.06,4.07 -9.06,9.11 0,5 4.06,9.06 9.06,9.06 z m -109.26,-6.68 c 2.07,0.08 4.1,-0.27 5.98,-1.17 13.39,-6.49 11.95,-25.08 -2.86,-36.17 -9.37,-7 -13.32,-4.58 -22.07,13.55 -4.72,9.84 7.7,23.32 18.95,23.79 z m -777.578,-2.11 c 1.367,-0.04 2.617,-0.27 3.867,-0.59 13.832,-3.82 22.582,-19.96 19.14,-32.22 -7.66,-18.87 -33.48,-25.24 -53.05,-33.17 l -10.188,7.42 c 0,0 14.367,8.17 28.32,14.61 13.079,6.02 15.188,8.4 14.219,16.02 -1.922,14.8 -9.07,14.26 -41.57,-3.24 -13.199,-7.11 -22.93,-13.4 -22.93,-13.4 l -7.18,5.9 c 10.739,7.07 17.18,11.01 28.942,19.02 19.609,13.44 30.816,19.22 39.027,19.61 0.461,0 0.93,0.04 1.403,0.04 z m 1033.008,-10.98 c 4.73,-14.37 -4.92,-26.99 -19.45,-21.33 -7.89,3.05 -13.48,13.13 -8.6,22.47 6.56,10.27 24.89,8.47 28.05,-1.14 z m -291.52,4.96 22.89,-41.09 c 0,0 0.31,-11.45 0.5,-17.81 0.9,-26.68 6.61,-35.51 22.23,-32.93 1.13,0.19 6.68,1.79 6.68,1.79 l 9.96,-16.75 c 0,0 -10.74,-4.69 -13.55,-5.28 -18.4,-3.86 -43.87,9.96 -47.85,28.44 -3.83,17.89 -0.86,83.63 -0.86,83.63 z m -749.731,-16.87 c 6.911,-0.51 3.981,-5.78 0.782,-7.5 -13.442,-6.88 -26.129,-14.3 -40.161,-22.38 l -9.371,5.82 c 0,0 7.231,4.02 12.231,7.11 15.39,9.45 31.051,16.71 36.519,16.95 z m 919.761,-5.27 c 14.07,0 25.47,-11.41 25.47,-25.43 0,-14.07 -11.4,-25.47 -25.47,-25.47 -14.06,0 -25.46,11.4 -25.46,25.47 0,14.02 11.4,25.43 25.46,25.43 z m -107.73,-3.52 c 5.86,0.2 10.74,-2.34 13.91,-7.62 6.79,-11.29 -0.39,-25.08 -16.88,-32.42 -9.22,-4.1 -10.78,-3.24 -20.58,11.29 -6.64,9.84 -6.61,11.64 0.74,17.89 8.24,7.03 16.17,10.7 22.81,10.86 z m -893.831,-2.23 364.73,-236.169 -10.391,-17.652 -353.628,231.481 -0.711,22.34 z m 1083.751,-3.04 c 22.15,-0.43 51.1,-26.1 40.86,-36.21 -1.09,-1.1 -3.2,-1.88 -4.72,-1.8 -31.65,1.87 -66.57,38.59 -36.14,38.01 z m -82.19,-0.47 c -8.94,0 -16.21,-7.23 -16.21,-16.17 0,-8.95 7.27,-16.22 16.21,-16.22 8.95,0 16.22,7.27 16.22,16.22 0,8.94 -7.27,16.17 -16.22,16.17 z m -487.1,-4.49 9.64,-25.12 L 596.641,764.5 578.828,775.949 768.52,1078.61 z m 487.1,-2.62 c 5,0 9.07,-4.06 9.07,-9.06 0,-5.04 -4.07,-9.11 -9.07,-9.11 -5,0 -9.06,4.07 -9.06,9.11 0,5 4.06,9.06 9.06,9.06 z m 66.65,-3.01 c 8.9,-16.52 23.71,-26.68 40.54,-33.75 -15.9,-13.12 -23.9,-30.16 -23.28,-47.929 -4.02,26.679 -7.5,53.239 -17.26,81.679 z m -959.61,-8.71 c 3.899,-0.04 7.418,-0.86 10.192,-2.77 34.027,-23.29 2.769,-46.37 -0.122,-44.54 l -11.601,7.31 c 3.992,6.6 13.051,15.55 -1.52,23.91 -8.238,3.59 -17.418,-0.75 -25.468,-6.29 l -12.153,8.32 c 0,0 23.832,14.18 40.672,14.06 z m 802.22,-13.2 c 1.29,0.04 2.54,-0.04 3.79,-0.28 19.18,-3.71 17.85,-24.1 -2.22,-33.51 -11.41,-5.39 -13.4,-4.3 -23.36,12.81 -4.69,8.05 9.41,20.59 21.79,20.98 z m -808.36,-7.46 c 2.07,-0.08 4.652,-1.84 4.96,-3.52 1.02,-5.35 -8.902,-10.74 -8.902,-10.74 l -11.367,7.54 c 4.84,2.69 9.918,6.32 15.309,6.72 z m 1023.01,-4.89 c 2.77,0.2 4.81,-1.13 5.63,-4.45 3.86,-15.82 -13.71,-45.2 -29.93,-49.961 -9.49,-2.77 -12.22,1.679 -9.14,14.8 4.38,18.441 23.48,38.831 33.44,39.611 z m -588.319,-1.25 29.527,-21.4 -177.218,-280.121 -30.668,18.242 178.359,283.279 z m 482.269,-2.26 c 14.02,0 25.47,-11.37 25.47,-25.43 0,-14.03 -11.45,-25.471 -25.47,-25.471 -14.07,0 -25.47,11.441 -25.47,25.471 0,14.06 11.4,25.43 25.47,25.43 z m 0,-9.22 c -8.95,0 -16.21,-7.27 -16.21,-16.21 0,-8.95 7.26,-16.171 16.21,-16.171 8.94,0 16.17,7.221 16.17,16.171 0,8.94 -7.23,16.21 -16.17,16.21 z m 0,-7.11 c 5,0 9.06,-4.06 9.06,-9.1 0,-5 -4.06,-9.07 -9.06,-9.07 -5.04,0 -9.1,4.07 -9.1,9.07 0,5.04 4.06,9.1 9.1,9.1 z m -407.23,-0.94 c 19.219,-21.678 40.82,-70.19 116.25,-47.299 25.7,-20.942 61.21,-32.852 104.92,-9.61 l 0.31,-130.711 -334.878,-0.351 113.398,187.971 z m -611.719,-3.32 329.848,-217.108 -10.32,-18.203 -319.84,204.371 0.312,30.94 z m 925.979,-0.19 c 0.31,0 0.58,-0.04 0.82,-0.08 16.87,-4.14 18.75,-20.979 3.08,-27.42 -8.39,-3.481 -10.11,-2.621 -18.12,9.179 -3.17,4.681 -5,8.591 -4.53,9.761 1.13,2.89 14.02,8.59 18.75,8.56 z m 211.64,-17.86 c 5.9,-0.031 11.76,-3.16 14.53,-9.289 4.1,-9.261 1.72,-16.992 -6.8,-22.109 -14.06,-8.524 -29.84,7.066 -22.5,22.297 2.93,6.101 8.87,9.14 14.77,9.101 z m -206.53,-17.73 c 7.78,-0.039 14.3,-7.461 10.55,-11.949 -2.54,-3.012 -5.74,-2.153 -9.88,2.609 -4.84,5.59 -5.12,9.379 -0.67,9.34 z m 94.58,-3.238 c 14.06,0 25.46,-11.372 25.46,-25.43 0,-14.063 -11.4,-25.473 -25.46,-25.473 -14.07,0 -25.47,11.41 -25.47,25.473 0,14.058 11.4,25.43 25.47,25.43 z m 71.75,-1.411 c 19.18,-0.121 45.78,-32.152 41.25,-49.761 -1.48,-5.75 -12.22,-2.621 -25.04,7.179 -17.26,13.321 -28.47,42.661 -16.21,42.582 z m -71.75,-7.812 c -8.95,0 -16.22,-7.27 -16.22,-16.207 0,-8.953 7.27,-16.211 16.22,-16.211 8.94,0 16.17,7.258 16.17,16.211 0,8.937 -7.23,16.207 -16.17,16.207 z m 61.68,-3.277 c 5.31,-15.551 10.74,-31.723 34.68,-42.93 -37.15,-17.313 -44.26,-46.453 -38.67,-83.793 l -8.67,5.312 c 7.93,33.481 13.98,71.598 12.66,121.411 z m -61.68,-3.872 c 5,0 9.06,-4.058 9.06,-9.058 0,-5 -4.06,-9.063 -9.06,-9.063 -5,0 -9.11,4.063 -9.11,9.063 0,5 4.11,9.058 9.11,9.058 z m -4.73,-40.859 c 14.02,0 25.47,-11.371 25.47,-25.43 0,-8.902 -4.57,-16.722 -11.49,-21.293 l -8.2,6.141 c 6.09,2.34 10.39,8.242 10.39,15.152 0,8.95 -7.23,16.207 -16.17,16.207 -8.52,0 -15.47,-6.597 -16.13,-14.957 l -8.25,6.168 c 3.17,10.43 12.89,18.012 24.38,18.012 z m 115.86,-3.242 c 12.11,-0.078 -6.72,-33.668 -24.03,-42.848 -13.16,-6.961 -25.23,-7.5 -25.19,-1.14 0.12,16.718 30.7,44.07 49.22,43.988 z M 1275.47,902 c 5,0 9.06,-4.059 9.06,-9.059 0,-5 -4.06,-9.062 -9.06,-9.062 -5,0.512 -9.02,4.449 -9.1,9.062 0,5 4.06,9.059 9.1,9.059 z m 111.95,-30.621 c 5.98,-0.078 11.88,-2.66 14.42,-7.699 3.24,-6.52 1.99,-12.34 -3.99,-18.239 -14.65,-14.492 -34.57,0.387 -25,18.668 2.62,4.961 8.6,7.352 14.57,7.27 z m -46.83,-13.629 c 20.39,-0.672 35.86,-26.02 32.14,-40.391 -3.2,-3.789 -25.7,13.243 -28.12,15 -2.85,5.071 -3.05,13.282 -4.02,25.391 z m -27.82,-15.75 63.95,-38.43 -63.79,-40.941 -0.16,79.371 z m -569.219,-19.02 343.359,-1.25 0.04,-14.41 -352.77,-0.199 9.371,15.859 z m -13.981,-22.582 23.051,0 0,-28.117 -31.68,0 0,15.539 8.629,12.578 z m 329.92,-0.66 27.78,0 0,-28.129 -27.78,0 0,28.129 z m -272.541,-0.199 31.602,0 0,-28.117 -31.602,0 0,28.117 z m 65.75,-0.23 34.18,0 0,-28.129 -34.18,0 0,28.129 z m 69.879,0 32.852,0 0,-28.129 -32.852,0 0,28.129 z m 70.192,-0.469 31.29,0 0,-28.129 -31.29,0 0,28.129 z m -285.891,-34.649 380.821,-0.902 0,-16.867 -391.72,0.898 10.899,16.871 z M 1031.8,728.68 c 38.79,0.429 61.36,-42.852 31.05,-73.239 -27.85,-27.929 -74.299,7.739 -51.13,39.137 12.97,17.543 44.8,3.402 36.87,-15.269 -5.23,-12.309 -22.38,-6.598 -21.87,6.761 0.04,5.352 -3.91,1.68 -4.38,-3.992 -0.58,-7.219 6.84,-15.187 15.43,-15.226 22.54,-0.043 25.9,29.757 4.22,40.738 -19.37,9.769 -39.8,-2.699 -44.49,-27.461 -0.512,-2.699 -3.711,-9.488 -6.129,-14.258 -7.191,-14.371 -9.492,-22.691 -13.09,-39.101 -1.64,-2.071 -6.679,-5.348 -10.16,-7.11 -11.051,-5.512 -10.582,-3.16 -6.441,14.801 11.91,51.801 31.371,85.16 55.2,91.918 5.15,1.48 10.15,2.23 14.92,2.301 z m 114.68,-2.731 c 23.95,0.551 41.96,-19.179 45.12,-34.41 13.75,-46.367 -47.81,-74.769 -69.26,-32.777 -11.99,24.027 12.86,52.66 35.59,41.488 18.63,-9.109 17.42,-37.539 -1.6,-37.43 -10.31,-0.461 -16.6,8.789 -10.9,16.25 2.93,2.93 6.48,0.629 7.97,5.551 0.62,2.07 -2.31,3.707 -9.34,2.27 -11.68,-2.391 -10.51,-25.903 3.05,-30.59 20.16,-6.992 37.42,14.301 27.81,35.308 -11.56,25.321 -42.81,25.391 -57.07,-1.05 -2.11,-3.829 -5.35,-9.34 -7.15,-11.758 -21.29,-28.942 -22.97,-33.281 -29.33,-49.371 -0.63,-1.61 -1.76,-2.821 -3.67,-2.578 -5.86,0 -11.65,-1.293 -15.59,-2.813 -2.66,0.699 0.9,10.82 1.13,11.602 14.53,44.839 51.84,89.25 83.24,90.308 z m -185.5,-12.578 c -5.082,-8.793 -20.281,-37.422 -30.82,-79.691 -2.781,1.718 -10.238,4.851 -15.629,6.718 -2.07,0.711 -0.39,3.09 -0.511,6.641 3.832,19.102 16.14,52.422 29.73,69.383 2.891,2.109 21.41,2.769 17.23,-3.051 z m 21.68,-8.441 c -13.012,-16.602 -26.57,-60.739 -29.422,-83.508 -0.429,-3.442 -1.047,-7.231 -1.398,-8.442 -2.039,-6.8 -14.77,7.809 -14.692,16.879 0.082,15.352 17.114,62.18 29.301,80.071 4.211,6.211 4.723,7.269 13.781,7.582 14.571,0.347 8.168,-5.274 2.43,-12.582 z m -635.898,10.941 c -3.211,-0.082 -6.41,-0.512 -9.571,-1.25 -18.832,-4.691 -41.25,-24.652 -43.441,-45.82 -1.051,-0.621 -3.59,-15.43 -1.949,-22.973 6.211,-28.398 22.808,-47.687 43.078,-75.898 0,0 -25.469,-39.489 -42.969,-57.77 l 41.371,-59.879 c -11.441,-22.621 -31.332,-39.73 -36.332,-67.621 -7.808,-36.719 11.41,-72.5 52.352,-75.82 30.539,-0.899 50.539,19.73 54.328,50.98 1.57,20.782 -6.988,46.828 -37.731,88.039 -1.519,2.032 -4.527,6.25 -4.527,6.25 0,0 3.469,4.071 5.309,6.762 10.781,14.649 38.98,50.391 38.98,50.391 l -42.109,59.609 c 0,0 1.801,3.988 5.078,8.438 34.383,46.91 40.781,70.742 34.691,94.019 -2.379,9.223 -8.121,16.25 -15.859,24.102 -12.5,12.699 -26.801,18.789 -40.699,18.441 z m -0.981,-5.742 c 13.438,0.191 27.309,-5.199 38.52,-16.949 25.859,-27.039 23.551,-49.891 -10,-99.93 -7.391,-10.969 -14.61,-23.039 -14.61,-23.039 l 42.379,-58.52 c 0,0 -6.871,-10.269 -14.019,-18.632 -19.34,-22.77 -30.199,-39.137 -30.199,-39.137 7.347,-11.25 19.296,-23.32 26.757,-36.844 9.063,-15.348 14.45,-30.656 16.051,-44.648 3.36,-29.45 -15.781,-60.821 -48.512,-61.602 -31.757,-0.187 -55.976,26.293 -55.269,59.531 0.312,14.813 6.441,28.52 13.859,41.84 7.621,13.59 25.473,40 25.473,40 l -40.981,59.762 43.442,57.969 c 0,0 -31.602,38.679 -41.293,66.57 -7.891,31.641 6.883,49.68 8.832,52.461 9.648,13.551 24.34,20.93 39.57,21.168 z m 914.099,-3.277 c 24.38,-27.813 37.58,-67.582 43.24,-101.723 2.27,-14.02 2.7,-37.969 0.71,-40.59 -3.83,-5 -12.54,-2.301 -11.99,3.711 4.41,48.211 -47.46,82.699 -92.35,61.84 -34.65,-16.129 -53.16,-53.551 -44.49,-100.121 16.33,-87.809 90,-152.18 139.8,-240.231 17.66,-29.847 21.84,-46.636 21.72,-46.058 0,0 6.53,17.429 21.37,42.23 35.55,65.199 83.75,107.301 119.65,172.539 16.84,30.621 27.54,60.942 29.34,88.321 0.31,63.671 -61.84,111.679 -110.4,78.242 -19.25,-11.832 -35.46,-34.653 -38.04,-53.442 -1.1,-8.039 -2.5,-10.429 -6.1,-10.429 -8.28,0.039 -8.39,3.211 -1.72,40.98 10.12,37.5 22.23,73.129 44.22,104.731 l -114.96,0 z M 318.91,626.141 c 6.289,-16.442 16.559,-28.629 28.16,-40.313 10.782,12.582 22.77,29.102 29.379,44.922 31.711,76.02 -90.859,82.23 -57.539,-4.609 z m 27.692,-32.852 c -15.551,18.09 -26.524,33.133 -27.582,57 -1.719,47.262 60.082,41.949 57,-0.277 C 372.578,627 360.512,612.43 346.602,593.289 z m 765.738,74.301 c 1.21,-6.641 7.7,-17.93 7.15,-20.59 -3.01,-6.949 -7.42,-10.43 -13.51,-21.91 -1.29,-2.461 -0.67,-2.969 -4.1,-2.34 -3.21,0.43 -8.87,2.18 -11.92,3.078 -1.72,0.473 -3.67,1.453 -2.89,3.633 5.86,13.48 12.42,29.539 25.27,38.129 z m -102.42,-20.352 -7.26,-18.828 c -0.67,-2.031 -0.75,-2.379 -2.89,-1.91 -4.149,0.5 -7.782,0.859 -11.879,0.539 -9.02,1.102 7.929,34.77 10.507,39.891 3.672,-0.629 9.142,-15 11.522,-19.692 z m 6.88,-4.34 c 0.15,0.043 0.31,0.043 0.47,0 3.67,-0.468 9.18,-2.457 13.28,-4.257 2.26,-0.93 2.34,-0.969 1.33,-3.782 -2.08,-4.148 -4.65,-16.14 -7.39,-20.32 -0.08,-0.578 -12.85,7.582 -16.48,9.18 -0.12,2.269 4.06,18.562 8.79,19.179 z m 108.24,-2.218 c 4.22,-0.16 9.41,-3.989 12.26,-6.18 1.37,-2.648 0.12,-5.309 -4.57,-13.43 -4.14,-7.148 -8.47,-14.89 -9.53,-14.07 -3.16,2.461 -9.02,5.672 -11.91,9.648 -2.15,2.973 1.95,10.59 4.76,14.731 4.38,6.562 6.49,8.91 8.99,9.301 z m -68.87,0.968 c 3.91,-0.898 -2.26,-20.968 -3.44,-23.507 -3.67,-5.512 -9.41,-12.782 -13.98,-15.711 -2.34,-1.52 -9.53,2.781 -9.37,7.82 0.11,3.551 6.95,21.602 9.21,26.359 0.36,0.711 13.21,4.961 17.58,5.039 z m -159.26,-7.687 c 0.86,0.039 1.762,0 2.621,-0.039 15.348,0.43 31.09,-7.113 41.059,-24.031 4.68,-8 4.762,-8.321 3.672,-15.821 -2.543,-17.531 -1.641,-29.332 2.968,-40.07 5.27,-12.27 4.489,-16.449 -8.402,-43.711 -12.969,-27.43 -28.629,-60.828 -40.59,-91.801 -5.269,-13.277 -10.148,-28.316 -13.16,-40.629 -2.027,-7.73 -11.449,-5.39 -20.859,-5.039 -4.809,-1.05 6.91,31.141 24.222,69.649 13.86,30.781 32.688,65.472 40.231,99.961 6.129,28.09 4.137,39.648 0.777,51.449 -12.969,34.371 -58.121,25.941 -58,-5.699 0.973,-20.469 24.68,-31.489 33.352,-11.371 1.449,9.222 -3.082,3.871 -6.91,-0.629 -8.161,-9.61 -22.192,1.058 -20,15.242 2.89,18.629 26.949,24.758 38.589,10.039 12.739,-16.141 9.93,-32.781 -8.468,-45.281 -18.91,-13.899 -36.172,-6.008 -45.633,8.441 -20.188,32.457 7.422,68.481 34.531,69.34 z m 93.711,-13.641 c 18.789,-0.351 39.219,-16.129 42.499,-28.59 1.8,-8.48 -0.93,-18.441 2.08,-26.64 2.53,-6.559 4.96,-10.309 3.16,-16.129 -15.51,-49.813 -52.032,-102.93 -70.079,-161.922 -2.109,-4.098 -3.98,-4.609 -8.672,-5.93 -7.187,-2.039 -10,-1.839 -10.781,1.911 -0.738,3.589 1.684,10.39 5.902,23.16 5.071,15.32 16.211,41.492 22.77,53.789 15.27,28.672 23.79,48.32 34.88,72.82 2.07,4.57 2.62,7.301 5.9,13.902 13.95,28.321 -1.83,56.25 -30.741,56.411 -22.93,0.109 -33.199,-35.782 -13.129,-46.293 19.649,-10.27 34.3,16.722 16.84,26.25 -4.219,2.3 -5.309,0.121 -1.91,-3.95 7.769,-9.328 0.781,-21.91 -10.039,-16.91 -16.723,7.731 -8.129,36.289 11.437,34.653 30.162,-2.582 34.062,-46.454 3.321,-57.582 -42.297,-15.27 -64.489,52.808 -24.68,75.742 6.601,3.828 13.941,5.468 21.242,5.308 z m 89.109,-1.359 c 11.13,0.309 22.81,-3.672 32.42,-12.891 23.67,-22.742 17.38,-57.781 -22.62,-125.59 -13.08,-22.73 -25.82,-50 -32.81,-69.96 -1.72,-4.961 -3.17,-7.461 -7.11,-9.649 -6.91,-3.832 -14.81,-4.301 -15.82,-1.601 -2.58,6.871 17.23,49.73 52.46,116.992 9.3,17.929 20.98,38.75 20.39,60.117 -2.3,16.91 -16.41,29.141 -35.27,23.59 -12.7,-3.75 -17.89,-21.641 -8.56,-30.699 3.91,-3.75 8.75,-5.739 11.84,-5.43 5.86,-0.199 12.5,5.59 1.17,6.211 -11.99,0.078 -16.05,15.121 -5.94,21.91 14.53,9.769 31.21,-1.711 30.04,-20.699 -2.42,-38.203 -58.2,-32.5 -59.65,6.84 -0.93,24.328 18.21,40.347 39.46,40.859 z m 552.73,-16.492 c 13.83,-9.797 23.79,-27.649 26.09,-44.719 0.75,-5.281 1.45,-10.672 -0.85,-11.84 -2.78,-1.48 -4.77,0.66 -10.51,8.281 -13.44,17.7 -39.96,10.161 -48.87,-14.14 -8.48,-23.09 0.31,-49.063 35.9,-100.742 12.81,-19.098 24.1,-34.918 34.69,-53.668 7.5,18.629 20.23,38.711 31.09,55.23 40.7,61.641 48.16,93.668 26.02,114.301 -14.22,12.93 -36.76,13.359 -44.38,-3.211 -5.19,-6.832 -8.24,-10.109 -10.43,-5.973 -0.94,1.801 -0.86,7.223 -0.23,11.25 3.86,19.571 10.23,32.383 24.33,45.231 l -62.85,0 z M 922.191,557.82 c 8.43,0.668 -6.062,-44.761 -31.41,-95.699 -13.832,-28.199 -24.301,-58.512 -35.082,-88.012 -2.89,-3.937 -20.347,-4.679 -20.308,-0.578 30.98,99.258 52.847,116.36 63.437,154.18 1.832,6.519 3.203,15.969 3.442,16.75 7.851,2.269 14.449,11.648 19.921,13.359 z m -573.519,-6.679 -32.813,-42.813 32.032,-45.469 33.281,43.481 -32.5,44.801 z m 710.738,-13.243 c 0,-5.109 -9.84,-29.796 -17.18,-44.609 -32.15,-64.918 -40.16,-82.379 -45.71,-99.68 -1.008,-3.129 -2.61,-5.199 -4.641,-5.98 -4.027,-1.488 -15.16,-3.629 -16.098,-2.109 6.797,37.929 58.829,124.218 68.949,162.031 4.02,0.16 14.37,-5.981 14.68,-9.653 z m 25.75,3.954 c 2.18,0.148 3.04,-0.711 2.42,-3.641 -0.98,-4.68 -6.6,-15.742 -16.37,-34.961 -27.11,-53.238 -41.29,-84.762 -45.82,-100.969 -1.05,-3.793 -1.72,-6.801 -3.51,-7.742 -3.76,-1.988 -16.76,-7.219 -17.39,-1.559 4.06,24.059 19.92,39.692 60.94,140.04 1.91,3.281 3.59,4.921 5.39,5.191 5.04,0.828 9.41,3.25 14.34,3.641 z M 974.059,525.398 c -1.008,-6.207 -8.118,-19.179 -19.879,-43.16 -19.532,-39.879 -32.149,-69.609 -39.801,-95.976 -1.258,-4.262 -2.969,-8.75 -4.609,-9.922 -3.211,-2.192 -17.43,-1.52 -17.43,-1.52 -2.141,10.891 15,51.559 34.14,94.328 10.43,23.243 22.469,46.411 30.59,67.274 5.551,-0.82 16.211,-6.133 16.989,-11.024 z m 28.991,10.282 c 5.78,0.031 1.29,-9.692 -12.581,-37.11 -11.25,-22.269 -29.219,-53.48 -40.821,-89.34 -3.007,-7.89 -6.558,-17.691 -7.886,-21.839 -1.723,-5.313 -3.282,-7.93 -5.473,-9.02 -4.18,-2.07 -14.34,-1.949 -16.09,0.199 -2.82,3.43 12.141,43.789 26.75,74.801 12.891,26.059 21.961,46.949 33.09,71.059 3.051,4.761 3.199,5.109 6.289,5.699 6.442,0.551 13.082,4.84 16.722,5.551 z m -653.831,-5.2 16.91,-22.621 -19.84,-24.679 -16.519,24.019 19.449,23.281 z m -2.539,-97.539 c 0,0 -7.192,-8.242 -14.571,-21.371 -21.558,-35.929 -22.187,-62.461 3.282,-78.242 10.781,-5.469 24.769,-4.258 33.629,3.442 28.832,25.191 7.39,59.769 -11.25,83.199 -4.918,6.883 -11.09,12.972 -11.09,12.972 z m 1.05,-9.179 c 10.821,-12.774 18.719,-22.34 25.942,-38.403 8.277,-21.519 2.969,-38.468 -13.082,-46.398 -25.36,-12.582 -48.399,15.66 -36.371,45.777 8.902,22.34 23.511,39.024 23.511,39.024 z m 709.93,-42.582 c 2.38,-4.532 -241.289,-60.891 -421.058,-12.5 L 527.23,210.398 1158.71,211.5 1057.66,381.18 z m -9.22,-11.211 c 0,0 58.71,-101.598 87.5,-151.36 l -40.47,0 -57.74,123.551 c -30.85,-8.629 -61.281,-14.84 -92.14,-18.75 l 20.539,-104.801 -30.309,0 -17.148,100.153 c -44.223,-3.442 -89.293,-4.723 -135.274,-3.403 l -19.847,-96.75 -31.711,0 20.308,96.09 C 717.27,319.391 682.5,323.84 646.988,329.66 L 587.5,218.609 l -44.801,0 93.391,139.371 c 139.422,-27.968 267.969,-21.371 412.35,11.989 z m 630.78,-23.278 c -27.58,-0.121 -56.72,-14.921 -64.96,-46.722 -2.93,-10.11 -2.93,-10.11 -3.01,-100.11 -0.08,-74.379 -0.7,-92.308 -0.7,-92.308 l -25.43,0 0,-29.7307 82.77,0 0,29.7307 -27.46,0 c 0,0 -0.39,92.539 -0.39,150.859 -1.13,15.16 0.23,28.481 4.26,37.731 14.65,33.75 66.17,26.371 72.38,-2.422 3.67,-17.149 1.6,-21.641 1.87,-36.481 l 28.68,0 c 0,0 0.74,26.051 -2.03,41.25 -3.79,33.903 -33.05,48.981 -63.32,48.16 -0.86,0.043 -1.76,0.043 -2.66,0.043 z m -652.85,-31.25 45.78,-96.832 -86.72,0 -15.942,86.36 56.882,10.472 z m -371.14,-7.07 75.79,-9.801 -19.571,-79.961 -102.347,0 46.128,89.762 z m 247.391,-11.91 10.43,-77.852 -130.59,0 14.488,76.321"
         inkscape:connector-curvature="0"
         id="path24"
         style="fill:#000000;fill-opacity:1;fill-rule:nonzero;stroke:none" /></g></g></svg>