<?xml version="1.0" encoding="UTF-8" standalone="no"?>
<!-- Created with Inkscape (http://www.inkscape.org/) -->

<svg
   xmlns:dc="http://purl.org/dc/elements/1.1/"
   xmlns:cc="http://creativecommons.org/ns#"
   xmlns:rdf="http://www.w3.org/1999/02/22-rdf-syntax-ns#"
   xmlns:svg="http://www.w3.org/2000/svg"
   xmlns="http://www.w3.org/2000/svg"
   xmlns:inkscape="http://www.inkscape.org/namespaces/inkscape"
   version="1.1"
   width="225"
   height="315"
   id="svg2"
   xml:space="preserve"><metadata
     id="metadata8"><rdf:RDF><cc:Work
         rdf:about=""><dc:format>image/svg+xml</dc:format><dc:type
           rdf:resource="http://purl.org/dc/dcmitype/StillImage" /></cc:Work></rdf:RDF></metadata><defs
     id="defs6" /><g
     transform="matrix(1.25,0,0,-1.25,0,315)"
     id="g10"><g
       transform="scale(0.1,0.1)"
       id="g12"><path
         d="m 88.9492,2508.38 1615.7408,0 c 47.11,0 85.04,-37.93 85.04,-85.04 l 0,-2324.4103 c 0,-47.1094 -37.93,-85.0391 -85.04,-85.0391 l -1615.7408,0 c -47.1094,0 -85.03904,37.9297 -85.03904,85.0391 l 0,2324.4103 c 0,47.11 37.92964,85.04 85.03904,85.04"
         inkscape:connector-curvature="0"
         id="path14"
         style="fill:#ffffff;fill-opacity:1;fill-rule:nonzero;stroke:none" /><path
         d="m 88.9492,2508.38 1615.7408,0 c 47.11,0 85.04,-37.93 85.04,-85.04 l 0,-2324.4103 c 0,-47.1094 -37.93,-85.0391 -85.04,-85.0391 l -1615.7408,0 c -47.1094,0 -85.03904,37.9297 -85.03904,85.0391 l 0,2324.4103 c 0,47.11 37.92964,85.04 85.03904,85.04 z"
         inkscape:connector-curvature="0"
         id="path16"
         style="fill:none;stroke:#000000;stroke-width:7.9738698;stroke-linecap:butt;stroke-linejoin:miter;stroke-miterlimit:4;stroke-opacity:1;stroke-dasharray:none" /><path
         d="m 1289.96,2268.34 -644.222,-3.12 81.801,-155 c 167.422,15.08 314.181,1.68 467.031,-3.32 l 95.39,161.44 z M 849.961,1723.42 c -0.66,-0.9 -26.801,-7.62 -24.141,-13.55 68.239,-146.06 98.711,-264.89 127.192,-414.96 14.41,11.68 37.687,11.21 37.687,11.21 -11.48,55.74 58.791,62.69 59.261,4.37 13.48,-3.12 27.34,-3.16 39.53,-16.79 5.47,164.02 64.34,333.71 140.35,451.28 -86.64,-34.25 -213.71,-119.68 -213.71,-119.68 0,0 -105.778,43.67 -166.169,98.12 z m 526.559,-17.46 c -115.27,-109.41 -160.39,-413.16 -152.14,-417.34 -148.6,4.92 -193.64,-158.87 -64.81,-247.19 -5.12,-17.11 -17.69,-31.05 -27.42,-46.168 13.28,-7.621 27.77,-9.262 42.26,-10.864 11.02,-13.007 21.84,-28.046 33.75,-29.296 12.97,8.168 22.19,20.117 32.97,30.429 13.48,3.438 26.84,7.231 39.61,13.047 -11.33,15.822 -24.72,31.762 -25.08,46.562 112,78.95 96.64,186.29 -4.33,241.25 30.08,180.74 73.94,296.25 124.88,378.36 l 0.31,41.21 z M 582.5,1566.31 c -14.648,-7.15 -22.66,-22.22 -33.281,-34.06 -14.571,-0.66 -28.629,-5.66 -42.539,-11.84 0,0 33.398,-46.13 31.332,-48.63 C 429.691,1400.84 430.59,1297.17 534.609,1228.89 552.23,1081.35 426.801,847.84 420.469,854.629 l -0.239,-48.277 c 87.27,96.527 136.68,271.878 145.321,415.898 178.277,11.88 184.57,184.02 61.871,248.79 -9.453,8.63 30.859,48.63 30.859,48.63 -10.23,10.08 -27.34,11.21 -42.34,12.46 -9.461,11.29 -17.703,22.54 -33.441,34.18 z m 753.91,-119.14 c 25.19,-56.05 117.26,12.23 133.24,-17.58 12.97,-16.91 41.21,-18.67 39.69,9.85 -5.32,28.2 -23.87,34.45 -97.62,22.19 -27.97,-4.69 -39.42,-7.43 -39.26,5.31 -19.34,23.32 -35.94,-8.44 -36.05,-19.77 z m 85.5,-81.79 c -20.66,0.03 -24.18,-80.79 -23.86,-105.04 -59.85,-94.46 122.77,-83.71 43.79,19.18 2.73,13.47 -10.08,35.39 -9.73,45.07 -6.45,0.82 -9.3,37.31 -10.2,40.79 z M 369.18,1316.82 c -32.379,-0.82 -68.008,-30.55 -16.09,-73.28 3.469,-1.21 -1.719,-10.2 0.031,-24.06 14.649,-31.57 10.707,-78.32 21.609,-71.14 12.571,8.29 23.079,43.17 20.391,91.88 -0.199,3.2 -4.422,6.56 -3.641,10.04 29.141,48.04 4.54,67.22 -22.3,66.56 z m 331.371,-90.55 c -8.321,-157.77 -47,-312.61 -134.61,-446.872 75.43,35.153 148.629,80.512 219.45,119.332 L 950.98,796.27 c 9.571,4.179 16.211,6.21 22.571,12.5 -76.281,111.531 -99.922,272.11 -133.16,417.35 -12.661,-8.99 -36.442,-13.48 -36.442,-13.48 -1.679,-50.39 -54.539,-66.72 -65.359,-1.01 l -38.039,14.64 z M 300.98,1103.19 c -17.66,-1.14 -30.941,-44.85 19.059,-51.29 35.313,-5 80.512,12.38 102.93,4.33 26.09,-41.56 49.492,19.61 14.652,29.61 -37.422,10.71 -113.672,-17.26 -122.07,6.53 -4.34,8.12 -9.653,11.13 -14.571,10.82 z m 300.27,-683.518 -99.879,-176.371 638.549,3.871 -83.47,168.207 c 1.4,1.871 -278.911,-33.328 -455.2,4.293"
         inkscape:connector-curvature="0"
         id="path18"
         style="fill:#e2cf00;fill-opacity:1;fill-rule:nonzero;stroke:none" /><path
         d="m 739.801,2095.14 10.398,-24.73 c 137.141,16.57 280.661,33.75 424.291,-2.81 0,0 10.55,22.89 10.39,24.53 -133.86,34.07 -433.2,25.24 -445.079,3.01 z m 138.789,-347.5 130.55,-84.41 c 0,0 62.5,44.18 89.14,62.85 l -16.17,23.75 c -55.2,-121.68 -152.231,-25.43 -188.63,31.8 0,0 -9.89,-22.15 -14.89,-33.99 z m 350.59,-40.82 c 9.02,0.2 14.06,-3.28 18.59,-12.5 5.12,-10.39 7.11,-7.85 3.79,5.12 -5.19,20.43 16.53,33.75 36.96,20.11 14.76,-9.88 14.14,-33.71 -2,-38.12 -13.04,-3.55 -13.4,-6.99 -1.95,-6.45 20.55,1.02 26.02,-26.4 11.41,-39.8 -16.8,-15.39 -38.25,-4.45 -40.2,14.84 -0.9,5.47 -2.03,5.39 -3.87,2.31 -5.15,-8.91 -5.66,-20.51 -4.64,-31.02 l -30.36,18.83 c 10.82,5.35 17.39,8.59 25.2,16.72 1.05,1.05 1.8,1.8 1.8,2.27 0,0.82 -3.4,-0.28 -9.57,-0.9 -18.32,-1.92 -32.46,9.96 -28.68,27.22 3.21,14.69 10.79,21.1 23.52,21.37 z m -133.83,-476.21 c 33.01,37.73 73.99,61.99 130.98,58.59 7.22,158.25 62.11,298.95 150,425.71 l -96.68,58.12 -38.79,-23.4 c -93.28,-132.3 -150.59,-300.19 -145.51,-519.02 z m -724.69,369.73 c 0,0 -65.43,-49.03 -95.859,-72.7 l 1.488,-436.29 8.441,-2.89 c 0.622,-0.94 -0.75,6.45 3.161,9.84 3.16,2.78 8.16,5.9 11.168,7 8.402,3.04 8.793,8.67 0.941,13.51 -6.09,3.75 -8.441,9.57 -7.73,19.26 0.5,6.8 0.191,8.28 -2.622,12.93 -3.558,5.74 -3.828,13.01 -0.859,20.59 1.41,3.47 1.289,4.45 -1.211,9.18 -3.168,6.01 -3.558,12.53 -1.168,19.53 0.891,2.65 1.52,8.51 1.442,13 -0.313,17.39 14.027,28.91 40.546,32.54 10.352,1.45 10.661,1.88 5.903,10.55 -26.84,49.02 33.469,74.53 37.969,66.72 l -1.61,277.23 z M 1196.37,1576 c 24.49,0.35 44.65,-19.18 45,-43.67 0.35,-24.49 -19.22,-44.65 -43.71,-45 -24.5,-0.35 -44.61,19.22 -45,43.71 -0.36,24.49 19.22,44.61 43.71,44.96 z m 0.43,-7.93 c -19.61,-0.27 -35.28,-16.37 -34.96,-35.98 0.27,-19.61 16.36,-35.31 35.97,-35.04 19.61,0.32 35.31,16.45 35.04,36.06 -0.31,19.61 -16.44,35.27 -36.05,34.96 z m 0.9,-11.25 c 13.32,0.2 24.25,-10.43 24.45,-23.71 0.19,-13.32 -10.43,-24.26 -23.75,-24.45 -13.28,-0.2 -24.22,10.47 -24.42,23.75 -0.15,13.28 10.43,24.22 23.72,24.41 z m -880.321,-18.24 c 1.801,0.04 3.75,-0.24 5.672,-0.86 11.051,-3.48 14.918,-13.24 8.937,-22.46 -4.718,-7.23 -4.179,-7.85 4.063,-4.81 6.488,2.43 9.769,1.64 14.89,-3.4 15.309,-15.15 -7.5,-40.62 -22.461,-25.19 -7.429,7.66 -8.128,5.39 -2.968,-7.73 1.636,-4.22 4.41,-10.86 4.41,-10.86 l -21.992,0.35 c 0,0 3.441,8.75 5,12.85 3.789,9.96 3.949,11.41 -3.981,5.16 -17.898,-14.11 -38.129,10.03 -21.679,25.82 3.32,3.2 8.71,3.35 16.171,0.43 5.43,-2.15 6.09,-0.67 1.989,4.49 -8.871,11.17 -0.66,26.01 11.949,26.21 z m 455.16,-39.06 c -8.949,-58.48 -1.129,-140.55 -1.328,-184.38 23.789,-4.53 24.059,-20.78 27.738,-40.94 11.563,4.07 36.871,-13.04 40.352,-11.52 2.609,59.3 -28.25,231.52 -66.762,236.84 z m 395.081,-58.64 c 33.79,-2.69 27.3,-28.79 17.26,-39.53 -4.76,-5.51 -3.9,-7.97 1.33,-4.8 14.3,8.63 25.63,2.38 30.24,-12.46 7.85,-25.39 -25.51,-47.23 -40.4,-24.46 -5.03,7.7 -8.12,5.98 -6.91,-2.11 0.78,-7.77 8.36,-23.9 8.36,-23.9 l -33.16,2.97 c 0,0 10.15,16.87 11.91,21.4 3.71,9.42 1.76,11.92 -5.31,4.34 -20.74,-18.99 -49.49,5.31 -36.1,30.47 6.61,12.42 18.75,16.4 31.92,6.52 8.86,-5.78 10.78,-3.24 2.85,3.75 -14.81,13.13 -1.91,39.41 18.01,37.81 z m -848.64,-20.7 c 0.399,0 0.75,0.04 1.141,0 2.848,-0.04 5.82,-0.82 8.789,-2.5 8.238,-4.65 10.5,-13.79 5.352,-21.72 -2.973,-4.57 -2.114,-7.46 1.328,-4.49 4.64,4.02 14.84,1.37 18.82,-4.88 10.238,-16.02 -9.762,-36.96 -22.5,-23.64 -5.66,5.9 -7.808,6.14 -7.14,2.27 1.832,-7.27 6.601,-19.65 6.601,-19.65 l -22.973,-0.39 c 0,0 4.961,13.01 6.051,19.61 0.86,5.23 -1.211,4.49 -6.679,-1.68 -5.348,-6.02 -10.192,-6.64 -16.95,-2.15 -16.761,11.09 -3.359,39.57 14.102,30 6.019,-3.28 6.879,-1.37 2.187,4.84 -8.398,11.1 0.161,23.79 11.871,24.38 z m 1192.5,10.16 c -37.14,-38.4 -25.5,-15.71 -8.28,-44.96 0.08,-19.34 11.37,-34.46 2.42,-64.93 -2.85,-5.93 -3.12,-8.79 -1.56,-14.76 -2.69,-33.67 -29.68,-33.24 -55.9,-38.44 4.34,0.27 41.53,-68.44 -27.85,-73.83 l 0.78,-279.369 108.83,80.23 -0.47,436.059 -17.97,0 z m -816.558,-147.5 c -30.863,-19.89 -74.184,-69.54 -128.711,-58.75 -6.563,-174.3 -63.789,-309.262 -145.391,-425.199 28.16,-16.68 59.18,-36.68 88.008,-49.493 24.371,12.582 38.051,17.813 61.953,37.5 98.09,151.524 129.18,317.152 124.141,495.942 z m 256.168,-31.88 c 5.512,-89.49 20.082,-174.26 66.64,-242.3 l 3.13,190.27 c -16.56,3.95 -30.161,14.69 -35.001,45.12 l -34.769,6.91 z m -336.559,-52.81 31.129,-0.7 c 0,0 -7.07,-14.07 -10.109,-21.96 -3.711,-9.61 -1.961,-11.56 5.109,-4.88 9.262,8.71 23.988,9.49 31.719,1.76 20.551,-20.63 -0.93,-54.18 -25.27,-39.46 -10.39,6.29 -12.148,4.18 -3.91,-4.72 16.102,-14.92 -0.699,-36.41 -19.488,-36.49 -13.551,0.04 -22.383,10.9 -23.441,22.85 -0.5,7.54 3.25,15.08 9.808,18.75 6.801,3.83 1.91,6.33 -5.469,2.35 -24.179,-13.01 -40.308,20.39 -22.109,39.37 10.512,10.94 21.641,9.93 32.301,-0.5 7.469,-7.31 10.16,-6.68 8.051,1.95 -2.114,9.73 -8.321,21.68 -8.321,21.68 z m 839.959,-26.17 22.31,-0.04 c -2.23,-5.51 -5.04,-11.14 -6.84,-16.6 -1.91,-5.94 -0.51,-6.68 5.39,-0.94 15.39,10.31 31.76,0 28.44,-16.37 -2.31,-11.25 -11.72,-16.8 -22.66,-11.87 -9.61,4.29 -6.52,2.46 -1.05,-4.14 6.52,-7.82 4.84,-16.96 -3.75,-23.01 -15.2,-10.67 -35.31,7.07 -25.24,22.58 5.94,9.25 3.21,8.24 -2.18,3.79 -8.13,-5.94 -20.39,2.46 -20.63,14.1 -0.94,16.75 15.98,26.17 27.89,14.33 5.71,-4.8 7.11,-4.22 4.53,2.74 -2.34,5.08 -3.08,10.47 -6.21,15.43 z m 1.17,-121.84 23.4,0.27 c 0,0 -0.35,-1.79 -3.94,-8.55 -4.22,-7.93 -3.6,-16.17 0.82,-10.59 7.46,9.42 23.28,6.8 28.47,-4.72 6.06,-13.4 -5.74,-28.21 -17.96,-22.58 -7.93,3.67 -8.48,2.85 -3.21,-4.771 5.16,-7.418 2.85,-16.558 -5.47,-21.871 -16.44,-10.469 -36.09,10.434 -22.42,23.832 3.63,3.55 2.5,5.31 -1.95,2.89 -18.09,-9.851 -31.45,14.65 -15.78,28.98 6.64,6.1 11.76,5.67 22.73,-1.91 3.4,-2.35 4.06,0.08 1.6,6.05 -4.18,10.2 -6.29,12.97 -6.29,12.97 z m -867.379,-14.65 c 26.02,0.39 47.379,-20.39 47.77,-46.361 0.359,-26.02 -20.391,-47.43 -46.403,-47.82 -26.019,-0.348 -47.378,20.429 -47.769,46.453 -0.399,25.968 20.391,47.338 46.402,47.728 z m 0.547,-8.4 c -21.367,-0.31 -38.437,-17.85 -38.129,-39.211 0.321,-21.367 17.891,-38.438 39.262,-38.129 21.367,0.309 38.437,17.891 38.129,39.262 -0.32,21.368 -17.891,38.398 -39.262,38.078 z m 0.434,-14.88 c 13.16,0.2 23.937,-10.27 24.136,-23.44 0.192,-13.161 -10.277,-23.981 -23.437,-24.18 -13.16,-0.192 -23.981,10.359 -24.18,23.48 -0.191,13.16 10.348,23.98 23.481,24.14 z M 530.078,898.148 557.27,884.871 c 0,0 -12.86,-10.473 -17.969,-15.859 -6.571,-6.961 -6.102,-10.203 2.73,-6.883 16.84,6.332 33.707,-3.16 34.02,-20.617 0.429,-23.321 -27.18,-34.532 -40.43,-16.883 -3.902,5.242 -8.633,7.422 -6.793,3.133 4.492,-10.434 1.762,-23.563 -6.058,-28.992 -6.25,-4.29 -17.692,-5.579 -23.469,-2.571 -19.852,10.27 -20.86,33.121 -1.879,42.141 9.527,4.57 9.848,8.832 0.469,6.488 -19.532,-4.879 -30.942,18.75 -16.84,35 14.969,17.262 39.34,13.672 42.039,-11.84 0.461,-4.527 3.59,-1.25 4.961,5.711 1.64,5.153 2.027,24.449 2.027,24.449 z M 783.48,859.789 c 0,0 -99.57,-56.641 -96.531,-59.019 0.59,-0.36 22.071,-30.59 22.071,-30.59 49.378,111.91 167.66,19.218 186.601,-37.891 4.109,-2.539 4.809,-1.801 9.258,-3.828 0.43,4.059 8.641,43.711 8.641,43.711 L 783.48,859.789 z M 623.828,448.379 c -5,-6.25 -21.68,-23.938 -19.566,-24.609 C 750.551,392.328 901.41,394.828 1055,411.469 l -11.72,36.91 c -151.639,-38.668 -419.452,0 -419.452,0"
         inkscape:connector-curvature="0"
         id="path20"
         style="fill:#d40000;fill-opacity:1;fill-rule:nonzero;stroke:none" /><path
         d="m 254.449,2282.99 8.992,-2056.638 1283.829,4.527 -7.7,2054.571 -1285.121,-2.46 z m 390.473,-14.69 640.308,2.62 c -30.03,-77.97 -116.52,-201.13 -112.42,-201.44 -133.2,22.03 -270.509,33.12 -424.06,0.31 L 644.922,2268.3 z m -375.621,-5 359.328,0.47 118.48,-212.42 c 0,0 6.993,-13.24 2.813,-27.11 -4.531,-15.15 -8.442,-21.87 -12.5,-29.61 0.387,4.42 -34.184,8.79 -31.293,-20.78 1.992,-20.04 27.312,-31.37 46.211,-15.78 3.012,0.23 2.969,-2.54 2.308,-7.42 -1.718,-11.49 -13.91,-47.89 -22.269,-50.31 -42.539,34.88 -57.731,-28.83 -29.059,-41.53 16.641,-7.34 42.149,-1.29 54.102,18.67 9.137,15.28 8.129,12.78 10.976,-5.78 1.09,-6.87 2.622,-14.88 3.403,-18.47 2.418,-11.21 0,-13.4 -18.91,-18.52 -15.231,-5.9 -30.661,-9.18 -46.332,-12.58 -28.668,-4.68 -43.36,-26.33 -44.059,-52.65 -0.16,-5.71 0.039,-8.32 -1.172,-10 C 540,1713.42 411.09,1649.01 275.859,1538.97 l -6.558,724.33 z m 814.649,-504.37 c -4.57,7.42 -19.26,46.45 -23.33,62.73 -10.5,78.91 -12.5,172.62 -23.74,246.1 l 14.8,-1.68 c 0,0 5.59,-21.25 11.56,-78.71 2.97,-28.52 6.1,-87.74 8.56,-114.96 3.75,-40.47 22.03,-105.16 33.36,-121.49 18.47,-26.64 55.58,-9.41 43.16,22.23 -6.44,16.4 -31.37,13.75 -27.93,-3.28 0.08,-3.05 2.38,2.18 6.02,5.35 10.78,4.1 22.93,-7.11 16.6,-20.63 -7.85,-17.26 -31.13,-9.37 -38.83,12.35 -9.22,25.97 21.84,45.47 45.04,29.61 25.9,-17.62 25.94,-62.35 5.12,-76.49 -35.08,-12.77 -58.95,12.78 -70.39,38.87 z m 86.71,-32.89 c -1.4,0.82 0.04,3.55 1.76,10 6.53,24.14 2.42,42.97 -13.2,60.74 -8.71,9.88 -11.95,11.6 -7.42,13.4 9.68,3.79 31.01,-11.68 36.87,-26.91 5.78,-14.97 7.23,-30.47 -0.9,-47.39 -5.66,-3.59 -14.49,-10.9 -17.11,-9.84 z m 26.41,16.05 c 0,2.86 1.88,11.76 2.34,16.1 1.68,16.83 -6.21,33.94 -20.11,47.3 -11.72,11.21 -12.78,12.39 -1.72,12.58 28.55,0.47 46.76,-45.66 33.59,-68.4 -3.4,-3.63 -13.75,-10.97 -14.1,-7.58 z m 24.18,15.63 c 8.4,39.33 -29.65,65.58 -30.39,64.33 1.87,8.83 16.99,3.75 22.15,0.32 19.22,-12.89 30.27,-46.68 18.47,-65.86 -1.28,-2.35 -2.85,-3.71 -4.92,-4.96 -3.98,-2.5 -6.33,-4.5 -7.11,-2.78 -0.62,1.33 1.57,7.07 1.8,8.95 z m -334.801,127.66 c 3.981,3.9 5.192,4.02 12.813,1.13 23.937,-9.06 43.078,8.12 37.418,26.17 -2.032,6.56 -11.02,13.63 -16.52,14.22 -9.031,0.94 -9.219,-3.83 0.5,-7.46 11.961,-4.46 13.168,-17.15 2.66,-22.85 -12.379,-8.36 -32.621,12.81 -47.461,11.01 -7.07,-2.11 -11.597,-8.75 -7.578,-16.83 3.168,-5.71 13.867,-9.14 18.168,-5.39 z m -26.527,2.57 c -8.32,3.87 -11.481,3.79 -9.883,12.85 1.012,5.94 9.531,46.1 13.59,61.61 12.07,46.44 0.711,72.18 -33.551,82.57 -23.238,7.04 -43.238,3.48 -66.918,-9.1 l -4.25,13.13 c 99.211,25.97 268.59,20.19 268,19.18 3.32,-13.36 4.61,-26.72 5.9,-40.04 0,0 -31.72,15.55 -48.279,20.74 -25.511,7.81 -65.82,-0.78 -72.929,-15.39 -4.063,-8.32 -1.954,-13.87 15.16,-4.61 28.039,15.08 85.348,3.59 105.508,-12.42 4.68,-3.71 4.45,-4.49 4.53,-8.83 0.11,-6.6 0.5,-6.99 -8.68,-2.07 -48.12,24.61 -89.249,21.76 -103.429,-10.55 -3.281,0.98 -15.781,3.13 -15.781,3.13 l 13.43,-19.81 2.539,-20.74 c 0,0 21.883,-12.15 33.949,-17.3 11.91,-5.04 5.043,0.31 -9.527,10.47 -10.711,7.46 -2.192,9.84 4.879,6.99 14.531,-3.32 35.781,-7.58 60.35,8.04 7.62,4.85 25.12,0.63 25.39,-1.56 0,0 2.35,-18.12 4.65,-55.97 1.09,-17.93 3.28,-41.29 4.53,-50.9 3.79,-29.03 4.88,-30.67 -10.39,-16.76 -5.12,4.69 -13.67,12.42 -13.75,11.95 -1.95,-8.98 20.59,-24.8 25.82,-30.23 7.97,-8.2 14.34,-29.26 11.17,-30.51 -2.03,-0.82 -23.43,17.34 -40.27,33.63 -6.29,6.14 -15.7,14.34 -15.98,14.03 -3.47,-2.31 10.67,-18.25 23.91,-30.2 15.47,-13.9 17.27,-15.15 12.07,-17.26 -9.61,-3.87 -18.24,0.93 -41.52,20.19 -2.269,1.88 -11.101,8.13 -11.488,7.7 -2.152,-2.86 19.338,-23.17 24.218,-24.93 9.06,-3.24 11.68,-11.99 4.53,-15.43 -4.76,-2.3 -22.541,7.43 -36.799,19.77 -2.57,2.23 -9.641,5.98 -10.109,5.51 -2.813,-1.84 13.078,-15.63 28.316,-24.77 14.882,-8.94 17.262,-11.17 13.472,-18.63 -3.55,-7.66 -36.21,10.12 -52.57,28.4 -3.48,3.9 -6.21,5.58 -5.511,4.26 7.109,-19.73 30.551,-33.87 47.971,-39.5 3.08,-1.01 7.61,-2.26 9.65,-3.86 4.96,-3.95 3.82,-8.05 -1.53,-10.35 -18.591,-5.24 -47.888,17.26 -68.83,40.85 -2.421,0.98 -0.968,-2.1 -0.351,-3.12 17.461,-27.89 50.941,-49.1 71.101,-45.16 11.79,2.31 21.29,-1.21 21.36,-5.19 0.08,-3.24 -6.4,-8.4 -19.1,-9.3 -28.67,-2.03 -73.47,29.34 -99.689,69.3 -0.821,1.21 -1.789,1.68 -1.832,0.94 -0.699,-8.48 15.582,-29.26 28.082,-41.14 37.109,-35.27 72.229,-47.22 99.609,-27.34 15.43,11.99 30.36,38.12 7.39,46.87 -12.19,4.65 -19.89,-12.14 -9.5,-7.34 13.72,1.64 16.8,-5.62 15,-12.42 -3.47,-11.72 -15.07,-13.6 -24.53,-8.67 -16.4,8.9 -12.93,39.41 8.36,44.72 19.14,4.61 35.86,-11.64 38.09,-27.03 3.4,-23.94 -23.59,-49.84 -45.27,-56.29 -73.872,-21.99 -131.571,80.67 -131.919,83.01 -3.711,7.11 -8.16,10.9 -10.98,2.58 -3,-12.03 -19.68,-47.35 -28.629,-47.15 2.777,12.46 14.488,33.4 11.637,51.76 -4.918,-15.08 -15.309,-47.23 -35.188,-64.34 -5.16,-4.69 -20.32,-10.23 -9.891,1.88 12.579,17.65 29.032,41.83 25.629,64.53 -3.359,-5.12 -5.16,-18.01 -8.98,-26.53 -9.539,-21.36 -30.43,-46.67 -44.18,-50.78 -10.199,-3.04 -9.219,0.39 1.172,11.37 11.168,11.76 30.93,46.29 29.649,61.17 -0.59,6.57 -20.508,-56.87 -58.008,-74.22 -10.121,-3.71 -15.864,0.94 -15.864,0.94 14.731,8.52 55.43,48.63 51.602,94.22 0,0 -2.191,-6.76 -5.391,-16.87 -13.789,-43.52 -43.437,-72.11 -66.558,-74.5 -18.442,-1.87 -31.332,5.55 -26.762,8.83 23.941,-0.16 43.59,8.09 58.941,31.41 15.629,23.71 21.411,61.76 11.961,102.07 -8.519,36.33 -10.39,69.02 -13.363,103.94 26.211,-8.94 52.582,-14.92 78.082,-4.92 -2.57,-10.43 -6.832,-11.72 -13.551,-19.57 -4.879,-5.74 -3.199,-7.11 15.86,6.33 5.551,3.94 7.543,7.07 8.551,6.01 1.601,-1.68 -0.93,-12.42 -6.481,-33.75 -8.277,-31.95 -6.129,-34.25 24.57,-46.28 5.743,-2.23 7.852,-4.46 9.879,-6.84 0.942,-1.09 5.981,-10.2 6.453,-10.51 1.09,-0.74 0.821,9.26 0.188,11.8 -1.641,6.68 -5.27,11.72 -8.43,13.71 -6.019,5.55 -14.73,6.05 -20.277,8.59 z m 579.338,-416.64 0.31,33.17 32.23,-22.85 -0.39,-10.94 -32.15,0.62 z m -55.08,-7.18 -1.17,613.43 c 0,0 24.72,16.41 37.11,24.57 7.69,-24.33 7.65,-76.48 4.76,-99.68 -4.84,-15.16 -6.99,-82.47 -1.52,-116.72 4.37,-27.31 3.59,-72.46 -0.55,-94.07 -1.6,-8.43 -0.39,-48 2.66,-84.61 2.3,-28 1.64,-53.43 -1.72,-68 -2.66,-11.45 -1.76,-52.58 1.29,-68.36 4.45,-23.21 5.23,-97.74 3.24,-101.76 -5.31,-6.02 -46.87,-6.88 -44.1,-4.8 z m 48.98,641.95 c 0,0 24.93,-16.45 36.96,-24.69 l 0.15,-26.41 -36.01,23.48 -1.1,27.62 z m -371.75,-42.7 15.39,-0.97 c 6.13,-31.96 8.79,-68.25 11.25,-104.65 0.78,-56.13 7.69,-115.35 20.9,-154.14 l -11.33,-11.88 c -19.3,44.46 -20.82,114.61 -25.12,162.07 -1.88,53.4 -10.66,109.22 -11.09,109.57 z m 374.76,5.59 33.52,-22.66 0.35,-28.75 -33.75,22.39 -0.12,29.02 z m -352.54,-7.7 13.52,-1.48 c 4.1,-37.93 10.43,-63.67 12.81,-105.43 3.13,-54.06 12.5,-98.44 18.32,-140.63 l -10.16,-3.35 c -6.75,-3.13 -18,46.75 -23,147.85 -1.53,30.58 -6.72,65.04 -11.49,103.04 z m 20.47,-1.44 16.13,-2.89 c 7.15,-96.02 18.44,-186.17 30.28,-237.81 l -14.06,-0.94 c -17.43,73.83 -18.56,159.26 -32.35,241.64 z m 23.32,-3.4 14.85,-2.58 c 17.85,-219.53 28.86,-216.72 32.34,-225.35 l -16.09,-6.52 c -17.35,63.12 -20.86,152.03 -31.1,234.45 z m 67.42,-215.63 c -2.54,-7.42 -8.55,-6.71 -15.15,-7.5 -7.35,20.2 -11.64,44.26 -14.73,67.78 -6.76,51.76 -9.22,100.23 -16.29,151.29 l 17.74,-1.8 c -0.59,-0.39 12.57,-180.04 28.43,-209.77 z m -381.09,192.97 c 23.359,-1.13 42.73,-11.6 44.609,-26.95 0.391,-3.44 -2.339,-1.76 -5.507,0.66 -20.082,15.4 -42.891,20.16 -70.512,10.24 -6.012,-2.15 -10.93,-5.55 -13.59,-5.08 -2.422,1.52 -3.16,5.27 -1.328,8.36 6.449,10.74 34.808,13.32 46.328,12.77 z m -54.102,-30.82 c 0.473,-24.18 -5.386,-37.5 -18.089,-43.08 -15.309,-6.76 -34.957,7.69 -25.387,23.86 7.187,12.19 19.609,8.52 21.949,-4.29 l 19.457,43.32 c 0,0 1.992,-13.75 2.07,-19.81 z m 710.662,3.91 -0.23,-24.92 -35.9,23.98 2.42,23.95 33.71,-23.01 z m -636.912,3.24 c 17.692,-7.03 24.18,-15.58 24.84,-19.37 -1.047,-2.85 -2.808,-0.9 -15.699,6.05 -19.918,12.23 -45.82,14.22 -68.59,-1.29 -5.711,-1.13 -6.289,2.11 -0.59,8.21 17.34,13.59 41.332,13.78 60.039,6.4 z m 134.332,4.65 c 15.551,0.51 34.15,-3.44 49.89,-11.33 6.91,-3.47 13.16,-5.66 17.69,-9.69 3.64,-1.87 3.91,-10.07 1.25,-10.7 -2.34,-0.35 -6.25,1.49 -12.03,5.55 -37.339,24.26 -64.221,21.25 -85.78,6.33 -1.211,-0.82 -4.922,-1.68 -6.41,-1.57 -4.102,0.32 -4.289,2 -2.57,4.22 9.96,11.29 24.921,16.76 37.96,17.19 z m 466.57,-17.46 35.97,-25.12 0,-24.72 -38.28,26.6 2.31,23.24 z m -649.499,-10.04 5.277,-0.16 c 12.223,-29.64 27.621,-14.37 33.981,-2.46 l 6.41,-1.05 c -10.039,-39.77 -50.778,-18.95 -45.668,3.67 z m -8.942,-3.95 c 5.981,-0.7 5.743,-7.42 7.621,-12.34 4.141,-10.94 -11.601,-1.68 -14.339,0.98 -4.571,4.84 1.949,10.86 6.718,11.36 z m 178.09,1.18 c 15.539,-23.6 24.492,-9.65 33.321,0.62 l 4.21,-1.33 c -1.128,-16.95 -29.64,-35 -43.16,0.28 l 5.629,0.43 z m 47.731,-2.7 c 1.64,0 5,-1.21 8.05,-2.42 8.47,-3.44 8.04,-5.98 -1.37,-10.16 -15.04,-6.68 -20.239,-7.54 -15.739,1.92 2.578,4.29 4.289,10.04 9.059,10.66 z m -58.95,-3.59 c 3.79,-2.78 6.25,-5.86 6.68,-10.86 0.32,-3.52 -11.398,0.55 -11.398,6.17 0.386,3.55 2.297,6.45 4.718,4.69 z m -103.98,-1.33 c 7.73,-2.85 6.801,-6.52 1.449,-9.88 -9.648,-5.35 -13.789,-4.3 -7.539,4.14 2.852,3.9 3.469,5.66 6.09,5.74 z m 593.13,-12.46 38.98,-27.38 -0.35,-25.12 -38.95,26.52 c -1.79,10.78 -0.08,18.01 0.32,25.98 z m -673.36,-38.91 c 1.832,-0.04 2.531,-6.17 3,-15.08 0.71,-14.84 -14.411,-35.5 -29.68,-42.65 -18.399,-8.56 -38.09,3.47 -34.809,21.29 3.047,16.4 26.367,17.11 27.27,1.91 -2.27,-3.98 0.898,-7.3 2.219,-6.99 5.98,1.64 20.16,14.37 25.902,28.59 2.226,5.59 3.598,11.29 5.199,12.58 0.309,0.24 0.617,0.35 0.899,0.35 z m 672.34,4.65 38.91,-28.44 0.19,-24.96 -38.63,26.56 c -1.53,11.14 -0.86,19.07 -0.47,26.84 z m -472.501,-39.57 c -2.929,-4.96 -0.507,-13.83 5.512,-6.25 15.539,18.05 38.009,-4.57 25.969,-18.91 -10.891,-13.04 -24.328,-8.82 -52.692,2 -20.668,7.89 -23.91,5.19 -28.988,-0.51 -4.211,-4.69 -2.07,-14.14 3.36,-14.02 16.761,-3.79 31.25,-7.5 48.558,-11.1 36.641,-7.5 58.942,39.65 25.512,56.99 -8.012,4.14 -24.57,-1.25 -27.231,-8.2 z m -161.597,-5.43 c -14.301,-12.81 -2.582,-46.44 18.437,-49.45 4.41,-0.63 10.973,-0.47 18.43,1.68 14.73,4.26 30.941,12.97 31.601,18.01 3.008,23.04 -31.281,2.38 -35.82,-0.36 -10.82,-6.56 -22.262,-5.7 -28,2.11 -13.012,17.58 10.27,37.74 24.41,16.21 3.59,-5.39 2.301,3.79 -1.558,10.04 -5.512,8.79 -19.692,8.25 -27.5,1.76 z m 636.678,7.23 36.6,-25.86 -0.24,-24.06 -35.46,25.58 -0.9,24.34 z m 2.73,-35.2 34.65,-24.92 0.59,-25 -36.37,23.91 c 0.7,9.02 0.9,17.5 1.13,26.01 z m -194.33,-14.37 c 30.46,-0.51 47.65,-45.51 31.6,-64.26 -4.77,-5.55 -8.6,-7.07 -10.78,-5 -0.47,0.47 0.31,5.51 0.62,11.21 0.98,18.13 -2.85,30.55 -16.13,44.34 -9.96,10.35 -13.75,13.55 -5.31,13.71 z m -375.238,-7.19 c -5.782,-2.03 -11.872,-6.17 -16.563,-5.16 -4.648,1.02 -6.918,-1.29 -8.711,-4.96 -6.988,-13.94 -4.848,-18.47 8.981,-10.54 6.57,3.75 8.871,2.42 26.453,-0.9 12.539,-2.39 21.09,-2.15 32.109,0.74 13.75,3.55 21.91,3.83 28.859,0.04 6.961,-3.79 11.68,-9.03 11.879,-4.77 -0.781,4.96 -5.121,17.74 -6.129,21.96 -0.468,2.07 -3.91,0.27 -7.109,0.03 -11.41,-0.85 -24.961,9.38 -33.75,3.99 -7.031,-4.34 -7.973,-5.47 -17.621,0.19 -7.191,4.22 -12.191,1.61 -18.398,-0.62 z m 367.028,-3.13 c 20.67,-17.22 25.94,-32.5 23.95,-45.03 -1.06,-9.15 -1.72,-19.22 -10.67,-24.73 -1.64,-0.78 -4.1,-1.25 -6.36,-1.6 6.91,25.93 -1.25,49.14 -30.43,73.9 8.47,4.18 17.15,2.82 23.51,-2.54 z m -465.431,0.04 c 0.942,0 1.961,-0.11 2.973,-0.47 3.598,-1.17 4.137,-10.54 1.328,-13.47 -2.809,-2.93 -5.078,-0.51 -8.359,6.91 -2.422,4.06 0.121,7.03 4.058,7.03 z m -19.019,-7.26 c 7.5,0.15 10.39,-6.76 11.679,-12.27 1.09,-4.69 -0.308,-18.67 -4.3,-13.79 -0.969,2.97 -5.039,12.54 -8.321,15 -7.297,5.55 -6.558,10.9 0.942,11.06 z m -21.211,-6.96 c 1.09,0.04 2.5,-0.11 4.222,-0.39 11.758,-1.99 20.778,-20.7 18.039,-31.32 -6.25,-11.41 -8.55,-3.71 -10.582,6.64 -1.636,4.29 -6.449,11.01 -9.378,14.49 -6.129,7.23 -7.11,10.43 -2.301,10.58 z m 707.191,5.43 35.82,-25.66 0.04,-27.46 -37.47,25.19 c 0.83,9.61 1.25,18.79 1.61,27.93 z M 704.691,1812.6 c 17.539,-0.04 32.5,-20.43 26.989,-40.08 -6.879,-20.5 -41.02,-16.13 -35.352,4.3 1.641,5.9 7.934,10.2 13.902,6.52 8.68,-5.31 7.7,3.32 2.231,6.41 -8.481,4.73 -20.16,1.88 -22.77,-7.73 -9.07,-33.44 33.938,-44.85 57.34,-10.28 8.559,12.62 17.848,26.14 23.008,31.88 4.609,5.19 5.582,4.65 4.84,-2.03 -2.969,-31.06 -24.649,-69.93 -65.27,-67.78 -39.488,3.75 -51.839,45.63 -22.031,71.8 5.043,4.37 10.313,6.56 15.434,6.91 0.539,0.08 1.09,0.08 1.679,0.08 z m 209.289,-1.68 c -14.449,-6.99 -27.57,-9.65 -41.789,-3.47 -10.511,4.6 -10.351,-0.4 -5.781,-4.46 13.199,-11.25 37.262,-6.17 47.539,0.16 3.352,2.07 4.449,8.01 0.031,7.77 z m 557.11,-49.69 0.12,-25 -40,26.8 c -0.62,5.98 0.04,15.08 1.37,24.45 l 38.51,-26.25 z m -38.55,-8.35 38.08,-25.04 0.98,-24.77 -36.99,22.93 -2.07,26.88 z m 2.66,-34.73 36.36,-25.12 0.51,-27.07 -36.02,23.71 -0.85,28.48 z m -886.841,-28.4 -22.269,-67.27 14.57,-0.85 9.852,-17.74 10.109,18.16 15.32,1.18 -27.582,66.52 z m 888.361,-8.98 35.04,-24.07 0.54,-25 -36.4,25.2 0.82,23.87 z m -1.45,-30.55 35.94,-25.98 0.74,-26.52 -40.74,27.15 4.06,25.35 z m -803.942,-15.04 -22.027,-71.99 12.418,1.72 11.64,-19.26 11.719,17.3 11.133,-0.66 -24.883,72.89 z m -165.898,-5.35 -20.981,-71.56 14.071,0.07 11.871,-18.04 10.429,17.42 15.942,0.43 -31.332,71.68 z m 965.19,-13.17 42.15,-29.57 0.35,-28.16 -40.85,27.38 -1.65,30.35 z m 41.68,-66.87 0.47,-24.69 -35.5,25.28 -3.83,27.38 38.86,-27.97 z m -752.812,-4.26 -25.738,-72.73 17.27,-0.16 10.46,-17.46 8.399,17.54 13.871,-0.12 -24.262,72.93 z m 720.122,-7.26 32.93,-22.54 -0.27,-25.32 -32.39,21.68 -0.27,26.18 z m -623.911,-294.26 -18.75,18.01 c -0.23,1.48 15.352,9.02 24.93,4.21 12.652,-6.32 19.172,-29.1 5,-41.09 -11.289,-9.53 -28.481,-1.6 -28.828,-0.47 l 17.648,19.34 z m -16.679,29.72 c 0.359,27.86 -14.329,35 -26.442,40.63 0,0 -2.027,176.44 -1.758,181.72 0,-0.78 -3.121,19.1 -3.48,20.27 0,0 -2.93,0.78 -2.93,0.74 0.551,-17.89 1.68,-201.21 1.41,-202.42 -22.699,-2.62 -29.019,-17.97 -31.09,-38.59 -17.699,1.33 -29.218,-9.34 -29.57,-11.1 -6.531,8.99 -1.68,22.19 -6.84,31.57 -15.66,-54.85 14.84,-87.7 41.45,-84.61 4.289,-52.7 62.3,-62.19 60.351,1.68 70.188,4.14 46.399,68.67 -1.101,60.11 z m -329.758,221.49 -25.434,-71.21 17.813,2.03 6.48,-13.16 c 28.559,25.15 42.93,-13.68 28.438,19.6 l -27.297,62.74 z m 965.968,-126.76 c 3.29,0.24 7.62,-2.69 8.48,-6.72 0.63,-12.03 -15.55,-9.33 -16.05,-1.76 -0.39,5.4 4.49,8.25 7.57,8.48 z m 10.59,-78.2 c 6.95,5.7 18.05,2.46 18.24,-6.13 0.16,-7.66 -8.59,-10.16 -15.47,-5.86 -5.31,3.2 -5.62,9.25 -2.77,11.99 z m 0.98,-21.21 c 38.2,-2.93 66.64,23.04 54.45,41.68 10.27,12.89 1.91,20.31 4.73,27.69 8.08,8.32 1.29,26.21 -0.75,26.29 -1.64,23.99 -8.63,27.07 -18.98,39.84 -3.13,3.72 7.27,7.35 11.25,13.72 -10.55,-4.07 -20.94,3.75 -20.86,5.54 l -4.53,5.59 c -70.74,-3.28 -134.3,-8.24 -131.88,-104.18 -10.19,-40.74 7.07,-76.99 56.45,-65.78 10.82,9.65 3.67,23.63 2.34,30.39 -4.22,18.47 0.67,30.51 2.03,39.18 4.22,26.83 23.87,51.72 25.98,9.69 3.48,5.27 1.84,6.05 7.54,8.24 13.55,4.88 13.52,-8.83 10.74,-14.34 -1.79,-2.85 -4.45,-2.62 -7.22,-2.3 -3.95,0.47 -9.11,1.95 -9.18,3.4 -1.06,-4.38 7.14,-12.5 6.29,-16.57 -1.1,-3.9 -1.76,-3.59 1.83,-1.01 17.03,12.18 27.66,-15.04 3.05,-11.92 12.15,-6.48 -5.82,-25.43 6.72,-35.15 z m -25.2,146.44 c 13.4,0.67 16.64,0.78 16.02,-6.25 2.54,-13.01 5.78,-19.02 22.73,-17.65 17.07,2.22 22.5,3.28 5.31,-7.04 -8.67,-3.82 -11.48,-4.57 -21.79,-3.63 -10.35,0.94 -9.57,1.96 -15.51,-1.56 -3.28,-1.99 -6.91,-4.41 -9.61,-4.88 -3.98,-0.71 -10.98,-2.27 -10.98,-2.27 -4.02,-20.16 -10.07,-30.31 -18.43,-39.92 -11.84,-13.44 -17.86,-15.78 -3.32,-14.77 5.35,-0.35 2.57,2.35 4.92,-19.41 0.82,-7.62 2.22,-16.45 3.36,-19.41 3.79,-9.93 4.29,-14.85 -10.04,-15.55 -35.78,-2.7 -44.14,32.11 -39.38,49.92 0.39,2.77 2.03,12.07 2.39,19.41 0.19,4.03 -0.63,7.43 -0.51,11.53 0.82,33.16 8.67,41.91 38.12,63.47 8.91,6.53 24.85,7.86 36.72,8.01 z m 31.45,-1.79 c 16.48,0.31 32.46,-7.62 24.49,-12.74 -5.16,-3.36 -23.71,-1.95 -28.87,1.72 -6.68,4.73 -4.18,10.82 4.38,11.02 z m -736.601,-28.17 -6.57,-11.6 -6.828,-54.02 1.211,-10.94 13.508,-17.74 10.71,18.36 16.829,-0.27 -28.86,76.21 z m 772.301,5.35 c 10.7,-2.11 11.13,-11.87 8.44,-17.89 -5.98,-13.24 -46.02,-19.61 -46.02,-19.65 -0.31,5.71 0.47,11.18 -3.71,17.54 0,0 26.68,7 32.31,12.11 3.75,3.44 6.05,7.78 8.98,7.89 z m 7.93,-30.04 c 3.87,-0.07 5.94,-2.89 6.99,-8.59 0.51,-3.05 -0.66,-5.66 -3.16,-9.02 -10.16,-11.06 -38.71,-18.68 -49.03,-15.86 -0.7,0.93 1.02,12.58 1.8,17.73 13.71,-0.39 36.84,11.76 43.4,15.74 z m -407.07,-68 c -13.67,19.68 -43.95,16.79 -40.7,15.43 0.23,16.87 -2.66,40 -28.25,42.46 -25.82,1.95 -39.058,-32.07 -29.25,-46.49 -15.941,6.6 -39.851,-9.96 -39.851,-11.52 -2.028,-0.04 -20.27,-48.28 34.961,-50.78 5.039,-22.78 13.64,-33.79 31.29,-43.13 l 0.43,-185.86 6.25,-8.43 0.55,194.76 c 28.28,1.25 31.76,33.6 29.65,41.06 12.58,-0.55 23.98,1.95 33.55,9.29 l 3.32,-31.75 c 0,0 6.64,11.21 5.16,17.14 -12.31,182.5 53.75,379.96 140.43,507.93 4.65,5.39 6.05,11.8 8.32,11.84 21.17,11.41 34.49,19.06 34.49,19.06 34.88,-16.76 97.11,-57.19 97.11,-57.19 l 1.02,-260.07 c -0.98,2.57 115.97,13.04 114.21,9.88 0,0 -10.23,4.02 -10.39,10.86 l -3.04,608.63 -51.17,33.4 c 0,0 -42.08,-27.5 -53.83,-36.88 l 1.29,-358.32 -90.63,53.09 c 0,0 1.45,12.7 1.6,16.8 -1.44,48.9 -25.47,65.31 -71.17,50.78 -6.13,-1.95 -10.39,-3.63 -13.4,-1.13 -19.22,56.25 -27.89,204.06 -27.85,204.06 l 128.99,218.51 218.78,1.18 3.79,-834.81 7.89,-437.538 -111.68,-81.332 -1.6,280.28 c 0,0 -16.01,7.65 -20.19,8.16 -1.57,0.16 -3.6,-3.4 -0.78,-5.19 4.1,-2.62 14.21,-6.29 14.21,-6.29 l 2.39,-277.82 c 0,0 -43.44,-29.211 -62.85,-41.359 -14.46,-9.031 -60.24,-32.071 -87.35,-45.352 -10.51,-5.121 -21.13,-9.258 -22.11,-10.078 -36.95,-15.859 -70.23,-26.961 -101.01,-43.359 -21.25,-8.672 -20.28,-0.16 -24.81,6.789 -44.33,43.828 -101.56,46.41 -147.892,26.179 -7.187,-2.66 -16.09,-5 -22.109,-9.14 -1.719,-1.289 -4.758,-2.738 -6.719,-3.211 -4.101,-0.969 -8.512,-2.77 -12.262,-5.699 -6.679,-5.27 -11.097,-13.871 -14.918,-22.418 -2.351,-5.282 -9.46,-29.922 -10.39,-37.231 -0.16,-1.211 2.379,-0.941 2.461,-1.051 0.308,-0.468 7.148,29.84 9.84,35.54 5.738,12.269 13.007,19.57 16.879,20.75 1.75,0.269 3.281,-2.43 0.89,-6.758 -4.719,-8.563 -8.59,-26.762 -9.719,-35 -1.062,-7.582 -1.25,-13.633 0.149,-13.91 0.281,-0.231 6.961,22.929 10,31.128 7.859,21.329 12.82,30.161 20.359,34.731 7.77,4.648 9.602,4.019 8.082,-0.941 -11.562,-22.54 -16.332,-39.571 -18.551,-63.551 -0.359,-4.809 2.071,-4.918 3.981,3.011 6.328,25.149 15,59.219 35.508,69.411 8.75,3.949 12.652,3.75 11.722,0.937 -24.461,-30.859 -30.55,-65.117 -30.281,-76.207 0.121,-3.672 1.61,-2.93 4.731,5.039 8.281,30.43 20.55,56.289 35.119,68.981 5.62,4.918 12.46,6.25 18.16,6.949 17.27,2.148 17.85,-4.211 2.81,-12.961 -17.11,-9.969 -36.871,-46.219 -39.058,-73.438 -0.781,-9.421 2.539,-10.429 4.918,2.11 10.16,54.097 56.53,89.879 93.68,73.32 16.71,-7.461 19.76,-17.82 5.19,-13.211 -29.45,9.301 -62.19,-11.558 -75.66,-40.699 -12.19,-26.371 -11.96,-40.191 -3.36,-75.473 5.82,-32.578 17.22,-74.218 13.47,-106.129 -4.06,-6.211 -16.83,2.539 -31.949,4.411 -9.102,1.718 -20.27,2.152 -29.762,-1.481 -8.32,-3.199 -13.008,-3.988 -14.539,0.473 -0.5,1.437 6.371,8.468 9.461,12.34 4.918,6.207 2.109,7.226 -4.812,0.468 -3.399,-3.281 -10.661,-11.019 -12.688,-11.41 -4.34,-0.89 -4.531,4.031 -1.019,16.57 12.378,48.668 9.058,49.489 -12.153,59.372 -21.008,8.007 -14.371,12.027 -23.711,20 -6.558,-5.122 8.602,-28.672 25.711,-33.793 14.02,-4.219 12.301,-11.36 6.172,-30.618 -6.211,-26.992 -16.84,-62.703 -10.711,-86.64 12.93,-50.321 64.031,-49.301 103.17,-28.949 l 4.76,-12.813 c -33.078,-13.398 -207.5,-24.84 -266.25,-18.09 -4.531,15.86 -5,19.961 -6.828,38.641 0,0 36.289,-16.371 54.41,-19.219 22.617,-3.562 57.457,-3.711 66.406,17.109 2.731,6.09 -0.078,11.29 -7.887,7.731 -14.339,-6.52 -38.871,-11.332 -58.711,-10.082 -16.601,1.019 -40.32,7.699 -50.589,13.871 -4.879,2.93 -8.981,8.672 -5.161,15.859 3.399,0.743 7.821,-2.968 10.469,-4.339 30,-15.11 46.492,-18.079 66.063,-12.258 14.84,4.41 34.84,20.429 29.918,24.957 -5.039,-1.758 -21.68,-15.699 -33.16,-18.75 -23.598,-6.289 -48.79,3.32 -73.321,19.222 -7.539,6.559 -4.109,11.36 5.153,6.09 36.757,-18.48 52.07,-30.742 87.269,-4.801 7.848,5.821 12.219,5.071 16.828,1.559 18.25,-16.367 18.211,-7.187 4.813,9.801 -3.012,3.871 -5.782,9.262 -7.582,15 -1.371,4.262 -1.68,8.519 -4.102,11.332 -4.137,4.769 -11.598,7.066 -20.156,10.816 -12.301,5.434 -16.402,2.813 -7.301,-1.597 15.899,-7.77 23.668,-16.09 3.899,-11.602 -17.969,8.012 -47.969,3.512 -64.918,-8.238 -13.321,-6.492 -19.18,-13.442 -22.301,1.25 -6.602,30.66 -0.199,72.219 -9.031,125.738 -1.68,10.191 -3.711,16.641 -1.598,18.051 2.738,1.789 9.566,-4.809 18.047,-16.719 3.871,-5.43 11.562,-15.859 11.519,-13.672 0.282,11.321 -17.34,32.571 -31.867,40.93 -8.012,4.609 -13.441,25.902 -4.301,21.211 7.071,-3.43 43.789,-35.699 50.782,-47.219 3.238,-5.351 5.976,-1.922 2.539,4.367 -2.071,3.75 -10.7,14.852 -19.063,23.012 -14.879,14.531 -16.598,13.828 -13.75,16.84 5.66,5.859 17.731,-1.719 39.301,-21.211 5.543,-7 12.851,-13.289 11.949,-9.848 2.223,5.469 -19.379,28.668 -32.187,34.879 -2.379,1.488 -2.692,3.09 -2.5,5.942 1.211,10.976 26.019,-5.122 46.558,-23.903 7.699,-7.039 1.332,6.211 -7.609,15.192 -7,7.07 -18.289,15.859 -25.981,18.871 -7.621,3.16 -8.089,9.797 -2.109,12.578 20.621,0.859 41.91,-20.199 54.57,-36.762 3.52,-4.527 6.719,-8.047 3.09,0.551 -11.762,25.93 -36.18,40.543 -53.129,43.512 -13.75,2.418 -13.441,14.808 -0.511,13.398 14.218,-1.519 37.5,-14.379 57.23,-34.219 5.738,-5.781 15.391,-18.91 13.398,-11.211 -0.039,2.11 -6.097,10.313 -13.089,18.243 -16.168,16.019 -34.918,30.199 -54.797,34.418 -9.301,2.609 -36.922,-2.7 -37.071,2.07 -0.082,3.551 2.887,5.66 11.68,8.59 34.098,11.371 84.059,-17.969 111.359,-63.008 1.961,-3.242 5.668,-4.613 5.899,-3.902 -13.199,36.832 -54.18,70.23 -86.75,75.929 -22.188,3.563 -44.539,-2.07 -55.16,-17.027 -11.949,-16.793 -7.309,-39.293 10.66,-37.5 9.422,0.898 8.672,6.207 8.519,6.406 -0.668,0.621 -6.128,-1.949 -9.527,-1.289 -12.269,2.422 -10.98,24.609 6.988,22.422 20.661,-2.5 23.59,-35.121 0.512,-41.949 -21.332,-6.332 -29.141,3.398 -34.961,14.957 -8.558,16.91 0.621,44.179 15.66,54.652 42.149,29.258 95.469,4.719 125.59,-24.301 14.918,-14.34 25.82,-31.441 32.649,-49.84 1.761,-4.261 4.921,-4.031 3.793,0.579 -42.383,108.05 -168.793,119.769 -187.582,36.839 0,0 -0.661,-2.539 -12.809,14.731 -19.731,28.043 -49.141,34.25 -85.43,15.152 -36.601,-13.75 -48.98,-22.5 -74.371,-35.621 -3.711,-1.332 -27.191,-17.539 -30.941,-14.18 -35.981,23.86 -67.348,31.989 -84.418,49.489 0.59,3.203 -2.461,51.679 -2.461,51.679 l 0.82,208.982 c 0.281,2.03 -19.019,-1.36 -51.172,-6.4 -85.429,-17.07 -77.929,27.85 -89.258,31.01 -5.968,1.21 -5.5,-1.36 -7.14,159.77 -0.469,46.79 -1.41,129.06 -2.07,182.85 -0.711,53.75 -0.899,98.55 -0.391,99.49 0.461,0.94 5.269,5.08 10.781,8.99 20.82,14.76 32.5,23.67 78.078,58.43 10.313,7.86 12.891,9.22 12.891,9.22 5.242,-96.83 0.551,-198.47 3.133,-281.72 l 3.859,0 -1.519,279.46 c -7.852,2.03 179.648,111.75 282.378,147.34 1.918,0.66 6.719,-1.48 6.719,-1.48 58.992,-72.27 214.141,-50.39 226.641,37.61 25.711,-53.63 138.68,-157.85 190.28,-32.22 0,0 18.71,-36.1 34.72,-38.48 36.1,-4.8 40.08,0.9 119.46,39.41 -90.75,-137.69 -140.78,-283.51 -147.19,-460.07 z m -48.24,34.33 c 1.95,-6.05 2.65,-13.94 0.93,-20.15 -2.3,-4.85 -5.78,-4.77 -5.78,-4.77 l -17.57,15.04 -17.19,-15.98 c 0,0 -10.51,10.63 -4.729,25.32 10.979,20.54 36.169,16.83 44.339,0.54 z m 454.14,2.42 c 11.29,0.71 5.47,-12.22 -11.17,-20.97 -10.47,-5.51 -19.14,-7.07 -22.89,-5.08 -2.04,6.05 -0.32,11.6 0.97,14.06 7.11,3.67 26.6,10.08 33.09,11.99 z m -726.451,-24.37 c 12.5,0.31 23.32,-8.59 23.711,-24.38 0.16,-6.4 -3.122,-12.77 -3.122,-12.77 l -20.898,15.39 -15.941,-17.03 c -2.731,-0.94 -12.5,11.25 -5.778,24.49 4.879,9.65 13.481,14.1 22.028,14.3 z m 301.841,-7.23 c 17.58,-7.97 20.62,-32.54 3.51,-41.99 -8.08,-4.49 -20.86,-6.99 -26.83,2.11 l 17.26,18.83 -19.84,16.64 c -0.78,0.78 15.2,9.26 25.9,4.41 z m 421.56,6.45 c 3.01,0 3.79,-1.17 4.65,-3.99 2.46,-8 -3.79,-16.09 -14.61,-18.63 -10,-2.38 -9.02,-3.55 -13.75,5.39 -3.71,6.99 -4.73,6.68 1.09,8.91 7,2.26 14.5,4.92 22.62,8.32 z m -499.491,-12.03 c 0,0 -12.457,-12.7 -17.93,-17.97 l 18.75,-19.57 c 0.941,-2.39 -21.598,-12.58 -33.48,2.81 -7.688,10 -3.36,28.98 7.582,35.51 11.129,6.64 27.148,1.13 25.078,-0.78 z m 26.831,2.18 c 11.1,0.16 20.16,-8.67 20.36,-19.72 0.15,-11.06 -8.68,-20.2 -19.77,-20.35 -11.05,-0.16 -20.19,8.71 -20.35,19.76 -0.161,11.06 8.71,20.16 19.76,20.31 z m -273.98,-33.71 -18.011,-18.83 19.461,-21.17 c 0,0 -15.391,-2.5 -20.821,-1.48 -26.488,4.96 -23.91,35.98 -3.437,44.22 8.668,3.01 15.078,1.99 22.808,-2.74 z m -352.929,-6.4 c 0,0 3.519,-39.89 6.757,-53.48 -2.109,-15.55 -12.187,-26.13 -16.679,-42.11 -2.418,-7.07 -11.489,-16.64 -13.239,-6.64 -6.531,12.38 -0.281,27.66 -5.71,36.45 -2.731,8.2 -1.911,12.96 -3.711,21.56 -4.02,6.99 -7.219,10.31 -6.68,16.64 -1.051,28.2 -8.117,22.62 -20.617,20.31 -10.313,-3.4 -24.223,-4.76 -32.391,-10.82 -17.73,-12.46 -8.082,-19.61 -14.762,-38.44 1.051,-8.28 3.09,-11.25 1.641,-18.36 -6.84,-33.67 5.781,-30.86 5.391,-31.36 -5.27,-7.74 1.211,-25.16 3.75,-24.26 15.39,-3.79 9.808,-15 14.808,-20.98 5.031,-5.78 4.762,-8.67 25.852,-9.22 38.129,-2.97 98.679,2.7 111.758,49.14 8.171,65.55 20.121,123.25 -56.168,111.57 z m 378.871,6.4 c 10.699,0.16 19.488,-8.36 19.648,-19.06 0.149,-10.66 -8.398,-19.45 -19.07,-19.61 -10.699,-0.16 -19.488,8.36 -19.641,19.06 -0.16,10.67 8.391,19.46 19.063,19.61 z M 409.57,1250.73 c 7.192,0.07 15.7,-1.41 22.7,-8.13 14.921,-14.33 15.582,-27.34 8.941,-82.5 -1.871,-15.55 -7.34,-28.55 -14.57,-34.22 -14.571,-11.36 -32.379,-19.45 -47.11,-23.08 -7.73,-1.92 -14.492,-1.96 -19.73,-1.92 -5.66,0.08 -8.981,2.7 -9.371,7.42 1.25,12.86 -11.879,14.11 -19.489,13.36 -13.519,-0.5 -14.921,-1.95 -6.492,4.61 9.653,7.46 31.879,7.58 36.102,3.21 8.668,8.67 17.73,9.68 28.789,10.97 -1.641,2.39 -5.629,12.03 -2.969,18.21 5.699,10.07 15.348,27.85 25.469,34.49 10,13.08 1.519,7.19 -4.692,6.95 -3.558,-0.12 -3.238,1.06 -3.828,3.44 -2.461,10.19 -6.019,29.26 -6.05,40.59 -0.04,5.46 5.109,6.52 12.3,6.6 z m -63.75,-14.14 c 3.91,-3.48 3.828,-8.32 -0.269,-11.92 -4.692,-4.14 -14.031,-1.87 -14.262,5.9 0.621,7.85 9.762,10.08 14.531,6.02 z m 675.31,-27.62 c -16.21,-0.78 -29.61,16.56 -23.47,33.91 3.36,4.68 4.8,3.98 4.8,3.98 l 18.48,-16.48 17.73,18.51 c 14.61,-17.62 2.07,-38.59 -17.54,-39.92 z m -695.11,26.91 c -1.329,-5.08 0.429,-10.11 0.621,-12.58 -3.2,-2.3 -16.911,-6.28 -24.262,-9.92 -5.109,-1.75 -8.828,3.05 -8.078,7.42 1.91,8.17 13.898,13.48 22.648,16.02 2.699,0.66 7.11,0.9 9.071,-0.94 z m 3,-23.36 c 4.96,0.59 3.48,-10.15 1.64,-15.66 -1.832,-3.95 -7.301,-3.79 -12.18,-4.06 -8.64,-0.51 -19.531,-10.51 -24.218,-8.87 -1.563,0.7 -2.66,4.8 -2.813,7.42 0.973,14.38 24.879,19.65 37.571,21.17 z m 26.14,-14.96 c -1.64,-2.42 -6.961,-3.59 -11.41,-2.38 -7.27,1.99 -8.359,12.42 -1.988,16.02 11.25,3.71 18.008,-6.84 13.398,-13.64 z m 717.69,23.71 -9.84,-15 -14.96,0.28 24.18,-74.26 11.21,29.02 c 1.48,13.36 3.28,26.64 4.65,40 l -15.24,19.96 z m -318.588,-6.25 19.179,-15.62 16.399,16.8 c 12.23,-27.23 -1.871,-39.73 -16.828,-39.38 -16.532,0.35 -34.141,16.02 -18.75,38.2 z m -420.391,-28.16 c 6.051,1.17 3.43,-15.23 2.609,-15.7 -3.859,-1.45 -20.582,-3.64 -27.609,-9.53 -14.961,-11.76 -21.371,-4.61 -14.422,9.45 6.571,8.2 30.711,15.62 39.422,15.78 z m 19.059,-0.78 c 6.64,0.62 11.332,-6.76 7.269,-13.79 -5.551,-5.16 -15.238,-1.37 -15.199,5.9 -0.039,4.57 3.75,7.65 7.93,7.89 z m -9.84,-41.6 c 0.89,-3.83 -0.43,-2.62 -7.469,-4.69 -3.859,-1.13 -9.922,-3.75 -16.242,-6.91 -9.301,-4.69 -11.918,-7.23 -15.199,-6.68 -2.621,0.58 -5.629,1.71 -6.45,4.33 -3.242,10.63 5.391,21.41 25.508,28.83 4.184,1.56 11.641,2.77 14.223,3.09 6.84,-0.04 -0.473,-10.51 5.629,-17.97 z m 11.871,15.93 c 9.687,0.16 11.519,-12.73 4.258,-15 -17.028,-4.41 -15.59,15.04 -4.258,15 z m -11.992,-47.5 c 2.73,-2.61 3.121,-6.91 0.043,-9.18 -5.59,-2.77 -27.153,-0.39 -27.313,5.67 -0.078,3.98 7.11,5.31 13.832,5.47 6.68,0.11 11.25,0.15 13.438,-1.96 z m 973.241,-6.6 -17.77,-23.75 23.86,-59.68 21.76,72.26 -17.11,-6.8 -10.74,17.97 z M 311.25,1044.98 c 4.102,-183.75 3.398,-604.839 3.398,-604.839 l 52.301,-35.551 55.082,39.57 c -0.582,132.539 -1.09,223.988 -1.64,346.68 l 80.699,-44.328 c 0,0 2.461,-3.563 2.109,-20.121 -5.578,-45.821 38.711,-75.551 68.09,-57.461 11.332,4.769 12.262,5.621 14.652,2.031 6.598,-9.84 14.059,-52.031 15.309,-78.941 1.871,-40.551 12.539,-123.25 15.121,-123.79 l -131.332,-222.5 -204.73,-1.019 -2.34,827.579 c 10.621,-12.54 15.472,-20.78 33.281,-27.31 z m 762.03,17.74 -9.84,-15.04 -11.88,0 20.82,-76.91 25.24,75.19 -13.91,1.76 -10.43,15 z M 415.699,449.398 c 0,0 -25.539,-18.32 -33.711,-23.597 -4.289,-1.602 -6.367,-1.91 -7.379,2.187 -1.25,5.043 0.743,14.571 2.539,30.352 1.641,14.609 1.641,15.43 -0.82,36.211 -2.5,21.719 -2.808,22.621 -0.777,51.289 2.301,31.961 2.73,63.012 0.23,82.23 -2.422,18.282 -2.383,59.961 -0.551,83.2 2.27,28.48 1.532,53.48 -2.218,74.14 -6.641,36.84 -7.742,49.539 -0.782,77.231 2.571,10.39 3.86,15.898 3.321,33.238 -0.59,19.34 -0.981,25.633 -7.852,68.402 -3.988,24.61 -4.301,28.008 -0.59,66.949 0.743,7.86 1.012,13.09 4.02,15.59 3.48,2.93 39.922,5.04 39.922,5.04 l 4.648,-602.462 z m -95.859,594.922 39.73,0.43 c -3.09,-12.46 -3.75,-21.91 -4.058,-30.9 l -35.282,23.17 -0.39,7.3 z m 0.59,-15.9 34.922,-22.81 c 0.039,-9.61 -0.704,-18.79 0.699,-28.399 l -35.391,23.519 -0.23,27.69 z m 0.082,-36.17 37.34,-25.551 c 1.488,-9.918 4.527,-20 5.668,-28.937 l -42.348,28.668 -0.66,25.82 z m 1208.198,-10.078 1.95,-733.75 -371.91,-1.641 -117.89,226.489 c 0,0 1.21,20.82 4.14,31.441 3.52,12.848 4.45,15.668 9.38,16.25 13.24,-6.832 28,2.269 32.5,12.309 5.58,12.339 -5.67,31.05 -22.97,35.07 -7.62,1.84 -15.94,-1.602 -24.34,-8 -4.88,-4.11 -5.98,-4.57 -6.95,-1.02 -2.19,8.008 4.88,29.731 17.58,48.399 7.07,10.351 8.98,13.359 11.25,9.41 9.25,-15.969 29.06,-12.649 36.56,-3.668 9.1,10.937 7.19,35.82 -13.4,42.379 -40.31,12.93 -58.83,-27.539 -58.32,-27.418 l -8.63,48.476 c 48.55,11.872 76.56,16.09 91.95,30.821 12.15,11.562 17.93,31.601 16.41,49.371 0,0 134.8,54.769 197.89,88.75 108.63,58.558 204.8,136.332 204.8,136.332 z m -205.27,-5.313 -9.96,-17.539 -14.14,0 28.59,-74.019 21.87,77.301 -13.63,-1.25 -12.73,15.507 z m -1001.17,-21.25 42.808,-29.488 c 0.942,-9.609 2.152,-18.133 0.863,-28.992 l -45.082,29.812 1.411,28.668 z m 835.19,9.102 -10.66,-14.18 -12.27,1.289 24.06,-73.32 c 7.35,21.211 13.99,50 21.25,71.211 l -11.4,-0.551 -10.98,15.551 z M 321.48,917.91 365.781,888.578 C 365.98,879.52 366.41,871 363.238,864.59 l -41.789,26.801 0.031,26.519 z m 918.99,-4.211 -10.74,-20.668 -14.34,1.918 25.63,-70.277 28,69.648 -17.34,-0.941 -11.21,20.32 z M 321.559,883.73 360,855.531 c 0.551,-0.39 -2.148,-12.851 -1.559,-19.922 l -36.531,22.539 -0.351,25.582 z m 1.062,-34.839 35.82,-24.61 c 0.079,-9.332 0.7,-18.121 2.18,-26.051 l -38.859,25.231 0.859,25.43 z m -0.633,-35.551 41.41,-29.488 2.192,-23.672 -43.871,27.582 0.269,25.578 z m 340.864,-9.879 c 39.726,-14.801 76.988,-90.352 75.82,-188.199 -0.781,-67.891 19.726,-164.852 19.34,-163.711 0,0 -11.532,-1.531 -14.774,1.008 -14.957,49.851 -19.957,102.543 -22.297,146.019 -1.961,36.25 -4.031,71.801 -6.332,80.121 -6.519,29.211 -13.589,63.321 -32.308,85.5 -14.531,16.762 -31.129,19.692 -41.051,0.86 -8.129,-15.387 8.98,-40.899 23.199,-32.418 3.403,1.949 5.473,5.199 0.981,5.121 -14.77,-2.192 -24.649,18.199 -15.309,27.886 16.399,17.114 45.149,-20.976 31.828,-41.988 -5.898,-9.07 -21.25,-10.672 -33.508,-7.308 -27.351,13.199 -34.222,45.546 -25.043,66.878 6.954,16.25 22.262,25.969 39.454,20.231 z M 614.77,793.73 c 3.242,-0.152 1.011,-6.089 -1.961,-15.39 -7.028,-22.262 6.171,-56.828 24.421,-63.711 5.469,-3.75 5.192,-5.149 1.52,-7.18 -11.91,-6.719 -33.551,13.352 -39.262,35.742 -4.136,16.207 -3.117,35.309 4.692,43.438 4.261,4.41 7.621,6.75 9.922,7.07 0.238,0.031 0.468,0.071 0.668,0.031 z m -293.211,-13.121 44.222,-28.871 c 2.071,-9.019 1.168,-18.629 -0.23,-28.359 l -44.262,30.859 0.27,26.371 z m 266.8,0.391 c 3.282,0.078 2.071,-5.391 1.129,-15.43 -2.109,-23.199 5.121,-40.121 21.492,-54.14 6.95,-5.899 8.821,-7.731 5.86,-10.86 -4.219,-4.41 -16.371,1.52 -25.86,11.41 -17.39,18.161 -23.171,52.379 -9.609,64.801 2.969,2.739 5.27,4.141 6.988,4.219 z m 491.761,-4.02 c 18.9,0.7 34.84,-6.601 36.6,-29.691 2.58,-33.789 -28.95,-52.309 -50.9,-32.891 -19.69,19.493 0.27,50 23.09,35.704 11.48,-7.223 -2.23,-23.75 -11.49,-15.231 -4.22,3.859 -6.05,1.481 -3.04,-2.973 8.98,-13.398 26.64,-2.269 25.39,9.571 -2.5,23.203 -31.02,22.929 -41.76,13.832 -14.73,-12.461 -27.7,-30.781 -37.35,-44.141 -7.93,-11.609 -9.61,-11.289 -8.43,3.039 3.08,37.821 38.43,61.602 67.89,62.781 z m -514.499,-7.429 c 3.008,0.121 1.84,-4.172 2.078,-15.313 1.211,-28.547 13.242,-46.328 28.512,-56.289 5.117,-5.621 -1.441,-9.648 -11.09,-6.91 -21.922,6.762 -44.301,53.871 -25.711,74.141 2.578,2.851 4.649,4.34 6.211,4.371 z m -21.32,-9.332 c 3.039,0.191 1.32,-6.129 1.597,-18.047 0.622,-25.082 8.364,-37.113 27.032,-52.422 6.05,-4.961 6.84,-4.41 4.41,-7.191 -6.36,-7.34 -28,3.089 -37.219,18.089 -10.98,17.852 -12.582,44.84 -2.391,55 2.86,2.852 4.969,4.454 6.571,4.571 z M 523.09,748.148 c 2.531,-0.039 1.129,-4.57 1.519,-15.386 0.942,-26.25 6.911,-39.262 23.59,-51.371 10.473,-7.661 13.012,-5.352 9.813,-8.36 -5.633,-5.312 -20.942,-0.781 -32.461,8.949 -17.231,14.571 -22.071,50.469 -8.051,62.731 2.5,2.23 4.262,3.437 5.59,3.437 z m -200.789,-3.707 42.5,-29.461 -1.211,-24.878 -42.262,28.628 0.973,25.711 z m 742.859,-46.64 c -17.31,3.551 -23.83,16.008 -21.76,30.148 0.7,4.731 3.48,7.43 6.44,1.25 2.54,-9.801 9.11,-23.359 18.01,-26.008 3.63,-1.062 0.63,-6.062 -2.69,-5.39 z m -371.961,29.371 c 19.5,-49.102 19.18,-102.774 22.391,-153.442 4.289,-67.378 16.25,-112.769 20.109,-120.429 0,0 -19.019,-0.192 -20,2.539 0,0 -17.969,89.379 -15.269,133.558 0.191,49.454 -9.41,92.891 -15.309,112.422 -6.211,17.309 -6.492,5.899 8.078,25.352 z M 322.07,707.988 362.969,681.27 c -0.59,-9.141 -0.668,-18.282 -0.547,-27.418 l -40.082,28.32 -0.27,25.816 z m 549.61,2.274 c 0.039,-1.492 5.941,-2.742 15.16,-0.512 10.23,2.461 20.39,2.031 28.281,-0.121 8.359,-2.301 9.258,0.391 1.719,3.711 -3.719,1.609 -9.57,5.281 -18.36,5.121 -8.75,-0.16 -26.839,-4.961 -26.8,-8.199 z m 165.59,1.047 c 0.97,-1.829 4.1,-5.969 6.87,-9.18 5.27,-6.129 6.76,-6.168 4.34,-8.629 -5.51,-5.738 -17.07,2.578 -18.32,13.16 -1.1,7.781 2.77,12.66 7.11,4.649 z m -365.981,-2.11 c 19.063,-27.179 21.91,-90.969 22.301,-136.32 0.359,-40.859 14.14,-115.668 15.281,-115.359 -3.949,-2.34 -9.223,-1.52 -14.18,0.39 -4.921,6.41 -7.929,24.34 -13.64,72.86 -1.481,12.531 -4.332,52.378 -5,84.449 -0.582,28.281 -16.36,89.531 -16.36,89.531 0,0 6.129,4.34 11.598,4.449 z m -21.25,-6.789 c 17.383,-38.832 20.231,-77.351 21.012,-124.14 0.75,-44.219 10.551,-96.059 14.258,-118.95 -5.86,-0.59 -12.071,-1.09 -14.528,1.559 -1.562,2.152 -2.812,5.512 -3.551,9.851 -7.929,38.239 -9.808,79.84 -12.07,115.04 -3.398,54.531 -4.301,68.039 -12.039,95.23 -4.371,15.43 -5.93,15.078 -2.609,18.051 2.539,2.258 7.34,3.398 9.527,3.359 z m 195.582,-8.949 c 0.469,-18.051 2.82,-10.699 9.18,-7.813 4.808,0.43 8.75,-2.226 17.66,-5.507 11.367,-4.141 10.348,-5.551 18.359,-1.641 4.918,2.422 8.871,3.238 11.211,1.328 9.34,-7.578 21.41,-3.316 28.199,2.852 5.282,2.769 11.059,1.25 15.551,0.859 6.489,-0.629 4.77,3.512 5.59,11.68 0.699,7.261 -2.07,7.89 -9.57,5.429 -7.699,-2.5 -15.321,-2.847 -21.961,-0.82 -17.07,5.192 -29.531,1.832 -37.961,0.512 -19.969,-3.129 -21.02,-1.141 -25.551,1.711 -3.359,2.148 -8.949,6.058 -10.859,5.937 -1.949,-0.109 -1.289,-6.636 0.152,-14.527 z m 177.039,8.32 c 1.87,0.981 2.77,-1.601 5.43,-5.043 4.41,-5.777 5.7,-8.468 1.99,-9.019 -9.81,-1.41 -12.23,-0.391 -11.92,5.703 0.28,4.848 1.37,6.758 4.5,8.359 z M 629.531,693.23 c 14.379,-14.5 18.047,-95.82 19.649,-113.32 5.199,-94.808 14.218,-108.441 9.57,-115.551 -5.43,0.082 -7.34,-1.949 -10.898,2.813 -12.301,34.726 -11.602,70.43 -13.59,106.68 -2.813,48.007 -7.582,74.027 -14.34,97.777 -4.492,15.82 -4.41,16.09 3.668,20.422 1.449,0.789 4.648,1.219 5.941,1.179 z M 610.16,681.781 c 5.039,-11.519 15.231,-63.871 16.602,-109.062 1.129,-35.899 9.687,-106.09 11.289,-106.449 -5.242,-0.5 -11.531,0.589 -14.071,4.531 -15.699,69.179 -10.699,136.25 -28.82,205.828 1.051,3.351 6.789,8.941 15,5.152 z m -287.461,-8.511 42.379,-30.391 0.902,-25.938 -43.281,30.661 0,25.668 z m 630,3.242 C 928.75,667.25 922.578,659.59 926.328,652.91 c 3.16,-5.621 12.692,-3.672 38.203,7 19.02,7.93 25,4.449 28.867,-7.539 -0.16,-17.742 -17.378,-19.769 -27.07,-17.351 -4.18,0.16 -3.558,-0.231 0.902,-5.782 19.719,-15.468 43.94,14.813 31.872,33.992 -9.454,17.54 -25.782,22.5 -46.403,13.282 z M 802.461,669.32 c -19.731,-15.468 -12.691,-43.398 3.75,-47.582 4.57,-2.34 11.41,-1.25 14.059,0.551 2.46,1.602 2.46,4.262 -2.61,5.121 -15.238,2.539 -23.91,13.711 -16.531,25.07 7.152,11.02 20.391,8.872 45.902,-2.101 22.028,-9.5 31.68,-6.57 34.297,4.84 1.133,5.043 -0.277,9.761 -10.816,10.16 -29.422,1.09 -48.91,18.941 -68.051,3.941 z m 264.299,-42.73 c -1.33,8.039 -14.38,-0.199 -23.05,-14.461 -8.51,-13.981 -9.37,-15.969 -11.13,-1.438 -2.58,21.68 19.92,38.629 33.98,39.18 16.92,1.949 28.01,-7.5 28.44,-18.402 0.86,-21.449 -24.77,-21.68 -28.24,-4.879 z m -745.041,12.808 44.922,-30.82 c 0,0 1.48,-16.527 0.55,-25.387 l -45.082,28.829 -0.39,27.378 z m 539.019,-10.347 c -19.527,-13.25 -8.039,-37.391 5.59,-40.121 14.41,-2.852 15.434,7.191 1.094,10.16 -7.652,3 -9.613,10.269 -6.602,15.89 6.801,11.18 19.41,3.95 26.758,0.469 16.293,-7.769 24.723,-10.578 29.883,-5.23 9.141,9.531 0.98,26.48 -11.09,20.511 -3.25,-1.601 -5.711,-3.171 -12.621,-1.449 -10.512,2.231 -23.16,4.571 -33.012,-0.23 z m -538.629,-26.289 44.18,-30.242 -1.367,-26.719 -41.442,30.398 -1.371,26.563 z M 323.012,566 364.57,536.43 c -0.621,-11.289 -0.351,-15.821 0.121,-23.008 l -41.992,27.109 0.313,25.469 z m 734.448,-5.66 c 33.32,-3.289 22.27,-41.531 -0.98,-31.211 -6.21,4.68 -8.08,4.293 -14.96,-12.5 -8.82,-21.449 -10.97,-19.688 -9.76,5.109 0.9,24.262 12.03,38.403 25.7,38.602 z m -262.382,-5.86 c 0.781,0 1.402,-0.121 1.801,-0.429 2.262,-2.539 -4.5,-12.539 -10.238,-18.403 -4.219,-2.769 -14.45,4.731 -11.993,8.364 2.93,3.547 15.043,9.957 20.43,10.468 z m 44.41,-19.691 -5.937,-0.859 c -8.981,20.039 -27.653,15.429 -33.43,-3.129 l -8.211,0.898 c 8.289,22.821 37.86,36.801 47.578,3.09 z m 167.702,-4.57 -10.081,-0.59 c -9.019,21.723 -21.839,24.961 -32.66,3.48 l -7.808,2.27 c 13.437,27.422 35.859,29.641 50.549,-5.16 z m -50.35,24.761 c 5.148,0.321 4.488,-2.031 -0.899,-9.371 -4.652,-6.371 -5.781,-7.379 -10.472,-3.91 -7.699,5.711 5.082,12.891 11.371,13.281 z m 47.73,-0.621 c 0.98,-0.039 2.11,-0.16 3.44,-0.468 10.39,-2.582 15.15,-7.5 10.04,-13.789 -3.17,-3.942 -6.25,-5.512 -8.36,-2.852 -6.99,11.559 -10.862,17.461 -5.12,17.109 z M 847.699,547.52 c 1.09,-4.29 -2.308,-7.34 -6.097,-3.79 -1.563,1.489 -2.891,3.95 -2.692,5.79 2.379,2.218 8.039,0.39 8.789,-2 z M 322.621,532.762 365.309,502.09 c 1.41,-10.82 1.679,-19.02 1.601,-26.399 l -43.941,29.137 -0.348,27.934 z m 622.418,-9.301 c 24.609,-16.832 53.441,-16.641 71.481,-1.832 4.03,3.32 7.54,3.473 7.62,0.269 -2.58,-11.796 -33.941,-26.949 -58.441,-18.359 -13.469,4.691 -24.527,9.371 -33.359,21.949 -5.231,8.211 5.551,2.891 12.699,-2.027 z m -10.43,-8.199 c 35.981,-31.024 64.532,-22.422 86.211,-6.762 3.2,0.781 3.24,-2.109 3.95,-7.461 0.93,-6.84 -4.77,-10.238 -20.36,-14.879 -30.109,-9.031 -65.43,0.86 -71.789,21.051 -0.742,3.949 -2.269,9.098 1.988,8.051 z m -612.148,-18.602 43.277,-29.68 -1.359,-22.699 -42.188,28.52 0.27,23.859 z m 0.66,-34.762 40.899,-27.699 -0.149,-18.789 -39.73,28.32 -1.02,18.168 z M 620,453.07 c 174.34,-39.41 297.891,-20.699 419.18,0.66 L 1146.6,243.07 499.18,242.172 c 42.3,68.476 77.461,143.359 120.82,210.898"
         inkscape:connector-curvature="0"
         id="path22"
         style="fill:#131f67;fill-opacity:1;fill-rule:nonzero;stroke:none" /><path
         d="m 62.3789,2398.7 0,-22.97 23.4805,0 0,-199.85 -23.4805,0 0,-24.72 68.2421,0 0,24.72 -18.082,0 0,56.68 27.422,38.01 41.09,-94.69 -26.25,0 0,-24.72 74.461,0 0,24.72 -17.782,0 -54.531,121.72 51.801,78.48 19.219,-0.35 0,22.97 -73.949,0 0,-22.97 21.332,0 -62.813,-96.37 0,96.37 18.633,0 0,22.97 -68.7931,0 z m 573.9101,-123.4 32.262,-60.32 0.039,-2.81 17.859,-34.84 2.692,-1.72 4.019,-7.58 0.43,-3.71 9.961,-15.9 -0.071,-3.44 42.258,-78.55 c 34.813,13.01 320.982,36.41 426.962,-1.88 l 15.42,26.14 3.68,0.04 27.22,47.73 -0.43,4.02 9.14,10.43 1.33,4.77 30.04,46.99 0.12,7.58 37.54,62.62 -660.471,0.43 z m 647.931,-8.99 c 0,0 -19.61,-37.69 -29.69,-52.89 -8.16,6.45 -31.83,2.07 -30.43,-22.89 -38.63,14.61 -47.93,-31.44 -18.08,-41.8 -15.32,-13.35 -29.97,1.76 -41.57,12 -11.36,-2.82 -34.96,-11.14 -48.28,13.4 0,0 5.59,-3.01 11.13,-6.29 31.61,-9.57 34.15,33 10.63,40 -2.93,0.78 -8.52,1.09 -8.52,1.09 7.89,32.77 -42.77,44.18 -43.75,4.84 0,0 -6.01,0.98 -10.58,0.12 -26.88,-4.88 -20.7,-44.49 6.76,-42.62 3.78,0.28 7.14,-0.39 7.14,-0.39 -0.43,-6.36 -33.67,-18.47 -57.61,3.36 -11.37,-8.67 -29.34,-19.49 -52.78,2.07 15.43,0.63 30.2,5 30.04,22.46 -0.11,11.37 -10.349,21.53 -25.11,22.07 -0.821,12.7 -10.282,24.85 -22.579,25.79 -15,-0.9 -22.66,-13.01 -22.781,-25.79 -12.769,-1.32 -24.68,-12.57 -21.949,-25.46 3.75,-17.58 17.309,-19.77 32.769,-16.41 -18.82,-30.24 -49.449,-14.45 -58.902,-4.81 -11.25,-10.5 -30.859,-24.72 -55.039,-5.27 12.891,2.19 27.191,9.73 24.762,27.7 -1.871,14.18 -17.77,18.36 -24.68,17.61 0,9.38 -7.07,24.81 -23.75,23.21 -18.211,-1.76 -17.109,-24.77 -16.922,-24.93 -15.039,1.22 -25.929,-16.44 -21.64,-27.73 5.203,-13.75 16.14,-18.01 36.211,-14.3 -23.43,-21.95 -38.282,-13.43 -51.051,-8.82 -11.328,-11.84 -26.449,-15.67 -41.918,-5.16 34.648,-1.64 29.109,59.57 -11.949,37.38 -3.551,11.49 -8.872,25.63 -30.391,22.31 l -24.492,47.34 635.001,2.81 z m -793.2,-39.18 c -1.758,0 -3.559,-0.11 -5.399,-0.23 -66.32,-4.22 -90.851,-50.35 -87.73,-91.17 2.109,-27.58 17.148,-51.1 39.019,-63.87 9.379,-7.15 11.328,-9.81 9.692,-13.16 -1.954,-3.95 -4.571,-3.56 -9.883,1.32 -75.899,72.62 -182.809,-12.69 -135.508,-106.83 37.578,-74.89 143.09,-57.58 165.699,26.68 1.801,6.72 4.692,9.61 7.82,7.77 2.219,-1.29 0.469,-10 -1.332,-23.2 0.153,-47.7 -49.488,-122.74 -52.308,-125.28 l 130.16,0.12 c -29.84,40.74 -47.34,80.74 -50.98,138.95 -0.348,17.57 6.21,13.82 11.8,-6.14 25.43,-91.09 141.289,-90.23 167.578,-1.48 24.532,82.77 -67.699,151.99 -128.789,96.25 -8.789,-8.01 -14.769,-9.53 -14.879,-3.67 -0.039,2.5 8.161,11.72 15.7,17.58 15.23,11.87 27.968,34.14 28.09,56.68 0.269,45.58 -33.598,90.35 -88.75,89.68 z m -69.93,-387.97 -0.149,0 c 0,-0.11 0.079,-0.11 0.149,0 z m 540.32,366.8 c 1.68,0.04 3.43,-0.27 5.192,-1.17 5.429,-2.77 6.449,-7.58 3.128,-14.69 -1.179,-2.5 -2.851,-5.35 -2.582,-8.01 38.162,-70.31 122.262,-38.9 130.192,-6.21 0.47,2.07 -0.46,4.34 -1.56,6.57 -3.24,5.39 -2.81,9.76 1.41,13.47 8.94,7.85 21.76,-1.4 16.56,-11.99 -1.37,-2.81 -2.81,-5.86 -1.76,-9.57 21.6,-49.02 64.61,-52.73 100.67,-33.32 -16.61,-29.77 -81.06,-48.01 -108.09,23.63 -43.16,-58.36 -111.718,-57.26 -142.808,8.63 -27.973,-67.38 -112.352,-68.98 -143.051,-13 -27.973,-64.03 -92.77,-49.5 -111.133,-9.42 60.192,-43.59 99.883,1.92 107.031,21.29 0,0 -1.41,2.27 -3.32,4.18 -7.699,7.54 -7.5,16.45 0.473,19.96 10.226,4.53 19.797,-5.27 14.566,-14.92 -1.488,-2.69 -2.777,-3.28 -1.797,-5.62 18.75,-43.68 111.059,-56.37 129.731,4.92 0.617,3.47 0.269,6.72 -1.332,9.37 -4.379,7.31 1.211,15.59 8.48,15.9 z M 691.949,2181.2 c 14.571,-0.82 10.512,-13.32 7.582,-14.3 l -7.582,14.3 z m 540.631,-7.82 c 0.12,-0.23 -8.99,-16.21 -8.99,-16.21 -4.8,7.7 -3.55,17.23 8.99,16.21 z m -49.22,-80.74 c 0,0 -9.3,-20.55 -12.38,-22.26 -172.46,44.14 -413.089,5.74 -418.992,1.48 l -10.578,19.96 c 151.211,30.2 301.95,23.75 441.95,0.82 z m -1043.481,6.99 c -5.348,-0.08 -10.969,-1.29 -16.789,-3.94 -29.9689,-13.6 -32.5392,-47.97 -5.59,-75.16 4.262,-4.33 7.809,-8.44 7.809,-9.14 0.082,-3.05 -2.969,-2.5 -10.309,1.95 -41.2109,24.85 -81.4492,-5 -64.6914,-48 13.5195,-34.73 66.9614,-29.46 75.2424,7.46 1.09,4.92 4.648,7.93 6.211,5.27 1.359,-2.27 -2.582,-21.05 -6.563,-31.48 -5.199,-13.71 -8.32,-20.9 -11.449,-26.49 -3.828,-6.83 -4.102,-9.06 -1.129,-9.76 4.258,-1.02 50.969,0.23 50.93,1.36 0,0.63 -1.949,5.2 -4.371,10.2 -9.379,19.53 -16.52,53.32 -12.11,57.15 2.5,2.15 3.36,1.05 6.719,-8.95 16.723,-49.41 78.871,-37.5 77.66,14.88 -0.789,35.67 -33.398,51.33 -62.82,30.2 -6.68,-4.8 -8.668,-5.08 -9.289,-1.37 -0.238,1.49 0.93,3.21 3.281,4.81 37.258,25.15 14.649,81.44 -22.742,81.01 z m 752.152,-312.58 c -16.64,-64.21 -56.953,-70.74 -105.621,-78.55 -60.32,-9.69 -99.609,12.3 -118.012,45.86 0,0 -86.25,-32.58 -117.699,-51.52 65.43,-29.96 151.879,-96.33 201.02,-171.72 17.5,-22.97 16.64,-17.78 16.601,-68.21 -0.082,-109.29 0.2,-149.96 0.2,-149.96 26.992,-4.02 28.468,-22.57 26.992,-43.43 21.679,9.57 42.539,-2.15 42.418,-22.62 -0.16,-37.58 -37.071,-27.35 -44.77,-23.2 12.039,-33.13 -2.07,-46.84 -16.48,-48.48 -17.731,-1.99 -38.09,6.52 -32.149,44.45 -19.332,-7.54 -43.832,6.13 -47.23,28.95 l -0.93,38.67 c 47.809,90 -12.23,163.2 -68.641,187.26 0,0 15.981,32.97 36.61,42.23 2.109,0.63 -12.5,22.07 -37.07,17.38 -11.329,-0.23 -8.68,-0.15 -19.301,13.68 -21.059,27.3 -30.938,29.18 -51.449,-0.04 -8.981,-12.85 -11.168,-13.21 -21.829,-13.44 -11.722,-0.23 -29.769,-8.67 -33.64,-16.21 -0.852,-1.72 3.719,-3.48 9.847,-10.63 8.832,-10.31 22.422,-24.45 20.274,-38.82 -46.442,-18.91 -123.473,-101.8 -42.5,-207.93 l -58.551,-0.75 -2.781,377.86 -40.738,-22.7 1.796,-295.94 -11.597,3.83 c 0.898,94.41 -0.551,188.75 -3.52,283.09 l -107.422,-78.25 4.801,-443.78 11.41,-2.39 c 8.481,-60.47 128.282,-18.2 135.27,-23.44 l 1.41,-246.601 -5.23,-12.219 95.308,-52.07 87.422,45.352 c 0,0 11.801,2.109 16.211,4.41 36.25,19.098 63.277,14.848 83.008,-13.203 12.152,-17.27 14.222,-19.809 14.222,-19.809 7.34,49.852 51.559,68.25 94.45,55.199 31.558,-9.57 74.648,-41.019 87.847,-79.379 0,0 2.391,-5.781 4.731,-8.39 l 1.801,-0.789 c -0.122,1.019 -2.071,5.789 -2.821,8.129 -44.25,101.558 -168.898,117.148 -188.121,34.14 l -17.656,24.77 92.808,56.91 126.84,-83.48 c 0,0 -5.98,-29.329 -6.64,-42.032 l 2.191,-1.008 c 0.617,1.598 1.52,7.692 2.07,11.52 2.028,13.871 5.7,25.512 10.661,34.379 3.007,5.391 6.488,9.723 10.386,13 7.582,4.383 14.614,3.949 22.313,11.141 l -18.52,13.859 -0.429,44.422 37.226,-52.11 c 11.723,2.688 57.302,16.289 84.332,1.25 3.05,-0.941 42.7,10.348 67.39,-44.961 l 118.9,49.372 c 0,0 7.58,4.257 7.66,5.386 -118.56,43.75 -238.24,198.602 -226.72,201.102 0,0 -0.35,15.89 0.55,54.88 0.97,43.44 0.43,87.81 1.17,131.41 -40.348,12.89 -30.309,45.39 -30.309,45.39 -24.262,-5.32 -28.129,-0.59 -34.262,3.67 l -4.18,41.13 c 14.532,12.38 23.282,13.56 41.25,9.61 0,0 -8.711,17.85 -0.781,32.58 6.682,11.64 24.452,18.98 38.672,10.78 18.36,-12.5 12.5,-38.71 9.88,-42.34 19.07,8.55 42.39,-0.98 48.13,-19.85 2.85,55.78 7.69,118.2 18.87,166.88 20.66,87.77 54.45,179.72 96.75,252.03 6.92,12.07 15.78,24.18 22.89,35.51 6.64,10.07 9.77,16.6 9.77,16.6 0,0 -9.02,-5 -18.63,-7.66 -13.75,-3.75 -24.14,-7.3 -25.71,-8.87 -10.07,-8.47 -23.32,-14.76 -34.1,-19.45 -38.08,-14.84 -63.67,7.27 -79.49,41.02 -8.79,-42.86 -48.09,-79.14 -106.02,-56.61 -32.692,17.39 -43,28.48 -73.59,73.79 -2.578,4.65 -9.219,9.96 -9.219,9.96 z m 1.25,-6.99 c 21.68,-42.81 54.098,-73.16 85.629,-85.27 56.25,-18.48 93.39,17.58 103.86,50.66 l 10.86,-18.4 -85.23,-60.46 -128.56,81.71 c 2.148,1.96 13.64,30.79 13.441,31.76 z m 386.919,-2.97 -38.17,-22.46 c 0,0 -25.35,-40.9 -33.87,-56.33 -44.53,-78.63 -77.93,-164.17 -95.39,-249.06 -7.03,-31.09 -14.49,-87.85 -16.99,-115.15 -3.98,-43.56 -3.79,-61.41 -2.66,-101.33 l 3.01,-3.24 c 0,0 -4.68,-8.25 -8.04,-15.16 -9.11,-18.79 -11.33,-29.41 -10.79,-51.21 1.25,-50.16 31.76,-98.17 74.81,-117.7 2.46,-1.13 5.66,-2.54 5.66,-2.54 0,0 -7.38,-19.96 -20.78,-34.02 -8.94,-9.37 -10.86,-9.839 -7.69,-14.449 4.41,-6.41 18.59,-11.992 36.21,-11.722 6.25,0.082 6.21,0.121 17.73,-12.457 22.5,-24.492 29.26,-23.992 49.77,3.789 6.05,8.238 9.53,10.23 18.44,10.429 13.08,0.309 36.95,10.899 36.83,15.82 -16.09,7.11 -34.76,43.9 -31.8,44.25 88.09,46.61 106.72,143.21 42.43,214.22 l 61.4,0.98 2.27,-385.27 c 12.03,7.969 39.22,25.149 39.22,25.149 l -0.9,299.811 c 4.22,-0.82 8.55,-3.83 16.76,-5.16 l 2.42,-283.479 c 0,0 7.97,3.25 14.92,7.777 34.34,22.582 101.52,74.883 101.52,74.883 l -2.3,436.879 -8.95,0 1.41,-436.641 -104.26,-76.14 -0.7,271.371 c 0,0 8.24,1.21 11.33,1.64 30.5,4.26 44.65,43.2 24.41,68.59 -7.23,9.03 -2.11,8.4 13.2,11.33 27.11,2.39 42.11,22.89 34.22,37.5 -3.36,6.25 1.02,5.59 3.91,11.53 1.87,4.68 1.52,10.5 0.7,15.11 -1.05,6.02 1.41,8.67 2.93,12.54 2.42,6.06 0.08,12.85 -3.9,18.52 -4.22,5.97 -3.05,12.42 -3.09,16.36 -0.2,8.87 -3.4,10.16 -12.81,18.72 -7.11,6.48 -1.37,7.89 9.06,13.28 16.44,8.47 17.58,38.43 -4.3,51.17 -11.68,6.83 -32.97,6.29 -79.1,-1.02 -17.46,-2.77 -38.01,-4.61 -38.01,-4.61 0,0 -0.15,170.82 -1.36,258.87 l -98.71,58.63 z m 0,-6.01 c 0,0 93.67,-54.77 92.92,-56.33 -31.44,-43.05 -148.74,-214.69 -149.6,-422.19 -86.02,10.78 -121.22,-56.44 -125.4,-56.21 -11.32,254.03 91.8,435.74 144.61,512.89 l 37.47,21.84 z m -59.07,-33.44 -0.27,-6.21 -18.56,-27.73 -0.5,27.73 19.33,6.21 z m -28.63,-9.65 0.66,-44.65 -38,-29.02 -2.23,46.56 39.57,27.11 z m -352.422,-10.19 19.57,-13.52 -0.699,-44.33 -29.418,53.51 10.547,4.34 z m 534.842,-14.96 0.16,-32.07 c -74.96,-105.71 -114.3,-226.49 -126.33,-379.42 l -18.24,0.63 c 4.84,152.07 56.01,290.82 144.41,410.86 z m -507.65,-3.29 46.21,-30.19 -2,-50.55 -41.949,26.92 -3.941,10.35 1.68,43.47 z m 279.92,-2.14 -0.2,-47 -35.7,-26.52 -1.68,46.68 37.58,26.84 z M 714.262,1685.1 c 5.308,-0.04 9.527,-3.9 10.539,-11.21 3.91,-31.25 27.699,-22.23 33.32,-31.6 2.149,-3.2 -2.922,-6.02 -19.172,-4.69 -29.847,2.23 -51.57,26.33 -36.328,42.23 3.899,3.59 8.039,5.35 11.641,5.27 z m 206.129,-20.12 39.488,-25.15 -0.109,-51.92 -38.719,23.64 -0.66,53.43 z m 180.199,-0.15 3.04,-45.9 -43.24,-28.75 -1.52,45.59 41.72,29.06 z m 82.22,-0.2 -24.8,-52.85 -144.81,-104.14 -120.149,77.77 -22.313,51.02 140.202,-91.48 171.87,119.68 z m -390.47,-20.97 c 38.48,0.47 68.012,-40.36 78.129,-76.14 7.34,-23.67 8.441,-32.18 9.222,-69.72 0.821,-38.28 1.989,-44.89 9.18,-50.32 4.41,-3.32 5.699,-2.42 6.25,4.34 1.25,15.04 19.219,5.78 19.527,-10.04 0.352,-17.62 -19.027,-23.24 -33.32,-9.73 -7.617,7.19 -7.738,7.11 -10.117,-7.03 -1.602,-9.49 -12.621,-68.79 15.59,-83.55 5.308,-0.51 6.558,3.75 2.609,8.71 -7.89,9.96 7.93,21.45 20.789,15.12 15.582,-7.66 14.02,-32.78 -2.621,-41.68 -19.027,-10.24 -43.629,1.36 -55.156,25.97 -8.442,18.05 -8.402,43.09 0.156,80.28 3.942,17.11 5.66,28.04 6.563,41.17 0.308,4.3 0.82,9.02 1.129,10.43 0.941,4.02 -1.051,4.22 -7.891,0.78 -18.629,-9.41 -38.938,-2.73 -43.938,14.45 -5.98,20.51 16.911,41.68 31.008,28.71 5.352,-4.92 4.731,-9.8 -1.679,-12.96 -11.129,-5.47 -7.34,-19.85 4.5,-17 38.859,11.64 3.32,120.78 -40.508,128.32 -28.953,5 -51.684,-27.97 -30.711,-45.62 8.211,-6.92 16.527,-3.2 14.73,6.56 -2.5,13.63 15.59,12.15 22.309,-1.8 10.89,-22.73 -17.231,-41.21 -43.52,-28.63 -47.109,27.97 -14.879,88.52 27.77,89.38 z m 174.461,-8.68 38.789,-26.05 0.35,-50.66 -38.561,22.85 -0.578,53.86 z m 85.499,-4.37 0.16,-46.48 -37.42,-27.23 0,49.45 37.26,24.26 z m 100.86,-30.47 -19.14,-53.36 -120.9,-82.69 -99.722,62.54 -17.148,49.37 117.5,-76.09 139.41,100.23 z m -784.531,-3.87 -0.039,-270.19 c -39.18,-1.64 -61.641,-40.39 -32.301,-76.99 0,0 -5.117,-0.71 -11.09,-1.53 -26.527,-3.63 -44.258,-17.69 -40.75,-34.68 1.102,-5.24 0,-10.51 -1.519,-13.09 -2.34,-6.99 -1.719,-12.34 1.449,-18.4 2.5,-4.73 2.07,-6.6 0.66,-10.12 -2.969,-7.57 -2.269,-13.36 1.25,-19.14 4.371,-4.25 3.16,-7.69 2.582,-14.53 -0.711,-9.69 1.051,-13.55 7.109,-17.34 7.848,-4.85 10.782,-12.78 1.872,-12.15 -4.454,0.35 -20.043,-14.69 -20.043,-14.69 l -1.481,433.56 92.301,69.29 z m 212.391,-34.68 c 7.031,0.04 14.21,-8.79 24.601,-23.64 6.258,-10.66 6.367,-9.22 20.707,-8.63 14.613,-1.09 23.551,-4.96 27.383,-9.37 1.449,-1.68 -2.422,-2.11 -11.68,-11.49 -9.57,-9.76 -10.941,-13.63 -17.301,-24.53 -2.308,-3.91 -7.308,-4.3 -9.652,-0.7 -1.918,2.89 2.973,12.34 12.07,23.43 12.852,12.43 10.153,13.68 -8.519,11.72 -13.117,-1.4 -14.527,-0.74 -19.488,7.23 -14.879,29.53 -22.77,28.52 -36.993,-0.9 -3.867,-8.24 -2.308,-7.69 -19.136,-6.41 -13.242,1.02 -16.532,-2.34 -9.063,-9.29 11.672,-9.57 16.211,-32.19 15.582,-31.92 l -9.019,-0.82 c 0,0 -2.742,5.08 -3.953,8.32 -2.457,6.49 -9.02,16.25 -16.168,23.95 -10.082,10.9 -4.532,16.87 18.007,19.3 12.582,1.36 12.852,1.52 18.633,10 10.199,14.92 16.989,23.75 23.989,23.75 z m 548.32,-26.88 -13.01,-46.09 -103.13,-72.31 -83.86,55.98 -11.141,43.32 96.371,-61.02 114.77,80.12 z m -355.512,-36.52 c 0,0 29.801,-58.05 40.621,-95.67 9.422,-32.73 22.5,-127.5 19.031,-133.36 -7.308,10.08 -31.531,7.82 -31.839,7.7 2.031,11.09 -6.95,33.48 -27.582,37.93 l -0.231,183.4 z m 339.262,-21.21 -10.28,-45.39 -87.81,-63.48 -72.461,49.49 -9.488,43.87 80.149,-53.56 99.89,69.07 z m -510.469,-2.54 11.399,-3.99 2.152,-81.95 87.848,-14.57 2,-14.06 -101.719,16.4 c -1.063,34.96 -1.68,98.17 -1.68,98.17 z m -44.57,-2.46 2.461,-95.32 c -0.942,0.32 -73.242,-9.96 -100.903,-17.22 l 1.641,13.04 c 0,0 50.23,10.94 86.602,15.12 0,26.64 -0.192,54.69 -0.231,81.84 l 10.43,2.54 z m 817.259,-17.54 c 0,0 11.96,-1.1 37.5,3.4 65.94,11.52 83.79,6.87 92.23,-13.48 9.22,-31.52 -25.35,-32.27 -31.49,-12.27 -3.94,12.97 -18.08,10.12 -65.35,-1.09 -40.47,-9.57 -66.05,-1.87 -65.58,21.02 0.5,23.55 27.34,25.62 32.69,2.42 z m -541.83,17.22 c 8.122,0.12 14.879,-6.4 15,-14.53 0.11,-8.16 -6.41,-14.88 -14.57,-15 -8.172,-0.11 -14.851,6.37 -14.961,14.53 -0.121,8.17 6.36,14.89 14.531,15 z m -214.218,-2.57 10.429,-3.13 c 0,0 1.52,-62.19 1.829,-62.3 22.39,-4.93 69.46,-13.75 69.46,-13.75 l 2.461,-12.31 c -19.691,4.65 -82.421,14.92 -82.421,14.92 -2,26.96 -1.758,76.57 -1.758,76.57 z m -75.981,-1.18 c 0,0 0.039,-49.61 -0.82,-76.28 0.348,0.23 -53.242,-8.52 -80.473,-14.18 l 2.114,9.96 c 21.519,4.88 44.957,9.76 68.668,14.72 -0.469,19.5 -0.43,62.31 -0.43,62.31 l 10.941,3.47 z m 38.278,-10.66 c 6.531,0.08 11.961,-5.2 12.07,-11.76 0.082,-6.52 -5.188,-11.87 -11.75,-11.99 -6.527,-0.08 -11.879,5.12 -12,11.68 -0.078,6.52 5.121,11.95 11.68,12.07 z m 892.071,-30.98 c 7.31,-10.82 13.4,-10.5 20.59,-9.45 -1.8,-0.51 -10.27,-5.55 -9.81,-7.19 0.24,-0.82 -3.59,-14.49 2.23,-15.04 21.88,-2.11 10.82,-24.84 13.44,-28.32 5.9,-6.75 10.23,-11.01 6.17,-19.45 -3.59,-7.46 -8.75,-7.23 -4.77,-13.59 8.75,-13.13 -3.32,-15.82 -2.26,-24.77 0.74,-5.35 2.66,-12.73 0.66,-16.91 -6.01,-12.62 -27.15,-19.85 -50.66,-20.82 -3.36,-0.16 -0.82,5.31 -2.38,8.79 -5.82,3.67 -2.62,9.84 -0.67,13.9 1.92,5.39 1.95,5.39 -1.68,8.13 -10,6.21 -9.49,9.1 -8.71,13.59 2.23,13.32 0.16,14.65 -3.87,16.6 -5.15,2.54 -4.45,8.17 -2.14,15.35 1.56,5 0.46,6.25 -1.96,10.75 -1.44,2.65 -1.87,4.1 -1.91,5.82 0.74,6.87 -5.43,6.83 -14.06,0.11 -7.31,-12.61 -9.81,-29.14 -14.42,-39.61 -3.51,-8 -4.1,-16.4 0.12,-34.92 8.12,-28.28 2.11,-33.01 -29.77,-26.95 -23.94,5.86 -31.01,31.44 -24.33,62.69 1.05,5.08 0.78,9.97 0.27,13.95 -2.58,21.52 2.97,42.19 18.01,56.33 25.08,23.59 37.5,27.19 89.33,23.87 20.32,-1.41 21.84,-2.7 21.84,-2.7 0,0 0.12,9.77 0.74,9.84 z m -373.51,-6.48 -6.06,-43.87 -48.67,-34.37 c -22.93,18.12 -40.62,12.07 -56.761,-7.31 -12.77,6.49 -38.32,24.14 -38.32,24.14 l -6.52,49.73 70.781,-49.1 85.55,60.78 z m -517.499,-10.43 c 6.52,0.12 11.867,-5.12 11.988,-11.68 0.082,-6.56 -5.121,-11.95 -11.679,-12.03 -6.52,-0.12 -11.95,5.12 -12.071,11.64 -0.078,6.56 5.192,11.99 11.762,12.07 z m 509.329,-44.92 -2.65,-42.23 -17.31,-13.01 -17.42,1.76 -4.14,26.17 41.52,27.31 z m -509.649,-0.31 c 6.57,0.07 11.961,-5.2 12.078,-11.76 0.07,-6.53 -5.199,-11.88 -11.719,-11.99 -6.57,-0.08 -11.922,5.11 -12,11.67 -0.109,6.53 5.078,11.96 11.641,12.08 z m 47.738,-1.33 c 6.563,0.08 11.91,-5.12 11.992,-11.68 0.117,-6.53 -5.082,-11.92 -11.64,-12.03 -6.563,-0.08 -11.95,5.15 -12.032,11.71 -0.078,6.53 5.161,11.88 11.68,12 z m -94.918,-2.27 c 6.559,0.08 11.949,-5.15 12.027,-11.68 0.082,-6.56 -5.117,-11.95 -11.636,-12.03 -6.563,-0.12 -11.992,5.12 -12.071,11.68 -0.121,6.52 5.11,11.91 11.68,12.03 z m 881.789,-1.91 c 3.32,0.27 8.29,-4.69 5.86,-12.11 -3.2,-8.48 -0.93,-11.37 4.42,-18.24 4.57,-5.79 3.75,-6.61 3.04,-10.32 -1.01,-24.41 14.69,-13.86 7.86,-31.56 -1.49,-3.87 0.5,-9.37 1.17,-13.94 -1.53,4.18 -30.43,3.78 -32.89,-0.43 -4.1,0.58 -9.3,27.73 -5.16,31.32 0.55,0 3.56,-4.64 5.08,-7.26 3.91,-6.6 4.73,-6.37 3.51,1.29 -4.8,30.23 -1.91,61.05 7.11,61.25 z m -738.98,-2.11 c 6.519,0.08 11.91,-5.16 12.031,-11.72 0.078,-6.52 -5.16,-11.88 -11.723,-11.99 -6.519,-0.08 -11.867,5.11 -11.988,11.68 -0.078,6.52 5.121,11.91 11.68,12.03 z m -192.071,-2.19 c 6.563,0.08 11.911,-5.16 11.993,-11.72 0.117,-6.52 -5.122,-11.87 -11.641,-11.99 -6.563,-0.08 -11.992,5.12 -12.07,11.68 -0.121,6.52 5.16,11.91 11.718,12.03 z m 464.961,-3.44 35.551,-23.04 c 0.578,-7.27 -0.351,-17.66 2.027,-21.21 -23.199,2.14 -34.918,-11.06 -34.918,-11.06 l -2.66,55.31 z m -364.648,-19.06 c 38.906,-0.27 76.598,-6.48 111.558,-17.81 l -2.73,-12.5 c -70,18.01 -148.238,18.94 -223.012,-0.82 l -5.816,13.16 c 37.656,11.72 75.469,17.46 112.226,17.93 2.622,0.04 5.192,0.08 7.774,0.04 z m -219.883,-16.99 c 10.191,0.15 20.621,-3.63 27.973,-11.88 13.789,-15.43 7.148,-44.06 -12.352,-53.16 -29.14,-13.63 -59.531,15.51 -47.14,45.51 5.152,12.5 18.429,19.29 31.519,19.53 z m 721.561,-3.67 -0.43,-12.58 -8.87,7.42 9.3,5.16 z m -185.51,-0.59 c 12.859,0.2 23.398,-10.08 23.601,-22.97 0.188,-12.85 -10.082,-23.4 -22.929,-23.59 -12.852,-0.2 -23.442,10.08 -23.602,22.93 -0.191,12.85 10.078,23.47 22.93,23.63 z m -535.391,-0.74 c -3.16,-0.04 -8.359,-1.33 -10.738,-3.52 -6.172,-5.7 0.039,-5.86 8.238,-7.38 14.531,-2.66 18.563,-15.2 17.231,-28.75 -1.211,-12.3 2.929,-12.11 6.25,-7.54 13.59,18.59 1.992,45.7 -20.981,47.19 z m 675.391,-6.17 c -0.31,-0.16 -0.66,-0.39 -0.66,-0.39 0.2,-0.12 0.39,0.03 0.66,0.39 z m -459.918,-7.31 c 17.418,0.35 19.219,-28.28 3.828,-60.27 -4.609,-9.65 -6.988,-8.44 -12.07,6.09 -12.5,35.82 -9.801,53.79 8.242,54.18 z m 40.277,-0.86 c 3.352,0.2 6.602,-1.09 9.289,-4.14 9.34,-10.66 2.153,-27.93 -22.808,-54.53 -6.059,-6.48 -9.18,-8.94 -11.41,-8.98 -6.25,-0.12 -6.211,0.89 0.859,23.98 3.133,10.2 6.211,21.37 6.883,24.81 2.066,11.09 9.797,18.51 17.187,18.86 z m -63.008,-25.58 c 1.68,-7.93 4.688,-18.99 6.598,-24.53 1.91,-5.55 3.16,-10.86 2.852,-11.72 -1.52,-4.3 -12.661,1.52 -20.59,10.74 -15.973,18.55 -22.379,34.69 -19.063,43.36 4.852,6.95 17.274,10.04 22.973,3.94 5.898,-6.25 6.758,-19.68 7.23,-21.79 z m 110.149,18.47 c 16.84,-9.96 -2.57,-32.61 -40.309,-51.44 -16.172,-8.05 -15,-4.46 -2.769,11.44 4.687,6.1 10.968,15.98 14.058,22.03 6.758,13.36 13.559,26.76 29.02,17.97 z m -168.199,-0.08 c 5.347,0.04 10.82,-5.7 20.937,-20.39 4.531,-6.52 11.871,-15.82 16.371,-20.7 4.449,-4.84 7.961,-9.65 7.77,-10.7 -1.719,-10.28 -54.297,22.34 -58.09,36.05 -1.289,8.4 5.32,15.86 13.012,15.74 z m 752.269,-29.88 c 9.49,-19.49 10.31,-31.6 2.46,-36.01 -11.14,-6.25 -25.47,3.28 -25.75,17.14 -0.11,4.69 -4.88,20.94 -9.29,31.53 -3.6,8.67 -4.1,14.06 -1.13,14.49 11.64,-1.87 28.82,-17.97 33.71,-27.15 z m -62.89,14.81 c -3.68,-11.18 -7.54,-28.56 -7.5,-33.64 0,-1.99 -1.22,-6.05 -2.66,-9.02 -9.61,-19.84 -32.38,-3.67 -24.02,17.03 7.57,18.67 26.79,38.09 34.37,38.75 5.16,0.43 0.31,-11.52 -0.19,-13.12 z m 15.35,10.66 c 3.79,0.39 6.95,-7.89 11.87,-21.87 6.64,-18.87 6.37,-33.6 -0.78,-39.89 -15.31,-13.43 -31.41,6.1 -25.19,30.59 4.92,19.61 9.8,30.78 14.1,31.17 z m -513.831,-3.44 C 711.602,999.91 567.77,784.051 557.539,778.148 l -48.949,-26.757 -85.86,46.757 c 88.989,121.993 142.149,261.802 146.18,424.142 82.301,-7.97 124.641,57.89 123.629,58.16 z m 471.641,-0.9 c 5.98,1.65 1.8,-3.59 -4.14,-12.18 -6.37,-9.14 -14.61,-34.07 -21.17,-38.05 -14.65,-7.07 -31.25,6.37 -22.39,18.05 8.21,10.78 32.31,27.97 47.7,32.18 z m 87.3,-1.87 c 2.31,0 6.61,-1.52 12.86,-4.57 30.54,-14.92 45.62,-34.61 32.54,-44.02 -9.18,-6.61 -18.99,-1.49 -28.17,15.89 -3.12,5.94 -8.79,14.69 -12.62,19.57 -6.87,8.79 -8.47,13.09 -4.61,13.13 z m 171.8,-10 c 19.65,0.27 35.78,-15.39 36.06,-35 0.27,-19.65 -15.39,-35.82 -35.04,-36.09 -19.65,-0.32 -35.78,15.43 -36.06,35.07 -0.31,19.61 15.39,35.71 35.04,36.02 z m -10.82,-9.26 c -23.12,-10.23 -16.17,-46.48 3.75,-51.76 8.44,-2.34 18.63,1.18 14.45,5.2 -26.32,8.28 -26.48,27.66 -15.89,41.87 1.71,2.27 -0.59,5.47 -2.31,4.69 z m -962.538,-49.88 c -0.902,-20.51 3.519,-44.3 -6.25,-66.56 -14.844,-34.18 -62.543,-49.81 -88.012,-46.8 -5.308,2.19 -11.48,4.26 -16.711,2.03 -3.168,-1.33 -7.07,-1.17 -10.429,0.39 -3.29,1.53 -6.411,-0.47 -9.571,0.67 -3.679,2.5 -9.687,8.16 -8.988,12.38 1.129,5.94 0.66,10.35 -6.289,12.3 -9.613,2.7 -11.563,7.89 -8.75,23.17 0.629,3.28 1.367,4.76 -0.781,6.21 -7.11,4.76 -9.801,13.55 -5.121,22.81 3.05,5.35 5.39,9.1 -0.071,13.36 -2.148,4.88 -1.801,6.76 2.852,12.97 4.961,5.94 5.82,6.6 2.648,11.68 -7.148,11.37 0.942,19.73 10.551,24.41 12.891,5.28 24.141,8.01 37.73,9.57 5.04,-0.27 4.848,-4.72 7.891,-8.98 4.457,-6.95 -1.832,-17.03 1.801,-20.63 5.277,-2.42 7.656,-7.26 7.226,-11.4 -0.16,-9.65 0.43,-12.97 3.051,-17.03 2.891,-4.46 3.981,-12.7 1.25,-18.29 -2.39,-4.96 -2.148,-4.64 1.012,-7.57 3.16,-2.89 4.687,-17.46 3.59,-17.19 l 13.211,1.21 c -1.371,-1.48 4.957,27.23 20.039,49.41 -0.821,17.39 -7.461,33.4 -6.879,56.33 32.656,11.72 56.25,-16.05 55,-44.45 z m 507.109,39.06 c 4.688,-3.71 28.09,-10.19 28.949,-9.45 -0.75,-11.21 6.09,-32.97 30.47,-40.27 0.31,-31.22 0.03,-175.4 0.03,-175.4 -33.941,56.92 -55,130.4 -59.449,225.12 z m -568.242,-5.08 c 0,0 1.289,-4.18 2.461,-12.18 2.109,-16.41 -0.16,-18.64 -4.488,-7.43 -5.121,13.13 -5.391,2.89 0.347,-27.18 1.411,-7.27 1.371,-8.95 -0.429,-13.87 -1.129,-3.09 -3.129,-10.23 -4.692,-15.82 -4.609,-16.52 -7.258,-21.25 -11.988,-8.13 -2.422,6.68 -4.41,7.74 -2.699,12.97 2.148,6.57 1.609,11.49 -2.692,17.89 -0.699,1.02 -2.269,3.44 -2.539,10.2 1.328,15.23 -5.468,15.39 -6.8,19.33 0.242,5.98 -2.54,20.4 1.57,20 3.359,-0.31 15.582,-0.62 21.359,1.49 2.582,0.94 10.59,2.73 10.59,2.73 z m 506.371,-1.91 c 12.61,0.19 22.961,-9.88 23.16,-22.5 0.2,-12.62 -9.879,-22.97 -22.5,-23.16 -12.621,-0.2 -23.05,9.88 -23.199,22.5 -0.199,12.61 9.918,23 22.539,23.16 z m -352.738,-13.91 17.348,-3.28 c 3.82,-1.29 1.011,-239.959 -137.54,-412.221 l -1.21,39.879 c 65.929,95.434 113.429,212.462 121.402,375.622 z m 293.558,-5 3.161,-57.03 c -9.731,8.28 -34.493,23.79 -34.301,24.14 l 0.121,21.06 c 0,-0.04 21.25,-1.6 31.019,11.83 z m -133.441,-0.82 c 4.18,-1.75 7.813,-5.78 11.41,-8.71 l -11.328,-7.62 -0.082,16.33 z m 396.641,-2.85 c 74.73,-22.19 148.36,-21.52 221.13,-5.31 l 4.96,-13.95 c -78.94,-21.4 -157.42,-20.19 -235.43,4.69 l 9.34,14.57 z m -362.032,-10.66 4.024,-24.61 -42.192,-27.31 2.04,37.35 21.992,14.25 14.136,0.32 z m 373.442,-20.51 c 6.83,0.12 12.42,-5.35 12.53,-12.15 0.08,-6.83 -5.35,-12.42 -12.18,-12.54 -6.8,-0.08 -12.39,5.35 -12.5,12.19 -0.08,6.8 5.35,12.42 12.15,12.5 z m 192.07,-1.02 c 6.79,0.12 12.42,-5.35 12.54,-12.14 0.07,-6.84 -5.4,-12.43 -12.19,-12.54 -6.84,-0.12 -12.39,5.35 -12.5,12.18 -0.12,6.8 5.31,12.43 12.15,12.5 z m -359.691,-38.36 c 5.511,-19.49 4.301,-63.51 -2.809,-93.35 -2.148,-8.99 -3.441,-40.83 -3.441,-40.83 -1.328,-1.64 42.34,36.14 56.371,-13.429 4.84,-17.031 -14.77,-33.211 -27.891,-28.441 -2.578,0.898 -1.801,9.34 0.66,14.3 7.262,14.84 -13.48,22.54 -25.308,9.411 -27.352,-30.352 0.777,-107.231 43.629,-114.692 35.55,-6.168 64.1,29.223 40.35,50.321 -10.39,9.25 -26.991,-3.481 -19.37,-15.239 8.12,-12.543 -6.84,-17.543 -18.172,-5.902 -19.718,20.281 2.422,50.82 32.232,43.75 47.62,-10.82 37.81,-85.27 -12.11,-89.488 -38.2,-3.2 -63.911,13.437 -80.04,42.929 -15.16,28.36 -16.289,50.942 -9.34,100.63 4.11,29.53 0.711,54.37 -7.5,54.21 -4.492,-0.11 -7.96,-2.26 -8.71,-7.53 -1.442,-10.83 -2.692,-12.86 -9.45,-8.91 -8.59,5 -13.359,21.05 0.66,31.91 14.418,11.14 33.09,-6.25 32.348,-9.25 0.352,0.54 1.801,3.39 3.711,16.05 6.332,41.13 -7.66,84.65 -24.961,77.7 -3.789,-1.57 -3.316,-3.25 1.641,-6.06 11.48,-6.48 1.371,-23.05 -13.09,-21.37 -20.469,2.35 -25.109,30.94 -7.109,43.56 28.402,15.31 51.57,-8.67 57.699,-30.28 z m -139.77,34.3 c 0,0 36.332,-22.15 38.25,-27.81 1.25,-3.67 2.731,-35.43 2.731,-35.43 l -63.051,39.45 -90.348,-55.86 c 1.489,12.27 8.008,43.83 8.008,43.83 l 48.051,30.39 c 0.23,-1.83 33.238,-23.59 56.359,5.43 z m 451.211,-2.11 c 6.84,0.12 12.43,-5.35 12.54,-12.19 0.08,-6.79 -5.35,-12.42 -12.15,-12.5 -6.83,-0.11 -12.42,5.32 -12.53,12.15 -0.08,6.8 5.35,12.46 12.14,12.54 z m -96.17,-0.19 c 6.8,0.11 12.46,-5.32 12.54,-12.15 0.12,-6.8 -5.39,-12.46 -12.19,-12.54 -6.83,-0.12 -12.42,5.35 -12.5,12.19 -0.11,6.79 5.32,12.42 12.15,12.5 z m 48.36,-2.78 c 6.8,0.08 12.46,-5.39 12.54,-12.18 0.12,-6.84 -5.35,-12.43 -12.19,-12.54 -6.79,-0.08 -12.42,5.39 -12.5,12.18 -0.11,6.84 5.32,12.43 12.15,12.54 z m -121.09,-17.5 c 32.73,-6.83 65.54,-13.82 96.91,-17.22 l 1.29,-96.33 -9.18,0.55 -1.33,86.01 c -30.31,2.19 -58.86,8.67 -85.7,15.63 l -1.99,11.36 z m 243.32,-3.12 -1.68,-11.33 c 0,0 -56.64,-9.8 -86.21,-13.63 -0.47,-19.38 -0.39,-84.14 -0.39,-84.14 l -11.33,-2.07 -0.04,98.04 c 33.59,3.64 67.11,7.43 99.65,13.13 z m -547.81,-5.43 66.679,-44.06 7.813,-46.72 -77.703,51.64 c 0,0 -70.43,-47.38 -96.758,-64.96 l 8.008,43.98 91.961,60.12 z m 307.65,-8.71 c 26.84,-5.71 53.67,-11.6 80.51,-13.91 l 1.13,-77.46 -12.34,3.28 -0.98,62.89 c -20.94,1.8 -42.46,5.86 -64.1,10.43 l -4.22,14.77 z m 237.38,-2.31 -2.26,-10.54 c 0,0 -42.97,-6.45 -65.12,-10.43 -1.95,-0.47 -1.25,-68.21 -1.25,-68.21 l -10.58,-1.6 -1.25,79.06 80.46,11.72 z m -120.31,-8.67 c 6.84,0.08 12.38,-5.39 12.5,-12.19 0.12,-6.83 -5.31,-12.42 -12.15,-12.54 -6.79,-0.07 -12.42,5.36 -12.5,12.15 -0.11,6.84 5.36,12.46 12.15,12.58 z M 780,1102.99 l 78.789,-53.16 c 0,0 9.141,-27.7 11.09,-43.05 l -90.66,58.56 -113.438,-75.238 13.129,46.488 101.09,66.4 z m -477.539,-1.6 c 4.648,-0.08 9.34,-3.2 11.758,-10.39 3.402,-10.12 9.801,-13.09 26.601,-12.77 32.93,1.75 67.5,17.22 98.59,5.62 15.16,-5.58 20.512,-27.89 7.86,-33.71 -13.75,-6.29 -19.571,-2.34 -24.34,8.48 -4.41,4.57 -9.879,3.86 -39.41,-1.21 -13.051,-2.11 -28.36,-4.03 -41.25,-5.08 -32.93,-2.66 -51.098,7.73 -55.2,27.3 -2.621,12.54 7.578,21.84 15.391,21.76 z m 902.619,-18.01 c 6.83,0.12 12.42,-5.31 12.54,-12.15 0.08,-6.79 -5.39,-12.46 -12.19,-12.53 -6.84,-0.12 -12.42,5.35 -12.54,12.14 -0.08,6.84 5.39,12.43 12.19,12.54 z m -241.369,-15.04 c 8.867,0.12 16.129,-6.99 16.289,-15.86 0.121,-8.86 -6.988,-16.17 -15.859,-16.28 -8.871,-0.12 -16.129,6.99 -16.25,15.85 -0.121,8.87 6.949,16.14 15.82,16.29 z m -183.59,-11.25 c 0,0 64.84,-43.32 94.879,-63.32 l 16.559,-47.692 -110.43,71.832 -135.109,-87.93 16.21,49.032 117.891,78.078 z m 468.159,-14.88 c 5.86,-15.86 16.52,-27.93 27.81,-40.19 0,0 -6.29,-11.879 -28.71,-11.18 -12.22,0.359 -12.89,-1.559 -17.07,-9.84 -6.87,-10.551 -12.46,-17.422 -16.91,-20.82 -7.85,-6.051 -22.54,2.968 -34.69,21.332 -4.41,6.679 -6.25,8.277 -19.57,8.008 -20.47,-0.43 -27.85,5.23 -17.23,14.45 9.26,11.29 15.9,23.67 24.22,35.55 l 9.18,-1.06 c 0.39,-1.37 -7.15,-24.14 -17.77,-33.4 -5.35,-6.091 2.19,-8.322 15.35,-5.509 8.32,2.499 10.47,1.529 16.64,-11.25 12.89,-24.371 19.57,-23.16 34.85,1.488 5.35,11.051 5.15,12.151 19.8,8.941 15.78,-1.558 20.51,0.399 14.06,5.9 -13.08,11.1 -20.31,37.27 -20.31,37.27 l 10.35,0.31 z m -467.581,-32.66 c 0,0 117.27,-76.788 116.961,-75.109 L 921.129,879.09 783.52,970.609 615.391,861.27 l 25.16,54.808 140.148,93.472 z m 4.531,-50.39 40.86,-26.91 -0.11,-48.398 -41.761,28.089 1.011,47.219 z m -10.5,-1.398 0.739,-47.782 -36.641,-21.832 -2.027,44.801 37.929,24.813 z m -46.492,-30.782 -0.347,-1.839 0.859,-0.469 0.309,-0.043 1.332,-43.039 -42.192,-29.219 0.16,48.629 39.879,25.98 z m 107.973,-0.55 38.437,-25.629 1.563,-51.211 -41.68,27.308 1.68,49.532 z m 47.461,-31.25 38.519,-26.801 1.36,-51.129 -39.371,26.52 -0.508,51.41 z m -204.024,-0.2 -0.199,-47.261 -38.359,-26.758 -1.789,48.277 40.347,25.742 z m 405.662,-60.968 c -7.58,-7.934 -10.39,-6.961 -16.91,6.129 -6.76,13.589 -16.92,19.961 -31.6,19.687 -18.56,-0.308 -6.45,11.832 13.24,13.281 33.98,1.481 51.25,-21.289 35.27,-39.097 z m -454.65,27.687 1.02,-47.379 -38.16,-19.84 -1.18,22.461 19.648,34.368 18.672,10.39 z m -49.211,-63.359 1.321,-8.629 -7.071,-2.691 5.75,11.32 z M 1239.61,679.629 c -0.12,0 -0.16,-0.039 -0.16,-0.149 l 0.43,0 c -0.11,0.071 -0.23,0.149 -0.27,0.149 z m 0.27,-0.149 c 4.92,-3.25 48.83,-66.921 51.92,-135.71 1.68,-18.239 -6.18,-21.719 -10.12,-4.372 -6.41,28.204 -24.1,52.852 -47.11,65.661 -116.21,43.05 -165.82,-102.77 -89.22,-161.719 27.27,-19.762 79.85,-17.5 98.32,9.769 5.74,8.481 11.56,7.661 12.31,2.301 0.35,-2.691 -0.98,-4.488 -8.09,-10.859 -28.71,-25.781 -45.9,-62.262 -36.76,-88.942 12.07,-35.429 45.16,-59.961 83.28,-65.55 40.94,-6.008 83.52,22.781 96.06,60.242 11.48,34.289 1.37,63.238 -30.47,92.148 -15,13.59 -15.74,14.68 -12.66,17.93 3.01,3.16 5,2.383 12.43,-4.809 22.89,-22.07 65.54,-33.98 93.67,-20.98 45.04,20.789 64.37,90.898 33.59,136.801 -18.63,37.308 -69.45,51.211 -111.91,30.589 -22.62,-10.98 -42.54,-36.679 -48.48,-62.39 -2.66,-11.559 -9.3,-13.668 -10.31,-3.238 3.12,41.878 9.02,69.257 54.96,143.007 l -131.41,0.121 z m 386.76,-71.839 c 0,0 16.76,-34.571 19.22,-52.77 1.84,-13.402 2.11,-18.832 -1.52,-18.91 -1.18,-0.039 -4.07,6.449 -5.16,11.519 -8.98,41.45 -69.22,40.79 -77.93,-0.66 -8.87,-42.109 29.22,-71.949 62.5,-45.742 13.67,9.41 14.34,5.082 0.78,-8.629 -26.09,-26.097 -14.61,-62.621 18.2,-72.347 44.61,-13.243 72.07,41.128 34.22,75.699 -4.84,4.969 -9.22,9.929 -9.22,10.98 -0.07,2.66 3.25,2.848 5.82,0.117 21.72,-22.808 65.47,-15.738 72.15,13.442 12.58,54.801 -58.12,78.199 -77.61,29.25 -4.77,-12.219 -4.03,-13.899 -6.49,-11.559 -1.37,1.328 -0.98,6.367 0.55,13.239 3.05,13.871 22.85,55.941 22.85,55.941 l -58.36,0.43 z M 1040.78,456.66 C 880.16,422.289 726.172,434.441 615.621,454.871 l -50.461,-86.293 -3.48,0.152 -13.008,-22.339 1.367,-2.539 c 0,0 -41.949,-80.551 -59.609,-105.942 206.449,2 659.53,3.012 659.53,3.012 l -27.58,55.508 1.49,1.48 -27.27,58.012 -8.87,10 c 0,0 -5.39,10.508 -9.45,21.758 -3.75,10.351 -19.73,38.672 -19.73,38.672 l -2.26,-0.192 -15.51,30.5 z M 621.449,444.52 c 2.141,-1.719 205.742,-40.079 416.791,-0.668 l 11.56,-19.301 c -184.722,-42.5 -451.991,-1.91 -441.441,2.039 l 13.09,17.93 z m 3.512,-38.008 c 18.629,0.66 37.5,-9.34 50.199,-26.024 4.059,-5.308 10.66,-20.968 10.66,-20.968 0,0 8.91,14.761 17.66,22.14 13.239,11.18 30.391,20.512 55.192,19.61 22.848,-0.821 47.969,-13.161 70.668,-48.899 5.738,20.617 80.781,90.66 142.609,3.32 7.071,23.2 40.161,69.571 93.711,37.188 3.68,-7.859 7.46,-16.449 7.46,-16.449 -31.64,22.148 -83.741,7.269 -96.089,-27.27 -1.09,-4.211 0.309,-6.398 1.949,-10.5 16.29,-23.281 -26.128,-22.738 -13.55,-3.871 2.34,4.262 2.539,7.813 -1.211,13.441 -9.918,14.879 -39.84,33.43 -61.797,32.93 -25.391,-0.551 -53.473,-17.351 -62.852,-32.66 -3.48,-5.621 -4.261,-11.289 -1.211,-16.211 2.231,-4.961 1.442,-9.141 -2.269,-12.187 -8.711,-7.153 -19.68,1.097 -15.5,11.718 2.769,4.649 2.34,10.352 -3.32,18.321 -11.372,15.937 -37.86,32.738 -60.942,32.269 -33.008,-0.75 -66.367,-24.531 -64.258,-44.109 0.899,-8.629 -1.449,-11.832 -8.48,-10.852 -8.512,1.211 -9.488,9.289 -3.43,15.852 0.891,2.109 2.34,7.23 -0.43,10.937 -34.89,47.153 -87.07,33.403 -99.07,22.852 11.641,19.93 27.86,28.832 44.301,29.422 z M 593.91,373.77 c 13.078,-0.11 27.18,-10 31.641,-17.731 3.238,3.359 32.847,17.5 47.219,-2.699 -37.649,2.859 -38.122,-37.141 -10.27,-41.012 -12.699,-38.558 44.219,-40.898 40.621,-4.648 42.5,-6.289 37.27,47.621 -2.769,41.91 20.976,15.281 35.269,10.359 60.468,-7.141 8.481,11.012 43.051,21.321 51.52,2.071 -39.61,2.421 -32.852,-43.442 -3.281,-43.829 -8.789,-31.8 49.421,-43.48 40.429,3.981 36.922,-2.582 31.602,47.348 -3.828,43.207 2.66,9.062 38.559,13 54.461,-4.34 14.57,13.32 30.66,22.422 59.758,3.402 -39.649,6.598 -40.149,-44.89 -3.32,-41.8 -3.438,-34.102 48.641,-34.692 39.961,4.73 39.65,10.699 17.86,53.117 -11.29,41.438 12.969,15.39 34.97,8.132 43.72,5 26.99,30.902 50.5,5.082 50.5,5.082 -46.99,4.879 -36.75,-62.071 9.03,-37.77 -0.08,-13.793 5.86,-25.711 24.53,-27.66 l 22.22,-45.981 -629.531,-4.14 34.731,61.101 c 3.519,-1.101 23.59,-2.929 27.929,20.579 41.371,-13.122 44.141,35.082 13.243,42.66 3.707,2.621 7.968,3.629 12.308,3.59 z m 974.64,-5.7 0,-23.32 18.44,0 52.54,-117.93 -50.31,-82.3 -19.38,0 0,-20.899 73.4,0 0,20.899 -24.45,0 67.3,97.07 0,-97.07 -20.23,0 0,-20.899 67.03,0 0,20.348 -22.03,0 0,200.781 22.03,0 0,23.32 -67.03,0 0,-23.32 20.23,0 0,-59.301 -28.59,-36.828 -42.85,96.129 28.59,0 0,23.32 -74.69,0 z M 569.379,356.352 c 4.101,-6.602 0.66,-10.903 -6.41,-11.09 0,0 4.609,6.679 6.41,11.09 z m 517.891,-8.512 4.06,-8.559 c -4.42,1.758 -4.96,3.668 -4.06,8.559"
         inkscape:connector-curvature="0"
         id="path24"
         style="fill:#000000;fill-opacity:1;fill-rule:nonzero;stroke:none" /></g></g></svg>