<?xml version="1.0" encoding="UTF-8" standalone="no"?>
<!-- Created with Inkscape (http://www.inkscape.org/) -->

<svg
   xmlns:dc="http://purl.org/dc/elements/1.1/"
   xmlns:cc="http://creativecommons.org/ns#"
   xmlns:rdf="http://www.w3.org/1999/02/22-rdf-syntax-ns#"
   xmlns:svg="http://www.w3.org/2000/svg"
   xmlns="http://www.w3.org/2000/svg"
   xmlns:inkscape="http://www.inkscape.org/namespaces/inkscape"
   version="1.1"
   width="225"
   height="315"
   id="svg2"
   xml:space="preserve"><metadata
     id="metadata8"><rdf:RDF><cc:Work
         rdf:about=""><dc:format>image/svg+xml</dc:format><dc:type
           rdf:resource="http://purl.org/dc/dcmitype/StillImage" /></cc:Work></rdf:RDF></metadata><defs
     id="defs6" /><g
     transform="matrix(1.25,0,0,-1.25,0,315)"
     id="g10"><g
       transform="scale(0.1,0.1)"
       id="g12"><path
         d="m 89.1016,2508.52 1615.7384,0 c 47.11,0 85.04,-37.93 85.04,-85.04 l 0,-2324.4214 c 0,-47.1094 -37.93,-85.0391 -85.04,-85.0391 l -1615.7384,0 c -47.1133,0 -85.04301,37.9297 -85.04301,85.0391 l 0,2324.4214 c 0,47.11 37.92971,85.04 85.04301,85.04"
         inkscape:connector-curvature="0"
         id="path14"
         style="fill:#ffffff;fill-opacity:1;fill-rule:nonzero;stroke:none" /><path
         d="m 89.1016,2508.52 1615.7384,0 c 47.11,0 85.04,-37.93 85.04,-85.04 l 0,-2324.4214 c 0,-47.1094 -37.93,-85.0391 -85.04,-85.0391 l -1615.7384,0 c -47.1133,0 -85.04301,37.9297 -85.04301,85.0391 l 0,2324.4214 c 0,47.11 37.92971,85.04 85.04301,85.04 z"
         inkscape:connector-curvature="0"
         id="path16"
         style="fill:none;stroke:#000000;stroke-width:7.9738698;stroke-linecap:butt;stroke-linejoin:miter;stroke-miterlimit:4;stroke-opacity:1;stroke-dasharray:none" /><path
         d="m 236.879,2309.8 c 0.699,-633 7.422,-1410.929 7.891,-2100.351 l 1309.72,0.321 -8.75,2096.99 -1308.861,3.04 z m 387.141,-13.43 c 225.98,-6.14 453.32,0.51 680.98,-1.29 0,0 -82.7,-144.06 -107.77,-189.38 -5.51,-10 -6.06,-17.03 -3.09,-21.17 4.57,-6.41 4.18,-17.23 -0.94,-23.48 -2.18,-2.69 -3.2,-4.41 -3.36,-6.01 -0.15,-1.6 1.29,-3.36 2.43,-6.25 4.06,-13.83 -6.37,-23.4 -17.31,-27.81 -7.34,-2.97 -23.67,-4.96 -35.74,-4.38 -75.55,3.6 -223.669,67.42 -284.732,72.42 -42.379,11.8 -97.109,7.7 -142.218,5.12 -8.52,-0.51 -7.04,19.34 -7.04,19.34 -7.109,65.58 -53.55,122.69 -81.21,182.89 z m 693.25,-5.98 213.55,-0.23 0.98,-34.5 -89.89,-92.11 c -8.43,-8.59 -15.11,-15.74 -15.11,-15.74 l -0.55,-83.08 c -61.25,32.89 -73.48,72.22 -84.65,115.5 -102.38,-75.54 -107.19,-240.85 4.61,-325.97 0.9,36.99 29.06,109.61 78.99,115 l 0.7,-287.93 -61.41,59.96 -133.47,-1.76 c 21.99,35.74 22.5,64.1 8.24,97.54 -23.99,54.69 -61.02,179.53 -58.17,179.1 0,0 1.06,2.7 4.11,3.36 11.05,2.46 18.08,13.17 14.92,26.02 -0.59,4.1 -0.59,3.16 2.22,8.51 10.86,18.52 -2.07,38.67 -2.07,38.67 l 117,197.66 z m -708.211,-1.76 80.121,-144.84 c 0,0 -1.059,-6.64 -0.629,-10.55 0.629,-5.58 2.5,-10.58 5.711,-15.82 2.148,-3.44 3.707,-8.16 4.179,-12.54 0.778,-7.18 0.778,-7.18 11.329,-16.68 2.179,-1.99 2.609,-3.24 1.789,-5.31 -3.469,-8.79 -1.438,-26.76 5.472,-48.24 8.668,-27.15 10.938,-26.8 -5.269,-63.09 -3.364,-7.58 -7.461,-17.65 -11.84,-26.95 -20,-41.09 -23.082,-52.23 11.207,-74.1 9.691,-6.17 12.5,-11.53 10.082,-23.79 -1.871,-9.69 -2.262,-15.86 2.379,-21.29 3.012,-3.52 5.711,-4.1 4.961,-6.84 -0.5,-1.87 -2.731,-9.88 -1.992,-16.64 1.992,-18.2 -19.02,-45 -38.2,-54.41 -3.828,-2.74 -4.918,0.58 -7.109,4.41 -19.879,34.81 -69.34,20.71 -72.621,-20.82 -0.899,-10.97 -0.539,-15.74 -3.359,-18.08 -0.969,-0.78 -3.86,-2.43 -3.86,-2.43 0,0 -74.07,-48.16 -121.14,-72.89 -3.079,-1.64 -5.821,-4.29 -8,-4.72 -2.5,-0.51 -4.34,-0.04 -5.899,1.52 -17.391,33.05 -7.742,72.11 -6.25,85.94 -0.391,4.92 -4.57,5.78 -10.902,5.86 -10.699,0.15 -26.098,-10.71 -29.449,-20.82 -2.86,-8.63 -4.692,-14.18 -7.27,-14.14 -2.621,0.04 -3.871,3.51 -10.309,15.9 -13.402,25.82 -15.511,29.06 -28.05,44.06 -10,11.95 -18.52,13.51 -28.321,4.65 -6.84,-6.21 -6.601,-0.82 -12.422,2.3 -10,6.8 -25.039,0.7 -25.429,-8.9 -0.309,-8.05 -0.391,-14.11 -8.52,-14.61 -9.097,-0.59 -13.039,-12.35 -10.469,-29.07 1.329,-8.79 1.61,-10.19 -1.089,-13.43 -8.789,-10.51 -9.922,-17.78 -5.121,-32.47 13.789,-41.87 33.75,-70.03 52.5,-108.12 0,0 -47.649,-27.03 -75.93,-42.73 l -0.711,778.98 350.43,0.7 z m 925.781,-41.36 1.1,-676.68 -102.23,100.5 c 0,0 -1.99,129.65 -1.91,182.66 0.11,53.05 0.9,106.05 0.66,115.9 -0.19,9.84 0.55,51.8 0.86,94.88 0.66,90.24 -7.58,79.06 9.18,96.37 l 92.34,86.37 z m -199.84,-81.14 5.62,-16.33 c -42.85,-24.57 -95.27,-161.36 0.98,-261.83 l -1.91,-20.7 c -100.9,91.52 -82.23,222.73 -4.69,298.86 z m 7.34,-19.33 c 14.69,-30.35 31.45,-57.19 54.26,-73.68 -12.3,-29.29 -17.58,-61.67 3.24,-105.27 -14.61,-8.01 -34.88,-29.3 -55.89,-72.85 -75.94,76.72 -59.03,187.97 -1.61,251.8 z m -564.961,-57.35 c 42.109,-0.04 86.019,-6.91 126.293,-19.06 25.387,-128.4 70,-214.69 69.808,-264.96 0,0 -3.519,0.59 -10.98,5.98 -18.359,13.24 -42.461,5.86 -55.352,-11.02 -12.226,-15.98 0.082,-38.2 -6.168,-47.54 -11.878,-17.38 -42.39,-49.49 -47.5,-48.44 -3.71,0.79 -3.128,2.39 9.961,22.47 13.629,20.89 24.059,39.84 19.571,44.49 -1.922,1.95 -2.934,-2.19 -13.09,-19.85 -23.871,-41.44 -44.844,-67.11 -53.16,-63.75 -3.91,1.57 -1.883,5 15.777,28.32 19.961,26.37 25.512,42.89 23.512,50.16 -1.52,5.63 -4.602,-3.44 -12.891,-19.65 -8.82,-17.15 -24.762,-36.25 -37.691,-54.57 -4.059,-6.64 -9.34,-10.51 -16.059,-13.51 -5,-2.19 -12.93,-5.71 -17.531,-5.12 -2.348,0.31 -0.75,1.68 2.5,4.88 25.461,26.21 47.383,55.43 59.801,83.52 1.91,3.67 -0.86,8.9 -3.981,5.04 -19.07,-33.52 -45.59,-75.36 -74.379,-93.79 -6.172,-3.95 -15.468,-7.31 -23.871,-6.6 -14.179,0.43 -9.14,3.55 3.75,11.87 27.621,17.73 66.41,68.79 72.66,86.84 1.481,4.25 -0.16,6.68 -2.89,6.4 -22.739,-36.36 -52.77,-76.4 -87.699,-93.12 -18.79,-9.06 -42.54,-10.82 -54.219,-5.12 -8.551,4.18 -6.403,5.63 8.789,6.6 36.531,3.6 79.301,37.89 100.469,74.14 12.39,20.08 3.711,15.47 -10.469,-3.9 -24.18,-33.05 -72.18,-64.73 -101.949,-62.23 -30.082,1.76 -47.422,25.12 -43.551,45.08 2.34,12.11 10.93,24.45 27.769,27.97 28.832,6.05 47.692,-39.61 21.332,-48.25 -8.992,-2.93 -12.421,-0.7 -9.179,2.89 19.566,8.6 10.898,32.11 -5.633,34.5 -10.391,1.52 -22.418,-5.47 -22.93,-21.57 0.321,-12.03 10.199,-23.75 30,-24.02 23.52,-0.35 59.571,16.56 81.449,47.74 15.512,23.78 1.211,15.74 -10.347,-0.12 -10.242,-14.03 -43.211,-33.63 -45.75,-32.93 l 1.14,16.17 c 0.508,-2.81 50.778,31.64 47.848,57.27 -1.879,18.59 0.82,24.25 20.191,24.02 14.5,-0.16 32.891,-5.23 38.25,-11.88 5.5,-6.56 11.68,-8.63 8.942,2.43 -4.453,18 0.859,20.93 -9.531,17.54 -7.192,-2.35 -13.59,3.43 -20.782,8.55 -7.929,5.63 -17.968,8.01 -29.918,7.58 -8.953,-0.31 -12.972,0.23 -11.57,8.67 1.02,5.94 2.149,11.33 0.43,15.23 -2.813,6.33 -13.981,12.9 -26.641,22.23 -14.922,10.98 -12.14,11.64 19.649,84.96 13.363,30.82 13.441,37.15 5.429,59.89 -12.687,35.89 -14.648,50.31 9.063,55.31 13.437,1.56 27.269,2.3 41.328,2.26 z m 134.73,-20.78 12.301,-3.51 c 0.078,-0.04 38.481,-131.33 60.43,-195.43 6.719,-19.57 11.801,-46.02 13.09,-70.82 -0.59,-34.18 -19.84,-58.71 -43.321,-61.41 -16.597,-1.91 -34.648,6.72 -42.89,25.23 -6.989,17.58 -1.719,38.32 18.32,45.47 34.731,12.39 60.16,-31.91 26.133,-45.54 -17.621,-7.07 -34.371,5.62 -26.442,20.43 5.579,10.39 21.211,9.25 24.918,-1.45 3.012,-11.41 8.012,-6.02 5.864,1.68 -6.453,24.65 -38.09,18.83 -40.633,-3.83 0,-28.12 30.781,-34.72 49.141,-18.94 14.218,12.61 15.71,35.43 12.152,55.19 -4.883,41.06 -28.121,94.34 -44.652,155.16 -8.239,30.35 -20.149,66.56 -24.411,97.77 z m 490.121,-1.48 23.12,-9.14 -0.55,-76.25 -19.6,-6.76 c -25.67,39.22 -4.3,92.11 -2.97,92.15 z m -468.832,-4.92 16.954,-6.53 c 9.296,-53.83 53.048,-156.68 68.518,-233.44 4.29,-46.13 5,-59.68 -26.249,-84.25 l 0,0.35 -16.922,0 c 0,0 -0.078,1.01 7.352,6.56 40.899,30.59 16.48,98.05 1.008,149.88 -26.911,82.82 -50.969,167.5 -50.661,167.43 z m -158.437,-5.39 c -2.152,0 -4.301,-0.12 -6.52,-0.24 -25.55,-1.37 -29.769,-3.01 -29.851,-8.55 -0.149,-10.47 4.14,-15.12 27.93,-12.54 20.589,2.18 50.39,-0.98 70.941,-9.85 23.437,-10.08 28.988,-12.46 37.418,-16.79 21.141,-10.86 17.422,-0.04 -1.68,12.54 -39.019,25.66 -66.008,35.82 -98.238,35.43 z m 184.488,-3.72 15.903,-6.05 c 0,0 4.179,-12.38 5.699,-19.49 15.469,-68.71 57.579,-145.94 62.539,-226.29 1.1,-26.33 -3.43,-50.86 -22.73,-62.74 l -14.53,0 c 15.55,15.47 25.94,19.93 21.56,73.75 -6.87,69.11 -52.46,155.43 -68.441,240.82 z m 28.211,-11.13 14.68,-5.43 c 16.88,-92.73 100.67,-231.33 47.35,-298.2 l -13.32,0 c 11.87,18.55 16.79,34.84 15,59.88 -5.16,84.3 -48.17,166.1 -63.71,243.75 z m 24.61,-8.55 15.78,-4.81 c 21.44,-93.98 103.83,-248.01 45.11,-290.58 l -11.6,0.31 c 44.26,82.73 -22.81,168.32 -49.29,295.08 z m 27.53,-8.75 c 4.85,-2.7 11.76,-3.99 17.08,-5.55 16.6,-71.06 46.99,-140.94 60.82,-207.11 4.64,-36.25 -3.32,-63.36 -26.1,-73.67 l -4.84,0 c 20.43,30.82 16.56,69.72 5.66,111.8 -14.65,56.52 -43.12,118.71 -52.62,174.53 z m -248.82,-1.25 c -7.351,0.07 -15.039,-1.06 -23.171,-3.64 -8.278,-3.12 -7.258,-9.68 0.429,-8.32 2.621,0.43 7.274,1.25 10.313,1.8 18.949,3.32 42.308,-3.52 70.59,-20.66 6.839,-4.14 14.257,-8.13 16.129,-9.5 5.199,-3.86 10.75,-3.86 8.832,1.1 -0.782,1.95 -11.68,10.43 -21.332,15.82 -20.622,12.46 -39.801,23.2 -61.79,23.4 z m 275.66,-6.18 15.9,-2.42 c 29.92,-137.54 95.62,-223 39.41,-274.02 l -14.06,0 c 15.39,15.7 22.34,40.27 17.23,69.34 -5.2,29.68 -20.51,76.75 -33.24,118.16 -14.73,48.01 -26.61,88.59 -25.24,88.94 z m 22.81,-3.86 13.48,-2.5 c 15.78,-55.9 42.58,-125.2 58.71,-182.93 9.96,-35.51 5.94,-79.22 -16.21,-87.27 l -11.37,-0.19 c 18.79,25.11 21.49,51.29 12.89,85.15 -17.65,69.46 -44.33,130.08 -57.5,187.74 z m 83.17,-0.08 c 13.63,-57.97 46.29,-146.37 58.04,-176.88 15.63,-31.17 10.94,-77.34 -12.54,-95.62 l -11.13,-0.24 c 13.44,12.58 18.05,33.72 15.9,55.67 -6.01,61.95 -49.88,147.89 -65.78,213.91 l 15.51,3.16 z m -59.1,-2.74 13.9,-1.28 c 13.91,-60.63 40.98,-119.54 58.56,-180.16 3.28,-13.71 6.13,-30.43 5,-42.73 -2.43,-25.79 -13.09,-46.14 -22.5,-46.14 l -9.57,0 c 19.57,23.32 18.63,55.08 10.23,89.26 -13.83,56.45 -47.3,124.49 -55.62,181.05 z m -361.961,-0.31 c -5.778,-0.04 -5.899,-5.35 3.363,-13.43 5.668,-4.97 5.238,-3.33 4.918,-6.45 -1.36,-13.44 0.75,-25.7 6.25,-11.91 1.488,3.71 3.64,7.85 5.789,7.34 4.101,-1.25 2.031,-8.75 3.98,-12.54 3.321,-6.68 -0.199,-8.32 -8.281,-6.25 -5.859,1.48 -6.168,-1.68 -9.808,-5.66 -6.321,-7.03 -5.27,-11.25 4.46,-9.07 1.598,0.36 2.969,-0.07 4.219,-0.39 3.039,-0.7 5.821,-2.61 13.039,-8.12 9.301,-7.11 22.461,-16.56 31.024,-18.01 13.668,-2.3 10.617,4.26 -0.59,8.56 -9.613,3.67 -21.524,13.86 -21.481,16.71 0.039,2.15 3.039,0.86 20.348,5.63 7.5,2.07 18.09,6.68 22.539,8.71 7.344,3.4 7.652,3.36 19.184,3.01 19.566,-0.59 22.578,0.11 8.828,10.27 -27.738,20.59 -64.77,33.99 -84.418,25.47 -5.942,-2.58 -5.82,-1.02 -10.121,1.44 -5.621,3.25 -10.192,4.69 -13.242,4.69 z m 397.191,-1.83 c 19.26,-74.1 56.45,-140.51 65.51,-210.78 2.03,-20.12 -1.33,-39.73 -18.05,-56.72 l -11.25,-0.2 c -1.68,-0.04 15.74,26.88 14.22,49.88 0.47,12.31 -0.9,25.47 -4.38,38.48 -21.87,62.46 -43.39,119.1 -60.11,178.67 l 14.06,0.67 z m -347.34,-24.34 c 0.11,0 0.231,0 0.309,0 5.269,-0.82 5.429,-2.93 3.902,-5.66 -2.262,-4.03 -6.242,-11.8 -6.242,-11.8 0,0 -5.32,-1.06 -6.41,0.31 -1.918,2.78 5.082,16.72 8.441,17.15 z m 13.32,-2.42 c 0.579,0.04 1.321,-0.27 2.461,-0.7 5.039,-2 13.75,-6.1 10,-9.26 -4.492,-3.71 -21.839,-5.39 -20.98,-3.83 l 5.777,10.66 c 1.25,2.31 1.801,3.13 2.742,3.13 z m -53.089,-64.73 c -0.43,-0.04 -0.821,-0.15 -1.09,-0.31 -1.02,-0.63 1.25,-4.65 4.57,-9.18 15.348,-20.7 -5.902,-26.84 -20.941,-15.78 -14.258,11.09 -36.289,10.08 -33.129,-1.56 1.14,-4.11 0.039,-6.1 8.008,-6.21 7.07,-0.12 8.91,-0.51 15.281,-4.89 24.41,-16.68 55.969,5.67 40.539,29.61 -2.891,4.53 -10.078,8.48 -13.238,8.32 z m 60.238,-32.34 c -8.867,0 -14.457,-6.6 -3.359,-8.6 39.679,-7.1 13.082,-48.2 -14.891,-27.03 -25.188,22.74 -58.899,22.58 -59.328,6.45 -0.039,-4.06 0.148,-4.22 6.129,-5.31 14.019,-2.66 35,-9.07 43.05,-13.13 4.719,-2.38 9.68,-4.57 11.051,-4.92 16.758,-6.09 38.321,1.84 42.578,15.98 3.911,12.93 0.743,36.56 -25.23,36.56 z M 324.488,1752.38 c 5.313,-0.08 10.981,-4.72 15,-11.52 9.301,-15.7 20.633,-42.11 27.813,-56.68 1.84,-3.67 1.918,-6.95 1.801,-8.71 0.546,-8.52 3.437,-11.76 8.476,-7.89 5,3.79 11.91,10.08 3.793,11.09 -8.172,6.17 -12.699,15.2 -7.66,20.67 3.75,4.06 2.269,6.68 -0.699,6.83 -11.453,0.2 -28.481,34.18 -20.434,41.49 10.82,9.88 22.813,-2.35 48.281,-52.93 11.25,-22.35 11.762,-46.8 2.153,-34.69 -3.282,3.05 -2.621,1.48 -6.453,-8.16 -2.887,-7.23 -5.27,-10.63 -16.25,-21.22 -13.399,-12.89 -21.52,-23.08 -21.829,-25.31 -0.589,-4.26 7.219,-0.27 12.93,7.15 12.731,12.42 13.199,15.74 13.078,-0.74 -0.078,-14.88 -0.859,-17.62 1.84,-17.5 4.184,0.15 6.402,11.91 8.363,26.17 2.34,12.81 8.981,19.26 20.079,26.41 3.039,1.95 3.121,3.32 2.531,8.94 -2.071,18.13 8.25,51.88 12.929,43.52 0.668,-1.88 2.7,-6.25 3.79,-9.34 0.859,-4.76 3.871,-10.16 8.441,-10.51 5.699,-4.25 5.66,-6.56 7.66,-22.15 0.617,-5.11 2.891,-12.73 4.449,-16.79 2.969,-7.58 5.59,-11.99 3.95,-14.26 -1.02,-1.09 -3.25,-3.2 -3.25,-3.2 l -92.809,-55.04 c 0,0 -7.301,-4.03 -9.922,-5.12 -7.379,-3.32 -11.84,-0.86 -15.469,4.61 -19.648,29.3 -33.16,62.23 -46.992,92.58 -8.277,18.01 -0.156,29.92 10.543,15.39 4.18,-5.63 2.039,-9.22 -0.031,-20.16 -0.36,-1.95 1.48,-1.21 4.922,-1.76 5.429,0.59 8.008,-4.25 7.808,-12.46 -3.398,-11.79 1.328,-5.43 3.559,-4.84 4.293,-0.08 5.269,-2.66 7.652,-7.54 1.489,-6.87 4.528,-4.88 8.949,-0.35 3.668,3.79 3.668,3.67 -3.679,12.5 -12.77,13.79 -30.422,44.96 -35,63.94 -1.25,5.24 -0.821,9.42 0.16,12.19 5.738,12.97 13.75,13.01 22.5,-5.08 1.488,-3.08 4.418,-8.04 6.488,-11.05 3.352,-4.84 5.461,-9.02 5.352,-16.76 -2.582,-6.48 -3.012,-6.6 -0.781,-7.5 5.539,-2.19 15.39,-12.19 15.82,-21.17 0.461,-9.1 1.988,-13.91 9.14,-8.52 8.2,6.18 4.719,8.64 -3.359,16.53 -8.402,10.04 -8.91,18.75 -3.91,25.97 0.82,2.47 0.469,3.13 -2.66,2.82 -9.762,-0.94 -19.289,11.48 -12.5,20.89 3.129,5.55 2.777,6.96 -1.641,7.11 -2.301,0.08 -6.129,-0.35 -8,0.71 -2.89,5.43 -8.949,13.01 -8.871,19.22 2.852,8.75 7.262,12.26 11.949,12.22 z m 581.801,-0.47 c 16.09,-9.88 32.031,-20.15 50.121,-24.84 -41.879,-75.47 -109.301,-115.9 -165.672,-131.72 1.922,-9.65 3.282,-19.3 12.621,-25.19 -0.308,1.44 -4.449,18.59 -3.558,22.11 77.699,19.84 146.097,95.93 163.558,135.19 l 341.441,3.71 c -253.12,-242.81 -263.2,-584.53 -56.68,-870.94 l -23.74,-13.859 c -159.15,238.359 -157.5,468.009 -109.81,621.789 33.87,109.03 94.57,192.35 140.74,239.96 0,0 -185.11,2.54 -277.259,-0.85 -13.403,-20.47 -25.821,-37.19 -43.832,-56.53 0,0 46.801,45.2 45.582,53.05 85.399,0.04 173.479,4.96 258.749,-0.98 -99.8,-119.41 -148.98,-242.69 -157.53,-358.67 -0.32,-15.08 -1.22,-6.68 -6.22,-12.23 l -15.74,-24.41 -12.61,25.39 c -8.6,2.77 -25.47,-1.68 -32.66,0.9 -35.079,-156.64 0.39,-345.669 46.6,-469.02 0,0 -11.6,-6.489 -25.9,-5.391 -15.62,3.473 -19.41,-0.859 -32.97,-3.598 -15.54,-2.972 -20.969,-2.929 -24.45,-6.871 -1.91,-2.191 -5.351,-5.238 -9.3,-7.39 -37.93,-13.79 -82.379,-65.43 -82.379,-64.68 l -41.762,18.75 c 38.48,75.5 83.601,102.691 162.971,136.211 l -7.381,33.75 C 914.691,934.059 860.898,896.371 818.48,823.16 c -51.449,0.711 -259.929,2.192 -260.121,1.531 85,96.68 152.071,242.539 159.371,356.249 1.801,22.15 -1.281,11.52 8.52,18.12 l 15.391,18.32 12.109,-18.04 c 0,0 8.75,-11.14 14.262,-1.88 15.508,158.59 -0.903,339.42 -77.313,465.43 13.563,0.9 27.071,1.29 40.039,-6.41 29.922,-67.65 47.5,-151.28 55.16,-213.94 9.692,-79.34 8.321,-168.83 -1.519,-244.81 l 5.07,-0.7 c 14.891,98.75 9.852,203.79 -3.828,295.59 -6.992,47.89 -29.601,122.77 -45.109,157.34 -4.301,9.57 -7.66,12.03 -3.563,13.44 93.09,7.85 135.903,38.9 169.34,88.51 z m -258.168,-8.36 c 7.109,0 12.899,-5.78 12.899,-12.89 0,-7.11 -5.79,-12.89 -12.899,-12.89 -7.101,0 -12.891,5.78 -12.891,12.89 0,7.11 5.79,12.89 12.891,12.89 z m 699.849,-6.56 c -27.27,-24.69 -49.14,-50.23 -72.15,-77.5 68.09,-93.63 143.75,-195.15 207.38,-276.25 0,0 22.03,13.05 21.92,14.69 -0.04,0.86 -1.76,5.16 -2.15,4.22 -0.94,-2.27 -17.85,-11.72 -17.85,-11.72 l -201.37,264.3 c 0,0 10.94,13.04 14.3,17.15 15.66,5.15 59.18,59.1 61.33,57.96 34.1,-26.13 136.99,-136.91 176.6,-170.86 l 0.5,-307.5 c -4.1,-12.3 -113.78,-59.68 -191.25,-236.56 -38.94,-21.83 -82.11,-33.592 -122.26,-52.58 0,0 10.23,-16.051 15.23,-20.461 -6.13,13.242 -7.22,15.781 6.68,21.441 l 289.89,118.16 -0.55,-23.86 -4.73,-41.21 c -78.87,-48.64 -145.47,-69.031 -254.02,-142.43 -7.77,-1.789 -14.02,-9.21 -22.19,-9.64 -277.339,408.47 -100.04,716.25 61.6,870.89 l 33.09,1.76 z m -903.24,-20.9 c 7.571,-0.11 5.661,-17.65 2.891,-23.75 -5.633,-4.37 -11.172,-0.46 -11.062,7.74 0.043,2.69 -0.508,5.19 -1.168,5.62 -4.18,2.7 2.808,10.51 9.339,10.39 z m 169.411,-10.93 c 6.371,-4.85 8.75,-11.29 11.089,-17.74 -8.589,1.33 -31.601,7.93 -20.82,13.09 l 9.731,4.65 z M 572.27,1682.3 C 772.301,1379.77 763.359,1058.44 540.078,814.879 l 282.461,0.43 c 35.981,70.941 95.859,114.179 172.5,140.82 l 6.681,-22.258 C 913.629,905.59 869.059,858.711 833.629,793.75 l -336.867,0 c 129.41,139.262 188.707,256.91 198.039,416.05 8.91,151.53 -29.641,289.97 -146.75,456.49 l 24.219,16.01 z m 56.359,-3.47 47.191,-22.27 -6.992,-48.44 -49.418,22.82 9.219,47.89 z m -85.078,-13.6 C 795.859,1283.59 687.66,1015.12 486.211,791.719 l -37.109,-0.629 -86.481,80.359 1.559,-488.289 c 0,0 -84.34,-82.609 -94.02,-92.5 -9.57,-9.211 -16.762,4.93 -16.762,4.93 l 0.231,647.301 3.75,25.347 1.172,139.492 53.75,28.36 201.57,-264.211 c 0,0 -8.09,-11.957 -11.883,-14.07 -2.418,-1.36 -0.617,-3.75 1.41,-3.469 5.661,0.738 21.801,18.82 18.403,21.711 -73.09,90.59 -209.031,267.929 -209.031,267.929 l -56.641,-29.53 c 0,0 1.641,115.78 0.633,160.24 2.187,10.51 10.039,7.69 15.347,12.38 65.161,41.88 111.09,93.05 139.45,142.62 2.113,3.71 14.652,25.97 15.902,28.01 4.418,7.22 15.391,29.76 21.758,44.14 3.551,8.04 7.383,17.77 8.793,18.94 39.258,12.77 80.386,30.9 119.797,47.19 l -56.719,85.15 22.461,12.11 z m -154.602,-4.84 c -2.148,0.04 -7.539,-2.42 -14.89,-9.06 -13.508,-12.27 -31.329,-32.42 -31.36,-36.29 3.629,-1.29 6.832,0.78 9.723,3.71 11.289,16.72 28.789,23.24 39.027,37.85 1.602,2.7 -0.078,3.83 -2.5,3.79 z m 127.071,-17.73 c 0,0 39.14,-57.04 49.179,-72.15 C 462.031,1529.65 354.102,1475.7 258.52,1440.82 l 0,22.85 15.07,41.06 242.43,137.93 z m 153.468,-37.7 38.563,-19.92 -10.903,-43.52 -38.91,21.8 11.25,41.64 z m 31.801,-72.38 31.723,-23.09 -14.492,-36.91 -31.918,21.95 14.687,38.05 z m -258.668,-27.07 c 0,0 -4.891,-17.11 -13.09,-32.42 -39.222,-68.17 -77.621,-128.75 -156.953,-181.37 -3.008,2.69 -11.637,17.81 -11.637,17.81 l -0.781,20.2 c 42.07,33.79 78.36,58.59 134.02,157.69 l 16.172,6.56 13.75,-5.93 9.296,16.6 9.223,0.86 z m 165,-0.16 c -36.57,-77.54 -72.5,-157.54 -130.742,-217.93 L 636.25,1064.96 c 52.422,157.07 32.969,304.26 -28.629,440.39 z m -200.512,-16.91 -7.66,-13.24 13.25,-7.66 7.653,13.24 -13.243,7.66 z m -21.64,-1.45 c -28.867,-64.53 -72.231,-114.22 -129.098,-149.92 l -2.191,94.73 131.289,55.19 z m 10.152,-19.26 -7.652,-13.24 13.242,-7.65 7.66,13.24 -13.25,7.65 z m 325.707,-2.77 28.75,-27.26 -17.066,-30.08 -29.461,24.37 17.777,32.97 z m 440.152,-13.4 c -0.03,0 -0.07,-0.04 -0.07,-0.08 -50.51,-156.95 -35.36,-306.83 33.94,-437.3 33.99,84.57 61.88,141.17 128.2,231.21 -40.85,53.52 -157.96,207.85 -162.07,206.17 z m -777.14,-2.5 -8.012,-13.01 13.012,-8.04 8,13.01 -13,8.04 z m 220.308,-18.32 c 45.512,-108.79 41.481,-206.91 17.301,-291.91 l -113.668,143.59 c 41.641,51.72 69.297,100.67 96.367,148.32 z m -232.027,-0.39 -8.641,-12.62 12.661,-8.63 8.589,12.66 -12.609,8.59 z m -12.699,-18.05 -9.453,-12.1 12.07,-9.42 9.41,12.07 -12.027,9.45 z m 374.488,-12.89 25.789,-24.41 -16.25,-31.72 -26.179,23.91 16.64,32.22 z m -389.371,-5.93 -9.879,-11.6 11.602,-9.89 9.918,11.6 -11.641,9.89 z m 830.351,-3.44 114.69,-147.97 c -38.36,-45.66 -70.24,-99.45 -98.71,-157.42 -31.96,100.12 -46.41,198.51 -15.98,305.39 z m -846.441,-14.96 -10.59,-11.06 11.051,-10.58 10.551,11.05 -11.012,10.59 z m 267.891,-14.81 -52.461,-75.86 60.152,-76.83 c 6.489,41.6 7.93,89.84 -7.691,152.69 z m -285,-2.46 -11.289,-10.35 10.347,-11.29 11.293,10.35 -10.351,11.29 z m -16.57,-14.8 -11.911,-9.65 9.653,-11.88 11.867,9.65 -9.609,11.88 z m 448.21,-7.85 21.52,-25.16 -21.84,-25.9 -20.461,23.01 20.781,28.05 z m 273.9,-4.5 14.65,-0.54 c -24.02,-236.76 23.17,-356.53 64.92,-460.71 0,0 -0.11,-4.18 -1.52,-5.43 -6.8,-2.339 -20.55,-4.839 -31.56,4.848 -56.17,144.332 -68.44,322.112 -46.49,461.832 z m -741.4,-3.04 -12.39,-8.99 8.988,-12.38 12.383,8.95 -8.981,12.42 z m 917.26,-8.44 c -3.71,0 -6.95,-97.38 7.07,-144.96 l 52.78,71.52 -59.85,73.44 z m -136.44,-16.06 17.61,-23.71 -18.71,-25.5 -19.14,24.14 20.24,25.07 z m -795.12,-6.44 c 0.859,0.12 2.34,-2.34 5.16,-4.3 2.648,-2.73 2.262,-2.54 -0.711,-4.88 -4.609,-3.71 -5.969,-3.09 -5.899,2.66 0.391,4.72 0.75,6.4 1.45,6.52 z m 482.808,-17.81 19.532,-27.93 -21.598,-27.74 -18.473,29.22 20.539,26.45 z m 310.742,-35.35 20.55,-25.04 -17.66,-27.46 -22.42,26.21 19.53,26.29 z m 475.67,-5.32 1.8,-28.82 -7.11,10.54 -13.05,-10 9.14,-12.11 11.37,8.91 0.7,-11.64 c -72.34,-52.27 -103.55,-112.35 -132.93,-157.38 l -13.05,-5.55 -14.84,4.73 -7.27,-12.86 -12.61,-2.97 c -0.39,0.08 25.35,55.2 69.37,111.33 39.22,49.96 108.28,106.29 108.48,105.82 z m 8.36,-45.11 0.62,-102.58 -129.45,-50 c 33.59,57.22 73.2,110.39 128.83,152.58 z m -32.15,12.46 -11.84,-9.69 10.2,-11.72 11.8,9.69 -10.16,11.72 z m -18.2,-15.43 -11.37,-10.16 10.62,-11.33 11.37,10.24 -10.62,11.25 z m -432.35,-5.71 24.38,-25.97 -17.85,-30.71 -25.43,24.38 18.9,32.3 z m 413.99,-10.93 -10.71,-10.9 11.68,-11.25 10.71,10.94 -11.68,11.21 z m -16.84,-17.23 -10.27,-11.37 12.42,-10.78 10.27,11.37 -12.42,10.78 z m -16.91,-19.37 -9.53,-11.96 12.93,-10 9.53,11.99 -12.93,9.97 z m -371.88,-18.36 30.51,-19.81 -14.88,-36.33 -30.47,23.24 14.84,32.9 z m 357.11,-0.16 -8.94,-12.42 13.79,-9.46 9.06,12.9 -13.91,8.98 z m -13.79,-19.61 -8.28,-12.85 13.95,-8.99 8.24,13.29 -13.91,8.55 z m -12.3,-19.45 -7.66,-13.25 14.45,-8.2 7.66,13.4 -14.45,8.05 z m -11.14,-20.08 -7.65,-13.24 16.01,-6.92 6.33,12.66 -14.69,7.5 z m -303.35,-8.17 31.25,-21.17 -13.83,-38.04 -32.97,23.32 15.55,35.89 z m 453,-37.42 1.53,-782.65 -343.95,-1.179 c 0,0 -16.05,28.289 -49.73,93.679 -14.25,27.649 -26.28,39.45 -27.53,61.36 1.28,12.859 -4.65,27.461 -15.2,33.359 -3.55,1.961 -9.49,-0.429 -7.5,5.082 2.19,6.059 -4.49,15.391 -6.33,17.379 -2.07,3.52 -0.78,4.379 -1.01,17.43 -0.2,12.609 -0.86,17.89 -3.6,27.422 -6.83,24.058 -8.32,36.09 -4.41,48.547 10.16,31.679 20.74,55.941 34.41,85.472 7.97,17.27 6.76,24.02 -17.65,36.559 -18.32,9.422 -20.75,9.301 -18.44,23.012 1.09,6.449 2.11,10.507 0.74,13.597 -0.82,1.91 -3.87,4.571 -5.62,6.051 -2.39,2.07 -1.68,6.25 0.74,9.41 2.42,3.051 2.42,7.461 0.04,14.77 -5,15.429 6.33,35.82 27.69,49.922 9.46,6.25 9.18,4.957 19.07,-5.391 28.78,-30.231 71.56,-11.25 71.64,31.41 0.04,13.277 -4.5,12.5 8.08,18.75 42.62,27.109 130.04,76.399 129.46,75.078 5.7,-11.609 7.61,-21.527 11.21,-34.027 3.12,-10.703 2.69,-11.524 1.56,-32.383 -1.06,-18.867 -1.64,-23.238 2.81,-24.449 25.24,-2.781 30.98,6.129 35.82,22.422 2.11,7.187 6.13,5.738 8.63,2.687 9.57,-17.461 21.72,-35.621 29.73,-48.039 9.96,-15.859 26.76,-23.75 35.55,-16.289 1.87,6.168 3.4,6.359 14.53,3.828 13.51,-3.051 21.21,4.531 22.5,14.449 0.51,3.981 -2.38,3.793 4.88,7.731 17.93,13.281 11.1,31.41 8.4,42.351 0.23,-0.589 7.7,4.532 7.85,14.758 0.86,53.09 -45.15,129.614 -44.14,127.621 l 68.24,40.271 z m -434.25,-30.579 36.52,-17.66 -8.63,-43.629 -37.5,16.867 9.61,44.422 z m 355.42,-16.211 c 21.06,-24.418 36.26,-65.078 44.11,-91.57 3.86,-13.2 4.33,-28.239 0.89,-30.348 -3.43,-2.07 -5,0.156 -4.37,8.047 0.55,6.562 0.74,11.64 -2.07,11.562 -8.16,-2.109 -8.48,10.27 -7.66,13.168 0.55,1.949 1.57,3.321 2,4.371 2.03,4.809 -3.25,4.141 -8.68,4.219 -4.8,-0.117 -6.05,2.813 -5.82,7.383 -0.15,5.039 -6.83,4.058 -10.66,0.238 -3.48,-3.519 -2.77,-7.66 1.95,-10.551 6.8,-4.179 13.21,-14.379 29.03,-49.609 9.18,-20.43 6.44,-34.922 -4.5,-34.77 -7.57,0.2 -16.4,20.981 -23.55,36.29 -1.84,3.949 2.77,8.359 4.41,10.511 4.18,5.508 3.56,7.231 -2.65,7.34 -5.86,0.078 -8.32,-0.422 -11.84,6.758 -1.33,2.699 -2.26,6.84 -1.8,9.461 2.97,7.93 -3.16,9.84 -9.18,6.789 -7.53,-3.16 -7.46,-9.879 4.03,-20.899 7.42,-12.14 5.47,-11.32 -1.53,-19.492 -1.48,-2.886 -0.58,-4.687 2.5,-4.718 8.91,2.73 18.6,-13.321 15.94,-18.79 -2.73,-2.39 -10.19,-10.941 -2.97,-9.261 14.65,3.98 23.56,-17.5 14.96,-24.77 -12.89,-6.437 -15.93,-4.449 -35.78,35.16 -6.17,12.301 -13.55,25.551 -14.49,26.871 -0.9,1.372 -1.29,5 -1.25,7.93 0.86,7.192 -2.19,8.789 -8.44,5.942 -4.65,-1.09 -8.86,-4.961 -2.97,-8.59 6.92,-11.922 9.38,-13.871 5.59,-16.883 -8.67,-6.867 -4.92,-6.598 4.77,-8.551 4.72,-1.406 7.14,-3.867 8.47,-6.797 5,-11.211 13.87,-27.07 14.73,-30.312 2.93,-8.239 -2.34,-11.918 -9.61,-11.559 -7.58,-0.199 -11.06,5.82 -14.77,10.93 -13.79,19.14 -23.71,38.172 -37.77,59.93 l 1.88,20.351 c 0,0 3.71,-0.82 5.74,0.188 4.06,1.961 6.48,8.281 8.79,16.761 3.71,7.34 25.54,24.059 33.9,33.051 1.53,1.008 2.82,2.688 2.85,3.707 -0.03,3.281 -9.49,1.094 -15.66,-6.019 -9.14,-8.079 -13.01,-5.309 -12.73,5 -0.9,12.781 -8.68,6.371 -9.07,-6.09 -1.01,-9.84 -4.41,-15.86 -11.32,-21.367 -13.01,-10.391 -10.82,-7.731 -10.24,-22.192 1.06,-25.191 -8.63,-45.89 -15,-32.18 -2.26,4.879 -4.92,10.43 -10.58,10.661 -4.03,0.199 -6.02,4.14 -8.25,13.871 -3.28,15.777 -7.85,25.898 -12.07,40.429 l 120.74,68.399 z m -323.78,-54.262 42.11,-16.758 -7.9,-44.019 -41.67,15.929 7.46,44.848 z m 320.93,-4.058 c -0.27,0 -0.62,-0.079 -0.97,-0.239 -11.84,-8.941 -22.78,-19.019 -35.71,-26.722 -4.84,-2.848 -10.5,-10.27 -10.54,-12.219 -0.04,-1.961 5.74,-1.879 11.4,0.582 5.35,2.308 35.86,30.976 35.9,33.629 2.11,2.308 1.92,5.078 -0.08,4.969 z m -386.48,-53.442 c 9.96,0.043 4.14,-2.93 -17.58,-18.008 -21.21,-14.691 -56.132,-61.211 -60.19,-78.441 -1.84,-7.848 3.121,-8.43 8.71,2.312 25.74,49.489 74.45,94.68 119.02,92.649 21.84,-0.969 33.63,-6.871 15.55,-9.449 -49.53,-6.051 -86.57,-34.34 -118.99,-90.661 -0.04,-1.25 2.93,-1.21 6.33,0.969 29.65,36.289 63.09,84.34 121.84,80.43 42.34,-2.539 54.37,-52.93 19.22,-70.109 -30.67,-15 -58.95,21.519 -33.52,43.16 8.24,7.031 13.4,3.949 5.47,-3.239 -16.99,-15.429 3.87,-42.89 24.57,-32.461 12.62,5.27 17.69,23.321 6.6,36.95 -24.73,30.308 -77.97,7.269 -115.08,-41.719 -3.86,-5.16 -7.26,-16.332 -3.98,-15.121 5.78,2.351 9.26,6.879 12.65,11.961 13.25,18.359 23.4,27.578 41.33,37.461 13.87,7.617 14.73,6.207 9.53,-7.032 -2.15,-5.589 -3.9,-7.429 -9.29,-10.902 -22.58,-15.43 -36.6,-36.098 -37.19,-49.258 -0.39,-9.609 6.64,-22.191 -0.98,-24.769 -12.97,-6.09 -48.24,-1.129 -57.77,11.058 -6.88,8.75 -9.528,3.672 -4.38,-10.55 3.4,-9.368 3.25,-14.688 8.4,-13.75 6.49,3.441 10.94,2.621 23.52,-4.258 6.05,-3.281 16.8,-6.403 23.36,-7.891 11.91,-2.769 14.41,-1.601 14.14,-6.75 -0.08,-1.609 0.47,-6.058 0.12,-8.871 -1.92,-15.551 11.05,-20.859 28.78,-31.059 10.36,-5.968 6.25,-12.14 -5.7,-41.75 -6.25,-13.402 -11.56,-31.41 -19.26,-45.039 -7.18,-15.281 -7.77,-31.992 -3.16,-51.062 8.59,-35.43 14.76,-53.399 -0.55,-56.598 -39.41,-5.941 -126.439,-5.703 -173.982,12.578 -12.148,91.211 -76.558,226.563 -68.316,261.563 16.476,-24.844 85.617,-18.281 64.797,51.207 0,0 5.671,8.48 16.921,19.891 29.02,29.41 36.168,34.289 22.379,8.359 -10.589,-19.93 -24.097,-45.938 -24.379,-50.981 -0.269,-3.988 2.891,-4.918 5.321,-1.718 1.789,2.379 3.937,8.16 5.82,12.539 17.301,40.511 46.867,76.992 67.219,85.781 5.281,2.27 5,-0.16 1.371,-4.609 -23.981,-29.801 -42.262,-57.379 -55.313,-93.403 -0.546,-3.707 4.692,-5.269 6.372,-1.758 22.5,47.149 29.21,57.86 56.871,91.02 10.859,13.051 20.939,19.648 29.019,18.949 7,-0.629 4.93,-1.758 -1.56,-8.679 -4.92,-5.231 -12.19,-12.571 -23.979,-27.418 -20.82,-26.172 -41.723,-68.75 -34.031,-66.524 1.332,-3.558 7.89,7.774 13.441,18.594 15.199,25.508 31.329,59.219 67.419,81.406 7.54,3.121 15.78,4.922 23.09,5 z m -698.239,-8.238 64.289,-64.219 129.34,1.641 c -21.328,-33.133 -9.961,-84.492 1.8,-114.532 23.04,-58.871 56.79,-156.019 54.329,-157.429 0,0 -18.789,-4.84 -20.508,-16.75 -2.5,-17.699 5.16,-16.371 -5.891,-32.352 -2.5,-3.59 -0.898,-10.347 1.75,-15.738 1.762,-3.941 3.442,-9.883 0.16,-14.531 L 479.262,229.449 262.77,228.398 l 0,40.704 108.402,109.726 -1.293,80.742 c 59.101,-17.539 79.422,-78.55 84.5,-123.75 C 561.129,433.281 558.52,580 457.621,672.031 437.93,574.77 367.461,554.531 369.02,556.48 l -0.969,290.36 z m 804.219,-11.531 c 6.91,-0.508 16.25,-1.598 22.61,-5.039 -4.29,-2.54 -7.34,-5.622 -10.19,-8.75 -3.48,6.14 -8.17,9.5 -12.42,13.789 z m 179.25,-0.7 c 5.78,0.039 12.82,-16.839 8.79,-20.781 -2.3,-2.226 -9.72,-3.047 -12.38,-1.367 -3.4,2.5 -1.64,22.148 3.59,22.148 z m -203.94,-29.218 c 7.42,0 13.44,-6.012 13.44,-13.442 0,-7.418 -6.02,-13.429 -13.44,-13.429 -7.42,0 -13.44,6.011 -13.44,13.429 0,7.43 6.02,13.442 13.44,13.442 z m -568.752,-19.18 9.692,-0.191 c -17.622,-23.559 -20,-43.829 -13.75,-73.25 7.031,-33.04 60.582,-157.34 64.058,-191.559 0.152,-1.52 0.313,-5.902 0.313,-5.902 L 625.98,514.41 c 0,0 -1.019,3.559 -1.41,4.93 -18.441,61.949 -36.761,109.211 -49.57,145.351 -12.77,38.938 -32.34,96.68 3.828,121.52 z m 70.82,-0.191 c 0.082,0 0.153,-0.04 0.192,-0.04 l 9.34,-0.082 c -0.352,-0.238 -13.91,-29.257 -14.879,-46.878 -1.102,-20 3.75,-41.75 10.347,-63.239 15.622,-46.441 38.512,-98.203 51.25,-156.832 0.153,-0.711 1.524,-6.371 1.524,-6.371 l -13.793,1.832 c 0,0 -1.328,6.02 -1.481,6.84 -9.527,51.602 -36.058,105.16 -51.918,155.941 -8.082,23.079 -13.75,51.438 -10.82,73.118 2.039,15.312 17.391,35.39 20.238,35.711 z m 112.543,-0.122 C 752.34,770.621 743.359,751.48 742.73,736.48 c -0.582,-27.89 7.54,-51.441 15.668,-76.089 25,-75.903 37.114,-115.942 49.614,-176.84 l -13.282,5.711 c 0,0 -0.511,3.398 -0.781,4.367 -7.109,38.133 -7.539,34.812 -49.258,163.012 -9.769,30.781 -19.07,57.738 -17.269,83.359 0.43,14.609 13.168,43.52 26.598,45.82 l 8.171,0.078 z m 15.93,0 12.43,0 c 0,0 -6.84,-7.226 -8.832,-9.918 -21.641,-30.039 -15.391,-62.269 -4.61,-100.71 14.77,-52.848 42.153,-111.95 56.442,-192.5 0.277,-1.52 0,-9.29 0,-9.29 l -14.762,5.969 c -13.398,73.871 -46.449,150.43 -62.379,216.879 -9.379,39.024 -6.719,63.672 14.918,84.922 5.434,4.18 6.793,4.648 6.793,4.648 z m -151.242,-0.429 9.293,0 c 0,0 -15.512,-25.469 -15.512,-40.43 -2.57,-26.84 7.11,-56.449 18.289,-87.5 17.102,-47.738 39.762,-105.43 46.711,-135.82 0.281,-1.207 1.18,-6.641 1.18,-6.641 l -16.18,0.863 c 0,0 -0.82,7.34 -1.789,10.739 -18.672,65.308 -36.883,107.539 -58.32,167.191 -3.25,9.02 -8.442,44.719 -2.313,67.848 4.813,18.16 18.641,23.75 18.641,23.75 z m -24.809,-0.039 10,-0.27 c 0,0 -1.519,-2.738 -5.351,-9.262 -18.239,-33.046 -10.078,-63.199 1.25,-96.839 15.082,-44.84 38.75,-99.571 53.551,-151.399 0.82,-2.93 1.96,-11.719 1.96,-11.719 l -14.421,0.188 c 0,0 -2.93,10.551 -3.118,11.68 -8.132,48.05 -52.031,128.089 -63.48,189.031 -6.25,32.691 -0.859,52.93 19.609,68.59 z m 133.95,0 c 0,0 -15.79,-27.379 -17.231,-42.621 -2.809,-29.84 6.641,-54.61 17.5,-88.278 18.711,-58.16 45.082,-126.371 47.461,-157.582 0.078,-1.008 0.469,-4.801 0.469,-4.801 l -16.289,5.782 c 0,0 -0.7,3.242 -1.02,4.41 -14.18,56.41 -30.93,112.621 -53.43,175.98 -5.589,21.371 -12.859,42.852 -12.23,61.211 3.32,24.528 7.5,31.168 22.109,45.699 l 12.661,0.2 z m 71.519,-0.039 13.082,-0.27 c 0,0 -3.902,-2.109 -13.242,-12.07 -51.641,-47.192 32.152,-180.391 51.449,-301.723 0.231,-1.289 0.82,-5.859 0.82,-5.859 l -14.418,5.152 c -1.32,6.059 -2.378,13.399 -4.019,20 -15.66,62.039 -36.563,125.789 -55.742,183.641 -10.739,42.148 -14.688,79.258 4.652,100 6.051,7.187 17.418,11.129 17.418,11.129 z m -134.648,-0.082 13.91,-0.387 c -10.039,-12.621 -15.981,-32.301 -16.531,-49.801 -0.5,-20.711 5,-40.859 11.839,-62.152 13.981,-43.668 33.942,-91.129 47.661,-150.078 0.781,-3.911 1.402,-6.411 1.75,-8.121 0.589,-2.7 2.152,-7 2.152,-7 l -14.723,2.929 c 0,0 -1.527,3.832 -2.5,5.86 -1.488,3.011 -2.859,6.839 -4.07,11.453 -7.109,30.738 -33.359,100.508 -49.289,149.449 -12.699,30.82 -16.141,84.73 9.801,107.848 z M 846.91,784.77 c 17.82,0.66 33.949,-14.5 37.781,-28.719 3.668,-15.071 -1.062,-32.102 -17.66,-40.5 -26.953,-13.672 -55.941,22.609 -34.691,42.609 16.14,15.121 39.961,3.949 34.769,-15.461 -3.359,-12.621 -22.5,-13.398 -25.629,-0.668 -0.89,4.219 -3,8.481 -4.531,6.129 -9.918,-23.281 23.403,-34.18 37.231,-12.5 8.199,17.352 -7.418,39.692 -30.391,35.43 -31.519,-5.82 -35.117,-45.82 -22.07,-92.461 C 840,604.922 883.52,505.781 883.441,460.27 c 0,-0.579 0.149,-2.461 0.149,-2.461 l -13.82,4.14 c 0,0 -0.079,0.75 -0.2,1.41 -8.281,63.551 -55.511,168.789 -69.019,249.692 -5.903,36.871 8.469,63.668 40.82,70.969 1.828,0.429 3.707,0.671 5.539,0.75 z m -136.68,-0.59 c -9.718,-12.969 -16.05,-32.418 -16.359,-46.328 -0.281,-20.352 7.027,-40.192 13.078,-61.403 15.281,-52.347 50.942,-149.07 49.653,-167.148 0.347,-1.961 1.328,-7.973 1.328,-7.973 l -13.789,4.102 c 0,0 -0.551,0.859 -1.563,3.359 -4.609,17.973 -26.449,94.961 -50.937,161.563 -9.411,26.757 -13.981,47.617 -13.36,65.386 1.989,24.461 8.989,34.692 19.731,48.321 l 12.218,0.121 z m 262.5,-86.801 c -35.742,-2.027 -32.3,-45.578 -10.152,-52.969 7.891,-2.18 12.543,-0.308 13.832,1.41 1.399,1.95 -0.199,4.961 -5.39,5.739 -15,4.921 -20.399,22.582 -6.84,30 7.422,3.91 19.261,1.41 33.519,-9.18 25.501,-18.859 56.751,-20.039 52.691,-0.93 -1.01,4.602 -3.01,5.231 -21.68,7.77 -15.16,2.07 -21.99,6.871 -28.63,10.429 -10.389,5.622 -19.568,7.973 -27.35,7.731 z m -511.601,-40.5 c 92.351,-90.16 78.641,-231.449 -0.188,-302.188 -1.64,5.7 -5.082,19.688 -5.472,19.289 59.301,61.719 87.261,162.86 1.41,266.571 0.422,-0.391 1.91,7.461 4.25,16.328 z m 578.601,-2.391 c -0.9,-0.039 -1.64,-0.109 -2.35,-0.347 -23.9,-6.563 -28.86,-30.192 -13.36,-39.879 9.53,-5.981 16.84,-2.352 5,4.879 -10.15,6.168 -5.15,22.418 7.15,22.23 5.35,-0.082 9.03,-2.391 22.66,-12.461 11.25,-8.289 21.79,-8.949 24.22,2.301 1.44,6.68 -0.82,9.648 -7.97,7.891 -3.17,-0.782 -5,1.097 -9.3,4.058 -9.53,6.641 -19.96,11.449 -26.05,11.328 z M 451.602,636.801 c 83.238,-96.602 56.519,-197.313 0.386,-256.332 -15.386,45.472 -53.16,73.832 -53.16,73.832 14.223,31.558 22.731,64.527 -3.906,106.211 24.769,22.34 45.277,46.949 56.68,76.289 z M 992.27,601.52 c -3.911,0.082 -2.661,-3.668 6.558,-10.11 21.912,-14.93 23.792,-17.621 2.542,-17.269 -5.39,0.347 -13.831,-3.481 -18.6,-5.082 -27.77,-9.258 -29.098,-8.508 -42.379,-5.387 -4.411,1.019 -8.911,2.848 -10.86,1.098 -2.972,-2.739 -6.332,-4.54 -2.582,-8.598 2.781,-2.973 7.891,-5.231 14.102,-8.832 32.23,-18.43 35.16,-22.852 73.009,-23.86 4.34,-0.082 6.56,2.141 9.14,2.18 6.18,0.078 9.42,-1.441 15.67,-7.14 11.44,-10.43 11.99,-2.86 5.15,10.859 -3.55,7.18 -6.68,8.902 -4.92,14.332 3.99,12.5 -1.72,14.961 -9.14,3.91 -5.58,-8.641 -6.25,-8.441 -11.52,2.688 -6.99,13.871 -3.71,20.281 6.91,11.211 8.05,-6.829 10.12,-1.75 13.24,3.679 4.14,7.141 3.52,13.551 -3.86,12.961 -4.22,-0.308 -8.17,1.641 -11.49,5.281 -6.52,7.11 -19.02,16.008 -30.97,18.079 z m 9.1,-37.54 c 0.86,-0.031 1.48,-0.39 1.79,-1.281 0.04,-4.578 -3.08,-13.91 -5.66,-18.828 -0.82,-2.152 -2.23,-2.422 -4.219,-2.851 -6.64,-1.219 -7.07,0.82 -5.902,4.96 2.461,6.321 4.461,15.391 13.011,17.969 0.35,0.031 0.7,0.071 0.98,0.031 z m -16.882,-3.16 c 2.703,0.2 2.782,-0.898 1.723,-3.359 -1.91,-4.102 -5.313,-8.012 -7.813,-11.211 -5.308,-3.441 -13.988,7.07 -10.16,9.801 5.352,2.109 9.383,4.301 14.922,4.609 0.512,0.121 0.942,0.16 1.328,0.16 z m -596.09,-6.871 c 1.442,0 2.891,-0.277 4.411,-0.898 20.121,-27.192 18.75,-68.563 3.132,-91.449 -1.171,-1.723 -2.351,-2.032 -4.339,-1.372 -6.723,3.989 -15.274,5.469 -21.641,7.782 l 0,79.566 c 6.559,1.402 12.23,6.402 18.437,6.371 z m 530.661,-6.488 c -1.559,-0.039 -2.18,-1.09 -0.231,-3.121 29.332,-21.25 69.762,-45.86 107.032,-36.328 3.4,0.738 6.17,2.609 5.51,6.129 -0.39,2.23 -4.18,4.097 -8.28,3.007 -8.56,-2.226 -24.969,-2.539 -31.68,-1.449 -25.629,4.223 -48.289,20.59 -67.969,30.199 -1.453,1.09 -3.211,1.641 -4.382,1.563 z m -8.59,-20.27 c -1.328,0.079 -1.207,-1.25 -0.391,-3.711 4.141,-12.308 45.703,-40.98 78.512,-50.468 28.17,-8.133 68.64,-0.121 66.29,13.277 -1.21,6.949 -6.33,8.633 -24.33,6.371 -39.57,-7.699 -77.698,8.469 -106.601,26.481 -7.777,4.879 -11.801,7.968 -13.48,8.05 z M 651.211,510.352 c 17.309,0.238 34.449,-1.172 52.969,-4.262 36.09,-6.168 77.89,-17.34 113.281,-33.711 60.117,-22.578 135.66,-40 199.809,-37.609 15.66,-0.43 43.94,0.89 49.45,2.691 14.3,3.199 18.24,0.16 21.64,-17.582 0.62,-3.859 1.8,-4.957 6.76,-8.32 7.61,-5.149 6.33,-10.231 5.43,-21.598 -0.78,-9.531 5,-14.922 28.12,-57.66 26.37,-48.629 52.07,-105.153 52.07,-105.153 -230.97,0.192 -451.361,8.75 -687.689,1.403 21.25,50.398 79.219,141.289 115.539,214.219 -8.789,22.46 2.031,26.25 -2.5,31.609 -7.34,12.461 -2.07,29.961 13.48,33.902 10.86,1.25 21.25,1.949 31.641,2.071"
         inkscape:connector-curvature="0"
         id="path18"
         style="fill:#131f67;fill-opacity:1;fill-rule:nonzero;stroke:none" /><path
         d="m 495.738,226.988 c 0,0 75.711,153.012 107.582,198.871 45.899,58.161 253.008,-25.269 356.02,-46.129 41.83,-8.089 138.9,-4.3 138.9,-4.3 l 81.1,-146.168 -683.602,-2.274 z m -157.187,173.871 -3.199,476.371 23.707,-14.769 5.429,-478.512 -102.418,-98.09 -0.59,28.75 77.071,86.25 z m 62,54.34 c 24.41,49.141 -2.821,109.102 -2.821,109.063 14.149,-3.481 53.598,71.328 57.071,69.179 60.359,-74.031 70.82,-184.3 -2.891,-252.66 -18.629,47.539 -51.09,74.418 -51.359,74.418 z m 45.07,336.949 c 45.859,46.832 82.231,83.364 118.559,135.782 2.968,4.261 -193.481,253.79 -190.43,258.16 30.309,33.52 70.941,58.13 102.539,98.56 0,0 161.133,-210.9 164.84,-209.03 16.293,65.98 28.25,125.75 25.16,194.73 -9.961,176.49 -85.391,284.57 -85.98,282.42 C 554.801,1390.62 304.141,1145 254.801,1162.5 l -0.27,113.32 c 2.969,-5.66 158.789,100.23 199.879,240.23 2.93,10.08 123.871,48.75 123.012,50.24 -5.121,13.12 -58.012,87.97 -58.012,87.97 0,0 21.371,9.96 23.75,9.92 68.559,-85.27 120.281,-197.58 137.891,-304.53 21.371,-115.16 35.16,-331.72 -195.821,-568.201 l -39.609,0.699 z m 692.429,297.972 c -36.14,112.18 -35.16,228.32 -18.52,309.41 25.35,146.95 118.2,252.15 192.7,332.38 l 32.3,0 c 0,0 -38.63,-39.96 -52.69,-54.53 -24.11,-27.65 -59.07,-85.39 -59.07,-85.39 l 192.78,-251.95 109.88,23.75 c 0,0 -3.32,-112.74 0.08,-112.74 -85.39,-70.66 -146.76,-134.64 -190.82,-237.61 -26.99,-10 -116.49,-48.6 -116.49,-48.6 -42.58,10.43 126.6,275.67 94.42,280.16 -13.24,10.9 -159.96,208.87 -162.85,208.48 -67.62,-207.11 -1.65,-424.61 117.38,-576.492 -13.52,-8.789 -25.74,-15.578 -24.65,-13.508 -50.98,70.7 -95.62,155.11 -114.45,226.64 z m -352.152,103.83 c 7.653,-11.8 41.954,252.77 -48.199,464.53 8.59,6.48 82.922,20.7 82.922,20.7 l 20.039,-63.4 -50.738,-21.48 9.379,-29.73 c 39.371,19.1 124.648,47.31 177.109,134.45 0,0 254.88,2.19 260.31,1.72 5.27,-0.43 -51.99,-55.31 -106.33,-166.4 -24.8,-50.79 -44.53,-116.45 -48.63,-193.48 -0.82,-15.24 -58.32,71.56 -58.32,71.56 14.33,73.36 52.65,145.55 90.86,217.74 0,0 -58.64,3.36 -99.57,2.14 -63.679,-69.6 -103.601,-106.25 -199.609,-139.49 35,-112.15 249.179,-166.05 201.559,-155.82 -9.73,2.31 -22.071,-103.12 -11.76,-221.87 1.99,-94.96 53.09,-253.241 54.88,-251.999 0,0 -34.06,-7.652 -36.79,-2.18 5.74,1.36 -50.67,-12.929 -50.67,-12.929 l -20.192,59.019 54.612,25.117 -8.83,33.282 c -0.2,0 -120.469,-36.371 -179.379,-141.289 l -263.43,-0.313 c 101.598,110.231 143.039,219.262 165.109,363.442 21.532,-3.87 65.668,6.68 65.668,6.68 z m 647.852,951.71 c 33.13,27.7 99.61,99.89 99.61,99.89 l 0.86,-37 -75.43,-78.43 0.74,-484.42 -25.51,24.46 -0.27,475.5 z m -34.84,-177.3 c -13.6,-6.48 -40.67,-38.32 -53.6,-74.1 -87.38,78.08 -51.4,221.6 -3.55,251.48 13.86,-31.33 54.1,-72.89 53.16,-71.99 -9.26,-32.81 -16.33,-66.09 3.99,-105.39 z M 625,2293.55 l 674.14,-1.17 c -38.48,-75.74 -73.75,-136.91 -114.61,-211.44 -21.29,-25.67 -481.6,82.81 -483.792,72.03"
         inkscape:connector-curvature="0"
         id="path20"
         style="fill:#e2cf00;fill-opacity:1;fill-rule:nonzero;stroke:none" /><path
         d="m 1575.12,95.5117 0,22.2183 22.15,0 52.85,80.282 -54.77,126.679 -21.37,0 0,24.879 79.46,0 0,-24.879 -28.01,0 41.76,-98.793 27.81,39.614 -0.62,59.179 -19.54,0 0,24.879 72.54,0 0,-24.879 -25.93,0 1.28,-206.961 21.96,0 0,-22.2183 -68.87,0 0,22.2183 18.95,0 -1.84,97.309 -63.32,-97.309 22.42,0 0,-22.2183 -76.91,0 z M 1322.77,239.84 c -44.18,86.019 -100.89,164.031 -165.97,231.41 64.8,70.699 118.79,143.98 164.96,224.02 47.54,-79.649 99.76,-154.879 172.73,-227.61 -72.3,-71.18 -126.64,-148.832 -171.72,-227.82 z m -1062.149,83.558 -4.492,636.09 76.601,-74.449 4.571,-488.48 -76.68,-73.161 z M 1588.01,500.27 c 27.93,29.57 53.28,62.351 74.18,97.742 26.33,-38.953 54.26,-78.832 77.3,-98.711 -26.17,-29.852 -50.94,-64.422 -74.84,-100 -20.78,33.199 -43.36,66.679 -76.64,100.969 z M 612.23,446.68 c -15.859,-2.418 -6.878,12.269 -3.992,26.211 1.602,7.769 -5.898,15.078 -5.859,17.461 0.199,13.828 10.551,19.648 57.391,19.097 110.5,-7.648 167.652,-43.039 231.05,-59.488 60.7,-15.742 120.86,-15.43 187.85,-13.91 4.88,-2.813 22.85,-49.063 19.53,-53.672 C 946.68,352.5 753.281,463.75 612.23,446.68 z m 273.079,329.34 c -15.93,11.601 -30.93,13.71 -45.739,16.25 25.981,45.699 57.461,87.339 110.039,113.429 l 24.45,-60.5 C 943.121,829.301 912.77,810.352 885.309,776.02 z M 566.09,933.16 c 0,0 -22.649,-37.07 -44.059,-55.07 -63.633,85.308 -205.941,266.99 -205.941,266.99 l -60.391,-30.59 c 0,0 -0.23,35.16 1.141,37.62 163.082,84.06 275,242.89 324.25,391.64 0,0 26.25,-26.8 22.82,-38.13 -44.109,-117.34 -119.5,-235 -230.39,-323.24 L 566.09,933.16 z m 203.398,173.13 205.903,-0.31 9.14,-71.57 C 905.66,1007.97 840.621,954.02 779.77,891.602 l -97.661,1.679 c 32.032,70.16 76.52,141.329 87.379,213.009 z m 762.312,301.52 c 6.68,-20.19 -0.04,-41.95 2.5,-41.01 -246.6,-122 -317.07,-389.691 -317.07,-389.691 0,0 -23.44,37.071 -22.39,42.811 127.66,283.71 213.09,292.15 229.5,322.97 l -194.18,251.25 43.94,59.73 208.24,-270.98 c 20.71,9.53 32.5,17.54 49.46,24.92 z m -121.6,-367.03 c 41.83,75.2 84.96,118.91 127.92,148.99 l -2.07,-99.26 -125.85,-49.73 z m -1153.009,295.2 1.047,96.29 127.071,54.64 C 350.16,1410.35 302.5,1369.34 257.191,1335.98 z m 565.93,86.56 -7.5,67.73 c 77.109,33.64 145.238,78.64 200.239,140.2 59.1,2.85 99.45,-1.17 99.14,-0.35 0.12,0.11 -56.21,-82.46 -93.48,-212.5 l -198.399,4.92 z m 638.949,711.48 70.2,70.9 2.22,-632.93 -70.51,67.07 -1.91,494.96 z m -616.91,-515.39 -22.269,62.74 c 35.039,13.12 61.558,41.72 86.25,70.04 16.757,-14.96 38.359,-20.28 45.859,-23.13 10.27,-2.42 -71.02,-100 -109.84,-109.65 z m -542.969,433.4 c 75.188,73.36 124.02,150.7 171.25,227.66 41.399,-84.65 101.329,-158.71 165.618,-230.28 -66.25,-72.03 -116.559,-149.1 -164.879,-226.71 -47.5,81.79 -97.5,158.51 -171.989,229.33 z M 128.91,1925.59 c -21.68,34.61 -43.5194,67.93 -74.9608,101.32 30.6211,32.78 56.6408,65.28 74.1018,97.23 24.14,-35.08 47.027,-71.76 76.64,-99.8 -28.832,-31.72 -51.992,-65.32 -75.781,-98.75 z m 584.641,168.28 c 0,0 -8.75,5.08 -7.813,12.22 2.934,9.26 -9.328,30.2 -9.328,30.2 149.449,45.35 367.14,-82.27 496.32,-55.43 -1.05,-9.02 0.43,-19.77 -3.24,-28.28 4.06,-18.09 6.96,-18.67 -10.7,-29.69 -90.78,-25.7 -186.411,29.06 -275.079,55.23 -72.34,22.82 -131.09,17 -190.16,15.75 z m -666.9494,79.41 0,27.03 25.3476,0 0,203.21 -25.3476,0 0,23.47 70.3474,0 0,-23.47 -18.3592,0 1.7192,-97.7 63.832,97.7 -24.879,0 0.269,23.47 79.649,0 0,-23.47 -22.7,0 -50.859,-80.4 50.859,-122.81 22.7,0 0,-27.03 -79.61,0 0,25.31 29.84,0.51 -42.301,95.67 -28.5192,-39.26 0,-55.67 20.7892,0 0,-26.56"
         inkscape:connector-curvature="0"
         id="path22"
         style="fill:#d40000;fill-opacity:1;fill-rule:nonzero;stroke:none" /><path
         d="m 617.301,2302.46 27.308,-51.41 -4.73,-3.2 c 7.461,-12.38 13.75,-26.33 21.371,-38.59 l 5.469,0.62 c 8.98,-17.18 12.621,-23.55 24.332,-43.9 l -5.27,0.04 c 2.699,-9.07 9.731,-15.08 9.84,-21.57 0.078,-8.08 -1.992,-16.29 2.969,-21.75 5.898,-6.49 6.609,-8.29 5.39,-12.08 -3.242,-10.07 5.899,-21.24 15.2,-20.27 65.351,8.75 131.949,1.33 198.519,-18.79 47.852,-15.08 90.351,-31.99 130.581,-43.86 12.7,-3.79 38.32,-9.77 60.39,-11.41 61.21,-4.45 95.59,8.01 85.28,33.48 -0.83,2.03 -2.66,3.51 -2.82,4.57 -0.31,1.91 0,4.02 3.48,6.87 10.04,10.27 4.41,17.74 -1.72,29.06 0,0 78.63,140.47 117.89,210.43 l -693.479,1.76 z m 680.669,-12.62 -57.38,-99.02 c -30.67,5.55 -37.89,-20.27 -38.36,-23.87 -39.81,10.2 -33.71,-41.44 -13.71,-44.92 1.28,-7.5 -32.74,-16.83 -50.67,0.74 27.54,-3.71 37.31,32.78 3.63,40.86 44.38,33.01 -38.86,82.39 -39.88,14.14 -39.14,6.92 -34.06,-44.84 -9.22,-48.86 -12.69,-13.99 -50.04,-14.38 -69.57,15.11 33.21,-17.22 51.17,27.31 16.68,39.77 42.58,37.34 -40.818,71.76 -38.87,11.41 -31.401,18.63 -53.042,-28.87 -11.05,-36.14 -2.422,-8.55 -57.34,-8.63 -71.289,13.48 38.949,-8.91 40.739,38.55 6.367,42.38 34.493,43.79 -53.089,65.98 -38.398,6.21 -33.828,13.36 -46.602,-28.83 -13.672,-42.38 1.832,-6.72 -53.359,-12.42 -72.699,11.8 42.422,6.36 27.582,47.5 0.121,44.18 0,0 0.391,1.21 1.949,5.19 12.973,41.29 -56.789,44.73 -47.148,0.98 1.57,-4.02 3.289,-9.42 3.289,-9.42 -19.262,3.91 -31.02,-3.9 -29.61,-21.95 4.801,-23.94 17.461,-22.19 33.629,-17.42 6.801,-7.11 -39.058,-30.82 -67.847,-9.65 35.269,10.16 17.418,51.45 -12.114,45.9 -1.207,13.16 -15.546,31.68 -34.218,22.66 l -19.77,38.86 669.81,-0.04 z m 57.65,-550.27 -41.4,-0.62 c -29.1,-29.69 -239.77,-223.75 -204.3,-516.84 15.2,-125.35 50.2,-233.79 143.79,-361.911 l 25,14.641 3.83,-2.539 259.37,149.179 0.16,45.32 -301.09,-126.288 c -5.98,6.367 -9.5,13.437 -14.5,21.25 l 120.63,51.288 c 0,0 2.89,7.34 3.83,10.7 39.68,100.35 120.23,173.01 190.39,229.14 -0.35,98.79 -0.82,305.66 -0.82,305.66 l -181.41,180.63 c -23.24,-21.25 -43.87,-43.13 -64.53,-66.88 l 208.28,-274.14 -18.47,-11.99 -206.06,272.7 c 24.41,29.33 50.9,54.96 77.3,80.7 z m 185.04,-178.24 c 0,0 -1.01,470.66 -2.38,697.93 l -108.08,-110.9 0.42,-477.07 110.04,-109.96 z m -9.21,653.12 -76.37,-78.79 0.86,-484.92 -19.61,19.34 0,471.87 95.39,99.96 -0.27,-27.46 z m -743.169,11.68 c 2.27,-4.02 1.289,-9.61 -2.383,-14.18 -15.628,-19.37 33.442,-53.04 68.75,-47.18 26.832,4.45 49.762,20.58 39.883,32.85 -8.051,10 -2.812,20.11 6.879,20.08 9.918,-0.08 17.93,-8.01 9.289,-18.83 -19.179,-24.1 10.082,-52.35 54.77,-52.93 31.601,-0.43 42.111,7.38 40.431,29.88 -0.82,10.55 1.25,13.48 8.59,15.04 11.72,2.58 17.66,-10.86 7.93,-21.09 -20.97,-22.15 2.85,-54.69 42.54,-56.76 14.53,-0.78 17.38,0 33.59,9.14 12.66,7.15 17.15,17.93 10.94,26.33 -8.01,10.78 2.78,23.71 15.2,18.4 8.9,-3.83 13.28,-10.63 3.43,-22.19 -12.89,-15.16 -6.79,-27.7 18.09,-36.14 19.38,-6.56 32.77,-5.78 41.88,2.5 2.81,2.58 9.1,7.97 8.98,6.33 -6.09,-10.54 -11.48,-20.31 -11.48,-20.31 -40.59,-18.09 -72.27,15.78 -71.21,17.03 -41.8,-24.1 -78.87,-19.02 -110.2,21.49 -8.16,-4.5 -66.45,-15.12 -108.559,31.05 -42.461,-21.29 -81.949,-12.34 -117.031,11.48 -25.93,-24.49 -53.281,-28.35 -81.68,-16.6 l -8.39,16.92 c 2.101,0.82 11.281,-16.96 55.699,-8.67 14.922,2.77 40.621,27.85 26.25,40.07 -6.598,9.3 -6.797,13.52 -0.981,19.14 5.711,5.59 15.473,2.7 18.793,-2.85 z M 679.41,2203.95 c 2.469,-4.81 2.82,-12.82 0.078,-8.01 -1.437,2.54 -8.976,13.83 -8.629,14.18 3.52,0.27 6.993,-3.32 8.551,-6.17 z m 852.07,-3.87 0.51,-625.78 -65.04,64.49 -3.12,490.27 67.65,71.02 z m -753.121,-30.31 20.469,-12.89 -36.637,0.23 16.168,12.66 z m 115.121,-10.79 17.18,-16.68 -36.129,7.58 18.949,9.1 z m 322.11,-8.63 -7.66,-15.78 c -4.45,4.96 -5.74,15.47 7.66,15.78 z m 129.96,-260.15 c 13.04,29.29 30.5,66.6 58.79,78.47 -21.06,41.8 -18.32,83.6 -3.4,106.53 -21.33,19.88 -43.24,43.67 -56.84,77.89 -67.46,-59.54 -78.32,-181.88 1.45,-262.89 z m -2.03,251.44 4.64,-11.41 c -60.07,-73.51 -41.52,-170.03 2,-221.56 l -6.25,-12.97 c -53.17,56.1 -76.45,174.65 -0.39,245.94 z m -359.11,-41.56 c 69.61,-20.43 125.36,-52.27 205.82,-23.91 l 0.39,-15.66 c -51.21,-32.89 -153.28,1.87 -222.222,27.3 -110.777,40.9 -197.027,38.52 -258.628,33.83 -5.43,1.06 -9.77,15.24 -1.059,15.31 115.199,1.29 96.598,15.67 275.699,-36.87 z m 15.71,27.69 22.89,-24.25 c -17.19,5.39 -33.869,11.36 -49.42,18.82 l 26.53,5.43 z m 348.9,-5.97 4.5,-6.18 c 1.95,-2.69 -12.66,-4.06 -10.2,-0.93 l 5.7,7.11 z m -392.731,-44.38 c 83.091,-31.21 174.571,-62.34 234.611,-34.41 0,0 0.39,-11.88 -6.49,-15.28 0,0 -6.32,-5.11 -27.53,-8 -97.15,-7.97 -160.2,32.22 -238.642,56.01 -29.718,8.99 -77.539,19.92 -126.597,21.96 -29.141,1.32 -73.711,-2.86 -73.711,-2.86 -9.692,0.82 -9.571,6.53 -9.649,12.15 84.449,11.29 162.149,2.89 248.008,-29.57 z m 401.801,29.92 c 1.05,0.04 2.14,-0.04 3.24,-0.19 l 8.47,-10.86 -10.07,-16.02 c 0,0 -8.87,8.17 -13.4,16.21 -2.46,5.2 4.26,10.51 11.76,10.86 z m -244.85,-3.04 26.33,-19.89 c -19.77,-0.97 -42.03,-1.71 -64.1,7.04 l 37.77,12.85 z m 222.89,-10.12 c 2.07,0.04 4.26,-2.15 6.8,-6.48 4.88,-8.36 4.26,-9.97 -5.27,-13.05 -12.46,-3.99 -13.44,-3.13 -9.42,8.08 2.78,7.62 5.24,11.37 7.89,11.45 z m 39.96,-5.16 17.78,-14.92 c -9.81,-25.55 -16.25,-58.01 3.47,-104.57 -2.18,-0.15 -14.96,-12.73 -18.98,-14.92 -11.25,4.73 -36.06,97.03 -2.27,134.41 z m -20.23,-19.53 -4.53,-28.28 c -0.35,-2.3 -19.65,13.4 -17.85,21.25 3.43,9.34 15.19,7.34 22.38,7.03 z m -31.91,-9.92 c 2.34,-0.04 5.97,-5.66 10.5,-13.05 3.52,-5.78 2.78,-7.93 -5,-14.96 -11.44,-11.56 -13.67,-7.77 -11.13,11.92 1.25,9.72 2.97,16.09 5.63,16.09 z m 23.67,-25.62 c 1.56,-0.04 2.89,-0.4 3.9,-1.18 l 1.29,-27.54 c 0.12,-2.5 -21.48,0.98 -24.29,11.45 -3.6,6.72 10.7,17.46 19.1,17.27 z m -28.52,-23.29 c 1.52,0.24 6.37,-2.96 10.94,-5.7 7.97,-4.73 8.12,-6.8 1.29,-15.58 -8.05,-10.36 -12.03,-8.72 -13.28,9.29 -0.47,6.6 -0.94,11.72 1.05,11.99 z m 31.72,-10.5 c 0.66,0 1.29,-0.2 1.84,-0.67 3.82,-3.28 9.68,-30.86 7.22,-33.75 -3.51,-4.1 -21.95,1.37 -26.05,7.85 -3.95,6.18 10.23,26.57 16.99,26.57 z m -22.58,-32.5 c 2.11,0.15 5.94,-1.29 11.68,-4.11 3.48,-1.64 9.26,-4.8 10.55,-7.5 2.26,-4.68 -1.49,-11.67 -6.33,-17.5 -3.2,-3.86 -6.21,-0.97 -12.38,11.88 -5,10.35 -7.07,16.99 -3.52,17.23 z m 37.23,-12.35 c 0.43,0 0.82,-0.08 1.17,-0.27 6.25,-3.48 5.2,-13.83 -2.23,-21.45 -8.9,-9.18 -16.64,-2.26 -10.5,9.38 3.9,7.38 8.59,12.26 11.56,12.34 z m -518.2,-256.72 c -5.43,-0.27 -13.911,-5.19 -17.622,-9.92 -4.687,-6.01 -8.75,-5.23 -13.949,-4.8 -6.168,0.08 -15.539,-1.29 -28.238,-7.07 -7.231,-3.28 -10.512,-4.03 -21.051,-4.57 -6.922,-0.32 -13.789,-1.25 -15.359,-2.07 -1.52,-0.78 -6.481,-2.54 -10.973,-3.87 -9.219,-2.7 -5.937,-5.31 -0.668,-17.19 26.918,-69.02 46.211,-149.41 53.25,-214.92 7.891,-75.16 5.5,-166.25 -5,-235.86 -25.781,-0.16 -41.961,1.17 -69.109,0.7 -18.512,-150.47 -68.75,-269.961 -169.102,-377.418 l 271.332,-0.704 c 31.098,82.93 172.969,146.172 177.617,141.481 l 7.502,-30.231 c 0,0 -102.072,-14.609 -170.779,-144.097 7.027,4.25 32.609,1.328 49.488,-16.25 33.75,42.808 89.141,70.777 89.493,70.109 l 1.878,5.16 c 0,0 10.11,3.481 19.059,5.16 2.852,0.54 8.711,1.641 12.621,3 6.01,2.11 9.02,4.34 18.32,3.559 19.33,-1.84 38.75,3.75 38.36,3.871 -57.62,158.86 -71.219,302.26 -48.72,468.82 21.22,-0.15 67.74,-0.97 67.74,-0.97 4.69,46.79 10.62,93.63 25,137.85 18.44,56.72 40.7,109.45 76.52,157.69 20.28,30.28 37.93,51.84 58.87,80.2 l -265.629,-0.59 c -35.152,-59.1 -102.891,-108.43 -157.301,-128.98 -18.55,-6.95 -21.172,-5.94 -24.218,2.77 -5.512,15.55 -5.231,14.93 9.257,19.03 4.84,1.4 20.313,9.53 44.493,20.86 51.289,26.05 86.527,73.67 107.269,105.86 8.238,12.69 2.688,9.84 -11.41,9.96 -12.891,1.01 -18.789,5 -30.43,15.82 -4.261,3.98 -6.09,6.83 -8.051,6.6 -15.152,-21.76 -40.621,-50.51 -60.46,-58.99 z m 62.339,50.28 c 11.911,-12.78 26.09,-20.24 44.731,-22.7 -29.809,-46.76 -66.18,-83.32 -108.012,-105.55 l -21.289,59.85 c 52.152,24.26 66.09,48.55 84.57,68.4 z m 432.931,-19.03 c -280.9,-259.68 -264.38,-587.11 -67.66,-853.039 l -20.62,-12.422 c -184.77,247.571 -218.21,613.821 64.1,866.561 l 24.18,-1.1 z m -177.11,-31.68 68.87,0.16 -46.88,-60.78 -62.89,0.23 40.9,60.39 z m -10.78,-0.5 -38.28,-60.36 -103.32,-1.36 c -61.8,-76.17 -128.21,-113.36 -195.82,-138.75 l -13.171,65.08 c 0,0 106.992,25.82 176.332,136.21 l 174.259,-0.82 z m -104.96,-5 -23.95,-26.49 24.85,-25.27 22.73,25.66 -23.63,26.1 z m 54.22,0.62 -24.26,-25.19 18.9,-25.39 25.16,24.64 -19.8,25.94 z m -119.609,-4.57 -4.141,-39.69 31.21,-10.23 4.57,33.91 -31.639,16.01 z m 189.799,-1.48 -22.65,-35.39 34.1,-0.55 23.86,35.23 -35.31,0.71 z m -356.44,-9.07 22.11,-61.25 -19.418,-9.33 -19.692,63.94 17,6.64 z m -26.18,-9.8 22.821,-63.4 -19.102,-6.29 -20.937,65.98 17.218,3.71 z m 27.309,-250.2 c 2.539,-88.12 3.832,-141.25 -10.898,-218.71 -0.782,-4.06 -16.602,-0.47 -16.602,-0.47 1.992,-0.66 8.91,87.54 8.359,142.93 -1.058,105.51 -18.949,209.89 -60.347,314.46 7.89,4.84 27.379,7.3 27.379,7.3 26.129,-79.29 49.3,-164.61 52.109,-245.51 z M 543.012,1662.5 C 633.672,1542.19 698.52,1378.95 687.66,1217.89 677.27,1030.62 606.25,922.699 481.559,793.012 L 449.41,792.27 c 147.578,141.519 212.891,262.65 218.051,422.46 5.937,183.79 -50.191,306.01 -144.731,436.29 l 20.282,11.48 z m -290.082,-165.39 0.308,-43.83 308.953,132.5 -44.531,65.67 -264.73,-154.34 z m 724.101,143.55 -33.633,-1.71 1.133,-33.95 35.078,0.86 -2.578,34.8 z m 299.809,6.45 200.23,-262.54 -49.53,-36.8 -190.9,246.72 40.2,52.62 z m -156.92,-17.93 59.92,-0.94 -23.16,-38.44 -57.93,0.47 21.17,38.91 z m -11.05,-0.94 c -27.58,-51.25 -65.59,-109.69 -86.92,-204.14 l -197.302,-0.15 c -0.347,21.56 -3.128,43.12 -6.367,64.68 85.039,31.1 150.86,77.62 199.299,139.1 l 91.29,0.51 z m 36.48,-2.73 -25.74,-14.81 15.74,-18.08 28.32,10.86 -18.32,22.03 z m -234.838,-18.87 -8.481,-33.44 31.949,-12.3 5.899,39.72 -29.367,6.02 z m 183.938,-25 57.5,-0.31 -24.18,-48.36 -56.99,0.86 23.67,47.81 z m 136.92,6.33 189.45,-245.59 -17.77,-14.02 -185.16,240.04 13.48,19.57 z m -115.08,-10.2 -25.9,-21.6 19.49,-22.5 23.91,19.06 c 0.51,0.39 -17.5,25.04 -17.5,25.04 z m -251.45,-1.79 -7.961,-32.5 33.242,-8.87 5.93,34.88 -31.211,6.49 z m -46.012,-21.6 -6.758,-32.04 31.328,-8.43 6.602,30.82 -31.172,9.65 z m -258.558,3.2 c 1.609,0.31 -5.231,-38.13 -15.309,-45.04 -4.801,-3.32 -7.301,-2.58 -11.481,1.91 -2.859,3.13 -15.902,24.38 -15.902,24.38 l 11.133,5.58 c 13.519,-21.6 13.519,-11.13 18.59,7.27 l 12.969,5.9 z m -51.911,-22.15 c 4.411,0.04 9.731,-5.43 15.782,-16.05 8.75,-15.36 8.437,-16.37 -5.903,-20.79 -25.859,-6.83 -35.429,-8.47 -27.5,8.6 8.563,18.32 11.961,28.2 17.621,28.24 z m 76.871,3.05 17.7,-30.28 C 532.031,1327.73 417.699,1198.24 260.309,1119.88 l -0.348,30 c 185.551,105.63 261.641,230.39 325.269,388.6 z m 482,-13.05 55.82,-1.02 -14.93,-42.65 -59.29,0.43 18.4,43.24 z m -575.628,1.87 c -45.43,-108.24 -107.5,-202.65 -231.563,-282.38 l -0.508,28.75 c 139.34,83.99 199.571,241.25 199.571,241.33 l 32.5,12.3 z m 705.238,0.16 c 33.04,-0.9 67.77,-36.91 64.25,-66.6 -2.5,-20.9 1.53,-36.45 7.23,-27.85 12.58,18.9 49.65,6.33 49.34,-16.41 -0.2,-12.07 -8.28,-14.06 -12.89,-3.16 -6.88,16.13 -26.14,16.52 -28.95,-0.39 -2.7,-15.82 10.74,-27.46 46.68,-40.47 42.07,-9.85 67.38,-47.58 52.42,-69.26 -5.19,-5.74 -8.32,-7.15 -9.3,-4.18 -0.27,0.86 -1.32,5.35 -2.26,9.92 -4.77,22.74 -15.66,32.31 -28.91,24.49 -6.64,-3.9 -5.78,-9.1 -1.91,-15.93 5.16,-9.1 1.91,-12.62 -7.31,-7.97 -14.57,7.3 -19.37,24.65 -5.27,32.62 16.8,6.71 11.13,8.16 -10.31,15.43 -45.67,15.58 -65.27,44.21 -67.66,98.75 0.86,24.84 -2.54,33.71 -14.22,37.1 -10.7,3.09 -22.81,-10.5 -15.15,-17.65 4.18,-3.91 7.58,-7.42 5.39,-9.57 -7.11,-6.92 -24.85,4.29 -24.69,16.29 0.12,7.85 3.09,9.45 14.84,18.67 3.25,2.58 0.47,7.38 -4.29,7.46 -17.97,-5.78 -16.68,17.97 -7.03,18.71 z m -103.44,-6.29 -27.89,-16.01 14.53,-20.32 30.86,14.54 -17.5,21.79 z m -542.74,-15.74 c 3.211,0 5.82,-2.58 5.82,-5.78 0,-3.2 -2.609,-5.82 -5.82,-5.82 -3.199,0 -5.781,2.62 -5.781,5.82 0,3.2 2.582,5.78 5.781,5.78 z m 57.192,-2.5 c 58.867,-128.48 72.847,-275.43 31.918,-422.27 l -158.989,206.88 c 60.981,68.67 101.989,147.26 127.071,215.39 z m -215,-9.45 -141.872,-59.61 -0.781,-106.37 c 79.25,54.1 112.852,109.49 142.653,165.98 z m 136.328,0.9 c 13.98,0.42 7.109,-37.31 -11.059,-50.2 -6.641,-5.12 -11.133,-4.45 -13.351,5.74 -1.141,5.31 -6.719,16.53 -13.75,25.55 -8.168,10.51 -8.09,10.78 3.859,11.52 13.211,-0.19 24.031,6.13 34.301,7.39 z m -13.789,-16.06 c -10.313,0.16 -13.403,-4.65 -7.27,-11.25 5.16,-5.59 9.258,-4.37 12.738,3.67 2.11,4.88 0.231,7.5 -5.468,7.58 z m -255.903,-137.97 0.352,90.27 121.332,51.1 C 356.84,1428.98 311.801,1376.68 259.488,1340.35 z m 1077.782,-72.93 -16.18,-16.25 -156.6,204.18 9.81,25.74 162.97,-213.67 z m -858.36,206.53 c 5.27,-0.08 17.18,-18.29 20.5,-31.37 2.5,-9.69 -0.109,-11.76 -18.512,-14.49 -7.617,-2.07 -28.199,-0.04 -26.519,5.43 2.961,7.89 22.691,40.43 24.531,40.43 z m 567.42,-2.11 57.15,-0.59 -13.09,-46.91 -59.88,0.89 15.82,46.61 z m 25.23,-2.86 -26.6,-18.39 21.06,-20.75 28.16,17.43 -22.62,21.71 z m 89.65,-20.15 158.44,-205.63 c -47.27,-60.11 -94.42,-129.18 -125.39,-220.47 -56.41,131.92 -77.07,260.36 -33.05,426.1 z m -643.48,-17.5 c 3.211,0 5.86,-2.58 5.86,-5.78 0,-3.21 -2.649,-5.82 -5.86,-5.82 -3.199,0 -5.781,2.61 -5.781,5.82 0,3.2 2.582,5.78 5.781,5.78 z m -18.199,-7.85 c 9.879,-0.71 0.547,-32.19 -14.332,-43.68 -11.758,-9.06 -16.801,-4.84 -19.5,11.72 -0.969,5.98 -7.301,16.18 -12.808,24.18 -6.211,8.99 -3.672,10.43 12.031,6.8 10.937,-2.11 24.488,0.47 34.609,0.98 z m 529.489,-7.7 59.93,-0.35 -9.22,-71.17 -50.71,71.52 z m -583.821,-3.28 c 9.449,-8.79 21.36,-39.69 15.231,-41.91 -7.11,-2.58 -39.34,1.17 -42.93,4.88 -2.5,2.54 -2.5,2.54 2.77,9.61 2.89,3.87 8.441,11.6 12.308,17.19 3.473,4.06 7.301,15.11 12.621,10.23 z m 33.352,-1.05 c -9.141,-0.32 -9.723,-1.57 -5.391,-11.41 3.52,-8.01 5.981,-8.71 12.039,-3.48 8.43,7.35 4.879,15.28 -6.648,14.89 z m 1051.759,-6.18 2.15,-35.11 C 1302.15,1255.9 1215.86,986.172 1214.65,986.172 l -16.72,31.128 c 105.66,260.43 246.25,335.86 332.38,387.97 z M 444.922,1363.75 c 13.707,0.27 17.738,1.21 17.656,-3.87 0.152,-13.67 -12.617,-33.04 -28.238,-40.39 -10.512,-4.92 -10.75,-5.04 -11.918,7.35 -0.902,9.53 -4.024,21.79 -8.942,31.56 -1.57,3.59 -7.5,11.91 -0.039,9.53 7.5,-2.34 22.93,-4.34 31.481,-4.18 z m 30.777,3.16 c 3.211,0 5.781,-2.57 5.781,-5.78 0,-3.2 -2.57,-5.78 -5.781,-5.78 -3.199,0 -5.777,2.58 -5.777,5.78 0,3.21 2.578,5.78 5.777,5.78 z m -73.398,-7.96 c 2.5,0.03 4.847,-5.04 7.699,-12.58 6.129,-16.33 8.012,-25.2 6.211,-29.03 -2.813,-5.93 -40.621,-2.11 -47.031,4.54 -1.25,-0.94 27.808,33.74 33.121,37.07 z m 27.23,-4.07 c -5.429,-0.39 -2.543,-3.63 1.449,-13.08 2.809,-6.57 6.559,-7.62 10.86,-3.01 5.781,6.13 6.519,11.01 2.89,13.63 -5.32,2.11 -9.261,2.42 -15.199,2.46 z m 1102.379,-35.5 0.2,-11.76 c -8.95,2.65 -14.49,6.48 -24.73,9.88 -6.29,2.11 -10,3.59 -4.45,10.2 8.67,10.35 17.97,16.79 28.55,23.2 l 0.08,-13.32 c -16.91,-7.46 -15.27,-14.38 0.35,-18.2 z m -665.82,11.95 63.64,0 0,-42.03 49.801,0 -3.871,-47.89 -45.93,0 0,-42 -63.64,0 0,42 -45.43,0 3.68,47.89 41.75,0 0,42.03 z m 143.75,-0.16 c -32.219,-159.69 -2.69,-329.18 47.04,-467.299 l -25.08,-2.781 c -38.749,110.469 -69.57,267.7 -38.249,470 0,0 11.249,0.2 16.289,0.08 z m 472.31,-3.08 c 3.2,0 5.82,-2.62 5.82,-5.82 0,-3.21 -2.62,-5.79 -5.82,-5.79 -3.2,0 -5.78,2.58 -5.78,5.79 0,3.2 2.58,5.82 5.78,5.82 z m -1119.451,-13.4 c 2.102,0.04 8.551,-2.74 14.289,-4.34 8.672,-2.42 15.473,-3.44 23.364,-3.59 15.777,-0.31 17.847,-0.16 11.058,-13.17 -4.89,-9.37 -15.941,-21.75 -23.68,-25.5 -10.929,-5.86 -15.109,-5.08 -14.449,5.7 0.078,7.3 -3.121,20 -7.23,29.02 -3.199,7.03 -6.871,11.76 -3.352,11.88 z m 66.91,-5.16 c 3.2,0 5.821,-2.58 5.821,-5.78 0,-3.2 -2.621,-5.82 -5.821,-5.82 -3.199,0 -5.781,2.62 -5.781,5.82 0,3.2 2.582,5.78 5.781,5.78 z m 1070.741,0.78 c 4.49,0.08 12.19,-2.65 19.18,-6.05 18.59,-9.06 18.13,-11.14 -7.11,-29.03 -18.28,-13.86 -22.62,-15.43 -23.28,6.45 -0.66,18.48 1.33,28.44 11.21,28.63 z m -1147.19,-5.27 c 7.391,-0.12 15.551,-38.56 8.91,-41.99 -10.351,-5.35 -42.34,5.07 -42.23,13.83 0.039,2.85 30.039,28.2 33.32,28.16 z m 1124.93,1.56 c 4.41,0.2 5,-3.28 4.61,-15.51 -0.2,-6.48 0.89,-17.07 1.36,-22.03 0.94,-10.23 0.04,-10.94 -8.04,-6.36 -5.2,2.92 -15.71,7.73 -27.11,8.75 -9.34,0.78 -10,4.64 -7.11,10.78 8.24,13.63 23.16,23.2 36.29,24.37 z m -1097.539,-5.78 c -6.449,0.04 -4.852,-3.4 -0.821,-13.01 2.809,-6.83 7.731,-7.5 12.77,-1.68 7.07,8.17 5.66,12.46 -4.609,14.03 -2.153,0.31 -5.86,0.66 -7.34,0.66 z m 1089.019,-9.14 c -2.69,-0.27 -6.33,-2.38 -8.12,-3.52 -6.06,-3.82 -8.52,-6.56 0.27,-9.57 7.85,-2.65 11.99,-3.82 11.37,2.93 -0.39,4.03 -0.04,9.93 -3.52,10.16 z m -597.3,-5 0,-41.88 50.66,0 0,41.88 -50.66,0 z m 552.03,-3.63 c 3.24,0 5.82,-2.58 5.82,-5.78 0,-3.21 -2.58,-5.79 -5.82,-5.79 -3.21,0 -5.78,2.58 -5.78,5.79 0,3.2 2.57,5.78 5.78,5.78 z m -948.359,-6.53 159.84,-205.11 -10.621,-26.76 -164.609,216.56 15.39,15.31 z m 1056.989,0.98 0.35,-26.84 c -18.05,-13.2 -132.69,-96.28 -192.03,-236.13 l -31.05,-13.24 c 43.71,120.39 137.22,223.48 222.73,276.21 z M 317.109,1266.13 c 10.43,-3.16 20.352,-10.39 30.161,-11.68 11.281,-1.4 15.191,-0.66 12.14,-6.52 -6.871,-13.05 -19.762,-26.72 -33.39,-31.17 -9.77,-3.21 -14.379,-1.99 -12.86,4.06 2.891,11.33 3.36,20.63 3.012,30.94 1.527,5.62 -3.281,13.51 0.937,14.37 z m -12.187,-2.38 c 6.637,-5.66 5.308,-41.52 -2.113,-49.26 -3.86,-4.02 -15.079,-0.35 -31.911,9.22 -11.019,6.21 -13.046,10.04 -7.578,13.87 9.34,5.62 36.602,27.5 41.602,26.17 z m 1141.838,-0.78 c 3.44,0.08 7.69,-0.51 12.85,-1.68 19.92,-4.49 24.37,-9.02 7.38,-22.54 -6.29,-4.96 -12.93,-11.17 -14.88,-13.55 -9.14,-11.22 -15.47,-3.09 -17.5,17.26 -1.37,14.26 0.78,22.34 12.15,20.51 z m -24.96,-1.92 c 3.24,0 5.31,-1.71 5.27,-5.74 -0.08,-5.11 3.59,-27.38 5.66,-33.51 3.6,-10.39 0.98,-12.78 -7.65,-8.21 -6.29,3.36 -22.93,5.94 -31.92,5.24 -10.27,-0.78 -9.96,1.95 -6.95,10.55 5.31,15.23 25.9,31.64 35.59,31.67 z m -1094.96,-7.42 c -3.871,0 -4.031,-5.23 -1.371,-17.26 0.82,-3.83 4.14,-3.6 10.351,0.78 7.34,5.15 7.032,8.4 -1.25,13.36 -3.398,2.03 -5.941,3.12 -7.73,3.12 z m 45.308,-1.33 c 3.204,0 5.782,-2.57 5.782,-5.78 0,-3.2 -2.578,-5.78 -5.782,-5.78 -3.199,0 -5.777,2.58 -5.777,5.78 0,3.21 2.578,5.78 5.777,5.78 z m 1030.742,-22.5 c 2.77,-2.73 13.05,-2.61 14.81,-0.97 2.73,2.5 1.48,14.14 -0.79,15.55 -5.82,1.95 -17.5,-10.28 -14.02,-14.58 z m -959.261,-22.14 c 3.48,-16.57 26.801,-15.63 24.141,1.64 -1.52,10.08 -1.872,9.88 3.21,9.65 24.059,-1.18 19.879,-39.11 -7.859,-36.18 -5.781,-0.7 -6.562,-3.08 -1.672,-5.11 4.879,-2 23.512,-6.8 26.403,-6.8 30.16,0.12 73.668,-46.29 72.617,-87.46 -0.699,-26.92 8.441,-46.29 17.769,-48.48 7.422,-1.76 18.172,5 17.274,13.24 -1.293,11.37 7.929,7.82 13.277,-0.35 8.121,-11.29 -2.379,-27.58 -21.719,-26.29 -8.242,-1.6 6.051,-6.83 16.641,-9.88 9.609,-0.55 1.488,-12.378 -0.313,-14.492 -5.429,-6.289 -23.199,-1.488 -37.148,9.762 -17.109,13.83 -24.449,32.35 -26.48,68.75 -1.29,23.36 -3.051,28.13 -9.848,18.48 -12.223,-21.52 -41.524,-10.98 -45.192,11.76 -2.031,12.03 8.551,20.7 11.989,9.8 9.062,-22.69 31.293,-17.22 27.691,5.28 -2.379,14.84 -17.262,23.04 -46.601,31.32 -35.309,9.93 -45.821,22.04 -52.688,50.98 -3.051,12.81 -2.543,19.49 4.219,26.21 3.359,3.32 7.609,6.68 7.609,6.68 0,0 4.692,-19.49 6.68,-28.51 z m 923.281,18.39 c 3.21,0 5.79,-2.57 5.79,-5.78 0,-3.24 -2.58,-5.82 -5.79,-5.82 -3.2,0 -5.78,2.58 -5.78,5.82 0,3.21 2.58,5.78 5.78,5.78 z m -1107.851,-5.5 c 10.511,-3.83 19.531,-9.46 30.351,-13.13 7.039,-2.38 5.121,-8.04 -2.14,-16.01 -8.129,-9.61 -16.141,-14.3 -27.391,-19.65 l 0.121,16.21 c 13.711,4.76 22.379,16.17 -0.59,19.8 l -0.351,12.78 z m 1135.201,-9.07 c 3.98,-0.03 9.61,-0.15 16.25,-1.52 16.72,-3.48 18.71,-4.96 8.63,-16.72 -3.71,-4.37 -9.3,-10.94 -12.3,-14.65 -9.93,-13.79 -15.24,-9.06 -19.85,8.75 -5.74,18.64 -7.03,25.78 7.27,24.14 z m -1082.701,-6.64 c 3.211,0 5.781,-2.57 5.781,-5.78 0,-3.2 -2.57,-5.78 -5.781,-5.78 -3.2,0 -5.778,2.58 -5.778,5.78 0,3.21 2.578,5.78 5.778,5.78 z m 1065.821,-12.61 c 1.6,-5.86 4.03,-13.36 5.86,-18.68 9.1,-20.03 3.36,-12.26 -12.93,-10.5 -10.97,1.17 -28.4,-0.63 -32.69,2.38 -1.88,2.42 -0.16,8.87 3.36,16.13 4.96,10.24 13.94,18.95 20.62,22.89 16.99,7.85 13.05,-2.11 15.78,-12.22 z m -978.509,7.15 182.539,-241.368 -14.301,-20.434 -187.769,248.202 19.531,13.6 z m 1144.059,-0.9 c -94.88,-68.6 -131.33,-151.8 -138.71,-162.7 l 139.1,53.67 -0.39,109.03 z m -181.17,-7.86 c -5.2,-1.44 -12.66,-11.09 -9.46,-14.88 1.92,-1.99 9.58,-2.22 13.25,-0.9 5.66,2.07 1.79,15.78 -3.79,15.78 z m -799.998,-261.05 -38.91,-48.98 -202.622,262.07 51.141,36.91 190.391,-250 z m 971.048,254.73 1.45,-90.08 -118.99,-49.61 c 39.85,67.3 78.87,108.91 117.54,139.69 z m -813.669,-7.66 47.66,-62.03 -58.25,1.33 10.59,60.7 z m 602.659,-5.08 c 3.2,0 5.82,-2.58 5.82,-5.78 0,-3.2 -2.62,-5.78 -5.82,-5.78 -3.21,0 -5.78,2.58 -5.78,5.78 0,3.2 2.57,5.78 5.78,5.78 z m 34.96,-14.65 c 21.79,-0.31 29.06,-1.48 22.73,-12.22 -8.47,-10.43 -13.47,-20.39 -22.69,-30.04 -5.32,-5.43 -12,5.74 -17.54,23.63 -4.49,14.45 -2.23,18.09 6.29,18.2 8.55,0.12 10,0.43 11.21,0.43 z m -25.2,-19.57 c 1.8,-5.7 5.94,-15.07 9.26,-20.78 3.32,-5.74 7.03,-12.11 6.8,-13.2 -0.55,-2.7 -3.09,-2.89 -8.83,-0.74 -12.42,5.58 -41.6,-0.32 -42.38,2.42 -4.34,6.21 2.14,23.05 14.41,34.73 5.98,5.7 11.48,9.37 14.65,9.45 3.16,0.04 3.75,-4.34 6.09,-11.88 z M 313.238,1141.8 519.41,874.059 505.16,856.68 296.68,1129.61 c 0,0 -32.93,-16.13 -42.621,-21.52 l 1.332,-138.481 -5.661,0.27 0.86,-701.359 115.031,114.679 -1.48,475.942 C 388.52,836.172 409.41,811.68 437.34,789.18 l 47.859,0.351 C 610.078,916.559 678.52,1025.27 693.52,1219.96 703.551,1350.2 660.27,1513.98 545.512,1672.7 l -28.012,-17.04 55.352,-83.43 -117.262,-52 c -46.719,-98.47 -102.11,-189.37 -203.399,-241.4 l -0.589,-127.5 -1.762,-2.62 1.332,-40.04 62.066,33.13 z m 1007.972,-9.14 c -5.47,-0.43 -14.02,-12.23 -10.12,-16.25 4.65,-2.19 11.76,-2.07 14.73,1.91 2.07,3.87 1.52,12.07 -4.61,14.34 z m -614.999,-27.58 60.551,-0.35 -15.821,-51.96 -58.953,1.14 14.223,51.17 z m 575.159,0.23 c 3.2,0 5.78,-2.58 5.78,-5.78 0,-3.24 -2.58,-5.82 -5.78,-5.82 -3.21,0 -5.78,2.58 -5.78,5.82 0,3.2 2.57,5.78 5.78,5.78 z m -308.44,-1.6 7.808,-67.42 C 914.691,1012.27 843.48,971.52 781.211,896.641 c -10.621,0.699 -95.551,-0.743 -95.551,-0.743 2.11,-0.308 78.68,144.142 87.5,206.872 l 199.77,0.94 z m -239.809,-6.29 -27.769,-19.06 21.679,-23.13 28.75,19.46 -22.66,22.73 z m 577.819,-0.27 c 5.9,0.04 13.83,-0.67 20.15,-1.8 10.24,-1.99 11.76,-2.19 8.32,-10.62 -4.61,-11.21 -15,-31.41 -17.61,-33.01 -9.38,-5.82 -30.24,35.86 -23.13,43.05 1.88,1.48 5.86,2.34 12.27,2.38 z m -26.56,-12.81 c 2.69,0.23 6.28,-4.96 7.34,-9.46 1.29,-5.47 10.74,-19.22 16.68,-25.82 7.5,-8.28 7.11,-9.45 -3.63,-10.31 -12.78,-1.02 -25.24,-3.55 -32.43,-6.13 -11.17,-4.07 -12.69,-3.17 -11.25,9.88 2.15,19.61 15.28,41.13 23.29,41.84 z m -9.77,-40.59 c 1.41,-3.79 18.67,3.16 19.65,7.73 -0.16,2.07 -6.96,13.87 -11.02,14.42 -6.95,-1.06 -9.84,-16.76 -8.63,-22.15 z m -584.258,2.66 57.226,-0.55 -18.75,-47.149 -56.558,0.16 18.082,47.539 z m 25.628,-6.29 -27.429,-17.35 21.371,-20.66 26.25,18.09 -20.192,19.92 z m 581.95,-8.56 c 4.84,0.04 10,-0.43 11.09,-2.22 3.01,-5 -9.37,-32.969 -9.37,-32.969 l -20.16,-8.012 c -4.33,8.942 -11.76,18.201 -13.55,27.891 -0.71,4.22 1.44,5.78 6.09,8.4 6.95,3.9 17.81,6.83 25.9,6.91 z m -54.02,-2.3 c 3.2,0 5.78,-2.58 5.78,-5.78 0,-3.21 -2.58,-5.78 -5.78,-5.78 -3.21,0 -5.79,2.57 -5.79,5.78 0,3.2 2.58,5.78 5.79,5.78 z m -260.98,-0.78 c 0,0 12.379,-69.89 13.05,-62.191 C 900.551,930.352 844.73,877.301 818.281,825.59 l -179.062,0.109 39.961,62 105.98,0.539 C 836.41,950.43 899.609,1000 982.93,1028.48 z M 960,1012.03 951.172,983.789 977.93,966.719 988.012,997.031 960,1012.03 z m 293.32,-0.55 c 2.27,0.2 4.53,-3.63 9.14,-11.789 3.4,-6.019 7.85,-14.812 7.85,-14.812 l -8.01,-2.969 c -6.44,22.07 -12.38,13.871 -13.08,-5.621 l -10.94,-4.379 c 0,0 1.17,18.789 7.42,29.73 3.64,6.33 5.63,9.65 7.62,9.84 z m -583.629,-19.332 55.469,-0.668 -23.211,-48.082 -56.398,1.524 24.14,47.226 z m 242.028,-3.828 -4.418,-35.699 29.89,-6.332 4.098,33.91 -29.57,8.121 z m -218.438,-0.429 -27.422,-17.731 17.969,-23.68 26.402,17.739 -16.949,23.672 z m 175.547,-31.25 -5.668,-32.852 28.051,-6.367 6.367,33.047 -28.75,6.172 z M 259.57,954.73 329.73,885.16 333.59,399.961 263.828,330 259.57,954.73 z m 381.758,-17.781 c -0.277,-0.39 55.942,-1.597 55.942,-1.597 l -22.5,-40.622 -19.219,0.86 25.308,17.262 -16.211,20.738 -26.019,-16.949 14.492,-20.981 -37.961,0.82 26.168,40.469 z m 361.912,-12.027 19.06,-62.934 -22.921,-3.976 -17.188,59.218 c 6.989,3.629 14.02,5.43 21.049,7.692 z m -180.002,-3.902 0.391,-37.782 30.59,-2.578 1.172,35.391 -32.153,4.969 z m 152.032,-6.059 17.429,-59.801 -14.539,-4.14 -20.82,56.789 c 5.711,3.363 11.64,5.82 17.93,7.152 z m -26.52,-12.34 22.379,-58.562 c -30.93,-12.539 -63.039,-39.411 -87.18,-66.207 -17.898,13.168 -28.437,14.527 -39.5,17.539 30.473,56.718 66.449,86.519 104.301,107.23 z m -338.09,-14.691 58.871,-1.758 -40.941,-61.133 -66.559,0.082 48.629,62.809 z m 175.199,-2.27 -3.828,-35.738 31.52,-18.633 4.769,36.723 -32.461,17.648 z m -37.968,-5 -22.379,-23.672 23.789,-27.148 21.789,28.32 -23.199,22.5 z m -50.082,-1.25 -26.598,-24.41 21.168,-27.621 24.34,27.781 -18.91,24.25 z m -338.981,-22.769 2.621,-473.981 -97.738,-94.73 -0.742,25.468 77.691,81.172 c 0.121,160.309 -0.39,320.66 -0.93,480.981 l 19.098,-18.91 z m 260.121,15.308 -27,-36.789 32,-0.082 23.199,35.66 -28.199,1.211 z M 452.461,642.578 C 441.84,604.301 392.73,562.73 391.879,563.441 c 24.293,-34.812 23.473,-84.461 2.031,-108.91 0.11,0.547 39.059,-31.801 44.531,-48.551 3.079,-6.718 4.329,-14.851 8.239,-21.492 1.019,-1.758 4.34,-6.129 4.34,-6.129 95.109,96.481 49.8,209.571 1.441,264.219 z m 1.449,-10 c 92.379,-114.609 31.442,-219.527 -0.789,-248.789 l -6.133,10.16 c 68.633,79.762 39.532,177.813 -0.468,224.211 l 7.39,14.418 z m -10,-22.308 c 0.578,-1.872 4.18,-7.258 1.52,-6.911 l -4.61,0.942 3.09,5.969 z m -0.711,-12.77 c 2,0 3.68,-0.621 4.571,-2.031 1.921,-3.129 -7.649,-29.489 -13.551,-23.321 -1.758,3.473 -3.867,6.481 -5.508,10.082 -1.91,4.29 -0.66,6.399 3.75,10.661 3.051,2.929 7.379,4.609 10.738,4.609 z m 13.281,-7.148 c 4.649,-0.391 11.329,-15.082 11.918,-25.582 0.313,-1.098 -15.738,2.5 -20.039,7.378 0.512,4.301 4.571,15.231 8.121,18.204 z M 420.352,578.359 C 448.16,522.422 446.41,478.75 421.91,438.551 l -19.18,16.41 c 12.891,30.551 19.301,63.16 -2.421,104.687 l 20.043,18.711 z m 18.75,-14.019 c 1.918,0.191 7.847,-0.711 13.128,-2.391 18.629,-5.929 19.329,-18.121 1.399,-27.07 -7.418,-3.707 -9.758,-2.07 -14.02,16.57 -2.109,9.211 -3.711,12.61 -0.507,12.891 z m 35.937,-21.41 c 3.59,0 5.231,-6.758 5.699,-18.481 0.391,-11.09 -1.949,-11.949 -10.898,-4.019 -9.68,8.55 -11.32,10.59 -2.461,17.621 2.582,2.07 6.062,4.879 7.66,4.879 z m -25.348,-18.36 c 1.758,0.16 6.911,-3.121 11.911,-6.949 12.738,-9.691 9.918,-16.332 -4.532,-21.019 -10.039,-3.282 -9.531,-3.672 -9.3,13.668 0.16,8.558 -0.348,14.109 1.921,14.3 z m 168.508,-15.781 c -15.539,-3.949 -22.07,-17.769 -16.91,-30.269 2.34,-5.668 5.902,-5.711 1.723,-9.18 -4.653,-5.391 -7.153,-17.86 -1.992,-22.391 6.05,-3.469 7.609,2.539 1.21,-9.179 l -117.031,-215 702.531,1.332 -84.45,158.128 c 0.2,0.231 6.76,26.09 -6.76,29.219 -4.33,0.973 -6.79,5 -7.69,8.86 1.09,11.019 -3.91,15.711 -8.09,21.371 -66.79,-9.41 -124.799,-4.731 -172.728,6.05 -69.032,15.508 -118.364,42.43 -150.434,50.86 -44.258,11.64 -97.617,16.68 -139.379,10.199 z m 37.852,-1.488 c 54.418,0.359 115.359,-16.321 158.008,-34.762 44.222,-18.277 91.101,-31.918 138.48,-38.91 39.063,-4.918 78.051,-2.418 115.431,0.551 4.1,0.59 8.32,0.039 11.37,-3.2 7.73,-8.601 2.46,-13.992 -16.92,-15.781 -31.13,-2.578 -69.721,-1.488 -103.94,3.672 -54.218,6.207 -111.679,22.609 -161.25,43.16 -62,23.239 -118.871,31.02 -163.871,24.18 -24.687,-3.789 -28.32,-4.371 -28.199,2.269 0.192,12.93 10.891,18.86 50.891,18.821 z m -178.352,-37.5 c -2.429,-5.5 -19.34,12.469 -19.179,17.5 0.351,2.269 14.058,11.179 19.531,14.847 2.609,1.993 2.418,0.942 2.461,-1.41 0.109,-6.758 -0.434,-24.258 -2.813,-30.937 z m -26.097,13.25 c 7.808,-1.063 20.668,-22.153 9.378,-25.43 -10.039,-2.891 -19.14,-4.769 -20.359,1.949 5.16,16.52 7.078,23.051 10.078,23.442 0.281,0.039 0.629,0.039 0.903,0.039 z M 905.898,411.02 c 49.883,-8.641 115.312,-13.79 158.082,-10.469 24.54,2.5 29.73,1.679 29.57,-8.52 -0.11,-6.41 0.59,-6.25 -31.05,-6.211 -26.29,-1.761 -50,1.059 -75.469,2.379 -52.691,2.621 -100.551,11.641 -144.801,27 -49.07,12.731 -91.609,37.18 -139.609,42.223 -44.07,4.34 -83.672,-3.473 -92,-8.082 -2.769,0.039 -4.211,4.14 -4.062,7.93 0.16,3.71 1.562,6.679 4.652,9.058 126.25,31.832 193.828,-36.367 294.687,-55.308 z M 468.09,453.16 c 4.211,-0.039 2.89,-6.25 -3.988,-19.449 -5.864,-11.211 -8.161,-11.133 -11.481,0.348 -3.562,12.312 -3.211,13.671 3.828,15.472 4.141,0.981 7.61,3.129 11.641,3.629 z m -29.461,-6.25 c 4.922,-0.07 11.961,-22.379 8.359,-26.601 -2.847,-3.321 -13.117,-1.047 -16.09,2.851 -4.847,6.328 1.332,23.871 7.731,23.75 z m 220.711,-6.012 c 19.609,0.192 39.101,-1.918 57.07,-5 -10.359,-3.789 -20.629,-7.347 -31.371,-13.519 -7.379,6.371 -15.82,12.543 -25.699,18.519 z m 25.461,-27.109 c 69.179,38.59 98.398,-14.687 108.437,-23.277 60.473,13.398 72.352,6.789 106.102,-29.653 60.582,29.61 89.961,4.411 115.23,-11.519 29.69,27.73 67.31,28.512 86.91,14.57 3.64,-6.14 8.75,-13.91 9.18,-16.211 0.32,-1.84 -2.46,0.27 -9.29,5.153 -35.59,25.468 -94.61,-6.25 -78.83,-39.801 4.26,-9.031 3.55,-12.93 -2.77,-16.571 -9.03,-6.089 -20.122,4.032 -13.83,14.379 10.47,17.262 2.58,31.719 -22.928,45.039 -36.024,18.832 -94.813,-2.269 -82.703,-30 7.742,-8.867 0.55,-15.078 -9.649,-14.769 -11.558,0.351 -15.5,8.09 -8.082,16.371 9.262,10.551 6.832,21.25 -3.949,33.48 -32.301,46.008 -97.688,27.77 -89.02,-12.582 3.789,-10 -6.988,-14.058 -18.238,-9.609 -7.109,2.852 -6.062,13.871 1.75,17.77 8.988,0.902 10.277,13.953 9.18,22.312 -1.563,12.149 -19.492,24.141 -37.223,30.469 -12.848,4.609 -24.769,5.582 -34.18,4.719 -19.847,-1.789 -30.937,-15.309 -27.66,-35.508 1.922,-11.949 -1.398,-24.289 -15.429,-17.731 -7.649,3.59 -5.739,12.231 2.07,20.231 27.543,26.879 -27.848,59.539 -61.289,37.039 -5.66,-4.649 -9.801,-5.469 -9.801,-5.469 20.981,52.18 86.602,3.32 86.012,1.168 z m 91.14,7.031 41.789,-15.742 c -9.64,-1.918 -16.441,-4.609 -23.242,-7.308 l -18.547,23.05 z m -109.14,-16.992 c -38.563,7.344 -40.672,-35.777 -15.551,-42.808 -34.57,-47.5 55.98,-65.942 39.371,-7.309 45.859,-8.281 37.578,43.949 3.481,43.48 7.968,19.411 70.937,4.688 68.238,-9.769 -42.57,-4.492 -25.578,-43.281 -7.141,-43.32 -44.539,-42.192 44.571,-81.012 42.18,-17.5 35.742,-7.5 39.961,39.957 5.59,43.089 12.621,17.688 57.543,6.52 70,-13.711 -35.469,-4.73 -33.239,-35.859 -5.508,-40.902 -35.16,-44.808 51.41,-61.367 42.418,-9.297 31.019,-10.66 48.051,30.739 7.851,42.578 41.18,24.532 85.9,-12.031 81.059,-12.769 -46.988,2.769 -37.66,-44.301 -3.629,-41.762 -21.64,-48.906 64.06,-51.598 42.34,-0.898 38.55,-0.7 35.16,43.949 -1.76,46.949 23.24,16.961 49.49,18.441 66.37,2.582 -35.16,-9.262 -20.55,-50.121 14.8,-38.789 3.29,-34.223 31.06,-26.953 31.68,-25.902 l 24.89,-46.442 -674.07,-1.058 57.539,106.179 c 33.992,-1.758 32.781,30.973 31.289,31.789 22.621,-16.168 46.961,23.992 13.871,35.473 26.993,28.277 67.071,2.187 64.692,0.117 z m -219.422,2.973 c -1.399,-1.449 -1.789,-2.313 -4.098,-0.16 -5.902,6.718 10.117,7.308 4.098,0.16 z M 586.762,389.02 c 2.968,-2.418 0.898,-9.098 -1.492,-11.36 -6.09,-6.488 -8.122,-5.98 -2.77,5.231 1.559,3.398 3.051,6.168 4.262,6.129 z m 295.308,-3 35.039,-8.481 -16.64,-9.379 c -6.129,6.68 -12.071,12.43 -18.399,17.86 z m 109.532,-14.11 38.128,-2.461 c -5.04,-3.398 -10,-6.597 -16.18,-12.847 -4.76,5.117 -13.859,10.199 -21.948,15.308 z m 126.988,-38.859 c 2.11,-4.461 10.51,-19.813 9.73,-20.199 -12.34,-2.153 -15.62,16.168 -9.73,20.199"
         inkscape:connector-curvature="0"
         id="path24"
         style="fill:#100f08;fill-opacity:1;fill-rule:nonzero;stroke:none" /></g></g></svg>