<?xml version="1.0" encoding="UTF-8" standalone="no"?>
<!-- Created with Inkscape (http://www.inkscape.org/) -->

<svg
   xmlns:dc="http://purl.org/dc/elements/1.1/"
   xmlns:cc="http://creativecommons.org/ns#"
   xmlns:rdf="http://www.w3.org/1999/02/22-rdf-syntax-ns#"
   xmlns:svg="http://www.w3.org/2000/svg"
   xmlns="http://www.w3.org/2000/svg"
   xmlns:inkscape="http://www.inkscape.org/namespaces/inkscape"
   version="1.1"
   width="225"
   height="315"
   id="svg2"
   xml:space="preserve"><metadata
     id="metadata8"><rdf:RDF><cc:Work
         rdf:about=""><dc:format>image/svg+xml</dc:format><dc:type
           rdf:resource="http://purl.org/dc/dcmitype/StillImage" /></cc:Work></rdf:RDF></metadata><defs
     id="defs6" /><g
     transform="matrix(1.25,0,0,-1.25,0,315)"
     id="g10"><g
       transform="scale(0.1,0.1)"
       id="g12"><path
         d="m 88.9102,2508.52 1615.7798,0 c 47.11,0 85.04,-37.93 85.04,-85.04 l 0,-2324.3784 c 0,-47.1524 -37.93,-85.043 -85.04,-85.043 l -1615.7798,0 c -47.1094,0 -85.03911,37.8906 -85.03911,85.043 l 0,2324.3784 c 0,47.11 37.92971,85.04 85.03911,85.04"
         inkscape:connector-curvature="0"
         id="path14"
         style="fill:#ffffff;fill-opacity:1;fill-rule:nonzero;stroke:none" /><path
         d="m 88.9102,2508.52 1615.7798,0 c 47.11,0 85.04,-37.93 85.04,-85.04 l 0,-2324.3784 c 0,-47.1524 -37.93,-85.043 -85.04,-85.043 l -1615.7798,0 c -47.1094,0 -85.03911,37.8906 -85.03911,85.043 l 0,2324.3784 c 0,47.11 37.92971,85.04 85.03911,85.04 z"
         inkscape:connector-curvature="0"
         id="path16"
         style="fill:none;stroke:#000000;stroke-width:7.9738698;stroke-linecap:butt;stroke-linejoin:miter;stroke-miterlimit:4;stroke-opacity:1;stroke-dasharray:none" /><path
         d="m 653.75,420 427.3,-9.141 c 37.86,-51.949 113.87,-157.89 113.87,-157.89 L 504.488,243.871 653.75,420 z M 474.922,383.828 c 18.437,36.992 22.027,72.692 18.519,124.102 -2.781,39.449 22.071,70.16 47.688,58.398 19.812,-9.098 10.672,-46.449 -9.84,-38.519 -7.809,3.011 -14.687,0.281 -13.668,-17.457 1.828,-43.711 13.551,-92.93 3.469,-134.801 -7.031,-40.711 -63.32,-21.961 -46.168,8.277 z m -173.012,57.07 c -21.75,32.422 17.231,62.813 41.641,47.852 11.57,-5.391 9.929,-17.07 -4.641,-10.859 -20.39,8.711 -42.308,-22.11 -24.57,-34.493 8.16,-5.699 11.25,-4.918 5.039,2.223 -16.488,19.07 25.742,27.5 24.531,14.93 -2.89,-15.321 -3.25,-21.762 -4.648,-24.77 -8.641,-13.359 -25.16,-6.519 -37.352,5.117 z m 60.668,136.403 c -23.519,29.148 3.442,52.078 3.082,51.25 7,7.5 -55.969,124.148 -48,124.89 79.488,8.438 159.84,2.071 239.531,-0.39 0.039,0 -42.461,-75.942 -59.421,-113.52 -6.829,-15.152 9.14,-32.972 2.539,-44.222 -20.508,-22.258 -7.77,-46.95 -20.539,-48.079 -35.899,4.571 -71.329,10.5 -111.141,2.571 -2.93,0 -3.238,16.648 -6.051,27.5 z m 344.184,810.469 c 40.226,-203.43 -19.063,-419.059 -154.961,-561.29 -19.18,18.321 -33.871,53.09 -53.012,75.75 -53.129,15.86 -91.328,-2.82 -128.559,-21.058 -33.082,18.949 -70.351,30.078 -106.679,29.609 l -1.172,31.489 c 36.762,0.781 75.59,-2.622 108.281,-22.739 l 51.219,20.668 -159.688,164.641 2.188,28.17 193.742,-194.338 24.969,-0.902 c -54.852,144.93 -6.879,375.08 223.672,450 z m 270.187,-255.15 28.011,-132.85 c 0,0 -148.081,-158.559 -239.651,-233.872 l -69.02,6.25 c 0,0 94.262,166.641 76.992,153.903 L 976.949,1132.62 z M 1533.71,950.43 c -65.74,-73.2 -144.33,-119.77 -231.64,-171.051 -34.88,38.742 -77.23,81.359 -101.68,119.57 76.13,40.43 148.71,71.789 223.28,142.571 -4.1,-4.57 -95.12,-35.27 -94.8,-31.75 -3.28,-15.122 -1.33,-24.418 -16.14,-28.399 -17.53,24.329 -34.49,44.099 -62.14,54.999 -11.61,-1.06 -27,6.56 -27,6.56 7.78,1.56 4.34,95 0.04,96.09 0,0 2.27,2.78 22.5,2.35 36.17,2.46 59.57,45.97 81.99,60.86 70.12,5.74 132.27,-1.14 201.33,0.74 -0.5,-83.17 4.3,-169.38 4.26,-252.54 z m -445.27,210.59 c -1.8,3.55 -19.49,141.32 -2.66,227.73 3.09,20.27 35.2,27.15 41.37,42.23 10.23,32.81 -5.12,73.36 2.97,110.11 8.24,37.46 26.01,58.52 41.6,86.37 16.87,30.12 41.01,67.74 67.77,90.24 7.85,7.61 35.28,-17 55.78,-59.58 59.53,-37.3 135.9,10.86 135.9,10.86 0,0 29.65,-24.06 96.64,-37.22 l -1.13,-25.86 c -0.35,-7.54 -75.39,8.01 -91.52,23.01 0,0 -55.98,-18.64 -55.98,-22.03 0,-14.5 147.77,-150.71 147.77,-150.71 l 0.86,-33.59 c -22.19,30.66 -195.51,178.16 -195.51,178.16 38.44,-224.37 -53.35,-364.14 -243.86,-439.72 z m -247.971,43.94 -3.36,132.15 126.332,-1.52 5.188,-133.52 -128.16,2.89 z m -577.93,142.81 c 3.402,4.69 -4.918,246.33 -4.379,246.33 80.36,79.53 158.988,124.02 237.82,172.38 35.622,-35.11 65.93,-64.76 92.18,-107.3 l -108.75,-66.64 c 4.141,-16.25 -6.601,-22.11 63.52,-85.35 1.172,4.33 24.261,17.22 28.281,-2.03 -9.492,-40.67 4.219,-75.2 6.059,-97.07 -9.61,-12.78 -30.981,0.93 -30.981,0.93 -13.867,14.38 -68.129,-56.52 -83.629,-64.45 -67.582,2.5 -203.91,-2.07 -200.121,3.2 z m 760.821,430.82 c 0.9,0.9 68.75,-0.5 67.85,-2.93 -12.38,-32.96 -43.05,-91.52 -71.13,-159.06 -32.381,-57.62 -77.271,-91.52 -115.592,-129.26 -30.617,-30.15 -57.968,-77.69 -78.898,-65.35 -12.781,40.86 -15.711,77.11 -29.809,122.39 -6.441,26.83 32.739,44.29 227.579,234.21 z m 296.95,226.57 c 24.85,-10.55 94.69,-5.04 105.78,-0.28 14.22,-9.61 5.36,-22.38 3.56,-29.49 14.57,-18.4 22.54,-24.88 5.97,-54.49 -3.74,0 50.9,-122.58 52.39,-122.66 0,0 -57.78,27.31 -78.17,45.74 l -39.88,-52.77 -46.29,59.57 c -0.15,-5.35 -89.22,-64.18 -90.31,-61.37 -2.77,2.82 81.33,92.97 64.65,145.9 -4.03,12.78 5.19,25.71 11.48,36.96 4.3,7.73 -1.48,22.61 10.82,32.89 z m -46.21,10.97 c 3.75,4.3 -21.6,115.12 5.9,159.85 11.64,16.29 32.7,17.11 41.52,3.79 6.72,-18.52 -13.32,-44.3 -17.34,-56.88 -13.05,-35.08 6.33,-81.37 -3.13,-114.49 -28.32,-72.42 -78.43,7.11 -26.95,7.73 z m 188.4,49.22 c -14.92,-0.66 -4.49,43.71 -2.03,56.45 -0.08,2.5 27.3,8.86 37.19,-8.6 15.89,-26.09 -3.25,-58.98 -35.16,-47.85 z m -177.89,223.79 -140.55,-170.19 c -142.11,16.28 -284.72,26.64 -430.04,4.49 l -116.829,162.3"
         inkscape:connector-curvature="0"
         id="path18"
         style="fill:#e2cf00;fill-opacity:1;fill-rule:nonzero;stroke:none" /><path
         d="m 1539.61,2301.6 -1300.231,-4.02 14.25,-2064.1 1297.311,7.649 -11.33,2060.471 z m -299.14,-12.65 c 14.26,0 28.51,-0.04 42.77,-0.08 l -155.66,-190.67 -3.83,-1.29 c 10.39,-30.23 25.2,-67.96 39.34,-96.6 22.5,-46.29 79.1,-131.36 43.79,-199.45 -3.48,-5.82 -6.68,-8.67 -11.02,-8.63 -5.98,0 -5.9,3.51 -2.31,10.35 7.86,15.04 13.21,50.66 10.04,69.53 -1.99,12.03 -8.71,30.59 -21.48,58.67 -59.14,108.75 -77.62,166.76 -74.26,166.76 -0.78,0.47 -2.11,1.13 -4.26,1.64 l -5.82,1.95 c 20.51,-68.79 53.83,-126.6 80.2,-180.11 21.6,-49.77 23.94,-69.07 12.62,-105.28 -4.38,-14.02 -12.31,-23.01 -20.08,-22.97 -5.82,0.04 -5.51,1.21 -1.53,8.32 20.75,37.03 15.94,77.46 -9.84,124.5 -37.38,77.69 -59.84,126.83 -73.16,176.68 -0.36,0.03 -6.84,2.18 -9.18,2.73 11.09,-51.88 42.11,-111.68 70.97,-172.89 23.87,-47.15 30.75,-81.52 22.15,-108.67 -2.85,-11.76 -11.83,-29.26 -23.2,-29.77 -4.45,0 -5.16,2.31 -0.98,8.36 17.7,30.2 20.82,58.05 -10.78,121.45 -29.1,58.28 -58.28,123.51 -68.28,180.5 -0.63,4.65 -13.28,10.2 -10.55,2.47 15.63,-67.31 46.72,-136.25 79.77,-203.44 18.59,-41.72 20.51,-68.4 6.56,-91.76 -7.81,-13.05 -9.8,-16.02 -15.62,-16.13 -6.92,-0.16 -6.8,-0.39 -3.01,7.54 16.87,35.07 14.1,65.97 -8.44,116.68 -30.94,69.53 -56.99,127.07 -68.09,188.24 -1.99,0.58 -12.46,4.61 -10.97,1.56 15.47,-58.28 35.27,-112.38 60.78,-167.11 8.87,-18.98 23.28,-55.9 27.93,-74.37 8.83,-35.24 -11.06,-83.6 -37.11,-86.02 -9.69,-0.94 -8.48,3.91 2.34,13.91 18.6,17.26 22.23,44.8 15.9,76.72 -4.76,24.61 -12.93,50.97 -24.14,77.77 -22.69,54.22 -47.42,110.94 -55.23,161.01 0.23,4.46 -10.16,4.5 -7.23,-0.19 5.63,-35.2 19.02,-75.27 33.71,-112.5 16.1,-40.7 40,-86.33 47.81,-136.29 6.41,-40.9 -19.18,-79.49 -50.23,-81.8 -37.42,-2.77 -44.81,34.11 -35.78,51.41 14.65,25.82 57.3,11.09 44.61,-15.31 -7.27,-15.24 -29.57,-11.21 -28.6,5.47 -0.27,1.48 2.11,6.09 1.68,6.32 -0.74,0.43 -4.02,-2.54 -5.07,-4.41 -7.58,-13.48 15.19,-31.6 30.97,-20.74 52.97,28.59 17.19,115.82 -5.86,169.1 -22.38,49.65 -38.75,94.49 -45.86,140.43 -1.95,1.37 -10.7,3.55 -9.45,1.99 6.41,-24.53 9.38,-45.23 15.74,-65.82 10,-32.34 27.97,-68.51 42.58,-104.73 13.32,-35.66 26.68,-65.97 20.59,-103.16 -0.55,-3.4 -2,-7.54 -4.34,-10.04 -2.38,-2.5 -4.34,-2.11 -5.04,7.34 -0.23,1.29 -1.91,3.01 -2.15,4.65 1.29,13.99 0.35,27.82 -3.28,40.98 -3.08,10.98 -8.98,22.23 -21.44,43.59 -4.93,7.97 -17.78,32.31 -13.25,15.47 2.58,-9.49 11.41,-30.62 20.59,-45.93 5.66,-9.5 11.68,-35.47 9.88,-40.47 -1.87,-4.93 -6.21,-5.2 -8.24,-3.48 -1.8,1.48 -1.8,8.44 -2.26,12.73 -1.92,17.62 -20,48.4 -32.58,60.47 -9.03,10.04 21.25,-42.65 23.47,-56.72 0.94,-5.93 2.78,-10.78 0.75,-13.71 -1.33,-1.91 -4.07,-1.91 -6.72,-1.25 -2.54,0.67 -2.46,2.43 -5.16,11.49 -4.65,15.47 -10.39,23.28 -22.26,37.22 -4.11,4.81 -6.841,-1.21 -0.32,-8.94 8.99,-14.18 15.74,-23.2 18.01,-41.41 -5.82,-8.28 -8.67,-6.68 -20.86,14.22 -8.05,13.79 -12.89,17.35 -14.999,17.23 -5.352,-0.24 -0.313,-6.84 14.689,-30.39 7.77,-12.58 7.97,-20.39 -0.86,-20.35 -3.009,0 -19.77,18.39 -23.95,26.36 -3.512,6.64 -7.809,11.72 -7.852,3.64 0,-3.25 10.391,-20.16 17.5,-28.36 11.25,-12.97 14.462,-15.59 15.902,-21.29 0.66,-2.74 2.03,-7.54 2.97,-10.67 2.89,-9.29 1.44,-11.95 -4.38,-7.03 -2.652,6.92 -4.761,7.62 -11.992,12.93 -6.09,4.49 -14.566,16.1 -20.078,24.3 -2.109,3.08 -3.898,7.03 -6.051,10.15 -5.429,10.16 -12.66,11.02 -7.418,0.83 2.457,-4.77 6.481,-12.54 10.7,-18.33 7.031,-10 5.589,-15.19 -2.77,-15.15 -3.601,0 -13.601,13.08 -19.891,23.32 -4.058,6.68 -10.429,11.4 -9.64,4.8 0.191,-1.64 5.109,-13.4 12.5,-22.54 8.039,-9.96 9.101,-15.27 1.289,-15.23 -5.32,0.04 -9.891,5.08 -16.68,15.39 -6.449,9.81 -10.469,13.28 -12.308,12.15 -2.301,-1.41 9.257,-20.82 18.75,-31.45 8.98,-10.04 2.379,-15.78 -7.93,-6.83 -5.621,4.84 -16.832,19.29 -19.961,26.13 -5.629,12.31 -9.262,8.95 -5.629,-0.78 3.988,-10.7 10.238,-22.46 17.82,-30.08 3.938,-3.98 12.11,-7.11 16.09,-10.55 11.25,-9.72 18.399,-18.71 17.5,-20.31 -32.191,-1.8 -58.551,32.42 -65.781,53.13 -5.16,13.59 -11.02,15.62 -5.43,-3.6 15.66,-47.77 64.532,-72.61 98.36,-51.17 20.39,12.89 2.34,46.56 -14.34,35.7 -4.531,-2.93 -4.719,-11.28 1.019,-6.83 10.86,8.4 21.762,-12.31 9.922,-18.44 -16.64,-8.63 -35.082,8.24 -23.75,28.71 11.168,20.98 55.979,8.95 47.229,-24.96 -5.311,-15.23 -28.6,-34.26 -48.522,-34.61 -37.066,-0.7 -62.648,27.62 -76.91,55.55 -1.84,3.63 -5.117,10.7 -7.808,16.44 -2.348,5 -4.219,8.71 -4.379,8.68 4.097,-33.95 36.64,-75.94 65.781,-82.9 48.398,-11.32 61.68,17.43 93.358,47.15 0,0 23.13,-2.97 23.95,-2.5 2.11,1.33 45.04,3.25 46.29,2.03 -173.321,-313.2 -160.122,-685.03 -11.06,-967.261 9.84,-20.629 11.56,-16.719 -4.76,-12.5 -16.88,4.371 -32.15,-2.379 -45.86,0.781 -28.32,5.782 -34.379,-13.519 -56.141,-23.789 -27.148,-10.23 -21.008,-29.062 -27.5,-47.23 -2.027,-2.813 -3.508,-5.11 -2.379,-4.762 1.801,0.621 7.578,5.941 8.008,10.621 1.133,12.039 5.434,21.57 10.352,26.371 4.648,4.571 7.929,6.879 9.058,4.879 0.864,-1.519 0.203,-6.91 -2.109,-11.25 -6.559,-12.422 2.152,-53.898 2.699,-24.371 0.434,23.441 14.692,49.57 34.652,60.231 15.93,7.82 20.9,7 7.89,-4.961 -14.77,-15.7 -24.811,-33.981 -25.39,-56.719 -0.242,-9.41 3.508,-17.301 4.879,-8.82 -0.589,43.281 42.851,91.519 89.371,67.531 2.35,-1.641 4.3,-4.801 3.6,-6.563 -45.08,7.543 -84.3,-17.027 -78.52,-75.148 0,0 4.03,11.398 6.33,22.769 7.07,35.59 47.5,51.172 75.82,41.411 5.35,-2.231 9.53,-9.731 8.79,-10.75 -34.69,10.859 -72.7,-21.79 -74.92,-57.149 -0.71,-11.519 -0.43,-21.359 5.47,-0.621 22.38,78.59 91.4,42.969 82.93,36.52 -53.44,6.371 -72.78,-29.489 -71.53,-70.899 0.75,-3.781 2.7,-5.07 4.34,-8.59 7.11,-15.621 10.35,-28.98 10.9,-57.301 -0.51,-7.308 5.51,-53.75 -0.59,-51.8 -19.41,7.148 -34.14,15.59 -67.772,0.511 -3.047,-0.16 -4.027,1.52 -2.969,4.137 1.371,3.512 6.641,10.434 15.821,20.703 20.62,21.949 8.79,16.098 -8.2,0.86 -10.98,-9.84 -8.601,-3.121 1.75,30.468 4.18,13.59 1.571,15.231 -16.441,24.371 -18.559,9.379 -31.41,10.821 -15.66,0.981 6.172,-3.75 12.769,-7.691 19.762,-10.512 8.238,-4.449 7.308,-6.328 1.211,-25.929 -11.762,-38.129 -15.864,-52.04 -15.231,-77.661 1.481,-62.339 61.089,-56.129 95.039,-42.148 l 1.4,-41.012 127.78,-179.379 c 0,0 -446.68,0.469 -685.668,-3.441 13.668,32.66 158.129,170.98 166.719,195.711 0.82,-0.121 -16.012,50.582 -24.84,72.609 -41.801,104.141 -96.723,147.891 -64.93,216.289 6.879,13.602 8.051,18.172 13.25,18.133 7.07,-0.043 9.328,-4.73 1.359,-17.973 -34.14,-57.07 38.75,-155.546 63.36,-218.359 3.949,-10.039 20.43,-57.187 23.32,-73.051 0.281,-4.84 11.84,-6.476 8.602,-0.816 -9.063,32.066 -20.473,67.109 -25.742,79.726 -19.461,46.372 -39.93,78.012 -58.911,123.364 -10.589,28.629 -16.211,61.718 0.192,91.398 6.019,10.789 7.699,16.801 11.679,17.391 3.399,-0.039 5.391,-1.18 5.59,-3.949 0.231,-3.051 -1.64,-8.051 -6.09,-15.622 -28.71,-48.71 22.301,-127.39 47.571,-183.48 16.488,-36.602 31.179,-75.039 36.328,-109.77 0.082,-2.378 3.281,-8.75 9.609,-4.41 -10.937,64.809 -43.078,127.66 -71.25,188.2 -24.058,47.308 -33.078,88.558 -0.937,127.5 2.82,2.699 8.789,2.23 9.219,-1.75 0.242,-2.7 -1.829,-7.86 -6.872,-18.211 -28.32,-59.02 15.551,-106.95 36.09,-163.239 20.082,-47.031 38.75,-86.558 46.25,-136.679 5.672,-2.153 8.481,-4.84 9.102,2.269 -14.68,70.82 -46.32,134.488 -73.789,195.82 -12.692,26.68 -17.141,39.45 -18,57.301 -1.211,24.528 11.211,55.59 22.301,63.789 2.886,2.11 4.687,2.5 7.347,1.09 3.59,-1.949 2.852,-3.281 -4.258,-16.711 -13.64,-25.711 -14.812,-54.539 -2.191,-85.078 21.84,-46.883 40.23,-85.351 53.238,-119.812 14.262,-37.688 22.274,-70.43 25.512,-99.957 0,0 9.691,-4.301 8.281,2.148 -6.09,41.328 -19.761,84.219 -34.57,120.512 -13.941,34.258 -31.441,67.218 -45.621,101.168 -17.192,40.742 -2.93,85.269 32.301,107.5 l 16.211,-0.352 c -0.942,0.434 -36.993,-13.828 -38.872,-65.199 -1.789,-48.938 21.45,-78.981 38.29,-120.43 20.46,-50 38.82,-93.828 43.16,-147.258 1.64,-1.839 10.511,-2.269 10.351,-1.453 -4.371,35.903 -14.883,70.082 -29.922,112.071 -15.98,44.613 -31.879,64.421 -46.679,111.25 -10.039,31.722 -8.668,74.652 13.672,94.261 33.437,33.668 80.078,9.692 68.398,-28.871 -9.02,-27.109 -46.328,-21.719 -46.09,3.711 -0.082,16.41 20.192,20.86 26.91,8.442 1.559,-2.383 2.621,-12.973 3.282,-13.364 0.699,-0.386 2.808,8.321 2.808,10.282 0.078,13.468 -18.281,24.839 -31.949,17.96 -18.711,-9.371 -30.859,-30.89 -29.652,-59.761 1.332,-30.699 6.921,-50.547 32.113,-98.668 29.34,-56.102 39.058,-116.801 45.348,-157.742 2.699,1.14 5.941,-0.309 7,0 -4.258,55.781 -22.661,113.089 -45.59,160.711 -27.77,57.691 -35.551,93 -26.289,118.859 1.371,3.793 2.66,6.641 4.339,6.883 3.079,0.468 4.059,-4.492 6.911,-14.852 0.898,-3.16 -0.192,-8.16 -0.86,-12.031 -2.422,-23.629 14.219,-72.848 29.688,-94.719 4.531,-6.25 10.312,-6.019 5.312,5.039 -15.941,28.59 -25.621,54.531 -26.91,89.289 -0.351,10.203 11.559,5.633 11.828,0.512 0.86,-16.602 2.539,-36.172 10.512,-50.078 16.129,-27.582 25.117,-28.75 8.59,1.988 -3.672,7.149 -14.18,37.309 -9.922,47.699 2.351,2.11 5.199,2.461 6.641,0.352 4.652,-17.031 11.14,-33.91 22.582,-47.07 5.976,-6.84 6.988,-3.75 3.828,4.808 -5.27,9.879 -21.758,42.891 -14.18,50.313 2.461,2.027 1.02,0.937 7.699,-9.891 9.25,-15.07 14.289,-21.012 18.821,-25.391 5.98,-5.89 7.429,-1.949 1.25,8.36 -12.379,20.59 -19.411,37.699 -15.071,42 4.289,4.25 5.352,2.301 15.11,-14.262 4.339,-7.379 10.632,-18.238 12.781,-20.816 2.14,-2.543 4.101,-3.211 4.14,-1.102 -2.269,20 -19.5,42.82 -26.449,46.762 -1.011,1.879 -0.66,17.656 -0.66,17.656 25.899,-13.277 26.949,-28.277 44.141,-51.367 1.758,-1.723 4.258,0.391 3.508,3.59 -0.622,4.301 -10.739,23.519 -17.11,31.961 -5.031,6.597 -5.23,10.429 -1.012,12.34 6.872,3.089 16.442,-7.071 26.68,-25.231 4.723,-8.402 11.051,-13.281 11.051,-8.871 0.043,2.422 -8.789,24.141 -14.879,30.391 -10.121,10.468 -5.121,17.769 6.602,8.089 5.347,-4.378 12.539,-7.66 20,-23.64 4.339,-9.328 8.046,-10.5 8.089,-3.078 0,8.359 -14.101,28.789 -23.601,34.449 -7.34,4.379 -11.52,9.258 -9.449,12.5 6.449,9.449 32.5,-14.609 41.371,-36.949 2.648,-6.602 7.218,-9.961 8.359,-7.071 1.988,1.481 -3.281,17.579 -8.672,25.079 -8.949,17.031 -30.078,33.511 -42.621,31.519 -2.418,-0.391 -9.058,13.59 -9.058,13.59 31.949,5.121 62.96,-32.93 68.468,-47.18 10.473,-27.039 15.821,-23.871 6.641,-0.16 -17.891,46.332 -73.469,72.301 -104.328,49.883 -17.582,-12.774 -7.071,-43.281 11.008,-38.121 7.191,2.687 14.14,9.961 1.492,7.57 -14.071,-1.402 -18.52,19.891 -4.18,24.18 23.039,6.879 28.32,-29.723 9.68,-37.852 -19.289,-8.238 -38.551,4.071 -36.711,25.16 3.39,39.922 52.648,51.442 101.281,19.18 13.68,-9.059 30.508,-38.668 36.289,-57.418 1.918,-6.211 8.36,-8.402 9.141,-7.582 1.879,1.801 -13.473,34.762 -18.551,43.121 -21.172,48.289 -97.73,50.668 -97.73,48.168 0,0 -29.969,-18.789 -56.61,-49.726 l -68.43,6.25 c 174.329,278.668 188.04,688.398 9.219,978.438 2.301,-1.49 34.371,-9.73 45.43,-1.06 8.16,3.87 10.5,5.24 19.531,2 10.149,-3.64 20.82,-0.39 31.871,9.64 8.321,7.58 8.52,9.93 13.867,9.22 15.864,-2.03 26.403,7.23 29.692,30 1.281,8.95 2.14,18.25 0.859,16.88 -0.75,-0.78 -2.578,-8.52 -3.75,-13.4 -3.211,-13.36 -6.179,-18.28 -11.449,-22.66 -8.629,-7.18 -13.59,-3.16 -10,7.74 3.398,7.07 6.25,25.19 1.559,33.44 -0.821,1.48 -1.008,-4.14 -2.219,-8.64 -9.418,-35.7 -19.301,-53.82 -36.371,-58 -8.008,-2 -11.719,-0.75 -9.141,3.82 30.152,31.96 28.121,67.39 25.863,64.34 -6.41,-20.47 -18.32,-51.02 -37.851,-63.56 -16.879,-10.85 -41.61,-11.87 -55.36,-2.77 -7.769,5.16 3.989,6.68 21.68,6.92 29.77,0.43 57.578,39.96 52.969,73.32 -1.09,6.17 -2.77,-0.43 -5.188,-10.59 -10.98,-36.13 -29.851,-61.48 -72.851,-53.91 -3.36,0.59 -5.629,2.82 -7.469,4.07 -6.992,4.84 -4.41,8.16 9.5,6.32 31.129,-4.02 58.199,25 58.039,60.12 -0.07,16.84 -2.5,16.64 -5.191,4.1 -3.789,-17.69 -17.617,-71.95 -67.93,-54.22 -9.059,4.89 -14.019,11.14 -10.777,12.07 29.328,-5.89 56.25,0.51 66.679,38.91 4.528,16.56 3.438,32.74 -1.14,46.33 -1.481,9.18 -4.571,16.21 -5.621,25.58 -2.809,25.04 -6.84,52.74 -5.629,80.16 2.429,2.38 2.859,1.88 11.289,-3.71 16.609,-10.98 29.14,-8.44 46.019,-1.95 21.68,7.81 19.731,6.4 -2.968,-19.14 -4.731,-5.32 -9.532,-11.8 -10.082,-12.82 -5.778,-10.78 5.082,-2.85 13.171,7.27 11.29,14.14 13.668,17.38 15.899,17.38 0.742,-15.27 -4.77,-33.79 -7.66,-46.29 -3.75,-13.86 -3.668,-17.07 5.191,-20.62 3.828,-1.53 11.25,-4.57 15.36,-6.53 18.55,-8.82 16.832,-1.64 2.07,6.68 -20,11.25 -20.16,10.67 -14.461,29.34 6.723,21.91 10,40.86 13.641,62.54 8.98,53.59 -31.641,83.05 -85.551,64.34 -3.09,-1.57 -6.68,28.16 -6.168,36.01 0.469,2.85 -8.129,2.23 -15.199,10.86 2.148,1.91 -79.532,103.79 -117.582,165.59 213.281,0.27 427.54,3.82 641.45,3.79 z m -132.62,-191.41 c 0.51,-0.35 0.82,-0.63 0.82,-0.63 -0.35,0.43 -0.62,0.63 -0.82,0.63 z m 184.85,186.56 228.75,0 3.32,-492.73 -20.28,-0.47 c 0,0 -38.2,65.39 -48.24,96.29 -2.54,7.73 -6.91,18.32 -8.63,22.5 -3.87,9.45 -6.6,10.62 -1.45,16.4 10.35,11.57 8.28,34.96 -1.76,46.25 -3.08,3.64 -4.68,2.43 -4.53,11.29 0.12,7.66 0.86,12.54 -1.17,16.49 -3.4,6.6 -5.7,7.07 -0.86,14.29 5.08,7.62 11.84,19.93 14.69,29.61 4.61,15.67 1.37,18.56 11.64,14.89 25.74,-8.17 47.27,10.15 46.6,35.97 -0.55,21.76 -20.98,41.17 -44.76,35.2 -5.47,-1.37 -6.57,-0.9 -15,4.37 -2.39,1.53 -6.1,4.69 -9.22,5.9 -3.91,1.49 -7.15,1.33 -8.75,4.14 -3.21,5.47 -13.13,14.14 -25.24,13.6 -7.42,-0.36 -17.03,2.3 -19.57,3.63 -4.22,2.19 -16.05,0.39 -31.13,2.66 -6.68,0.97 -12.07,-1.61 -15.31,-1.65 -9.3,-0.11 -5.51,1.02 -7.27,8.05 -11.6,36.6 -45.55,32.23 -61.09,4.73 -5.74,-10.82 -9.85,-26.84 -12.03,-43.36 l -91.41,1.37 122.7,150.58 z m -707.43,-1.05 c 34.14,-43.28 66.839,-91.76 101.25,-135.9 42.351,-53.52 43.75,-59.65 32.39,-113.48 -6.371,-30.43 -9.109,-37.46 -22,-35.15 -12.07,2.14 -22.34,-7.31 -23.98,-19.3 -3.09,-22.54 18.711,-36.41 40.621,-25.16 11.57,5.94 11.918,6.6 8.09,-13.04 -5.512,-28.17 -16.563,-52.39 -23.672,-51.61 -18.399,38.83 -63.09,11.21 -48.239,-29.14 -4.652,-7.07 1.481,-15.97 3.79,-23.36 0,0 0.109,-0.86 -25.43,-9.29 C 502.77,1790.7 347.578,1694.26 262.809,1603.71 l -5.778,677.46 328.239,1.88 z m 719.11,-92.46 c 5.27,0.15 10.35,-1.53 14.53,-5.28 10.89,-9.76 8.36,-23.43 -6.76,-49.14 -15.86,-35.86 -11.53,-64.06 -7.89,-101.72 -0.12,-21.83 -7.54,-42.57 -19.34,-51.56 -19.14,-14.57 -42.73,4.92 -32.81,24.65 5.08,9.84 15.9,4.1 18.44,13.4 0.9,5.54 0.78,14.26 1.4,18.4 -2.3,16.48 -7.03,66.79 -7.03,84.25 0.2,15.04 5.16,33.95 11.99,48.09 6.68,11.8 17.47,18.67 27.47,18.91 z m 30.15,-58.44 c -4.33,-3.63 -11.56,-3.71 -12.42,0.82 0.04,4.69 3.71,19.73 6.29,21.37 15.66,3.67 10.66,-18.32 6.13,-22.19 z m 23.44,23.4 c 12.93,0.5 21.48,-32.5 10.23,-51.8 -2.15,-0.39 -17.85,-0.31 -17.93,-0.63 -0.23,3.48 0.78,10.36 1.96,16.96 1.01,5.62 1.6,9.92 -0.12,15.97 -4.26,15.12 -7.03,17.97 5.86,19.5 z m 24.65,-0.43 c 0.47,0 0.97,0 1.52,0 13.16,-0.08 20.63,-25.39 16.52,-53.05 -0.58,-3.95 -0.93,-8.12 -2.38,-9.06 -5.51,1.48 -20.78,-3.95 -21.05,-3.91 -1.41,1.49 -0.82,9.34 1.09,16.45 3.63,13.08 4.65,21.83 0.39,35.39 -3.05,11.72 -3.12,13.98 3.91,14.18 z m 32.77,-7.31 c 14.45,-2.42 15.39,-42.3 9.45,-55.27 -1.4,-1.92 -6.87,-1.45 -8.82,-2.15 -12.27,-3.51 -9.54,-5.35 -8.13,14.14 1.02,13.4 1.25,23.79 -0.78,34.81 -0.98,4.84 -1.37,8.24 2.15,8.55 2.07,0.43 4.26,0.35 6.13,-0.08 z m -72.07,-15.58 c 5.74,-7.85 1.09,-26.06 -3.28,-32.82 -5,-7.46 -7.03,-8.08 -4.3,-11.32 1.17,-1.41 3.6,-8.44 2.11,-11.41 -2.77,-5.47 4.3,-6.45 10.74,-9.8 10.39,-5.43 15.47,-15.43 23.25,-33.72 2.69,-6.32 8.28,-4.33 5.58,2.5 -2.3,5.86 -3.2,14.5 -4.8,20.28 -1.68,5.9 0.15,8.86 6.99,7.11 10.27,-2.62 8.87,-0.16 12.62,1.21 8.24,4.57 13.79,-1.88 8.82,-5.47 -2.89,-2.03 -8.98,-3.28 -15.74,-5.12 -5.74,-1.6 -4.41,-7.11 1.37,-7.07 5.31,0 20.59,4.3 30.59,7.31 28.51,8.63 29.49,13.2 26.83,-3.01 -3.55,-21.45 -15.27,-37.54 -34.65,-42.97 -16.83,-4.73 -55.78,-3.83 -73.12,1.72 -16.49,7.46 -17.58,12.65 -22.58,27.15 -6.8,19.8 -10.82,53.36 -2.97,72.89 6.88,16.44 6.21,14.72 12.81,13.9 5.9,-2.07 13.83,0.2 15.59,3.83 0.86,1.72 3.12,4.85 4.14,4.81 z m 109.34,-11.88 c 1.64,-8.83 1.79,-17.89 -1.29,-24.73 -1.76,-3.2 -11.76,-3.04 -15.63,-3.08 -2.3,-0.51 -2.11,29.8 0.35,33.12 5.79,8.72 13.32,1.68 16.57,-5.31 z m -289.73,5.24 28.28,-0.36 0,-6.87 -33.4,0.23 5.12,7 z m 98.95,-1.18 0.03,-8.94 -42.57,-0.08 0,-55.86 47.61,-0.15 0.28,-11.61 -63.75,0.2 0.15,76.41 58.25,0.03 z m 216.48,1.76 c 43.67,-9.57 24.18,-57.81 7.81,-60.74 -20.39,-3.63 -37.69,-1.33 -32.03,16.6 5.66,12.15 1.76,27.31 3.36,38.36 3.91,3.63 14.18,7.27 20.86,5.78 z m -329.18,-16.91 42.03,-0.43 0,-9.22 -48.05,0.12 6.02,9.53 z m 93.32,-8.52 c 6.72,0 12.15,-5.43 12.15,-12.15 0,-6.71 -5.43,-12.14 -12.15,-12.14 -6.68,0 -12.11,5.43 -12.11,12.14 0,6.72 5.43,12.15 12.11,12.15 z m 118.55,-4.8 c 7.82,-0.86 8.52,-12.82 5.32,-16.33 -4.1,-4.06 -11.76,-2.31 -14.07,3.91 -2.1,5.62 2.58,12.65 8.75,12.42 z m -223.59,-5.2 53.75,-0.15 0,-7.5 -54.3,-0.43 -1.44,4.8 1.99,3.28 z m 302.58,-3.24 c 7.42,0.2 11.99,-6.09 7.34,-11.41 -7.03,-7.81 -21.33,4.11 -7.34,11.41 z m -572.77,-16.33 c -12.04,-10.15 -2.391,-20.12 13.589,-10.51 34.371,20.67 85.082,4.26 118.121,-12.93 6.45,-3.32 7.35,4.42 0.981,9.73 -30.551,26.88 -95.582,42.31 -132.691,13.71 z m 520.85,14.14 c 8.36,-0.08 8.25,-10.51 2.86,-14.26 -5.39,-2.34 -6.33,-1.67 -9.89,-0.27 -4.92,1.92 -1.25,14.45 7.03,14.53 z m 29.73,-0.19 c 9.92,-0.47 8.83,-20.47 -6.21,-13.28 -5.43,5.86 -1.91,13.32 6.21,13.28 z m -277.81,-10.32 52.23,-0.42 0,-8.52 -48.87,0.51 -3.36,8.43 z m -337.579,-20 c 14.258,-11.32 9.84,-11.99 -13.832,-3.67 -15.469,3.44 -30.859,1.25 -40.539,-2.58 -11.449,-4.53 -14.11,-3.2 -9.141,4.46 13.321,14.92 50.031,11.91 63.512,1.79 z m 68.629,-18.75 c -1.442,-3.51 -6.32,2.86 -12.969,1.61 -9.41,-1.76 -6.711,-2.19 3.289,-13.56 10,-11.37 13.238,-14.02 12.649,-18.4 -0.899,-6.44 0.902,-9.96 7.312,-9.25 3.078,0.31 6.75,-3.25 11.481,-7.54 16.328,-14.85 24.57,-22.23 29.878,-24.5 21.649,-9.33 11.918,1.18 -1.91,10.75 -23.05,15.89 -31.09,26.48 -14.691,20.82 17.391,-6.02 45.082,-2.62 58.711,5.62 6.719,4.02 10.98,10.24 20.43,7.23 13.281,-4.26 18.36,3.55 14.691,7.97 -6.012,3.86 -19.801,8.47 -32.891,17.26 -27.968,14.18 -57.379,13.75 -76.949,2.35 -11.57,-6.72 -15.59,-2 -4.262,4.68 45.391,24.46 81.332,1.02 110.43,-16.56 5.041,-3.05 8.551,-2.81 8.551,-0.66 -0.74,7.11 -13.711,11.48 -18.942,14.65 -40.507,24.64 -83.089,32.53 -114.808,-2.47 z m 275.79,21.68 45.39,-0.03 0,-8.95 -42.07,0.2 -3.32,8.78 z m -369.419,-11.4 c 12.578,0.04 39.961,-11.25 39.488,-20.59 -0.5,-3.55 -7.379,-0.35 -13.32,3.28 -11.52,7 -29.18,8.87 -45.777,5.78 -12.774,-2.38 -16.832,-4.49 -18.633,-2.96 -4.418,9.92 26.601,14.41 38.242,14.49 z m 490.899,-6.68 0.08,-16.06 c -24.65,-1.79 -29.73,-29.18 -13.91,-44.45 12.97,-12.5 34.38,-7.58 45.16,10.16 1.87,3.16 2.11,5.04 3.28,3.47 0.7,-0.97 1.33,-3.94 1.91,-6.83 1.72,-8.44 -0.7,-10.59 -6.29,-17.82 -9.02,-11.67 -10.27,-26.36 -4.61,-37.3 1.57,-3.05 4.81,-7.34 4.26,-9.34 3.17,0.12 -27.97,-87.03 -73.47,-130.93 -7.62,-5.04 -13.13,0.9 -9.18,9.06 37.03,84.69 -33.87,163.32 -61.37,238.98 l 114.14,1.06 z M 938.98,2025 l 6.489,-0.55 c -5.199,-39.02 -43.047,-32.73 -44.528,-0.93 l 5.469,0.15 c 7.34,-29.53 32.649,-17.42 32.57,1.33 z m -213.82,-0.78 c 0,0 2.731,-4.34 2.731,-6.8 0,-9.06 -0.121,-22.19 -0.352,-26.17 -2.23,-37.54 -49.84,-44.49 -46.211,-12.38 2.813,13.63 20.043,15.15 24.293,2.81 6.18,-15.55 7.27,3.71 7.348,9.73 5.082,9.49 8.75,20.93 12.191,32.81 z m 229.531,-2.66 c 1.95,-0.04 5.43,-1.76 8.161,-4.68 3.168,-3.4 1.988,-5.08 -5.352,-8.83 -7.891,-4.07 -11.48,-3.71 -8.629,4.53 1.75,5.12 3.277,9.06 5.82,8.98 z m 356.289,-1.95 c 1.05,-0.08 3.82,-1.49 3.16,-5.55 -1.05,-6.83 -6.95,-10.7 -8.48,-9.1 0.98,3.59 2.15,13.2 5.32,14.65 z m -413.171,-13.2 c -0.93,-2.74 -2.579,-1.57 -6.719,1.99 -4.57,3.9 -4.328,6.37 0.39,9.18 6.758,4.1 7.192,-8.63 6.329,-11.17 z M 753.59,2016.6 c 7.969,-25.12 24.14,-21.91 31.41,-1.21 l 6.949,0.12 c -1.558,-32.35 -42.461,-31.8 -42.847,-0.51 l 4.488,1.6 z m -14.328,-3.12 c 2.418,0.39 0.66,-8.01 0.66,-8.01 0,0 -6.723,3.48 -2.774,7.15 0.512,0.43 1.762,0.82 2.114,0.86 z m 60.117,-2.11 c 0.82,0.04 2.422,-0.59 4.101,-1.72 3.981,-2.66 3.282,-4.18 -1.25,-7.97 -7,-5.82 -10.16,-2.62 -6.371,5.23 1.411,2.93 2.461,4.38 3.52,4.46 z m 522.811,-5.47 c 2.97,0.15 7.11,-1.17 15.9,-3.52 24.25,-6.4 56.68,-6.17 84.25,1.41 8.71,2.42 15.16,-12.89 10.47,-23.99 -2.07,-4.92 -1.72,-5.5 4.65,-12.1 8.99,-9.34 10.43,-24.42 3.59,-38.17 -4.96,-9.96 -4.64,-9.06 1.25,-26.13 2.7,-7.81 6.18,-15.78 6.8,-17.93 7.46,-25.12 25.82,-54.81 37.03,-79.65 11.21,-17.5 -20.08,-0.2 -20.08,-0.2 0,0 8.4,-11.28 19.61,-19.72 10.82,-8.2 32.15,-2.66 41.88,-12.66 2.3,-3.16 -2.19,-69.84 -4.49,-71.68 -96.33,4.49 -256.96,0.94 -256.96,0.94 l 30.12,-46.91 c 47.34,-18.91 92.62,-14.18 135.9,13.08 -1.06,-3.94 52.69,-30.23 96.84,-33.08 l 0.27,-31.57 c -32.74,3.68 -65.94,4.42 -96.37,23.56 0,0 -27.97,-11.68 -55.97,-20.47 l 156.91,-162.31 0.08,-27.14 c 0,0 -66.99,62.54 -135.94,133 l 1.48,-346.6 135.79,-2.65 c -4.26,-90.2 -2.54,-147.54 -1.65,-250.859 -64.17,-65.821 -152.46,-131.68 -234.02,-171.25 -38.48,37.109 -70.31,77.34 -98.12,120.347 -0.59,0.903 2.81,2.622 2.22,3.551 -0.86,1.289 -5.66,1.801 -6.56,3.129 -16.95,25.231 -56.37,95.272 -50.12,96.912 12.03,-0.82 67.97,6.1 79.1,39.61 0.08,2.11 -1.21,8.09 0.32,15.12 3.9,18.16 5.93,45.74 -0.75,63.28 -12.03,31.6 24.15,21.45 25.36,19.34 l -0.04,119.41 c -47.03,-37.73 -94.49,-74.84 -157.39,-90.35 -39.1,197.15 22.93,442.3 199.77,608.59 l -9.73,0.82 c -181.68,-187.97 -229.29,-394.68 -198.32,-612.38 0,0 1.18,-6.8 1.33,-9.1 0.43,-5.43 -0.86,-7.5 -5.66,-11.41 -4.61,-3.01 -8.79,-6.25 -8.36,-9.96 0.78,-6.99 -5.94,-7.23 -14.73,-7.19 -4.06,3.56 -9.49,-0.93 -12.77,-2.54 -4.53,-0.66 -6.8,17.93 -12.62,4.3 -2.23,-8.63 -6.44,-9.26 -16.13,-5 -6.13,1.8 -6.25,-1.25 -0.39,-8.28 8.08,-8.75 14.96,-21.76 13.63,-25.66 -2.97,-8.79 -1.68,-17.62 10.7,-22.66 -0.7,-0.04 -7.5,-26.72 11.72,-25.94 6.13,-0.08 21.6,-3.2 21.6,-3.2 1.02,-5.08 -0.62,-8.01 -3.04,-10.24 l -13.36,6.68 -3.48,-15.89 -17.81,1.25 43.32,-53.52 5.04,41.72 50.66,-6.41 c 8.13,-21.091 59.26,-138.4 157.07,-225.7 0,0 -53.47,-23.239 -68.44,-30.551 l -9.29,33.242 -8.4,-12.07 -14.96,3.828 -1.76,-13.668 -13.32,-4.262 23.24,-17.539 -59.72,-18.16 c -170.59,275.121 -247.781,657.3 -35.32,1061.45 l 53.68,-0.71 -10.51,-17.93 15.27,2.46 4.3,-13.08 11.21,5.31 11.29,-14.14 12.81,37.73 c 0,0 38.01,-0.86 42.77,-0.39 3.71,0.43 80.36,64.73 78.71,67.19 -1.17,1.76 -83.47,-58.36 -86.25,-56.05 0,0 -8.24,-1.96 -1.79,5.74 11.56,13.79 19.69,24.29 31.4,44.18 19.38,26.37 28.09,58.51 32.66,80.31 0.08,1.52 0.51,5.04 -0.78,7.58 -7.42,14.69 -5.78,24.26 7.5,41.52 4.65,6.06 4.92,7.58 3.59,11.29 -2.97,8.4 -0.11,15.59 6.02,21.21 2.42,2.27 3.98,3.32 6.29,3.48 z m -452.268,-58.56 c 33.668,-13.82 6.637,-44.45 -18.402,-17.77 -13.079,14.02 -23.43,13.13 -30.579,2.89 -3.211,-4.61 1.438,-12.69 5.618,-10.12 3.871,2.39 7.82,5.2 13.441,0.04 42.621,-39.22 73.199,15.67 36.48,29.34 -4.57,2.11 -11.011,-2.54 -6.558,-4.38 z m -138.75,1.33 c 0.308,0.04 0.668,-0.15 1.168,-0.43 1.609,-1.01 1.719,-14.88 0.121,-20.7 -5.313,-29.53 -26.371,-98.16 -69.57,-64.57 -17.192,13.32 -1.563,46.83 18.988,35.47 16.012,-8.91 5.191,-30.12 -12.149,-17.93 -8.441,5.9 -5.781,-6.29 1.36,-9.77 12.031,-6.29 33.91,4.49 44.14,23.79 4.071,7.66 7.891,21.25 12.231,40.78 2.148,9.85 2.34,13.28 3.711,13.36 z m 3.629,-51.13 c 3.558,-21.33 -12.692,-58.75 -35.821,-64.26 -17.73,-4.22 -39.601,7.31 -38.039,18.01 0.469,3.09 1.719,-1.02 17.77,-3.67 22.418,-3.67 36.68,8.4 49.57,36.25 4.059,8.83 5.821,13.47 6.52,13.67 z m 55.789,-10.2 c -0.039,-2.42 -1.18,-8.79 -2.192,-12.96 -2.378,-10.04 -3.867,-13.83 7.071,-8.87 7.23,3.36 17.812,6.64 28.793,0.58 12.066,-6.71 23.59,-5.47 37.808,0.55 12.379,4.14 18.399,4.18 25.309,0.2 12.582,-7.23 8.242,-2.62 6.641,15.66 -1.129,12.85 -4.641,11.13 -9.141,6.29 -2.969,-3.2 -8.981,-3.91 -15.66,-0.31 -7.969,4.25 -19.02,2.26 -22.77,-0.78 -3.719,-3.05 -9.148,-3.48 -16.449,1.48 -4.84,3.24 -7.539,1.52 -13.48,-1.13 -9.758,-4.38 -13.508,-2 -18.821,2.11 -4.808,3.51 -7.078,2.42 -7.109,-2.82 z m -48.52,-15.35 c 1.25,0.04 1.41,-4.92 0.508,-14.84 -4.058,-36.6 -32.738,-56.99 -66.488,-39.26 -14.801,8.44 -12.77,14.38 1.762,9.1 23.238,-8.44 46.679,3.36 58.128,33.44 2.93,7.69 4.961,11.56 6.09,11.56 z m 82.34,-26.09 c 16.719,-6.92 35.238,-4.73 39.93,1.4 5.269,6.88 -2.82,5.75 -7.07,4.69 -14.61,-3.47 -24.649,-2.22 -30.551,0.43 -17.309,6.68 -16.207,-0.58 -2.309,-6.52 z m -174.101,-20.55 c 21.64,-26.48 24.492,-31.64 43.132,-61.76 C 829.691,1532.3 873.32,1240.04 783.75,974.691 759.141,901.449 724.488,826.84 685.621,766.879 l -46.672,-0.469 16.051,18.238 -21.719,-1.597 -1.332,12.07 -16.48,-5.32 -7.93,18.25 -14.918,-41.723 -86.492,-0.238 c 202.543,196.801 242.422,435.32 204.652,626.8 0,0 16.918,10.59 19.297,16.76 0.543,1.52 1.832,7.89 2.973,8.87 7.539,4.92 12.539,9.68 16.25,8.75 2.148,-0.55 3.238,-1.53 4.801,-3.79 7.109,-10.47 8.668,-12.11 12.539,-1.57 2.808,7.58 1.597,10.32 10.781,8.83 5.387,-2.85 12.539,-2.77 11.918,-1.68 -0.512,0.78 -8.129,9.73 -11.762,14.85 -8.558,12.03 -10.976,14.18 -10.199,19.45 1.211,8.05 -5.188,16.72 -9.18,18.87 1.141,21.64 -7.148,23.79 -30.66,28.63 -0.16,3.71 0.512,6.76 2.152,10.08 l 13.829,-10.98 5,20.39 18.75,-1.01 -54.379,52.61 c 0.269,-14.84 0.98,-29.84 -0.352,-44.14 -25.508,1.37 -50.629,9.61 -51.019,8.05 -37.418,88.09 -94.411,162.58 -154.61,220.74 l 60.121,28.87 17.028,-32.5 4.179,18.44 14.922,-2.62 2.5,11.8 16.488,2.3 -18.199,17.27 46.36,15.19 z m 358.091,-38.01 c 2.26,-2.89 4.14,-3.08 7.19,-5.7 l -6.14,-4.37 c 0.28,4.14 -0.07,6.25 -1.05,10.07 z m -400.08,-10.86 c -5.082,0 -9.261,-4.14 -9.261,-9.25 0,-5.08 4.179,-9.22 9.261,-9.22 5.121,0 9.219,4.14 9.219,9.22 0,5.11 -4.098,9.25 -9.219,9.25 z m 50.2,-1.44 c -5.122,0 -9.301,-4.14 -9.301,-9.26 0,-5.12 4.179,-9.26 9.301,-9.26 5.07,0 9.25,4.14 9.25,9.26 0,5.12 -4.18,9.26 -9.25,9.26 z m -161.641,-6.8 c 29.762,-24.72 57.141,-56.95 90.351,-107.42 l -0.71,-6.8 10.16,-3.75 c 0,0 55.23,-72.69 52.3,-105 -18.941,-3.94 -33.628,3.05 -67.531,-28.63 l -21.801,4.73 -22.929,-5.59 c 0,0 0.312,-7.19 6.011,-9.61 2.469,-1.05 6.61,9.03 9.258,8.71 11.133,-1.29 22.391,-1.48 20.313,-4.96 -2.34,-1.01 -8.321,-73.24 3.32,-88.59 6.488,-15.67 1.84,-15.55 -3.98,-18.44 -6.332,-4.14 -26.25,4.61 -26.25,4.61 L 550,1292.81 c 52.5,59.92 163.441,99.89 155.59,95.55 55.66,-294.1 -76.719,-490.309 -215.281,-634.141 l 72.621,-0.43 c 0,0 -62.621,-100.43 -67.27,-128.199 3.559,-9.219 13.399,-28.32 -3.238,-41.762 -5.621,-6.168 -6.211,-34.137 -6.211,-34.137 -38.199,-1.332 -71.289,11.95 -115.313,-3.519 -4.57,-1.524 -5.546,23.988 -5.777,28.598 -13.519,12.652 -15.672,38.39 -3.992,51.789 4.34,4.921 2.5,2.312 -1.129,18.992 -5.82,26.558 -25.121,63.039 -39.801,86.437 -4.847,7.703 -9.648,16.641 -10.82,19.422 -10.508,12.461 -38.168,6.68 -41.527,9.961 -3.051,2.578 -5,70.578 -1.911,72.219 108.829,-8.629 279.137,1.25 279.137,1.25 l -45.699,63.832 C 443.09,920.621 365.738,883.16 369.449,881.172 369.648,880.98 307.621,915 264.609,910.16 l 1.411,33.36 c 38.199,0.152 73.468,-7 104.25,-25.122 l 52.269,19.454 -160.238,168.128 1.84,27.69 c 0,0 40.937,-43.79 85.468,-90.62 38.161,-40.16 52.461,-46.921 52.461,-46.921 l 0.121,348.671 -137.812,0.36 -3.68,71.25 -3.59,6.25 -1.597,51.13 3.828,5.19 -1.328,21.84 -1.293,3.13 -1.758,52.22 2.969,4.42 0.468,32.85 c 66.563,65.19 238.481,174.8 238.481,174.8 z m 117.73,-9.88 16.051,-70.39 10.789,13.36 16.52,-5.2 1.133,16.21 15.078,5.24 -59.571,40.78 z m 547.581,-11.72 c -5.12,0 -9.3,-4.14 -9.3,-9.26 0,-5.11 4.18,-9.26 9.3,-9.26 5.11,0 9.26,4.15 9.26,9.26 0,5.12 -4.15,9.26 -9.26,9.26 z m -43.36,-5.78 c -5.12,0 -9.26,-4.14 -9.26,-9.26 0,-5.12 4.14,-9.26 9.26,-9.26 5.12,0 9.26,4.14 9.26,9.26 0,5.12 -4.14,9.26 -9.26,9.26 z m -530.978,-8.2 c -5.122,0 -9.262,-4.14 -9.262,-9.26 0,-5.12 4.14,-9.26 9.262,-9.26 5.117,0 9.296,4.14 9.296,9.26 0,5.12 -4.179,9.26 -9.296,9.26 z m 564.218,-5.59 -64.45,-60.62 18.04,0.78 3.25,-17.7 16.17,7.38 13.08,-12.07 13.91,82.23 z m 27.42,-20.35 c -5.11,0 -9.26,-4.18 -9.26,-9.3 0,-5.08 4.15,-9.26 9.26,-9.26 5.12,0 9.26,4.18 9.26,9.26 0,5.12 -4.14,9.3 -9.26,9.3 z m -512.58,-11.95 c -5.109,0 -9.25,-4.15 -9.25,-9.26 0,-5.12 4.141,-9.26 9.25,-9.26 5.121,0 9.262,4.14 9.262,9.26 0,5.11 -4.141,9.26 -9.262,9.26 z m 40.078,-7.74 c -5.109,0 -9.258,-4.14 -9.258,-9.26 0,-5.11 4.149,-9.25 9.258,-9.25 5.121,0 9.262,4.14 9.262,9.25 0,5.12 -4.141,9.26 -9.262,9.26 z m -36.367,-13.79 c 1.758,-24.76 4.649,-54.14 5.32,-78.94 l 12.219,12.03 14.11,-5.74 5.031,15.23 15.359,0.74 -52.039,56.68 z m 396.879,-20.66 c -5.12,0 -9.26,-4.14 -9.26,-9.26 0,-5.12 4.14,-9.26 9.26,-9.26 5.12,0 9.26,4.14 9.26,9.26 0,5.12 -4.14,9.26 -9.26,9.26 z m -423.441,-1.6 c -5.11,0 -9.258,-4.14 -9.258,-9.26 0,-5.12 4.148,-9.3 9.258,-9.3 5.121,0 9.261,4.18 9.261,9.3 0,5.12 -4.14,9.26 -9.261,9.26 z m 460.161,-2.27 c -5.12,0 -9.26,-4.14 -9.26,-9.26 0,-5.11 4.88,-9.25 9.26,-9.25 4.33,0 9.26,4.14 9.26,9.25 0,5.12 -4.14,9.26 -9.26,9.26 z m -5.51,-20 -53.44,-54.96 17.5,-1.64 5.51,-15.59 11.21,9.5 13.6,-9.97 5.62,72.66 z m 29.34,-11.8 c -5.12,0 -9.26,-4.14 -9.26,-9.25 0,-5.12 4.14,-9.26 9.26,-9.26 5.11,0 9.25,4.14 9.25,9.26 0,5.11 -4.14,9.25 -9.25,9.25 z M 706.762,1599.8 c -5.121,0 -9.262,-4.14 -9.262,-9.25 0,-5.12 4.141,-9.26 9.262,-9.26 5.117,0 9.258,4.88 9.258,9.26 0,4.33 -4.141,9.25 -9.258,9.25 z m -226.961,-5.66 -17.379,-13.32 4.297,0.63 c 0,0 10.511,-12.23 10.511,-13.09 0,-0.86 6.442,0.23 6.442,0.23 l -3.871,25.55 z m 270.75,-8.09 c -5.121,0 -9.262,-4.14 -9.262,-9.25 0,-5.12 4.141,-9.26 9.262,-9.26 5.109,0 9.289,4.14 9.289,9.26 0,5.11 -4.18,9.25 -9.289,9.25 z m -66.332,-13.2 c -5.117,0 -9.258,-4.14 -9.258,-9.26 0,-5.11 4.141,-9.25 9.258,-9.25 5.121,0 9.261,4.14 9.261,9.25 0,5.12 -4.14,9.26 -9.261,9.26 z m 382.621,-18.67 c -5.12,0 -9.26,-4.14 -9.26,-9.26 0,-5.12 4.14,-9.26 9.26,-9.26 5.11,0 9.25,4.14 9.25,9.26 0,5.12 -4.14,9.26 -9.25,9.26 z m -36.57,-13.59 c -5.11,0 -9.25,-4.14 -9.25,-9.26 0,-5.12 4.14,-9.26 9.25,-9.26 5.12,0 9.26,4.14 9.26,9.26 0,5.12 -4.14,9.26 -9.26,9.26 z m 373.17,-2.27 19.22,-20.94 0,-306.01 -18.79,-0.39 -0.43,327.34 z m -749.221,-2.19 c 15.66,0 33.16,-2.26 38.711,-11.79 8.672,-10.71 -9.731,-6.57 -25.231,-8.87 -14.301,-1.76 -6.019,-4.69 14.18,-5.86 27.891,-1.64 38.82,-2.38 42.961,-8.79 2.351,-5.98 0.629,-10.04 1.14,-16.44 l -31.64,1.48 c -16.41,-0.04 -26.02,0.27 -30.899,-0.98 -3.871,-0.97 -2.781,-4.1 -1.453,-5.43 0.711,-0.7 13.282,-0.86 27.973,-1.25 39.57,-1.01 48.359,-2.38 51.129,-15.11 2.148,-11.64 -7.379,-9.89 -48.039,-5.43 -18.09,1.44 -27.821,-2.82 -30.43,-4.07 -4.461,-2.18 12.93,-4.37 18.59,-3.43 3.559,0.54 29.648,-2.27 39.258,-4.07 8.082,-1.21 0.98,-1.01 -3.129,-5.93 -2.692,-4.07 -1.828,-8.75 -6.051,-11.02 -5.199,-2.73 -15.469,-2.69 -33.91,-2.69 -21.09,0 -30.899,-5.12 -1.988,-6.41 18.711,-0.78 19.769,-0.47 21.328,-5.86 4.261,-13.32 -4.77,-15.66 -23.828,-18.67 -9.102,-1.56 -22.621,-0.71 -32.813,0.04 -40.348,2.85 -54.297,12.46 -59.769,30.23 -20.348,66.33 4.769,106.8 63.519,110.04 3.242,0.2 6.762,0.31 10.391,0.31 z m 407.581,-2.97 -45.55,-66.21 17.58,6.84 8.36,-17.97 14.02,10 14.02,-8.63 -8.43,75.97 z m -340.71,-8.04 c 2.39,-2.89 1.332,-5.04 -2.57,-7.15 -3.29,-1.8 -8.911,-0.47 -12.622,1.13 -4.918,2.11 -5.386,10.86 -1.367,11.8 5.778,1.17 12.969,-1.52 16.559,-5.78 z m -329.801,3.4 -24.918,-23.83 0.777,-0.94 32.774,12.93 -8.633,11.84 z m 698.911,-10.2 c -5.12,0 -9.26,-4.14 -9.26,-9.26 0,-5.11 4.14,-9.26 9.26,-9.26 5.11,0 9.25,4.15 9.25,9.26 0,5.12 -4.14,9.26 -9.25,9.26 z m 339.06,-8.01 c 0,0 23.16,-22.89 32.69,-32.5 l -8.59,0 0.23,-18.04 27.43,-0.32 15.07,-14.76 -41.91,0.19 0,-18.43 51.87,-0.04 -0.23,7.89 20.47,-18.56 2.46,-205.23 -98.91,0.31 c -0.35,101.06 -0.07,198.48 -0.58,299.49 z m -678.401,-22.22 c -1.41,-4.46 -4.609,-4.46 -10,-2.23 -8.05,3.24 -6.91,12.11 -0.82,13.05 11.481,1.29 13.59,-3.99 10.82,-10.82 z m 31.129,-3.87 c -5.109,0 -9.258,-4.14 -9.258,-9.26 0,-5.12 4.149,-9.26 9.258,-9.26 5.121,0 9.262,4.14 9.262,9.26 0,5.12 -4.141,9.26 -9.262,9.26 z m -32.609,-7.11 c 3.633,-0.23 7.223,-2.07 9.25,-4.1 5.082,-5.12 3.281,-9.89 -2.379,-12.81 -6.328,-3.32 -10.82,1.17 -12.66,8.71 -1.25,5.07 1.719,8.04 5.789,8.2 z m 290.781,-24.3 c -5.16,0 -9.3,-4.14 -9.3,-9.29 0,-5.12 4.14,-9.3 9.3,-9.3 5.11,0 9.29,4.18 9.29,9.3 0,5.15 -4.18,9.29 -9.29,9.29 z m -306.101,-11.29 c 7.972,-0.23 10.39,-8.4 6.211,-12.77 -5.969,-5.94 -15.27,-3.4 -16.598,2.27 -0.391,6.36 4.808,10.5 10.387,10.5 z m 272.891,-3.75 c -5.11,0 -9.251,-4.14 -9.251,-9.25 0,-5.12 4.141,-9.26 9.251,-9.26 5.12,0 9.26,4.14 9.26,9.26 0,5.11 -4.14,9.25 -9.26,9.25 z m 32.89,-6.13 -41.442,-69.53 16.802,6.64 10.15,-13.4 10.47,9.14 15.82,-7.73 -11.8,74.88 z M 714.57,1420 c 7.418,0 9.489,-5.82 4.102,-11.17 -3.672,-3.63 -7.813,-3.75 -12.031,-0.39 -6.411,5.08 -1.481,11.64 7.929,11.56 z m 354.34,-0.86 c -5.12,0 -9.3,-4.14 -9.3,-9.26 0,-5.11 4.18,-9.26 9.3,-9.26 5.11,0 9.25,4.15 9.25,9.26 0,5.12 -4.14,9.26 -9.25,9.26 z m -301.801,-7.26 c -5.121,0 -8.871,-4.18 -8.871,-9.3 0,-5.12 4.141,-9.26 9.262,-9.26 5.121,0 9.262,4.14 9.262,9.26 0,5.12 -4.532,9.3 -9.653,9.3 z m 686.721,-2.08 0,-19.64 52.22,-0.04 0,19.65 -52.22,0.03 z m -686.021,-17.46 -20.039,-73.08 16.761,9.53 10.43,-10.67 9.73,11.96 17.457,-4.53 -34.339,66.79 z m 35.55,-7.93 c -5.121,0 -9.257,-4.14 -9.257,-9.25 0,-5.12 4.136,-9.26 9.257,-9.26 5.121,0 9.262,4.14 9.262,9.26 0,5.11 -4.141,9.25 -9.262,9.25 z m -65.199,-3.71 c -5.109,0 -9.25,-4.14 -9.25,-9.25 0,-5.12 4.141,-9.26 9.25,-9.26 5.121,0 9.262,4.14 9.262,9.26 0,5.11 -4.141,9.25 -9.262,9.25 z m 715.63,-5.78 0.04,-17.65 52.22,0 -0.03,17.53 -52.23,0.12 z m -429.81,-23.08 c -5.11,0 -9.25,-4.14 -9.25,-9.26 0,-5.12 4.14,-9.26 9.25,-9.26 5.12,0 9.26,4.14 9.26,9.26 0,5.12 -4.14,9.26 -9.26,9.26 z m 429.85,-9.85 0,-19.02 52.22,0 0,19.02 -52.22,0 z m -1076.99,-2.34 18.39,-0.31 0.282,-331.53 -17.891,18.95 -0.781,312.89 z m -7.66,-0.63 -0.899,-303 -34.801,36.6 9.25,0.11 0,20.63 -30.152,0.23 -12.848,12.54 42.969,-0.04 0,20.28 -50.98,0.19 0,-12.26 -25.078,26.72 0.429,197.85 102.11,0.15 z m 656.17,-9.25 -27.889,-72.11 17.539,10 9.06,-8.95 9.38,8.48 15.94,-7.78 -24.03,70.36 z m -733.51,-3.48 -0.281,-19.38 51.492,0 0,19.38 -51.211,0 z m 765.07,-3.91 c -5.11,0 -9.25,-4.14 -9.25,-9.26 0,-5.11 4.14,-9.25 9.25,-9.25 5.12,0 9.26,4.14 9.26,9.25 0,5.12 -4.14,9.26 -9.26,9.26 z m -63.039,-1.01 c -5.121,0 -9.262,-4.18 -9.262,-9.26 0,-5.12 4.141,-9.3 9.262,-9.3 5.109,0 9.289,4.18 9.289,9.3 0,5.08 -4.18,9.26 -9.289,9.26 z m -217.93,-3.48 c -5.121,0 -9.3,-4.14 -9.3,-9.26 0,-5.11 4.179,-9.25 9.3,-9.25 5.11,0 9.258,4.14 9.258,9.25 0,5.12 -4.148,9.26 -9.258,9.26 z m 677.889,-7.46 0,-20.39 52.22,0 0,20.39 -52.22,0 z m -679.06,-11.48 -7.739,-12 -17.73,6.06 24.179,-73.17 30.348,76.33 -17.418,-9.96 -11.64,12.74 z m -482.93,-5.32 0,-19.37 51.211,0 0,19.37 -51.211,0 z m 1161.99,-17.38 0,-20.2 52.19,0 0.03,20.2 -52.22,0 z m -1161.99,-16.87 0,-19.42 51.211,0 0,19.42 -51.211,0 z m 732.85,-3.64 c -5.16,0 -9.34,-4.18 -9.34,-9.29 0,-5.16 4.18,-9.3 9.34,-9.3 5.11,0 9.29,4.14 9.29,9.3 0,5.11 -4.18,9.29 -9.29,9.29 z m -278.87,-9.69 c -5.16,0 -9.3,-4.17 -9.3,-9.29 0,-5.16 4.14,-9.3 9.3,-9.3 5.121,0 9.301,4.14 9.301,9.3 0,5.12 -4.18,9.29 -9.301,9.29 z m 59.45,-1.75 c -5.149,0 -9.29,-4.14 -9.29,-9.3 0,-5.12 4.141,-9.3 9.29,-9.3 5.121,0 9.3,4.18 9.3,9.3 0,5.16 -4.179,9.3 -9.3,9.3 z m 648.56,-1.29 0,-18.21 52.19,0 0.03,18.21 -52.22,0 z m -429.22,-8.52 -11.09,-11.64 -15.899,4.53 36.049,-67.26 18.21,72.34 -15.9,-10.12 -11.37,12.15 z m -732.77,-6.79 0,-22.04 51.211,0 0,22.04 -51.211,0 z m 483.281,-10 c -5.121,0 -9.301,-4.18 -9.301,-9.3 0,-5.16 4.18,-9.3 9.301,-9.3 5.149,0 9.289,4.14 9.289,9.3 0,5.12 -4.14,9.3 -9.289,9.3 z m -0.59,-19.18 c -3.98,-2.82 -5.703,-7.74 -9.84,-10.28 l -16.921,7.23 10.16,-91.6 46.992,86.52 -21.481,-3.59 -8.91,11.72 z m -482.691,-3.01 0,-22.89 51.211,0 0,22.89 -51.211,0 z m 769.1,-10.59 c -5.16,0 -9.3,-4.18 -9.3,-9.3 0,-5.15 4.14,-9.29 9.3,-9.29 5.11,0 9.29,4.14 9.29,9.29 0,5.12 -4.18,9.3 -9.29,9.3 z m -60.12,-1.09 c -5.16,0 -9.3,-4.14 -9.3,-9.3 0,-5.12 4.14,-9.3 9.3,-9.3 5.12,0 9.3,4.18 9.3,9.3 0,5.16 -4.18,9.3 -9.3,9.3 z m -708.98,-21.53 0,-22.92 51.211,0 0,22.92 -51.211,0 z m 742.5,-5.11 c -5.12,0 -9.3,-4.14 -9.3,-9.3 0,-5.12 4.18,-9.3 9.3,-9.3 5.15,0 9.29,4.18 9.29,9.3 0,5.16 -4.14,9.3 -9.29,9.3 z m 131.28,-0.71 c 49.81,-1.6 57.11,-17.61 57.39,-72.93 0.23,-44.14 -12.89,-61.4 -45.04,-69.92 -11.72,-3.08 -55.51,-0.23 -67.89,3.75 -0.24,3.79 -6.41,12.54 -7.81,19.3 3.16,0.9 13.16,-0.51 32.11,-2.3 15.35,-1.45 19.29,1.01 14.45,4.02 -28.91,6.83 -48.56,4.96 -76.33,10.31 -0.39,8.28 -7.11,17.97 -7.11,17.97 1.52,0.59 42.81,-3.87 64.57,-3.16 9.61,0.39 3.83,4.88 -0.04,5.74 -25.39,3.63 -41.91,3.04 -68.79,6.44 0.75,6.84 -2.73,13.09 -7.07,18.36 0,0 13.6,0.12 41.6,-0.31 14.73,-0.23 27.58,-0.82 34.03,-0.63 10.82,0.04 9.84,5.08 0.43,5.79 -11.45,1.25 -56.49,1.52 -56.49,1.52 3.36,1.56 7.74,21.72 6.02,21.95 0,0 11.68,-0.23 19.06,0.04 36.13,1.33 42.34,0.78 43.01,2.11 4.76,4.34 -8.05,6.06 -21.41,6.02 -5.74,-0.04 -14.14,-1.29 -14.06,1.83 0.04,2.89 -0.08,8.79 -3.01,14.89 22.15,8.51 42.5,9.84 62.38,9.21 z m -429.37,-11.36 c -5.121,0 -9.301,-4.18 -9.301,-9.3 0,-5.16 4.18,-9.3 9.301,-9.3 5.16,0 9.301,4.14 9.301,9.3 0,5.12 -4.141,9.3 -9.301,9.3 z m 355.27,-1.96 c 6.14,0 8.09,-11.05 2.31,-12.77 -8.83,-2.66 -13.67,-0.55 -13.36,4.65 0.19,2.97 7.07,8.16 11.05,8.12 z m -294.532,-9.57 c -5.148,0 -9.289,-4.18 -9.289,-9.33 0,-5.12 4.141,-9.3 9.289,-9.3 5.121,0 9.301,4.18 9.301,9.3 0,5.15 -4.18,9.33 -9.301,9.33 z m 264.852,-10.47 c 21.05,0.2 10.15,-28.43 -6.06,-18.08 -8.01,5.12 -2.38,18.05 6.06,18.08 z m -332.86,-22.89 c -0.429,0.04 -0.621,-0.39 -0.582,-1.44 l 4.84,-86.99 50.672,81.29 -20.121,-7.5 -8.668,13.12 -10.859,-8.51 c -4.461,-3.52 -12.934,9.84 -15.282,10.03 z m 313.32,-8.9 c 9.46,-1.29 15.75,-10.74 9.22,-15.31 -14.76,-6.45 -22.69,14.68 -9.22,15.31 z m -22.65,-19.06 c -5.16,0 -9.3,-4.18 -9.3,-9.34 0,-5.12 4.14,-9.3 9.3,-9.3 5.12,0 9.3,4.18 9.3,9.3 0,5.16 -4.18,9.34 -9.3,9.34 z m 35.78,-7.89 c 8.05,0.11 11.8,-11.57 3.87,-15.24 -1.72,-0.78 -6.72,-1.33 -8.99,0.31 -9.37,6.92 -4.49,14.18 5.12,14.93 z m -348.239,-14.34 c -5.121,0 -9.3,-4.18 -9.3,-9.3 0,-5.15 4.179,-9.29 9.3,-9.29 5.149,0 9.289,4.14 9.289,9.29 0,5.12 -4.14,9.3 -9.289,9.3 z m 710.389,-11.68 -34.46,-11.56 0,-16.29 c 15.04,4.76 23.64,16.99 34.46,27.85 z m -323.01,-7.85 c 5.98,-2.5 7.62,-10.63 2.46,-13.32 -4.02,-2.15 -15,-1.8 -17.69,1.72 -6.96,11.17 8,14.33 15.23,11.6 z m -324.922,-3.21 c -5.117,0 -9.296,-4.18 -9.296,-9.29 0,-5.16 4.179,-9.34 9.296,-9.34 5.153,0 9.301,4.18 9.301,9.34 0,5.11 -4.148,9.29 -9.301,9.29 z m -38.089,-16.09 c -4.528,0 -8.2,-3.67 -8.2,-8.2 0,-4.53 3.672,-8.209 8.2,-8.209 4.531,0 8.211,3.679 8.211,8.209 0,4.53 -3.68,8.2 -8.211,8.2 z m 386.601,-13.831 c -5.15,0 -9.29,-4.141 -9.29,-9.289 0,-5.121 4.14,-9.301 9.29,-9.301 5.12,0 9.3,4.18 9.3,9.301 0,5.148 -4.18,9.289 -9.3,9.289 z m -416.558,-0.5 -0.473,-82.188 54.812,67.258 -18.992,-4.14 -8.121,16.679 -11.758,-7.609 -15.468,10 z m 347.928,-18.91 c -5.15,0 -9.3,-4.18 -9.3,-9.297 0,-5.152 4.15,-9.332 9.3,-9.332 5.12,0 9.3,4.18 9.3,9.332 0,5.117 -4.18,9.297 -9.3,9.297 z m 274.3,-0.309 -8.99,-15.359 25.51,14.148 -16.52,1.211 z m -237.19,-10.941 c -5.12,0 -9.3,-4.18 -9.3,-9.297 0,-5.152 4.18,-9.301 9.3,-9.301 5.16,0 9.3,4.149 9.3,9.301 0,5.117 -4.14,9.297 -9.3,9.297 z m 31.33,-10.039 -11.13,-15.86 -14.65,4.692 -4.3,-15.082 -17.58,0.621 57.11,-49.723 -9.45,75.352 z m -445.271,-6.328 c -5.16,0 -9.301,-4.18 -9.301,-9.332 0,-5.122 4.141,-9.301 9.301,-9.301 5.11,0 9.289,4.179 9.289,9.301 0,5.152 -4.179,9.332 -9.289,9.332 z m 856.641,-13.364 4.64,-681.437 -324.84,-0.711 -133.71,182.621 c -2.77,29.769 -1.17,60.269 11.37,100.199 13.08,-9.07 41.72,-4.109 40.74,31.012 -0.63,22.969 -36.09,34.769 -53.75,17.457 0.94,22.23 9.96,55.633 22.93,65.473 8.94,-8.122 10.9,-20.122 31.09,-16.762 14.34,2.39 25.67,18.398 19.46,37.07 -1.57,4.731 -2.43,10.512 -2.43,14.34 0.04,3.871 0.39,10.699 -0.39,14.531 -0.97,5.078 -1.36,10.59 -1.36,10.59 173.04,54.289 296.79,141.168 386.25,225.617 z M 737.809,925.27 c -5.149,0 -9.289,-4.141 -9.289,-9.29 0,-5.121 4.14,-9.3 9.289,-9.3 5.121,0 9.3,4.179 9.3,9.3 0,5.149 -4.179,9.29 -9.3,9.29 z m -43.86,-9.059 c -5.121,0 -9.301,-4.18 -9.301,-9.301 0,-5.148 4.18,-9.332 9.301,-9.332 5.153,0 9.289,4.184 9.289,9.332 0,5.121 -4.136,9.301 -9.289,9.301 z m 460.191,-4.492 c -5.12,0 -9.3,-4.18 -9.3,-9.297 0,-5.152 4.18,-9.301 9.3,-9.301 5.16,0 9.3,4.149 9.3,9.301 0,5.117 -4.14,9.297 -9.3,9.297 z m -493.55,-9.918 -14.5,-86.602 63.32,64.723 -17.18,0.387 -3.441,14.769 -16.09,-5.199 -12.109,11.922 z m 430.5,-18.481 c -5.11,0 -9.29,-4.179 -9.29,-9.3 0,-5.149 4.18,-9.29 9.29,-9.29 5.16,0 9.3,4.141 9.3,9.29 0,5.121 -4.14,9.3 -9.3,9.3 z m 41.06,-10.082 c -5.16,0 -9.34,-4.179 -9.34,-9.328 0,-5.121 4.18,-9.301 9.34,-9.301 5.12,0 9.3,4.18 9.3,9.301 0,5.149 -4.18,9.328 -9.3,9.328 z M 621.172,861.949 c -5.152,0 -9.293,-4.179 -9.293,-9.289 0,-5.16 4.141,-9.34 9.293,-9.34 5.117,0 9.297,4.18 9.297,9.34 0,5.11 -4.18,9.289 -9.297,9.289 z m 547.968,-7.027 -15.16,-11.524 -13.9,8.512 -3.28,-18.359 -11.88,-6.25 49.85,-34.922 -5.63,62.543 z m 36.84,-24.762 c -5.16,0 -9.3,-4.18 -9.3,-9.301 0,-5.16 4.14,-9.3 9.3,-9.3 5.11,0 9.29,4.14 9.29,9.3 0,5.121 -4.18,9.301 -9.29,9.301 z m -525.902,-3.129 c -5.156,0 -9.297,-4.179 -9.297,-9.332 0,-5.121 4.141,-9.301 9.297,-9.301 5.121,0 9.301,4.18 9.301,9.301 0,5.153 -4.18,9.332 -9.301,9.332 z m -41.289,-12.152 c -5.16,0 -9.34,-4.18 -9.34,-9.289 0,-5.16 4.18,-9.34 9.34,-9.34 5.121,0 9.301,4.18 9.301,9.34 0,5.109 -4.18,9.289 -9.301,9.289 z M 1182.15,790.27 c -5.12,0 -9.3,-4.141 -9.3,-9.29 0,-5.121 4.18,-9.3 9.3,-9.3 5.15,0 9.3,4.179 9.3,9.3 0,5.149 -4.15,9.29 -9.3,9.29 z m -38.99,-8.321 c -5.11,0 -9.29,-4.14 -9.29,-9.289 0,-5.121 4.18,-9.301 9.29,-9.301 5.16,0 9.3,4.18 9.3,9.301 0,5.11 -4.14,9.289 -9.3,9.289 z M 783.121,768.711 c 0.039,0 0.117,-0.039 0.16,-0.082 1.059,-1.09 4.258,-9.57 1.41,-13.859 -1.492,0.699 -8.171,6.91 -6.492,9.019 0.821,0.981 4.071,4.922 4.922,4.922 z M 572.07,754.141 c 0,0 9.02,-0.469 10.981,-1.332 0,-2.297 -2.153,-7.34 -4.61,-12.969 -12.113,-28.078 -13.992,-59.57 -1.64,-89.961 19.328,-41.207 73.98,-138.707 69.918,-147.609 l -120.739,-0.508 0.54,18.359 c 33.91,1.359 39.261,22.07 30.781,39.219 C 551.449,571.211 535,578.012 520,571.801 498.281,562.77 496.949,552.07 489.219,535.43 l -3.481,4.41 c 6.532,8.64 8.711,16.961 8.172,26.449 -0.512,9.301 -0.789,6.762 2.461,11.832 18.899,20.32 6.52,46.719 6.52,46.719 -2.27,16.25 56.519,119.769 69.179,129.301 z M 296.02,751.48 c 34.332,-27.339 64.058,-119.332 62.261,-120.742 -1.601,1.293 -27.66,-29.566 0.43,-58.316 0,0 -1.723,-17.262 3.668,-26.172 -12.379,-25.699 -14.57,-27.66 -15.617,-48.789 -0.242,0.078 -2.153,0.238 -13.672,0.269 -56.879,0.282 -59.539,-72.031 -2.699,-76.011 7.769,-0.547 10.468,1.211 15.16,-3.399 4.758,-5.941 9.019,-11.84 17.148,-8.789 1.91,0 5.031,-1.832 8.321,-4.84 5.46,-7.421 13.39,-12.66 24.679,-10.632 4.031,-0.387 8.129,-1.559 12.461,-3.118 5,-3.953 13.641,-6.921 20.391,-3.953 2,0.864 5.859,1.172 9.027,-0.269 8.242,-3.75 16.602,-1.41 19.692,0.941 7.609,3.981 9.289,-2.39 8.941,-8.25 -3.91,-13.359 4.648,-25.93 17.617,-30.859 27.301,-8.43 41.094,8.359 46.953,41.679 1.449,7.309 2.739,16.02 2.739,16.02 l 91.441,-2.422 -131.289,-152.148 -223.512,-2.731 -1.18,502.77 c 9.809,0.551 17.231,-0.239 27.04,-0.239 z m 822.26,-27.14 c 16.68,-6.449 18.01,-18.211 1.41,-13.09 -26.99,8.281 -56.02,-8.199 -62.07,-31.762 -1.14,-4.328 -2.31,-7.609 -3.01,-8.437 -3.75,-4.571 -3.59,-0.43 -2.46,12.66 2.19,25.391 20.12,43.789 43.55,44.527 7.66,0 15.94,-1.597 22.58,-3.898 z M 1110,706.371 c 6.99,0 14.38,-2.031 19.88,-6.84 6.25,-6.832 4.38,-11.41 -0.43,-11.172 -22.57,9.45 -51.33,-1.988 -62.57,-30.507 -6.92,-17.5 -8.13,-8.122 -5.08,5.429 5.66,24.528 24.33,42.66 48.2,43.09 z m -157.148,-6.762 c -9.84,-0.039 -19.223,-1.949 -23.981,-6.488 -9.07,-8.551 -1.531,-8.672 14.879,-3 7.969,2.77 23.32,1.52 33.129,-1.883 8.242,-2.847 11.133,-4.058 10.66,-1.476 -0.43,7.687 -18.238,12.929 -34.687,12.847 z M 1137.07,670.98 c 4.14,-9.5 1.45,-26.289 -13.05,-27.968 -17.14,-1.992 -25.97,26.718 5.28,21.679 -4.03,11.481 -18.09,8.321 -25,5.387 -14.1,-6.168 -23.71,-20.039 -32.39,-45.508 -2.53,-7.539 -4.41,-11.48 -5.43,-10.742 -1.6,1.293 -2.38,13.012 1.37,27.152 6.84,25.469 23.4,40.899 40.98,41.36 11.37,1.762 24.65,-3.121 28.24,-11.36 z m -245.039,11.051 c -1.48,-0.312 1.168,-5.66 5.348,-13.98 2.269,-4.61 3.871,-10.551 3.871,-11.723 -0.039,-4.527 3.441,-5.668 8.52,-2.738 5.89,3.32 6.832,5.859 15.152,2.148 7.848,-4.136 15.59,-6.718 22.738,-2.539 3.86,2.27 6.442,2.153 13.981,0.199 8.949,-2.378 10.16,-2.738 16.839,0.082 8.551,3.551 18.711,1.09 20.899,-1.289 2.031,-2.312 0.851,0.86 5.501,11.637 2.15,5 5.24,11.094 4.38,12.774 -1.14,2.308 -8.95,-0.231 -17.42,-2.461 -4.57,-1.211 -8.949,-0.821 -17.781,1.64 -18.547,5.239 -30.231,3.75 -41.829,-1.801 -6.531,-3.039 -22.781,1.18 -39.218,7.899 -0.391,0.152 -0.742,0.23 -0.981,0.152 z m 36.52,-49.691 c -8.352,0.16 -15.973,-5.11 -19.449,-12.34 -4.024,-10.078 2.847,-28.16 13.32,-29.73 9.297,-1.399 8.949,4.3 4.258,5.82 -7.11,2.351 -15.43,12.461 -10.039,21.289 3.711,6.101 14.918,6.062 22.699,-1.438 15.699,-15.043 33.672,-16.062 37.109,-2.972 1.012,5.23 -2.969,12.191 -9.109,10.269 -4.719,-1.437 -15.699,-1.91 -24.879,4.34 -4.762,3.242 -9.531,4.723 -13.91,4.762 z m 165.789,-47.809 c 40.07,2.379 22.81,-52.34 -0.32,-38.281 -8.24,5.039 -4.57,23.48 17.39,23.129 -21.57,16.75 -36.21,-3.68 -30.98,-26.57 -4.81,-7.5 -6.17,-21.758 -9.34,-29.797 -4.88,-9.223 -8.71,14.879 -3.79,38.199 4.77,22.578 12.86,32.461 27.04,33.32 z m -226.68,-1.91 c -8.25,-0.082 0.231,-8.992 1.52,-10.043 24.961,-19.609 37.148,-31.719 17.07,-25.238 -32.578,7.738 -41.02,-1.481 -65.859,-12.418 -4.532,-2.192 -5.821,-0.82 -11.332,0.777 -21.829,6.492 -20.231,-7.219 2.582,-19.57 34.449,-18.668 62.847,-22.848 89.609,-8.899 17.23,8.981 18.09,3.122 2.109,-6.8 -27.379,-15.981 -56.211,-13.551 -100.468,13.98 -14.262,8.91 -16.289,2.969 -1.641,-6.398 33.398,-20.203 78.398,-38.481 115.121,-8.711 7.219,6.437 8.668,9.758 14.219,6.988 14.68,-7.34 9.879,5.43 -0.121,17.461 -3.559,4.262 -6.168,7.699 -5.938,10.59 0.821,10.43 -4.922,10.39 -10.191,10.148 -6.328,-0.308 -5.629,1.801 -13.32,10.282 -11.29,12.378 -25.079,25.66 -33.36,27.851 z M 534.18,527.148 c -13.871,-1.097 -17.032,-1.718 -13.629,-30.16 0.621,-5.347 3,-21.367 3.668,-27.379 8.203,-74.41 1.562,-107.339 -19.18,-116.449 -7.461,-3.281 -14.809,-2.07 -20.269,0.121 -13.129,5.239 -18.52,21.168 -8.989,40.16 2.578,5.11 5.668,13.008 6.918,17.579 1.211,4.57 4.02,14.57 6.172,22.218 5.231,18.672 8.039,47.071 4.957,74.184 -2.066,18.437 -1.598,19.957 2.973,32.379 10.078,18.359 16.597,27.777 37.808,27.969 23.711,-2.461 30.352,-38.36 -0.429,-40.622 z m 509.92,1.602 -6.48,-0.27 c -7.82,26.008 -24.14,17.571 -26.88,-0.671 l -5.51,0.043 c 0.98,34.726 44.42,25.308 38.87,0.898 z m -609.53,19.449 c 44.301,-4.41 52.379,-15.39 55.86,-68.898 0.351,-25.903 -1.371,-41.531 -5.352,-47.422 -6.637,-3.168 -12.969,2.769 -22.418,-3.207 -5.199,-3.16 -4.219,-3.512 -6.449,-0.082 -2.109,3.25 0.348,16.922 3.75,27.82 3.238,10.43 -2.301,16.481 -16.992,29.801 -3.949,3.629 -7.418,8.629 -11.02,15.777 -7.609,20.473 -11.48,11.492 -5.109,-6.168 3.121,-7.621 3.859,-11.371 -5.711,-8.09 -5.578,1.961 -10.508,-0.351 -14.84,-2.652 -12.148,-3.09 -22.617,3.551 -12.07,7.543 6.402,2.418 17.929,5.93 21.48,5.93 2.582,0 3.832,0.59 3.832,1.801 0,5.117 -23.441,4.527 -41.332,-1.602 -21.949,-10.121 -23.199,-8.32 -21.168,7.422 5.117,39.879 42.27,44.726 77.539,42.027 z m 433.2,-3.469 c 11.332,0.5 21.718,-12.5 19.691,-23.519 l -5.391,0.348 c -2.539,20.742 -22.148,21.64 -27.379,-1.598 l -7.781,-0.191 c 4.93,17.929 13.129,24.609 20.86,24.96 z m 131.718,-0.429 c 4.462,-2.66 1.372,-9.852 -3.398,-11.289 -1.828,-0.434 -7.539,3.547 -6.129,5.937 2.539,2.93 6.449,4.449 9.527,5.352 z m 50.742,-3.52 c 3.13,0 7.15,-1.601 7.7,-5.781 0.19,-6.129 -4.49,-4.879 -6.02,-4.34 -3.08,2.891 -4.25,9.891 -1.68,10.121 z m -155.269,-4.922 c 8.277,-0.98 11.328,-11.41 1.918,-12.07 -4.219,-0.859 -4.418,9.57 -1.918,12.07 z m -50.512,-1.129 c 0.981,0 -0.539,-8.558 -2.609,-9.851 -4.141,-2.5 -9.379,0.242 -9.18,2.82 0.461,6.172 7.961,7.071 11.789,7.031 z M 989.34,513.91 c 15.82,-5.98 36.36,-11.801 55.7,-5.039 7.07,2.649 12.73,5.859 12.69,2.848 0,-3.168 -5.58,-7.891 -15.7,-10.739 -20.82,-5.82 -35.9,-3.601 -50.229,7.141 -4.031,3.051 -5.43,5.859 -2.461,5.789 z M 982.809,505 c 25.631,-14.961 48.791,-16.48 69.651,-5.551 8.44,2.93 8.71,0.242 8.67,-5.187 -37.54,-33.012 -84.489,1.289 -78.321,10.738 z M 353.051,482.191 c -6.371,-12.812 -9.77,-44.421 -20.16,-53.793 -70.903,4.063 -25.313,97.543 20.16,53.793 z m 439.25,10.469 c -3.981,-2.109 -0.461,-12.148 5.859,-14.89 54.219,-23.321 82.039,-26.09 112.86,-15.348 12.769,4.457 19.761,14.879 20.39,19.957 0.738,6.019 -7.5,6.641 -21.961,0.242 -43.937,-17.269 -71.519,-3.793 -107.027,9.527 -3.281,1.25 -6.641,1.68 -10.121,0.512 z m -207.571,-0.711 -0.199,-79.019 -51.64,0.898 0.629,11.684 38.628,-1.133 -0.589,56.441 -44.84,0.43 -0.078,10.469 58.089,0.23 z m 11.989,-0.187 51.519,-0.082 2.582,-8.051 -54.101,0 0,8.133 z M 388.871,466.641 c -3.359,-3.012 -9.301,-3.672 -11.723,-1.25 -5.429,5.507 0.082,15.629 8.793,15.589 8.707,-0.082 9.45,-8.48 2.93,-14.339 z m 23.75,12.847 c 7.77,-0.039 10.348,-7.258 4.449,-13.16 -4.019,-3.629 -6.09,-3.867 -9.691,-1.207 -4.57,4.02 -2.18,14.141 5.242,14.367 z m -50.82,-1.949 c 2.027,0.082 3.82,-0.117 5.148,-2.148 4.731,-9.692 -10.82,-16.411 -14.058,-9.18 -2.379,5.859 3.668,11.129 8.91,11.328 z m 291.289,-1.059 3,-10.152 -59.371,-0.277 0,10.16 56.371,0.269 z m -212.5,-2.929 c 8.82,-1.051 7.461,-9.961 3.359,-13.903 -7.07,-6.527 -13.91,-4.418 -12.109,4.332 1.129,5.508 4.68,9.5 8.75,9.571 z M 392.809,444.41 c -3.079,-11.129 3.562,-33.629 1.57,-35.969 -4.34,-5.16 -11.289,-2.5 -14.379,-0.781 -10.699,6.91 -11.41,47.301 -1.02,49.719 6.68,-3.359 11.141,2.621 14.18,3.48 3.051,0.903 1.02,-4.609 -0.351,-16.449 z m 156.961,16.61 c 5.82,0 10.582,-4.77 10.582,-10.59 0,-5.86 -4.762,-10.59 -10.582,-10.59 -5.86,0 -10.59,4.73 -10.59,10.59 0,5.82 4.73,10.59 10.59,10.59 z m 46.949,-1.372 60.742,0 c 3.629,-5.078 3.238,-8.476 2.23,-11.988 l -62.972,-0.082 0,12.07 z m -178.36,-1.367 c 2.77,0 4.141,-5.941 2.301,-12.691 -3.359,-12.231 -3.16,-28.91 -0.89,-36.141 1.558,-5 3.082,-8.398 2.179,-9.84 -3.16,-4.961 -12.769,-1.558 -16.871,5 -9.957,18.481 -8.359,53.012 3.551,50.313 4.461,-2.223 7.031,1.289 9.73,3.359 z m -53.558,-4.691 c -2.922,-4.68 -0.821,-30.969 -1.129,-33.121 -0.352,-2.739 -7.891,-1.328 -12.07,0.582 -10.313,4.808 -7.5,17.109 -5.512,27 2.269,7.808 7.23,8.398 13.32,9.097 3.399,0.391 7.86,0.082 5.391,-3.558 z m 82.621,-1.442 c 3.277,0.122 3.75,-2.308 3.008,-12.027 -0.59,-7.621 -0.899,-14.101 0.351,-21.293 2.66,-15.277 2.969,-19.418 -0.859,-22.379 -4.57,-3.558 -10.703,-2.5 -15.434,1.711 -9.758,7.699 -10.429,45.59 -2.726,48.871 7.109,-1.761 11.597,3.867 15.66,5.117 z m 209.769,-11.449 -8.75,-11.988 -51.761,0 0.039,11.949 60.472,0.039 z M 472.539,424.648 c 8.082,-0.078 6.762,-14.378 2.422,-23.359 -3.711,-5.391 -6.41,-5.937 -11.91,-0.859 -6.289,5.781 1.168,24.261 9.488,24.218 z m 169.531,-3.988 -7.269,-6.68 -37.961,-0.031 0,6.641"
         inkscape:connector-curvature="0"
         id="path20"
         style="fill:#131f67;fill-opacity:1;fill-rule:nonzero;stroke:none" /><path
         d="m 1578.36,124.18 0,23.672 24.22,0 51.21,78.597 -55.2,122.141 -20.23,0 0,25.82 78.05,0 0,-25.82 -25.12,0 38.59,-95.391 28.09,36.961 0,58.43 -20.63,0 0,25.82 69.85,0 0,-25.82 -24.3,0 0,-200.738 24.3,0 0,-23.672 -69.85,0 0,23.672 19.73,0 0,92.847 -65.35,-92.847 24.69,0 0,-23.672 -78.05,0 z m -341.25,184.019 c -57.38,20.711 -80.78,92.231 -48.24,162.852 43.59,94.648 108.63,155.398 151.99,244.687 -0.51,0 85,-125.66 119.18,-172.258 73.28,-105.781 69.61,-192.82 -1.37,-227.152 -50.97,-24.687 -103.24,3.672 -109.26,56.992 -0.93,8.321 -1.48,9.41 -5.39,9.41 -4.25,0.04 -5.04,-2.929 -6.09,-15.23 -4.1,-47.461 -55.59,-75.621 -100.82,-59.301 z m 352.97,184.223 c 22.22,52.308 48.08,80.308 75.23,135.777 21.88,-42.929 62.35,-89.219 75.94,-132.578 10.2,-33.512 2.27,-60.742 -19.61,-68.902 -25.43,-9.418 -44.49,1.25 -49.53,25.082 -2.03,9.57 -6.88,8.629 -7.11,1.398 -0.86,-23.359 -27.77,-33.59 -49.34,-27.418 -12.38,3.559 -34.57,28.828 -25.58,66.641 z M 387.93,705.82 325,755.16 c 74.84,1.641 149.691,-0.082 224.531,-1.371 L 474.77,700.551 c -15.321,16.719 -24.34,39.179 -46.059,50 C 412.539,743.91 401.48,720.859 387.93,705.82 z m 552.031,17.192 c -1.25,0.187 -2.301,0.308 -3.051,0.777 -1.711,1.09 -2.851,3.481 -4.101,11.41 -18.668,87.141 -110.508,80.973 -109.879,78.391 -0.7,3.441 114.101,107.109 181.6,188.48 20.43,-62.191 82.27,-204.179 79.69,-203.672 0,0 -17.89,-0.16 -64.3,1.012 -42.221,-19.058 -71.6,-37.648 -70.19,-64.531 -0.242,-9.449 -2.539,-13.399 -5.71,-12.578 -0.43,0.121 -2.258,0.429 -4.059,0.711 z m 206.209,280.428 c 59.73,0.94 70.98,30.11 77.81,33.63 39.22,6.45 63.48,-19.06 80.67,-46.41 21.95,-13.199 19.22,-1.012 23.75,19.57 l 54.69,16.06 -0.08,-17.42 c -16.88,-9.1 -41.92,-32.39 -41.92,-32.39 l -16.64,0.981 -9.53,-12.691 c -38.01,-20.551 -75.23,-45.04 -115.27,-60.942 0,0 -48.01,62.07 -53.48,99.612 z m -744.26,-5.428 -0.621,344.448 c 24.731,1.76 70.191,1.52 70.191,1.52 19.032,33.56 44.969,49.34 71.719,68.83 3.75,-42.46 5.16,-83.01 4.301,-125.47 -70.781,-86.4 -110.121,-192.77 -66.449,-351.68 l -26.211,2.891 -52.93,59.461 z m 391.18,-19.34 c 20.148,71.878 35.82,144.768 42.301,220.038 l 134.769,1.99 2.692,-46.13 L 793.09,978.672 z m 458.86,156.878 -2.5,128.86 c 98.36,117.5 104.18,219.97 67.7,349.54 32.5,-7.47 49.22,-32.82 80.19,-67.7 l 0,-336.09 c -21.52,-3.21 -74.84,-6.33 -74.84,-6.33 -1.6,-15.74 -46.68,-53.4 -70.55,-68.28 z m -416.438,203.12 -5.981,56.84 175.119,167.22 c -14.451,-72.46 -31.951,-146.87 -37.072,-224.02 l -132.066,-0.04 z m -290.551,177.5 c -12.5,-8.2 -58.551,39.69 -66.09,71.88 11.559,15.58 112.93,65.27 112.93,65.27 0,0 59.25,-76.05 56.828,-107.77 -26.328,-7 -49.141,-8.99 -69.141,-30.43 -11.398,-1.02 -15.429,11.83 -34.527,1.05 z M 465,1580.47 c 14.102,-2.27 5.039,-21.29 2.891,-35.24 l -74.532,-22.07 c 25.621,21.88 43.789,40.47 71.641,57.31 z m 242.621,168.16 c 15.309,0.47 31.289,-5.86 43.078,-1.09 4.461,1.72 13.25,4.37 22.93,2.58 22.269,-6.92 30.082,17.61 44.301,17.73 18.359,-0.04 28.55,12.81 28.672,38.56 0.039,11.13 0.976,12.38 3.089,13.47 6.25,3.32 12.969,-1.33 13.789,-7.42 13.161,-47.42 46.442,-90.04 98.899,-86.64 C 920.621,1683.2 793.52,1552.3 793.52,1552.3 c -22.899,69.77 -53.321,134.65 -85.899,196.33 z m 540.699,40.86 76.56,55.55 45.82,-55.74 39.61,53.08 c 23.28,-16.68 76.25,-53.86 76.25,-53.86 0,0 -158.79,-2.35 -238.24,0.97 z m -798.242,28.36 c 16.094,-11.4 -153.437,194.34 -172.969,267.07 -14.648,42.85 -3.629,95.24 28.282,117.66 54.058,38.04 117.461,22.85 129.488,-41.17 3.441,-18.17 9.101,-15.98 11.101,-0.04 7.219,81.52 107.34,87.5 145.86,30.62 26.359,-38.94 26.558,-100.82 -11.61,-162.81 -9.21,-19.69 -130.968,-205.66 -130.152,-211.33 z m -323.668,78.4 c -22.699,44.3 -56.4491,88.95 -74.3006,130.31 -13.4375,33.83 -2.0703,68.83 22.9297,75.32 24.6523,6.36 42.4999,-3.79 47.1909,-26.8 1.598,-7.81 4.68,-8.4 6.211,-1.17 9.289,43.55 70.739,34.14 74.957,-11.49 2.692,-29.1 -4.878,-48.28 -40.777,-103.32 -8.672,-17.85 -32.109,-43.67 -36.211,-62.85 z m 11.949,279.8 25.59,0 -37.578,92.23 -28.7499,-38.94 0.1875,-53.29 20.1604,0 0,-27.5 -71.0588,0 0,27.5 23.3984,0 0,198.4 -23.3984,-0.04 0,23.99 72.1488,0 0,-24.81 -19.9184,0 -0.4297,-96.71 62.9691,97.53 -22.231,0 0,23.99 76.762,0 0,-23.99 -20.231,0 -51.878,-79.72 50.738,-118.64 22.539,0 0.121,-27.5 -78.91,0"
         inkscape:connector-curvature="0"
         id="path22"
         style="fill:#d40000;fill-opacity:1;fill-rule:nonzero;stroke:none" /><path
         d="m 1291.76,2293.16 -703.791,-4.53 136.801,-182.65 c 145.269,29.61 271.75,10.35 403.04,-12.54 l 163.95,199.72 z m -18.01,-9.25 -46.84,-58.21 c -12.96,11.72 -41.87,7.5 -37.77,-18.12 -35.9,18.63 -43.52,-32.58 -13.05,-30.51 -3.82,-10.04 -34.61,-12.69 -43.28,5.55 -31.6,-17.7 -41.25,-0.51 -49.61,10.62 40.16,-27.22 59.69,28.79 15.47,31.96 17.38,35.11 -44.53,51.05 -40.9,5.35 -40.86,9.25 -31.48,-48.25 -1.48,-36.45 -19.49,-29.3 -51.45,-9.61 -57.931,-3.9 -16.449,-12.35 -47.5,-12.74 -56.211,6.95 45.473,-9.14 40.473,50.74 0.122,36.95 21.519,45.98 -50.079,39.81 -32.7,2.11 -40.742,1.56 -31.718,-48.67 4.059,-40.12 -31.789,-29.96 -55.578,-2.03 -60.617,-1.44 -18.793,-20.74 -51.883,-9.38 -56.41,2.89 32.418,-12.81 43.046,41.68 2.187,38.4 10.473,35.08 -48.359,39.33 -35.348,-0.51 -32.421,7.34 -34.179,-44.57 2.11,-36.48 2.258,-14.22 -26.289,-27.82 -43.871,-14.07 -12.891,-7.07 -26.989,-18.04 -43.789,-1.79 25.589,4.1 29.769,47.3 -11.481,37.96 1.949,26.49 -13.25,27.93 -32.07,21.22 l -30.121,40.82 669.531,0.82 z m -485.512,-65.12 c -2.218,-4.92 -6.008,-8.28 -5.117,-12.03 0.75,-3.13 3.91,-7.38 8.328,-13.21 35.192,-45.89 106.602,-44.33 128.082,2.97 4.379,8.79 3.481,10.78 -1.801,18.25 -6.359,9.02 0.821,18.67 8.641,17.85 11.598,-1.21 13.629,-11.33 8.039,-18.56 -12.14,-15.31 21.211,-49.92 54.539,-55.35 42.731,-6.95 83.241,23.09 77.571,50 -0.31,1.52 -1.09,2.97 -1.44,4.57 -4.53,22.54 31.21,11.76 18.36,-2.62 -4.85,-5.19 -7.46,-6.71 -6.8,-12.42 10.39,-47.73 68.36,-52.73 95.98,-38.01 -35.63,-58.12 -92.07,-13.32 -102.03,27.31 -50.04,-72.27 -110.16,-57.27 -143.68,6.25 3.988,-3.95 -66.012,-113.83 -145.43,-1.17 -33.589,-90.67 -94.878,-29.38 -90.699,-25.67 28.168,-15.7 79.297,-10 84.219,38.48 0.699,6.02 -3.871,6.37 -6.48,11.09 -13.321,23.99 29.64,24.14 19.718,2.27 z m -132.297,-5.94 c 6.36,-0.58 7.418,-3.24 6.36,-9.73 l -6.36,9.73 z m 546.129,-17.07 -9.26,-11.56 c -2.19,5.66 -2.22,10.86 9.26,11.56 z m 100.31,-3.83 c -21.87,-0.9 -38.79,-31.17 -37.69,-71.48 0.54,-19.57 3.98,-68.67 5.31,-75.98 1.88,-10.19 -0.16,-24.06 -3.75,-25.51 -9.49,-3.86 -13.05,-6.32 -15.63,-10.86 -6.64,-11.75 -1.13,-25.03 12.9,-30.97 10,-4.26 22.69,1.6 31.28,14.41 4.77,7.11 5.86,10.28 10.08,28.17 1.96,8.24 1.76,21.91 -0.47,34.45 -5.03,28.48 -1.29,63.98 8.52,80.66 17.58,29.89 17.27,49.46 -0.9,55.63 -3.32,1.13 -6.52,1.64 -9.65,1.48 z m -1.13,-4.53 c 25.47,-0.12 24.77,-25.51 10.66,-33.36 -5.46,-2.42 -12.18,-3.01 -18.86,1.37 -7.54,4.37 -6.49,-0.59 1.29,-6.25 9.14,-6.64 13.04,-6.21 8.12,-21.8 -4.57,-14.49 -6.99,-45.82 -4.49,-63.59 6.87,-48.71 1.05,-72.97 -19.42,-81.45 -10.11,-4.14 -21.01,1.72 -23.82,9.85 -4.38,12.69 3.43,23.59 22.73,20.54 0,0 1.37,4.03 -3.67,46.29 -6.95,58.79 -4.22,99.85 6.56,114.18 5.78,7.66 13.24,14.22 20.9,14.22 z m 172.81,-60.62 c -5.94,-0.04 -12.34,-1.68 -18.9,-5.35 0,0 -0.71,-26.45 -1.49,-30.47 -4.29,-22.35 -3.05,-25 7.38,-28.21 25.28,-7.69 46.06,9.11 45.12,35.39 -0.51,14.81 -14.22,28.79 -32.11,28.64 z m 3.44,-3.56 c 13.83,0.43 26.37,-15.74 25,-30.97 -0.74,-18.21 -18.16,-28.13 -33.79,-24.97 -4.61,0.71 -9.41,1.57 -10.9,5.04 -3.12,4.85 1.92,6.61 12.42,6.53 11.53,-0.04 13.64,1.52 17.47,7.97 7.57,12.77 -2.11,28.98 -14.46,25.93 -4.22,-1.01 -4.84,-2.93 0.12,-4.33 15.12,-6.8 9.49,-16.33 4.26,-20.2 -6.25,-4.57 -16.57,1.72 -18.36,5.51 l 1.05,24.69 c 0,0 5,4.68 17.19,4.8 z m -155.86,-114.33 c 0,0 -5.78,-2.74 -8.55,-5.32 -6.14,-5.62 -7.39,-14.18 -4.42,-22.57 1.33,-3.72 1.13,-4.34 -3.51,-10.4 -13.25,-17.26 -14.96,-25.85 -8.17,-41.4 3.09,-7.07 3.09,-7.07 0.2,-16.41 -12.5,-40.04 -37.11,-85.43 -63.4,-116.87 -4.06,-4.89 -5.7,-9.85 -5.7,-9.85 0,0 6.17,0.32 9.57,2.03 27.14,13.52 55.86,39.69 82.54,56.84 -42.19,-34.22 -87.11,-64.8 -87.11,-64.8 l 57.38,-3.09 c -14.42,-14.77 -266.09,-228.01 -199.26,-610.51 78.56,19.53 115.12,51.96 156.99,89.42 0.39,-30.82 1.1,-113.75 1.33,-113.75 0.82,1.36 -36.33,13.98 -27.5,-16.61 5.24,-16.75 7.89,-59.21 -1.41,-83.2 -0.39,-1.01 3.99,-2.62 3.56,-3.55 -0.51,-1.1 -5.94,-1.1 -5.94,-1.1 -14.29,-26.6 -51.01,-32.46 -69.14,-31.64 -6.68,0.63 -3.98,-8.509 -3.08,-11.829 3.36,-13.711 19.14,-43.051 48.63,-90.16 l 7.73,-1.02 -4.45,-4.141 c 3.48,-6.32 12.77,-18.281 12.77,-18.281 l 0.39,-4.019 c 0,0 16.18,-22.539 24.85,-33.09 0.62,-0.738 1.95,0.98 2.58,0.281 4.8,-5.781 10.58,-12.269 15.46,-18.051 0.4,-0.468 -0.74,-2.109 -0.35,-2.539 9.22,-10.043 27.35,-30.351 27.35,-30.351 l 3.59,0.859 14.26,-16.059 c 118.24,53.79 241.79,172.739 240.51,172.469 l 1.01,255.971 -140,0.43 -0.58,339.1 139.84,-138.24 -0.94,39.65 c -31.72,30.16 -159.18,158.79 -159.18,158.79 18.56,2.58 36.53,8.63 53.91,18.08 30.43,-16.71 62.93,-26.79 100.19,-21.83 l -0.15,37.62 c -42.31,0.07 -68.52,14.1 -87.5,31.01 l -26.1,0.86 c -48.24,-36.68 -82.38,-19.65 -119.06,-12.42 l -25.35,36.48 259.77,1.33 -1.88,88.67 -39.41,-0.9 -25.63,18.95 29.69,-12.58 c 0,0 -0.47,4.88 -6.41,14.18 -16.01,26.17 -36.33,64.65 -48.51,98.24 -5.9,17.03 -5.86,16.33 -0.9,26.33 6.83,13.75 5.35,30.35 -3.63,39.73 -6.37,6.56 -6.14,7.97 -4.07,12.89 8.44,19.45 -11.91,26.6 -11.99,25.35 -43.51,-16.76 -101.87,0.51 -100.82,1.02 z m 101.17,-7.03 c 8.71,0.07 9.65,-3.76 9.61,-10.24 -0.74,-11.84 -16.17,-16.13 -23.16,-17.77 -33.36,-7.66 -91.56,-3.13 -95.35,12.42 -2.78,11.44 4.37,17.81 28.08,12.11 38.09,-8.17 61.64,0.62 80.82,3.48 z m -107.69,-33.05 c 3.43,0.04 7.61,-3.48 8.79,-9.26 1.01,-4.92 -4.11,-19.37 -8.4,-22.73 -10.59,-8.25 -20.16,4.57 -13.09,18.55 4.1,8.09 8.24,13.4 12.7,13.44 z m 113.86,-1.64 c 1.57,-0.04 4.42,-0.35 6.25,-1.64 8.4,-5.94 9.18,-26.53 1.33,-29.5 -8.01,-3.04 -15.43,5.32 -15.35,18.4 0.04,8.01 3.01,12.89 7.77,12.74 z m -26.68,-4.22 c 1.68,0.08 3.52,-0.27 5.4,-1.17 6.99,-3.21 10.39,-24.81 3.43,-31.68 -5.39,-5.35 -16.95,-5.04 -20.35,6.05 -4.02,13.24 2.27,26.33 11.52,26.8 z m -59.18,-0.63 c 10.24,-0.07 12.58,-22.85 2.54,-32.26 -8.39,-7.85 -21.21,-0.12 -17.18,15.47 1.99,7.77 6.6,16.25 14.64,16.79 z m 29.15,-3.63 c 15,-2.58 13.75,-39.33 -5.94,-35.66 -11.17,7.81 -10.86,35.11 5.94,35.66 z m -65.63,-39.37 21.21,-1.96 c 0,0 -27.46,-59.45 -52.58,-82.15 -9.37,-9.53 -14.8,-9.92 -7.65,0.2 15.74,19.45 39.02,83.91 39.02,83.91 z m 127.19,-0.39 c 12.38,-33.01 25.12,-66.57 42.03,-100.36 -25.7,24.77 -48.48,62.86 -69.45,98.64 l 27.42,1.72 z m -99.77,-3.17 14.06,-0.16 c 4.69,-21.4 12.78,-35.03 22.27,-46.75 8.24,13.9 13.44,29.18 18.52,45.47 l 11.13,0.15 c 4.3,-2.54 -13.13,-67.07 -30.16,-74.92 -18.04,14.69 -33.28,54.3 -35.82,76.21 z m -5.9,-15.27 c -1.17,-1.53 21.8,-56.8 41.25,-74.49 18.32,17.77 30.04,41.21 37.89,69.14 l 60.32,-84.65 -58.79,40.23 c -11.76,-19.49 -24.22,-38.12 -39.18,-53.59 -16.13,17.46 -30.12,38.16 -44.77,57.85 -22.69,-16.8 -38.59,-34.77 -68.04,-50.47 0.11,-0.62 57.69,62.11 71.32,95.98 z m -5.66,-60.16 41.02,-50.15 -109.22,1.56 68.2,48.59 z m 88.87,-0.82 68.94,-47.42 -102.73,-1.06 33.79,48.48 z m -549.261,-23.32 c 0,0 0.59,-3.01 1.25,-4.84 12.262,-49.89 46.02,-91.37 96.801,-86.45 L 793.238,1558.09 c 0,0 -27.578,93.51 -83.398,189.37 0,0 10.199,-2.11 18.129,-3.63 7.461,-1.13 13.121,-0.78 18.711,0.66 4.3,0.63 7.539,3.44 11.371,4.26 6.437,1.37 14.488,-0.98 18.789,-2.46 11.441,-2.19 19.25,4.26 33.629,16.91 3.832,3.4 5.269,2.58 10.082,2.54 18,-0.04 29.488,15.39 27.461,39.34 l -0.903,10.62 -2.308,-11.95 c -4.289,-22.54 -7.262,-32.27 -29.602,-33.2 -5.398,-0.24 -7.429,-3.87 -15.98,-11.21 -11.949,-10.28 -20.391,-11.14 -28.867,-7.15 -8.672,4.1 -9.454,1.72 -17.622,-2.19 -9.332,-4.45 -22.96,-3.95 -35.23,-0.43 -17.109,4.92 -15.039,3.28 -15.039,3.28 99.18,-176.52 134.019,-345.86 131.84,-496.25 -3.129,-214.3 -78.09,-387.26 -143.871,-491.522 0,0 11.289,1.133 21.332,2.621 4.84,1.321 8.59,0.031 13.359,-1.648 4.488,-1.563 7.848,-1.481 12.219,-0.973 3.441,0.391 11.801,-0.078 17.148,-0.859 12.231,-1.758 13.051,-0.16 26.332,12.769 37.731,36.641 35.27,35.282 62.578,34.383 41.012,-1.332 73.832,-28.359 87.461,-72.23 1.762,-5.551 3.981,-13.321 4.301,-13.321 l -2.66,11.602 c -11.988,58.828 -62.301,80.308 -104.262,79.527 l 177.192,177.66 c -0.9,-0.16 41.05,-135.16 77.62,-195.347 0.07,-0.391 -11.1,4.797 -31.49,2.148 -11.05,-1.41 -23.47,0.039 -30.43,1.25 -8.94,0.192 -14.41,-2.43 -25.579,-11.64 -4.653,-3.95 -8.789,-8.321 -17.891,-12.149 -21.531,-9.101 -30.121,-18.48 -30.238,-42.109 -0.043,-4.301 -0.66,-9.813 -0.621,-11.922 0.039,-0.578 0,-1.602 0.109,-1.602 0.391,0 0.899,0.903 1.289,1.532 1.102,1.558 3.281,5.82 4.922,15.742 3.008,17.648 6.719,23.828 23.438,31.679 5.043,2.34 15.632,8.75 20.32,12.5 15.391,12.258 20.541,15.079 33.081,12.188 7.11,-1.68 13.16,-2.539 22.74,-1.367 11.36,1.367 12.03,1.949 24.18,-1.172 8.24,-2.149 18.47,-4.18 18.47,-4.18 -171.76,344.84 -166.088,664.57 3.4,988.9 0,0 -50.16,-0.58 -52.3,-1.87 -0.79,-0.51 -6.88,0.04 -13.56,1.25 -13.63,2.46 -10.66,0.82 -42.89,-31.6 -39.84,-40.04 -103.551,-8.09 -122.73,59.1 -1.02,3.51 -1.879,5.66 -3.399,8.12 -0.473,0.82 -1.762,2.15 -1.762,2.15 z m 162.381,-39.45 c 7.39,-0.78 12.85,-2.74 11.96,-9.65 l -236.528,-231.56 -3.711,14.88 228.279,226.33 z m 49.89,-1.41 c -2.93,-5.74 -10.83,-12.93 -14.3,-18.36 l 12.89,-16.01 -7.15,-12.93 -19.77,16.64 -37.65,-37.15 31.37,-35.24 -29.73,-30 -9.88,11.22 15.7,16.44 -24.411,22.85 -43.008,-41.79 35.039,-35.63 -25.71,-24.65 -10.231,9.73 13.481,14.88 -22.86,23.63 -40.039,-40.86 31.68,-35.27 -24.492,-24.3 -10.86,11.02 11.801,12.27 -22.699,23.71 -40.781,-40.24 33.089,-35.9 -24.339,-21.75 -8.551,9.06 11.761,12.66 -22.269,23.78 -25.313,-22.96 -4.218,15.78 250.47,248.79 20.98,0.58 z m 14.41,-3.67 -10.55,-21.17 -8.16,8.94 10.62,10.94 8.09,1.29 z m -590.739,-1.37 c -6.492,-1.6 -155.629,-84.65 -240.512,-175.82 l -0.269,-33.98 -3.129,-4.06 1.519,-52.58 2.11,-2.82 0.71,-21.44 -3.359,-5.66 -0.043,-58.87 4.531,-0.74 0.7,-72.07 139.461,-0.36 -0.161,-344.211 c 0,0 -81.879,90.001 -140.859,143.121 l 0.23,-40.23 L 415,939.41 c -10.738,-1.519 -24.691,-4.101 -45.738,-15.699 -50.633,31.598 -109.141,21.91 -109.141,21.91 l 0.231,-40.973 c 37.226,3.59 70.777,-1.488 109.878,-27.808 32.231,21.789 71.02,35.07 128.829,17.73 12.742,-20.16 25.472,-40.941 38.211,-54.449 l -276.219,-2.07 0.32,-83.012 c 12.258,-0.238 42.891,0 42.891,0 15.539,-30.43 46.09,-71.988 58.75,-124.258 -17.391,-20.902 -16.024,-37.73 0.937,-58.793 -0.16,-9.488 -3.008,-20 7.653,-30.578 35.16,17.18 74.847,9.57 104.378,0.781 10,-2.972 13.79,8.43 13.43,22.77 -0.89,8.238 -0.859,11.758 5.469,17.23 15,13.008 5.672,39.758 3.32,40.387 -0.859,23.442 74.34,141.012 74.422,138.871 l -15,-5.429 -64.301,-0.282 c 169.141,163.051 239.801,349.062 225,559.142 -3.281,52.93 -11.519,77.15 -11.519,77.15 -59.571,-26.44 -108.52,-45.7 -156.102,-96.64 l -3.16,109.49 c 2.66,-5.19 20.313,-9.96 28.199,-3.36 5.434,3.56 5.981,7.35 0.981,20.63 -7.27,19.3 -8.989,60.66 -3.598,74.69 0.668,1.64 1.18,6.01 1.649,10.31 0.621,5.74 -0.629,6.09 -1.18,5.97 1.41,0.36 7.191,-0.82 7.89,-0.23 20.321,17.89 42.11,29.06 68.872,30.23 l 0.668,13.05 c -19.809,50.08 -36.61,69.73 -54.571,97.74 0,0 -5.078,1.68 -8.328,1.01 l 4.149,4.38 c -25.2,39.96 -61.059,76.36 -94.032,110.9 0.121,0.11 0.043,0.15 -0.187,0.11 z m -1.102,-6.79 17.891,-16.53 C 429.531,1705.98 345.352,1645.9 262.422,1564.41 l 1.168,29.97 c 93.68,88.08 164.379,130.42 233.359,169.14 z m 547.931,-29.97 10.74,-10.7 -14.84,-17.26 9.65,-9.89 -5.39,-13.16 -24.73,25.7 24.57,25.31 z m -532.61,-1.36 c 5.621,0 10.152,-4.53 10.152,-10.16 0,-5.62 -4.531,-10.19 -10.152,-10.19 -5.629,0 -10.2,4.57 -10.2,10.19 0,5.63 4.571,10.16 10.2,10.16 z m 730.11,-14.03 c 173.91,-193.59 84.61,-474.92 -147.58,-542.5 l -2.57,15.9 c 234.25,78.91 289.18,342.85 137.18,508.79 l 12.97,17.81 z m -700.001,-1.28 11.101,-12.86 c -99.14,-47.3 -195.859,-118.28 -289.378,-220.66 l -0.903,25.86 c 87.821,92.3 181.68,159.06 279.18,207.66 z m -63.938,-3.95 c 5.618,0 10.149,-4.57 10.149,-10.2 0,-5.62 -4.531,-10.15 -10.149,-10.15 -5.632,0 -10.203,4.53 -10.203,10.15 0,5.63 4.571,10.2 10.203,10.2 z m -30.98,-19.14 c 5.629,0 10.16,-4.57 10.16,-10.2 0,-5.58 -4.531,-10.15 -10.16,-10.15 -5.621,0 -10.191,4.57 -10.191,10.15 0,5.63 4.57,10.2 10.191,10.2 z m 103.129,-6.68 c 5.621,0 10.191,-4.57 10.191,-10.2 0,-5.58 -4.57,-10.15 -10.191,-10.15 -5.629,0 -10.16,4.57 -10.16,10.15 0,5.63 4.531,10.2 10.16,10.2 z m 441.832,-7.03 10.158,-10.74 -16.131,-16.18 22.961,-23.98 22.07,21.25 -11.05,-31.64 -194.77,-194.69 -4.058,20.43 15.308,15.43 -23.469,23.44 -4.14,15.66 23.121,21.64 9.648,-9.96 -13.519,-15.58 21.758,-21.41 39.531,36.33 -32.61,35.82 26.911,26.01 9.3,-9.06 -12.851,-13.24 22.648,-24.57 40.551,38.83 -33.32,35.19 26.801,26.41 10.109,-9.69 -13.469,-16.17 23.039,-22.31 39.692,39.22 -32.621,34.34 28.402,29.22 z m -575.352,-6.84 c 5.629,0 10.2,-4.53 10.2,-10.15 0,-5.63 -4.571,-10.2 -10.2,-10.2 -5.59,0 -10.16,4.57 -10.16,10.2 0,5.62 4.57,10.15 10.16,10.15 z m 160.43,-1.95 7.73,-12.89 c -118,-59.61 -199.679,-119.34 -320.46,-256.6 l 0,17.26 c 93.242,114.53 190.23,188.32 312.73,252.23 z m -59.301,-1.52 c 5.629,0 10.199,-4.57 10.199,-10.2 0,-5.62 -4.57,-10.16 -10.199,-10.16 -5.621,0 -10.148,4.54 -10.148,10.16 0,5.63 4.527,10.2 10.148,10.2 z m 913.361,-3.91 c 20.82,-18.56 64.53,-36.99 92.74,-35.04 l 0.74,-22.3 c -49.14,-4.65 -92.07,26.79 -92.07,26.79 -37.85,-23.04 -76.41,-25.97 -116.56,-15.97 l -15.47,33.12 c 59.57,-27.62 115.47,-1.29 130.62,13.4 z m -235.23,-6.06 c 2.19,-4.02 9.53,-8.67 9.53,-8.67 45.86,11.92 60.12,-35.35 38.75,-62.34 l 6.09,-19.81 c 8.21,-1.48 15.39,-4.37 21.21,-8.39 11.14,-7.74 17.27,-21.14 15.9,-35.2 1.57,-15.23 -21.25,-29.41 -22.46,-28.36 l -0.31,-21.8 c 6.41,-5.31 14.14,-10.5 19.06,-18.04 10.94,-18.4 6.6,-36.96 -10.31,-48.6 -10.04,-6.79 -20.98,-7.69 -21.41,-6.99 l -10.58,-24.72 c 9.33,-5.28 11.95,-14.22 13.4,-20.63 3.16,-13.87 -6.57,-31.95 -18.79,-38.59 -15.43,-8.44 -36.45,-0.94 -36.45,-0.98 l -15.04,-15 c 3.87,-13.05 4.96,-20.82 2.89,-28.44 -5.08,-18.9 -24.88,-26.33 -40.78,-24.92 -12.54,1.13 -21.91,10.27 -21.91,10.27 l -16.68,-6.4 c 0.47,0 0.27,-21.1 -8.17,-27.54 -2.61,-2.74 -12.03,-8.83 -12.03,-8.83 l -2.19,14.57 c 6.61,4.73 10.71,16.25 9.38,24.69 l 35.98,17.62 c 0,-1.29 9.84,-10.86 16.6,-12.23 13.79,-2.81 28.24,7.97 28.28,20.66 0,7.39 -4.26,12.42 -5.47,18.4 l 30.55,31.64 c 12.65,-4.37 21.52,-5.12 27.18,-1.83 10.67,6.17 13.56,18.86 11.49,26.52 -2.42,9.06 -10.47,14.92 -11.02,15.74 l 17.03,43.09 c 7.93,0.08 12.86,1.29 19.07,5.31 12.61,8.32 10.97,24.45 5.62,32.11 -6.56,9.3 -16.09,11.01 -16.83,10.82 l 1.25,44.73 c 0,-0.36 17.22,8.28 19.1,18.28 2.73,14.68 -3.48,24.02 -21.53,28.2 -10.03,2.31 -9.49,0.35 -9.49,0.35 l -14.26,40.51 c 22.62,13.79 15.43,35.74 3.99,43.09 -12.11,7.77 -29.18,0.58 -29.18,0.58 0,0 -7.77,7.7 -13.67,13.91 l 6.21,7.22 z m -605.31,-8.2 c 14.878,-19.96 40.031,-60 54.101,-95.82 0.617,-1.56 0.309,-9.49 0.309,-9.49 -40.16,-3.52 -53.95,-19.22 -68.2,-30.31 -11.058,5.66 -15.71,12.34 -35.71,-0.2 -0.071,-0.58 -50.969,30.82 -60.739,73.44 36.41,22.42 71.098,43.79 110.239,62.38 z m -203.719,-0.27 c 5.59,0 10.16,-4.53 10.16,-10.16 0,-5.62 -4.57,-10.15 -10.16,-10.15 -5.621,0 -10.192,4.53 -10.192,10.15 0,5.63 4.571,10.16 10.192,10.16 z m 96.449,-1.99 c 5.629,0 10.16,-4.57 10.16,-10.2 0,-5.59 -4.531,-10.16 -10.16,-10.16 -5.629,0 -10.199,4.57 -10.199,10.16 0,5.63 4.57,10.2 10.199,10.2 z m 696.17,-12.5 c 17.54,-23.09 43.99,-66.72 50.28,-105.36 8.82,-54.37 2.92,-111.4 -22,-151.28 -45.23,-85.2 -123.67,-103.32 -123.71,-106.29 l -0.78,17.46 c 0.7,-3.91 59.92,21.01 100.24,77.34 24.88,38.17 39.02,92.7 34.21,135.24 -3,61.32 -46.52,117.89 -46.91,118.08 l 8.67,14.81 z m -824.369,-8.32 c 5.621,0 10.187,-4.54 10.187,-10.16 0,-5.63 -4.566,-10.16 -10.187,-10.16 -5.629,0 -10.16,4.53 -10.16,10.16 0,5.62 4.531,10.16 10.16,10.16 z m 96.359,-0.12 c 5.59,0 10.16,-4.57 10.16,-10.2 0,-5.62 -4.57,-10.15 -10.16,-10.15 -5.621,0 -10.191,4.53 -10.191,10.15 0,5.63 4.57,10.2 10.191,10.2 z m 868.56,-17.19 c 22.58,-2.42 50.19,-43.36 75.31,-66.72 l 0.27,-333.67 -75.03,-1.52 c -9.77,-23.48 -32.43,-46.68 -68.56,-69.57 l -0.04,125.04 c 123.17,131.91 89.65,276.32 68.09,346.44 l -0.04,0 z m -992.54,-3.79 c 5.621,0 10.16,-4.57 10.16,-10.15 0,-5.63 -4.539,-10.2 -10.16,-10.2 -5.629,0 -10.2,4.57 -10.2,10.2 0,5.58 4.571,10.15 10.2,10.15 z m 92.73,-1.83 c 5.629,0 10.16,-4.54 10.16,-10.16 0,-5.63 -4.531,-10.16 -10.16,-10.16 -5.621,0 -10.191,4.53 -10.191,10.16 0,5.62 4.57,10.16 10.191,10.16 z m 952.74,-0.79 153.44,-154.68 -0.55,-22.7 -172.89,175.67 20,1.71 z m -896.49,-14.53 4.07,-19.45 c -4.96,7.81 -5.16,10.66 -13.75,12.03 l 9.68,7.42 z m -83.039,-5.66 c 5.617,0 10.149,-4.57 10.149,-10.16 0,-5.62 -4.532,-10.19 -10.149,-10.19 -5.633,0 -10.199,4.57 -10.199,10.19 0,5.59 4.566,10.16 10.199,10.16 z m -91.922,-2.85 c 5.629,0 10.199,-4.53 10.199,-10.16 0,-5.62 -4.57,-10.19 -10.199,-10.19 -5.621,0 -10.148,4.57 -10.148,10.19 0,5.63 4.527,10.16 10.148,10.16 z m 863.251,0 30.27,-21.45 -9.85,-38.67 -31.01,27.85 10.59,32.27 z m -700.001,-3.13 5.391,-3.2 -6.289,-26.45 -69.731,-25.19 c 22.418,19.14 45.469,40.04 70.629,54.84 z m 11.403,-12.3 c 4.957,-19.61 15.699,-48.63 28.91,-73.17 -8.953,-4.64 -41.133,-22.85 -41.063,-31.32 4.531,-15.32 38.563,-29.42 38.563,-29.42 -12.891,-20.86 -25.16,-45.51 -35.16,-73.83 -5.821,9.89 -6.481,48.91 6.019,65.12 -12.351,4.84 -29.223,15.98 -42.07,27.46 8.277,29.3 43.551,46.8 45.109,46.99 -0.621,-1.44 -10.43,61.18 -0.308,68.17 z m -113.204,-4.96 c 5.622,0 10.192,-4.53 10.192,-10.16 0,-5.62 -4.57,-10.19 -10.192,-10.19 -5.589,0 -10.16,4.57 -10.16,10.19 0,5.63 4.571,10.16 10.16,10.16 z m 776.682,-0.82 c 45.23,-84.34 18.32,-157.58 -53.87,-210.08 l 1.68,19.88 c 49.81,36.17 82.07,107.31 45.7,175.16 l 6.49,15.04 z m -862.619,-2.43 c 5.629,0 10.199,-4.57 10.199,-10.19 0,-5.59 -4.57,-10.16 -10.199,-10.16 -5.621,0 -10.16,4.57 -10.16,10.16 0,5.62 4.539,10.19 10.16,10.19 z m 724.099,-0.54 c -33.24,-123.79 -32.419,-180.55 -36.251,-214.14 l -128.938,-1.1 -5.043,44.65 170.232,170.59 z m -515.15,-3.4 c 0,0 27.969,-25.98 53.039,-48.63 l -2.969,-5.94 -24.41,-3.24 c -18.672,36.75 -25.66,57.81 -25.66,57.81 z m -23.172,-13.59 0.203,-0.04 1.559,-18.44 c -8.398,0.31 -99.059,-37.58 -168.75,-98.09 10.391,18.32 27.891,35.86 44.84,50.82 36.019,35.36 122.148,65.75 122.148,65.75 z m -128.898,-4.22 c 5.621,0 10.148,-4.57 10.148,-10.16 0,-5.62 -4.527,-10.19 -10.148,-10.19 -5.629,0 -10.16,4.57 -10.16,10.19 0,5.59 4.531,10.16 10.16,10.16 z m 57.109,-11.57 5.153,-5.31 -24.063,-12.46 18.91,17.77 z m 167.77,-5.42 c 0.312,0 0.66,0 1.011,-0.04 3.719,-0.47 5.282,-2.27 7.391,-4.03 -4.691,0.98 -9.301,1.53 -13.711,1.29 1.09,1.33 3,2.66 5.309,2.78 z m -92.11,-3.87 2.231,-13.75 c -52.192,-29.69 -114.262,-57.7 -204.57,-143.09 l 0,28.4 c 56.679,52.5 122.769,96.56 202.339,128.44 z m 70.192,-1.29 c 3.25,-0.78 6.179,-0.82 9.109,-0.12 0,0 -1.879,-3.71 -4.14,-3.83 -2.348,-0.07 -4.969,3.95 -4.969,3.95 z m 22.148,-0.78 c 6.531,0.39 11.02,-5.59 9.692,-13.32 -5.039,-26.21 -4.84,-52.74 0.589,-71.25 4.219,-14.46 5.27,-19.53 1.79,-21.96 -30.782,-21.21 -47.649,74.42 -21.95,101.57 3.481,3.28 6.879,4.76 9.879,4.96 z m -251.211,-3.36 c 5.633,0 10.203,-4.53 10.203,-10.16 0,-5.62 -4.57,-10.15 -10.203,-10.15 -5.578,0 -10.148,4.53 -10.148,10.15 0,5.63 4.57,10.16 10.148,10.16 z m 883.992,-2.35 19.14,-32.07 -26.68,-29.84 -16.17,34.69 23.71,27.22 z m -658.359,-17.42 -1.019,-11.05 c -13.75,-4.18 -25.704,-10.12 -36.012,-18.87 -2,-1.68 31.832,-16.95 35.39,-13.44 l -0.082,-11.79 c -0.468,-3.87 -55.937,13.75 -59.687,26.87 6.289,8.75 41.367,29.06 61.41,28.28 z m -252.391,-5.86 c 5.629,0 10.2,-4.57 10.2,-10.19 0,-5.63 -4.571,-10.16 -10.2,-10.16 -5.621,0 -10.152,4.53 -10.152,10.16 0,5.62 4.531,10.19 10.152,10.19 z m 151.25,-11.68 c -3.941,-7.5 -9.761,-17.42 -10.851,-28.28 -38.051,-23.08 -77.078,-44.61 -124.539,-97.54 l -25.578,0.16 -0.59,6.72 c 51.879,49.45 108.047,92.11 161.558,118.94 z m 98.008,-3.2 0.282,-13.95 c -8.872,-0.11 -13.68,2.78 -20.282,6.1 5.551,3.51 9.852,6.99 20,7.85 z m 286.25,-1.48 7.153,-7.5 -4.45,-4.18 -2.703,11.68 z m -385.429,-28.99 14.062,-8.75 c -36.242,-18.94 -74.41,-46.87 -107.461,-83.4 l -27.89,0 c 35.242,38.21 73.21,72.46 121.289,92.15 z m 751.291,-10.04 2.81,-37.89 -35.39,-19.41 0.71,40 31.87,17.3 z m -672.811,-0.15 24.34,-2.66 2.5,-10.27 c -20.399,-13.01 -38.129,-28.25 -55.16,-44.07 6.519,20.36 16.679,40.51 28.32,57 z m -58.32,-4.07 10.429,-4.84 -4.136,-17.77 c -29.813,-13.25 -53.563,-31.18 -78.992,-55.28 l -28.629,0 c 25.078,26.88 66.757,60.67 101.328,77.89 z m 90.511,-16.75 c 0.11,0.03 0.11,0.03 0.11,-0.04 l 3.789,-116.76 C 441.051,1168.28 446.762,1049.3 477.422,941.371 l -20.043,0.93 C 434.059,971.25 403.09,1000.7 403.09,1000.7 l -0.078,339.69 72.457,-0.27 c 17.07,39.53 64.101,67.65 66.761,67.97 z m -85.55,-16.37 0.859,-15.59 c -14.961,-8.9 -27.699,-18.67 -38.629,-29.18 l -27.23,0 c 18.832,17.5 37.5,35.12 65,44.77 z m 247.07,-7.66 3.98,-18.36 c -243.941,-88.24 -288,-344.76 -144.058,-520.86 l -9.762,-10.93 c -165.32,177.54 -92.781,467.5 149.84,550.15 z M 458.629,1365.7 c 0,0 1.332,-14.06 1.723,-18.75 l -27.301,0 c 6.129,7.19 11.597,14.69 25.578,18.75 z m 686.451,-5.9 -15.7,-36.6 -41.96,-0.66 19.06,36.64 38.6,0.62 z m -265.549,-25.07 38.239,0 0,-36.53 -38.239,0 0,36.53 z m -165.39,-3.6 0.629,-16.05 c -17,-8.67 -12.7,-22.42 -16.961,-22.19 -10.469,-2.66 -37.969,-17.23 -37.969,-17.23 -9.762,8.83 -22.93,6.61 -29.059,2.31 -8.48,-5.55 -10.351,-18.48 -7.929,-29.42 l -29.18,-34.14 c -14.102,6.06 -27.852,5.67 -34.692,-3.75 -7.73,-10.58 -4.8,-23.75 7.969,-38.51 l -15.898,-40.82 c -1.832,2.46 -28.43,-5.35 -28.821,-21.17 -0.39,-16.72 22.032,-27.66 21.989,-28.95 l -1.059,-45 c -1.012,2.15 -22.851,-6.76 -19.922,-28.32 2.742,-19.839 29.774,-17.421 30.352,-19.101 l 14.691,-43.09 c -0.98,1.332 -19.922,-17.179 -8.32,-34.719 9.687,-14.609 37.738,-5.16 37.5,-4.218 l 7.769,-10.981 -8.589,-9.332 c 0,0 -3.711,4.492 -5.821,4.063 -16.332,-3.133 -34.57,0.617 -43.359,13.668 -11.91,18.398 1.41,47.148 5.629,46.91 l -10.078,24.851 c -18.403,0.348 -33.992,16.789 -34.813,30.539 -1.75,28.83 21.922,40.9 21.961,40.71 l 0.699,26.87 c -1.449,-1.6 -23.398,13.95 -22.847,31.8 0.386,13.05 11.367,28.4 24.879,34.57 3.949,1.87 10.039,4.77 10.039,4.77 l 9.14,22.03 c 0,0 -12.968,18.71 -9.609,37.57 6.25,28.56 43.48,26.61 49.34,23.83 l 17.301,21.64 c -8.512,19.73 6.168,42.66 25.386,46.37 8.524,1.37 32.461,-4.3 32.461,-4.3 l 22.11,11.45 c -0.387,12.11 12.82,19.96 25.082,27.34 z m 125.82,-40 32.769,0 0,-36.48 -32.769,0 0,36.48 z m 87.269,0 36.95,0 0,-36.48 -36.95,0 0,36.48 z m -210.429,-9.14 -0.43,-13.94 C 504.879,1165.47 591.371,953.16 621.52,928.48 l -6.79,-15 c -37.109,22.571 -132.781,267.57 102.071,368.51 z m 162.73,-36.95 39.77,0 0.347,-37.54 -39.769,0 -0.348,37.54 z M 707.578,1226.76 695,1192.58 l -38.828,-3.28 14.34,34.14 37.066,3.32 z m 793.512,-25 26.57,-0.16 c -49.65,-58.08 -103.28,-97.69 -156.18,-119.37 0,0 -0.19,5.15 1.45,9.25 1.29,3.25 -0.82,11.41 -0.82,11.41 58.83,28.99 99.22,62.62 128.98,98.87 z m -136.17,-0.51 c -6.83,-8.2 -14.61,-15.47 -24.3,-20.82 l -3.86,21.17 c 8.12,0.08 28.16,-0.35 28.16,-0.35 z m 46.8,0.47 c 2.66,-6.76 -69.77,-45.86 -70,-42.54 l 0.19,13.01 39.07,28.98 30.74,0.55 z m 15.62,0 0.16,0 20.39,-0.12 c -18.44,-29.06 -115.78,-81.76 -111.76,-74.33 l 3.95,21.21 c 31.37,13.82 59.88,32.57 87.26,53.24 z m 34.34,0 26.84,-0.12 c -40.36,-51.25 -81.29,-69.96 -120.55,-91.99 -2.38,0.35 -1.29,1.21 -8.63,1.01 l -13.44,10.47 c 2.5,-2.3 90.23,49.14 115.78,80.63 z m -750.469,-1.84 -0.941,-15.47 c -56.442,-48.55 -79.059,-110.58 -49.719,-182.57 l -6.961,-15.391 c -31.602,76.831 -22.262,151.481 57.621,213.431 z m 257.027,-2.42 3.012,-41.8 -175.23,-170.582 c 26.679,95.312 34.058,152.852 41.21,212.152 l 131.008,0.23 z m 561.252,-9.84 0.08,-23.17 c -69.1,-76.13 -138.75,-110.23 -198.91,-124.02 l -1.36,8.91 27.85,17.14 c 89.8,39.14 129.1,78.48 172.34,121.14 z m -209.69,-0.63 c 1.22,-16.76 -13.71,-48.4 -30.78,-66.25 l -29.22,0.08 -3.24,12.7 c 24.22,13.04 46.68,30.74 63.24,53.47 z m 8.79,-4.96 c 10.75,-17.3 -5.35,-61.99 -6.01,-60.23 -1.29,-3.09 91.83,-22.74 -3.83,-68.83 2.07,-13.52 11.05,-42.42 4.14,-60.271 -2.15,6.832 -18.83,53.201 -31.68,65.071 29.88,8.52 51.37,26.76 49.06,32.82 -4.88,8.55 -18.24,19.06 -40.74,26.79 19.14,26.57 24.85,46.53 29.06,64.65 z m -683.82,-8.48 3,-35.23 -34.02,-20.47 -2.621,38.67 33.641,17.03 z m 591.71,-32.73 c 2.66,-0.04 5.16,-0.7 6.37,-2.03 16.8,-6.8 18.01,-88.79 2.77,-97.11 -11.05,-6.95 -18.86,4.22 -18.47,6.21 7.34,37.73 2.73,61.02 -0.31,87.38 0.31,3.83 5.23,5.63 9.64,5.55 z m 293.01,-1.21 0,-29.14 C 1430.7,1008.09 1324.3,927.379 1215.62,882.07 l -9.88,16.801 c 131.96,61.008 242.31,148.079 323.75,240.739 z m -17.34,-2.66 c -45.74,-63.67 -101.49,-105.27 -177.85,-124.14 l -1.45,18.09 c 95.12,21.6 181.76,106.05 179.3,106.05 z M 267.07,1126.64 c 59.571,-60.94 120.629,-121.29 181.289,-183.831 l -24.097,-1.25 -157.891,163.831 0.699,21.25 z m 709.301,-3.05 2.149,-15.04 -17.348,-19.02 27.379,-29.45 1.41,-6.96 -23.512,-24.57 -10.629,10.51 13.008,14.61 -22.109,23.24 -40.938,-39.41 33.75,-36.64 -25.472,-24.219 -10.039,10.39 13.05,14.999 -22.66,23.91 -41.75,-41.53 31.602,-34.922 -21.063,-23.277 -10,10.508 10.821,12.422 -22.891,23.558 -40.109,-38.64 33,-36.52 -26.829,-26.719 -10.39,10.078 15.078,16.403 -24.77,23.597 -19.839,-18.75 c 0,0 7.5,18.59 8.589,21.762 1.602,4.61 8.161,8.281 49.879,49.449 49.852,49.571 100.942,96.051 150.633,150.231 z m 285.779,-10.04 c 14.57,-0.23 39.33,-3.75 51.37,-10.07 22.3,-11.76 15.27,-21.02 0.78,-27.93 -17.35,-8.28 -31.57,-12.31 -51.14,-12.89 l 0.59,9.61 c 11.37,2.77 23.16,5.54 33.2,11.09 6.92,3.83 8.71,6.91 8.71,6.91 0,0 -6.75,6.84 -17.46,10.75 -7.85,2.85 -19.1,2.81 -25.19,3.82 l -0.86,8.71 z m -651.681,-12.65 18.32,-27.5 -21.719,-36.41 -20.82,31.41 24.219,32.5 z m 369.84,-2.97 c 0.632,-5.2 7.191,-25.31 3.75,-21.41 l -12.18,13.71 8.43,7.7 z m 282.971,-2.7 c 10.16,-0.85 20.82,-1.17 28.2,-4.72 -8.59,-6.68 -18.32,-8.17 -28,-9.81 l -0.2,14.53 z m 254.38,-13.75 c 6.13,0 11.09,-4.96 11.09,-11.05 0,-6.13 -4.96,-11.09 -11.09,-11.09 -6.14,0 -11.1,4.96 -11.1,11.09 0,6.09 4.96,11.05 11.1,11.05 z m -572.07,-19.18 9.449,-9.18 -12.23,-14.21 22.191,-23.36 27.422,25.7 3.668,-16.33 -257.141,-252.971 -14.258,1.02 16.329,19.301 -18.598,19.019 7.656,13.672 21.91,-19.492 40.203,38.441 -32.543,34.289 27.852,28.563 10.512,-9.063 -15.981,-17.308 23.278,-23.75 42.031,41.371 -32.891,35.777 26.25,25.082 9.653,-9.18 -12.231,-12.929 23.988,-24.961 35.469,36.871 -32.269,35.547 28.671,27.891 8.79,-8.83 -13.2,-14.729 24.102,-24.922 38.668,39.731 -31.828,34.57 25.078,24.37 z m 546.32,-6.64 c 6.14,0 11.1,-4.96 11.1,-11.05 0,-6.13 -4.96,-11.09 -11.1,-11.09 -6.13,0 -11.09,4.96 -11.09,11.09 0,6.09 4.96,11.05 11.09,11.05 z m -209.02,-0.46 c 17.46,-20.51 27.97,-43.32 30.08,-67.899 -13.95,21.179 -31.72,39.969 -54.96,56.249 l 3.98,10.32 20.9,1.33 z m 246.6,-1.68 0,-24.73 C 1451.6,940.512 1357.03,873.98 1259.96,827.699 l -16.52,20.071 c 114.8,51.25 197.93,114.929 286.05,205.75 z m -114.61,-17.27 -31.56,-24.53 -0.04,10.62 31.6,13.91 z m -162.77,-1.84 c 26.87,-13.12 49.45,-35.308 62.89,-68.16 -36.72,-23.051 -77.03,-41.719 -115.43,-60.27 -18.4,29.68 -36.95,57.5 -51.52,95.7 59.22,0.47 75.47,32.81 75.86,33.05 14.29,-5.39 17.26,-6.06 28.2,-0.32 z m 212.77,-4.8 c 5.51,-0.12 11.06,-4.34 11.25,-10.66 0,-6.14 -4.96,-11.1 -11.09,-11.1 -6.13,0 -11.09,4.96 -11.09,11.1 1.21,7.65 6.05,10.74 10.93,10.66 z m -81.95,-7.31 0.08,-10.7 c -15.12,-13.241 -44.49,-34.69 -44.49,-34.69 l -12.15,0.668 3.94,30.352 c 18.4,3.71 36.21,9.06 52.62,14.37 z m -773.52,-1.25 29.031,-23.82 -8.91,-37 -28.511,21.68 8.39,39.14 z m 389.5,-6.99 2.69,-10.7 -238.28,-235.508 -13.55,2.187 249.14,244.021 z m 439.57,-9.1 c 6.09,0 11.09,-4.96 11.09,-11.089 0,-6.101 -5,-11.062 -11.09,-11.062 -6.14,0 -11.1,4.961 -11.1,11.062 0,6.129 4.96,11.089 11.1,11.089 z m 87.97,0.08 c 1.32,0 2.85,0.12 2.85,-1.13 l 0,-20.39 c -1.18,-0.399 -2.42,-0.629 -3.71,-0.629 -6.14,0 -10.2,4.961 -10.2,11.058 0,6.131 4.96,11.091 11.06,11.091 z m -26.88,-24.688 c 6.13,0 11.09,-4.961 11.09,-11.09 0,-6.141 -4.96,-11.102 -11.09,-11.102 -6.13,0 -11.09,4.961 -11.09,11.102 0,6.129 4.96,11.09 11.09,11.09 z m -93.12,-0.122 c 6.09,0 11.05,-4.96 11.05,-11.089 0,-6.129 -4.96,-11.09 -11.05,-11.09 -6.14,0 -11.1,4.961 -11.1,11.09 0,6.129 4.96,11.089 11.1,11.089 z m -80.16,-3.429 11.41,-0.391 -21.22,-12.582 c 3.91,4.844 7.54,8.594 9.81,12.973 z m 203.16,-5.199 0.16,-22.774 C 1475.12,894.34 1406.29,837.852 1301.05,783.359 l -13.39,13.59 c 85.78,40.903 166.29,98.25 241.79,174.653 z M 1374.69,959.18 c 6.13,0 11.09,-4.961 11.09,-11.09 0,-6.102 -4.96,-11.059 -11.09,-11.059 -6.14,0 -11.1,4.957 -11.1,11.059 0,6.129 4.96,11.09 11.1,11.09 z m 98.55,-0.821 c 6.14,0 11.1,-4.961 11.1,-11.089 0,-6.141 -4.96,-11.098 -11.1,-11.098 -6.13,0 -11.09,4.957 -11.09,11.098 0,6.128 4.96,11.089 11.09,11.089 z M 369.379,913.871 c 37.609,21.828 67.851,24.367 110.891,17.809 l 12.89,-25.391 c -41.949,7.422 -86.129,6.762 -123.941,-22.418 -39.141,24.758 -68.91,31.91 -101.059,27.891 l -0.582,26.758 c 41.91,5.859 79.531,-8.52 101.801,-24.649 z m 974.761,24.141 c 6.13,0 11.09,-4.961 11.09,-11.102 0,-6.09 -4.96,-11.09 -11.09,-11.09 -6.13,0 -11.09,5 -11.09,11.09 0,6.141 4.96,11.102 11.09,11.102 z m 101.33,-4.571 c 6.13,0 11.09,-4.961 11.09,-11.062 0,-6.129 -4.96,-11.09 -11.09,-11.09 -6.09,0 -11.06,4.961 -11.06,11.09 0,6.101 4.97,11.062 11.06,11.062 z M 1310.82,916.91 c 6.09,0 11.06,-4.961 11.06,-11.09 0,-6.129 -4.97,-11.09 -11.06,-11.09 -6.13,0 -11.09,4.961 -11.09,11.09 0,6.129 4.96,11.09 11.09,11.09 z m 103.32,-6.441 c 6.13,0 11.09,-4.957 11.09,-11.09 0,-6.098 -4.96,-11.059 -11.09,-11.059 -6.13,0 -11.09,4.961 -11.09,11.059 0,6.133 4.96,11.09 11.09,11.09 z m -137.5,-13.168 c 6.21,0 11.25,-5.031 11.25,-11.211 0,-6.211 -5.04,-11.25 -11.25,-11.25 -6.21,0 -11.25,5.039 -11.25,11.25 0,6.18 5.04,11.211 11.25,11.211 z m 107.89,-9.289 c 6.13,0 11.09,-4.961 11.09,-11.102 0,-6.09 -4.96,-11.051 -11.09,-11.051 -6.13,0 -11.09,4.961 -11.09,11.051 0,6.141 4.96,11.102 11.09,11.102 z m -140.7,-7.66 c 6.09,0 11.05,-4.961 11.05,-11.09 0,-6.141 -4.96,-11.102 -11.05,-11.102 -6.13,0 -11.1,4.961 -11.1,11.102 0,6.129 4.97,11.09 11.1,11.09 z m -490.041,-10.043 27.582,-25.231 -28.519,-28.629 -10.473,10.031 15.902,16.61 -10.742,14.449 6.25,12.77 z m 600.161,-2.418 c 6.13,0 11.09,-4.961 11.09,-11.09 0,-6.141 -4.96,-11.102 -11.09,-11.102 -6.14,0 -11.1,4.961 -11.1,11.102 0,6.129 4.96,11.09 11.1,11.09 z m -31.92,-18.789 c 6.13,0 11.09,-4.961 11.09,-11.09 0,-6.102 -4.96,-11.063 -11.09,-11.063 -6.13,0 -11.09,4.961 -11.09,11.063 0,6.129 4.96,11.09 11.09,11.09 z m -34.69,-18.832 c 6.14,0 11.1,-4.961 11.1,-11.09 0,-6.09 -4.96,-11.059 -11.1,-11.059 -6.13,0 -11.09,4.969 -11.09,11.059 0,6.129 4.96,11.09 11.09,11.09 z m -570.039,-31.36 8.988,-7.308 -14.098,-16.993 -10.781,0.121 15.891,24.18 z M 543.199,753.09 C 511.762,737.539 496.84,727.699 474.922,708.629 l -31.371,43.519 99.648,0.942 z m -213.75,-0.32 83.641,-1.168 -27.82,-39.372 c -18.36,19.329 -36.95,32.461 -55.821,40.54 z m 99.653,-4.29 c 9.058,-2.89 32.777,-36.679 43.949,-55.16 23.789,18.91 47.07,40.078 72.5,51.45 -30.242,-31.918 -56.762,-64.93 -75.629,-96.84 -5.352,14.371 -20.231,55.59 -39.102,73.48 -29.73,-27.781 -41.48,-61.25 -41.48,-61.25 -15.981,27.219 -35.281,54.531 -57.539,80.07 -3.711,5 27.109,-14.179 57.609,-43.82 8.602,21.641 31.57,51.211 39.692,52.07 z M 328.59,727.23 c 14.379,-11.41 53.441,-61.531 57.93,-91.679 l -18.711,-1.172 c -9.957,30.93 -26.68,61.871 -39.219,92.851 z m 208.09,-5.121 C 522.5,693.09 504.961,663.441 492.34,631.328 l -18.469,0.82 c 20.27,44.223 27.609,52.34 62.809,89.961 z M 430.621,709.18 c 0.199,0.039 0.359,0 0.469,-0.121 17.582,-23.981 25.859,-47.258 31.101,-75.618 l -13.601,0.508 c 0,0 -9.488,28.473 -15.969,38.551 -4.223,6.129 -7.582,5.352 -10.551,0.23 -6.718,-12.031 -9.218,-24.101 -13.011,-37.179 l -15.618,1.129 c -2.89,21.48 31.719,71.949 37.18,72.5 z m -2.461,-82.621 c 6.371,-0.11 13.012,-6.989 12.969,-19.059 0.473,-5.699 -3.938,-18.281 -8.707,-18.91 -8.871,-4.68 -19.332,9.93 -16.723,22.109 2.27,10.352 6.879,15.903 12.461,15.86 z m -30.781,-2.297 c 12.582,-1.102 15.281,-29.262 10.199,-35.043 -5.859,-5.778 -21.289,-1.68 -22.777,8.359 -5.031,12.774 4.148,26.563 12.578,26.684 z m 61.922,0.148 c 13.668,-1.91 10.23,-32.808 3.16,-37.379 -11.012,-5.781 -19.371,3.91 -15.66,18.438 3,11.722 7.461,18.672 12.5,18.941 z m 31.64,-5.109 c 15.661,-1.762 6.598,-28.992 -0.242,-34.531 -9.961,-7.739 -19.527,3.859 -14.758,17.691 3.668,10.699 9.84,16.918 15,16.84 z M 364.488,618.48 c 11.41,-1.839 18.012,-27.621 11.211,-35 -3.551,-4.218 -13.82,1.95 -18.551,9.02 -5.668,8.48 -0.347,26.02 7.34,25.98 z m 121.293,-56.179 c 1.367,-13.512 -8.871,-13.512 -38.281,-6.91 -14.879,3.32 -41.211,1.211 -54.691,-1.211 -22.61,-4.141 -25.821,-2.539 -25.778,6.679 0.039,10.661 12.739,16.762 42.11,17.661 21.058,0.66 73.359,0.859 76.64,-16.219 z m 45.739,7.969 c -35.04,-3.321 -44.329,-47.219 -40.5,-63.43 3.082,-27.11 1.789,-55.512 -3.442,-74.18 -3.75,-13.398 -7.066,-27.699 -13.09,-39.808 -9.218,-18.364 -6.828,-31.993 6.84,-39.301 11.211,-6.012 25.043,-3.942 33.711,5.359 15.621,16.789 17.5,52.539 7.93,133.512 -3.399,28.598 -1.559,34.297 12.301,32.699 29.109,0.231 27.929,45.078 -3.75,45.149 z m -4.219,-36.911 c -7.813,3.012 -13.121,-4.097 -12.102,-21.839 0.27,-7.848 1.68,-16.719 2.653,-23.75 11.367,-77.731 7.109,-129.801 -16.762,-132.379 -20.781,-3.321 -34.84,11.988 -24.719,27.808 5.738,8.949 10.699,10.16 21.867,5.473 15.352,-9.531 11.532,4.34 -2.297,14.566 -8.871,6.25 -9.531,6.25 -4.812,25.903 6.449,26.449 8.601,45.308 6.25,78.789 -3.32,23.672 4.57,55.082 34.73,56.91 30.469,0.941 21.289,-42.34 -4.808,-31.481 z M 312.191,430.98 c 9.918,-4.769 19.571,-3.992 29.02,-0.082 3.668,16.524 3.91,30.274 15.039,52.731 -18.551,18.562 -49.73,11.293 -58.52,-8.16 -8.75,-19.418 -0.582,-37.231 14.461,-44.489 z m 29.719,57.379 c 11.25,-2.379 9.57,-14.179 -1.012,-10.347 -25.199,11.867 -45.738,-23.832 -25.386,-37.274 10.386,-5.816 14.957,-2.457 4.687,5.512 -4.219,4.84 -3.168,6.84 -0.629,11.68 5.27,9.8 24.45,8.242 23.129,1.09 -4.379,-22.61 -7.269,-29.141 -14.07,-29.18 -39.098,-2.031 -46.481,71.211 13.281,58.519 z m 332.352,-40.66 c 0,0 -116.532,-131.758 -172.66,-199.258 l 703.558,3.239 -133.87,184.73 C 956.449,409.879 821.48,417.539 674.262,447.699 z m -3.481,-42.109 c 17.578,-0.199 37.539,-12.969 54.84,-55.512 0.938,-0.387 77.391,116.094 143.559,-4.488 10.82,27.07 73.16,97.648 145.2,7.031 25.58,60.66 84.6,40.149 90.15,18.981 -1.25,4.57 -56.25,17.617 -80.04,-22.582 -4.41,-8.508 -4.65,-16.559 0.39,-21.36 11.92,-11.289 -1.05,-27.461 -14.57,-18.25 -5.31,3.559 -5.97,11.102 -1.91,16.531 11.95,8.899 -12.541,36.637 -32.701,46.637 -27.648,13.672 -66.211,7.621 -84.758,-12.027 -9.961,-10.551 -16.062,-20.039 -17.5,-27.621 -0.781,-3.551 -0.32,-5.391 1.789,-7.731 8.008,-9.687 2.739,-22.969 -8.16,-21.371 -14.261,2.113 -12.34,15.434 -2.808,22.731 2.929,1.41 1.789,3.132 0.937,5.632 -26.019,73.278 -123.051,59.329 -133.519,8.59 -0.391,-1.871 -1.211,-3.793 -0.782,-5.703 1.09,-4.848 3.903,-8.949 2.813,-12.738 -4.449,-15.578 -23.941,-11.129 -24.801,1.801 -0.43,5.859 5.93,7.621 9.02,12.968 1.871,3.36 2.73,7.5 0.941,11.211 -26.293,55.078 -71.41,43.559 -93.793,31.09 -0.469,-0.23 20,26.449 45.703,26.18 z m -29.179,-31.918 c 9.609,0.348 18.398,-4.371 26.558,-13.871 27.539,14.578 47.11,-10.66 43.871,-13.082 -39.019,25.312 -51.679,-33.668 -13.242,-31.449 -16.879,-34.918 43.441,-49.918 36.68,-5.27 37.23,-12.969 43.359,38.121 5.66,37.379 12.191,21.101 43.793,15.281 57.191,2.07 15.739,19.223 54.34,0.903 58.2,-15.539 -43.321,22.18 -47.692,-45.629 -5.739,-31.18 -12.422,-43.199 54.258,-37.031 35.821,0.161 41.558,-13.629 35.898,48.437 -4.922,35.859 -2.461,3.199 32.269,39.102 57.539,5.391 3.441,5.937 42.851,25.39 64.451,-5.161 -46.76,15.821 -37.932,-47.14 -4.408,-34.64 -8.953,-41.68 51.518,-34.93 36.088,0.621 46.84,-11.84 26.1,59.527 -6.83,33.16 5.35,28.719 44.76,16.801 44.33,12.391 0,0.039 20.9,22.609 44.34,6.047 -36.6,-3.039 -24.14,-52.418 10.43,-38.36 -0.39,-16.75 13.55,-27.847 32.38,-22.148 l 29.57,-41.36 -674.449,-4.261 53.859,64.218 c 18.008,-14.878 36.68,-7.847 38.989,15.512 39.222,-24.031 49.41,33.078 12.621,35.578 7.461,5.082 14.449,7.703 21.012,7.934 z M 603.91,355.121 c 2.34,-1.68 -0.82,-9.609 -5.98,-7.312 l 5.98,7.312 z M 1129.8,338.52 c 2.04,-2.899 3.44,-4.731 5.43,-7.579 0.98,-2.582 -10.5,1.329 -5.43,7.579"
         inkscape:connector-curvature="0"
         id="path24"
         style="fill:#000000;fill-opacity:1;fill-rule:nonzero;stroke:none" /></g></g></svg>