<?xml version="1.0" encoding="UTF-8" standalone="no"?>
<!-- Created with Inkscape (http://www.inkscape.org/) -->

<svg
   xmlns:dc="http://purl.org/dc/elements/1.1/"
   xmlns:cc="http://creativecommons.org/ns#"
   xmlns:rdf="http://www.w3.org/1999/02/22-rdf-syntax-ns#"
   xmlns:svg="http://www.w3.org/2000/svg"
   xmlns="http://www.w3.org/2000/svg"
   xmlns:inkscape="http://www.inkscape.org/namespaces/inkscape"
   version="1.1"
   width="225"
   height="315"
   id="svg2"
   xml:space="preserve"><metadata
     id="metadata8"><rdf:RDF><cc:Work
         rdf:about=""><dc:format>image/svg+xml</dc:format><dc:type
           rdf:resource="http://purl.org/dc/dcmitype/StillImage" /></cc:Work></rdf:RDF></metadata><defs
     id="defs6" /><g
     transform="matrix(1.25,0,0,-1.25,0,315)"
     id="g10"><g
       transform="scale(0.1,0.1)"
       id="g12"><path
         d="m 89.1016,2508.44 1615.7384,0 c 47.11,0 85.04,-37.93 85.04,-85.04 l 0,-2324.4195 c 0,-47.1016 -37.93,-85.0313 -85.04,-85.0313 l -1615.7384,0 c -47.1133,0 -85.04301,37.9297 -85.04301,85.0313 l 0,2324.4195 c 0,47.11 37.92971,85.04 85.04301,85.04"
         inkscape:connector-curvature="0"
         id="path14"
         style="fill:#ffffff;fill-opacity:1;fill-rule:nonzero;stroke:none" /><path
         d="m 89.1016,2508.44 1615.7384,0 c 47.11,0 85.04,-37.93 85.04,-85.04 l 0,-2324.4195 c 0,-47.1016 -37.93,-85.0313 -85.04,-85.0313 l -1615.7384,0 c -47.1133,0 -85.04301,37.9297 -85.04301,85.0313 l 0,2324.4195 c 0,47.11 37.92971,85.04 85.04301,85.04 z"
         inkscape:connector-curvature="0"
         id="path16"
         style="fill:none;stroke:#000000;stroke-width:7.9738698;stroke-linecap:butt;stroke-linejoin:miter;stroke-miterlimit:4;stroke-opacity:1;stroke-dasharray:none" /><path
         d="m 241.328,2302.15 1308.282,0 2.38,-2090.9 -1311.72,3.48 c 0,0 -0.071,1364.41 1.058,2087.42 z M 1170.59,226.289 C 1121.88,314.18 1044.88,457.34 1042.62,458.48 1014.14,443.398 723.828,404.73 584.18,442.191 536.449,370.781 489.531,300.078 447.969,229.301 l 722.621,-3.012 z M 724.73,489.18 c -7.269,-0.16 -15.429,-4.61 -13.949,-0.739 0.899,2.219 2.969,24.758 3.867,32.809 2.153,3.59 5.231,-5.82 4.883,-14.531 -0.191,-5 2.231,-1.449 18.75,-2.309 17.891,-0.93 32.539,-4.25 38.598,-5.582 21.172,-4.527 62.07,-1.25 79.601,11.402 9.5,6.879 13.09,-0.539 3.29,-7.89 -44.18,-33.281 -79.18,-20.621 -117.579,-15.039 -5.742,0.859 -11.531,2 -17.461,1.879 z m 18.79,31.558 c -2.739,1.801 -4.54,1.992 -8.051,0.352 -13.559,-6.289 -10,2.738 -0.239,11.84 4.461,4.14 4.34,6.25 0.942,10.621 -1.723,2.187 -4.57,2.469 -3.902,5.789 2.929,14.25 23.082,35.859 45.582,45.461 9.378,4.027 10.859,-0.352 -0.973,-7.262 -18.207,-10.66 -24.109,-19.73 -13.789,-16.059 19.961,7.192 38.16,2.11 63.75,-10.539 7.301,-3.64 10.621,-4.339 16.832,-3.671 4.609,3.781 8.707,-0.79 11.558,-3.168 1.801,-1.403 2.192,-2.114 4.219,-1.641 14.531,3.398 5.821,-5.82 -14.058,-20.231 -35.621,-25 -74.45,-36.8 -101.871,-11.492 z m 54.8,-6.129 c 14.532,4.34 32.301,13.442 43.16,22.969 13.25,11.524 5.79,9.762 -9.449,2.5 -21.992,-10.547 -37.383,-13.598 -62.152,-13.008 -20.699,0.469 -20.078,1.289 -20.82,-1.25 -2.649,-9.019 25.863,-18.199 49.261,-11.211 z m -40.199,35.161 c 1.18,3.859 2.078,9.058 1.02,10.742 -1.911,3.039 -6.02,0.777 -11.25,-5.782 -3.282,-4.07 -2.813,-4.652 0.347,-7.851 1.602,-1.059 2.813,-1.879 3.793,-2.43 4.418,-1.871 5.117,2.192 6.09,5.321 z m 9.07,-5.321 c 6.36,21.571 20.618,21.141 30.778,0.512 l 7.191,-0.039 c -14.769,40.117 -43.32,19.808 -44.262,-0.152 3.364,-1.098 6.293,-0.321 6.293,-0.321 z m 53.278,3.641 c 6.722,3.711 5.742,6.25 -2.848,10.66 -6.101,3.129 -9.301,3.75 -10.43,1.719 0.079,-4.418 0.27,-10.778 2.848,-14.297 2.691,-1.641 6.41,-0.043 10.43,1.918 z m -94.418,61.359 c -1.25,2.031 -1.012,5.711 3.679,7.891 28.899,13.281 7.848,41.289 -14.46,20.281 -7.071,-5.781 -17.61,-8.441 -25.739,-5 -7.621,3.277 -7.769,12.578 2.379,14.57 3.32,0.618 11.879,2.418 15.039,4.61 38.75,20.621 59.379,-24.18 31.84,-39.102 -5.668,-3.289 -11.641,-5.121 -12.738,-3.25 z m -108.629,40.672 c -15.742,7.07 -17.891,31.68 -3.121,41.25 9.371,6.359 18.98,8.117 44.84,-4.609 18.238,-8.953 28.711,0.699 28.238,-9.731 -0.27,-6.371 -0.66,-12.769 -11.289,-14.301 -17.262,-2.5 -29.02,20.79 -51.211,18.598 -15.969,-1.598 -13.981,-20.59 -2.418,-24.449 15.43,-5.16 6.059,-11.258 -5.039,-6.758 z m 289.379,-3.562 c -2.891,-1.36 -4.262,4.921 -3.012,8.281 7.852,18.519 15.082,33.25 22.231,50.59 5.66,13.832 9.492,19.769 12.031,19.769 2.609,-0.039 3.828,-2.078 -0.551,-10.59 -6.559,-17.148 -30.699,-69.531 -30.699,-68.05 z m -129.223,4.812 c -6.957,4.918 -5.777,12.219 2.152,6.68 10.149,-7.11 26.829,5.898 23.43,18.16 -4.101,14.84 -23.941,18.437 -40.539,5.16 -26.211,-20.98 -54.961,-22.031 -54.961,-5.672 0.039,4.692 -0.629,5.781 10.27,6.492 12.691,0.86 26.992,6.637 34.101,10.93 31.879,19.301 65.821,5.981 58.789,-26.211 -3.16,-15.191 -21.91,-22.531 -33.242,-15.539 z m -116.918,47.5 c -2.57,0.078 -7.301,-2.5 -8.672,-1.492 -2.648,1.961 -2.258,7.66 -4.449,13.793 -3.867,10.859 -0.078,7.457 6.723,4.527 9.258,-3.551 18.039,-2.89 25.859,-0.187 8.039,2.769 18.59,2.148 35.5,-0.043 13.641,-1.758 21.289,-1.25 33.641,2.261 13.398,4.149 9.84,2.661 7.617,-5.539 -1.449,-5.39 -3.289,-12.621 -5,-14.382 -9.258,5.16 -16.289,3.171 -22.391,-0.309 -10,-4.379 -17.109,-5.16 -25.308,-2.699 -7.7,4.34 -12.27,3.988 -18.481,0.238 -10.66,-5.16 -15.39,3.359 -25.039,3.832 z m 199.891,22.578 c 1.871,3.281 4.609,7.77 7.179,12.852 20.711,40.82 22.11,52.179 7.5,65.969 -19.64,18.48 -36.359,10.468 -55.191,-26.481 -4.57,-8.949 -7.309,-15.699 -9.141,-18.48 -2.148,-3.161 -4.648,-0.7 -5.859,0.511 -2.309,2.379 18.551,41.559 26.762,50.121 21.398,22.418 61.25,4.489 58.711,-25.98 -1.293,-15.352 -4.223,-23.75 -18.364,-51.871 -3.476,-6.961 -6.527,-12.86 -8.359,-15.711 -6.641,-4.41 -5.117,5.711 -3.238,9.07 z m -195.199,1.602 c 3.277,14.57 50.238,21.289 62.617,2.219 1.211,-1.872 0.511,-1.79 -4.809,-0.348 -23.898,7.848 -28.629,7.418 -51.519,-1.563 -3.442,-1.328 -5.86,-1.879 -6.289,-0.308 z m 179.179,2.769 c 0,1.371 1.758,6.758 4.418,11.95 15.66,30.75 19.961,38.171 15.192,43.91 -9.301,11.211 -21.801,1.441 -33.282,-30.629 -4.3,-11.992 -7.23,-9.449 -9.339,-7.531 -4.02,3.589 13.75,40.929 22.308,46.519 19.41,12.262 34.692,-1.918 26.133,-26.988 -6.723,-11.332 -12.231,-28.75 -18.481,-37.93 -2.96,-4.101 -6.992,-2.891 -6.949,0.699 z m -70.23,49.918 c -0.942,1.563 0.898,3.641 7.609,17.973 9.262,19.648 12.11,26.949 8.36,38.199 -6.68,20 -31.911,24.93 -47.258,11.801 -5,-4.262 -8.403,-10.121 -10.782,-15.391 -5.55,-12.191 -10.16,-27.968 -13.441,-31.289 -2.848,-2.89 -6.879,-3.48 -6.598,1.559 3.629,10.629 5.348,18.832 13.981,34.422 21.488,46.367 83.398,24.918 68.906,-23.91 -5.387,-17.731 -11.598,-31.133 -15.277,-35.512 -2.031,-2.418 -5.391,-0.309 -5.5,2.148 z m -14.379,8.524 c 0.039,1.519 2.348,5.898 4.808,11.949 10.469,25.738 10.54,33.59 -4.73,33.949 -9.102,-1.18 -10.469,-4.89 -18.48,-25.199 -2.61,-6.602 -4.059,-11.289 -5.579,-13.281 -1.679,-2.192 -4.812,-0.899 -6.062,0.39 -3.277,3.321 11.019,36.602 18.562,42.891 17.379,15.039 39.879,-6.289 29.329,-25.473 -4.918,-13.359 -9.18,-22.457 -12.071,-26.597 -2.578,-3.672 -5.777,-3.121 -5.777,1.371 z m -369.801,300.038 -52.781,3.59 c 9.34,-56.09 9.808,-117.851 0.39,-161.679 -8.082,-37.422 -8.16,-65.039 -5.781,-97.5 2.821,-37.77 18.91,-69.801 22.973,-109.883 2.93,-29.058 -3.551,-59.379 -9.332,-88.277 -9.649,-48.281 -7.66,-53.321 -6.25,-109.961 1.32,-52.5 -3.602,-50.629 -6.641,-47.578 -0.429,0.468 -0.859,9.758 -0.789,20.816 0.039,11.051 -0.621,38.051 -1.25,56.793 -1.281,37.469 2.93,70.59 5.942,84.18 6.168,27.738 13.128,56.179 8.867,86.84 -8.707,38.75 -20.938,77.418 -25.239,114.769 -5.308,46.012 7.739,92.219 12.04,125.66 4.14,32.27 -0.282,88.13 -8.75,111.37 -1.489,7.73 -8.442,17.81 -8.442,17.81 -7.93,1.13 -15.937,2.23 -27.109,2.19 -0.59,-221.721 0,-443.479 0.191,-665.202 l 49.219,-45.429 50.551,47.812 2.191,653.679 z M 393.672,830 c 0,0 75.078,-43.051 157.848,-85.309 -7.891,48.36 17.109,55.661 40.589,61.289 -5.629,93.43 80.43,74.25 93.59,-6.921 l 8.481,-0.039 c 14.922,40.468 29.648,68.402 63.59,75.082 26.289,5.16 52.23,-11.403 58.832,-50.473 -1.172,2.781 87.187,51.601 89.609,-51.598 40.16,24.77 68.789,3.36 80.348,-28.121 16.961,25.699 59.381,26.828 72.931,28.711 4.73,5.391 13.05,8.469 28.17,8.399 13,0.66 30.43,10.308 39.41,-1.45 13.63,-2.148 24.02,0.309 35.7,-8.672 9.26,-6.988 19.61,-22.66 35.08,-11.878 29.45,14.14 62.54,20.511 88.91,37.5 0,0 -6.99,8.949 -4.96,7.699 0.74,-0.508 4.02,-4.731 8.94,-6.68 1.8,-0.699 17.97,8.941 17.97,8.941 -109.73,125.79 -199.96,371.33 -140.35,598.52 1.64,3.87 -5,5.35 -8.24,6.72 1.01,1.76 17.11,-0.59 10.27,-15.04 -6.87,-43.52 -14.69,-90.7 -16.44,-126.8 0,-4.37 0.39,-8.32 0.39,-8.32 245.97,-112.93 215.82,-357.501 152.61,-442.611 l 9.96,-13.211 c 4.42,-2.929 193.52,106.801 187.31,111.332 l 35.78,17.731 -5.82,479.579 -141.52,10.74 c 0,0 1.52,4.06 3.32,5.08 1.29,29.29 -1.33,72.57 0.07,108.82 0.55,103.6 1.61,138.83 0.24,141.68 -43.63,28.6 -108.75,70.43 -163.52,90.71 2.27,-0.63 -0.89,-42.93 -2.54,-45.32 -51.25,-16.29 -27.46,-37.07 -46.4,-59.41 -12.74,-13.95 -42.5,-16.56 -56.92,0.12 -17.14,16.56 -25.23,54.49 -25.23,54.49 -27.11,-28.83 -21.52,-63.71 -57.85,-76.84 -58.361,-28.79 -76.881,57.35 -73.478,55.35 -22.34,-21.44 -85.122,-38.9 -91.872,51.68 -28.25,-25.86 -59.851,-13 -73.281,18.79 -17.23,-0.62 -36.527,-14.02 -53.949,-21.29 -16.172,-7.14 -36.871,-11.32 -52.23,-11.01 -19.219,-2.31 -35.04,-2.19 -52.34,2.93 -8.129,-2.62 -26.481,5.23 -32.149,16.48 -8.633,10.12 -16.211,10.71 -24.41,8.91 -28.051,-14.73 -58.133,-18.24 -91.211,-33.63 -2.07,-1.45 2.93,-4.14 1.25,-3.6 -0.711,0.2 -17.39,-8.16 -17.39,-8.16 167.621,-219.34 176.761,-440.78 141.609,-597.74 -1.367,-5.43 -2.149,-9.37 1.48,-13.67 -5.308,0.94 -5.39,-0.62 -6.371,2.78 l 17.422,131.71 c 0.512,15.94 2.5,14.77 -11.558,20.71 -12.973,5.47 -25.274,10.74 -35.973,17.3 -40.899,30.16 -87.078,67.27 -109.609,113.56 -64.219,99.49 -43.051,218.24 5.07,312.3 l -11.949,12.35 C 332.379,1650.16 249.41,1574.61 249.41,1574.61 L 250.039,1104.02 394.41,1087.46 393.672,830 z m -69.652,314.22 c -4.641,5.12 -16.442,6.01 -21.36,2.11 -1.14,-0.94 -3.558,-5.94 -4.262,-5.74 -6.519,1.68 -11.058,3 -11.949,8.51 l 6.949,10.43 c 5.512,8.28 13.442,11.21 26.762,14.3 4.762,1.13 11.91,2.15 14.41,3.2 10.039,4.3 13.52,13.63 3.36,9.45 -7.418,-2.03 -17.77,-1.36 -19.141,5.4 -1.129,5.54 -5.898,7.73 -11.168,7.07 -9.812,-2.35 -18.711,-7.43 -27.391,-12.54 -3.82,-2.31 -11.128,-7.5 -11.128,-7.5 -1.133,-1.8 -5.391,11.29 -1.442,15.07 4.918,-0.58 9.141,-0.62 13.942,1.29 11.918,4.73 23.398,10.43 35.468,15 7.66,3.01 8.36,2.78 6.328,8.17 -0.976,1.99 -1.878,8.63 -0.546,12.11 1.41,3.71 1.25,5.58 -1.133,7.15 -5.43,3.59 -18.399,0.23 -36.719,-8.48 -5.551,-2.7 -9.219,-3.75 -12.73,-6.56 2.261,5.74 0.929,6.79 0.851,12.85 7.5,-0.94 14.219,1.99 20.16,5.11 4.918,2.58 10.43,5.08 23.949,6.8 3.668,0.47 1.989,13.91 -2.191,17.81 -3.988,3.68 -12.34,3.75 -22.418,0.79 -9.031,-2.07 -20.281,-4.14 -26.492,-13.79 -7.809,-7.39 0.199,12.22 14.492,20.04 6.258,0.15 20.078,3.08 23.328,3.82 5.5,1.21 6.36,14.07 -1.648,19.57 -5,4.38 18.25,4.5 17.777,3.17 -0.277,-0.78 -0.508,-6.29 1.293,-7.66 10,-3.01 9.918,-11.17 10.777,-14.57 11.481,-18.79 17.153,-7.03 25.043,-0.55 -1.64,-40.89 12.731,-45.54 14.61,-48.12 -19.731,-36.64 -4.852,-37.54 13.668,-45.94 0,0 -7.028,-2.85 -11.719,-2.58 -7.379,0.47 -21.449,-8.2 -27.621,-13.32 -3.399,-2.85 -3.508,-0.47 -17.109,-0.07 -12.77,0.35 -13.711,-0.59 -19.571,-3.17 -11.519,-5.08 -11.437,-9.88 -0.187,-8.01 11.988,2.04 23.707,-5.19 25.117,-15.07 0.93,-1.88 0.07,-5.16 -0.117,-5.04 -2.5,0.47 -8.133,-0.47 -8.051,0.7 0.078,1.21 0,5.66 -2.191,8.79 z m 17.46,49.57 c 3.29,2.03 3.829,7.93 0.981,10.31 -2.539,2.15 -13.512,1.02 -16.602,-1.76 -6.988,-5.46 5.782,-14.64 15.621,-8.55 z m 7.04,24.61 c 4.019,3.08 4.492,10.62 1.011,14.96 -5.902,7.38 -21.371,2.97 -22.191,-6.37 -0.891,-9.92 12.738,-15.15 21.18,-8.59 z m -5.04,33.75 c 0.739,8.16 -7.39,13.32 -14.851,9.45 -9.289,-4.8 -3.629,-14.96 8.012,-14.37 6.449,0.31 6.449,0.31 6.839,4.92 z m -27.191,33.08 c -4.34,-2.11 -4.57,-7.22 -0.469,-10.46 16.328,-8.99 11.371,15 0.469,10.46 z m 1138.241,-48.75 c -7.15,26.25 -26.87,0.24 -26.91,-0.11 -0.71,26.87 4.41,38.86 -15.86,48.04 20.35,30.67 16.09,34.89 -5.47,46.64 1.99,-0.15 28.63,5.79 33.2,20.94 1.02,-0.74 41.8,-10.74 46.88,11.45 -12.31,-5.59 -36.53,-6.45 -36.8,17.38 2.31,0.7 8.05,-0.47 7.54,-1.25 -3.2,-15.27 24.77,-19.06 29.34,-6.99 0,0 9.37,-6.25 13.51,-7.23 0.47,-0.31 -12.69,-18.47 -24.73,-21.25 -21.68,-7.11 -29.14,-9.06 -29.18,-13.36 0,-1.64 3.56,-1.91 10,-3.2 13.44,-0.94 13.17,-3.83 14.93,-8.24 1.56,-3.95 3.08,-4.73 7.57,-4.34 15.36,5.08 23.05,7.77 33.75,18.44 1.29,0.23 2.82,-11.21 3.64,-11.6 0.15,1.79 -10.86,-1.37 -27.74,-11.21 -13.79,-8.05 -19.22,-9.22 -20.93,-11.37 -1.33,-1.6 2.03,-6.68 2.38,-12.19 0.31,-4.61 -2.81,-6.87 -0.55,-8.32 2.66,-1.64 6.8,-1.37 12.19,0.04 11.91,2.85 20.7,7.54 31.41,14.14 -2.27,-4.3 1.52,-15.19 1.52,-15.19 0,0 -5.27,3.71 -9.61,1.79 -8.4,-3.67 -21.95,-8.67 -25.63,-9.53 -3.55,-0.82 -5.07,-1.29 -6.44,-2.46 -1.72,-1.45 -1.45,-4.88 -1.49,-9.96 0,-3.59 -1.01,-6.88 1.22,-7.97 5,-1.6 15.11,-1.09 25.39,2.5 4.41,1.91 13.71,6.95 13.71,6.95 l -2.93,-15.07 c -3.91,4.37 -15.08,1.17 -22.58,-1.8 -3.79,-1.17 -4.92,-3.52 -5.9,-6.84 -1.68,-5.58 1.92,-9.45 6.06,-11.33 2.73,-1.21 6.99,-0.7 6.99,-0.7 -19.46,-7.38 -15.59,-10.08 -26.92,-4.49 -4.88,5.27 -9.68,10.86 -11.56,17.69 z m 20.31,0 c -3.2,3.72 -8.82,5.82 -12.11,4.38 -2.89,-1.52 -1.83,-4.77 -0.93,-7.23 2.46,-6.79 19.53,-4.61 13.04,2.85 z m -11.32,18.75 c 4.57,5.98 -0.47,13.95 -8.87,14.03 -5.86,0.04 -8.99,-3.6 -8.91,-8.17 0.12,-8.63 13.99,-10.82 17.78,-5.86 z m -9.34,22.66 c 8.44,2.31 11.02,10.43 5.2,16.33 -4.15,4.22 -17.19,4.73 -20.67,0.94 -8.87,-9.69 1.09,-21.14 15.47,-17.27 z m 6.99,29.81 c 4.96,2.53 5.94,6.71 1.56,11.52 -7.96,6.72 -21.83,1.48 -17.34,-8.36 2.19,-4.81 9.77,-6.25 15.78,-3.16 z M 445.66,1533.87 c 7.461,2.69 12.82,8.43 20.668,12.85 5.313,2.89 3.711,2.42 -3.09,6.37 -5.308,2.46 -15.968,13.2 -16.988,10.62 -2.379,-4.57 -2.07,-29.65 -0.59,-29.84 z m 188.399,-262.58 c 0.32,5.12 0.941,12.81 0.781,18.48 1.019,10.78 -0.93,7.61 -6.789,4.1 -4.34,-2.78 -11.289,-6.99 -13.992,-8.36 -10.739,-5.35 -9.489,-5.63 5.671,-12.85 12.692,-5.67 14.098,-5.12 14.329,-1.37 z m -14.758,25.19 c 10.269,6.45 13.711,9.77 14.179,17 0.071,8.32 -0.902,11.36 -8.25,5.58 -24.96,-19.65 -50.699,18.91 -27.808,40.32 4.648,4.37 10.59,11.21 10.629,12.92 0.39,12.43 -13.672,0.4 -25.121,-16.68 -12.731,-15.5 -20.629,-34.92 -9.489,-53.55 8.899,-13.63 28.75,-16.33 45.86,-5.59 z m -56.762,25.08 c -0.43,6.1 1.289,12.89 2.07,14.92 2.813,7.11 2.692,8.01 -10.039,2.07 -5.082,-1.67 -11.129,-3 -13.48,-3 -10.391,0.07 -7.809,-3.21 7.109,-15.55 14.961,-12.46 15.473,-13.59 14.34,1.56 z m 35.43,59.57 c 1.562,3.75 -1.719,5.16 -4.879,4.46 -0.238,-0.04 -5.711,-4.11 -12.11,-9.11 -19.421,-15.23 -33.679,-16.99 -43.281,-5.43 -9.769,11.76 -5.711,25.71 16.129,41.68 9.652,7.04 11.953,7.54 7.301,10.59 -3.508,2.34 -3.707,1.99 -17.578,-7.34 -27.891,-18.79 -36.25,-31.64 -33.43,-50.36 0.539,-7.69 4.609,-11.71 8.508,-14.68 26.601,-23.48 63.519,8.86 79.34,30.19 z m 28.16,-11.09 -1.68,25.86 c -28.398,24.37 -55.269,65.94 -64.57,100.39 -9.488,30.62 -1.949,94.53 -0.5,89.8 L 544.02,1615 c -13.321,-30.7 -19.141,-77.46 -4.641,-125.12 12.34,-40.47 36.992,-89.45 86.75,-119.84 z m -119.488,15.08 c 9.019,17.22 9.3,15.35 -8.121,15.5 -19.891,0.16 -17.661,2.58 -6.45,-14.33 8.981,-13.56 7.461,-14.73 14.571,-1.17 z m 11.91,23.59 c 11.449,3.67 8.871,2.81 24.027,12.66 17.461,11.29 18.203,17.46 0.66,8.75 -22.457,-11.14 -42.187,-8.28 -49.527,6.29 -6.52,12.97 7.109,29.18 29.527,35.54 7.703,2.15 11.723,3.99 11.762,7.31 0.039,10.19 -38.16,-3.4 -53.91,-18.79 -30.391,-29.69 -3.789,-64.92 37.461,-51.76 z m -49.102,46.25 c 1.02,1.56 3.75,5.27 6.25,9.1 10.781,12.46 1.723,8.75 -7.808,12.15 -5.082,1.84 -10.231,3.71 -13.2,3.24 -5.711,-0.86 1.911,-11.83 3.789,-18.94 5.11,-15.78 4.532,-15.31 10.969,-5.55 z m 40.672,28.48 c 19.258,1.87 21.207,3.71 21.25,7.69 0.039,3.95 -2.351,3.21 -12.031,1.84 -25.59,-3.52 -42.539,2.97 -46.219,16.56 -3.781,14.02 13.559,27.31 36.68,26.52 12.5,-0.43 20.859,3.87 13.25,8.01 -3.992,2.15 -38.481,1.68 -46.25,-0.58 -22.93,-6.64 -32.27,-19.3 -30.16,-36.88 3.16,-21.68 15.039,-27.89 44.058,-26.37 5.551,0.32 12.621,2.54 19.422,3.21 z m 14.918,70.62 c 0,3.36 -5.508,3.87 -23.668,6.56 -24.223,3.56 -35.043,25.86 -20.43,39.3 5.539,5.08 18.707,7.27 26.047,5.94 15.981,-2.89 25.711,-6.17 25.864,-0.78 0.039,4.8 -4.571,5.15 -34.532,11.44 -45.269,9.53 -70.121,-34.68 -33.941,-56.32 13.742,-8.21 60.582,-12.9 60.66,-6.14 z m 11.211,63.28 c 0,1.68 -1.449,3.01 -4.879,4.34 -5,1.95 -8.32,2.3 -19.57,9.84 -14.961,10 -19.5,29.57 -9.5,40.47 9.648,10.16 -7.731,22.15 -21.641,10.67 -14.41,-11.92 -13.199,-30.63 3.399,-45.43 15.32,-13.68 52.152,-27.85 52.191,-19.89 z m -73.359,2.66 c 15.738,7.34 27.031,3.09 15,13.24 -6.762,6.25 -12.539,23.95 -17.231,8.95 -3.59,-8.99 -6.25,-24.77 -6.32,-26.33 1.051,-1.09 0.82,0.74 8.551,4.14 z m 556.519,38.12 c -17.93,4.46 -30.148,25.16 -25.582,45.08 2.582,11.25 13.202,37.74 15.272,39.38 7.93,6.25 6.84,-2.03 -0.43,-16.49 -6.6,-14.72 -11.76,-26.56 -9.721,-35.31 2.931,-12.46 8.001,-21.99 21.011,-25.16 9.18,-2.22 17.81,1.57 23.63,5.67 7.74,5.47 15.04,19.37 23.79,38.71 2.82,5.43 6.57,22.11 11.21,11.91 2.23,-5.27 -16.4,-40.31 -23.39,-49.18 -8.75,-11.17 -23.56,-17.69 -35.79,-14.61 z m 108.05,11.72 c 8.71,-8.32 23.48,-12.5 33.09,-9.53 23.67,8.28 34.37,30.51 25.43,66.25 -4.53,20.04 -8.4,32.5 -12.31,34.96 -1.91,1.21 -3.98,-1.01 -5.86,-3.82 -1.64,-2.5 0.9,-5.98 3.56,-15.4 11.33,-39.72 8.36,-57.65 -5.43,-65.27 -20,-11.01 -37.15,1.68 -42.93,30 -0.94,4.38 -3.67,13.32 -3.67,13.32 -1.53,3.95 -13.91,3.05 -9.42,-10.12 1.37,-10.19 10.78,-34.57 17.54,-40.39 z m 101.37,103.99 c -0.31,13.98 -29.81,74.61 -31.84,68.16 0,0 -0.11,-14.18 1.06,-19.72 0.43,-2.11 1.95,-4.07 3.2,-6.33 25.66,-45.51 21.72,-77.58 -0.55,-84.61 -7.58,-3.44 -9.22,-6.8 -5.82,-10.35 6.84,-7.43 24.03,7.26 27.39,12.57 8.39,11.96 7.22,33.75 6.56,40.28 z m -429.568,10.31 c 9.648,10.74 30.859,47.85 37.418,67.31 20.082,57.89 41.25,124.49 47.07,186.05 0.66,7.77 1.051,19.61 1.449,20.62 -1.57,1.68 -11.57,0.79 -14.89,-0.89 -1.598,-2.07 -0.539,-6.68 -1.129,-12.7 -8.981,-69.22 -25.59,-132.26 -50.231,-196.48 -10.789,-27.85 -20.789,-46.21 -33.75,-65.63 -2.269,-3.36 -5.16,-6.87 -6.289,-8.83 -3.289,-4.72 -0.859,-7.81 2.93,-5.82 6.75,3.83 12.57,11.14 17.422,16.37 z m -32.973,-16.84 c 30.859,42.27 52.77,92.97 69.801,152.86 10.789,38.75 20.238,77.93 25.941,117.89 1.168,8.55 2.11,14.25 0.43,16.79 -4.18,1.14 -11.949,0.43 -14.652,-1.64 -1.637,-2.5 -0.539,-7.46 -2.071,-18.94 -3.937,-29.77 -9.84,-59.61 -19.797,-98.71 -26.332,-86.49 -50.511,-134.93 -82.312,-177.31 -2.539,-3.55 -4.84,-5.86 -4.609,-7.38 0.32,-2.23 3.402,-2.03 8.48,1.09 6.602,5.16 14.141,9.69 18.789,15.35 z m -46.988,-22.46 c 15.078,8.52 41.679,45.63 60.429,85.59 21.051,47.19 38.668,100.47 50.231,146.6 5,20.2 12.109,70.7 11.09,74.02 -1.211,3.95 -15.93,0.67 -13.903,-2.07 0,0 -14.648,-81.17 -30.386,-125.89 -29.301,-83.09 -54.571,-139.42 -81.84,-166.53 -3.551,-3.55 -10.582,-10.51 -10.582,-10.51 0,0 0.148,-3.08 2.422,-3.55 5.429,-1.02 9.058,0.55 12.539,2.34 z m -23.09,3.32 c 34.059,18.99 73.91,107.58 106.488,218.87 5.539,19.02 15.742,82.77 15.742,82.77 0,0 -13.601,-0.5 -16.211,-3.35 -2.621,-3.87 -2.191,-13.68 -5.98,-36.96 -14.648,-70.39 -36.719,-134.57 -69.922,-198.01 -14.34,-28.12 -38.207,-54.6 -53.238,-62.14 -8.399,-4.22 -10.86,-8.87 -4.731,-9.18 10.391,-0.39 11.332,-2.54 18.871,1.48 l 8.981,6.52 z M 1162.73,757.109 c -25.54,0.082 -47.22,-24.339 -66.52,-55 -41.13,-62.89 -68.75,-168.007 -75.47,-223.828 l 15.51,2.891 c -2.34,-1.051 28.98,148.668 76.68,212.777 25.78,40.43 24.73,41.051 39.18,44.762 18.32,4.687 33.01,-15.039 23.91,-26.949 -3.29,-4.032 -6.88,-1.063 -5.86,4.687 3.24,18.281 -23.56,21.832 -31.06,3.821 -8.59,-20.7 14.3,-39.141 36.68,-31.008 19.96,7.027 28.36,34.918 14.3,55.468 -7.19,6.989 -17.62,13.161 -27.35,12.379 z m -134.41,2.582 C 997.77,721.41 982.621,682.07 963.828,628.359 945.078,574.691 931.602,522.23 925.781,461.988 l 16.489,2.114 c -0.59,38.707 41.949,223.089 101.75,292.109 3.32,4.379 6.02,8.008 5.75,9.019 -3.32,9.34 -17.47,-1.871 -21.45,-5.539 z m 67.54,14.289 C 1056.25,741.602 1024.61,670.898 1003.71,605.512 981.172,534.84 971.051,470.078 972.73,470.078 l 15.75,2.301 c -1.179,4.101 44.22,253.133 128.47,298.441 7.31,3.629 8.83,7.301 2.7,8.91 -9.49,1.321 -17.11,-1.8 -23.79,-5.75 z m 44.37,-0.191 C 1053.71,762.461 997.191,497.77 995.27,475.781 c 0,-0.351 -0.309,-2.031 -0.309,-2.031 l 17.229,3.52 c 0,0 0.15,0.851 0.23,1.281 11.88,67.621 23.44,115.039 50.39,176.179 21.02,45.27 50,103.2 93.32,108.821 3.56,0.469 6.88,-0.93 5.63,3.129 -2.62,6.48 -15.59,7.34 -21.53,7.109 z m -515.621,83.359 c -31.25,-8.007 -32.308,-45.386 -11.449,-93.168 1.57,-3.589 1.289,-5.582 2.86,-6.949 3.589,-3.121 6.359,1.207 6.75,4.059 0.628,4.34 -1.25,10.199 -4.571,18.68 -12.847,33.082 -9.758,52.109 2.973,60.539 32.738,16.8 41.527,-17.688 46.488,-33.59 1.211,-3.867 1.602,-9.18 3.75,-9.489 6.52,-0.859 9.641,1.442 9.531,1.442 0,0 -8.671,29.726 -13.953,40.898 -8.547,18.051 -28.867,21.84 -42.379,17.578 z m -226.879,-35.269 -0.308,-394.07 -59.844,-56.09 c -25.699,21.992 -59.457,56.402 -59.457,56.402 l 1.059,666.139 -19.258,1.52 C 255.23,809.57 258.59,519.102 258.359,232.34 l 176.993,-1.289 146.488,228.328 c 0,0 1.832,2.73 2.422,4.141 1.789,4.41 1.597,11.011 0.699,35.269 -0.352,9.883 0.777,17.461 -0.699,19.762 -1.453,2.347 -4.571,0.668 -7.5,-0.621 -2.973,-1.328 -4.731,-0.86 -3.133,2.621 0.902,1.988 3.832,6.328 6.371,10.469 8.199,13.468 10.23,17.808 7.461,32.73 -0.699,3.672 -4.063,6.801 -7.031,11.129 -24.649,36.332 -34.692,90.16 -22.418,129.609 3.867,17.422 2.5,20.942 -5.942,34.532 l -154.34,82.859 z m 774.81,423.671 c -16.09,8.24 -15.78,8.08 -15.86,-7.54 0.08,-11.68 0.27,-14.49 4.69,-12.93 6.33,3.2 14.1,6.17 19.96,8.67 11.17,3.83 -3.05,8.71 -8.79,11.8 z m 63.71,-40.59 c -12.5,9.96 -7.89,8.83 -11.41,-13.63 -2.14,-13.56 -4.88,-13.91 9.14,-9.42 7.97,2.74 24.38,1.02 17.04,10.36 0.03,-0.16 -12.31,10.62 -14.77,12.69 z M 734.41,860.469 c -19.14,-11.598 -38.711,-67.66 -38.711,-67.66 -66.949,-7.969 -94.961,-73.75 -97.969,-128.547 -2.339,-43.282 -5.308,-93.832 -0.929,-98.242 43.898,19.679 60.82,-3.051 64.961,3.082 1.91,2.66 -9.731,11.558 -24.34,19.527 -3.402,1.84 -8.633,5.16 -10.621,6.801 -5.352,4.41 10.621,0.621 20.699,-6.211 12.891,-8.789 15.039,-6.949 9.449,18.633 -6.051,27.808 -7.07,31.207 14.34,42.226 8.551,4.41 13.441,8.16 19.57,15 4.879,5.512 6.129,6.832 4.34,-1.25 -3.129,-13.949 -15.59,-20.039 -26.758,-25.738 -5.589,-2.86 -7.89,-8.602 -7.929,-13.52 -0.043,-5.039 5.738,-32.191 8.437,-40.859 2.461,-8.281 3.391,-16.52 5.313,-24.922 5.039,-21.84 5.347,-26.129 2.808,-41.949 -1.48,-9.301 -2.269,-14.57 -1.761,-20.199 0.511,-5.121 1.211,-12.032 1.211,-12.032 0,0.231 -11.95,12.27 -38.161,1.95 -18.91,-7.418 -33.871,0.32 -44.449,5.82 -2.43,-8.59 -1.879,-17.93 -1.57,-27.809 108.988,-19.879 202.07,-17.23 280.43,-9.019 2.031,23.121 11.921,96.75 32.66,163.121 8.672,27.617 18.441,56.719 29.449,76.129 7.5,13.25 15.16,22.187 17.851,23.719 0.86,0.539 0.942,0.781 0.899,1.171 0,0.739 0.043,1.329 0,2.071 -0.27,4.289 -1.328,10.937 -5.039,13.898 -9.02,7.192 -23.469,-2.07 -28.199,-18.16 -4.18,-9.609 -23.121,-51.25 -24.493,-50.551 -1.128,0.672 -3.75,0.75 -2.808,3.949 7.262,16.872 17.262,34.723 22.89,49.883 7.731,21.84 24.61,33.36 37.219,19.61 4.34,-4.731 6.063,-9.063 8.051,-10.59 1.48,-1.129 3.52,-0.352 4.77,1.527 4.718,7.152 -6.29,23.402 -18.129,26.684 -17.071,4.687 -29.77,-7.742 -49.141,-48.09 -11.172,-23.281 -13.16,-29.141 -14.961,-27.344 -0.391,-0.156 -3.359,-0.156 -2.269,4.332 2.308,9.731 17.152,37.891 27.89,55.789 15.899,26.442 45.43,28.59 57.86,5.621 1.871,-3.121 1.992,-7.23 4.101,-10 3.789,-4.922 10.078,-3.941 11.641,4.141 -1.723,5.348 -12.114,24.687 -19.301,28.051 -16.602,11.398 -36.762,9.136 -53.711,-5.981 -3.871,-3.441 -7.891,-10.39 -19.141,-33.203 -16.558,-36.598 -16.988,-36.758 -21.519,-30.859 6.64,17.812 24.18,46.722 31.25,64.492 1.359,2.617 1.64,5.469 1.519,8.199 -0.39,12.891 1.719,35.711 -25.589,51.918 -23.321,12.543 -54.059,-0.668 -64.532,-25.348 -8.008,-18.91 -13.867,-31.878 -17.929,-34.57 -5.661,-3.75 -4.61,1.481 -4.02,3.391 8.051,17.109 19.41,34.379 21.211,51.609 1.172,46.602 -46.09,63.82 -76.84,40.309 z M 490.469,1733.4 c 36.871,17.15 62.109,25.78 99.691,36.83 5.07,2.23 5.891,2.74 0.5,13.4 -23.82,47.11 41.531,84.65 63.719,38.4 2.961,-6.13 3.633,-9.57 6.562,-6.6 5.469,7.15 11.95,17.3 18.707,28.91 24.961,38.71 36.293,82.85 49.614,121.79 5.508,22.89 13.238,46.84 15.429,71.41 -49.57,86.25 -84.101,169.22 -136.761,246.05 l -347.032,0.24 -1.328,-693.44 c 97.032,80.94 163.129,110.23 230.899,143.01 z m 390.66,25.51 c 4.18,4.41 7.851,11.79 22.93,42.73 2.703,5.55 6.992,14.1 8.75,18.09 2.269,7.3 10.742,11.83 6.601,-1.21 -0.93,-2.82 -2.531,-6.61 -5.109,-11.64 -5,-9.03 -9.77,-20.08 -13.36,-27.31 -19.3,-38.63 -18.363,-61.17 3.2,-77.97 16.089,-15.39 49.918,-17.11 67.929,7.74 2.7,4.02 5.078,9.14 5.86,11.05 7.851,18.99 13.59,28.48 15.082,30.35 8.008,10.16 9.288,-2.42 -2.66,-21.83 -13.711,-22.19 -13.942,-46.25 -2.114,-63.21 17.582,-25.08 50.942,-25.78 71.882,-5.66 10.9,12.77 19.53,28.98 26.52,49.73 1.52,4.57 3.13,8 4.26,10.7 1.76,4.14 4.26,5.7 10.74,6.95 44.57,8.52 81.99,54.26 87.31,104.18 0.7,6.76 2.61,18.71 3.32,25.78 1.4,14.18 1.44,87.46 0.03,91.84 -0.74,2.34 -2.07,3.59 -5,3.55 -2.22,0 -5.35,-0.78 -9.88,-2.42 -14.69,-5.23 -21.56,-6.56 -35.66,-1.52 -4.65,1.68 -7.89,2.22 -9.81,2.07 -6.25,-0.55 2.03,-9.45 20.2,-19.34 7.77,-4.22 13.94,-9.92 7.62,-9.49 -1.84,0.12 -23.75,11.45 -26.76,13.28 -10,6.13 -7.39,-1.56 -2.23,-21.83 6.92,-27.23 2.93,-34.85 -18.59,-45.51 -3.99,-1.99 -9.34,-6.17 -12.03,-8.83 -11.41,-16.84 -8.44,-4.41 -2.7,4.53 9.81,10.27 3.79,13.75 -16.33,6.64 -22.93,-8.08 -33.28,-2.19 -39.72,10.55 -7.23,14.41 6.4,32.97 17.77,32.62 3.71,-0.12 3.05,-1.45 -2.38,-5.16 -6.57,-4.49 -9.69,-8.79 -10.35,-16.45 -1.41,-15.58 9.76,-22.18 25.35,-11.75 7.34,4.96 13.12,8.36 18.71,9.61 5.54,1.25 13.83,-0.79 13.79,-5.2 0,-1.84 -0.24,-6.29 0.15,-7.3 1.45,-4.93 9.34,2.07 12.78,4.53 11.75,8.79 11.36,10.5 8.16,24.72 -5.23,19.93 -7.89,38.13 -12.89,58.32 -2.66,10.59 -3.12,22.5 -1.48,33.28 0.78,5.43 2.89,16.53 3.32,24.11 0.43,7.61 -0.04,18.47 0.23,18.47 11.68,-8.9 16.41,-10.47 27.77,-6.17 17.62,7.23 28.71,6.49 43.56,-0.62 5.47,-2.62 10.47,-4.46 10.47,-4.46 l 0.7,22.85 c 0,0 -13.75,2.82 -39.1,6.14 -76.37,10.04 -233.13,12.15 -238.95,2.93 -1.481,-2.35 -2.969,-18.64 -7.11,-41.37 -9.25,-47.15 -19.609,-94.18 -33.469,-140.2 -2.851,-9.37 -5.55,-13.16 -4.101,-13.43 0.582,-0.12 3.43,3.51 4.719,5.04 7.461,8.55 1.761,-11.8 -9.45,-36.29 -1.019,-2.23 -1.879,-4.65 -1.879,-5.39 0,-1.49 -7.031,-18.56 -11.91,-28.91 -3.011,-6.41 -5.511,-8.36 -5.468,-4.22 3.398,14.1 12.418,32.38 13.707,44.96 -7.887,-11.4 -19.411,-30.19 -28.079,-41.44 -1.601,-3.01 0.071,-3.95 1.481,-7.7 5.238,-13.94 17.891,-15.19 25.199,-2.58 4.102,7.07 16.75,33.6 21.168,45.24 4.531,11.95 7.731,18.24 9.262,19.02 3,1.56 3.59,-5.23 -1.801,-16.52 -16.289,-34.3 -23.277,-53.52 -31.289,-60.63 -6.211,-5.5 -16.91,-5.15 -22.891,4.65 -10.121,16.6 -18.75,11.1 -9.449,-5.94 9.57,-17.57 31.442,-19.21 42.891,-3.39 3.789,5.23 21.519,39.14 27.109,52.89 3.121,7.69 6.442,13.71 7.57,14.14 5.942,2.26 -0.851,-15.28 -17.96,-50.43 -5.551,-13.6 -14.461,-27.85 -26.532,-32.27 -29.328,-6.4 -33.277,9.1 -43.468,26.76 -4.969,4.37 -9.461,-2.66 -7.54,-10.39 3.04,-12.62 8.821,-17.54 17.692,-23.87 18.558,-11.8 44.34,-3.67 53.707,9.81 z m 130.751,-73.6 c -2.66,5.9 -2.27,11.88 -0.9,17.42 3.08,12.54 8.16,24.73 14.1,35.36 9.61,4.53 2.26,-13.56 1.05,-16.25 -11.6,-24.18 -12.69,-33.56 -1.87,-36.37 9.29,-2.38 14.29,3.28 23.08,25 4.5,11.13 6.29,16.05 7.89,16.68 3.36,1.37 5,0 4.81,-3.4 -5.82,-14.22 -10.35,-29.22 -19.88,-41.02 -9.34,-7.81 -23.4,-7.85 -28.28,2.58 z m -87.079,18.6 c -4.02,0.78 -10.93,6.01 -15.781,10.39 -16.399,15.04 -13.668,35.78 6.64,74.76 1.61,3.05 7.5,14.85 9.418,18.71 3.402,6.96 6.762,4.22 6.723,-0.35 0,-1.29 -5.082,-12.07 -10.199,-22.07 -22.461,-43.87 -21.723,-61.76 0.117,-72.23 21.293,-10.15 30.859,-4.29 47.851,29.18 9.809,25.16 14.649,25.55 14.102,16.02 0,-3.59 -11.91,-27.7 -19.57,-38.91 -11.133,-16.25 -20.782,-19.1 -39.301,-15.5 z m 1.648,21.17 c -8.359,5.15 -11.801,18.04 -6.84,28.55 4.493,8.71 16.012,41.99 21.411,43.87 8.71,0.27 4.058,-6.99 -6.719,-27.46 -12.742,-27.11 -12.313,-34.38 -2.461,-38.52 9.14,-3.86 13.43,4.03 26.871,35.75 2.109,4.96 5.078,10.15 6.801,9.06 2.148,0.15 5.859,-1.45 -1.211,-15.82 -1.68,-3.44 -4.531,-10.63 -7.66,-17.35 -9.219,-19.61 -19.61,-24.61 -30.192,-18.08 z m 150.931,57.54 c -3.67,1.91 -20.9,8.67 -18.36,14.29 0.32,0.51 1.33,0.12 1.84,-0.23 15.78,-10.59 35.43,-13.24 55.94,1.41 3.43,3.04 6.01,0.97 4.06,-2.82 -6.17,-12.3 -33.79,-17.54 -43.48,-12.65 z m -50.7,17.85 c 0.47,1.17 1.87,4.69 3.12,9.41 1.92,7.11 1.49,12.31 3.17,11.41 7.15,-3.87 19.92,-3.95 26.21,-0.12 6.84,4.18 20.78,5.47 25.86,2.15 7.26,-4.69 10.94,-2.5 16.01,1.45 5.75,4.45 5.86,2.53 16.22,-1.02 7.65,-2.66 10.66,-4.49 13.9,-3.91 1.25,0.24 3.79,3.09 4.61,2.93 2.46,-0.47 2.77,-7.5 5.04,-15.54 2.03,-7.15 0.9,-8.87 -5.51,-4.57 -4.76,3.16 -18.43,4.64 -32.61,0.31 -10.55,-3.24 -12.97,-1.92 -20.71,-0.63 -19.26,3.25 -33.12,5.75 -47.5,-2.54 -7.65,-4.41 -10.43,-6.71 -7.81,0.67 z m -47.891,35.19 c -9.34,18.68 12.109,43.44 30.981,34.69 6.25,-2.89 11.79,-13.87 2.57,-8.83 -42.93,8.64 -32.18,-54.1 13.87,-20.97 30.63,20.31 52.27,23.43 54.1,3.83 -0.86,-7.23 -7.3,-6.1 -12.15,-6.76 -12.69,-1.76 -17.38,-3.79 -32.07,-10.12 -22.38,-7.03 -44.25,-12.77 -57.301,8.16 z m 167.851,-8.67 c -10.47,2.7 -19.57,6.84 -30.47,8.79 -10.82,1.92 -15.7,7.54 -13.75,15.12 2.03,7.89 12.85,8.71 29.14,-1.21 18.01,-10.98 31.1,-13.67 37.7,-9.49 13.36,8.35 6.13,22.03 -6.6,25.5 -9.54,2.66 -2.5,6.37 7.77,3.32 16.56,-6.29 16.91,-36.21 -0.12,-42.42 -5.7,-2.07 -15.78,-1.52 -23.67,0.39 z m -146.13,99.1 c 12.19,7.5 23.94,14.22 28.12,18.71 2.23,2.35 8.32,10.28 3.6,7.86 -24.85,-14.93 -53.679,-2.54 -74.57,7.65 -10.039,4.69 -7.582,2.62 -15.281,2.11 -5.231,-0.35 -9.41,-1.44 -10.348,2.27 -0.429,1.68 -3.359,0.97 -5.23,1.17 -7.699,0.74 -2.821,10.94 13.398,22.19 19.102,13.28 35.821,21.95 52.379,25.5 17.192,3.72 34.722,1.61 47.622,-10.74 4.92,-4.76 4.49,-7.93 9.02,-5 10.31,6.64 10.39,-2.19 1.68,-10.39 -5.98,-5.62 -3.79,-7.15 3.51,-12.46 3.48,-2.58 0.63,-5 -1.32,-8.71 -0.71,-2.27 -0.16,-4.77 -0.51,-6.48 -1.6,-8.01 -38.05,-36.22 -51.21,-41.06 -9.069,-1.68 -4.339,5.16 -0.86,7.38 z m 25.31,51.84 -6.05,-0.08 c -6.88,-20.97 -19.61,-28.12 -30.161,-2.97 l -4.839,-0.47 c -0.2,-21.32 36.52,-34.68 41.05,3.52 z m -39.769,-19.65 c -2.5,4.18 -5.313,13.75 -7.93,13.91 -7.101,0.27 -16.91,-0.98 -14.57,-5.39 3.679,-6.96 25.398,-13.36 22.5,-8.52 z m 48.639,3.75 c 6.56,3.91 7.97,6.64 3.67,10.94 -5.51,5.58 -8.4,2.73 -10.12,-6.17 -1.48,-7.66 -0.39,-8.91 6.45,-4.77 z m -88.71,14.73 c 43.821,19.8 60.47,22.38 78.28,17.46 4.1,-1.13 7.77,-3.44 10.08,-3.28 8.51,0.51 3.08,10.04 -12.23,15.51 -17.5,6.25 -28.559,3.39 -62.188,-14.11 -19.692,-10.23 -35.66,-25.39 -13.942,-15.58 z m 127.07,24.06 c -0.63,1.17 -3.28,9.06 -4.07,11.91 -0.74,2.89 -1.4,5.86 -2.22,5.86 -20.35,-3.24 -38.24,0.59 -43.05,1.72 -30.78,7.31 -60.511,5.82 -82.69,-2.85 -5.399,-2.11 -12.11,-5.55 -12.782,-6.13 -1.758,-1.64 -4.328,0.19 -4.328,2.26 0,2.39 13.629,13.17 22.219,17.39 26.101,12.93 53.672,15.15 83.911,7.03 19.73,-7.58 32.42,-6.33 45.04,-0.82 6.17,2.69 1.8,-3.99 -0.16,-12.89 -1.37,-6.14 0.12,-11.41 0.39,-14.85 0.74,-8.4 -0.19,-12.61 -2.26,-8.63 z m 458.28,-1771.519 0,694.84 c -115.35,-84.961 -333.48,-173.59 -333.48,-173.59 27.46,-55.903 -33.05,-103.711 -67.77,-46.961 -35.74,-40.039 -84.92,-180.309 -86.68,-226.871 0,0 95.04,-165.629 141.37,-247.418 l 346.56,0 z M 896.02,458.09 c 3.16,34.879 10.621,94.019 33.902,162.851 9.769,28.86 21.527,62.028 38.168,91.68 6.64,10.348 7.109,14.367 0.031,10.617 -4.449,-2.34 -24.801,-25.226 -27.57,-31.008 -31.172,-65.71 -45.59,-144.609 -57.031,-204.89 -2.579,-13.551 -3.321,-30.391 -3.321,-30.391 l 15.821,1.141 z m 22.808,2.89 c 7.422,84.719 38.672,199.141 85.582,273.711 4.42,7.11 9.85,13.278 9.65,15.739 -0.62,7.23 -18.708,-5.27 -32.689,-26.68 C 965.699,692.77 950.039,659.73 938.051,623.121 921.09,571.48 908.75,523.789 903.91,459.02 l 14.918,1.96 z m 45.082,7.071 c 4.719,48.828 19.918,93.629 32.61,138.508 15.59,54.89 36.37,95.281 60.55,131.64 7.77,11.641 16.95,22.582 25.66,33.711 1.1,1.328 2.23,3.711 1.96,4.731 -5.59,0.98 -10.04,-0.743 -14.34,-3.161 -6.05,-3.402 -14.57,-11.921 -19.53,-18.21 -34.45,-43.899 -53.011,-95.149 -70.23,-146.95 -16.531,-49.73 -28.442,-97.582 -30.789,-142.621 l 14.109,2.352 z m -309.691,37.418 c 6.91,0.551 11.402,-0.778 13.402,1.09 1.988,1.8 1.359,6.722 1.988,13.011 1.332,13.442 -0.039,12.7 -8.48,4.02 -13.899,-14.371 -39.328,-19.918 -54.449,-11.211 -7.621,4.383 -12.93,7.422 -13.629,3.75 -0.86,-4.25 0.308,-7.5 3.59,-9.758 18.281,-8.32 35.66,-2.621 57.578,-0.902 z m -16.367,10.312 c 9.648,3.168 19.449,8.321 24.957,16.168 5.281,7.5 5.16,8.563 1.171,7.153 -19.57,-9.653 -32.46,-14.532 -50,-11.872 -23.71,3.59 -24.679,0.579 -9.019,-9.218 10.269,-6.41 18.789,-6.602 32.891,-2.231 z m -34.84,30 c 3.668,2.739 4.609,13.75 1.679,14.379 -3.011,0.621 -7.39,-4.851 -8.441,-9.301 -1.211,-5.898 3.16,-7.418 6.762,-5.078 z m 36.718,0.469 6.321,0.59 c -3.242,27.609 -33.281,28.82 -38.821,-2.781 l 4.758,-0.7 c 6.211,25.192 24.383,24.493 27.742,2.891 z m 19.84,4.449 c 9.18,5.121 6.02,11.492 -6.41,13.91 -8.121,1.911 -7.691,-4.769 -3.469,-13.75 2.11,-4.488 3.59,-3.629 9.879,-0.16 z m -70.781,33.871 c -0.078,3.09 -1.328,8.051 -2.809,11.051 -10.589,21.649 -16.449,47.231 -15.242,79.027 0.864,22.813 1.141,29.84 -3.59,29.883 -6.636,-3.203 -10.546,-45.582 -2.109,-80.902 5.941,-24.918 24.18,-55.859 23.75,-39.059 z m -0.269,34.532 c -0.629,11.918 1.992,38.597 0.699,44.418 -1.719,7.652 -6.289,14.57 -8.828,16.402 -3.981,2.848 -5,-2.621 -3.59,-16.91 3.199,-33.602 8.629,-58.992 11.719,-43.91 z m 3.359,61.097 c 2.609,4.723 1.601,9.68 -4.18,20.93 -22.699,44.223 -25.629,74.461 -1.918,85.43 2.66,1.211 4.34,1.453 6.098,2.421 7.5,4.141 4.641,11.641 -6.57,8.559 -30.899,-8.559 -36.989,-37.418 -10.93,-90.859 13.281,-26.68 15.312,-30.391 17.5,-26.481 z m 5.621,25.071 c 0.43,1.878 1.211,9.109 1.52,10.55 0.32,1.481 -2.809,5.739 -6.129,14.301 -8.75,22.258 -8.942,31.481 0.589,37.93 3.079,1.789 6.25,1.91 6.719,3.98 0.742,3.239 0.699,8.52 -1.25,10.078 -13.64,-0.121 -19.929,-8.05 -22.308,-15.589 -3.629,-11.911 0.16,-29.411 10.859,-51.09 5.16,-6.758 7.891,-19.102 10,-10.16 z m 10.43,28.832 c 7.3,14.648 0.39,33.707 -9.649,27.187 -6.519,-4.18 -6.832,-8.629 -2.851,-20.859 4.84,-14.879 7.73,-15.942 12.5,-6.328 z m 25.59,39.257 c 2.89,2.891 0.308,7.032 -5.079,23.243 -4.613,13.91 -2.5,23.398 6.289,26.128 12.61,3.129 17.11,-17.46 19.719,-26.171 1.41,-6.68 5.821,-8.547 9.731,-3.86 1.09,1.281 1.41,2.379 -0.469,9.68 -8.121,31.922 -18.789,42.07 -35.941,34.141 -15.891,-7.379 -13.821,-23.86 -2.301,-58.551 1.562,-4.649 2.582,-8.09 3.711,-8.559 0.898,-0.39 2.699,2.352 4.34,3.949 z m 14.058,10.86 c 3.793,3.711 3.551,2.031 -0.738,15.351 -4.93,15.2 -7.539,18.36 -12.82,13.129 -3.239,-3.211 -1.598,-6.719 2.109,-19.148 4.301,-14.449 5.473,-15.27 11.449,-9.332 z m 659.332,51.992 c 25.12,17.269 14.77,48.277 -18.28,59.769 -3.9,1.321 -8.2,2.969 -9.53,3.629 -15.19,7.27 -26.99,9.532 -27.03,3.832 0,-3.32 4.53,-5.043 19.1,-12.113 21.53,-10.43 26.37,-22.539 15.74,-37.777 -7.65,-10.973 6.72,-23.551 20,-17.34 z m 22.78,37.738 c 2.19,8.821 5.43,16.442 6.99,21.602 2.11,8.078 -0.63,6.211 -5.98,4.961 -13.86,-7.153 -23.75,-3.282 -17.03,-13.133 7.46,-13.078 13.63,-23.199 16.02,-13.43 z m -1.72,30.973 c 17.26,10.277 21.09,37.109 5.04,49.879 -3.83,3.09 -10.47,7.109 -18.52,9.539 -16.33,5 -39.88,7.219 -48.55,4.64 -1.84,-2.179 -1.92,-5.621 -0.04,-6.64 2.38,-0.891 6.72,-1.481 13.01,-2.11 23.98,-2.421 35.82,-9.531 34.68,-26.519 -1.17,-17.5 -15.23,-24.223 -40.54,-18.711 -13.64,2.969 -19.96,1.559 -14.5,-1.641 6.49,-3.75 20.47,-8.711 34.26,-11.41 11.76,-2.07 25.2,-2.89 35.16,2.973 z m -82.74,4.418 c 19.42,43.43 29.61,157.34 -81.28,239.68 l 3.67,-22.77 c 65.35,-57.11 81.05,-129.801 67.5,-196.48 l 10.11,-20.43 z m 98.99,77.851 c -6.92,-4.492 -12.74,-9.14 -21.64,-13.132 -5.35,-2.379 -5.47,-2.969 1.76,-6.911 3.51,-1.878 9.29,-5.386 11.52,-7.769 3.83,-4.149 8.36,-5.707 10.04,-4.219 -0.16,6.481 2.03,27.852 -1.68,32.031 z m -32.81,-8.242 c 22.46,7.071 34.49,17.852 31.91,35.891 -3.75,26.45 -25.94,32.04 -67.46,21.68 -20,-4.96 -21.8,-14.33 -2.81,-9.49 23.94,6.09 42.77,-3.12 40.19,-20.58 -1.48,-15.079 -13.63,-23.872 -35,-23.872 -11.25,0 -14.76,-1.019 -13.2,-5.078 1.01,-2.73 37.11,-1.449 46.37,1.449 z m -37.07,62.851 c 36.71,12.54 53.78,32.03 45.39,53.86 -9.89,25.75 -41.92,26.02 -74.11,2.07 -15.03,-11.01 -12.73,-15.07 1.84,-9.49 18.87,8.67 31.06,10 38.79,3.13 13.95,-12.42 4.53,-34.1 -16.64,-41.88 -10.27,-4.26 -13.56,-6.6 -13.59,-9.65 -0.04,-4.88 1.83,-3.71 18.32,1.96 z m 61.91,0.39 c 0.98,7.61 -7.66,34.02 -11.41,27.93 -0.97,-1.6 -4.41,-9.07 -8.75,-12.93 -12.61,-11.29 -10.23,-7.03 2.31,-10.47 6.99,-1.92 16.83,-6.8 17.85,-4.53 z m -97.11,56.4 c 37.15,21.45 51.29,52.07 32.07,72.43 -17.3,18.28 -45.98,7.65 -72.58,-25.63 -12.22,-15.23 -3.04,-13.32 13.4,1.17 19.18,16.92 43.56,8.75 43.44,-12.34 -0.04,-8.99 -12.85,-24.14 -24.92,-31.17 -3.75,-2.19 -4.3,-5.55 -2.97,-7.74 1.4,-2.34 4.41,-0.82 11.56,3.28 z m 65.08,22.39 c -1.92,5.78 -15.9,30.5 -18.91,29.64 -3.16,-6.32 -3.4,-14.68 -7.19,-21.4 -5.15,-10.12 -4.53,-8.52 11.96,-8.48 12.26,0.04 13.75,-1.68 14.14,0.24 z m -109.1,27.97 c 31.21,32.26 33.94,70.03 4.72,78.75 -16.17,4.8 -42.07,-6.88 -42.14,-18.91 -0.04,-7.5 1.36,-8.87 7.92,-6.17 27.58,10.23 49.42,-16.17 24.11,-46.57 -6.18,-8.78 -7,-10.97 -5.2,-12.81 2.11,-2.11 3.79,-1.33 10.59,5.71 z m 335.9,275.89 0,855.08 -182.5,0 -144.97,-225.74 -0.23,-55.86 c 0,-1.95 3.32,-3.16 5.43,-0.7 8.24,6.33 5.08,-0.35 -4.41,-14.73 -9.57,-14.53 -6.64,-26.48 3.82,-42.03 22.23,-32.89 33.79,-93.28 24.34,-125.2 -3.55,-12.03 -4.38,-16.91 -2.03,-23.67 2.65,-7.69 4.3,-11.79 11.99,-16.79 6.72,-4.65 61.84,-26.06 150.66,-83.01 l -0.42,401.72 55.93,53.47 59.14,-56.36 2.07,-663.25 c 0,-7.03 13.75,-10.19 21.18,-2.93 z m -32,664.26 -49.49,45.98 -48.94,-45.28 c -0.28,-216.05 1.25,-659.45 1.25,-659.45 l 48.63,-3.47 c 0,0 3.55,10.11 -0.98,36.28 -6.83,39.22 -6.4,87.15 4.53,160.04 6.88,44.73 0.08,83.48 -10.31,124.3 -8.98,27.23 -9.33,52.38 -7.69,76.72 3.47,38.83 14.18,68.12 15.5,123.94 0.75,31.84 -0.78,63.01 0.39,102.27 0.47,5.27 2.7,4.61 3.09,-0.82 1.48,-35.51 2.89,-69.3 3.2,-103.99 -1.05,-45.11 -12.15,-91.56 -13.36,-132.85 -0.89,-28.63 -1.36,-38.51 10.75,-73.36 19.06,-54.76 6.52,-138.86 6.29,-140.35 -8.05,-53.9 -13.95,-122.81 13.32,-174.41 l 26.4,-2.35 -2.58,666.8 z m -340.54,-407.54 c 14.61,6.68 17.5,18.52 9.64,46.96 -1.4,5.07 -3,11.13 -3.55,13.39 -1.72,7.04 -4.88,7.82 -9.1,2.23 -2.5,-3.32 -0.2,-4.1 3.67,-19.76 5.86,-23.64 2.46,-31.45 -6.33,-31.41 -7.81,0.08 -13.9,6.48 -16.13,21.83 -0.78,5.24 -1.88,8.79 -3.16,10.9 -2.11,3.52 -4.69,2.89 -6.76,-1.01 -2.66,-5 2.34,-25.71 9.02,-35.74 7.23,-10.12 12.23,-12.19 22.7,-7.39 z m -3.99,21.25 c 3.13,5.82 -0.74,20.16 -2.73,29.53 -1.88,5.24 -3.99,6.53 -7.46,5.67 -5.16,-1.25 -4.92,-6.92 -3.05,-16.21 3.83,-18.91 5.9,-21.33 13.24,-18.99 z m 44.42,34.14 c 16.68,9.5 18.28,25.86 7.07,55.67 -4.61,12.22 -10.36,20.82 -13.52,20.9 -1.21,-7.78 -2.38,-11.92 -0.98,-14.97 1.29,-2.81 3.48,-7.14 5.04,-10.78 9.53,-21.99 6.96,-34.65 -2.22,-41.52 -8.56,-6.41 -3.13,-11.8 4.61,-9.3 z m -546.879,11.45 c 39.18,8.36 74.528,71.13 96.797,127.15 20.274,56.4 41.832,118.4 45.231,170.07 0,0 -14.797,-0.7 -16.637,-3.74 -1.684,-3.01 -2.422,-9.5 -3.981,-18.72 -10.203,-47.54 -18.32,-83.67 -36.171,-128.36 -12.348,-31.01 -25.86,-66.13 -59.379,-113.32 -11.012,-13.16 -23.59,-21.32 -39.411,-23.55 -4.031,-0.55 -10.82,0.19 -12.539,-1.02 -3.011,-2.11 -0.281,-6.87 7.457,-8.82 6.954,-1.72 13.981,-0.59 18.633,0.31 z m 539.959,7.34 c 6.02,6.33 6.6,13.87 -0.11,29.81 -1.88,4.45 -2.74,6.99 -4.97,6.36 -4.72,-1.32 -10.27,-13.71 -6.99,-24.18 4.26,-13.67 6.72,-17.65 12.07,-11.99 z m -553.631,9.96 c 11.481,1.53 26.02,10.63 36.52,24.89 21.601,28.16 36.492,60.19 47.543,85.11 8.828,20.08 24.808,63.4 29.18,79.07 9.218,33.35 14.257,54.84 18.437,78.71 0.391,2.18 0.781,5.7 0.121,6.83 -4.57,1.21 -14.539,0.47 -17.582,-2.58 -5.508,-38.24 -18.277,-76.64 -27.656,-108.55 -15.742,-54.26 -60.703,-141.09 -85.192,-145.2 -13.21,-2.18 -28.281,9.22 -25.859,20.94 1.481,7.23 2.457,9.96 6.008,11.76 8.562,2.97 13.519,-2.81 4.141,-6.6 -10.86,-9.42 8.679,-23.79 20.671,-13.75 20.348,17.07 -9.531,49.69 -33.992,34.69 -27.109,-16.61 -20.148,-45.4 -3.078,-59.07 8.59,-6.91 18.508,-7.85 30.738,-6.25 z m 191.95,38.99 c 16.722,17.11 29.3,39.29 38.441,67.03 19.84,62.26 36.289,133.63 42.23,189.57 0,0 -14.3,1.48 -17.46,-1.52 -2.27,-2.15 -0.122,-4.18 -6.219,-45.04 -10.192,-59.57 -25.071,-118.75 -46.641,-169.96 -8.82,-20.71 -11.32,-23.25 -17.57,-33.99 -8.711,-15.19 -5.469,-19.06 7.219,-6.09 z m 371.531,129.8 c -1.53,0.82 -1.41,0.28 -2.07,-0.19 -2.27,-1.57 -0.79,-9.53 4.41,-21.8 13.63,-21.95 15.23,-64.57 14.34,-80.59 -0.28,-4.84 -0.79,-7.57 0.7,-11.87 1.44,-4.18 3.98,-9.06 8.08,-0.9 4.5,31.56 0.94,64.61 -11.17,91.37 -4.29,9.53 -8.47,18.83 -14.29,23.98 z m 10.5,-93.04 c 2.43,8.47 -1.99,42.14 -7.5,53.98 -2.18,4.77 -6.21,5.12 -5.7,-0.27 0.04,-11.68 -1.25,-33.87 0.04,-40.43 5.94,-13.71 10.59,-22.46 13.16,-13.28 z m -30.89,136.01 -6.45,0 c 0.23,-22.03 -19.38,-28.12 -26.6,-1.68 l -5.78,-1.37 c 7.69,-37.3 42.54,-20.19 38.83,3.05 z m -39.18,-16.6 c -3.32,9.76 -1.96,13.36 -10.43,8.94 -6.53,-3.35 -10.39,-6.91 -1.25,-11.28 8.12,-3.44 13.79,-3.83 11.68,2.34 z m 49.1,5.62 c 2.69,5.43 2.34,10.32 -1.68,10.36 -3.13,0 -4.03,-2.46 -4.89,-7.74 -1.6,-9.37 2.35,-11.13 6.57,-2.62 z m 3.4,36.61 c 2.5,0.78 1.79,4.25 1.09,8.71 -10.59,14.72 -36.88,10.19 -46.33,7.26 -10.9,-3.51 -13.59,-2.18 -21.01,1.21 -6.14,1.14 -7,-0.35 -8.48,-3.28 -1.33,-2.58 -1.56,-7.46 -1.99,-15.97 -0.35,-7.19 -0.12,-10.51 2.42,-8.29 9.73,8.72 20.98,19.61 37.38,20.28 19.92,0.82 36.92,-10.24 36.92,-9.92 z m -72.35,-19.93 c 0,-2.96 2.54,-1.09 9.03,2.93 23.55,13.99 37.22,12 57.42,5.36 4.49,-1.49 7.26,3.2 2.38,7.18 -23.95,19.65 -53.48,7.11 -68.83,-15.47 z m 85.47,90.47 127.89,210.86 -712.581,0.51 120.981,-223.87 c 98.672,22.78 261.09,51.84 463.71,12.5"
         inkscape:connector-curvature="0"
         id="path18"
         style="fill:#131f67;fill-opacity:1;fill-rule:nonzero;stroke:none" /><path
         d="m 575.941,424.141 c 15.079,22.461 89.797,-17.539 93.789,-33.403 44.219,34.731 97.93,37.274 141.168,-6.207 44.411,48.438 91.993,45.117 141.524,17.071 -5.543,10.937 63.278,59.296 105.078,28.558 l 113.12,-200.859 -724.64,-2.313 c 42.809,64.063 80.739,140.59 129.961,197.153 z M 259.41,1471.76 c -3.941,10.86 -19.84,122.46 20.469,125.23 65.242,-28.83 148.441,-131.91 187.031,-194.92 47.781,-78.09 96.059,-257.58 69.418,-249.77 -3.867,1.14 82.301,-84.84 88.242,-93.24 9.731,-13.83 -145.23,-271.208 -170.859,-261.951 -7.731,2.77 -59.332,33.512 -59.332,33.512 l 1.48,85.859 c 0,0 81.09,159.69 85.59,213.05 1.711,20.16 -55.828,54.65 -58.437,61.64 -6.563,17.35 -5.782,81.84 -39.301,110 -18.481,11.17 -35.902,7.62 -54.652,5.24 -76.047,12.65 -36.637,140.47 -69.649,165.35 z m 1271.92,-57.35 0.47,-31.64 c -50.08,-10.89 -138.6,31.41 -165.35,-36.75 3.32,-73.56 19.84,-106.57 31.36,-128.79 8.67,-19.96 69.57,2.81 91.02,-17.31 61.52,-75.54 47.03,-176.09 47.58,-266.721 l -26.72,-13.429 c -184.46,108.51 -326.14,445.54 -345.74,541.48 -1.25,61.6 169.21,259.57 169.21,259.57 0.39,0.43 62.15,-37.5 62.15,-37.5 1.49,-0.59 -1.33,-259.8 -1.33,-258.59 48.75,-2.5 96.02,-7.23 137.35,-10.32 z m -374.77,236.96 c -94.65,-135.35 -126.68,-337.62 -120.58,-478.71 12.26,-210.629 162.81,-398.441 152.73,-416.18 -1.72,1.219 -5.7,-0.859 -7.19,0.469 -34.68,30.75 -58.9,25.352 -76.64,25.672 -33.86,0.5 -43.24,-9.57 -62.69,-11.492 -49.651,-4.918 -45.631,-6.168 -87.741,9.652 -53.121,43.239 -124.328,76.367 -180.969,93.789 -45.39,-4.058 -114.652,-25.468 -140.82,-8.121 182.141,335.231 154.879,549.841 -33.711,901.211 15.621,-4.57 18.039,-19.14 29.762,-22.74 38.75,-14.92 92.187,-9.26 124.18,4.65 34.769,15.63 67.578,-7.23 67.148,-6.48 68.441,-48.17 151.25,-79.26 194.341,-100.75 12.73,-6.56 28.82,3.79 42.89,6.64 28.82,5.82 53.51,18.09 75.03,10.9 6.88,-2.3 17.15,-5.11 24.26,-8.51 z m -425.271,438.71 c -9.258,17.19 -104.098,197.15 -104.098,197.15 l 705.509,-4.22 -105.82,-173.63 c -10,-9.42 -59.73,-35.71 -110.43,23.78 -0.98,-8.55 -75.28,-61.4 -139.149,2.27 -38.43,-34.84 -77.653,-55.04 -142.301,-15.82 -1.449,-10.94 -51.879,-60 -103.711,-29.53"
         inkscape:connector-curvature="0"
         id="path20"
         style="fill:#e2cf00;fill-opacity:1;fill-rule:nonzero;stroke:none" /><path
         d="m 808.52,388.551 c -68.36,63.91 -139.54,6.219 -137.899,2.578 -27.07,27.422 -53.512,49.891 -89.172,38.871 0,0 0,9.609 0.27,9.84 106.332,-19.41 269.179,-24.449 459.531,15.32 l 9.77,-20.43 c -51.059,18.122 -77.348,-6.289 -100,-34.808 -81.918,51.019 -101.918,6.25 -142.5,-11.371 z m 159.41,743.399 48.36,0.94 c 9.1,-140.468 126.6,-355.39 129.45,-355.39 -8.2,11.371 -85.78,2.379 -85.19,0.98 -42.66,113.629 -89.499,227.18 -92.62,353.47 z M 685.898,798.75 c 0,0 -15.589,40.27 -24.878,57.5 50.781,86.559 92.421,176.21 113.781,275.86 l 34.578,-0.31 C 799.141,994.219 688.871,785.23 685.898,798.75 z m 622.112,18.398 c 76.17,137.262 63.04,335.122 -153.05,444.452 0,0 5.63,145.04 21.68,145.35 3.63,-1.09 97.81,1.21 97.81,1.21 24.69,60.51 64.38,133.64 119.89,183.01 l 1.36,-162.07 c -41.05,-4.06 -66.09,-17.15 -78.55,-49.22 l -56.88,-12.65 c 4.18,-162.85 65.55,-313.32 247.5,-448.441 -43.47,-37.34 -192.11,-113.09 -191.56,-111.758 l -8.2,10.117 z m -911.76,102.34 1.641,168.792 c 27.578,5.94 49.339,-2.03 72.109,47.34 0,0 38.238,-18.12 50.941,-24.8 C 485.199,1046.95 454.34,978.711 396.25,919.488 z m 362.27,298.872 1.871,85.66 81.488,-2.34 c -6.918,-29.06 -9.109,-58.09 0.152,-87.15 l -83.511,3.83 z m 185.859,1.02 c 5.582,28.04 9.531,56.24 -2,86.01 l 88.211,-1.52 -2.07,-85.35 -84.141,0.86 z m -167.738,167.57 c -14.692,168.09 -130,358.36 -131.641,354.3 13.59,-2.19 37.539,-8.91 50.699,-2.66 15.942,-2.65 29.77,-0.86 30.512,0.63 1.059,5.86 107.187,-244.06 93.008,-351.88 -1.68,-3.63 -39.141,-3.86 -42.578,-0.39 z m 203.871,-1.48 c 12.457,77.65 44.608,219.73 120.468,334.88 8.63,-20.43 15.9,-41.48 27.69,-60.58 -57.19,-83.17 -92.46,-178.21 -113.87,-275.2 l -34.288,0.9 z m -527.461,41.87 c -34.731,70.75 -179.18,182.15 -171.801,170.9 59.801,53.52 126.48,87.54 193.051,121.88 0,0 11.828,-11.21 10.039,-14.07 -40.899,-64.41 -60.75,-200.89 -21.141,-279.14 38.09,-83.55 105.629,-132.96 174.5,-171.75 -5.32,-52.23 -7.929,-90 -20.789,-141.96 0,0 -43.281,22.74 -78.75,37.39 -5.621,98.67 -26.09,186.91 -85.109,276.75 z m 382.57,693.32 c 50.899,-31.01 96.527,-27.73 140.707,14.34 55.512,-50.31 115.512,-26.88 140.902,-4.22 23.43,-26.4 54.02,-41.05 98.75,-32.34 l -11.1,-23.21 c 2.66,12.35 -308.36,32.5 -458.86,-9.61 0,0 -8.79,17.54 -7.821,17.66 13.09,0.82 56.68,-15.31 97.422,37.38"
         inkscape:connector-curvature="0"
         id="path22"
         style="fill:#d40000;fill-opacity:1;fill-rule:nonzero;stroke:none" /><path
         d="m 48.4414,2420.47 0,-23.67 22.7305,1.25 0,-204.18 -24.6133,-0.12 0,-24.26 68.2114,0 0,24.26 -17.8208,0 0,58.71 29.7698,38.71 39.062,-97.42 -24.57,0 0,-24.26 74.648,0 0,24.26 -20.699,0 -52.109,124.77 53.32,79.53 16.719,0 0,22.42 -71.879,0 0,-22.42 22.578,0 -66.8398,-97.5 0,97.5 17.8208,0 0,22.42 -66.3286,0 z M 616.84,2292.81 742.539,2058.87 c 0,0 3.711,0.66 5.551,1.01 174.25,34.03 312.26,38.67 460.5,12.66 l 131.76,217.77 c -239.84,2.74 -723.51,2.5 -723.51,2.5 z m 14.019,-9.96 699.101,-0.78 -39.34,-64.45 c -23.55,7.26 -36.67,-3.52 -39.96,-26.06 0,0 -2.93,1.25 -8.36,1.84 -34.45,3.71 -38.82,-41.64 -6.64,-47.11 8.21,-1.41 9.57,0.23 9.57,0.23 -28.67,-24.1 -44.96,-7.85 -58.47,0.12 -0.35,-2.81 -25.71,-21.84 -49.61,0.9 34.22,-3.4 39.57,30.86 23.2,43.91 -3.44,3.35 -6.91,5.97 -6.91,5.97 8.04,7.03 9.8,16.33 4.65,26.99 -10.39,21.49 -42.93,20.24 -47.89,-3.2 -1.96,-9.1 -2,-10.7 -2,-10.7 -26.29,-1.72 -31.6,-26.53 -22.58,-40.28 5.12,-7.81 16.41,-9.49 26.84,-8.98 -14.06,-19.88 -46.21,-13.09 -60.51,3.28 -22.77,-26.72 -48.71,-23.48 -61.641,-9.14 8.793,0.08 14.851,0.23 22.931,7.7 13.79,12.73 6.99,35.35 -12.5,41.68 -3.791,1.25 -6.478,1.48 -6.72,1.52 0.16,0.16 0.511,1.44 1.371,8.24 4.839,39.45 -54.301,35.55 -48.59,-3.28 0.66,-4.49 1.871,-6.91 1.871,-6.91 0,0 -6.25,0.35 -9.844,-1.29 -32.848,-15.12 -10.238,-56.8 15.152,-46.1 2.43,1.02 8.95,4.26 9.93,4.18 -31.449,-38.94 -57.859,-11.33 -64.808,-7.07 -21.211,-31.48 -58.082,-10 -58.872,-7.81 2.309,-0.63 9.219,0.78 15.79,4.14 20.781,10.82 14.921,38.67 -1.29,44.73 -4.96,1.76 -10.98,1.91 -17.699,1.4 0,0 0.508,7 -0.152,9.5 -10.238,37.93 -57.43,18.98 -45.828,-13.09 1.019,-2.81 3.75,-5.63 3.75,-5.63 0,0 -6.403,-3.9 -9.25,-6.44 -22.539,-20.27 0.39,-53.71 26.719,-39.81 3.39,1.8 6.71,5.59 7.652,5.36 -12.383,-22.62 -31.172,-30.51 -57.973,-11.8 -16.558,-26.17 -43.508,-15.31 -51.129,-2.19 25.2,-2.3 41.559,45.98 -6.871,47.54 -3.75,13.13 -3.558,33.09 -34.301,29.65 l -38.789,73.24 z M 467.27,2254.69 c -26.329,-69.73 -100.551,-132.81 -143.559,-211.37 -48.551,-79.45 -33.32,-160.78 32.809,-174.8 34.652,-7.39 79.851,25.93 83.91,61.79 0.82,7.35 3.519,11.21 8.441,10.63 3.828,-0.47 3.469,-9.92 2.027,-21.29 -5.308,-37.31 -25.507,-96.49 -51.679,-123.75 l 121.64,-0.08 c -4.879,2.73 -50.308,59.49 -45.898,128.32 0.078,12.31 0.078,16.41 5.551,16.37 4.367,-0.04 4.41,-2.07 5.699,-14.14 8.199,-76.41 103.199,-84.69 133.051,-11.64 15.039,36.87 -0.742,102.5 -40.434,158.59 -30.199,49.38 -81.527,106.8 -111.558,181.37 z m 53.589,-458.87 c 0.27,-0.16 0.469,-0.2 0.469,0 l -0.469,0 z M 972.27,2200 c 5.539,0 10,-4.49 10,-10.04 0,-5.55 -4.461,-10.08 -10,-10.08 -5.551,0 -10.079,4.53 -10.079,10.08 0,5.55 4.528,10.04 10.079,10.04 z m 156.21,-1.17 c 5.86,0 10.62,-4.81 10.62,-10.67 0,-5.89 -4.76,-10.66 -10.62,-10.66 -5.9,0 -10.63,4.77 -10.63,10.66 0,5.86 4.73,10.67 10.63,10.67 z m -306.21,-11.64 c 5.66,0 10.23,-4.57 10.269,-10.28 0,-5.66 -4.609,-10.27 -10.269,-10.27 -5.668,0 -10.282,4.61 -10.282,10.27 0,5.71 4.614,10.28 10.282,10.28 z m 438.63,-12.62 -8.91,-15.82 c -9.8,8.59 -3.04,19.88 8.91,15.82 z m -560.939,-21.84 -8.871,16.37 c 15.859,-1.05 11.211,-12.42 8.871,-16.37 z m 270.98,8.91 c 59.999,-68.36 113.829,-48.12 149.019,-2.69 15.08,-38.72 48.71,-65.51 106.6,-39.46 -3.51,-6.21 -12.3,-17.15 -12.3,-17.15 -51.14,-13.75 -76.53,10.32 -96.29,33.25 -52.03,-43.21 -101.02,-32.74 -141.45,5.35 -34.532,-43.44 -90.391,-52.78 -142.11,-17.31 -23.672,-34.88 -57.57,-48.98 -100.23,-31.52 0,0 -9.059,14.22 -9.84,15.12 6.172,-5.2 84.719,-37.78 103.898,40.62 27.352,-46.4 117.032,-48.87 142.703,13.79 z m 6.047,-28.09 c 67.462,-63.12 138.322,-8.55 140.122,-4.68 1.05,-3.52 39.57,-49.53 95.12,-32.23 l -9.03,-15.47 c -104.49,17.66 -200.62,29.03 -420.778,-3.36 0,0 35.117,10.43 52.887,38.44 9.921,-6.41 86.293,-49.06 141.679,17.3 z m -853.277,-17.89 c -6.133,-14.88 -16.172,-30.27 -24.5704,-44.02 -39.4922,-61.29 -41.7187,-67.15 -44.8789,-88.79 -8.7929,-42.34 41.2071,-59.45 57.1483,-30.55 7.141,12.19 11.641,4.26 8.43,-7.3 -2.031,-20.31 -22.6916,-43.83 -22.7697,-43.4 l 60.5507,-0.47 c 0,0 -25.98,26.49 -25.551,47.7 0.039,9.72 5.2,10 11.52,1.29 18.051,-24.96 51.762,-4.89 52,30.58 0.109,21.76 -6.488,33.95 -45.82,92.46 -8.598,12.82 -18.051,28.95 -26.059,42.5 z m 616.719,-34.41 c 0,0 29.371,-3.48 31.679,-4.06 2.582,-1.99 -24.73,-9.49 -24.839,-8.95 l -6.84,13.01 z M 800,1780.16 c -1.801,-0.08 -3.98,-2.07 -7.699,-5.71 -7.961,-7.85 -9.762,-8.86 -17.5,-9.96 -5.821,-0.86 -18.121,-7.93 -25.621,-14.76 -1.989,-1.84 -5.86,-3.4 -10.469,-4.18 -4.02,-0.71 -9.531,-1.64 -12.262,-2.11 -2.738,-0.47 -5.711,-1.33 -6.609,-1.88 -3.899,-2.42 -10.309,-2.77 -17.461,-1.05 -6.91,1.68 -8,1.6 -15.617,-0.74 -11.102,-3.4 -18.364,-3.4 -23.832,0 -5.43,3.43 -14.102,4.72 -19.61,2.93 -8.121,-2.62 -29.179,10 -29.14,17.42 0,1.72 -11.95,10.66 -14.961,10.7 -10.699,1.56 -104.489,-35.47 -104.02,-37.62 115.192,-142.22 212.141,-358.94 139.102,-624.14 l -12.891,6.17 c 10.82,48.21 15.11,96.72 18.469,146.02 -216.168,93.32 -234.801,310.35 -150.899,447.34 l -14.25,15.2 c -50.82,-27.15 -102.5,-42.54 -228.171,-147.97 l 0.351,-170.66 c 0.32,-154.26 0.238,-304.57 0.238,-304.57 45.473,-5.04 95.551,-9.18 144.961,-13.4 0,0 -0.629,-152.581 -1.757,-212.268 -0.973,-50.473 0.898,-47.301 0.898,-47.301 l 163.59,-86.25 c -11.481,45.43 16.879,63.469 40.629,61.598 -10.508,43.793 15.551,63.832 45.312,58.203 20.117,-3.793 27.149,-14.883 38.629,-51.481 1.879,-5.941 4.461,-13.91 4.461,-13.91 l 11.438,0.43 c 14.382,30.82 23.953,70.039 57.742,75.117 44.179,6.641 60.621,-23.707 60.621,-54.058 42.808,37.73 94.098,8.511 90.738,-47.86 21.57,13.828 58.09,26.371 81.059,-27.031 8.672,1.801 13.082,11.449 25.231,14.461 4.53,0.969 14.85,6.519 14.85,6.519 l 0.15,1.84 c 0,0 9.53,3.321 22.35,5.391 11.01,-4.11 7.81,-3.949 13.71,3.359 6.6,3.391 17.34,5.621 25.58,4.879 8.68,-0.777 12.5,-1.406 17.58,0.781 7.93,3.481 15.31,4.34 19.96,-0.859 3.36,-3.75 8.24,-1.949 13.48,-1.762 10.43,0.434 24.34,-3.867 28.67,-13.238 6.41,-6.52 20.39,-13.129 20.39,-13.129 l 11.33,2.617 1.29,4.184 92.66,35.387 c -188.95,206.882 -183.99,481.331 -139.5,620.281 l 17.07,-8.25 c -9.06,-41.17 -19.33,-83.43 -18,-144.84 170.15,-75.86 254.8,-271.949 151.64,-443.09 l 10.93,-14.101 c 42.89,18.011 150.82,78.64 188.17,111.57 l 7.93,-0.668 c 0,0 22.61,14.648 32.61,22.461 l 1.33,454.218 -7.89,-2.07 -1.44,26.52 -140.28,11.14 c 1.8,1.32 3.13,1.87 3.56,4.53 l -0.82,251.44 c -5.2,7.97 -122.7,76.8 -166.41,92.89 -1.72,0 -0.55,-2.93 0.08,-10.15 2.15,-24.65 -14.49,-46.6 -33.79,-46.64 -6.95,0 -8.12,-2.97 -7.77,-17.11 0.47,-20.16 -6.8,-33.67 -28.01,-41.33 -25.16,-9.06 -42.15,4.06 -56.13,55.78 -3.68,13.59 -10.86,10.2 -17.74,-8.36 -3.44,-9.22 -14.49,-31.56 -21.09,-43.36 -5.08,-9.06 -13.13,-13.08 -24.06,-17.89 -8.56,-4.22 -27,-3.48 -37.66,1.92 -19.301,9.8 -26.758,21.56 -32.34,50.74 -0.711,3.79 -3.211,3.47 -9.461,-1.25 -34.059,-25.67 -81.949,0.86 -81.68,45.23 0.082,13.05 -0.469,13.56 -8.121,7.31 -23.09,-18.87 -54.449,-9.3 -67.027,20.43 -2.93,6.95 -4.531,10.07 -6.801,10 z m -195.781,-15.75 c 2.422,0.08 9.922,-9.88 9.922,-9.88 6.91,-7.65 16.211,-11.52 25.898,-17.19 0.902,1.33 112.731,-148.79 131.762,-355.78 l 52.027,-0.27 c -9.687,201.13 -65.156,297.81 -90.629,359.84 l 18.68,5.9 c 41.832,-80.15 92.851,-242.89 91.172,-385.39 l -85.942,0 c -12.148,142.74 -67.621,281.84 -145.23,387.38 -5.399,8.13 -9.649,13.79 -8.09,15.24 0.121,0.08 0.27,0.12 0.43,0.15 z m -32.891,-21.25 8.711,-27.34 c 0,0 1.051,6.37 3.711,8.79 16.988,15.31 33.238,-4.84 25.59,-32.19 -1.762,-8.4 -5.16,-25 -5.16,-25 0,0 -17.032,8.75 -25.629,11.56 -23.711,10.08 -31.602,29.89 -13.473,32.15 3.012,0.39 9.262,0.67 9.262,0.67 -7.539,5.9 -24.141,19.41 -24.141,19.41 l 21.129,11.95 z m 79.492,-3.08 c 7.149,-4.06 25.59,-8.44 36.211,-4.46 8.559,3.25 15.078,1.45 23.989,0.71 5.109,-0.43 15.269,1.79 15.269,1.79 50.902,-107.03 85.902,-234.02 91.723,-350.15 l -40,-0.24 c -15.121,123.36 -62.891,248.72 -123.481,341.68 -2.691,4.07 -6.25,10.51 -3.711,10.67 z m 167.149,-1.84 c 15.511,-0.19 31.679,-15.62 40.511,-40.9 4.918,-14.06 6.829,-13.2 13.399,-10.93 16.91,5.78 34.922,-12.78 12.262,-15.86 -22.231,-3.67 -9.571,-47.15 -11.442,-50.98 -9.027,-1.6 -25.937,35.39 -25.508,46.37 1.09,26.95 -24.222,49.49 -39.961,38.16 -7.46,-5.35 -6.64,-9.14 -8.949,-7.22 -7.109,5.97 -8.511,22.34 -0.23,31.64 5.969,6.71 12.89,9.8 19.918,9.72 z m 460.271,-9.29 c 0,0 0.86,-35.43 -0.47,-43.29 -2.65,-23.63 -33.51,-26.09 -34.72,-7.18 -5.04,-7.58 -8.52,-16.96 -10.51,-25.39 l -21.88,15.03 c 8.29,5.98 16.22,11.22 22.39,18.6 -16.25,-1.25 -25.32,12.81 -14.46,24.76 12.07,13.68 45.43,15.16 59.65,17.47 z m -804.799,-11.22 9.68,-10.89 c -86.242,-152.89 -55.851,-348.29 152.348,-450.98 -1.41,-46.91 -7.418,-94.34 -18.59,-138.36 l -76.801,37.27 c 0.512,172.85 -97.379,337.61 -253.598,445.93 56.68,45.55 119.418,85.55 186.961,117.03 z m 628.829,-1.28 c 3.67,-20.2 22.77,-56.76 24.18,-54.65 -0.2,1.21 -79.54,-101.6 -114.03,-273.56 l -29.451,-0.12 c 19.301,114.58 57.851,222.7 119.301,328.33 z m 244.49,-4.81 15.7,-9.49 c -82.23,-68.83 -136.37,-156.1 -176.13,-250.16 l -20.78,9.81 c 61.68,136.48 122.57,197.11 181.21,249.84 z m 21.95,-15.23 c 4.3,-0.28 9.41,-5.75 17.31,-10.08 7.73,-4.26 5.82,-6.49 -8.75,-17.66 -17.23,-13.2 -18.87,-12.62 -18.72,6.21 0.12,12.5 3.29,20.82 9.3,21.49 0.27,0 0.55,0.04 0.86,0.04 z m -18.94,-19.46 c 0.89,0.04 1.64,-0.23 2.11,-0.97 1.24,-5 1.13,-16.45 -0.86,-27.7 -1.64,-7.42 -23.75,-26.09 -31.61,-33.44 -3.16,-2.07 -4.61,-1.32 -5.19,2.39 0.23,5.82 0.82,13.63 0.9,21.56 0.04,2.46 -0.47,5 1.76,6.87 10.82,12.78 26.56,30.98 32.89,31.29 z m 41.05,-6.05 c 0.12,0 0.23,-0.04 0.31,-0.08 2.03,-1.21 1.72,-26.84 0.28,-28.55 -6.41,-1.65 -23.68,1.09 -28.09,3.43 -0.98,2.97 23.36,25.35 27.5,25.2 z m -770.039,-8.28 5.981,-25.12 c 0,0 1.718,3.36 2.148,4.02 11.91,18.21 26.399,7.54 26.168,-17.73 -0.078,-8.01 -7.348,-39.92 -7.348,-39.92 0,0 -44.679,21.48 -48.199,30.9 -3.441,9.25 1.489,17.38 9.688,18.16 3.082,0.35 6.293,0.59 9.84,0 l -19.219,19.61 20.941,10.08 z m 511.559,-3.36 20.28,-7.5 c -42.27,-68.75 -85.9,-136.72 -117.7,-291.64 l -84.959,0 c 11.879,94.68 35.98,187.77 78.949,278.36 0,0 16.68,5.11 26.09,8.2 0,0 -70.23,-160.74 -78.398,-264.06 l 41.058,-0.86 c 21.91,100.66 62.89,205.04 114.68,277.5 z m -160.891,-2.5 c 11.442,0.43 19.84,-7.62 19.211,-21.84 -0.148,-13.04 -1.359,-14.92 -10.582,-9.72 -12.109,6.83 -21.68,6.99 -32.5,-0.79 -5.976,-4.25 -11.84,-7.77 -11.84,-7.77 0,0 5.242,22.62 13.242,29.77 7.7,6.83 15.629,10.11 22.469,10.35 z m -43.597,-33.48 c -0.821,-7.66 -3.051,-11.17 -5.082,-17.69 0,0 6.64,2.57 9.808,4.06 15.121,7.03 30.863,-6.02 30.621,-21.29 0.672,-10.2 -10.39,-22.38 -23.59,-22.5 -4.609,-0.04 -9.449,1.41 -14.179,4.92 3.441,-18.67 4.101,-27.3 -9.532,-36.68 -11.449,-7.58 -35.507,1.1 -34.136,21.99 l 0.816,12.86 -11.527,-1.49 c -32.301,-1.33 -32.852,38.4 -6.789,44.65 10.386,2.46 21.679,-6.06 21.679,-6.06 -4.961,9.73 -5.043,26.49 1.598,34.22 16.41,19.07 42.34,1.76 40.313,-16.99 z m 281.918,24.81 c 1.75,-14.89 7.65,-31.1 5.97,-44.97 -2.5,-17.73 -17.58,-28.24 -29.45,-16.75 -1.45,1.44 -4.1,4.37 -4.1,4.37 -5.35,-6.76 -8.67,-25.9 -8.67,-25.9 l -20.94,12.89 c 0,0 14.53,10.2 18.55,16.02 1.14,1.6 1.64,4.69 1.64,4.69 -11.64,-3.64 -21.52,8.28 -18.36,18.79 6.33,17.18 37.66,23.59 55.36,30.86 z m 146.25,-10.75 c 7.85,0.24 19.96,-1.99 29.53,-3 7.38,-1.29 3.28,-5.43 -13.21,-21.49 -15.15,-14.76 -14.64,-13.4 -26.32,-13.2 -27.27,0.47 -32.04,-0.16 -16.18,16.99 8.32,8.98 15.59,17.07 21.53,20.08 1.29,0.35 2.85,0.55 4.65,0.62 z m -49.14,-3.12 c 0.35,0 0.62,-0.16 0.89,-0.39 1.8,-1.68 1.18,-9.38 0.98,-20.74 -0.2,-12.07 -0.08,-12.07 -5.12,-18.4 -6.48,-8.09 -11.83,-16.37 -18.55,-24.14 -5.86,-6.33 -5.67,-5.67 -9.14,9.57 -3.4,14.76 -1.53,19.33 17.5,40.74 6.44,8.24 11.01,13.48 13.44,13.36 z m 85.15,-8.4 0.2,-29.92 c -56.25,-55 -94.46,-116.88 -120.43,-185.04 l -19.61,7.77 c 33.94,87.11 84.72,155.08 139.84,207.19 z m -487.62,-18.09 c -9.289,0 -16.832,-7.53 -16.832,-16.83 0,-9.3 7.543,-16.84 16.832,-16.84 9.301,0 16.84,7.54 16.84,16.84 0,9.3 -7.539,16.83 -16.84,16.83 z m -0.109,-5.31 c 6.398,0 11.64,-5.19 11.64,-11.64 0,-6.4 -5.242,-11.64 -11.64,-11.64 -6.41,0 -11.602,5.24 -11.602,11.64 0,6.45 5.192,11.64 11.602,11.64 z m -624.922,-7.11 C 454.84,1482.73 533.52,1308.24 533.16,1158.32 l -9.922,4.45 c -10.269,211.84 -125.429,342.07 -249.879,426.37 l 6.02,6.17 z m 1038.781,-1.6 c 3.99,0 9.38,-0.62 17.23,-1.52 14.49,-0.78 16.29,-1.72 6.29,-13.21 -2.73,-3.12 -8.01,-9.68 -11.72,-14.64 -3.71,-4.96 -8.24,-10.12 -10.31,-10.82 -3.05,-1.06 -28.52,0.15 -35.82,1.13 -2.38,0.35 0.74,2.77 13.16,20.51 9.53,13.59 10.55,18.12 19.57,18.51 0.51,0.04 1.06,0.04 1.6,0.04 z m 73.09,-5.78 c 0,0 3.48,-96.52 0.94,-158.13 -40,1.49 -63.52,-13.71 -73.28,-42.46 l -42.07,20.82 c 30.86,79.22 72.11,134.38 114.41,179.77 z m -123.87,-2.23 c 2.27,0 3.56,-4.72 4.22,-13.98 2.62,-16.6 2.35,-18.56 -4.57,-29.18 -3.48,-5.31 -8.2,-12.81 -10.51,-16.68 -3.98,-6.76 -6.87,-8.75 -7.85,-5.51 -5.47,17.93 -7.22,28.99 -5.27,32.62 3.2,5.94 18.12,27.15 20.23,29.92 1.49,1.91 2.7,2.85 3.75,2.81 z m -1000.931,-1.79 c 141.051,-87.31 244.25,-236.45 248.512,-416.64 0,0 -30.082,14.1 -48.633,24.41 l -0.937,17.54 9.769,0.31 3.16,-19.76 21.52,0.7 -5.699,49.26 -33.711,-3.17 -6.801,27.89 10.199,2.19 5.66,-18.01 21.922,5.82 -11.68,43.87 -33.871,-9.26 -10.82,29.65 11.25,4.06 9.102,-17.77 20.629,7.19 -19.5,44.02 -31.129,-14.73 -15.821,28.75 12.192,6.49 9.797,-17.11 19.261,10 -23.832,40.47 -29.566,-16.53 -14.883,22.27 9.18,6.45 10.16,-11.72 16.91,11.99 -25.937,34.88 -28.321,-22.15 -20.941,24.22 9.648,8.21 14.422,-12.93 16.09,14.06 -30.859,33.63 -26.95,-24.57 -20.082,17.42 9.84,10.9 12.5,-9.57 13.321,15.78 -33.551,27.66 -25.16,-24.88 -24.098,15.93 0,11.84 c 7.809,-3.01 16.09,-6.52 23.519,-10.47 l 12.5,18.91 -36.019,24.29 7.738,8.21 z m 392.813,-7.43 5.347,-30.82 c 5.039,8.4 9.063,14.14 20.039,10.9 13.161,-5.35 13.321,-25.15 2.192,-55.47 -2.07,-5.62 -4.61,-10.5 -4.61,-10.5 0,0 -5.781,2.42 -9.609,5.03 -8.051,5.51 -21.601,11.76 -28.519,22.66 -7.262,11.45 -7.422,27.46 5.898,26.1 2.66,-0.04 7.891,-1.29 7.891,-1.29 l -20.039,25.5 21.41,7.89 z m -400.551,-9.18 24.41,-15.74 -5.07,-9.22 -19.34,8.71 0,16.25 z m 612.309,-7.26 c 7.07,-9.88 -17.86,-39.06 14.718,-50.7 0,0 0.782,-6.72 -5.968,-10.79 -15.942,-11.6 -38.829,9.57 -31.719,31.33 4.527,13.95 17.648,30.08 22.969,30.16 z m 67.57,-0.94 c 0,0 9.808,-7.15 11.762,-9.06 18.168,-17.38 18.32,-42.31 1.918,-51.02 -10.942,-5.82 -23.29,-1.13 -27.579,7.31 -1.992,3.87 1.289,7.97 5.43,7.93 7.848,-0.04 13.828,14.92 11.481,30.7 -0.903,6.29 -3.012,14.14 -3.012,14.14 z m 213.95,-5.78 c 0,0 2.19,-21.33 5.27,-30.78 9.53,-26.49 -2.65,-42.62 -20.43,-33.75 -2.54,1.29 -7.03,7.03 -7.03,7.03 l -1.76,-30.43 -25.31,7.34 c 5.47,8.83 13.36,15.08 19.22,24.97 0,0 -3.75,0.15 -7.07,0.15 -15.12,-0.51 -20.7,16.25 -4.84,30.04 11.79,10.2 41.95,25.43 41.95,25.43 z m 132.3,-7.07 c 3.05,0 6.88,-0.23 12.11,-0.23 16.06,0 20.2,2.14 13.13,-7.86 -2.78,-3.86 -9.49,-14.72 -11.49,-18.39 -4.06,-7.5 -4.88,-9.89 -11.6,-11.33 -9.76,-1.96 -20.82,-0.63 -31.99,-1.14 -2.42,0.12 2.58,8.44 5.35,13.6 6.8,12.65 10.94,21.33 16.8,23.98 2.3,1.06 4.61,1.33 7.69,1.37 z m -49.61,-9.8 c 1.92,0.11 3.36,-3.36 5.2,-10.55 4.34,-16.76 5.43,-17.19 -1.52,-30.94 -3.52,-6.95 -9.5,-18.71 -11.96,-23.59 -6.29,-12.5 -6.64,-12.39 -10.62,-1.21 -7.62,21.44 -8.28,19.25 4.29,43.32 7.86,15.04 11.76,22.81 14.61,22.97 z m -925.539,-5.86 22.688,-18.21 -6.438,-6.25 -12.543,9.26 -18.558,-19.88 30.469,-27.78 25.82,25.39 22.109,-23.08 -6.758,-5.74 -12.96,12.54 -19.418,-16.61 28.988,-34.25 29.211,22.26 18.32,-23.98 -7.5,-4.69 -11.949,11.6 -18.981,-13.16 23.629,-33.36 29.801,17.11 16.957,-27.85 -9.418,-4.53 -9.609,15.27 -21.36,-12.31 20.188,-38.98 32.152,13.44 12.969,-29.77 -9.84,-3.98 -8.25,17.89 -21.68,-8.56 14.54,-40.93 32.609,9.37 7.93,-30.43 -10.079,-2.81 -4.921,16.87 -20.778,-5 8.668,-41.09 33.211,2.11 3.942,-33.2 -10.313,-0.47 -2.578,19.8 -21.172,-0.23 c 0.121,-6.99 0.941,-21.25 0.941,-21.25 l -12.781,5.9 c -19.019,126.32 -86.75,231.6 -187.687,304.88 l -0.551,15.08 24.57,-15.59 c 0,0 22.539,20.08 26.41,25.2 z m 969.569,-29.46 c 7.07,0.04 3.94,-5.43 -4.65,-21.75 -9.57,-18.21 -11.25,-18.6 -29.18,-22.93 -21.8,-5.36 -21.13,-6.53 -9.38,18.59 4.57,9.69 7.9,18.16 12.04,21.41 5.46,4.21 16.05,2.61 27.53,4.33 1.45,0.24 2.66,0.35 3.64,0.35 z m -1019.381,-5.39 c 104.851,-67.62 171.141,-207.54 179.34,-292.34 0,0 -2.809,1.91 -8.559,4.53 -7.961,3.67 -9.879,6.05 -12.219,17.58 -20.742,103.75 -79.3,191.76 -158.089,253.87 l -0.473,16.36 z m 945.391,-17.3 c 4.46,0.9 12.5,-30.94 10.12,-37.62 -1.76,-4.77 -17.34,6.56 -23.01,8.95 -2.85,1.21 9.89,28.04 12.89,28.67 z m -505.54,-1.49 -0.511,-33 c 0,0 3.98,4.72 6.051,6.21 7.781,5.7 19.691,-2.19 20.16,-11.92 0.621,-13.51 -1.45,-19.02 -12.27,-37.81 -3.359,-5.78 -8.39,-13.2 -8.39,-13.2 0,0 -12.782,9.1 -26.758,23.04 -15.121,15.04 -12.231,35.16 0.968,35.2 3.989,0.04 7.5,-1.29 10.942,-2.42 -2.852,9.72 -13.473,28.63 -13.473,28.63 l 23.281,5.27 z m 409.76,-24.72 c 0,0 6.84,-8.99 14.73,-32.7 7.5,-22.65 -4.06,-39.69 -19.77,-31.13 -2.81,1.52 -5.74,4.8 -5.74,4.8 -1.09,-10.93 0.86,-30.7 1.13,-30.86 l -25.31,4.42 c 0,0 13.91,22.07 14.88,27.54 0,0 -1.56,-1.25 -8.51,-1.21 -25.43,0 -20.16,30.23 9.22,47.03 4.41,2.5 19.37,12.11 19.37,12.11 z m 145.78,-0.35 c 5.51,0.23 2.89,-5.08 -3.2,-17.54 -6.72,-13.75 -5.04,-12.54 -19.26,-5.28 -19.92,9.73 -18.75,11.21 6.49,18.05 7.97,2.93 13.08,4.61 15.97,4.77 z m -360.891,-4.07 c 19.922,-0.11 34.641,-19.76 31.672,-47.73 -5.031,-47.97 -2.141,-45 3.09,-49.81 9.531,-8.71 -3.36,-13.94 -14.731,-5.62 -7.89,5.78 -10.461,11.48 -10.07,37.97 0.43,30.43 -1.219,38.16 -12.11,35.5 -6.8,-1.64 -8.91,-7.42 -8.171,-27.92 1.062,-28.83 -0.86,-36.06 -11.789,-45.28 -11.801,-9.14 -24.54,-1.01 -13.75,5.04 4.921,5.51 5.859,12.58 3.941,29.96 -2.07,14.85 -10.699,68.17 31.918,67.89 z m 492.731,-24.18 c 2.5,0.04 5,0.04 7.54,-0.08 38.36,-1.44 135.35,-9.33 135.35,-9.33 l 0.82,-28.63 c -4.34,-2.66 -76.68,8.36 -129.92,7.38 -12.46,-0.24 -21.29,-5.74 -30.28,-1.13 8.64,-3.6 7.86,-46.8 -30.23,-36.33 -32.27,11.6 -16.52,55.27 24.73,66.29 7.11,0.93 14.45,1.68 21.99,1.83 z m -213.4,-19.18 82.85,-40.86 c 11.6,-155.58 65.32,-319.96 248.24,-444.531 -29.64,-21.207 -103.98,-73.278 -188.94,-108.938 l -6.95,7.457 c 100.89,171.524 24.68,360.352 -152,445.822 0.51,47.62 6.49,94.57 16.8,141.05 z m 291.49,-26.09 c 15.89,0.62 20.03,-1.21 21.4,-8.4 1.29,-6.8 6.33,-8.4 12.31,-6.25 14.61,5.35 23.51,-20.55 11.4,-31.99 -7.5,-7.15 -6.17,-9.88 -0.04,-9.92 15.24,-0.08 14.81,-20.04 -0.66,-31.33 -6.45,-4.69 -6.37,-6.84 0.35,-10.16 11.29,-5.54 9.02,-16.52 -5.27,-25.54 -7.78,-4.93 -8.05,-6.14 -1.6,-7.89 16.13,-4.42 -0.36,-27.43 -18.05,-23.36 -7.23,1.68 -14.14,0.11 -21.06,-4.42 -18.94,-7.89 -22.1,-9.45 -42.53,-6.91 -17.97,3.32 -25.98,9.22 -30.63,24.96 -10.51,32.07 -21.87,67.54 -21.99,102.54 -1.6,21.48 34.41,40.9 51.44,41.76 13.91,2.07 29.85,-2.93 44.93,-3.09 z m -1133.438,-0.55 c 19.019,0 34.449,-15.43 34.449,-34.49 0,-19.02 -15.43,-34.45 -34.449,-34.45 -19.063,0 -34.492,15.43 -34.492,34.45 0,19.06 15.429,34.49 34.492,34.49 z m 383.199,-10.11 -3.082,-30.16 c 0,0 5.07,3.94 6.242,4.96 8.988,7.5 23.168,-0.9 19.93,-12.58 -1.063,-10.27 -18.789,-40.86 -25.86,-47.26 0,0 -28.48,31.05 -31.531,37.11 -6.789,13.47 2.461,27.53 14.77,21.56 1.761,-0.82 6.84,-4.61 6.84,-4.61 l -9.032,28.63 21.723,2.35 z m -380.902,-2.43 c -12.18,-0.43 -23.789,-7.89 -22.219,-17.85 1.051,-4.26 7.539,1.88 13.941,5.9 4.918,3.09 10.821,3.56 16.41,1.17 4.957,-1.79 7.071,-6.33 9.957,-9.88 2.422,-2.97 5.082,-5.43 6.602,-3.95 1.25,1.57 0.738,3.56 0.391,5.32 -2.621,13.59 -13.832,19.61 -25.082,19.29 z m 928.641,-4.68 12.3,-6.29 c 16.6,-219.89 127.77,-349.1 244.57,-426.101 l -9.3,-5.621 c -143.32,91.832 -242.85,256.372 -247.57,438.012 z m 18.63,-9.03 c 0,0 30.97,-15.86 47.19,-23.16 l 0.58,-19.88 -10.82,-0.4 -3.67,18.72 -22.5,-1.64 7.03,-45.98 36.29,4.45 5.04,-27.81 -12.27,-2.58 -6.32,17.11 -20.79,-5.08 13.48,-44.69 32.7,10.55 10.27,-29.22 -10.98,-3.98 -7.03,17.11 -21.56,-7.54 16.68,-43.59 34.06,10.93 13.75,-27.3 -10.35,-4.57 -9.84,16.91 -20.43,-10.43 23.94,-40.74 30.78,16.13 14.34,-21.76 -11.29,-7.57 -10.23,13.32 -16.57,-10.9 26.49,-36.17 26.52,19.84 19.8,-22.85 -8.74,-7.74 -13.52,13.68 -16.02,-14.26 31.57,-34.65 27.42,23.83 19.45,-18.13 -5.74,-6.09 -13.13,8.2 -17.34,-18.43 33.13,-28.872 26.32,28.872 22.31,-16.45 0,-12.148 -19.92,10.117 -13.36,-20.117 33.28,-25.192 -0.24,-9.93 c -190.04,113.4 -240.07,289.26 -249.76,420.08 z m -389.1,-2.18 c 8.239,0.23 16.911,-7.5 31.211,-24.11 40.079,-46.36 29.368,-118.16 -22.972,-155.58 -7.66,-5.43 -10.699,-4.96 -20.039,3.04 -53.711,46.14 -56.801,107.86 -8.981,162.04 8.281,9.37 14.41,14.41 20.781,14.61 z m 191.95,-6.37 c 9.88,-15.16 22.34,-30.74 23.79,-49.14 -0.7,-18.17 -12.97,-21.53 -25.67,-10.94 -1.6,-9.53 3.87,-28.13 3.87,-28.13 l -22.97,2.43 c 0,0 8.99,15.74 9.38,25.58 -15.98,-11.09 -28.13,3.4 -25.98,15.08 4.57,19.84 20.9,33.24 37.58,45.12 z m -191.25,-11.88 c -1.879,-0.15 -3.828,-1.44 -6.84,-3.83 -13.981,-11.25 -25,-25.19 -30.699,-39.68 -12.032,-30.59 -4.18,-65.08 22.968,-91.8 13.789,-13.59 18.672,-12.66 39.801,15.43 17.699,23.52 21.371,53.91 10.469,80.31 -5.309,12.89 -14.957,25.47 -26.52,34.57 -4.449,3.52 -6.757,5.2 -9.179,5 z m 441.76,-5.66 17.81,-8.75 c 22.73,-149.92 96.41,-241.41 178.98,-304.45 l -0.15,-13.911 -22.15,17.151 -26.52,-27.78 -21.53,17.66 8.05,7.81 12.27,-7.77 15.66,17.54 -30.82,27.5 -26.88,-23.32 -22.42,23.05 6.8,5.66 15.51,-13.52 17.3,15.39 -29.96,33.6 -26.8,-20.31 -18.71,24.8 8.17,4.84 9.76,-13.43 20.67,12.85 -21.84,33.59 -31.13,-15.97 -15.94,28.71 9.06,4.33 10.32,-16.09 19.41,9.3 -19.53,39.64 -31.84,-10.5 -11.72,31.17 9.1,3.32 8.05,-18.4 21.53,6.87 -14.61,42.7 -32.93,-9.3 -8.13,31.37 10.16,2.19 5.35,-16.96 22.62,4.54 -8.28,40.62 -33.68,-4.26 c -1.13,6.92 -6.09,25.51 -6.01,32.54 l 10.39,0.86 3.24,-17.89 22.66,0.74 -1.29,22.27 z m -440.588,-3.24 c 12.347,-1.72 27.418,-25.47 30.859,-34.11 6.488,-17.07 7.027,-36.87 1.09,-52.18 -4.84,-12.54 -19.371,-34.77 -28.59,-41.06 -7.461,-4.02 -13.672,-1.05 -24.301,13.4 -21.012,28.56 -25.07,62.89 -8.512,86.41 12.692,17.97 22.071,27.54 29.454,27.54 z m 464.448,-7.43 8.95,-4.21 c 11.02,-86.88 62.5,-206.14 163.83,-277.47 l 0,-10.89 c -78.83,56.56 -151.17,154.14 -172.78,292.57 z m -466.011,-5.89 c -35.269,-26.61 -29.648,-68.25 -2.93,-96.33 28.832,19.06 38.981,70.54 2.93,96.33 z m -538.559,-1.8 c 19.891,0.47 32.54,-6.45 38.598,-20.27 9.41,-21.41 10.703,-25.47 12.621,-36.72 1.09,-6.45 2.813,-16.14 3.781,-21.57 10.321,-58.24 2.7,-80.19 -32.652,-89.25 -10.547,-2.74 -25.277,-3.6 -35.547,-1.14 -2.73,0.67 -12.582,0.71 -20.351,0.98 -15.43,0.47 -20.16,2.11 -27.891,8.4 -2.809,2.26 -5.469,4.06 -8.828,4.61 -17.66,2.77 -22.93,18.94 -9.531,30.9 7.621,6.83 8.398,7.73 7.699,8.86 -0.43,0.67 -3.68,1.21 -7.27,1.25 -17.808,0.12 -17.621,18.4 0.313,31.49 8.519,6.21 12.348,12.07 6.719,10.62 -16.25,-3.82 -21.95,19.89 -5,27.23 9.019,5.08 15.507,9.3 6.8,9.77 -7.312,-0.63 -13.281,4.76 -11.019,11.13 2.699,7.69 17.539,14.72 26.098,12.11 6.71,-2.07 13.242,-3.95 17.421,-0.94 10.11,7.31 14.68,10.59 23.399,11.76 5.07,0.66 10.39,0.82 14.64,0.78 z m 591.641,-4.45 81.759,-1.57 -2.38,-80.19 -77.031,1.44 c 0,0 16.871,35.82 -2.348,80.32 z m -183.281,-1.84 78.32,-0.94 c -12.89,-30.23 -8.082,-61.33 -3.359,-78.83 l -76.68,1.22 1.719,78.55 z m 130.82,-0.12 c 21.059,-12.26 26.84,-56.91 -2.422,-79.88 -27.808,28.59 -22.218,63.44 2.422,79.88 z m -193.281,-34.84 21.019,-1.95 -7.5,-30.08 c 0,0 3.403,3.55 4.493,3.9 26.988,12.66 28.91,-16.05 1.449,-41.95 -6.059,-5.74 -15.82,-13.55 -15.82,-13.55 0,0 -7.622,11.52 -13.68,21.99 -6.91,10.51 -11.602,21.76 -10.43,27.73 1.719,8.67 12.149,14.38 18.789,9.1 3.281,-2.61 7.071,-6.56 7.071,-6.56 l -5.391,31.37 z m 375.041,-22.07 c 0,0 8.79,-9.02 14.14,-14.88 18.56,-20.28 21.76,-39.26 12.35,-45.04 -8.09,-3.71 -13.09,-1.17 -19.61,4.1 1.36,-12.58 11.36,-31.13 11.13,-31.17 l -27.7,-4.46 c 0,0 6.84,25.2 6.25,34.69 0,0 -5.7,-4.33 -8.2,-5.43 -18.08,-6.6 -27.03,13.95 -12.19,34.42 12.46,17.14 23.83,27.77 23.83,27.77 z m 378.2,-38.01 c 18.56,0 33.64,-15.04 33.64,-33.63 0,-18.6 -15.08,-33.63 -33.64,-33.63 -18.59,0 -33.67,15.03 -33.67,33.63 0,18.59 15.08,33.63 33.67,33.63 z m 16.57,-15.39 c -1.45,-0.31 -2.62,-3.67 -2.81,-11.01 -1.65,-15.08 -14.22,-21.18 -27.93,-14.18 -5.55,2.81 -10.28,7.03 -10.32,3.78 0,-1.71 4.46,-10.7 7.62,-13.75 11.64,-10.46 39.96,-8 39.34,16.37 -0.32,11.49 -3.48,19.34 -5.9,18.79 z m -610.741,-12.62 c 3.629,0.24 8.281,-1.29 11.25,-4.37 9.18,-6.25 10.93,-14.3 11.52,-44.57 0.511,-26.72 -0.039,-27.35 4.371,-30.59 10.789,-7.93 17.308,4.14 14.219,31.21 -2.969,26.06 6.41,45 22.152,44.89 7.738,-0.04 9.18,-4.61 3.277,-10.39 -6.207,-6.14 -7.687,-13.64 -5.738,-28.72 5,-38.59 0.66,-57.53 -15.551,-65.39 -16.949,-8.16 -38.711,1.21 -42.5,22.58 -2.461,14.26 -2.461,31.17 -0.738,47.07 0.309,16.76 -0.082,18.67 -5.941,28.28 -4.098,6.45 -1.008,9.65 3.679,10 z M 433.32,1165.23 c 9.34,0.04 19.059,-5.39 24.879,-17.38 14.031,-28.94 -16.359,-52.73 -44.219,-54.61 -48.32,-0.74 -105.781,6.25 -154.332,12.7 l 0.782,27.34 c 44.531,-2.58 94.769,-6.17 148.832,-8.71 -6.141,25.43 8.468,40.63 24.058,40.66 z m 254.258,-5.58 26.953,-5.98 -17.152,-27.97 c 5.082,2.19 8.601,3.71 13.672,1.88 10.98,-3.99 11.14,-17.85 3.09,-30.86 -6.371,-9.42 -24.262,-20.67 -36.442,-27.58 -6.879,14.69 -22,40.47 -15.98,54.53 3.203,7.5 12.07,11.13 20.312,7.03 2.739,-1.6 7.93,-4.29 7.93,-4.29 l -2.383,33.24 z m 63.633,-0.78 82.027,-0.98 c -11.91,-82.93 -35.226,-193.671 -81.207,-283.91 l -19.301,-5 c 40.508,89.692 67.5,173.79 80.079,267.86 l -41.008,0 C 748.199,1035.9 713.32,942.379 659.648,861.09 l -23.867,7.781 c 57.34,90.899 102.809,192.379 115.43,289.999 z m 187.109,-1.45 91.41,0 c 16.83,-168.869 73.9,-284.1 158.79,-398.119 0,0 -5.36,-1.18 -8.52,0.148 -8.79,10.981 -16.88,17.699 -30.08,21.102 -71.37,102.73 -119.22,246.399 -130.78,356.289 l -54.37,0 c 6.21,-138.051 44.41,-251.18 95.31,-360.789 l -27.62,-5.071 c -40.858,98.079 -85.659,183.43 -94.14,386.44 z m 142.27,-20.86 c 7.53,-5.82 15.66,-11.56 23.32,-17.11 20.58,-14.41 20.31,-41.75 0.31,-41.6 -2.15,0 -7.07,0.31 -7.07,0.31 0,0 8.16,-17.93 13.32,-26.99 -8.36,-2.19 -25.78,-5.47 -25.78,-5.47 0,0 2.5,17.58 1.99,32.15 0,0 -3.32,-3.75 -6.09,-5.04 -13.29,-5.54 -24.5,6.02 -22.86,19.73 2.23,18.48 22.86,44.02 22.86,44.02 z m -610.82,-3.32 45,-22.34 C 484.102,1041.09 448.98,975.738 398.16,926.051 l 1.328,161.289 c 27.742,0.82 56.172,1.1 70.282,45.9 z m 307.73,-2.54 27.699,0 C 792.891,1001.91 707.809,827.699 691.84,806.68 l -5.281,-3.95 c 0.32,0.2 -10.899,39.5 -23.668,53.641 48.007,64.758 98.32,189.219 114.609,274.329 z m 194.691,0 41.789,0 c 13.05,-102.61 44.77,-213.47 125.16,-348.122 0,0 -8.05,-0.816 -14.3,2.934 -13.67,8.468 -23.2,-2.782 -31.4,-2.313 -12.78,0.672 -14.89,1.449 -28.09,-1.679 -66.37,139.929 -85.19,250.04 -93.159,349.18 z m -451.722,-23 14.961,-7.04 C 503.281,1026.37 474.531,967.34 398.441,894.84 l -0.281,21.609 c 53.481,51.75 89.5,120.001 122.309,191.251 z m 21.761,-10.4 c 7.071,-2.65 15.071,-7.03 21.75,-10.62 2.231,-0.9 1.641,-2.89 1.641,-5 -2.812,-7.07 -15.269,-10.16 -20,-11.52 -5.699,-1.61 -11.281,-2.78 -12.301,-3.01 -6.519,-1.53 -4.449,5 2.578,19.3 3.204,6.44 4.454,10.7 6.332,10.85 z m 29.84,-15.74 c 4.45,0.28 22.5,-9.68 26.371,-13.28 1.36,-4.22 -2.543,-10.9 -8.242,-23.24 -8.75,-18.95 -10.508,-19.38 -13.129,-3.79 -0.429,2.7 -3.05,11.52 -4.648,17.42 -3.633,13.67 -3.981,21.53 -0.352,22.89 z m 32.66,-15.31 c 0,0 10.5,-5.12 13.899,-7.34 C 571.801,918.59 446.988,802.621 447.66,805.27 l -19.461,11.449 c 83.051,75.043 143.91,163.633 176.531,249.531 z m -49.531,-1.99 c 4.531,-0.12 0.582,-5.67 -5.551,-19.18 -5.777,-13.2 -7.699,-17.89 -13.128,-20 -7.77,-2.81 -18.942,-2.89 -28.86,-4.65 -4.262,-0.74 -2.461,2.5 4.059,15.78 7.66,15.59 8.082,18.83 20.121,22.03 6.949,1.1 16.32,6.06 23.359,6.02 z m 16.442,-27.89 c 4.808,-17.39 4.73,-20.82 1.48,-26.84 -6.051,-11.331 -13.98,-24.53 -16.172,-28.12 -5.469,-8.949 -6.988,-7.07 -10.23,14.68 -2.028,13.48 -3.789,19.53 -2.309,25.43 2.738,6.64 10.86,22.31 15.469,31.49 6.57,19.53 10.082,-14.92 11.762,-16.64 z m 86.25,15.15 24.57,-8.04 -19.301,-23.28 c 0,0 8.09,1.44 9.031,1.09 19.329,-1.29 16.129,-20.51 1.168,-32.149 -6.211,-5.7 -36.8,-19.61 -36.8,-19.61 -3.278,17.231 -10.039,28.199 -8.399,45.859 1.141,9.53 1.961,18.09 13.641,18.36 6.129,0.35 8.59,-5.94 12.578,-10.98 l 3.512,28.75 z M 1103.4,1030.7 c 0,0 14.8,-7.65 28.51,-18.2 17.93,-13.789 20.98,-30 3.09,-36.211 -2.07,-0.738 -7.97,-0.43 -7.97,-0.43 4.96,-8.589 16.64,-21.371 16.64,-21.371 -5.86,-4.097 -14.14,-7.297 -23.32,-10.148 0,0 -2.26,21.32 -4.45,29.609 0,0 -2.35,-4.687 -5.28,-6.527 -17.26,-10.703 -30.78,9.488 -21.52,35.078 5.63,15.51 14.3,28.2 14.3,28.2 z m -189.49,-3.59 c 43.039,1.05 17.809,-69.45 -3.711,-64.88 -0.359,0.622 17.77,41.68 -6.648,48.2 -11.211,3.01 -1.52,16.84 10.359,16.68 z m -70.59,-5 c 13.36,0.08 23.09,-9.34 10.309,-15.27 -20.109,-9.34 -8.117,-31.719 -7.649,-44.379 0.27,-7.77 -17.929,6.758 -21.8,22.5 -5,20.349 -2.7,35.429 19.14,37.149 z m -318.398,-7.38 c 2.969,0 5.199,-0.24 5.976,-0.82 1.25,-3.32 -4.769,-13.71 -13.519,-27.031 -4.68,-7.109 -6.68,-9.109 -9.527,-10.75 -6.801,-3.828 -16.293,-2.848 -24.223,-3.399 -11.828,-0.152 -9.758,0.079 3.32,20.469 5.86,9.101 9.531,16.571 13.012,18.951 0.699,0.43 16.059,2.54 24.961,2.58 z M 540.43,1000 c 0,-25.512 8.672,-33.871 2.3,-41.879 -7.769,-12.531 -17.691,-26.242 -21.281,-30.582 -6.097,-7.309 -5.398,-5.937 -7,13.16 -1.168,13.871 -2.418,23.129 -0.621,27.422 5.192,12.5 11.402,18.481 17.813,31.758 5.039,10.711 8.789,8.911 8.789,0.121 z m 339.769,-12.77 c 12.531,-0.199 20.231,-13.48 19.68,-25.671 l -0.539,-11.68 c 16.172,6.211 36.211,0.199 37.109,-15.66 1.481,-26.879 -18.289,-23.75 -35.039,-22.617 1.68,-0.622 4.18,-24.301 -5.789,-33.321 -15.621,-17.5 -44.762,0.391 -37.461,26.02 1.531,5.347 1.84,8.668 1.84,8.668 0,0 -10.43,-3.75 -14.102,-3.59 -31.718,1.359 -29.296,46.172 2.543,40.891 6.52,-1.09 10.938,-2.649 10.938,-2.649 0,0 -0.707,2.848 -1.801,6.828 -4.609,17.27 5.121,33.012 22.621,32.781 z m 634.061,-8.011 17.07,-9.809 0,-19.058 -24.3,17.968 7.23,10.899 z M 489.922,966.48 c 6.719,0.079 12.027,-0.46 10.976,-2.07 -0.039,-3.39 -14.769,-23.898 -23.476,-33.281 -7.422,-7.969 -8.473,-6.828 -26.641,-5.93 -7.109,0.352 -11.801,0.391 -11.601,2.301 8.359,10.98 19.922,25.121 27.89,36.91 3.129,0.942 14.18,2 22.852,2.07 z m 16.598,-8.941 c 1.289,0 1.64,-2.738 1.64,-8.629 -0.039,-4.5 0.629,-18.359 1.25,-24.379 1.18,-10.902 1.211,-10.902 -3.469,-17.422 -5.711,-6.129 -11.562,-15.16 -18.91,-22.187 -11.051,-12.262 -9.922,-12.973 -9.761,13.238 0.152,20.469 -1.411,20.469 2.73,25.281 2.27,2.61 9.301,11.25 13.949,17.969 7.031,10.192 10.742,16.09 12.571,16.129 z m 105.39,-3.629 22.738,-12.109 -22.769,-23.09 c 0,0 5.699,0.039 7.609,-0.352 14.614,-2.847 13.524,-18.32 -1.207,-29.918 -9.019,-5.711 -40.082,-16.992 -40.082,-16.992 -1.051,13.039 -3.82,25.031 -3.32,39.02 0.242,6.441 0.82,13.441 5.781,19.019 3.399,3.793 9.141,6.024 17.149,0.821 4.222,-3.75 6.41,-8.008 6.41,-8.008 l 7.691,31.609 z m 268.25,-7.859 c -8.91,0 -16.101,-7.223 -16.101,-16.129 0,-8.902 7.191,-16.133 16.101,-16.133 8.942,0 16.129,7.231 16.129,16.133 0,8.906 -7.187,16.129 -16.129,16.129 z m 254.14,-3.781 c 0,0 29.76,-11.219 43.16,-23.481 12.54,-10.43 6.64,-27.66 -5.78,-28.008 -0.9,0 -6.17,0.778 -6.17,0.778 4.18,-6.399 18.28,-22.11 18.28,-22.11 l -22.97,-9.328 c 0,0 -3.71,17.688 -6.56,27.649 -8.01,-18.508 -27.78,-6.481 -29.1,5.039 -3.17,16.921 4.02,33.441 9.14,49.461 z m -254.14,-1.45 c 6.211,0 11.25,-5 11.25,-11.211 0,-6.168 -5.039,-11.211 -11.25,-11.211 -6.18,0 -11.211,5.043 -11.211,11.211 0,6.211 5.031,11.211 11.211,11.211 z M 441.02,917.891 c 8.039,0.078 18.039,-0.27 22.5,-0.551 3.429,-2.61 -3.719,-10.781 -17.5,-25.231 -11.059,-11.597 -12.7,-10 -26.059,-10.121 -22.461,-0.148 -23.051,-0.308 -12.731,11.41 11.321,12.852 17.891,21.133 23.122,23.832 1.757,0.43 5.859,0.622 10.668,0.661 z m 27.378,-11.289 c 2.383,0.468 1.762,-5.582 1.372,-19.301 l -0.668,-23.281 -17.461,-16.79 c -20.231,-18.128 -17.813,-19.261 -17.692,-2.308 0.11,13.437 0,22.887 2.891,28.867 8.82,10.621 18.039,20.039 28.082,30.191 1.558,1.571 2.699,2.469 3.476,2.622 z m 444.18,-5.782 c 4.883,0.391 17.301,-20.859 20.391,-38.629 7.109,-40.671 31.441,-59.921 48.59,-43.601 6.961,9.609 7.742,-0.86 7.39,-5.86 -3.597,-51.48 -61.918,-30.07 -68.558,21.059 -20.512,-13.277 -39.61,13.551 -27.379,13.16 28.867,9.141 20.968,35.672 19.566,53.871 z M 845,900.43 c 2.852,-17.809 -29.262,-48.321 -47.301,-26.91 -9.179,10.89 -0.82,33.32 10.852,19.492 12.929,-9.532 25.429,1.519 36.449,7.418 z M 403.871,876.02 c 6.598,0.109 16.129,-1.141 20.309,-0.551 5.898,-0.59 1.679,-3.438 -11.059,-15.039 -10.973,-10.039 -14.101,-14.489 -15.391,-10.121 -0.582,6.761 -0.308,14.812 -0.269,24.339 0.98,0.942 3.398,1.293 6.41,1.372 z m 149.68,-11.84 19.57,-14.301 -19.41,-17.891 c 17.418,0.864 18.949,-15.468 12.34,-24.566 -4.25,-6.371 -20.781,-13.082 -37.301,-15.781 -9.961,-1.602 -18.051,-2.813 -18.051,-2.813 0,0 -0.39,7.652 -0.66,20.391 -0.59,26.051 1.211,36.293 11.211,41.371 7.148,3.629 19.301,-2.07 22.27,-8.711 0.968,-2.188 3.589,-6.02 3.589,-6.02 l 6.442,28.321 z M 427.5,862.77 c 0.078,0 0.16,0 0.16,-0.04 1.129,-1.519 -2.859,-43.859 -2.859,-43.859 L 396.41,834.84 c 0,0 28.711,27.43 31.09,27.93 z m 751.05,-5 c 20.2,-9.532 35.36,-7.692 48.95,-19.489 11.84,-6.172 8.32,-23.242 -0.31,-27.07 -3.91,-1.172 -10.35,-0.512 -10.35,-0.512 7.14,-8.82 22.81,-20 22.81,-20 l -24.88,-10.39 c 0,0 -3.4,16.8 -6.57,25.941 -4.53,-13.629 -19.88,-13.281 -28.63,-6.871 -6.17,4.723 -8.75,20.621 -5.78,34.371 0.78,3.672 4.76,24.02 4.76,24.02 z m 90.94,-138.04 c 25.67,-36.14 39.96,-66.531 43.95,-111.878 2.38,-27.973 1.56,-33.161 -5.08,-33.122 -4.26,0 -6.09,2.11 -6.06,6.911 0.47,75.898 -93.04,93.75 -127.85,28.16 -20.43,-38.43 -10.35,-89.41 33.52,-158.821 40.35,-65.71 92.34,-115.671 121.91,-186.371 29.3,70.192 88.13,129.301 130.16,196.993 60.74,87.027 39.69,178.789 -35.24,188.437 -34.37,4.41 -72.03,-30.039 -76.4,-65.66 -0.98,-7.969 -2.66,-10.32 -7.03,-9.649 -5.86,0.86 -3.67,16.559 -1.14,37.5 6.96,40.04 21.1,73.469 44.03,107.5 l -114.77,0 z m 362.74,-100.351 c 0.7,0.152 19.06,-25.43 21.68,-35 2.11,-7.82 3.75,-15.899 2.42,-19.301 -1.6,-4.058 -5.47,-0.937 -10.24,5.391 -13.08,17.383 -38.86,11.832 -49.37,-10.821 -7.58,-16.289 -3.36,-37.308 10.7,-61.168 16.84,-31.101 58.01,-87 59.22,-92.109 1.09,4.367 27.31,51.867 48.44,83.359 11.13,19.02 19.45,35.11 19.96,60.231 -2.58,31.25 -39.96,44.141 -56.68,19.879 -5.39,-7.852 -8.59,-10.231 -10.39,-3.82 -1.21,4.289 2.58,13.628 4.57,23.589 1.64,8.321 17.85,29.961 18.24,29.77 l -58.55,0 z M 1045.62,463.441 C 800.27,405.27 600.98,441.25 581.172,448.121 l -15.621,-23.32 c -1.879,-3.942 -3.051,-15.781 -13.672,-19.02 L 535.98,382.07 539.102,378.75 525,366.48 l 3.441,-4.101 -10.281,-14.918 -4.019,0.43 -23.711,-36.051 3.59,-4.031 -54.489,-85.309 737.189,-0.23 c -42.85,80.82 -88.71,160.07 -131.1,241.171 z m -4.45,-10.472 4.38,-12.188 c -12.19,1.489 -26.41,2.231 -40.86,2.891 12.69,2.617 25.43,5.816 36.48,9.297 z M 998.359,442.34 c -23.437,-10.738 -37.5,-23.668 -48.238,-37.301 -13.441,10.391 -30.512,17.77 -50.859,22.422 l 99.097,14.879 z m -414.257,-5.891 10.468,-1.219 c 0,0 -3.519,-2.691 -6.019,-2.14 -1.91,0.43 -4.449,3.359 -4.449,3.359 z m 469.608,-6.058 6.64,-13.161 c -15.97,8.469 -84.26,27.848 -103.631,-40.039 -20.391,27.579 -104.489,67.539 -147.11,-17.421 -12.148,23 -82.73,89.21 -147.109,4.839 -25.391,52.422 -46.602,56.84 -93.16,49.692 33.082,31.789 79.68,-1.332 99.41,-28.403 55.551,46.09 101.988,32.223 142.578,-5.277 52.344,57.039 104.57,43.289 141.293,14.688 25.82,37.972 51.009,49.421 101.089,35.082 z m -428.909,-0.352 c 33.008,-4.449 66.019,-6.488 99.027,-8.129 -19.098,-6.988 -38.668,-13.039 -54.258,-27.14 -11.761,16.48 -28.16,26.011 -44.769,35.269 z m 238.168,-5.269 c -18.008,-8.481 -37.418,-21.25 -53.008,-34.649 -16.801,13.668 -34.063,25.5 -52.891,31.438 34.532,-1.68 72.809,-0.149 105.899,3.211 z m 803.671,-18.481 c 0,-0.117 0,-0.199 0,-0.238 0.04,0.039 0.04,0.121 0,0.238 z m -592.3,-8.48 c 0,0 -6.68,-1.129 -8.79,-1.68 -29.18,-7.77 -22.82,-48.828 7.15,-48.828 2.85,0 9.96,1.14 9.96,1.14 -0.55,-27.82 7.89,-34.613 36.29,-33.05 l 48.16,-86.09 -712.34,3.078 45.23,72.351 c 22.77,-2.66 37.07,10 31.988,29.29 0,0 14.032,-4.25 17.934,-4.29 25.738,-0.16 32.418,39.329 7.738,46.211 -2.738,0.739 -9.648,1.52 -10.512,1.758 11.332,28.199 42.301,11.563 51.211,-0.16 20,16.441 42.11,9.063 51.563,-12.23 0,0 -3.711,2.07 -4.883,2.929 -23.398,17.114 -45.199,-18.359 -22.269,-34.718 2.269,-1.61 7.031,-2.969 7.031,-2.969 0,0 -2.77,-2.313 -5.352,-6.571 -11.871,-20.031 7.27,-44.41 30.43,-38.16 17.781,6.95 18.012,20.352 18.012,35.039 0,0 6.129,-0.468 11.64,-0.55 21.328,-0.231 27.418,27.07 14.379,39.769 -7.031,6.832 -16.25,6.332 -20.82,7.192 24.57,24.14 41.25,7.5 58.59,-3.641 2.621,0.082 30.121,33.09 62.769,0.672 -15.859,4.14 -32.109,-6.141 -32.301,-22.66 0.313,-10.621 7.891,-20 24.332,-20.743 -1.75,-5.347 -2.96,-9.339 -3.039,-14.527 -0.32,-17.351 13.161,-28.133 30.27,-25.43 14.301,1.789 24.84,18.161 19.769,31.719 -2.308,6.129 -5.468,8.391 -5.468,8.391 38.508,-4.84 37.847,43.949 7.886,46.918 -7.07,0.703 -12.539,-2.379 -19.687,-8.949 17.578,36.019 49.809,28.789 61.84,14.07 16.558,11.988 39.328,28.43 66.64,-0.82 -4.492,0.929 -10.82,1.171 -16.332,-0.282 -21.597,-5.738 -21.679,-33.199 -4.57,-41.558 4.801,-2.34 10.742,-3.711 17.07,-3.481 -5.66,-23.078 19.961,-39.57 38.09,-28.508 12.961,7.93 16.401,26.637 2.34,43.668 23.631,1.09 25.981,30.59 12.301,40.903 -10.699,8.117 -23.32,4.258 -32.461,-6.453 -2.969,8.48 20.43,37.929 53.481,16.722 17.5,14.688 34.84,19.18 54.73,4.528 z m 10.31,-23.039 9.26,-16.84 c -6.18,-0.59 -14.96,6.019 -9.26,16.84 z M 965.23,357.699 c 5.79,0 10.469,-4.73 10.469,-10.508 0,-5.781 -4.679,-10.472 -10.469,-10.472 -5.781,0 -10.46,4.691 -10.46,10.472 0,5.778 4.679,10.508 10.46,10.508 z M 532.891,357.07 c 1.41,-5.621 1.988,-11.25 -8.243,-12.34 l 8.243,12.34 z m 1047.189,-4.879 0,-23.48 19.22,0 54.22,-124.84 -52.04,-81.101 -21.4,0 0,-20.821 74.53,0 0,20.821 -21.8,0 66.21,101.101 0,-101.101 -19.02,0 0,-20.821 67.38,0 0,20.821 -24.61,0 0,205.941 24.61,0 0,23.48 -67.38,0 0,-23.48 19.02,0 c 0.47,-20.191 0.59,-37.582 0,-57.77 -9.45,-12.621 -19.29,-28.05 -29.68,-39.921 l -41.84,97.691 27.11,0 0,23.48 -74.53,0 z M 653.32,346.91 c 5.27,0 9.571,-4.289 9.571,-9.57 0,-5.309 -4.301,-9.61 -9.571,-9.61 -5.308,0 -9.609,4.301 -9.609,9.61 0,5.281 4.301,9.57 9.609,9.57 z m 159.77,-2.961 c 5.621,0 10.191,-4.57 10.191,-10.199 0,-5.629 -4.57,-10.16 -10.191,-10.16 -5.629,0 -10.16,4.531 -10.16,10.16 0,5.629 4.531,10.199 10.16,10.199"
         inkscape:connector-curvature="0"
         id="path24"
         style="fill:#000000;fill-opacity:1;fill-rule:nonzero;stroke:none" /></g></g></svg>