<?xml version="1.0" encoding="UTF-8" standalone="no"?>
<!-- Created with Inkscape (http://www.inkscape.org/) -->

<svg
   xmlns:dc="http://purl.org/dc/elements/1.1/"
   xmlns:cc="http://creativecommons.org/ns#"
   xmlns:rdf="http://www.w3.org/1999/02/22-rdf-syntax-ns#"
   xmlns:svg="http://www.w3.org/2000/svg"
   xmlns="http://www.w3.org/2000/svg"
   xmlns:inkscape="http://www.inkscape.org/namespaces/inkscape"
   version="1.1"
   width="225"
   height="315"
   id="svg2"
   xml:space="preserve"><metadata
     id="metadata8"><rdf:RDF><cc:Work
         rdf:about=""><dc:format>image/svg+xml</dc:format><dc:type
           rdf:resource="http://purl.org/dc/dcmitype/StillImage" /></cc:Work></rdf:RDF></metadata><defs
     id="defs6" /><g
     transform="matrix(1.25,0,0,-1.25,0,315)"
     id="g10"><g
       transform="scale(0.1,0.1)"
       id="g12"><path
         d="m 88.9492,2508.38 1615.7808,0 c 47.11,0 85.04,-37.93 85.04,-85.04 l 0,-2324.4103 c 0,-47.1094 -37.93,-85.0391 -85.04,-85.0391 l -1615.7808,0 c -47.1094,0 -85.03904,37.9297 -85.03904,85.0391 l 0,2324.4103 c 0,47.11 37.92964,85.04 85.03904,85.04"
         inkscape:connector-curvature="0"
         id="path14"
         style="fill:#ffffff;fill-opacity:1;fill-rule:nonzero;stroke:none" /><path
         d="m 88.9492,2508.38 1615.7808,0 c 47.11,0 85.04,-37.93 85.04,-85.04 l 0,-2324.4103 c 0,-47.1094 -37.93,-85.0391 -85.04,-85.0391 l -1615.7808,0 c -47.1094,0 -85.03904,37.9297 -85.03904,85.0391 l 0,2324.4103 c 0,47.11 37.92964,85.04 85.03904,85.04 z"
         inkscape:connector-curvature="0"
         id="path16"
         style="fill:none;stroke:#000000;stroke-width:7.9738698;stroke-linecap:butt;stroke-linejoin:miter;stroke-miterlimit:4;stroke-opacity:1;stroke-dasharray:none" /><path
         d="m 957.93,247.801 c 4.3,63.429 0.621,131.519 3.519,183.121 -2,3.668 5.071,13.668 5.461,13.668 -4.211,7.66 -5.621,27.308 -0.308,44.769 C 1008.12,647.52 1083.28,770.609 1160.74,885.41 1223.71,695.691 1025.98,562.602 984.379,396.82 970.512,339.441 972.578,299.359 967.27,247.48 l -9.34,0.321 z M 629.141,245.379 393.91,608.77 445,633.621 686.801,246.66 l -57.66,-1.281 z m 304.3,673.199 c 2.071,-10.43 10.27,-16.058 18.981,-11.289 8.558,4.691 9.527,5 4.219,-3.199 -11.719,-18.168 12.031,-35.75 27.269,-20.16 5.43,5.511 6.32,14.531 1.399,19.101 -5.539,5.199 -6.758,7.848 1.41,3.91 20.581,-8.32 31.951,21.438 11.992,31.481 -5.16,2.578 -15.16,0.277 -18.91,-3.633 -4.571,-4.769 -5.192,-3.09 -3.981,0.59 0.7,2.18 1.211,5.699 2.93,9.922 1.328,3.32 2.301,7.808 2.301,7.808 l -21.012,-0.23 c 0,0 1.68,-4.809 3.402,-8.867 1.637,-3.793 2.258,-6.641 3.039,-8.242 2.821,-5.711 -0.582,-3.598 -6.25,0.621 -8.039,5.98 -18.121,4.3 -23.82,-3.551 -2.109,-4.61 -3.91,-9.461 -2.969,-14.262 z m 30.348,295.622 45.231,1.37 49.73,-137.23 c -39.8,-66.09 -50.55,-140.621 -4.22,-216.168 L 911.129,861.98 c 33.641,113.79 38.832,234.53 52.66,352.22 z m 47.301,-178.55 c 6.06,5.43 6.84,15.27 1.33,21.83 -6.95,8.25 -5.39,8.68 3.95,3.29 13.47,-7.78 26.33,9.06 18.4,23.9 -5.04,9.46 -21.37,11.56 -27.58,3.17 -5.24,-7 -4.65,-0.59 -0.63,8.71 1.45,3.4 3.56,9.84 3.56,9.84 l -21.921,-0.47 c 0,0 2.852,-6.21 4.34,-10.19 4.02,-10.55 4.18,-13.91 -1.988,-7.11 -13.36,11.25 -29.071,3.08 -29.223,-13.05 0.152,-12.38 11.402,-20.35 21.25,-14.57 5.973,3.52 8.672,4.38 1.91,-3.71 -4.648,-7.74 -2.968,-17.54 3.172,-22.15 8.391,-5.12 17.42,-4.8 23.43,0.51 z M 708.16,992.91 c 1.762,1.289 2.391,0.43 1.328,-1.32 -0.937,-1.488 -3.277,-3.602 -5.308,-5.86 -10.231,-11.371 3.011,-25.82 19.492,-23.601 11.207,1.531 17.808,19.18 9.527,26.141 -2.687,1.789 -4.801,2.14 -6.828,4.609 -0.16,0.973 0.309,1.641 1.289,1.25 1.442,-0.59 4.449,-3.008 5.969,-3.438 10.43,-2.812 18.281,1.481 20.941,8.86 1.68,8.479 0.039,17.659 -6.91,22.429 -6.449,4.33 -16.019,3.08 -21.609,-4.3 -5.699,-7.58 -6.481,-0.39 -1.789,10.08 1.718,3.9 2.929,9.49 2.929,9.49 l -20.16,-1.05 c 0,0 1.09,-4.34 2.848,-9.34 4.5,-11.37 7.699,-14.65 2,-8.75 -24.609,14.49 -32.82,-5.23 -33.207,-13.05 -0.781,-14.759 20.707,-23.119 29.488,-12.15 z m 98.52,222.54 36.332,-0.11 C 815.621,1069.59 759.449,947.52 664.922,863.5 l -177.852,0.551 -85.66,59.918 33.078,42.972 C 660.27,943.699 756.41,1055.65 806.68,1215.45 z M 643.051,877.602 c 10.621,4.687 15.07,16.757 8.039,24.847 -6.36,7.301 -7.031,9.571 2.738,3.903 13.082,-7.622 25.742,7.578 19.332,22.457 -4.019,9.261 -16.601,12.113 -25.621,5.82 -7.969,-5.93 -7.809,-3.277 -3.668,6.101 2.07,4.649 3.629,12.071 3.629,12.071 l -22.27,-0.321 c 0,0 1.61,-5.269 3.25,-8.902 3.711,-8.359 5.04,-12.187 3.321,-12.187 -0.821,0 -3.602,2.539 -5.199,4.019 -4.454,4.07 -16.563,4.852 -21.051,0.551 -13.36,-12.731 -5.86,-35 11.129,-30.902 10.941,2.66 13.441,6.839 4.371,-3.469 -11.172,-12.699 6.14,-30.981 22,-23.988 z M 502.5,882.02 c 9.219,4.371 12.27,15 7.109,21.832 -5.199,6.918 -7.73,11.367 1.481,5.16 12.269,-6.172 23.012,2.027 22.859,15.968 -0.16,14.61 -16.57,21.45 -28.679,12.661 -2.032,-1.52 -4.532,-2.852 -5,-2.852 -1.481,0 1.21,7.891 4.14,13.09 1.289,2.223 3.52,6.793 3.52,6.793 l -22.27,0.859 c 0,0 1.25,-6.051 3.012,-10.742 3.519,-9.488 4.418,-12.66 -1.832,-7.269 -16.762,15.671 -34.61,-4.25 -27.578,-21.481 3.75,-9.687 15.187,-9.687 21.91,-4.84 6.129,4.723 3.008,-1.57 -1.172,-6.57 -11.48,-13.668 5.309,-30.617 22.5,-22.609 z m 1017.66,365.43 1.17,-27 -287.97,-239.962 -12.11,18.524 298.91,248.438 z M 449.102,1196.98 c 41.449,29.49 87.578,82.46 133.089,110.07 33.239,-76.44 -44.769,-151.36 -133.089,-110.07 z M 1210,1216.31 c -41.68,143.17 155.27,133.64 130.55,103.24 L 1210,1216.31 z m -936.09,93.52 285.07,232.38 12.969,-19.53 -300.738,-246.37 2.699,33.52 z m 780.93,234.41 c 0.78,-2.42 9.42,-11.68 9.42,-12.5 -2.46,1.84 -17.11,10.04 -24.26,2.07 -2.5,-2.93 -5.66,-9.92 -5.31,-17.15 3.01,-12.93 17.73,-17.5 28.2,-8.63 3.01,2.54 5.59,5.63 6.21,4.53 0.51,-0.93 -1.13,-5.39 -2.46,-8.9 -1.56,-3.64 -7.3,-11.21 -3.12,-11.21 l 20.23,0.03 c 0,0 -0.74,4.73 -3.16,10 -4.54,9.81 -4.34,15.12 1.13,8.05 10.62,-13.75 31.25,-2.3 29.1,14.22 -1.56,11.88 -13.63,18.71 -22.5,13.01 -0.94,-0.59 -3.79,-3.44 -4.22,-3.44 -1.05,-0.04 1.92,4.49 3.87,8.24 6.52,12.54 -3.2,24.14 -18.13,22.89 -4.84,-0.43 -10.11,-3.43 -10.15,-3.86 -5.59,-4.54 -6.53,-12.35 -4.85,-17.35 z m 246.1,116.6 c 28.51,-26.25 57.07,-45.46 85.58,-62.26 l -26.91,-42.5 c -182.42,16.91 -315.08,-55.24 -370.43,-250.74 l -30.078,-5.79 c 11.328,121.96 52.188,242.93 173.048,361.1 l 168.79,0.19 z m -174.81,-29.18 c 0.04,-5.78 10.67,-12.65 8.32,-14.25 -1.09,-0.59 -7.42,4.92 -10.31,5.23 -21.09,2.23 -25.43,-30.51 -4.57,-34.18 4.1,-0.7 12.58,1.84 15.08,3.91 3.36,2.73 5.66,5 6.37,4.72 1.28,-0.43 -1.64,-6.29 -3.95,-10.62 -2.11,-4.02 -5.08,-11.88 -5.08,-11.88 8.36,-1.52 16.41,-1.87 23.95,-0.11 0,0 -2.19,6.83 -4.34,12.07 -2.73,6.64 -3.32,10.86 -1.48,10.43 0.82,-0.2 1.72,-2.27 3.36,-3.71 10.39,-8.91 25.62,-5.12 29.61,8.78 3.75,13.09 -11.92,26.57 -22.82,19.22 -3.79,-2.54 -3.79,-0.62 0,5.12 3.48,5.24 2.62,13.16 -0.5,17.89 -11.45,12.15 -34.15,3.44 -33.64,-12.62 z m 171.92,-38.78 c -0.59,2.92 0.15,2.1 3.24,-1.1 9.61,-10 26.13,-8.44 30.35,4.81 4.18,13.2 -8.63,28.32 -19.84,23.12 -5.78,-2.69 -5.9,-1.72 -2.58,2.62 8.59,11.13 -0.86,25.86 -15.59,25.66 -13.43,-0.11 -21.36,-13.08 -14.84,-24.18 2.69,-4.57 1.83,-5.54 -2.89,-3.24 -13.75,6.68 -26.6,-15.12 -16.52,-28.01 5.93,-7.58 19.64,-8.4 27.5,-0.86 4.14,4.03 4.14,2.11 1.09,-6.21 -2.66,-7.22 -5.59,-13.04 -5.59,-13.04 l 23.83,-0.24 c 0,0 -6.37,12.07 -8.16,20.67 z M 788.398,1300.45 c 0,0 -35.308,98.32 -47.418,145.47 26.168,62.7 61.989,123.44 1.75,213.75 l 146.411,0.39 C 843.91,1557.52 842.93,1298.73 832.301,1298.11 l -43.903,2.34 z m 12.852,115.08 c 0,0 -7.23,9.92 -7.699,17.97 -0.852,5.2 0.469,5.51 3.168,0.23 13.051,-14.41 30.703,-0.5 30.781,12.27 1.48,11.68 -12.191,21.68 -20.941,15.86 -6.168,-4.1 -7.809,-2.93 -2.34,4.69 7.73,10.7 -0.699,24.65 -14.489,24.49 -17.968,-0.2 -24.851,-16.95 -12,-28.95 9.54,-8.86 0.668,-3.63 -6.91,-0.46 -14.691,6.17 -24.34,-8.83 -17.73,-23.95 4.531,-10.43 17.93,-13.13 25.781,-4.69 4.289,4.61 8.238,7.35 5.93,0.35 -1.25,-5.66 -7.813,-17.65 -7.813,-17.65 l 24.262,-0.16 z m 22.66,157.62 c 0,0 -8.68,10.86 -10.16,19.02 -0.512,3.01 1.602,2.23 6.52,-1.99 15.781,-13.52 37.39,10.74 22.742,25.55 -5.043,5.07 -10.203,6.56 -16.102,3.47 -7.34,-3.82 -6.75,-1.95 -3.082,2 5.391,5.82 5,16.44 -0.777,21.6 -16.02,14.29 -41.371,-7 -26.492,-22.23 6.492,-6.64 3.402,-5.78 -3.75,-1.52 -13.469,8.08 -28.399,-14.03 -18.278,-27 12.028,-10.15 21.02,-5.15 29.34,1.22 1.789,0.93 3.359,1.36 3.359,0.58 0,-1.44 -8.281,-21.01 -8.281,-21.01 l 24.961,0.31 z m -192.031,61.25 c -8.91,0.58 -15.32,84.06 -4.379,110.47 23.281,111.48 94.34,192.69 138.551,260.97 70.937,101.68 62.109,270.55 65.121,263.83 l 10.078,-1.17 c 0,0 -7.809,-99.02 -3.398,-143.75 4.57,-39.34 3.558,-41.76 0.738,-45.66 -0.738,-3.68 0.39,-14.42 -0.43,-18.09 -31.558,-145.62 -106.91,-295.39 -184.719,-408.44 l -21.562,-18.16 z m 729.411,254.41 -239.57,377.74 57.58,5.19 c 21.36,-33.86 229.49,-356.6 229.49,-356.6"
         inkscape:connector-curvature="0"
         id="path18"
         style="fill:#d40000;fill-opacity:1;fill-rule:nonzero;stroke:none" /><path
         d="m 374.879,238.621 c 27.23,99.879 -46.559,332.149 -92.688,362.5 54.098,2.301 119.137,1.328 117.11,6.359 0,0 230,-361.789 228.121,-363.71 -1.762,-1.79 -252.543,-5.149 -252.543,-5.149 z m 932.311,566.641 c -55.74,7.886 -33.79,54.179 2.07,58.976 -4.69,-0.777 3.83,23.012 32.73,32.621 6.56,11.911 11.72,32.231 17.74,41.68 -17.35,-5.629 -38.4,-20.269 -117.11,-8.711 6.87,37.262 82.15,43.633 109.29,37.891 15.71,-3.668 31.18,-27.028 35.94,-27.5 48.32,8.051 109.85,-35.699 91.21,-80.078 -2.85,-6.332 -10.23,7.539 -26.48,13.437 -52.58,19.063 -56.29,47.5 -68.36,60.274 -4.42,0.82 -27.66,-45.192 -27.66,-45.192 l 7.27,-31.289 c 12.62,1.168 68.67,-33.48 -1.13,-56.922 -19.3,-66.519 -55.63,-19.57 -55.51,4.813 z m 132.07,296.948 c -2.97,3.01 2.34,23.71 9.45,35.63 3.83,6.44 12.66,10.78 17.81,9.84 9.22,-1.6 7.82,-15.04 -4.41,-54.3 -0.51,-5.66 -13.01,-6.25 -22.85,8.83 z M 329.141,1377.25 c -15.313,0.04 -1.563,41.64 7.808,54.88 3.09,4.07 15.321,-4.65 15.942,-10.7 1.129,-10.78 -15.469,-48.48 -23.75,-44.18 z m -10.86,282.85 c 18.668,-4.49 48.129,-23.28 62.231,-33.59 17.5,-13.09 12.726,-38.75 26.758,-41.02 9.449,4.69 26.789,46.68 26.789,46.68 0,0 4.382,21.6 -7.969,28.24 -30.699,16.57 -30.149,34.42 -28.238,36.02 9.136,23.59 27.269,19.41 37.07,20.7 0.199,12.93 -0.231,40.24 26.527,37.39 23.391,-2.19 25.699,-35.63 15.852,-35.94 -0.192,0.58 44.219,6.37 43.789,-22.93 -0.231,-15.9 -26.559,-36.21 -34.762,-28.83 0,0 4.371,-31.68 -35.43,-42.54 -9.296,-9.45 -16.918,-49.73 -16.918,-46.13 24.032,21.64 61.641,26.72 120.942,18.94 -36.762,-68.12 -138.363,-36.25 -146.293,-23.04 -51.129,15.43 -99.059,35.5 -90.348,86.05 z m 437.66,163.28 c 54.098,-4.92 113.239,12.07 158.2,3.09 5.121,-0.7 10.699,-8.28 13.789,-9.96 23.242,-12.7 47.582,-8.75 84.96,5.43 9.26,3.47 180.7,2.15 180.7,2.15 39.07,-57.7 108.48,-166.21 110,-162.54 0,0 -95.04,1.09 -138.82,-1.53 -30.79,-1.79 -12.7,-6.01 -34.07,-6.95 -149.841,-112.5 -178.36,-355.66 -178.36,-355.66 0,0 47.621,12.54 60.08,-0.63 58.91,172.31 170.7,250.98 326.64,235.59 72.07,-7.15 158.05,-78.01 158.05,-78.01 l -154.22,-125.47 c -119.45,60.27 -170.62,-117.34 -134.37,-117.81 l 310.5,253.83 c 0,0 5.32,-20.71 4.81,-21.41 -22.15,-29.02 -392.35,-329.53 -392.35,-329.53 l -16.25,17.97 c 0,0 -10.23,-9.06 -15.58,-15.12 -0.55,-9.84 2.93,-18.16 10.39,-25.86 -73.36,-58.87 -75.78,-166.831 -21.72,-225.78 0,0 -23.94,-1.719 -26.48,-2.149 -30.47,-5.191 -62,144.999 -1.57,214.919 -30.47,59.77 -49.25,141.06 -53.08,144.81 0.82,-9.57 -48.088,-6.41 -48.088,-6.41 -3.75,-121.4 -16.403,-240.471 -45.582,-355.19 l 224.68,-4.808 -95.66,-166.012 c 0,0 -107.31,2.691 -153.56,5.93 -48.281,28.089 -76.089,6.718 -121.402,-3.668 -64.488,-1.872 -159.379,1.097 -159.379,0.238 -32.179,63.898 -66.789,110.93 -113.789,165.738 -5.969,9.922 190.82,3.793 190.82,3.793 0,0 98.399,148.829 116.329,190.859 13.992,32.81 45.351,152.22 45.351,152.22 1.449,-6.21 -17.851,31.06 -62.851,30.24 C 746.84,988.379 452.969,905.059 276.129,1064.24 l -1.641,28.75 389.692,316.1 17.3,-20 c -3.71,2.96 -239.21,-193.01 -235.308,-191.76 69.808,-36.56 150.547,-6.99 141.168,112.93 55.32,40 104.262,86.56 152.43,134.1 1.011,1.87 53.71,-118.2 52.421,-141.33 30.309,10.2 48.239,-11.13 47.688,-7.5 -10.899,69.45 49.891,332.74 51.062,362.97 -33.793,2.73 -78.562,1.48 -148.793,4.26 56.403,-109.18 36.801,-183.13 -42.027,-250.43 l -16.531,20.74 c 6.719,-3.75 115.199,90.16 27.859,230.43 -3.988,-0.35 -46.058,3.79 -46.058,3.79 0,0 86.211,136.76 90.55,156.09 z m 418.749,451.29 c 0,0 245.93,5.9 246.01,-1.29 -7.85,-132.15 22.97,-252.69 97.27,-364.18 0,0 -108.91,3.87 -106.92,2.5"
         inkscape:connector-curvature="0"
         id="path20"
         style="fill:#e2cf00;fill-opacity:1;fill-rule:nonzero;stroke:none" /><path
         d="m 1532.46,2283.27 -1278.671,1.56 7.973,-2052.228 1277.028,0 -6.33,2050.668 z m -116.99,-8.17 c -0.08,0.12 -16.45,-217.07 96.87,-359.33 -69.22,10.46 -108.86,-0.16 -149.18,-28.64 l 5.51,-5.66 c 55.51,34.1 102.54,25.12 150.74,19.8 l -1.29,-279.45 c -0.35,-13.55 -56.32,-7.5 -91.75,19.14 -16.8,9.92 -38.48,30.74 -48.21,46.37 -2.93,4.76 -6.05,9.45 -6.91,10.47 -3.24,3.71 -23.44,41.33 -60.51,112.58 -18.83,36.21 -43.75,85.58 -63.98,123.86 -13.09,24.81 -37.46,71.6 -39.18,75.35 -3.56,7.78 -30.08,59.5 -40.39,78.32 -27.27,49.73 -71.29,136.45 -86.99,167.54 -3.44,8.09 -8.75,11.8 0.7,11.53 2.11,-0.04 4.22,-0.16 5.43,-0.47 1.64,-0.82 3.67,2.89 3.67,2.89 l 325.47,5.7 z M 276.949,1100.02 l -0.82,21.96 371.601,306.48 11.84,-15.27 -382.621,-313.17 z m 359.031,536.8 c -1.492,-0.55 -3.128,-1.13 -4.929,-1.68 -9.531,42.54 -4.102,99.41 7.148,142.15 16.41,59.34 47,106.91 81.102,154.76 77.89,109.22 112.379,191.53 110.969,338.25 l 11.14,-1.17 c -0.469,-23.21 -3.519,-40.63 -4.422,-71.45 -1.398,-33.05 -0.859,-58.16 2.66,-90.43 1.723,-15.86 2.774,-26.13 0.082,-28.2 -1.25,-1.02 -2.429,-6.49 -1.25,-8.52 -0.16,-4.41 -0.781,-13.2 -0.781,-13.2 C 819.84,1969.98 724.18,1746.04 635.98,1636.82 z m 46.442,-198.59 -19.692,24.18 c 0,0 -15.109,12.18 -1.519,26.01 39.34,39.88 39.609,90.59 1.559,136.17 -2.54,5.82 11.839,35.08 11.839,35.08 l 29.922,-0.51 c 46.719,-56.83 59.449,-157.22 -22.109,-220.93 z m 27.539,225.5 c 0.937,3.87 -44.371,2.39 -44.371,2.39 28.121,41.95 52.07,85.08 75.582,128.36 36.488,65.47 87.066,180.15 102.93,263.32 11.796,-97.27 28.988,-241.6 112.187,-247.31 27.301,-1.83 58.911,16.84 64.061,13.75 l 172.89,1.37 c 35.43,-71.88 73.52,-118.2 118.64,-167.38 32.42,-18.48 71.95,-33.09 110.15,-42.58 21.72,-5.43 23.79,-1.84 66.6,-7.93 11.29,-1.6 28.52,3.16 28.36,3.16 -34.22,-26.99 -73.67,-19.33 -117.15,-7.77 -2.42,0.62 -4.96,1.41 -7.5,2.3 l -32.81,-49.37 c -73.05,17.3 -307.54,5.04 -369.37,-249.88 0,0 6.36,-3.25 4.879,-1.49 49.101,221.29 256.481,265.39 355.351,243.36 l -8.51,-13.01 c -164.03,20.08 -297.62,-82.54 -329.42,-228 l 3.16,-2.89 c 61.57,220 320.36,301.36 480.79,148.9 l 29.41,20.82 -0.94,-28.2 -394.45,-330.47 -15.78,16.33 c 0,0 -2.77,-2.11 -5.94,-4.73 -10.16,-8.48 -14.18,-10.55 -11.33,-15.27 2.85,-4.73 13.91,-15.39 14.42,-16.6 -65.43,-53.28 -86.18,-156.101 -24.03,-228.129 6.96,-7.621 5.67,-9.652 4.42,-1.051 -55.78,60.661 -48.71,168 20.82,218.86 l 14.02,-18.36 c -30.62,-67.218 -46.95,-172.07 33.56,-181.128 28.82,-77.262 -4.34,-168.872 -41.37,-230.231 C 1079.96,584.16 1032.38,525.379 1002.7,448.34 988.281,416.23 965.309,320.879 966.52,248.07 l -8.668,0.078 c 0,29.731 1.988,64.961 2.226,87.5 1.211,109.84 1.051,103.321 3.512,106.133 0.82,0.899 3.129,1.879 3.359,2.66 0.321,1.168 -1.789,3.438 -2.648,6.129 -0.86,2.731 -2.313,7.578 -2.153,11.641 0.153,4.059 3.942,10 3.243,11.328 -17.34,60.621 -18.75,169.57 -74.653,219.609 -27.418,23.551 -63.828,24.493 -110.937,5.192 -104.063,-0.192 -88.629,-5.539 -172.653,-0.738 -34.769,63.628 -76.918,125.628 -122.539,171.597 -21.289,23.75 -50.937,36.762 -78.828,54.031 11.168,21.168 23.867,36.68 37.739,46.75 2.89,4.11 4.839,8.52 8.55,12 283.321,-27.23 344.77,247.15 331.801,240.19 l -2.5,-2.19 C 703.91,937.289 428.281,947.602 289.691,1069.79 c 0,0 -19.57,-16.99 -19.613,1.68 -0.078,16.95 6.133,21.87 6.133,21.87 l 388.91,317.11 c 7.109,-4.53 14.758,-19.57 17.93,-17.89 7.179,3.79 17.73,11.45 17.418,16.02 -0.27,3.47 -14.219,25.51 -14.219,25.51 104.02,107.69 57.109,155.82 23.711,229.64 z m 147.418,605.36 c 1.883,0.04 3.641,-0.86 4.961,-2.93 2.39,-3.75 -7.07,-25.59 -12.93,-29.46 -5.5,-3.63 -5.89,0.59 -1.91,21.72 1.172,6.21 5.738,10.67 9.879,10.67 z m 570.631,-0.36 90.11,0 0.67,-345.97 c -67.34,94.61 -101.45,203.59 -90.78,345.97 z m -546.451,-0.85 c 2.23,0.11 4.222,-0.51 4.89,-2.15 2.301,-5.82 -10.898,-31.02 -27.269,-51.92 -8.481,-10.82 -12.731,-13.98 -15.391,-11.4 -2.23,4.96 -2.148,10.66 5.621,19.68 6.449,7.43 17.43,24.81 21.961,34.54 1.91,5.7 3.859,10.85 10.188,11.25 z m 92.5,-1.22 c 2.621,-0.03 5.32,0 6.062,-1.25 15.738,-32.07 45.349,-61.01 75.659,-76.44 4.42,-2.54 2.34,-8.83 3.83,-13.24 -34.06,5.07 -78.712,53.28 -90.661,88.47 -0.078,2.58 2.5,2.46 5.11,2.46 z m 53.211,0 c 6.79,-6.87 17.46,-15.19 19.84,-23.04 1.48,-4.81 2.54,-10.32 1.52,-12.93 -5.93,-3.71 -35.31,30.39 -34.18,34.37 3.75,2.46 8.44,2.97 12.82,1.6 z m -127.43,0.51 c 2.89,-0.12 7.308,0.04 7.93,-2.11 3.679,-14.88 -30.27,-72.81 -55.04,-89.26 -8.82,-5.82 -9.371,-4.29 -8.671,5.51 0.472,6.57 1.101,6.06 10.16,14.69 12.89,12.3 26.953,31.33 34.73,48.16 9.922,21.61 7.5,22.97 10.891,23.01 z m 23.051,-0.23 c 3.199,0 6.25,-1.1 7.07,-2.54 1.129,-1.95 -0.391,-5.08 -1.441,-8.99 -11.18,-31.68 -38.989,-77.26 -71.68,-103.12 -12.699,-9.81 -14.852,-9.73 -15.789,0.39 -0.5,5.86 2.187,7.58 8.168,11.72 27.691,19.22 52.621,52.54 63.121,86.6 2.07,6.64 1.289,12.62 4.89,14.61 1.68,0.94 3.711,1.33 5.661,1.33 z m 171.989,-54.89 c 1.33,-2.26 10.82,-17.1 3.05,-11.52 -3.2,2.62 -8.98,9.22 -18.2,19.69 -21.8,24.76 -22.46,23.2 -22.03,29.37 0.19,8.05 -5.55,21.21 6.87,17.78 12.19,-14.34 19.84,-37.42 30.31,-55.32 z m -99.29,54.38 c 2.461,0.08 5.39,-0.39 7.81,-0.9 14.37,-26.99 49.41,-50.7 49.3,-50.58 0,0 0.85,-11.72 -0.4,-13.83 -0.74,-3.6 -55.698,38.16 -61.788,63.12 0.578,1.64 2.578,2.15 5.078,2.19 z m -39.11,-0.47 c 12.899,-23.71 39.5,-77.5 102.07,-99.22 4.5,-0.97 9.26,-13.79 5.83,-17.3 -34.3,9.92 -96.489,43.51 -117.618,116.17 2.027,1.95 7.5,1.64 9.718,0.35 z m -16.789,-4.61 c -2.152,-0.04 29.528,-91.44 119.759,-118.71 7.82,-2.46 12.39,-5.82 11.88,-10.47 -0.63,-5.82 -0.43,-6.52 -9.1,-2.19 -24.65,12.86 -59.73,18.91 -89.031,3.99 -4.57,-2.31 -9.219,-8.63 -5.539,-12.66 2.11,-2.03 7.262,-0.51 13.86,2.07 34.14,13.28 86.33,5.47 95.55,-15.43 6.56,-14.8 7.66,-25.7 4.1,-27.54 -2.73,-1.36 -7.38,3.6 -15.51,10.75 -25.97,22.77 -56.99,29.1 -81.68,7.22 -5.308,-4.72 -10.621,-3.9 -12.46,-5.86 -1.829,-1.87 0.32,-6.13 1.839,-10.27 1.602,-4.34 1.641,-5.55 0.082,-9.22 -2.152,-5 -2.23,-11.44 -1.992,-16.21 0.539,-11.68 8.281,-21.72 30.461,-37.11 17.31,-11.95 30.82,-18.71 9.77,-1.64 -36.328,29.41 -42.891,41.41 -19.379,31.21 23.519,-9.45 56.139,0.04 79.219,17.62 7.86,0.15 12.54,1.52 16.68,-1.49 17.23,-40.43 31.29,-94.21 54.18,-146.36 -27.34,-30.9 -122.5,-106.53 -190.392,-103.83 -58.59,2.34 -79.258,98.24 -92.218,151.21 -4.379,22.46 -9.34,45.27 -8.75,76.95 0,0 1.05,0.86 2.57,0.55 9.851,-1.84 26.719,-3.13 35.32,-1.13 15.578,3.67 18.711,6.44 19.641,4.14 1.058,-2.7 -5.43,-8.79 -16.789,-16.56 -4.922,-3.4 -19.301,-10.32 -17.782,-11.33 3.442,-2.31 20.821,6.95 23.75,9.41 4.54,3.87 7.661,4.1 9.809,1.99 2.582,-2.5 3.082,0.16 -5.309,-20.7 -9.261,-23.01 -8.402,-25.08 9.68,-39.26 6.289,-4.92 12.039,-9.84 13.399,-11.99 1.722,-2.81 2.89,-6.17 3.711,-7.23 3.05,-4.1 1.179,2.5 -0.661,12.93 -2.109,7.74 -9.687,15.43 -15.039,19.18 -9.879,6.84 -8.359,13.56 -0.199,36.92 24.109,68.86 17.969,99.57 -8.551,114.53 -11.949,6.76 -45.429,4.96 -55.98,-3.87 -5.192,-4.33 -4.488,4.18 -3.668,4.77 63.598,43.71 78.519,85.39 94.769,125.62 z m 122.729,-33.75 c 18.05,-17.89 40.51,-42.22 54.06,-59.53 7.43,-9.22 11.33,-18.71 17.23,-28.4 1.13,-1.76 2.27,-3.75 1.45,-4.57 -0.28,-0.35 -2.89,1.17 -4.3,2.23 -13.24,9.96 -67.85,72.19 -67.85,72.19 -2.54,10.19 -4.26,13.67 -0.59,18.08 z m 10.78,-42.22 c 0,0 47.35,-51.65 74.46,-77.08 5.31,-11.17 15.54,-27.3 15.27,-30.03 -0.12,-1.22 -5.78,3.16 -5.78,3.16 -29.96,27.62 -57.62,58.63 -86.37,88.05 0.24,-0.16 -2.3,12.15 -2.34,17.11 0.66,2.46 3.55,-0.24 4.76,-1.21 z m 102.7,-132.43 c 6.37,-10.35 11.01,-19.65 14.06,-25.74 5.04,-9.65 3.36,-9.92 -1.09,-6.33 -33.87,27.7 -62.23,61.45 -94.1,92.35 -4.15,4.25 -12.43,13.75 -12.43,13.75 0.28,-0.35 -10.39,22.26 -3.67,21.83 5.24,-2.07 8.67,-7.77 12.07,-11.4 16.72,-17.89 48.6,-48.68 85.16,-84.46 z m -295.388,73.87 c 13.937,0.39 27.687,-3.2 34.648,-11.76 6.32,-7.81 8.86,-20.11 5.352,-23.71 -2.192,-2.22 -9.922,4.06 -9.922,4.06 -32.891,18.44 -44.219,9.57 -62.07,4.14 -2.54,-0.78 -5.239,6.1 -2,12.9 6.57,11.28 23.171,14.02 33.992,14.37 z m 206.948,-17.5 c 35.16,-35.27 70.9,-74.45 108.99,-104.77 5.31,-4.53 8.98,-7.46 11.4,-9.92 5.04,-9.96 16.6,-33.67 16.6,-33.67 -40.82,28.52 -132.69,126.88 -131.68,126.21 0.9,-0.47 -7.69,17.97 -5.31,22.15 z m -68.87,-5.82 c 6.41,0.04 13.48,-1.95 19.03,-4.18 17.73,-7.03 28.86,-14.49 10.5,-11.99 -25.54,3.47 -34.25,3.63 -43.63,2.15 -17.342,-2.82 -18.709,-4.73 -20.228,-2 -3.992,7.27 15.078,15.82 34.328,16.02 z m -145,-2.07 c 6.371,0.04 13.359,-1.37 20.16,-4.38 21.68,-9.45 25.469,-15.62 7.031,-12.65 -9.57,1.52 -27.109,1.37 -39.691,-1.84 -3.981,-1.05 -8.391,-3.36 -9.41,-3.67 -4.45,-1.44 -5.7,1.88 -3.789,7.46 3.281,9.65 13.48,15 25.699,15.08 z m 156.84,-27.66 4.49,-0.31 c -5.58,-31.64 -37.19,-28.55 -45.701,-1.41 l 4.453,0.12 c 16.678,-25.97 29.098,-10.7 36.758,1.6 z m 17.62,-1.64 c 14.61,0.16 13.67,-8.59 -1.53,-14.49 -11.68,-4.49 -13,-3.71 -8.71,5.04 4.1,8.4 3.67,9.37 10.24,9.45 z M 897.578,2071 c 1.402,-28.52 -38.316,-33.75 -40.738,-2.66 l 3.75,0.2 c 13.039,-24.45 28.082,-9.69 32.769,2.46 l 4.219,0 z m 17.652,-3.91 c 4.5,-3.04 1.719,-7.26 -8.039,-13.24 -8.832,-5.47 -11.101,1.17 -3.832,10.35 3.051,2.97 8.051,5.39 11.871,2.89 z m 68.911,0.04 c 1.757,0.55 5.859,-7.15 2.339,-8.98 -2.07,-1.1 -5.152,2.03 -5.5,4.37 -0.281,1.84 0.899,3.91 3.161,4.61 z m 118.979,-1.75 c 26.53,-29.22 53.21,-58.56 131.26,-122.11 0,0 11.05,-19.61 13.43,-27.31 -1.87,-2.34 -2.89,-2.07 -8.36,0.67 -50.9,39.29 -98.24,87.1 -135.31,131.52 -1.76,6.29 -5.7,12.3 -1.02,17.23 z m -252.768,-2.93 c 3.007,0.11 7.269,-6.65 4.918,-10.67 -1.95,-1.52 -4.961,0.82 -6.25,2.7 -1.29,1.83 -1.25,5.19 -0.469,6.68 0.469,0.86 1.097,1.29 1.801,1.29 z m 263.868,-40.43 c -0.24,1.01 123.28,-124.18 139.14,-121.8 7.38,-4.34 25.7,-39.92 25.7,-39.92 0.55,-1.14 0.47,-3.21 -2.54,-1.72 -20.86,10.31 -108.16,82.73 -152.77,136.68 -3.28,7.85 -7.23,17.81 -9.53,26.76 z m -146.841,-18.4 c 21.57,-10.39 12.269,-31.76 -10.43,-18.17 -17.929,10.86 -32.148,11.88 -32.027,2.46 0.039,-3.98 4.918,-9.1 9.648,-9.06 8.871,-0.55 16.879,-3.79 25.59,-5.7 13.551,-2.93 23.711,0.7 27.11,8.94 5.781,13.95 -7.93,29.22 -16.961,28.4 -9.059,-0.78 -6.758,-5.11 -2.93,-6.87 z m 170.551,-34.22 c -1.52,1.33 61.41,-67.62 147.19,-124.57 3.36,-3.83 11.64,-23.71 12.97,-26.41 -0.36,-1.87 -2.27,-0.04 -2.27,-0.04 -43.32,25.04 -100.51,74.73 -154.69,131.1 0,0 -5.19,12.46 -6.79,20.58 1.17,0.55 2.46,-0.15 3.59,-0.66 z M 995,1944.59 c -1.949,-0.27 -4.57,-3.24 -7.77,-5 -6.609,-3.63 -8.71,-4.61 -24.929,0.24 -8.781,2.65 -10.231,2.46 -15.461,-1.41 -4.61,-3.4 -7.149,-3.98 -12.27,-1.68 -9.218,4.14 -13.48,1.14 -22.031,-1.83 -8.129,-2.97 -10.898,0.62 -18.238,2.3 -0.942,-0.04 -1.371,-29.53 -0.391,-30.47 0.309,-0.35 7.61,4.46 11.711,6.53 7.109,3.63 6.098,3.04 16.41,2.61 15.309,-2.61 30.43,-1.72 40.668,2.27 12.731,3.63 22.692,2.93 31.481,-4.26 5.351,-4.37 12.42,-3.67 8.28,4.38 -1.44,2.81 -4.651,13.04 -4.261,16.83 0.551,5.7 -0.699,9.38 -2.808,9.49 -0.121,0 -0.27,0 -0.391,0 z m 163.16,-23 c 28.99,-27.78 64.69,-70.16 148.68,-119.3 4.37,-7.66 10.31,-17.85 14.06,-25.78 0.31,-2.23 -0.2,-4.18 -2.35,-3.44 -51.91,32.93 -80.78,48.91 -152.73,119.81 -4.49,7.18 -9.26,19.45 -12.93,29.41 0.78,2.81 4.1,0 5.27,-0.7 z m -12.22,-10.63 32.15,-60.31 -108.21,0.23 c 27.5,16.41 53.75,38.25 76.06,60.08 z m -179.299,-1.37 c -17.77,-7.03 -20.469,-8.51 -38.09,-4.21 -10.27,2.5 -7.461,-3.44 -2.18,-5.9 13.277,-6.25 32.539,-1.84 39.68,3.08 4.687,3.01 7.929,9.96 0.59,7.03 z M 948.398,1891 c -18.628,-0.27 -36.168,-6.76 -37.457,-14.3 -0.281,-1.48 1.25,-3.12 4.137,-1.36 12.621,7.57 43.902,10.04 67.582,1.52 3.82,-1.41 4.531,0.98 0.539,4.26 -8.859,7.3 -22.07,10.04 -34.801,9.88 z m 236.092,-25.78 c 35.04,-32.31 68.83,-62.03 144.22,-105.31 5.39,-11.84 13.24,-25.98 14.65,-27.23 -70.63,34.3 -147.62,101.95 -147.62,101.95 0,0 -12.11,21.57 -14.92,30.82 -0.23,3.13 2.7,0.55 3.67,-0.23 z m 24.14,-50.35 c 0,0 64.49,-54.53 137.97,-91.57 3.01,-2.85 10.39,-20.39 12.81,-22.26 2.43,-1.91 -2.93,-1.91 -8.2,0.82 -38.48,17.73 -120.98,74.45 -120.98,74.45 -7.93,12.97 -19.25,26.45 -21.6,38.56 z M 436.949,1586.98 c 5.903,12.61 11.922,26.64 15.821,38.12 17.539,-0.19 26.179,6.37 32.429,14.3 8.86,0.23 15.66,0.19 27.813,0.55 -0.391,11.99 0.148,28.94 0.148,28.94 12.27,12.66 20.59,27.27 1.57,49.61 0,0 -0.781,10.39 -1.058,28.16 -8.793,1.41 -28.442,0.51 -28.442,0.51 -15.89,22.38 -44.14,16.72 -52.691,0 0,0 -12.66,-0.7 -21.367,-0.74 -0.152,-4.73 -1.684,-25.7 -1.684,-25.7 0,0 -37.066,-25.28 1.41,-55.08 l -0.546,-25.04 c 7.226,-0.59 12.378,-0.12 21.757,-1.91 0,0 -14.687,-34.15 -24.379,-50.4 -3.32,-0.85 -2.531,1.06 -6.519,12.39 -4.801,13.36 -15.699,27.97 -24.922,35.15 -12.539,9.65 -29.648,12.66 -41.598,21.02 -11.531,8.09 -19.652,18.52 -23.32,16.6 -1.172,-4.06 -2.5,-27.38 1.828,-42.38 6.102,-24.69 41.571,-40.39 71.211,-52.19 2.27,-1.48 4.301,-3.71 4.301,-4.49 0.078,-4.1 -3.871,-2.85 -13.59,-1.88 -14.691,1.49 -20.781,-2.54 -25.941,-15.07 -1.52,-3.13 -5.2,-8.44 -8.16,-11.96 -2.969,-3.55 -6.098,-6.99 -6.532,-8.47 -0.429,-1.53 -3.468,-9.14 -6.476,-15.51 -1.883,-3.91 -4.961,-8.01 -5.203,-13.79 -0.7,-17.7 -0.969,-41.45 1.679,-56.41 1.961,-10.97 15.864,-17.3 20.633,-18.2 7.34,-1.37 8.707,-8.79 7.539,-14.88 -5.672,-30.04 -22.93,-48.44 -28.48,-38.56 -1.481,2.58 -3.008,14.85 -3.399,14.69 -0.269,-0.08 -2.929,-10.43 -1.91,-14.61 1.09,-4.53 6.867,-7.89 12.578,-5.82 8.43,3.09 15.071,11.45 20.352,30.51 2.148,7.81 4.179,12.15 7.808,12.73 6.68,-0.47 17.11,-14.26 17.11,-14.26 -34.688,-28.9 -101.489,-81.4 -101.489,-81.4 l -2.5,947.22 549.809,-1.09 c 3.082,-75.08 -6.059,-138.24 -33.008,-205.16 -31.953,-72.07 -81.562,-125.62 -119.492,-191.91 -45.82,-80.08 -60.469,-163.16 -44.879,-246.68 -46.801,-61.29 -86.25,-90.7 -123.68,-119.18 0,0 -28.082,29.53 -43.671,46.06 0,0 6.57,0.5 14.261,0.82 35.59,4.02 74.059,9.06 88.95,46.05 2.101,4.14 1.21,5.94 -1.29,6.52 -27.851,-3.86 -52.031,0.04 -67.851,-1.05 -38.598,-2.73 -54.93,-16.13 -54.93,-16.13 z m 4.262,-27.23 c 0,0 -44.691,21.21 -48.012,21.84 -19.488,3.51 -66.48,28 -74.41,44.64 -1.019,2.15 -3.629,32.54 -4.449,38.75 0.269,1.96 1.051,1.92 3,0.47 5.039,-3.43 24.5,-16.13 31.68,-19.61 29.691,-14.45 41.179,-24.72 48.441,-46.4 1.84,-5.43 3.75,-11.1 4.809,-12.27 2.378,-2.58 3.39,-2.34 6.359,-0.08 12.699,16.45 18.672,30.16 24.57,47.86 0.75,1.95 2.422,3.98 1.449,6.83 -2.347,7.77 -8.046,17.89 -2.226,25.51 -18.594,-0.86 -36.371,12.73 -34.102,26.37 4.961,25.19 15.66,20.66 35.7,24.33 -2.301,58.32 52.269,44.18 52.152,3.56 59.957,-5.08 31.637,-60.55 -3.203,-52.03 13.832,-31.53 -27.699,-43.36 -33.52,-38.01 -2.34,-10.16 -18.16,-42.97 -21.519,-52.7 44.41,31.49 115.941,17.5 126.289,19.53 -25.821,-54.02 -110.239,-40.86 -113.008,-38.59 z m 800.239,198.79 c 11.28,-8.67 106.99,-68.52 124.64,-69.88 0,0 8.48,-9.5 15.47,-18.13 6.49,-8.05 8.87,-9.3 9.65,-10.94 0.74,-1.6 -2.46,-1.52 -3.01,-1.48 -43.04,18.71 -86.83,38.44 -124.06,69.53 -5.04,4.26 -6.17,6.21 -8.63,9.45 -3.28,4.34 -13.01,19.85 -14.06,21.45 z m 31.71,-48.28 c 43.79,-24.57 80.98,-48.44 120.86,-61.25 5.71,-2.15 8.6,-2.27 11.45,-4.3 2.81,-1.99 15,-9.49 17.85,-11.17 18.2,-10.66 20.08,-10.2 15.55,-11.95 -5,-2 -36.96,7.34 -63.95,17.3 -47.89,17.74 -64.84,27.77 -82.15,43.36 -3.9,4.06 -22.11,25.82 -19.61,28.01 z M 400.59,1573.11 c 3.672,0.08 9.57,-2.23 15.738,-6.95 6.563,-5.04 22.731,-15.59 29.371,-18.44 3.442,-1.49 4.5,-1.84 4.5,-1.84 l 43.039,-48.86 -110.816,-90.08 c 0,0 -9.024,9.18 -11.871,12.26 -2.699,2.89 -1.922,5.32 1.437,8.64 2.742,2.65 2.934,8.36 2.461,11.21 -0.66,4.14 -0.539,8.86 4.731,12.77 4.3,3.13 4.961,8.63 4.73,10.2 -0.16,1.21 2.34,5.23 6.012,7.93 7.777,5.66 10.117,12.57 7.5,20.7 -1.094,3.4 -1.684,4.3 2.777,7.26 7.891,5.28 9.879,10.28 10.461,17.97 0.121,1.21 -0.23,2.5 -0.39,3.48 -1.559,8.2 5.671,6.13 11.609,-4.14 3.242,-5.63 4.172,-14.84 5.781,-25.31 1.91,-12.35 3.238,-15.71 3.899,-13.95 3.832,9.96 -0.7,47.38 -12.071,52.46 -16.636,7.42 -30.539,22.54 -26.367,28.48 1.449,2.07 1.68,1.37 11.84,-3.32 5.937,-2.74 11.449,-4.96 12.269,-5 11.719,-0.39 4.61,4.65 0.782,5.19 -4.571,0.63 -18.321,8.99 -19.922,11.92 -2.699,4.88 -1.211,7.34 2.5,7.42 z m -28.36,-6.45 c 10.821,0.12 12.891,-2.77 13,-12.11 0.079,-5.5 2.149,-9.72 10.75,-20.7 3.508,-4.45 5.899,-7.89 5.661,-9.65 -0.391,-2.89 -1.442,0.12 -13.36,1.53 -4.261,0.5 -6.402,0.54 -7.89,-1.64 -4.102,-6.1 -12.813,0.27 -18.161,9.25 -12.742,21.41 -8.25,33.13 10,33.32 z m 206.321,-12.89 117.82,-144.22 -13.281,-10.31 -118.289,142.23 13.75,12.3 z m -19.68,-8.86 12.609,-21.29 c 0,0 -36.519,-31.21 -46.128,-40 C 447.809,1420.8 272.73,1278.23 272.73,1278.23 l -2.378,28.67 288.519,238.01 z m -212.66,-3.87 c 2.269,-0.04 4.918,-2.97 8.629,-8.67 3.25,-4.92 10.199,-14.81 17.582,-21.64 14.34,-13.21 15.738,-12.03 4.058,-13.28 -4.601,-0.51 -6.128,0.07 -8.941,-7 -8.559,-10.66 -33.828,27.54 -27.891,42.15 2.301,5.7 4.262,8.52 6.563,8.44 z m 41.09,-20.63 c 2.109,0.12 4.929,-0.7 8.211,-2.69 6.25,-2.54 6.636,-4.02 5.617,-10 -0.969,-5.7 -5.309,-7.19 -13.859,0.31 -6.532,6.13 -5.43,12.15 0.031,12.38 z m 188.051,-3.51 13.828,-17.89 -314.219,-254.06 0.078,29.21 c 7.66,-0.97 209.141,174.11 300.313,242.74 z m -243.672,-2.89 c 0.82,0.15 2.148,-2.74 5.621,-7.97 7.109,-10.66 13.597,-17.7 21.058,-23.32 6.993,-5.27 7.77,-8.24 2.969,-8.28 -2.066,0 -4.879,-2.19 -6.367,-4.73 -2.973,-5.12 -3.199,-3.91 -7.813,-1.21 -6.558,3.87 -13.168,9.65 -15.777,17.27 -2.5,7.14 -2.781,18.08 -0.75,26.01 0.359,1.41 0.668,2.15 1.059,2.23 z m 49.609,-20.31 c 8.012,0.27 13.75,-9.03 8.481,-16.57 -2.969,-2.85 -5.629,-4.25 -11.489,-0.78 -7.73,4.53 -9.14,11.56 -2.812,15.51 1.992,1.21 3.941,1.8 5.82,1.84 z m -51.559,-20.16 c 1.68,0.08 4.719,-2.34 9.801,-7.58 3.91,-3.98 10.668,-7.42 13.399,-8.91 6.09,-3.39 6.371,-4.6 3.05,-7.3 -1.41,-1.17 -6.019,-1.25 -7.308,-4.92 -3.594,-10.55 -18.871,1.68 -20.313,16.76 -0.738,7.65 -0.781,11.83 1.371,11.95 z m 38.36,-1.25 c 10.031,-0.43 14.762,-12.11 6.789,-17.85 -4.367,-3.13 -15.309,2.38 -16.438,8.12 -0.711,3.71 5.86,9.89 9.649,9.73 z m 234.332,-8.67 c 5.777,0 10.508,-4.73 10.508,-10.55 0,-5.82 -4.731,-10.51 -10.508,-10.51 -5.82,0 -10.543,4.69 -10.543,10.51 0,5.82 4.723,10.55 10.543,10.55 z m -31.442,-4.38 c 5.782,0 10.5,-4.69 10.5,-10.51 0,-5.82 -4.718,-10.5 -10.5,-10.5 -5.82,0 -10.55,4.68 -10.55,10.5 0,5.82 4.73,10.51 10.55,10.51 z m -210.75,-14.06 c 0.629,0.04 1.329,0.04 2,0 9.649,-0.47 10.192,-9.65 4.45,-14.57 -3.442,-2.97 -6.559,-3.91 -10.981,-0.35 -7.929,6.33 -5,14.41 4.531,14.92 z m 234.149,-15.39 c 5.82,0 10.5,-4.69 10.5,-10.51 0,-5.82 -4.68,-10.51 -10.5,-10.51 -5.828,0 -10.551,4.69 -10.551,10.51 0,5.82 4.723,10.51 10.551,10.51 z m 923.591,-0.59 0.47,-26.6 -371.53,-309.06 -12.53,16.41 383.59,319.25 z m -944.919,-2.26 -27.5,-61.68 -8.25,15.9 -20.539,0 6.328,18.39 -12.11,14.73 62.071,12.66 z m 584.649,-256.56 48.86,39.21 c -21.05,106.18 62.97,148.4 142.74,117.58 l 49.65,42.31 c -92.11,77.54 -308.72,24.96 -241.25,-199.1 z m -661.411,207.53 c 5.82,0 10.551,-4.68 10.551,-10.5 0,-5.82 -4.731,-10.51 -10.551,-10.51 -5.82,0 -10.508,4.69 -10.508,10.51 0,5.82 4.688,10.5 10.508,10.5 z m -31.91,-2.57 c 5.781,0 10.152,-4.38 10.152,-10.16 0,-5.82 -4.371,-10.9 -10.152,-10.9 -5.828,0 -10.551,4.73 -10.551,10.55 0,5.82 4.723,10.51 10.551,10.51 z m 169.961,-21.33 -48.481,-38.83 c 12.539,-101.68 -36.91,-153.44 -143.238,-118.59 l -51.41,-40.79 c 138.91,-95.54 320.699,27.62 243.129,198.21 z m -149.18,-9.18 c 5.82,0 10.539,-4.73 10.539,-10.55 0,-5.82 -4.719,-10.51 -10.539,-10.51 -5.781,0 -10.512,4.69 -10.512,10.51 0,5.82 4.731,10.55 10.512,10.55 z m 1019.61,-2.7 c 5.78,0 10.54,-4.68 10.54,-10.5 0,-5.83 -4.76,-10.51 -10.54,-10.51 -5.82,0 -10.55,4.68 -10.55,10.51 0,5.82 4.73,10.5 10.55,10.5 z m -1041.372,-2.5 -30.976,-61.29 -7.731,18.44 -20.781,-0.27 6.711,21.4 -13,10.98 65.777,10.74 z m 999.722,-6.44 9.65,-16.21 20.35,-0.51 -7.65,-15.43 14.69,-15.16 -66.29,-16.29 29.25,63.6 z M 389.449,1288.66 c 5.821,0 10.59,-4.69 10.59,-10.51 0,-5.82 -4.769,-10.51 -10.59,-10.51 -5.777,0 -10.5,4.69 -10.5,10.51 0,5.82 4.723,10.51 10.5,10.51 z m -30.269,-1.18 c 5.82,0 10.59,-4.68 10.59,-10.5 0,-5.82 -4.77,-10.51 -10.59,-10.51 -5.782,0 -10.508,4.69 -10.508,10.51 0,5.82 4.726,10.5 10.508,10.5 z m 1052.7,-6.25 c 5.82,0 10.54,-4.68 10.54,-10.5 0,-5.82 -4.72,-10.55 -10.54,-10.55 -5.83,0 -10.51,4.73 -10.51,10.55 0,5.82 4.68,10.5 10.51,10.5 z m 106.4,-1.64 0.47,-23.36 c -96.91,-85.54 -300.78,-250.66 -300.78,-250.66 l -12.66,16.29 c 0,0 207.39,169.45 312.97,257.73 z M 380.27,1256.82 c 5.82,0 10.511,-4.69 10.511,-10.51 0,-5.82 -4.691,-10.58 -10.511,-10.58 -5.821,0 -10.5,4.76 -10.5,10.58 0,5.82 4.679,10.51 10.5,10.51 z m 1053.13,-2.54 c 5.82,0 10.55,-4.69 10.55,-10.51 0,-5.82 -4.73,-10.54 -10.55,-10.54 -5.78,0 -10.51,4.72 -10.51,10.54 0,5.82 4.73,10.51 10.51,10.51 z m -29.77,-1.87 c 5.82,0 10.51,-4.73 10.51,-10.51 0,-5.82 -4.69,-10.59 -10.51,-10.59 -5.82,0 -10.54,4.77 -10.54,10.59 0,5.78 4.72,10.51 10.54,10.51 z m 117.58,-3.75 -0.86,-29.73 C 1426.41,1138.85 1234.3,979.789 1234.96,979.711 l -14.53,20.039 c 0,0 210.62,181.41 300.78,248.91 z m -1160.23,4.37 -28.992,-65.35 -12.5,17.58 -18.316,1.25 4.379,17.69 -16.801,11.41 72.23,17.42 z m 1004.84,-25.82 18.52,3.52 -3.25,-18.95 13.01,-13.63 -68.16,-14.96 32.97,61.09 6.91,-17.07 z m 101.84,-318.48 c 13.82,-20.699 12.93,-43.281 7.14,-46.71 -6.09,3.429 -11.36,9.371 -17.69,12.109 -31.76,13.711 -57.11,24.922 -61.64,45.07 -17.31,45.59 60.66,6.723 72.19,-10.469 z m -166.88,121.06 106.8,86.95 c 0,0 16.4,-8.44 19.49,-12.26 1.09,-4.22 -1.84,-5.51 -6.21,-9.46 -1.99,-2.54 -3.24,-5 -3.36,-10.54 -0.12,-5.98 1.84,-8.68 -0.55,-11.29 -4.02,0.19 -7.26,-5.04 -7.07,-9.3 0.12,-3.24 -4.14,-6.87 -6.64,-9.3 -4.41,-4.33 -5.7,-5.27 -8.55,-20 -0.28,-1.44 -0.16,-5.27 -2.23,-7.26 -6.21,-0.55 -10.66,-15.67 -13.48,-16.64 -4.53,0.27 -11.68,5.82 -13.43,13.94 -1.14,5.28 -0.82,15.59 0.43,22.19 1.48,7.89 2.14,15 1.68,16.91 -1.18,4.38 -4.07,1.68 -4.03,-4.45 0,-2.5 -0.93,-10 -2.54,-17.07 -1.6,-7.11 -5.89,-16.48 -3.98,-22.07 2.93,-8.36 13.59,-11.87 18.4,-16.29 12.61,-11.561 15.39,-17.221 16.83,-19.799 10.12,-18.481 10.12,-21.641 7.62,-35.551 -1.48,-8.012 -9.3,-6.641 -13.98,-3.398 0,0 -30.04,21.878 -43.13,32.738 -19.76,16.441 -33.67,33.24 -42.07,51.95 z m 40.51,-59.81 c 11.48,-4.601 41.29,-26.281 41.29,-26.281 l -27.15,-56.527 c 4.92,-8.832 6.91,-30.82 6.91,-30.82 34.38,2.617 53.01,-55.313 -0.5,-49.961 6.09,-35.782 -51.61,-63.871 -50,0.308 -60.08,-4.679 -39.93,63.403 -2.89,50.629 -1.14,28.832 18.12,32.582 31.67,39.652 11.14,12.571 17.93,41.051 17.93,41.051 l -2.69,8.707 c -11.41,-19.918 -59.92,-25.617 -113.24,-15.078 14.45,34.18 58.24,33.25 98.67,38.32 z m -106.02,-43 c -1.79,-6.839 -1.83,-6.761 6.37,-5.902 4.18,0.391 20.86,0.391 32.54,-0.078 21.44,-1.68 55.2,-1.84 72.15,11.051 3.28,3.129 5.08,2.929 5.7,1.219 1.45,-8.321 -15,-35.75 -15,-35.75 l -27.15,-15 c 0,0 -11.13,-0.5 -24.88,-0.192 l -0.23,-24.418 c -10.79,-6.359 -29.3,-33.711 0.43,-54.64 l -0.98,-26.61 26.21,-0.461 c 17.42,-16.679 31.6,-16.609 47.58,-0.898 l 30.23,-0.039 -0.15,28.75 c 14.92,11.949 17.03,32.297 1.79,48.508 l -0.35,29.179 -23.28,-0.148 c 0,0 -4.8,3.711 -4.96,6.679 0,1.911 16.99,34.68 20.27,39.329 4.22,6.101 3.05,2.621 9.85,-11.399 9.64,-20.121 19.25,-28.281 43.79,-40.16 21.87,-10.59 29.68,-15.512 36.05,-21.602 5.04,-4.808 8.05,-3.277 10,3.903 4.22,16.019 2.93,32.078 -5.9,46.719 -18.63,30.941 -51.05,32.39 -56.21,39.531 -0.7,1.719 5.9,3.719 13.01,6.879 12.26,7.461 30.23,30 32.58,39.058 -0.43,4.383 2.46,18.132 4.57,21.172 2.46,5.39 2.73,7.93 2.61,22.43 -2.18,8.28 -0.19,19.06 0.82,22.77 1.14,7.54 -2.89,16.41 -8.55,27.3 -2.15,10.12 -1.64,7.5 4.88,30.28 1.1,3.67 8.44,35.43 -0.97,37.61 0.11,-0.27 0.97,-1.25 1.25,-1.79 1.6,-3.17 2.46,-16.88 1.01,-20.78 -0.55,-1.53 -1.64,-5.51 -2.38,-8.83 -5.7,-25.51 -9.06,-31.92 -14.22,-26.33 -1.25,1.33 -5.94,3.2 -9.57,5.63 -6.84,4.53 -6.29,6.75 -4.57,15.27 0.39,1.29 3.12,13.01 2.81,12.66 -1.48,-4.03 -2.46,-14.42 -7.15,-16.84 -2.5,-0.59 -5.97,1.64 -12.5,7.26 -2.46,2.15 -7.81,5.86 -7.81,5.86 0,0 77.23,65 105.94,86.57 l -0.28,-962.5 -545.741,-0.242 c -6.828,59.614 11.101,138.524 40.781,217.5 18.36,48.832 44.69,85.043 74.42,128.75 56.99,83.364 100.08,167.973 83.47,275.242 -2.18,15.93 -4.37,23.551 -3.63,27.848 6.96,12.973 34.42,52.383 54.49,68.793 29.46,24.059 70.47,60.039 73.75,57.889 9.77,-18.87 21.37,-34.139 36.72,-45.67 2.7,-2.93 2.78,-5.5 -3.47,-6.828 -40.67,0.386 -82.54,-8.563 -96.14,-44.532 z m -947.649,273.43 c 5.777,0 10.5,-4.72 10.5,-10.5 0,-5.82 -4.723,-10.55 -10.5,-10.55 -5.82,0 -10.551,4.73 -10.551,10.55 0,5.78 4.731,10.5 10.551,10.5 z m 1020.229,-2.38 c 5.82,0 10.51,-4.73 10.51,-10.55 0,-5.78 -4.69,-10.5 -10.51,-10.5 -5.82,0 -10.51,4.72 -10.51,10.5 0,5.82 4.69,10.55 10.51,10.55 z m 22.93,-28.87 c 5.82,0 10.51,-4.72 10.51,-10.5 0,-5.82 -4.69,-10.55 -10.51,-10.55 -5.82,0 -10.55,4.73 -10.55,10.55 0,5.78 4.73,10.5 10.55,10.5 z m -34.06,-4.49 c 5.82,0 10.51,-4.69 10.51,-10.51 0,-5.82 -4.69,-10.5 -10.51,-10.5 -5.82,0 -10.51,4.68 -10.51,10.5 0,5.82 4.69,10.51 10.51,10.51 z m -37.58,-23.94 19.02,0.93 c -2.38,-6.83 -3.67,-13.9 -5.04,-20.97 l 15.51,-11.37 -67.03,-11.41 28.87,59.38 8.67,-16.56 z m -45.74,-173.25 -112.85,145.75 13.59,11.01 113.79,-144.138 -14.53,-12.622 z m -13.79,141.61 c 5.82,0 10.55,-4.69 10.55,-10.51 0,-5.82 -4.73,-10.51 -10.55,-10.51 -5.82,0 -10.51,4.69 -10.51,10.51 0,5.82 4.69,10.51 10.51,10.51 z m 237.11,-16.33 c 9.14,-7.11 0,-17.07 -8.75,-13.13 -7.62,3.21 -7.03,10.9 -1.06,13.95 3.75,1.8 6.57,1.37 9.81,-0.82 z m 12.15,-6.76 c 9.41,-0.16 19.76,-22.42 17.85,-28.95 -2.77,-7.61 -5.35,-7.89 -18.6,3.33 -13.08,11.05 -13.28,11.52 -7.96,17.5 2.93,3.39 4.33,7.89 8.71,8.12 z m -223.25,-4.06 c 5.83,0 10.51,-4.73 10.51,-10.55 0,-5.78 -4.68,-10.55 -10.51,-10.55 -5.82,0 -10.54,4.77 -10.54,10.55 0,5.82 4.72,10.55 10.54,10.55 z m -32.61,-4.06 c 5.82,0 10.51,-4.69 10.51,-10.51 0,-5.82 -4.69,-10.51 -10.51,-10.51 -5.82,0 -10.55,4.69 -10.55,10.51 0,5.82 4.73,10.51 10.55,10.51 z m 231.05,-7.5 c 10.39,-1.53 13.09,-9.38 8.32,-15.2 -6.48,-7.89 -21.05,-0.74 -17.58,8.63 1.57,4.3 5.36,6.49 9.26,6.57 z m 18.64,-11.84 c 4.06,0.35 10.19,-5.27 16.87,-14.61 7.54,-10.47 8.16,-13.83 6.02,-20.23 -3.13,-9.3 -5.04,-11.02 -11.8,-1.96 -2.58,3.44 -8.48,11.45 -12.7,15.86 -9.02,9.45 -10.43,7.07 -5.07,14.26 2.5,3.36 4.21,6.44 6.68,6.68 z m -24.42,-11.02 c 9.34,-4.8 10.24,-11.09 4.73,-15.5 -6.49,-3.56 -17.93,0.66 -20.16,7.07 -3.24,9.37 6.72,14.14 15.43,8.43 z m 15.82,-13.86 c 5.28,0.31 9.61,-5.12 16.06,-15.55 10.97,-17.73 11.6,-23.712 2.22,-35.391 -6.76,-8.399 -7.42,-8.867 -14.02,4.531 -5.39,10.98 -15.63,23.79 -25.12,31.48 -3.98,3.25 -5.35,7.74 -2.5,8.05 0.82,0.08 4.34,0.24 7.81,0.35 5.04,0.2 6.88,0.9 9.69,3.6 1.84,1.79 3.79,2.81 5.86,2.93 z m -37.89,-13.83 c 4.92,0.23 11.25,-2.42 15.98,-7.93 5.35,-5.63 4.72,-10.78 -5.78,-11.8 -4.73,-1.87 -17.62,6.6 -17.7,12.27 -0.04,4.76 3.17,7.22 7.5,7.46 z m 24.77,-20.592 c 0.27,0 0.5,0 0.74,0 4.41,-0.187 6.72,-4.449 11.68,-14.41 7.58,-15.277 5.39,-23.598 -7.78,-30.348 -8.9,-4.57 -15.7,-5.98 -16.87,-0.71 -0.31,1.531 -0.35,5.902 -1.05,10.199 -1.02,5.66 -2.31,11.601 -7.35,19.222 -8.05,12.11 -9.45,16.399 -0.62,12.848 4.65,-1.91 9.72,-1.68 15.07,1.133 2.35,1.207 4.38,1.957 6.18,2.066 z m -44.61,-24.566 c -3.09,0.078 -5.04,-1.793 -4.22,-6.793 2.77,-1.367 7.19,-0.117 10.51,-1.289 4.45,-1.61 7.22,-8.871 11.99,-7.699 0.51,6.129 -11.56,15.629 -18.28,15.781 z M 465.59,868.191 c -24.57,11.719 -85.512,38.829 -114.852,39.219 -54.41,15.27 -58.078,8.32 -77.148,13.238 101.019,26.172 170.512,-24.179 195.98,-48.628 11.559,-11.532 5.27,-8.25 -3.98,-3.829 z m 64.332,-238.132 c 57.808,-100.27 111.68,-213.36 202.066,-380.821 l -8.707,-2.687 -344.652,-0.629 c 17.07,185 -82.93,361.25 -89.68,354.34 78.082,-1.41 142.891,13.629 156.602,42.418 l -11.141,3.16 c -45.461,-39.211 -111.289,-41.012 -156.68,-28.86 1.02,96.36 -4.41,198.2 -1.402,294.571 53.672,3.98 95.66,-15.711 125.391,-54.922 50.043,-65.938 83.941,-149.809 128.203,-226.57 z M 371.84,897.172 c 13.82,1.058 89.289,-30 123.039,-53.203 9.383,-9.688 23.051,-26.52 23.09,-28.168 0.043,-4.492 -6.598,1.058 -39.219,19.648 -24.691,13.871 -50.27,24.93 -75.199,35.59 -1.129,0.473 -3.391,1.441 -3.391,1.441 0,0 -1.879,2.11 -5.039,4.571 -8.871,6.879 -26.101,19.07 -23.281,20.121 z m 36.68,-35.152 c -0.75,0.109 74.839,-27.231 134.96,-75.122 8,-6.367 17.809,-30.117 17.809,-30.117 -5.348,10.078 -100.348,66.918 -133.668,79.918 -0.043,0.039 -19.101,25.321 -19.101,25.321 z m 26.64,-36.372 c 4.141,2.5 114.641,-62.738 130.86,-79.609 7.339,-5.59 24.531,-32.848 24.601,-38.359 0.039,-4.879 -5.351,-0.66 -15.23,8.48 -50.903,47.539 -124.411,83.36 -125,82.57 l -15.231,26.918 z m 20.5,-37.886 c 51.918,-21.961 117.11,-74.774 150,-106.172 8.25,-8.168 14.11,-19.961 15.238,-25.43 0.661,-3.398 -1.058,-3.172 -1.718,-5 -42.66,48.942 -136.371,104.801 -148.789,109.18 0.121,-3.129 -10.313,18.941 -14.731,27.422 z m 172.352,-152.5 c 5.968,-6.102 15.429,-27.422 13.316,-30.043 -1.058,-1.289 -0.937,-0.629 -3.437,1.133 -13.672,13.558 -83.75,75.738 -142.231,110.628 -5.461,2.731 -23.898,31.79 -20,32.34 30.59,-9.961 118.012,-79.769 152.352,-114.058 z m -126.492,69.41 c 1.019,-0.082 2.859,-1.371 5.98,-3.121 53.789,-29.653 131.719,-104.34 146.52,-122.313 3.359,-5.508 8.64,-15.66 8.25,-21.91 -0.668,-4.879 -2.622,-0.699 -24.379,20.66 -34.922,34.223 -75.121,67.352 -117.692,95.16 -8.211,5.622 -6.648,6.332 -12.578,16.68 -5.941,10.391 -8.32,15 -6.101,14.844 z m 343.949,-1.133 c 38.402,-1.09 53.402,-30.199 77.07,-83.75 19.34,-52.809 27.34,-101.168 28.242,-139.687 0.078,-2.582 -4.652,-0.391 -6.761,0.199 -10.27,2.769 -23.079,5.347 -37.93,1.597 -10.891,-2.769 -21.25,-2.457 -10.07,4.883 3.628,2.348 13.39,11.41 18.589,14.649 10.551,6.519 4.141,6.449 -6.328,1.332 -7.89,-3.91 -13.203,-8.832 -16.441,-9.614 -2.039,-0.507 -0.789,6.133 1.172,10.903 11.168,27.461 14.527,43.711 -2.071,48.789 -4.531,1.359 -10.589,5.539 -13.441,8.32 -2.301,2.219 -4.262,11.129 -4.961,11.481 -0.777,0.39 -1.289,-8.09 -1.289,-9.371 0.039,-4.418 5.699,-13.36 12.539,-18.25 11.563,-8.321 13.832,-10.579 7.539,-30.231 -8.789,-27.539 -10.668,-34.258 -12.308,-40.66 -0.899,-3.68 -2.692,-9.93 -3.629,-13.949 -3.481,-15.59 -3.051,-29.219 -2.422,-42.192 3.832,-28.976 35.043,-43.277 76.953,-27.187 3.988,1.57 5.629,0.16 5.629,0.16 C 922.148,357.02 884.691,335.301 862.852,266.699 834.77,323.301 795,367.641 728.871,385.41 l -0.98,11.84 c 23.05,-11.051 67.769,-26.09 96.168,-9.219 15.203,10.391 10.589,17.071 -7.887,9.918 -21.953,-8.508 -61.602,-7.539 -81.402,3.641 -4.071,2.262 -8.168,0.308 -9.301,-0.078 -1.059,6.679 -10.59,31.718 -9.18,41.168 -0.82,1.289 6.012,1.371 7.34,-0.391 5.473,-7.309 33.281,-29.098 62.191,-27.379 14.379,0.82 26.211,5.192 38.711,18.36 1.02,0.929 6.09,1.601 6.797,2.378 1.133,1.25 0.313,3.122 0.274,3.793 -0.313,1.008 -2.192,3.75 -3.403,6.829 -1.64,2.742 -1.949,5.55 -1.679,7.742 0.039,1.789 1.25,2.726 2.191,4.019 1.059,2.418 0.777,5.508 0.16,7.149 -2.543,1.718 -2.23,4.961 -0.859,6.449 3.898,4.449 -33.672,38.711 -41.024,38.633 -2.648,0 -1.09,-4.922 4.301,-8.524 19.102,-12.648 33.012,-29.218 29.883,-31.398 -2.461,-1.641 -11.012,1.988 -19.723,4.058 -17.469,4.102 -38.437,6.68 -61.219,-9.726 -8.511,-6.992 -31.011,-8.043 -31.011,-8.043 -0.27,12.262 -52.071,149.141 -52.188,143.199 18.867,21.992 78.09,73.981 137.418,96.402 18.25,6.02 37.852,9.071 51.02,7.309 z m -224.957,-30.66 107.687,-1.649 c -27.07,-13.628 -76.289,-62.531 -76.289,-62.531 -14.058,28.321 -18.359,42.461 -31.398,64.18 z m -93.133,-14.18 c 8.012,-0.039 93.519,-69.73 105.672,-86.179 1.48,-1.989 10.148,-11.129 19.289,-20.27 22.109,-22.191 31.211,-35 31.332,-44.141 0.039,-4.3 -3.902,-1.48 -9.801,5 -44.301,49.219 -73.133,75.903 -127.851,113.629 -6.219,3.321 -25.469,29.032 -18.95,31.883 0.078,0.039 0.2,0.078 0.309,0.078 z M 819.84,645.84 c -2.418,0.082 -2.031,-2.219 -0.699,-4.328 13.558,-11.992 49.379,-11.492 61.718,-1.801 11.211,8.789 -3.48,4.18 -8.05,2.23 -10.7,-4.613 -22.188,-4.101 -37.11,-0.121 -8.668,2.309 -13.469,3.95 -15.859,4.02 z m 33.012,-19.531 c -12.5,-0.11 -25.622,-3.86 -22.692,-8.469 1.051,-1.68 4.488,-4.809 12.692,-0.36 11.796,5.821 36.097,-1.832 36.796,-2.031 2.5,-0.621 -8.046,6.961 -11.597,8.52 -3.91,1.722 -9.5,2.422 -15.199,2.34 z M 551.02,613.301 c 45.929,-28.082 101.91,-84.332 135.5,-124.531 5.589,-6.911 9.652,-15.43 9.691,-20.43 0.078,-7.219 -1.441,-3.199 -31.949,27.699 -23.953,24.492 -60.082,57.813 -83.992,75.781 -14.372,10.469 -16.911,11.801 -23.668,24.219 -6.372,11.68 -8.633,17.461 -5.582,17.262 z m 286.25,-9.371 c -8.641,-4.102 -20.079,-3.239 -31.25,0.59 -10.122,3.468 -7.739,0.5 -3.911,-10.508 1.762,-5 2.852,-12.114 2.852,-13.172 0.039,-2.461 0.039,-2.61 7.148,1.371 6.211,3.48 7.539,4.687 20.782,1.598 13.48,-3.161 13.668,-1.989 20,1.332 5.55,2.847 6.679,4.57 10.429,3.05 7.379,-2.972 15.739,-4.222 25.231,0.739 7.23,3.832 9.609,1.25 12.969,-0.43 4.57,-2.301 6.332,-0.859 4.531,3.711 -0.699,1.801 -2.031,9.57 -2.071,12.027 -0.07,4.653 -1.21,8.832 -3.16,7.852 -7.269,-3.629 -13.121,-7.5 -20.039,-7.379 -12.66,0.238 -23.793,7.848 -43.511,-0.781 z M 277.379,594.359 C 391.879,451.66 371.641,246 367.852,247.68 l -89.762,-0.391 -0.711,347.07 z m 297.93,-28.871 c 45.742,-32.066 100.203,-87.968 130.351,-126.636 5.16,-6.68 0.981,-8.75 3.559,-16.832 0.941,-2.969 -4.141,1.441 -18.668,17.031 -18.09,19.449 -47.891,48.711 -67.461,65.66 -21.488,18.59 -27.699,23.277 -32.27,29.527 -3.59,5.282 -18.281,30.551 -15.511,31.25 z M 832.77,552.41 c -0.5,0 -0.969,-0.039 -1.442,-0.039 -16.289,-0.781 -24.527,-19.031 -10.59,-31.922 5.242,-4.84 13.563,-7.687 13.563,-5.109 -0.039,0.621 -2.66,3.238 -4.5,4.64 -11.602,8.95 -10.422,22.899 2.82,23.008 4.57,0.082 4.879,-1.558 15.469,-9.179 12.461,-8.938 27.18,-8.938 27.031,0.043 -0.16,6.597 -2.621,13.398 -13.75,12.308 -2.93,-0.32 -6.84,-0.629 -10.242,0.27 -3.277,0.82 -6.09,2.808 -7.379,3.398 -3.91,1.723 -7.621,2.5 -10.98,2.582 z M 605.078,510.379 c 34.961,-23.481 83.082,-76.609 107.652,-107.93 5.629,-7.347 6.02,-15.469 3.75,-19.847 -0.539,-0.864 -4.839,1.796 -4.839,1.796 -28.442,33.481 -60.661,63.903 -92.301,94.801 0,0 -18.789,30.242 -14.262,31.18 z m 339.223,-50.828 -7.539,-3.75 c -11.453,17.187 -21.961,17.429 -30.711,-2.653 l -5.621,1.403 c -4.219,4.648 15.082,48.289 43.871,5 z m -1.68,14.648 c 3.16,-0.109 8.668,-1.789 9.957,-5.039 1.442,-2.961 -0.199,-6.281 -4.527,-6.172 -0.629,0.043 -4.813,5.16 -6.922,8.321 -1.52,1.921 -0.859,2.972 1.492,2.89 z m -128.519,-21.008 -8.481,-0.39 c -16.09,21.211 -28.16,6.988 -35.391,-1.879 l -9.058,1.25 c 1.449,23.238 42.578,31.367 52.93,1.019 z m 82.308,18.079 c 1.289,0 2.539,-0.231 3.711,-0.7 -3.32,-5.082 -3.91,-9.3 -4.652,-13.871 -3.278,-1.359 -7.969,-4.179 -11.489,-0.539 -6.48,5.891 3.52,15.309 12.43,15.11 z m -132.148,-2.34 c 3.976,-0.039 2.769,0.23 1.047,-1.989 -1.758,-2.269 -4.137,-6.293 -5.43,-9.89 -0.539,-2.5 -0.969,-3.391 -3.32,-3.473 -4.45,-0.156 -13.508,1.442 -13.438,1.371 -3.473,3.242 10.789,13.629 21.141,13.981 z m 51.168,-2.969 c 2.66,0.309 2.031,-3.512 1.172,-5 -1.68,-1.992 -2.34,-2.621 -3.282,-0.16 -0.468,1.219 -1.172,2.148 -1.718,2.859 -1.332,1.68 -1.172,1.789 0.429,2.07 0.739,0.11 2.457,0.192 3.399,0.231 z m 138.281,-16.91 c 9.84,0.269 3.238,-16.449 -10.473,-20.512 -15.117,-7.66 -32.5,-5.82 -50.148,4.223 -10.078,5.777 -13.129,11.828 -4.379,9.41 33.129,-9.141 41.129,-7.422 61.09,5.469 1.219,1.019 2.469,1.25 3.91,1.41 z m -318.359,3.629 c 32.929,-27.93 57.738,-59.532 84.058,-88.668 5.281,-6.492 7.699,-12.742 6.719,-16.992 -1.289,-5.282 -12.07,7.3 -12.07,7.3 0.281,-0.121 -64.329,68.828 -64.329,68.828 0,0 -16.371,29.372 -14.378,29.532 z m 98.437,-9.649 c 2.262,-0.082 6.832,-1.133 14.141,-3.051 31.679,-9.57 41.289,-9.21 59.492,-0.851 11.598,5.312 16.406,4.531 11.449,-3.481 -9.141,-14.726 -41.449,-16.367 -65.672,-8.128 -6.437,2.191 -12.07,6.019 -18.238,10.628 -3.32,3.442 -4.141,4.961 -1.172,4.883 z m 146.133,-9.761 c 1.879,0.109 5.43,-2.071 9.726,-4.5 26.563,-15.071 46.133,-12.301 62.5,-2.18 2.973,2.691 4.571,1.398 4.961,-1.211 1.411,-9.18 1.801,-15.789 -2.379,-20.199 -2.429,-2.539 -6.57,-3.711 -12.82,-5.821 -25.699,-8.629 -56.988,-2.461 -63,16.801 -1.922,9.918 -3.172,16.828 1.012,17.11 z M 669.301,391.898 c 0.078,0.043 0.148,0.043 0.269,0 1.879,-0.269 6.168,-4.019 12.93,-11.679 35.309,-40.078 54.879,-63.09 51.289,-74.688 -0.309,0 -0.551,-2.5 -2.027,-1.211 -19.461,16.758 -35.313,35.121 -47.114,54.301 -12.968,21.008 -18.277,33.039 -15.347,33.277 z M 954.102,363.699 C 924.301,340.922 888.121,286.66 884.879,259.91 c -0.617,-5.082 -0.078,-8.91 -1.949,-10.781 -1.52,-1.449 -4.879,-1.609 -9.379,-0.707 -2.77,0.508 -2.102,0.816 -2.77,3.949 -2.582,12.219 9.141,43.008 33.399,79.289 12.73,19.031 41.64,44.77 49.73,44.93 5.391,-2.231 0.149,-13.129 0.192,-12.891 z m -220.743,12.379 c 2.071,0.082 5.352,-1.019 9.879,-2.969 26.801,-11.48 36.762,-15.66 54.102,-29.808 32.269,-26.281 68.172,-88.821 57.621,-94.641 -4.609,-2.582 -7.891,-0.98 -9.801,4.84 -0.32,1.051 -3.711,9.801 -7.738,17.23 -21.641,39.801 -49.801,67.149 -89.492,86.481 -14.649,7.148 -16.129,6.367 -17.231,12.34 -0.859,4.5 -0.078,6.449 2.66,6.527 z m 220.313,-22.969 c 2.699,0.231 3.359,-4.648 2.418,-14.488 -0.738,-8.051 -1.211,-7.891 -10.149,-17.269 -14.3,-11.602 -31.211,-38.793 -39.062,-66.481 0,-0.98 -0.75,-3.09 -2.078,-4.262 -3.672,-3.16 -8.321,-1.597 -11.52,-1.558 -2.261,1.211 -1.64,6.25 -1.25,9.058 6.559,25.161 22.66,56.051 47.93,83.161 7.109,7.621 11.367,11.64 13.711,11.839 z M 738.91,352.41 c 14.18,0.309 64.531,-37.308 84.918,-70.238 13.32,-21.524 16.91,-30.352 13.832,-33.473 -1.609,-1.679 -8.789,-1.961 -12.5,-0.469 -3.441,1.321 -4.73,6.52 -11.101,18.508 -16.637,31.25 -40.618,53.91 -66.559,65.864 -4.84,2.226 -7.422,3.628 -8.98,5.386 -1.719,3.563 -3.95,13.672 0.39,14.422 z m 7.649,-27.969 c 4.382,-0.82 16.562,-8.711 26.761,-16.211 17.969,-13.21 45.391,-53.558 39.731,-59.339 -1.84,-1.871 -8.129,-1.95 -11.371,-0.661 -19.258,34.29 -44.258,50.622 -54.41,60.149 -3.09,5.199 -10.321,17.391 -0.711,16.062 z m -40.039,-6.062 c 0.82,0.199 4.179,-3.078 10.32,-9.527 18.082,-18.981 29.57,-40.043 26.91,-50.661 -2.27,-8.992 -4.879,-4.062 -25.59,35.43 -8.711,16.598 -12.851,24.449 -11.64,24.758 z m 247.429,-0.539 c 0.43,-10.899 -0.469,-13.602 -1.609,-19.379 -0.82,-3.941 -3.391,-5.781 -5.891,-8.871 -6.14,-7.649 -13.129,-20.891 -16.648,-31.602 -2.961,-8.629 -1.563,-10.699 -12.18,-9.527 -4.961,0.629 -3.75,1.988 -1.801,7.699 6.68,18.711 22.731,49.02 38.129,61.68 z M 748.398,297.25 c 0.231,5.629 48.512,-43.012 41.872,-48.48 -6.29,-1.09 -10.04,-1.321 -12.649,0.941 -5.16,11.559 -28.172,33.48 -28.172,33.48 l -1.051,14.059 z M 951.25,281.941 c 0.121,0.039 0.23,0.039 0.309,0 2.152,-0.429 0.98,-30.351 -0.821,-32.812 -3.437,-1.719 -9.957,-1.879 -13.437,0 -2.102,1.172 -2.77,3.281 -1.949,5.621 1.988,5.781 12.457,26.48 15.898,27.191 z m -182.301,-32.89 c -1.527,-2.352 -10.898,-2.781 -14.461,-0.121 -1.129,0.859 -2.218,15.699 -0.898,18.398 3.601,2.344 16.57,-15.078 15.359,-18.277"
         inkscape:connector-curvature="0"
         id="path22"
         style="fill:#131f67;fill-opacity:1;fill-rule:nonzero;stroke:none" /><path
         d="m 142.109,2401.04 c -37.578,-0.74 -56.1676,-32.15 -56.3707,-63.63 l 0.0429,-82.54 -22.4218,0 0,-27.39 22.4218,0 c 0,0 0.3477,-12.53 0.3086,-20.03 -0.3086,-37.07 12.7813,-59.57 38.3592,-65.82 24.531,-4.46 37.352,0.82 56.02,10.5 6.761,-2.81 11.519,-8.63 18.793,-9.37 8.008,-0.82 24.758,-0.43 24.758,-0.43 l -0.469,28.12 -8.352,1.21 c -15.98,0.28 -22.929,5.86 -21.219,15.86 3.399,6.53 3.911,11.25 4.219,19.11 l 0,139.64 c -0.5,34.22 -28.469,54.46 -56.09,54.77 z m -1.211,-27.23 c 17.93,0.32 32.852,-20.58 32.461,-41.95 l 0.27,-107.85 c 0.59,-6.8 -0.508,-13.44 -3.508,-18.09 -2.351,6.92 -39.422,44.77 -57.973,43.05 0,0 -0.738,-1.92 -1.289,45.47 -0.238,23.28 -6.328,58.01 14.571,73.71 5.23,3.87 10.468,5.58 15.468,5.66 z m 971.642,-93.43 6.05,-7.97 -35.39,-0.2 c 5.82,-4.88 136.88,-268.67 304.53,-573.44 27.74,-53.51 80.67,-72.77 142.11,-75.11 l -162.77,262.14 c 17.34,9.46 51.76,34.73 72.58,30.04 1.29,-6.4 7.46,-3.86 7.58,1.84 l 7.5,-0.16 2.65,-4.14 31.64,0 2.58,3.75 27.27,-3.94 c -72.85,89.84 -111.33,228.28 -98.83,363.4 l -241.68,-0.55 -3.24,4.26 -62.58,0.08 z m -29.34,-8.17 c -0.11,0.12 -0.19,0.2 -0.19,0 l 0.19,0 z M 805.352,2096.39 c -27.461,-88.75 -95.43,-161.76 -135.782,-235.27 -43.242,-80.2 -53.398,-150 -41.211,-226.37 l 7.891,-0.66 c 92.23,125.78 163.629,276.05 203.59,423.82 0.859,3.25 -0.621,8.91 0.121,12.19 -1.723,3.91 -0.231,8.13 0.859,9.26 2.301,2.42 1.45,12.03 -0.269,27.89 -4.34,47.07 -3.481,84.06 0.429,126.72 3.04,32.77 2.848,37.93 2.848,37.93 l -15.777,0.27 c 2.929,-55.78 -4.461,-124.53 -22.699,-175.78 z m 379.568,171.99 25.94,-0.54 c 4.02,-79.26 70.78,-89.57 81.09,-88.44 -17.03,-53.6 11.17,-112.42 79.14,-120.78 -15.58,-49.69 12,-115.2 66.37,-113.4 l 5.74,-3.63 c -3.51,-7.15 -4.25,-21.88 -4.06,-22.11 -12.07,-0.9 -18.63,-2.66 -26.48,-4.18 -70.28,105.93 -227.74,353.08 -227.74,353.08 z m 230.55,0 c -7.85,-88.55 9.88,-210.19 51.48,-282.03 0,0 -1.33,-4.84 -2.18,-6.13 -3.95,-5.98 -5.94,-0.82 -8.32,4.02 -8.87,16.37 -25.59,18.91 -32.93,9.77 -16.18,-22.03 1.36,-30.74 15,-43.21 -55.71,3.4 -74.26,64.69 -61.37,95 -0.31,-5.78 2.81,-14.53 6.87,-20.7 15.67,-23.75 38.52,-3.71 31.96,15.04 -2.7,7.77 -12.7,20.74 -12.7,20.74 0,0 13.56,2 19.1,5.35 5.2,3.21 8.44,8.91 7.11,16.68 -1.05,6.25 -1.33,8.99 -4.69,14.61 -4.1,5.12 -11.44,8.68 -17.34,8.28 -11.52,-0.78 -12.89,-8.67 -20.43,-14.1 -1.87,14.26 -10.98,25.08 -25.9,22.39 -11.33,-2.04 -19.49,-14.11 -12.54,-29.18 3.52,-7.7 8.44,-10.04 13.4,-16.72 -80,8.98 -71.29,103.94 -62.42,102.26 0,0 2.38,0.43 1.68,-3.2 -4.53,-23.24 24.34,-37.11 36.99,-20.23 8.05,13.71 -9.29,35.31 -9.29,35.31 0,0 11.56,2.5 16.79,5.51 20.9,12.07 -1.36,46.68 -20.82,38.16 -6.8,-3.09 -8.55,-9.41 -15.19,-12.77 -4.46,4.92 -4.73,10.35 -12.74,14.8 -21.91,12.23 -35.62,-16.68 -23.47,-29.41 4.96,-5.16 13.75,-9.85 12.03,-10.47 -68.01,8.59 -67.35,79.76 -65.78,79.26 l 195.7,0.97 z m -584.611,-0.62 9.34,0 c -2.777,-42.23 -8.75,-97.93 -4.847,-139.1 4.609,-39.34 4.808,-44.93 1.988,-48.79 -3.86,-4.38 -1.828,-6.41 -1.051,-9.92 1.012,-6.49 1.09,-6.53 0.16,-10.24 -8.25,-33.01 -18.75,-67.23 -32.148,-101.83 -43.75,-120.67 -115.16,-252.23 -171.18,-321.25 -0.031,0.23 -2.531,-0.2 -2.57,0.03 -15.352,96.29 17.418,176.53 34.488,209.5 34.652,66.75 89.102,123.79 121.441,193.75 27.5,59.53 47.782,131.09 44.379,227.85 z m 344.531,0.43 228.13,-354.73 -41.64,-20.39 -233.44,373.83 46.95,1.29 z m -686.949,-37.11 c -80.863,-1.21 -120.32,-102.97 -52.582,-151.84 12.153,-8.79 15.903,-13.9 12.582,-17.3 -2.781,-2.85 -6.531,-1.53 -12.582,4.53 -52.738,51.76 -134.14,23.44 -141.718,-48.28 -12.582,-118.95 135.39,-150.12 173.32,-36.92 10.859,32.46 15.508,-2.69 4.918,-37.22 -8.75,-31.84 -24.059,-64.5 -41.91,-91.68 -3.008,-4.49 -7.348,-10.16 -7.348,-10.16 l 129.969,0 c 0,0 -4.141,5.55 -10,12.38 -23.641,35.2 -36.449,74.65 -40.59,115.9 -0.98,11.72 -0.59,20.63 1.719,22.11 3.941,2.5 6.211,-0.66 10.429,-14.61 8.633,-28.75 24.961,-52.26 43.204,-61.17 44.058,-18.28 80.078,-12.73 110.199,27.42 65.148,86.8 -41.41,194.06 -117.539,123.99 -6.992,-6.37 -11.371,-7.07 -12.032,-1.8 -0.359,2.54 1.641,4.96 11.168,13.91 65.43,51.99 32.622,141.05 -48.988,150.11 -4.18,0.43 -8.238,0.67 -12.219,0.63 z m -328.793,-54.3 c 1.641,-3.32 -4.418,-6.6 -10.937,-8.4 -18.359,-5.11 -36.371,6.33 -36.949,32.66 -0.16,8.01 -0.672,16.56 2.148,17.85 8.43,3.79 40.781,-32.07 45.738,-42.11 z m 1149.452,22.11 c 5.9,0 10.67,-4.8 10.67,-10.7 0,-5.9 -4.77,-10.71 -10.67,-10.71 -5.9,0 -10.7,4.81 -10.7,10.71 0,5.9 4.8,10.7 10.7,10.7 z M 138.441,2105.26 c -36.992,-0.08 -56.3707,-50.43 -21.14,-80.24 6.179,-5.23 8.558,-10 8.129,-11.13 -0.942,-2.58 -1.879,-0.39 -9.41,4.88 -33.0903,23.28 -72.8598,2.43 -69.3794,-31.01 5,-47.78 58.7894,-59.1 77.8904,-14.92 3.36,7.81 5,10.23 6.797,10.27 1.684,0 1.91,-3.2 1.094,-8.32 -3.473,-20.78 -13.594,-42.7 -24.922,-60.27 l 60.039,0 c -12.309,18.63 -17.418,36.99 -20.66,59.96 -0.277,6.01 0.582,10.04 2.922,10.04 1.609,0.03 2.5,-2.15 5.078,-12.35 9.57,-37.85 68.012,-35.86 77.781,2.42 10.891,42.86 -29.609,73.32 -62.82,46.21 -4.68,-3.82 -10.039,-6.6 -10.93,-3.9 -0.281,0.74 2.692,6.33 8,10.98 33.91,33.16 11.211,77.5 -28.469,77.38 z m 1246.289,-24.65 c 5.97,0 10.82,-4.84 10.82,-10.82 0,-5.98 -4.85,-10.82 -10.82,-10.82 -5.98,0 -10.82,4.84 -10.82,10.82 0,5.98 4.84,10.82 10.82,10.82 z m -543.48,-21.13 c 3.871,-15.47 -72.422,-247.46 -180.82,-395.08 l 47.34,-0.98 1.449,-5.23 c 66.332,-97.93 24.84,-184.53 -28.707,-224.77 l 18.547,-24.72 -16.68,-13.48 -16.68,19.84 C 529.961,1313.27 265.16,1087.95 265.16,1087.95 l 1.481,-36.17 20.629,16.29 C 421.641,938.031 706.48,945.141 781.172,1213.58 l 20.039,-0.47 C 756.02,1016.39 572.148,939.359 433.398,971.98 l -32.5,-46.679 8.672,-4.653 c -1.601,2.5 -3.05,3.364 -0.699,5.622 l 27.609,35.55 c 207.622,-26.601 332.969,90.9 373.641,250.08 l 26.481,-0.47 C 813.91,1077.76 751.211,960.02 661.84,867.91 c -64.539,0.238 -177.93,1.719 -177.93,1.719 41.289,-40 120.149,-162.149 123.32,-174.527 0,0 81.129,-2.582 168.161,-0.43 31.91,14.34 74.57,20.117 94.531,10.039 35.039,-17.66 67.93,-83.121 82.738,-188.242 3.82,-27.071 7.301,-38.559 8.32,-44.02 0.192,-0.98 2.571,-1.679 2.93,-1.488 1.32,0.699 -2.109,-4.801 -2.269,-8.871 -0.161,-4.059 0,-10.192 1.91,-12.34 2.469,-2.699 2.187,-4.449 1.84,-5.621 -0.231,-0.789 -4.961,-5.16 -4.961,-5.16 -0.7,-61.207 -0.352,-116.797 -3.711,-192.11 l 12.031,-0.078 c -0.078,121.168 36.48,233.278 92.81,310.469 34.26,50.66 70.51,105.27 90.55,157.23 22.58,58.508 25.7,120 13.59,171.872 l -8.24,-0.43 c -49.57,33.949 -69.73,106.449 -8.71,158.278 l -21.6,28.09 c -60.98,-47.11 -74.96,-134.06 -11.8,-206.02 l -24.73,0.082 c -61.6,76.918 -47.96,165.198 23.25,228.238 l -15.94,20.24 17.34,15.27 15.63,-17.11 397.5,332.15 -0.28,36.37 -30.46,-24.73 c -178.32,164.88 -442.74,49.18 -481.53,-149.37 l -24.22,-0.28 c 50.82,213.71 238.05,274.07 373.52,245.67 l 33.44,50.58 c -24.61,6.88 -48.56,23.21 -71.21,42.5 -9.54,8.13 -15.55,13.13 -22.5,21.25 -64.14,67.82 -107.7,161.96 -109.77,162.11 l -174.45,0.43 c -25.588,-12.65 -69.42,-27.07 -93.479,-7.62 -51.641,41.68 -68.941,125.83 -76.051,179.97 -2.148,16.83 -3.988,46.17 -5.551,55.89 -0.98,1.76 -2.89,1.88 -4.609,1.57 z m 618.48,-93.56 c 5.86,0 10.54,-4.76 10.54,-10.62 0,-5.82 -4.68,-10.55 -10.54,-10.55 -5.82,0 -10.55,4.73 -10.55,10.55 0,5.86 4.73,10.62 10.55,10.62 z m 22.69,-12.46 c 8.63,-11.13 16.25,-22.62 20.51,-34.76 -3.98,0.11 -7.77,-1.14 -12.23,2.34 -1.01,12.26 -6.09,19.65 -12.42,27.81 l 4.14,4.61 z m -31.87,-15.62 c 3.51,-1.72 6.33,-15.04 3.86,-17.35 -4.25,-0.9 -7.14,-0.58 -8.59,0.9 -2.15,3.52 1.91,15.74 4.73,16.45 z m -693.831,-115.71 161.953,-0.19 c 28.207,-21.6 55.738,-18.75 95.708,-1.45 l 180.07,0 10.2,-18.47 -456.681,0 c 2.543,6.87 8.75,20.11 8.75,20.11 z m -13.36,-28.9 466.091,0 11.76,-18.95 -489.37,0 11.519,18.95 z m 45,-27.54 52.301,0 -19.371,-32.89 -53.949,0 21.019,32.89 z m 116.09,0 49.93,0 -22.231,-32.85 -49.449,0 21.75,32.85 z m 161.451,0 -21.02,-32.85 -50.739,0 21.799,32.54 49.96,0.31 z m 62.58,0 50,0 -18.71,-32.85 -51.76,0 20.47,32.85 z m -671.449,-5.12 c -32.383,0.39 -26.41,-42.58 -23.32,-41.25 -20.352,4.65 -35.391,-5 -37.891,-22.34 -1.992,-13.75 11.45,-33.36 34.961,-30.63 -3.121,-3.59 0.078,-24.41 3.199,-26.29 0,0 0.399,-3.01 -12.031,-28.9 -14.719,-30.71 -17.73,-32.19 -24.41,-12 -7.148,21.72 -18.277,32.7 -47.187,46.72 -7.692,3.75 -18.59,10.28 -24.223,14.5 -12.891,9.72 -13.039,9.57 -12.418,-10.16 0.777,-25.67 8.559,-36.92 35.937,-52.03 13.403,-7.42 39.063,-17.89 43.711,-17.85 3.243,0.04 15.27,-5.32 33.051,-14.81 3.469,-1.87 15.391,-8.4 30.621,-9.88 16.168,-1.13 52.617,2.65 73.707,14.88 11.84,6.84 16.453,12.97 25.16,30.43 0,0 -29.918,-1.52 -43.597,2.07 -28.391,1.64 -42.5,0 -64.063,-11.17 -18.008,-9.38 -19.019,-11.02 -11.476,4.41 3.437,7.11 6.636,15.47 9.527,23.79 3.121,8.24 3.981,8.95 11.832,9.77 17.309,1.76 27.149,11.72 28.719,29.02 0.43,4.61 -0.238,9.53 -0.238,9.53 11.757,-1.75 35.82,4.07 35.078,28.44 -0.66,21.91 -16.289,26.95 -35.508,28.48 2.457,11.21 -5.742,35.04 -29.141,35.27 z m 0.391,-6.8 c 28.398,-0.19 27.777,-26.25 15.387,-41.05 l -15.11,12.46 -12.187,-11.25 c -13.242,8.48 -13.211,40.04 11.91,39.84 z m 776.988,-0.31 13.99,-20.62 -28.83,0 14.84,20.62 z m -530.148,-29.61 53.468,0 -21.48,-30.15 -50.551,0 c 0,0 11.332,19.25 18.563,30.15 z m 168.508,0 -20.192,-31.33 -46.719,0 18.711,30.67 48.2,0.66 z m 62.66,0 48.32,0 -19.141,-33.44 -47.73,0 18.551,33.44 z m 113.71,0 48.91,0 -19.89,-33.44 -48.24,0 19.22,33.44 z m 110.82,0 50.39,0 -20.78,-33.44 -48.59,0 18.98,33.44 z m -701.839,-6.21 24.027,-24.22 -23.398,-23.47 -24.141,23.08 23.512,24.61 z m 60.938,-23.59 c -4.258,-28.13 -31.36,-26.6 -39.059,-12.85 l 11.051,12.61 -13.551,13.28 c 13.121,21.1 44.77,8.21 41.559,-13.04 z m -80.661,13.47 -13.007,-14.64 14.257,-13.72 c -9.179,-12.73 -44.488,-11.71 -37.418,18.99 4.489,19.49 24.329,23.08 36.168,9.37 z m 823.592,3.56 14.85,-20.43 -27.89,-0.24 13.04,20.67 z M 682.031,1686 l 597.929,-1.91 16.02,-19.57 c -208.79,-3.6 -413.21,3.36 -626.492,3.51 L 682.031,1686 z M 471.84,1673.3 c 23.672,-14.53 6.172,-45.15 -19.262,-39.96 -18.949,8.32 -22.808,27.97 -5.777,39.38 l 13.359,-10.98 11.68,11.56 z m 205,-11.75 -16.289,-0.08 -15.903,-18.56 c 60.082,-63.28 57.852,-118.2 1.872,-166.05 l 22.539,-25.2 c 62.781,53.72 76.722,138.13 7.781,209.89 z m 61.711,-2.42 c 33.719,-52.62 62.82,-152.27 -37.531,-243.56 l -12.11,14.69 c 87.379,85.31 66.828,157.07 27.731,228.24 l 21.91,0.63 z m 9.379,-1.29 135.742,-0.51 c -29.063,-110.78 -49.453,-175.98 -52.5,-349.26 l -39.262,-0.23 c 4.301,3.98 -20.308,104.61 -48.98,139.49 60.16,102.15 27.73,159.76 5,210.51 z m -427.071,-0.12 c 2.34,0 7.153,-3.05 16.563,-8.67 8.437,-5.08 19.418,-11.49 24.418,-14.3 18.629,-10.43 27.93,-20.31 33.199,-35.35 3.981,-11.29 1.52,-11.52 -9.879,-0.9 -8.519,7.93 -17.539,14.73 -40.16,30.2 -7.969,5.46 -10.512,4.57 -5.859,-2.07 3.32,-4.77 10.468,-10.24 25,-19.07 10.507,-6.4 25,-19.26 23.871,-21.17 -1.024,-1.72 -2.813,-1.56 -7.891,0.66 -2.351,1.02 -9.922,4.15 -16.801,6.92 -29.57,11.99 -42.23,26.76 -43.98,51.25 -0.629,8.51 -1.141,12.46 1.519,12.5 z m 619.571,-0.55 c 0,0 4.101,-5.39 4.648,-7.65 1.133,-4.85 -3.629,-9.3 -18.668,-15.98 -5.16,-2.31 -9.461,-3.56 -9.301,-6.56 0.661,-7.07 14.219,-17.85 12.539,-27.46 -3.089,-7.39 -21.878,-14.61 -26.597,-23.29 0.039,-5.97 12.219,-15.11 10.5,-23.24 -0.973,-2.42 -4.879,-4.88 -10.699,-9.96 -11.954,-10.35 -12.692,-11.91 -8.321,-19.96 10.199,-18.71 10.547,-17.34 -3.32,-30.62 -13.981,-13.4 -13.711,-13.21 -7.031,-24.85 7.191,-12.54 6.871,-11.99 -2.809,-20.04 -9.461,-7.85 -9.07,-9.45 -3.992,-19.26 4.891,-9.45 6.019,-9.57 -2.258,-16.91 -9.652,-8.55 -11.449,-9.45 -4.652,-20.19 7.031,-11.14 7.582,-10.67 -0.348,-19.77 -7.543,-8.59 -8.402,-9.02 -4.34,-14.88 5.117,-7.35 6.098,-9.3 0.739,-17.39 -5.821,-8.75 -5.782,-8.12 -0.469,-16.28 4.5,-6.84 3.719,-14.5 3.719,-14.5 l -16.801,0.04 c 0,0 -0.117,9.69 -2.071,13.21 -4.769,8.63 -4.648,11.28 1.012,18.94 5.789,7.81 4.852,8.52 -0.582,16.33 -5.469,7.93 -4.687,7.85 2.422,16.87 6.52,8.28 6.84,12.19 3.16,16.92 -8.789,11.21 -8.789,15.94 0.039,23.36 6.762,5.66 7.391,8.16 1.571,17.85 -5.711,9.49 -6.411,10.35 4.058,19.8 10.703,9.65 10.582,9.46 3.402,20.39 -6.96,10.63 -6.601,11.33 4.571,21.68 11.289,10.47 11.437,10.51 4.058,23.71 -6.91,12.39 -6.988,12.19 6.52,24.22 13.48,11.25 18.09,12.66 4.652,28.79 -7.5,12.78 -2.191,14.03 10.117,20.39 21.563,13.17 11.762,12.35 2.692,31.88 -7.57,13.12 -3.238,13.2 9.961,19.76 3.289,1.41 6.918,3.05 10.629,5.12 8.832,4.92 4.058,9.41 4.058,9.41 l 17.192,0.12 z m 28.199,-0.31 64.851,-0.82 C 958.32,1560.1 922.191,1437.41 909.18,1307.95 l -24.45,0.35 c -1.57,101.1 30.231,227.43 83.899,348.56 z m 332.851,-2.23 c 37.07,-31.21 64.54,-49.1 84.07,-56.13 0,0 -26.14,-43.4 -28.13,-41.8 -150.39,28.99 -329.22,-58.71 -369.69,-247.73 l -23.671,-0.16 c 8.75,74.18 28.281,136.14 64.221,200.74 35.67,62.74 68.52,99.42 118.09,145.63 l 155.11,-0.55 z m -258.71,1.6 31.92,-0.58 c 0,0 6.01,-7.19 8.71,-9.81 13.79,-15.62 15,-12.5 -15.39,-29.64 -19.18,-10.82 -27.66,-15.86 -28.79,-20.4 -0.86,-4.57 8.36,-13.67 9.45,-19.76 0,-0.7 -26.09,-18.16 -30.82,-20.63 -6.56,-3.2 -6.91,-5.93 -0.35,-17.3 7.5,-13.05 6.91,-12.58 -9.34,-23.91 -15.781,-11.01 -18.898,-9.92 -12.14,-20.93 9.33,-15.24 4.92,-18.68 -17.071,-30.55 -5.59,-3.01 -5.711,-6.02 -1.84,-16.45 5.391,-14.45 6.801,-13 -4.57,-20.82 -13.437,-9.25 -15.82,-9.53 -12.809,-15.19 8.629,-16.45 12.071,-20.47 0.5,-25.86 -8.82,-4.06 -8.98,-6.41 -4.101,-17.27 4.891,-10.93 6.141,-10.5 -2.539,-16.64 -8.078,-5.74 -12.809,-4.45 -4.961,-13.79 6.211,-7.38 5.633,-13.2 0.59,-17.73 -4.34,-1.88 -6.367,-10.12 -5.117,-10.31 l -11.172,-0.32 c -8.789,11.84 1.558,18.6 3.121,19.77 1.449,2.73 -0.313,4.65 -3.86,11.05 -4.851,8.83 -4.691,9.89 2.297,15 7.114,5.24 7.313,3.87 2.582,15.39 -5.468,13.36 -5.23,14.89 3.399,21.1 8.511,6.13 8.633,7.46 2.851,19.18 -6.09,12.38 -6.09,12.38 9.02,22.42 10.629,7.07 10.75,6.64 5.121,19.73 -3.871,9.02 -1.133,12.15 13.32,22.03 8.278,5.66 8.91,6.79 5,13.51 -10.703,18.6 -10.582,19.14 7.891,31.14 15.117,9.76 14.957,10.62 9.137,23.67 -6.289,14.14 -6.868,13.05 13.871,25.47 17.07,10.23 17.97,9.65 10.98,21.95 -8.75,15.31 -8.21,12.81 25.93,32.3 12.31,8.44 23.44,5.51 11.18,19.89 -5.39,6.87 -12,14.29 -12,14.29 z m -602.891,-25.19 c 2.391,0.08 4.223,-2.85 4.101,-8.24 -0.429,-7.58 -4.019,-15.12 -7.46,-22.66 -7.219,-15.35 -14.411,-26.76 -18.2,-26.8 -8.91,-0.07 -8.672,1.92 3.2,25.12 5.39,10.59 10.98,22.66 11.878,25 1.911,5.08 4.411,7.5 6.481,7.58 z m 109.769,-34.84 c 0.153,-32.54 -101.949,-48.95 -107.226,-32.5 17.777,13.9 70.387,7.73 81.527,20.19 -13.437,0.78 -31.648,-1.44 -44.109,-1.64 -15.539,-0.27 -40.699,-6.95 -40.969,-9.69 -1.601,8.56 26.75,24.65 49.18,25.67 21.008,0.9 43.828,-1.6 61.597,-2.03 z m 8.711,-49.69 c 0,0 -199.058,-164.69 -297.461,-244.38 l 0.622,-35.54 314.89,257.81 -18.051,22.11 z m -0.629,-8.13 12.7,-15.43 -295.59,-240.86 -1.051,25.24 283.941,231.05 z m 934.38,-84.49 -10.63,-11.37 c -288.71,214.85 -554.601,-111.32 -408,-344.68 -1.33,-3.01 -11.53,-10.43 -11.53,-10.43 -163.399,270.86 149.26,587.85 430.16,366.48 z m -158.87,47.03 c 16.37,-0.12 46.56,-11.37 59.3,-26.72 14.8,-17.85 10.51,-25.82 -8.32,-8.94 -20.27,14.69 -36.99,18.12 -8.87,0.74 6.21,-3.83 11.8,-11.33 12.07,-12.15 1.02,-2.97 -4.18,0.16 -27.73,8.75 -14.03,5.12 -31.8,18.91 -36.41,28.32 -3.44,7.07 1.37,10.08 9.96,10 z m -60.78,-0.47 c 5.12,0.04 9.65,-0.39 12.89,-1.29 20.67,-5.93 27.15,-9.06 34.85,-15.03 5.27,-4.11 3.59,-7.04 -2.5,-4.42 -7.15,3.05 -29.69,9.77 -33.75,9.34 -5.86,-0.59 0.03,-4.46 8.43,-6.57 18.67,-4.64 27.93,-9.45 14.61,-9.68 -6.91,-1.02 -37.34,-1.1 -45.62,-0.12 -13.83,1.6 -34.53,14.22 -29.77,18.75 5.16,4.88 25.51,8.87 40.86,9.02 z m -59.22,-19.41 c 24.49,-0.31 37.74,-9.45 10.98,-11.29 -46.02,-7.3 -54.84,-17.3 -3.87,-5.39 11.88,2.77 11.64,-1.48 3.44,-5.51 -6.72,-3.24 -15.08,-4.88 -22.07,-8.24 -12.58,-5.23 -41.37,-6.41 -52.62,-2.11 -16.6,6.29 35.47,32.85 64.14,32.54 z m 197.03,-4.18 c 12.39,-0.31 38.75,-18.24 50.51,-35.08 7.7,-10.98 3.87,-18.9 -7.73,-10.08 -2.35,1.8 -19.03,15.94 -19.93,16.29 -1.56,0.59 13.83,-14.06 16.1,-18.16 1.91,-3.48 6.37,-11.49 -1.95,-11.64 -12.97,1.6 -43.44,35.62 -43.6,52.42 -0.08,4.49 2.46,6.37 6.6,6.25 z m -153.51,-9.57 c 5.15,0.16 2.54,-2.58 -7.27,-9.45 -17.65,-12.46 -8.44,-9.96 12.19,0.66 6.25,3.24 13.83,5.78 16.48,6.25 2.66,0.51 5.82,1.21 7.04,1.6 5.54,1.68 1.28,-5.15 -7.74,-12.38 -18.98,-15.24 -40.43,-27.19 -55.23,-30.86 -18.91,-4.65 -22.89,-5.23 -15.9,6.52 11.05,18.71 27.22,33.67 42.62,36.6 3.47,0.67 6.09,1.02 7.81,1.06 z m 63.47,-0.31 c 7.89,0.15 17.58,-1.45 32.89,-4.77 10.79,-3.36 7.97,-4.06 -4.96,-5.47 -24.25,-2.65 -14.14,-5.51 9.46,-5.08 32.15,0.24 -16.14,-11.6 -31.8,-13.98 -12.23,-0.55 -15.82,-0.08 -42.46,4.88 -10.16,1.92 -4.06,9.38 15.16,18.56 7.89,3.75 13.86,5.7 21.71,5.86 z m 198.87,-4.34 0.86,-20.74 -389.57,-325.74 -13.24,14.64 401.95,331.84 z m -132.54,-17.81 c 15.51,0.19 37.97,-10.59 35.55,-17.07 -0.9,-2.42 -2.62,-2.35 -14.49,0.82 -7.78,2.07 -21.72,4.26 -19.85,2.54 0.63,-0.59 11.49,-4.77 15.67,-5.74 13.71,-3.33 30.15,-11.06 26.52,-13.36 -6.37,-3.87 -12.19,-0.86 -19.73,-0.04 -18.82,2.61 -49.76,12.11 -54.88,16.87 -5.74,5.39 14.49,15.74 31.21,15.98 z m -181.72,-1.21 c 2.82,-0.16 3.83,-2.78 1.18,-6.33 -4.07,-5.35 -5.94,-9.84 -9.57,-16.45 -13.05,-20.11 -21.25,-28.04 -33.75,-35.86 -12.54,-7.81 -14.34,-6.44 -13.21,9.77 1.41,16.84 13.44,34.57 30.47,42.85 7.89,1.13 12.38,3.2 4.14,-6.68 -14.65,-17.54 -4.61,-15.74 9.06,4.18 4.34,6.33 8.87,8.63 11.68,8.52 z m -50.58,-2.39 c 8.44,0.08 11.25,-2.93 0.43,-8 -10.28,-4.85 -30.78,-19.14 -31.29,-20.75 -0.86,-2.65 6.83,1.53 19.57,8.48 17.03,9.3 18.51,9.1 10.31,-1.52 -9.33,-12.03 -31.76,-27.11 -49.33,-32.66 -24.61,-6.76 -23.99,-2.03 -10.24,16.21 13.09,19.85 24.22,29.34 41.02,34.73 7.34,2.38 14.45,3.51 19.53,3.51 z m -417.311,-3 c 89.262,-153.95 39.692,-310.39 -63.859,-390.16 -108.289,-83.398 -276.762,-78.441 -376.18,21.64 l 13.828,13.01 c -0.078,-0.04 156.684,-159.732 354.141,-17.97 100.199,71.91 141.601,241.76 58.949,360.16 l 13.121,13.32 z m -399.918,-0.35 c -0.269,0 -0.511,-0.04 -0.66,-0.16 -3.012,-1.95 -14.34,-35.2 -16.601,-48.99 -0.668,-4.02 0.308,-8 3.628,-11.25 2.301,-2.26 6.09,-0.78 7.262,-0.35 7.539,3.44 11.68,8.67 18.289,25.28 4.449,9.06 5.031,19.92 4.172,23.71 -0.351,1.52 -2.812,5.11 -5.851,7.15 -3.399,2.26 -8.211,4.64 -10.239,4.61 z m 1.758,-6.92 c 3.551,0.04 10.621,-5.78 11.481,-9.92 0.082,-7.23 -4.059,-19.22 -7.149,-17.42 -5.152,6.4 -11.09,2.34 -12.07,4.68 -0.66,7.11 3.91,16.41 7.039,22.58 0.23,0.04 0.461,0.08 0.699,0.08 z m 964.181,-5.74 c 39.69,-0.04 79.18,-11.64 108.12,-37.31 l -15.47,-14.21 c -67.96,48.47 -147.1,34.29 -193.98,1.6 -46.44,-32.35 -87.54,-103.99 -47.26,-204.89 l -14.54,-13.16 c -45.11,81.17 -20.89,188.4 58.91,239.14 28.13,17.89 64.18,28.13 100.35,28.79 1.29,0 2.58,0.04 3.87,0.04 z m -587.029,-11.84 c 1.207,0 3.039,-3.94 2.848,-8.79 -0.238,-5.82 -2.699,-13.39 -6.641,-15 -4.418,-1.79 -7.226,11.41 -7.226,11.41 2.738,4.3 6.449,8.67 11.019,12.38 z m 710.699,-4.57 c 1.64,0.08 3.2,0.04 4.57,-0.15 4.41,-0.55 4.45,-4.5 0.27,-8.32 -4.49,-4.11 -6.83,-4.34 -11.36,-1.02 -4.07,2.97 -4.26,5.12 -0.74,7.66 1.79,1.17 4.57,1.72 7.26,1.83 z m -762.378,-0.9 13.16,-16.25 -45.621,-36.68 -5.473,-0.43 -349.34,-289.29 -0.078,25.7 387.352,316.95 z m 729.918,-39.18 -47.58,-39.25 c -95.12,49.41 -171.37,-38.64 -144.45,-118.6 l -41.13,-35.7 c -73.64,201.95 141.6,271.05 233.16,193.55 z m -249.14,30.86 c 0.16,0.04 0.27,0.04 0.43,0 0.31,-0.07 0.62,-0.31 0.94,-0.62 1.68,-1.6 -1.64,-28.4 -4.11,-33.36 -0.89,-1.8 -1.6,-4.14 -1.6,-5.2 0.04,-2.18 -8.75,-20.54 -15.62,-32.69 -2.58,-4.57 -5.35,-10.55 -6.13,-13.36 -5.51,-26.48 -17.43,16.13 -13.21,40.9 1.96,11.6 18.48,35.62 23.28,33.87 2.43,-0.94 2.27,-2.78 -2.03,-12.04 -11.91,-25.93 -14.92,-39.33 -2.38,-14.25 14.45,28.9 18.2,36.32 20.43,36.75 z m -808.2,-0.54 c 1.75,-0.08 3.16,-1.06 3.898,-3.13 0.551,-1.76 1.102,-5.39 0.121,-7.19 -2.418,-5.5 -7.5,-9.1 -12.578,-8.78 -2.261,0.15 -4.73,2.1 -5,4.53 -0.269,2.22 0.239,5.93 3.008,8.75 3.633,3.71 7.582,6.01 10.551,5.82 z m 362.18,-1.64 c 5.628,-0.28 11.57,-15.43 7.82,-22.39 -3.129,-5.66 -3.68,-4.61 -9.11,6.37 -2.851,5.78 -5.031,11.95 -5.031,11.95 l 4.602,3.64 c 0.398,0.19 0.82,0.35 1.219,0.39 0.152,0 0.308,0.04 0.5,0.04 z m -9.489,-6.41 c 0,0 5.938,-10.74 7.379,-19.3 0.86,-5.23 0.75,-4.25 -5,-2.07 -4.531,2.82 -5.5,4.46 -8.32,7.97 -1.871,3.28 -3.711,5.67 -3.711,5.67 l 9.652,7.73 z m 35.629,-2.3 c 3,0.11 6.211,-2.93 9.18,-10.36 11.051,-27.81 10.039,-58.98 -2.391,-73.75 -2.07,-2.42 -2.57,-2.54 -5.039,-1.01 -2.031,1.25 -2.219,14.45 -0.269,18.2 0.629,1.17 2.461,9.14 2.578,13.67 0.312,10.67 -2.617,12.03 -4.02,2.11 -1.609,-11.44 -3.359,-19.45 -6.488,-12.54 -1.563,3.48 -2.383,6.96 -3.551,10.71 -6.211,24.02 1.012,52.65 10,52.97 z m -48.172,-7.11 c 0,0 10.672,-13.75 15.043,-18.68 1.52,-2.65 1.489,-3.32 -0.98,-4.25 -4.211,-1.61 -18.321,7.77 -23.903,10.66 -3.007,2.38 -1.679,4.22 -1.679,4.22 3.832,2.93 7.691,5.78 11.519,8.05 z m 419.732,-0.51 c 5.7,0.08 5.7,-1.92 -0.35,-10.63 -33.87,-48.71 -27.03,-41.44 -5.51,-14.84 11.99,14.8 14.06,16.21 15.35,12.93 1.02,-2.5 -13.24,-31.33 -20.62,-41.76 -3.79,-5.39 -16.8,-14.41 -23.36,-17.73 -16.1,-8.17 -14.34,-4.89 -8.36,15.31 7.58,31.33 26.64,56.56 42.85,56.72 z M 657.148,1364.24 C 749.922,1133.5 495.859,1032.25 381.211,1138.93 l 13.359,10.66 c 159.45,-108.16 316.879,65.12 244.809,200.71 0,0 6.519,5.43 17.769,13.94 z m 21.481,-5.58 c 15.281,-1.57 37.851,-29.53 38.992,-45.08 2.379,-11.06 -0.742,-12.97 -6.141,-5.2 -9.14,16.92 -8.039,6.21 -0.269,-10.58 4.141,-8.48 5.078,-18.64 0.777,-19.18 -5.859,1.17 -18.59,21.44 -22.457,29.8 -9.261,18.32 -9.961,15.24 -15.043,42.35 -0.937,5.07 0.391,7.85 4.141,7.89 z m -46.168,-7.58 c 70.66,-135.55 -81.371,-298.4 -236.012,-193.13 l 46.36,36.76 c 80.711,-38.71 170.742,9.3 144.961,120.63 l 44.691,35.74 z m 705.079,-25.28 -127.5,-106.25 c -26.21,88.09 70.12,138.36 127.5,106.25 z m -236.8,0.24 c 4.18,0.86 7.7,-25.82 8.48,-63.24 0.74,-36.6 1.68,-40.24 -9.69,-26.76 -4.76,5.51 -10.62,10.74 -13.24,15.66 -7.58,14.3 -5.16,29.26 -3.09,50.2 1.96,19.49 8.95,16.44 7.82,-3.99 -0.75,-13.16 -0.59,-29.49 1.48,-29.49 0.74,0.04 0.94,1.29 0.47,3.09 -0.98,3.75 3.51,46.13 5.39,51.13 0.78,2.15 1.6,3.24 2.38,3.4 z m -351.4,-16.13 c 9.211,-3.6 11.832,-34.34 1.871,-64.07 -4.301,-12.77 -10.902,-21.09 -20.699,-26.25 -6.992,-3.67 -8.633,-2.54 -5.473,3.91 5.781,10.43 8.91,21.25 11.25,34.73 0.941,13.12 -5.98,2.57 -5.391,-3.05 -5.429,-24.53 -12.578,-28.2 -11.679,-2.38 0.703,19.06 3.203,27.22 12.152,40.31 4.527,6.56 9.328,15.59 17.969,16.8 z m 319.8,-3.09 c 3.79,-0.04 4.73,-5.12 1.33,-15.04 -2.35,-6.87 -10.35,-29.1 -9.42,-29.02 0.59,0.04 9.18,20.04 10.94,23.32 2.85,5.35 3.95,6.37 6.45,6.13 2.46,-9.88 -0.08,-22.23 -1.29,-32.42 -5.2,-26.68 -23.36,-54.18 -30.31,-45.98 -11.33,13.32 -6.02,67.39 9.02,83.79 5.66,6.21 10.35,9.22 13.28,9.22 z m -485.589,-4.1 c 13.679,-94.26 -64.102,-134.49 -131.281,-106.06 1.441,0.36 131.281,106.06 131.281,106.06 z m 317.929,-1.76 13.52,-17.77 24.84,-1.29 -12.731,-18.71 12.661,-23.99 -27.7,-0.54 -15.941,-18.32 -13.828,16.52 -24.211,1.29 14.101,22.54 -11.41,21.52 26.168,1.25 14.531,17.5 z m -208.32,-8.08 c 3.129,-0.12 18.442,-20.24 19.93,-27.66 4.64,-18.01 2.93,-52.03 -3.559,-50.86 -6.992,24.53 -4.301,37.19 -6.801,34.37 -4.371,-4.53 2.7,-42.1 0.391,-51.36 -1.133,-2.35 -4.883,0.47 -9.101,6.56 -11.25,16.17 -9.719,79.53 -1.129,88.87 0.078,0.04 0.16,0.08 0.269,0.08 z m 828.99,-38.21 -306.37,-253.75 17.66,-22.772 289.26,238.832 -0.55,37.69 z m -442.5,-4.37 c 1.37,0.27 4.41,-1.88 10.15,-8.17 10.04,-13.51 20.67,-32.11 24.54,-46.44 1.44,-5.55 3.82,-12.93 5.23,-16.37 2.15,-5.19 2.34,-6.6 1.05,-8.16 -5.27,-6.57 -27.5,9.92 -34.64,25.7 -10.04,22.11 -10.32,42.07 -0.24,22.66 3.67,-7.07 8.24,-17.39 8.21,-13.29 -0.04,1.18 -4.5,16.02 -7.9,22.62 -2.1,4.18 -9.8,20.74 -6.4,21.45 z m 439.22,-6.17 0.66,-20.98 -285.31,-238.63 -11.21,13.628 c 0,0 268.75,223.512 295.86,245.982 z m -445.43,-12.97 c 1.33,-0.12 1.99,-2.03 1.6,-6.33 -1.29,-13.87 -4.73,-44.06 -3.99,-46.72 0.4,-1.6 4.5,20 5.43,23.83 4.89,20.04 12.35,-27.81 7.86,-49.26 -0.75,-3.36 -2.15,-8.79 -2.89,-12.15 -0.75,-3.32 -3.13,-9.06 -4.11,-10.55 -8.08,-12.73 -27.07,37.9 -23.86,63.68 1.99,16.05 15.15,38 19.96,37.5 z m -330.12,-11.1 c 3.75,0.2 4.45,-3.43 3.828,-11.13 -2.148,-26.41 -19.687,-54.14 -38.949,-61.52 -19.14,-7.35 -20.898,-5.86 -9.57,7.85 8.641,10.39 13.832,21.29 12.391,22.69 -0.79,0.78 -2.7,-3.55 -9.692,-12.5 -8.75,-11.25 -10.199,-1.75 -2.226,14.73 6.878,14.26 13.277,21.68 26.168,30.39 9.109,6.13 14.769,9.34 18.05,9.49 z m 173.52,-8.01 C 912.969,1098.38 884.648,974.871 829.922,867.52 l -51.133,-0.11 c 62.621,92.18 102.539,206.36 113.672,344.14 l 24.379,0.5 z m 22.461,-0.11 c 0,0 7.687,-7.97 10.777,-13.32 3.442,-5.9 4.41,-11.1 -1.84,-15.51 -7.258,-6.13 -10.269,-3.87 1.563,-19.06 6.219,-8.05 4.179,-9.34 -3.512,-16.1 -8.008,-6.95 -8.437,-7.34 -1.059,-16.75 7.969,-10.08 9.379,-11.65 -0.968,-19.42 -9.301,-7.03 -9.422,-8.67 -2.153,-20.08 6.719,-10.47 8.75,-10.39 -4.097,-21.25 -11.024,-9.29 -11.25,-6.72 -0.672,-23.79 3.91,-6.28 3.64,-6.71 -3.512,-13.04 -17.578,-15.51 -16.637,-14.53 -14.137,-18.64 19.219,-27.57 10.539,-26.789 -8.32,-39.96 -3.793,-3.239 -2.82,-6.911 5.699,-20.7 7.231,-11.718 6.168,-14.261 -10.742,-25.898 -17.617,-12.113 -18.207,-13.75 -9.418,-26.094 8.711,-12.187 8.871,-11.328 -5.191,-23.906 -6.367,-5.66 -11.598,-10.902 -11.598,-10.902 l -31.211,0 c 0,0 6.602,6.019 11.09,9.339 25.621,18.981 25.551,16.95 14.73,30.661 -9.57,12.109 -8.64,12.89 1.051,19.808 6.949,5 16.367,10.121 23.438,15.231 3.793,2.703 0.98,4.961 -5.348,16.921 -7.07,13.399 -7.461,11.829 5.699,22.692 14.45,11.879 14.692,11.449 6.879,26.488 -7.859,15.11 -8.008,13.79 1.91,21.87 14.731,12.03 15.43,11.37 7.692,25.31 -6.211,11.14 -6.25,10.82 4.179,21.25 10.551,10.51 9.219,9.85 3.008,19.46 -6.359,9.8 -6.008,11.13 2.352,18.55 8.98,8.01 7.73,7.54 0.269,17.74 -7.379,10.07 -7.269,9.33 1.68,17.14 4.691,4.11 9.41,8.29 9.18,10.24 -0.699,4.96 -5.469,12.03 -10.039,18.83 -1.758,2.61 1.761,3.4 7.34,9.22 5.671,5.89 5.429,4.41 1.14,12.26 -2.351,4.22 -6.762,11.37 -6.762,11.37 l 10.903,0.04 z m -83.641,-0.28 8.871,-0.23 c 0,0 1.52,-1.99 3.59,-4.1 5.75,-5.82 5.981,-9.26 0.238,-12.38 -5.507,-3.01 -3.398,-7.19 1.211,-13.95 4.879,-7.19 4.84,-6.37 -2.148,-13.4 -7.223,-5.9 -10.973,-7.54 -3.012,-18.67 4.539,-5.16 3.988,-10.47 -3.039,-15.08 -5.391,-3.55 -14.383,-6.52 -4.922,-20.04 4.602,-9.61 4.961,-9.02 -4.648,-15.86 -12.821,-9.1 -15.242,-7.5 -9.379,-20.78 6.558,-14.72 7.226,-14.96 -6.211,-24.84 -15.621,-11.49 -16.172,-12.42 -9.652,-26.17 6.562,-13.91 6.722,-10.39 -9.797,-23.25 -12.114,-9.449 -14.883,-9.961 -11.293,-17.73 6.722,-14.61 9.57,-18.551 -10.039,-28.59 -22.621,-11.61 -23.75,-12.461 -12.891,-29.692 8.832,-14.019 6.871,-12.027 -7.738,-20.429 -21.09,-12.149 -30.391,-17.418 -31.051,-21.207 -0.43,-4.262 16.449,-16.961 16.449,-16.961 l -29.418,-0.781 c 0,0 -12.383,10.039 -17.191,14.73 -13.32,12.93 -13.469,8.711 30.82,30.199 24.418,11.832 22.352,9.141 18.36,16.051 -11.75,20.43 -12.18,22.578 9.929,33.711 19.211,9.648 15.891,10.348 11.25,24.961 -4.07,12.738 -3.437,11.558 6.672,19.058 24.5,18.17 23.828,16.29 20,25.16 -3.742,8.75 -6.641,12.85 -3.82,17.15 8.82,12.66 27.578,15.35 19.918,30.39 -3.598,9.73 -4.879,11.87 5.941,20.27 9.719,8.13 9.762,7.15 3.551,17.85 -7.621,9.81 -6.52,11.41 4.609,19.15 7.93,7.22 7.809,7.03 3.36,14.1 -6.129,9.72 -5.821,10.04 2.929,17.69 7.11,6.25 8.36,6.6 3.789,13.48 -6.019,9.14 -5,11.17 2.93,15.62 4.883,2.78 4.844,3.87 4.41,8.52 -0.078,0.9 -2.578,6.05 -2.578,6.05 z m 110.391,-0.5 40.979,-0.12 c 13.09,-75.98 35.94,-107.19 49.18,-131.25 -51.83,-83.161 -40.04,-152.27 -8.4,-213.399 l -129.798,0.468 c 33.277,113.871 50.429,228.401 48.039,344.301 z m -281.281,-0.32 c 1.48,0.12 2.57,-2.34 5.109,-6.68 8.211,-13.98 2.391,-33.82 -9.609,-54.61 -9.02,-15.58 -10.622,-3.67 -6.52,18.72 2.578,14.14 -4.531,-7.04 -7.891,-24.11 -1.839,-9.25 -6.289,-16.71 -11.089,-16.25 -4.54,0.71 -3.168,13.68 -3.008,16.57 1.008,20.43 8.629,34.88 23.437,55.15 5.582,7.7 7.852,11.1 9.571,11.21 z m 418.35,-39.96 c 1.96,0.08 4.65,-0.74 8.01,-2.65 2.62,-1.49 7.31,-4.34 10.59,-6.14 11.37,-6.25 12.26,-8.16 6.87,-14.45 -6.68,-7.77 -10.97,-4.8 -22.5,8.13 -7.81,8.75 -7.93,14.88 -2.97,15.11 z m -3.78,-17.11 c 1.83,-0.04 5.62,-2.03 9.29,-6.25 7.5,-8.55 6.6,-15.78 -1.68,-13.71 -3.4,4.92 -5.15,12.46 -8.36,18.05 -0.74,1.25 -0.35,1.95 0.75,1.91 z m 366.05,-1.09 c -7.23,0 -19.37,-9.57 -21.72,-19.34 -7.03,-29.72 -7.03,-28.43 -0.7,-32.77 1.87,-1.25 3.24,-2.19 4.18,-2.77 3.67,-2.89 8.75,-7.42 9.41,-6.53 6.02,-0.04 15.16,38.05 14.85,45.9 0.39,8.28 0.7,9.3 -1.37,13.05 -0.94,1.72 -2.62,2.46 -4.65,2.46 z m -371.6,-0.63 c 0.47,0.08 1.09,-0.19 1.8,-0.78 4.76,-4.72 6.68,-13.2 9.1,-19.25 0,-1.29 -0.55,-3.48 -1.21,-4.77 -4.14,-7.89 -10.51,-0.23 -11.18,13.36 -0.39,7.66 0.04,11.13 1.49,11.44 z m 370.47,-5.89 c 0.35,0.04 0.62,0.04 0.94,0 4.84,-0.2 4.1,-5.24 -2.66,-12.54 -3.56,-3.87 -10.9,-5.67 -13.32,-3.28 -3.52,3.43 3.75,12.89 11.68,15.19 1.29,0.35 2.42,0.59 3.36,0.63 z m -823.131,-4.14 c 0.281,0 0.512,0 0.781,0 2.539,-0.16 4.692,-1.33 6.371,-3.25 3.239,-4.02 1.879,-10.23 0.348,-15.43 -3.859,-13.59 -29.328,-39.88 -38.43,-40 -5.469,0.98 17.262,29.85 18,34.73 -1.719,1.64 -15.777,-14.61 -22.418,-25.94 -3.011,-5.11 -6.402,-11.4 -8.203,-12.54 -4.769,-0.54 -10.238,-3.55 -10.277,-0.35 0.82,14.42 29.07,45.9 38.679,54.65 5.93,5.55 11.051,8.05 15.149,8.13 z m 68.172,-1.37 c 21.828,0.23 -21.18,-47.54 -48.992,-54.42 -8.668,-2.14 -24.61,-2.69 -25.778,-0.89 -1.133,1.79 0.16,3.24 3.707,4.18 5.742,1.52 34.184,19.61 34.141,21.71 -0.039,2.7 -11.758,-1.75 -21.789,-8.24 -6.488,-4.18 -9.539,-3.32 -6.02,1.76 16.328,23.48 38.16,35.59 64.731,35.9 z m 377.889,-0.08 c 1.25,-0.12 2.5,-2.58 3.24,-8.05 3.98,-10.23 4.18,-13.04 0.43,-16.05 -6.41,-5.16 -7.97,-3.71 -7.89,8.12 0.04,9.77 2.15,16.14 4.22,15.98 z m -719.221,-13.59 c 0,0 7.972,-2.97 4.652,-6.76 -2.312,-2.62 -12.109,-0.39 -12.109,0.39 l 7.457,6.37 z m 1096.801,-0.28 c 2.61,0.16 2.65,-2.26 1.28,-8.32 -0.74,-3.16 -3.86,-19.88 -9.41,-24.53 -0.7,-0.47 -8.75,4.34 -10.94,6.56 -1.01,1.06 -4.18,3.4 -4.57,4.93 -1.4,5.07 0.08,11.64 3.91,14.92 1.52,1.29 4.53,1.99 6.13,1.99 1.29,0.04 5.04,1.25 8.36,2.73 2.35,1.02 4.06,1.65 5.24,1.72 z M 370.738,1115.14 c 5.282,0.04 11.723,-0.51 17.153,-2.38 16.089,-4.69 45.66,-17.89 50.199,-22.27 6.601,-6.29 -10.668,-13.04 -31.41,-13.28 -11.02,-0.12 -13.09,2.19 -28.321,11.29 -1.949,1.29 -10.82,7.11 -8.238,9.22 2.809,2.89 11.328,-0.82 21.91,-6.17 3.438,-1.76 11.879,-1.25 11.84,0.27 0,1.84 -21.172,9.69 -36.992,14.73 -10.43,3.32 -10.16,6.64 -3.789,8.08 1.832,0.28 4.531,0.51 7.648,0.51 z m -20.777,-7.23 c 0,0 4.379,-3.86 10.039,-8.12 6.172,-4.61 13.359,-10.31 18.32,-17.89 7.231,-8.79 18.59,-30.67 17.34,-34.65 -2.93,-9.06 -33.359,6.88 -58.238,31.76 -8.082,8.08 -12.813,14.1 -12.813,14.1 l 9.493,8.59 c 0,0 8.32,-6.95 17.968,-15.47 18.09,-15.93 17.93,-10.46 -0.23,6.33 -5.16,4.73 -9.891,8.99 -9.891,8.99 0.242,3.04 3.129,5.74 8.012,6.36 z m 743.439,-0.74 c 0,0 9.72,-10.08 13.32,-14.72 -59.22,-57.9 -81.84,-138.79 -24.69,-224.93 l -27.42,0.121 c -51.37,101.089 -27.03,177.229 38.79,239.529 z m -500.9,-2.38 c 3.672,0.16 0.352,-4.18 -6.211,-15.31 -12.187,-20.75 -14.609,-25.98 -34.41,-31.18 -5.117,-1.32 -12.391,-0.27 -15.399,-0.62 -8.511,-1.09 -4.718,0 8.36,8.48 18.09,11.72 2.699,5.66 -14.02,-2.93 -9.691,-5 -19.84,-4.73 -20.742,-2.15 -0.469,1.4 3.942,5.15 6.801,7.69 25.461,22.78 33.281,21.84 56.992,30.08 10.309,3.6 16.129,5.82 18.629,5.94 z m -106.48,-20.78 c 9.21,-0.08 17.808,-0.98 25.46,-2.7 5.079,-1.13 13.321,-2.15 6.372,-8.43 -7.891,-7.43 -29.141,-17.54 -44.883,-18.21 -2.231,-0.08 -34.61,2.23 -27.699,9.18 1.371,0.74 5.781,0.55 9.57,1.25 17.969,3.4 13.09,6.29 -9.02,5.12 -27.66,-1.49 -28.941,1.41 -7.968,7.11 15.308,4.22 30.386,6.37 44.179,6.64 1.367,0.04 2.66,0.04 3.989,0.04 z m 147.89,-2.11 c 12.301,0.12 21.871,-2.11 21.949,-6.8 0.082,-7.62 -23.238,-24.3 -38.558,-27.62 -3.629,-0.78 -8.75,-1.91 -11.403,-2.5 -5.347,-1.21 -34.918,-0.15 -37.808,0.86 -13.828,5.04 -4.219,7.04 21.211,9.96 11.051,1.29 16.32,4.18 16.289,6.29 0,1.02 -8.168,1.29 -20.281,-0.23 -13.547,-1.72 -10.899,2.27 5.98,11.02 11.133,5.78 28.633,8.86 42.621,9.02 z m -228.012,-10.59 c 1.762,-0.04 5.903,-1.44 12.813,-4.33 14.73,-4.3 35,-9.14 48.867,-24.3 11.211,-10.86 13.942,-14.34 11.602,-18.16 -2.852,-4.61 -37.621,-1.1 -52.27,5.15 -9.64,4.14 -21.172,12.97 -26.441,20.67 -12.739,18.55 -7.379,23.43 8.832,10.46 19.488,-15.62 22.418,-17.26 25.859,-16.52 1.399,0.27 -2.039,3.48 -8.601,8.36 -16.438,12.19 -24.45,18.79 -20.661,18.67 z m 120.313,-19.92 c 16.367,-0.04 19.879,-1.25 35.738,-8.51 19.891,-7 15.082,-13.25 -20.187,-22.04 -17.66,-4.14 -35.434,-1.25 -48.321,6.72 -28.402,17.46 -26.531,20.98 5.188,13.17 10.43,-2.58 20.82,-3.05 21.449,-1.1 0.512,1.49 -12.109,4.69 -22.379,8.09 -11.097,3.67 -1.527,3.36 20.621,3.59 2.969,0.04 5.551,0.08 7.891,0.08 z m 817.699,-75.55 c 0,0 -3.64,-1.711 -5.24,-2.61 -1.25,-0.671 -11.09,-1.921 -21.83,-2.699 -21.18,-1.601 -35.43,-5 -48.29,-10.152 -19.41,-7.82 -32.38,-31.879 -32.38,-31.879 14.49,1.02 96.6,-13.828 119.42,15.738 4.76,6.172 -12.27,-46.758 -20.98,-49.097 -21.64,2.578 -30.78,-31.371 -28.59,-29.922 -21.84,-8.481 -38.75,-13.438 -33.21,-38.75 2.42,-11.059 13.6,-24.18 37.35,-20.899 -6.49,-43.91 47.3,-55.269 53.2,-2.3 0,0 10.51,1.992 14.53,2.46 24.49,5.821 30.43,41.598 -5.55,52.969 -9.96,2.961 -10.54,4.84 -10.54,4.84 1.87,8.09 1.44,16.563 -4.42,25.981 7.93,18.902 27.7,55.351 27.7,55.351 l -41.17,30.969 z m 3.79,-10.93 c 4.96,-6.609 -20.82,-17.539 -48.29,-19.89 -6.17,-0.54 -19.72,-1.79 -20.07,-2.379 -2.93,-5.192 53.12,-1.442 70.58,8.359 5.98,3.359 6.53,0.391 3.91,-4.77 -20.28,-26.089 -69.22,-19.64 -107.46,-15.07 -2.19,2.18 -0.35,4.879 8.24,11.828 15.7,12.782 27.03,17.032 51.87,19.571 6.92,0.242 38.13,6.101 41.22,2.351 z m 30.35,-26.961 c -3.56,-11.25 -21.96,-45.469 -21.96,-45.469 -2.26,-2.261 -10.35,-3.859 -9.72,4.809 0.08,9.301 17.5,47.621 22.22,48.359 5.59,0.43 9.73,-3.668 9.46,-7.699 z m 11.68,-2.609 c 5.39,-39.301 35.19,-48.641 63.79,-61.02 7.53,-3.441 13.9,-9.57 21.48,-13.55 14.1,19.289 -1.8,56.71 -26.68,68.902 -18.52,8.629 -35.35,15.508 -45.78,14.726 -6.02,-0.429 -12.74,-4.296 -12.81,-9.058 z m 15.27,2.34 c 3.2,0.039 7.81,-0.899 24.49,-5.352 25.24,-6.68 43.01,-25.308 47.66,-49.808 0.19,-0.969 1.48,-19.961 -2.89,-19.29 -6.56,1.911 -10.08,8.508 -20.63,12.93 -13.12,5.469 -31.6,12.731 -42.89,23 -9.14,8.289 -14.14,17.231 -15.27,24.891 -1.13,7.969 1.52,8.75 8.2,2.34 14.96,-11.911 29.73,-15.981 44.53,-27.461 4.1,-3.2 18.83,-11.371 8.79,-1.211 -6.83,6.91 -26.91,18.941 -37.61,24.062 -14.81,7.11 -22.86,15.778 -14.38,15.899 z M 269.41,898.461 438.441,634.238 C 396.84,612.289 376.328,602.68 307.27,608.07 l 0.269,-3.48 -29.379,1.719 c 50.711,-79.137 113.289,-182.379 95.551,-362.5 l 205.898,0.203 c 0,0 3.2,-3.051 3.512,-3.242 3.008,-2.04 7.539,3.55 7.539,3.55 l 92.891,0.508 2.5,-3.008 43.328,0.309 c 0,0 -198.051,370.551 -297.5,554.531 C 391.02,870.488 348.48,903.27 269.41,898.461 z m 1065.9,-8.75 c 11.1,0.269 22.15,-7.34 22.23,-22.152 0.04,-7.731 -6.49,-18.508 -6.49,-18.508 l -15.07,14.371 -14.42,-14.41 c -7.11,5.859 -11.33,17.027 -8.98,23.398 4.41,10.86 14.1,17.11 22.73,17.301 z m -174.8,-5.231 c 14.29,-55.75 29.72,-132.66 -94.3,-310.32 C 992.809,469.09 968.789,369.949 965.859,248.969 l -7.379,-0.039 c 3.469,66.41 3.942,186.8 3.942,186.8 l 6.957,6.168 c 0,0 -3.168,5.122 -4.578,11.133 -2.34,10.117 -0.352,6.719 5.711,33.91 C 995.859,618.27 1160.51,884.48 1160.51,884.48 z M 498.051,858.891 1126.76,856 1118.4,839.52 510,843.852 498.051,858.891 z m 838.039,-4.762 23.36,-22.738 -22.81,-25.621 -24.02,25.109 23.47,23.25 z m -19.14,-9.688 -12.73,-13.519 11.05,-11.641 c -11.36,-23.832 -41.64,-5.23 -40.62,12.617 1.21,20.903 25.58,29.454 42.3,12.543 z m 40.35,-26.921 10.16,12.89 -11.48,12.578 c 18.79,18.563 36.52,2.231 38.24,-13.238 1.83,-16.48 -23.87,-35.121 -36.92,-12.23 z m -744.64,15.781 51.52,-0.5 -19.141,-35.821 -52.23,0.231 19.851,36.09 z m 114.762,-0.27 47.269,0 -19.961,-36.332 -47.851,0 20.543,36.332 z m 111.68,0 50.199,0 -20.352,-36.332 -51.57,0 21.723,36.332 z m 112.308,0 51.36,0 -18.711,-36.332 -53.278,0 20.629,36.332 z m 114.41,0 49.49,0 -20.08,-36.332 -50.89,0 21.48,36.332 z m -546.558,-0.191 33.238,0 -13.59,-23.91 -19.648,23.91 z m 829.368,-22.891 c 19.03,-15.277 5.78,-40.398 -14.02,-40.859 -13.67,-0.32 -33.52,22.808 -12.03,41.64 l 14.26,-13.05 11.79,12.269 z m -699.681,-19.34 48.352,0 -18.16,-32.699 -47.379,0 17.187,32.699 z m 107.531,-0.23 53.051,0 -18.711,-32.699 -50.468,0 16.128,32.699 z m 113.598,0 52.774,0 -17.231,-32.699 -53.32,0 17.777,32.699 z m 113.16,0 52.382,0 -16.32,-32.699 -55.351,0 19.289,32.699 z m -431.91,-1.25 33.402,0 -14.261,-26.219 -19.141,26.219 z m 25.152,-37.93 490.08,-4.34 -8.32,-15.898 -469.291,-0.082 -12.469,20.32 z m 17.231,-28.437 459.219,-1.172 -10.55,-21.961 -158.669,0.711 c -30.941,23.121 -66.332,12.422 -106.68,-0.711 0,0 -121.48,-1.289 -169.261,0 l -14.059,23.133 z m 644.449,-56.133 c 25.47,-32.617 43.75,-78.051 51.18,-113.867 7.34,-36.641 -0.63,-54.571 -10,-22.5 -15.51,80.148 -110.59,91.867 -153.01,29.758 -58.95,-86.29 44.29,-191.008 118.32,-120.86 6.33,5.981 9.8,7.43 11.95,4.93 2.5,-2.93 0.78,-5.551 -12.42,-18.828 -51.41,-51.801 -32.3,-126.371 37.3,-143.711 98.87,-24.61 158.6,96.211 72.23,153.238 -8.98,6.84 -9.92,8.551 -6.68,12.231 2.93,3.32 5.47,2.929 13.48,-4.301 74.02,-66.949 175.15,20.551 128.32,111.011 -36.1,69.731 -136.49,56.918 -160.51,-20.539 -4.49,-14.421 -4.8,-15.281 -7.3,-16.882 -10.32,-0.387 -3.05,33.64 -1.49,42.66 11.64,39.73 24.53,76.91 49.1,107.66 l -130.47,0 z M 440.98,629.59 683.199,247.289 l -53.551,0.59 -229.957,359.641 41.289,22.07 z m 1189.68,-22.34 c 1.61,-1.211 24.18,-63.281 19.77,-68.949 -1.37,-4.492 -5.2,-2.961 -6.68,2.66 -14.06,53.629 -80.39,44.609 -79.8,-10.859 0.39,-34.332 35.66,-49.141 66.32,-27.852 4.53,3.16 6.61,3.238 6.64,0.199 0,-0.898 -3.51,-5.59 -7.85,-10.429 -24.65,-27.469 -15.35,-65.36 17.89,-73.168 44.69,-10.473 66.33,39.847 32.74,76.019 -4.89,5.27 -8.91,10.109 -8.91,10.777 -0.04,2.692 3.75,2.231 8.09,-1.019 31.01,-23 68.79,-7.457 68.36,28.09 -0.59,46.953 -58.91,59.332 -74.96,15.902 -3.99,-10.82 -5.94,-13.711 -7.97,-11.723 -7.85,4.102 20.97,71.051 21.79,71.051 l -55.43,-0.699 z M 392.461,604.672 621.09,247.371 c -10.469,0.231 -20.231,-0.391 -30.699,-0.242 4.257,66.723 -49.45,98.012 -81.012,99.609 18.941,78.051 -37.969,110.864 -75.899,117.071 15.391,101.41 -68.601,115.781 -69.808,114.769 0.387,8.32 -1.172,14.332 -2.262,21.293 l 31.051,4.801 z m -37.07,-5.66 c -0.469,-2.153 4.3,-22.352 -4.731,-18.633 l -0.621,18.59 5.352,0.043 z M 307.27,598.5 c 3.242,-13.441 10.152,-16.09 19.531,-25.121 0,0 -12,-2.027 -14.77,-0.109 -5,3.429 -15.39,25.351 -15.39,25.351 L 307.27,598.5 z m 35.742,-22.73 c 5.816,0 10.508,-4.731 10.508,-10.508 0,-5.821 -4.692,-10.512 -10.508,-10.512 -5.782,0 -10.473,4.691 -10.473,10.512 0,5.777 4.691,10.508 10.473,10.508 z m 20.777,-8.09 c 30.082,1.992 73.711,-30.27 62.191,-90.66 -2,4.21 -4.339,13.511 -9.218,20.07 -20.742,27.969 -45.16,-10.352 -28.711,-25.969 8.078,-7.699 11.828,-10.711 10.969,-11.41 -18.551,3.519 -32.571,-12.891 -24.879,-31.09 12.89,-23.601 30.738,-11.101 41.089,2.891 0,0 6.372,-21.102 12.7,-23.793 9.691,-4.098 23.05,1.09 27.621,12.812 6.75,17.418 -9.731,21.879 -13.321,31.559 34.758,-1.129 79.098,-51.988 58.942,-96.09 2.656,10.078 -8.121,32.578 -29.063,26.762 -10.468,-3.633 -14.14,-18.871 -5.699,-34.571 2.731,-5 4.18,-6.882 4.18,-6.882 0,0 -9.07,-1.207 -11.449,-2.649 -27.192,-16.762 7.847,-62.43 28.089,-33.871 2.071,3.402 5.469,7.262 5.469,7.262 3.321,-6.36 4.332,-15.313 10.422,-18.352 25.039,-12.621 36.219,13.981 25.707,27.031 -5.937,7.34 -12.617,15.821 -12.617,15.821 -1.051,4.719 75.039,-15.242 65.777,-89.301 l -201.758,0.27 c 18.719,113.75 -26.558,243.871 -49.679,283.519 l 10,13.199 c 2.5,-4.918 6.679,-17.258 14.058,-19.648 23.403,-7.539 30.512,8.832 27.379,25.672 -1.679,8.937 -14.218,16.129 -18.199,17.418 z M 417.23,460.648 c 5.5,0 9.961,-4.488 9.961,-10 0,-5.468 -4.461,-9.918 -9.961,-9.918 -5.511,0 -10,4.45 -10,9.918 0,5.512 4.489,10 10,10 z m 1198.51,-92.027 c -13.4,12.5 -28.24,12.18 -41.68,10.699 l -0.7,-28.199 c 0,0 33.2,1.68 28.79,-15.551 -1.17,-3.398 -2.77,-14.73 -2.77,-14.73 l -0.43,-144.57 c 5.39,-63.508 87.18,-76.25 107.34,-15.93 3.91,10.269 3.24,19.64 3.24,30.859 l 0,76.25 23.28,0.461 -0.9,27.07 -21.29,-0.308 c 1.57,38.047 -5.03,74.726 -31.75,83.437 -29.42,8.832 -47.85,1.371 -63.13,-9.488 z m 69.38,-65.082 c -13.52,-2.461 -32.42,23.09 -47.97,41.371 7.15,13.711 28.83,11.25 36.91,2.809 11.72,-12.188 10.9,-34.77 11.06,-44.18 z M 492.93,342.172 c 5.59,0 10.082,-4.492 10.082,-10.082 0,-5.539 -4.492,-10.039 -10.082,-10.039 -5.551,0 -10.039,4.5 -10.039,10.039 0,5.59 4.488,10.082 10.039,10.082 z m 1133.28,-24.293 c 14.3,-27.899 58.13,-49.258 58.79,-45 l 0.23,-76.68 c 2.23,-30.711 -8.55,-45.668 -28,-47.699 -34.14,-0.352 -33.75,42.031 -33.79,65.66 l -0.43,75.668 c 0.19,9.102 -0.9,20.473 3.2,28.051"
         inkscape:connector-curvature="0"
         id="path24"
         style="fill:#000000;fill-opacity:1;fill-rule:nonzero;stroke:none" /></g></g></svg>