<?xml version="1.0" encoding="UTF-8" standalone="no"?>
<!-- Created with Inkscape (http://www.inkscape.org/) -->

<svg
   xmlns:dc="http://purl.org/dc/elements/1.1/"
   xmlns:cc="http://creativecommons.org/ns#"
   xmlns:rdf="http://www.w3.org/1999/02/22-rdf-syntax-ns#"
   xmlns:svg="http://www.w3.org/2000/svg"
   xmlns="http://www.w3.org/2000/svg"
   xmlns:inkscape="http://www.inkscape.org/namespaces/inkscape"
   version="1.1"
   width="225"
   height="315"
   id="svg2"
   xml:space="preserve"><metadata
     id="metadata8"><rdf:RDF><cc:Work
         rdf:about=""><dc:format>image/svg+xml</dc:format><dc:type
           rdf:resource="http://purl.org/dc/dcmitype/StillImage" /></cc:Work></rdf:RDF></metadata><defs
     id="defs6" /><g
     transform="matrix(1.25,0,0,-1.25,0,315)"
     id="g10"><g
       transform="scale(0.1,0.1)"
       id="g12"><path
         d="m 89.0195,2508.52 1615.7505,0 c 47.11,0 85.03,-37.93 85.03,-85.04 l 0,-2324.4214 c 0,-47.1094 -37.92,-85.0391 -85.03,-85.0391 l -1615.7505,0 c -47.1093,0 -85.03903,37.9297 -85.03903,85.0391 l 0,2324.4214 c 0,47.11 37.92973,85.04 85.03903,85.04"
         inkscape:connector-curvature="0"
         id="path14"
         style="fill:#ffffff;fill-opacity:1;fill-rule:nonzero;stroke:none" /><path
         d="m 89.0195,2508.52 1615.7505,0 c 47.11,0 85.03,-37.93 85.03,-85.04 l 0,-2324.4214 c 0,-47.1094 -37.92,-85.0391 -85.03,-85.0391 l -1615.7505,0 c -47.1093,0 -85.03903,37.9297 -85.03903,85.0391 l 0,2324.4214 c 0,47.11 37.92973,85.04 85.03903,85.04 z"
         inkscape:connector-curvature="0"
         id="path16"
         style="fill:none;stroke:#000000;stroke-width:7.9738698;stroke-linecap:butt;stroke-linejoin:miter;stroke-miterlimit:4;stroke-opacity:1;stroke-dasharray:none" /><path
         d="m 1126.05,2297.15 c 0,0 202.39,-292.5 270.98,-344.42 5.08,-2.34 89.69,13.79 89.69,13.79 -43.4,103.83 -71.29,211.25 -43.13,331.64 l -317.54,-1.01 z m 112.47,-462.58 c -139.5,-39.37 -278.75,-76.41 -429.969,-12.23 L 643.398,1662.77 c -1.367,-4.1 214.024,-96.87 217.383,-86.72 L 807.77,1406.8 930,1379.88 l 56.129,180.04 c 0,0 168.711,16.17 247.031,43.05 59.57,20.43 121.14,35.27 174.34,79.65 -109.84,66.01 -169.1,152.73 -168.98,151.95 z m -839.071,-47.19 c -52.847,32.46 -94.179,-34.33 -55.469,-67.69 -4.57,-19.46 -6.089,-48.44 12.739,-61.17 17.34,-10.98 49.609,0.39 54.301,0.27 0.308,0 0.82,-35.08 -1.879,-34.96 -5,0.15 -23.911,16.25 -35.59,19.76 -39.371,11.8 -94.801,17.66 -93.821,15.59 1.641,-3.4 -9.808,-11.48 34.141,-39.1 16.328,-10.24 67.93,1.33 109.059,-11.64 25.039,-7.93 49.648,-21.06 63.242,-14.49 17.187,7.18 37.226,29.84 43.707,48.32 1.801,20.19 -103.117,-23.48 -96.758,-24.18 l -0.312,40.66 c 42.269,-4.65 80.429,26.02 38.871,78.55 30.98,30.75 -12.34,104.07 -72.231,50.08 z m 176.172,-186.01 c -103.98,-104.85 -316.562,-301.6 -316.562,-301.6 l 2.269,-146.84 207.692,-185.821 c 16.449,197.271 128.558,381.411 235.32,473.511 9.801,28.01 -106.102,150.94 -128.719,160.75 z m 741.019,-36.25 c -15.66,-121.33 -29.92,-286.76 -235.7,-470.63 35.66,-60.74 81.05,-122.541 146.36,-152.068 4.65,-10.434 188.83,190.588 302.11,285.628 l -0.58,128.75 -212.19,208.32 z m -927.538,-26.06 c -0.43,-2.61 -8.012,-34.49 -10,-33.67 0.16,-1.72 21.097,7.77 23.476,16.52 2.07,7.66 6.832,18.05 7.152,19.5 -4.691,32.81 -13.64,9.53 -20.628,-2.35 z m -77.032,-84.8 c -7.5,-18.05 -14.492,-51.21 -11.91,-72.81 36.871,-18.44 46.871,58.28 36.949,65.62 -5.937,2.5 -20,7.38 -25.039,7.19 z M 1449.96,1102.5 c -3.44,-15.27 -2.69,-19.84 4.1,-22.81 11.92,-5.24 17.31,1.09 26.88,26.01 5.7,14.81 10.78,37.15 6.17,46.02 -22.58,15.74 -34.53,-37.66 -37.15,-49.22 z m -557.23,35.94 c -7.218,-0.04 -14.179,-0.63 -20.621,-2.11 -60.82,-13.91 -56.211,-120.2 -66.558,-162.541 C 614.531,946.52 563.98,933.551 511.641,912.031 430.23,878.59 404.449,858.199 382.93,841.371 396.449,842.93 542.5,706.762 550.039,687.539 c -9.301,26.371 282.539,90.512 437.973,26.09 19.058,-6.828 164.288,140.902 159.688,157.391 18.86,33 -183.009,70.07 -208.481,90.699 -20.899,112.421 141.011,174.021 28.902,170.741 -20.422,-0.58 -49.57,6.21 -75.391,5.98 z m 508.09,-126.29 c -3.59,-4.26 -7.23,-6.49 -11.87,-11.49 l -10.67,-14.058 7.77,-12.543 19.89,21.921 -5.12,16.17 z M 1258.4,870.738 c 20.94,9.461 95.35,45.551 98.55,37.192 l -1.6,-36.09 c -11.37,3.711 -84.84,-8.442 -42.34,-84.262 -26.76,-60.238 32.85,-91.289 74.65,-51.488 87.54,-30.039 75.82,57.582 57.73,71.719 14.26,22.113 -3.63,69.179 -12.54,69.339 0,0 76.37,-17.187 68.91,-3.597 -3.4,6.219 -7.66,16.918 -24.65,28.25 -19.57,13.039 -53.95,8.32 -81.76,14.14 -29.73,6.207 -48.9,16.868 -73.9,18.36 -37.7,-3.442 -72.93,-36.571 -63.05,-63.563 z M 407.07,586.449 301.84,558.32 c 0,0 34.019,-78.98 45.82,-149.449 14.41,-86.172 2.891,-179.851 2.891,-179.851 l 305.469,-1.559"
         inkscape:connector-curvature="0"
         id="path18"
         style="fill:#e2cf00;fill-opacity:1;fill-rule:nonzero;stroke:none" /><path
         d="m 1649.69,98.75 c -40.2,13.98 -41.02,39.301 -42.42,71.559 -2.39,48.91 -1.96,100.39 5.07,140.242 2.7,12.148 4.14,18.32 -7.96,22.609 -6.68,2.309 -13.36,1.371 -20,2.391 l 0,30.187 c 12.65,0.672 24.41,0.633 35.11,-5.699 4.85,-2.93 10.2,-6.168 10.2,-6.168 15.78,14.879 57.15,17.109 76.83,-1.293 13.01,-13.168 17.23,-24.137 18.09,-53.75 0.62,-21.84 0,-23.359 0,-23.359 l 22.69,0.152 0,-29.332 -22.69,0 c 0,0 0.51,-14.609 0,-46.211 -0.39,-24.609 -0.86,-40.699 -2.58,-52.418 -7.73,-40.82 -44.1,-58.0897 -72.34,-48.91 z m 43.55,50.551 c 7.89,21.051 4.57,102.461 4.57,102.461 -33.86,13.008 -48.24,33.437 -62.03,47.929 0,0 -5.74,-90.39 1.13,-139.031 6.25,-40.39 42.7,-46.398 56.33,-11.359 z m 0.16,136.91 c 1.87,-0.27 3.98,-0.391 4.26,0.391 2.57,7.308 -1.92,37.886 -9.57,44.058 -20.63,16.531 -39.46,0 -38.83,-0.738 9.72,-13.242 21.13,-27.731 35.86,-39.184 2.77,-2.34 5.15,-4.058 8.28,-4.527 z M 681.371,228.52 C 547.34,419.84 423.121,601.801 258.238,802.379 c 0,0 0.16,77.5 0.742,154.422 l 506.571,-726.371 -84.18,-1.91 z m 469.249,249.96 c 66.41,72.071 116.68,148.86 161.33,227.34 50.9,-90.351 109.81,-163.98 174.85,-224.769 -63.75,-64.492 -121.6,-138.242 -167.42,-230.93 -37.23,70.859 -85.51,144.758 -168.76,228.359 z m 440.75,23.161 c 28.32,29.687 52.69,62.929 75.62,98.05 25.47,-36.101 40.78,-63.132 75,-101.211 -29.37,-31.101 -54.06,-62.39 -74.18,-96.371 -24.26,38.59 -49.49,74.493 -76.44,99.532 z m -638.64,35.781 c -4.332,36.328 -11.71,79.808 -22.378,117.226 l 92.498,87.231 c -9.96,-77.93 -25.311,-137.738 -70.12,-204.457 z m 442.04,274.848 c 20.7,-27.5 -14.22,-42.739 -27.43,-30.508 -26.75,24.797 12.43,50.429 27.43,30.508 z M 477.699,985.43 c -15.359,-9.84 27.571,239.73 145.391,368.71 71.68,-205.31 -54.77,-320.39 -145.391,-368.71 z m 581.321,0.898 -78.282,21.132 38.992,109.45 c 0,0 73.47,-17.22 67.18,-39.96 -20.39,-73.98 -27.89,-90.622 -27.89,-90.622 z M 696.719,1028.4 c 21.211,34.84 37.301,73.24 52.109,112.58 l 111.25,15.39 -64.488,-125.08 -98.871,-2.89 z m 471.681,153.59 c -60.59,120.59 10.78,311.49 142.58,364.03 -4.77,-122.31 -42.7,-246.18 -142.58,-364.03 z m -407.111,34.26 c 2.691,42.85 -2.23,87.73 -8.168,127.5 l 275.469,-36.72 9.65,-115.43 -276.951,24.65 z m 201.602,183.44 c 9.339,36.72 17.621,67.3 35.66,97.07 20.039,-0.63 101.409,12.73 91.019,-3.05 -22.11,-28.32 -32.69,-74.22 -47.19,-103.12 -15.19,1.6 -84.06,-10.24 -79.489,9.1 z m -182.461,21.05 c -27.852,9.85 -65.942,12.58 -80.782,34.1 l 28.981,91.84 85.82,-26.33 -34.019,-99.61 z m 240.86,876.17 67.26,0.67 c 0,0 323.17,-413.56 444.3,-574.46 -4.02,-16.4 1.37,-155.19 1.37,-155.19 -171.56,241.45 -512.93,728.98 -512.93,728.98 z M 401.52,1719.92 c -18.04,19.42 10.671,36.6 22.621,19.26 10.55,-15.27 -13.09,-29.49 -22.621,-19.26 z m 362.66,67.81 c 1.019,95.82 68.98,209.57 68.281,206.65 -0.781,0.19 9.687,-93.68 22.738,-123.21 -3.519,-5.19 -87.82,-89.45 -91.019,-83.44 z m -289.489,31.8 c -52.703,100.74 -115.98,177.03 -171.14,230.51 68.679,64.96 120.16,145.19 173.008,224.22 43.601,-82.89 100.32,-158.67 163.871,-230.67 -63.75,-62.65 -124.02,-151.4 -165.739,-224.06 z M 50.8984,2023.98 c 30.8633,30.79 76.4416,100.82 76.0116,100.9 21.68,-35.43 44.57,-72.11 76.059,-101.4 -0.348,0.31 -48.789,-51.8 -73.828,-100.78 -22.34,40.82 -51.8402,76.36 -78.2426,101.28 z m -4.3789,222.78 0,29.69 22.1914,0 c 0,0 -0.2695,-2.43 -0.082,38.04 0.2422,56.6 3.0899,73.99 14.3828,88.44 30.5083,38.95 86.3983,26.99 101.0903,-21.56 1.128,-3.71 3.668,-13.05 3.91,-25.47 0.66,-32.19 0.699,-85.63 -0.352,-119.02 0.539,-13.09 -4.14,-30.16 -7.5,-33.05 1.641,-11.92 20.352,-14.3 32.07,-13.36 l 0,-31.06 c 0.04,0.16 -11.921,-1.13 -26.019,0 -5.941,0.47 -19.652,11.76 -19.652,11.76 0,0 -21.637,-14.88 -41.129,-14.49 -63.7503,1.33 -56.68,80.9 -56.4808,89.96 l -22.4297,0.12 z m 51.0586,-7.81 c 0,0 0.043,-11.18 0.7422,-18.64 2.2307,-24.69 18.3207,-37.46 34.3787,-33.08 8,2.5 12.692,7.34 12.692,7.34 -13.629,20.23 -29.879,37.27 -47.8129,44.38 z m 59.2229,123.43 c -6.801,37.23 -41.84,42.93 -55.039,11.45 -2.3831,-5.67 -4.3831,-50.51 -4.3831,-50.51 l 0.2813,-52.97 c 28.4298,-6.25 44.1018,-24.49 61.8708,-45.19 0,0 3.559,95.23 -2.73,137.22"
         inkscape:connector-curvature="0"
         id="path20"
         style="fill:#d40000;fill-opacity:1;fill-rule:nonzero;stroke:none" /><path
         d="m 245.66,2314.45 -2.5,-2096.641 1304.54,-0.231 -0.47,2093.472 -1301.57,3.4 z m 1192.19,-16.4 c -10.58,-116.02 -12.46,-206.92 47.74,-327.23 -10.86,-11.41 -92.78,-14.65 -118.6,-28.12 -0.47,-3.25 6.64,-8.87 6.64,-8.87 26.99,12.54 132.31,23.98 132.31,23.98 -44.1,76.84 -80.39,224.69 -53.09,338.09 l 76.02,-0.24 -0.47,-558.63 c 0,0 5.98,-107.85 8.2,-168.59 -40.47,52.3 -94.1,125.35 -129.14,179.57 -42.54,59.8 -89.84,129.96 -138.48,195.78 -14.29,20.74 -34.72,47.62 -51.4,71.83 -26.17,37.43 -47.81,66.49 -74.96,106.76 -28.99,41.68 -56.8,79.53 -91.25,127.97 -29.18,41.21 -30.55,46.1 -30.55,46.1 l 417.03,1.6 z m -499.139,-2.15 c 49.258,-85.63 137.459,-114.61 159.649,-120.39 l 12.89,-18.87 c -103.98,20.39 -159.648,87.15 -185.781,128.4 -2.028,3.24 -1.84,10.62 -1.84,10.62 l 15.082,0.24 z m -48.75,0 C 876.328,2263.55 857.27,2245 839.18,2225.39 l 0.621,20.82 c 0.551,-1.33 27.078,28.09 36.179,49.69 l 13.981,0 z m 23.828,0 c 0,0 0.391,-5.55 -1.25,-10.08 -10.43,-33.71 -75.238,-97.7 -73.398,-88.09 l -0.661,16.49 c -0.281,-0.7 48.711,46.64 61.52,81.68 l 13.789,0 z m -47.109,0 c -5.078,-9.42 -23.91,-37.85 -25.629,-29.96 l 1.679,29.96 23.95,0 z m 148.09,0 c 8.16,-11.84 15.58,-20.47 24.18,-32.58 1.6,-2.3 2.53,-5 2.14,-6.05 -1.29,-3.36 -5.19,-0.86 -15.89,8.63 -17.62,15.62 -29.579,30 -29.579,30 l 19.149,0 z m -65.551,0 15.902,-0.04 c 32.969,-54.77 92.149,-83.91 112.609,-90.27 5.47,-6.02 11.37,-17.04 13.64,-19.46 -55.2,14.92 -117.069,61.6 -142.151,109.77 z m 38.711,0.23 c 17.54,-25.35 45.08,-43.12 60.55,-55.23 8.36,-6.52 19.37,-19.88 18.32,-22.54 -34.5,10.9 -74.89,49.18 -93.402,77.54 l 14.532,0.23 z m -67.7,-15.7 9.61,-15.27 c -23.238,-38.32 -52.418,-72.86 -91.289,-100.08 l -0.192,20.04 c 44.102,31.76 63.161,63.71 81.871,95.31 z m 15.59,-22.11 c 27.7,-37.34 87.42,-95.12 183.2,-112.38 0,0 5.47,-4.92 13.4,-15.74 10.04,-13.68 10.2,-14.22 11.53,-36.68 0.89,-41.14 14.25,-96.92 27.53,-132 -1.64,-8.75 -3.2,-13.16 -19.64,-35.39 -68.56,-92.61 -214.61,-180.19 -286.57,-60.66 -24.02,38.32 -26.36,111.72 -27.891,157.5 0,0 0.473,3.24 0.672,4.1 1.719,8.32 4.097,6.99 17.07,3.44 13.199,-5.63 26.91,-1.06 40.82,2.73 15.899,6.41 17.18,1.45 1.911,-12.81 -5.313,-4.96 -11.801,-12.5 -11.09,-12.15 0.66,0.35 9.566,3.99 13.508,6.99 12.23,9.3 15.121,5.75 10.589,-4.49 -19.218,-43.48 -22.66,-45.19 4.411,-57.26 5.628,-2.5 9.46,-5.32 12.621,-8.09 18.519,-17.42 11.879,-8.05 6.679,-0.04 -7.929,12.5 -0.742,19.1 12.7,11.37 8.941,-5.16 20.742,-9.34 27.14,-7.38 12.469,4.06 16.25,17.69 12.539,32.69 -2.929,8.28 -19.918,22.93 -16.008,7.62 10.231,0.47 19.02,-14.03 10.149,-23.87 -6.68,-9.02 -18.629,-4.14 -36.988,7.97 -10.122,7.62 -22.422,3.71 -21.911,-5.63 0.309,-6.28 -8.601,-4.84 -14.382,3.17 -3.2,4.45 -1.047,17.26 5,29.37 38.011,76.41 5.98,150.47 -59.84,129.57 -7.231,-2.26 -13.75,-4.14 -13.75,-4.14 l -0.348,29.22 c 37.77,26.33 77.848,68.32 96.949,102.97 z m 38.399,-137.15 c -9.918,-11.99 -6.41,-22.65 15.39,-11.91 17.731,8.75 20.191,9.76 39.531,10.47 27.42,1.01 52.03,-7.74 82.5,-26.41 20.24,-12.38 23.16,-13.32 17.7,-5.59 -16.33,31.25 -112.78,78.64 -155.121,33.44 z m -93.168,-3.59 c 19.027,-4.77 37.308,-17.35 34.148,-22.58 -1.179,-1.88 -2.269,-2.23 -4.687,-0.94 -13.953,6.88 -36.133,18.13 -68.242,4.38 -3.559,-1.49 -5.508,0.86 -5.469,5.11 0,8.29 13.937,14.89 28.668,15.43 5.269,0 10.98,-0.27 15.582,-1.4 z m 110.629,-24.22 c -11.371,-5.9 -15.27,-9.02 -20.078,-6.41 -11.524,6.33 -9.102,1.37 -1.954,-11.29 5.082,-8.94 5,-10.78 4.262,-16.28 -0.82,-5.94 -0.711,-6.18 5.11,-12.54 10.82,-14.26 21.6,-27.97 37.82,-38.79 5.07,-3.36 11.83,-7.19 12.34,-7.19 1.6,-0.08 0.98,1.21 -1.91,4.06 -20.79,19.96 -37.149,37.85 -16.02,30.28 24.65,-8.05 48.09,1.95 67.27,8.47 7.85,2.42 16.05,4.45 18.12,4.45 17.74,0 21.91,7.39 10.59,18.64 -38.4,43.04 -70.24,53.16 -115.55,26.6 z m 91.05,-8.05 c 7.93,-7.34 12.11,-11.29 11.29,-13.2 -0.82,-2.07 -6.95,1.41 -17.18,6.87 -20.59,10.98 -43.95,13.56 -73.09,5.12 -22.66,-6.52 -15.98,3.87 9.26,13.6 20.19,9.33 48.08,6.56 69.72,-12.39 z m -211.48,14.81 c 17.301,0.31 35.309,-5.39 47.379,-15.78 8.402,-7.23 2.23,-8.91 -11.399,-3.29 -20.671,8.56 -38.089,9.93 -55.039,2 -5.312,-2.5 -11.453,-5.47 -13.132,-5.32 -2.848,1.92 -4.02,7.5 -1.598,11.45 6.84,6.68 20.348,10.74 33.789,10.94 z m 285.12,-5.94 c 1.25,-0.04 3.16,-2.07 6.01,-6.06 5.2,-7.26 5.39,-10.85 1.1,-23.55 -5.24,-15.55 -7.35,-13.01 -8.68,8.63 -0.82,14.07 -0.85,21.1 1.57,20.98 z m 17.15,-23.4 c 1.99,0.27 4.29,-3.2 7.96,-10.39 2.58,-5.04 1.96,-6.52 -6.05,-30.04 -3.36,-9.8 -6.52,-17.65 -6.64,-17.73 -2.46,-1.92 -2.15,-1.76 -3.2,-0.43 -5.71,7.34 -5.32,21.6 -0.39,38.71 3.75,12.93 5.78,19.53 8.32,19.88 z m -155.86,-1.76 c 0.62,0.04 4.45,-0.78 4.45,-0.78 -0.39,-34.84 26.52,-27.81 30.08,-3.08 0,0 6.64,0.66 7.65,-0.98 3.21,-5.2 -4.22,-20.08 -15.27,-24.96 -8.09,-3.6 -19.1,-2.7 -25.66,3.32 -1.84,3.4 -7.39,16.37 -6.37,21.72 1.29,3.12 3.24,4.57 5.12,4.76 z m -16.06,-4.1 c 0.28,0.04 0.55,0.04 0.82,0 2.66,-0.12 4.57,-0.82 5.63,-4.02 l 5.74,-17.7 c -4.22,-5.08 -20.349,5.2 -20.31,12.93 0,5.32 4.02,8.6 8.12,8.79 z m -109.452,0.04 c 4.063,0.39 5.512,-0.04 5.973,-3.83 1.367,-11.48 -10.109,-23.98 -25,-24.68 -14.449,-1.61 -22.223,9.6 -21.793,20.5 0.043,8.28 7.192,9.34 7.973,2.78 2.301,-18.95 18.469,-20 25.859,-9.57 2.809,4.1 2.141,14.18 6.988,14.8 z m 177.112,-3.83 c 1.17,0.04 2.69,-0.39 4.96,-1.17 14.88,-4.73 15.27,-7.03 2.54,-11.64 -15.16,-5.47 -16.14,-6.17 -12.58,4.41 1.99,5.9 2.58,8.29 5.08,8.4 z m -157.701,-1.68 c 11.062,-0.66 11.961,-10 2.269,-13.12 -14.449,-6.37 -19.297,-5.98 -13.707,3.44 3.039,6.68 5.738,9.57 11.438,9.68 z m -68.981,-3.36 c 1.332,0 2.813,-0.5 4.453,-1.68 1.641,-5 4.449,-8.86 6.68,-14.02 -2.262,-2.27 -7.66,-2.23 -11.133,0.51 -6.879,5.47 -5.699,15.15 0,15.19 z m 346.762,-10.78 c 4.25,0 8.63,-6.79 10.04,-11.87 -14.97,-19.22 -12.62,-55.08 -16.1,-65.94 -3.01,-8.83 -3.98,-1.21 -12.3,21.64 -3.36,9.22 13.59,55.04 17.5,56.06 0.27,0.07 0.54,0.11 0.86,0.11 z m 15.27,-19.69 c 3.36,-1.91 7.89,-6.28 8.67,-13.16 0.47,-3.98 -1.52,-9.26 -2.77,-14.53 -3.05,-12.46 -7.11,-35.98 -8.6,-57.73 -0.62,-9.26 -0.58,-17.62 -1.01,-18.4 -4.49,-8.83 -13.99,14.92 -13.17,33.79 2.97,15.11 4.61,67.96 16.88,70.03 z m 21.13,-27.14 c 2.15,-2.93 3.48,-5.16 4.14,-7.7 1.14,-4.41 0.16,-9.69 -2.42,-20.9 -6.87,-29.68 -5.86,-61.72 -1.41,-94.61 0.98,-6.91 -3.82,-3.47 -11.09,8.44 -4.06,6.64 -6.64,15.67 -7.85,26.37 -2.54,23.36 2.34,55.08 6.48,80.08 1.84,11.05 3.13,20.78 12.15,8.32 z m 11.41,-18.09 12.03,-14.49 c 0,0 -5.12,-33.28 -5.12,-51.06 -0.82,-6.68 5.98,-79.06 8.21,-84.88 -7.39,8.24 -10.82,13.13 -18.95,23.52 -0.9,-0.16 -7.93,71.32 -3.09,98.63 2.93,16.56 6.92,28.28 6.92,28.28 z m 18.87,-28.79 c 2.03,0.08 4.57,-2.19 7.81,-6.72 2.89,-4.06 4.33,-7.42 4.49,-12.5 0.12,-3.71 -1.72,-6.56 -1.8,-13.16 -0.35,-39.38 5,-76.56 11.68,-112.38 2.35,-12.82 -2.22,-7.58 -9.84,0.54 -6.95,7.42 -7.07,10.24 -10.82,20.78 -0.74,2.11 -8.16,74.73 -8.09,80.2 0.28,22.58 0.9,35.16 3.52,40.55 0.86,1.75 1.83,2.65 3.05,2.69 z m -43.68,-79.1 c 0,0 -13.98,-7.19 -17.65,-4.65 -5.9,16.1 -27.23,59.22 -27.58,66.88 0.35,2.5 8.71,13.82 8.71,13.82 11.8,-25.54 22.38,-51.67 36.52,-76.05 z m -263.281,51.8 c -4.219,-4.96 -9.258,-2.89 -19.411,1.6 -5.238,1.6 -4.418,-0.55 -13.046,-5.04 -6.68,-3.48 -9.024,-3.56 -13.442,-3.52 -5.859,0.04 -7.961,2.11 -7.961,-2.03 0,-2.26 -0.359,-12.54 -1.719,-17.81 -1.878,-7.23 -3.519,-10.43 -2.5,-11.68 2.969,-2.73 5.469,-1.05 11.719,5 10.391,10.04 17.379,7.15 28.981,3.4 13.16,-4.22 15.859,-5.78 27.89,-1.56 17.071,5.93 27.34,5.93 34.141,1.64 11.679,-7.46 15.239,-7.03 10.389,13.36 -1.56,6.56 -1.64,16.72 -2.62,18.51 -1.09,1.99 -4.058,-3.71 -7.179,-5.82 -5.942,-3.98 -9.031,-3.9 -22.422,0.47 -7.969,2.62 -16.879,11.13 -22.82,3.48 z m 215.821,-2.66 c 5.2,-12.23 25.86,-53.12 25.24,-57.69 -4.03,-3.6 -9.42,-6.25 -12.62,-3.01 -10.35,18.86 -13.44,29.02 -21.84,50.19 -2.5,5.04 5,17.93 9.22,10.51 z m 111.02,1.52 c 1.44,0.2 4.49,-2.85 6.8,-5.89 7.07,-9.46 7.5,-10.63 7.69,-20.79 0.82,-36.79 5.47,-80.07 15.82,-113.47 2.03,-6.56 5.9,-14.57 5.47,-15.67 -3.48,-5.07 -19.57,8.52 -24.45,29.14 -6.72,26.22 -10.63,53.56 -12.78,71.33 -2.69,31.29 -2.65,53.71 1.45,55.35 z m -124.02,-20.31 c 5.97,-11.48 13.47,-31.29 18.51,-43.16 2.31,-5.16 -9.49,-9.26 -12.19,-7.5 -4.68,3.51 -6.91,13.4 -10,19.33 -9.84,21.49 -11.6,21.92 -6.17,28.64 3.36,4.64 7.38,10.35 9.85,2.69 z m 147.34,-13.16 c 0.86,0 1.99,-0.86 3.4,-2.66 6.21,-7.34 10.43,-12.97 12.07,-18.4 1.17,-3.94 0.23,-6.91 0.62,-14.06 1.14,-18.75 6.06,-44.34 20,-96.68 1.37,-5.12 3.21,-11.17 2.97,-12.81 -1.37,-9.61 -15.43,5.97 -19.57,22.07 -4.73,18.28 -13.44,41.6 -15.98,63.16 -5.27,34.26 -8.2,59.38 -3.51,59.38 z m -159.77,-13.87 c 11.72,-27.34 12.66,-27.3 5.28,-29.45 -7.82,-2.31 -8.28,-1.53 -17.43,17.07 -6.68,13.59 -8,15.31 -2.38,20.23 8.6,10.12 10.82,0.47 14.53,-7.85 z m -163.278,6.56 c -1.332,-0.04 -5.231,-3 -9.184,-4.57 -9.687,-3.86 -26.91,-4.1 -37.379,-0.93 -18.558,7.42 -13.32,-2.23 3.09,-8.13 12.77,-4.3 38,-0.98 41.91,6.95 2.422,2.58 3.282,6.68 1.563,6.68 z m 141.248,-14.41 c 10.47,-16.17 13.63,-22.62 11.88,-23.87 -1.68,-1.68 -9.96,-4.8 -13.4,-3.16 -4.26,2.11 -8.01,12.11 -9.88,19.92 1.32,3.83 8.2,10.7 11.4,7.11 z m -262.15,-6.8 c 4.691,-0.04 16.878,-16.37 14.378,-19.33 -0.668,-1.53 -5.238,-0.08 -15.898,2.89 -3.551,1.29 -11.602,2.34 -9.059,7.5 1.289,2.34 8.75,8.94 10.579,8.94 z m 250.94,-22.42 c -1.05,-2.77 -8.94,-3.44 -12.3,-3.24 -2.86,6.01 -3.64,8.87 -4.42,12.81 1.1,2.38 6.49,8.56 9.14,7.34 1.6,-1.4 6.76,-13.94 7.58,-16.91 z m 217.74,15.78 c 1.67,-0.08 4.57,-3.01 8.82,-9.14 8.13,-11.6 7.03,-10.74 12.85,-38.44 6.61,-31.4 14.5,-53.79 22.5,-85.86 0.08,-5.31 -2.07,-3.9 -7.96,-0.31 -9.69,5.9 -12.86,12.42 -15.9,29.45 -5.2,28.13 -16.14,54.15 -20.35,87.35 -2.23,11.01 -2.39,17.03 0.04,16.95 z m -243.4,-11.25 c 5.7,0.2 4.92,-8.59 3.32,-10 -4.18,-3.63 -15.67,-2.54 -17.66,-2.73 -4.41,6.91 10.63,12.5 14.34,12.73 z m 272.38,-29.88 c 1.68,-0.24 6.17,-6.56 14.61,-18.44 8.08,-11.37 6.33,-9.49 11.17,-28.24 6.84,-25.86 18.17,-44.53 24.84,-68.36 -0.03,-2.7 -3.32,-2.34 -6.48,-1.06 -6.13,2.58 -11.6,6.92 -16.8,11.18 -3.55,3.82 -3.51,8.71 -14.02,44.8 -3.79,13.05 -4.77,16.41 -9.49,36.21 -3.99,16.56 -5.74,24.18 -3.83,23.91 z m -877.731,-77.31 c 27.5,-50.66 17.34,-73.12 -41.879,-80.11 -4.3,0.58 -0.23,-25.98 -0.351,-37.82 29.652,16.96 65.511,20.94 98.59,31.57 -9.02,-28.83 -24.797,-61.49 -72.649,-56.45 -50.039,38.63 -108.91,15.43 -148.871,31.13 -21.719,8.09 -30.039,32.23 -30.269,36.37 26.05,-2.62 55.46,-8.2 80.699,-6.37 -27.578,21.25 -19.489,50.63 -15.629,64.07 -32.262,40.7 -5.309,86.48 41.57,75.86 4.84,-1.14 14.41,-5.82 14.41,-5.82 45.2,40.46 97.621,2.46 74.379,-52.43 z m 914.841,24.65 c 1.87,0.2 6.01,-4.72 14.3,-16.29 24.61,-34.41 45.89,-66.4 45.58,-68.2 -1.09,-5.94 -26.72,4.45 -33.16,12.93 -7.38,9.69 -28.09,59.45 -28.05,67.34 0,2.66 0.35,4.14 1.33,4.22 z M 388.672,1613.4 c 12.808,-1.88 16.367,-2.93 16.25,-7.93 1.098,-4.26 -31.051,-4.85 -35.391,-1.68 -3.48,2.5 0.981,8.05 4.418,9.33 5,1.53 9.922,0.98 14.723,0.28 z m 885.778,-4.53 c -179.53,-84.81 -252.97,-310.32 -162.34,-483.13 l -12.5,-9.02 c -88.83,182.73 -22.73,378.51 121.6,477.42 5.86,4.14 18.79,7.34 24.81,11.33 0,0 -58.91,-13.44 -78.83,-21.25 -4.07,0.16 -15.94,-4.02 -28.67,-17.85 -11.18,-10.35 -46.06,-58.44 -44.93,-60.12 l -92.69,-3.71 0.08,-3.44 90.97,2.11 c -93.669,-154.26 -70.66,-300.98 -12.81,-403.67 l 1.41,-0.98 c 3.36,-2.26 12.22,4.22 30.58,21.6 7.54,7.19 17.07,16.06 21.17,19.81 11.33,10.39 27.5,28.32 38.6,41.25 -63.01,128.36 -0.86,297.46 146.52,373.63 0.28,4.06 -1.56,16.45 -1.56,16.45 0,0 -5.59,5 -8.87,4.49 -164.18,-72.31 -230,-251.95 -163.24,-415.27 l -10.98,-12 c -83.9,169.14 6.14,380.59 163.17,440.47 -0.08,3.83 -3.48,8.71 -7.7,5.74 -169.53,-78.67 -243.4,-279.64 -160.35,-450.93 l -10.47,-9.26 c -94.45,187.58 5.08,397.73 161.13,469.53 4.61,1.09 -4.1,6.8 -4.1,6.8 z m -913.669,-1.76 c 0,0 -1.211,-10 2.309,-13.4 1.64,-7.15 -0.942,-6.37 -7.039,-4.92 -14.922,3.55 -3.281,-4.92 8.949,-11.76 12.031,-6.76 10.391,-6.52 -0.078,-13.2 -7.07,-4.45 -6.332,-6.13 -5.391,-9.53 1.41,-5.04 2.379,-1.68 5.309,1.01 6.14,5.63 11.058,7.03 16.488,7.03 8.203,-0.04 9.024,-6.6 7.582,-11.72 -3.25,-10.74 -14.301,-10.15 -23.359,-7.5 -14.852,4.38 -39.071,30.08 -38.672,45.24 -1.059,13.55 17.5,19.37 33.902,18.75 z m 66.641,-3.32 c 5.777,-2.11 13.008,-4.92 20.937,-8.28 11.02,-3.48 22.153,-9.18 29.34,-13.95 21.871,-14.57 20.539,-43.75 18.942,-46.64 L 383.629,1427.81 c 0,0 -6.359,3.13 -12.379,6.21 -18.98,9.69 -23.551,14.81 -13.012,20.16 5.121,2.62 6.762,8.2 7.5,13.67 0.981,7.35 0.59,6.1 4.961,9.42 7.66,5.82 8.012,8.24 8.051,17.89 0.039,6.4 0.699,9.37 3.012,13.39 1.828,3.17 3.789,9.85 5.117,17.5 0.191,1.25 0.269,4.38 0.5,5.51 1.332,5.98 3.242,7.74 4.5,9.1 1.281,1.33 3.32,5.98 4.723,9.96 3.168,8.91 2.578,7.58 7.66,6.61 7.379,-1.45 6.328,-5.75 5.508,-12.58 -0.391,-3.32 -2.579,-5.67 -1.84,-4.92 1.019,1.01 5.55,3.16 6.48,3.36 2.391,0.54 4.731,-0.28 5.36,-3.99 0.308,-2.07 -0.59,-5.86 -0.508,-8.79 0.148,-7.61 0.429,-16.76 2.187,-22.77 8.391,-28.95 6.711,-24.96 3.86,-0.86 -0.7,5.78 -1.481,14.26 -0.661,21.29 0.582,5 2.032,11.13 3.942,14.49 4.961,8.63 5.238,10.35 -5.5,14.61 -4.031,1.6 -10.82,4.34 -12.231,7.11 -1.718,3.4 -6.839,7.97 -13.519,9.53 -16.25,3.83 -25.699,19.53 -23.36,21.84 1.571,1.52 8.09,-0.47 12.231,-0.63 14.809,-0.51 17.969,0.24 24.527,5.9 3.524,3.01 5.082,5.66 7.852,5.86 2.93,0.08 6.68,-2.11 8.832,-2.89 z m 769.178,-17.34 c -151.8,-122.82 -178.4,-321.49 -102.69,-474.81 l -13.09,-10.31 c -95.199,179.84 -31.25,373.83 85.66,479.92 l 30.12,5.2 z M 320.16,1571.8 c 2.692,0.23 5.621,-3.68 16.289,-15.08 7.18,-7.66 14.641,-14.34 18.59,-16.56 8.91,-4.26 6.949,-2.5 -0.469,-9.54 -7.621,-8.74 -3.398,-15.89 -12.5,-11.52 -23.59,11.1 -40.191,43.75 -24.84,51.6 1.168,0.59 2.071,1.02 2.93,1.1 z m -11.719,-34.34 c 0.539,0.04 1.168,-0.04 1.789,-0.19 2.93,-0.75 6.45,-6.22 10.239,-10.04 10.511,-10.55 15.39,-15.24 23.793,-18.95 8.238,-3.67 8.468,-4.53 2.648,-10.98 -2.109,-2.34 -3.359,-5.15 -3.859,-6.71 -0.512,-1.57 -0.629,-3.56 -2.391,-3.91 -9.211,-1.76 -39.762,16.76 -40.969,29.57 0.969,11.95 4.02,20.82 8.75,21.21 z m 64.758,-3.55 c 5.281,0.11 8.403,-4.61 8.36,-12.27 0,-5.31 -3.008,-7.46 -9.059,-9.73 -12.969,-4.88 -20.98,4.42 -11.91,14.69 3.82,4.3 8.98,7.19 12.609,7.31 z m -7.929,-31.21 c 9.769,-0.04 12.621,-8.29 5.429,-15.4 -6.719,-6.71 -20.347,-6.71 -20.308,0.59 0.039,5.78 8.629,14.84 14.879,14.81 z m -60.7,-9.89 c 6.602,-1.95 22.731,-13.55 29.84,-14.92 0.36,-3.91 -4.371,-5 2.352,-12.34 3.039,-3.36 3.277,-5.63 0.66,-7.03 -8.082,-4.34 -36.133,9.29 -38.012,23.32 -0.89,6.87 1.371,10.74 5.16,10.97 z m 36.559,-16.76 c 9.609,-0.39 20.551,-0.7 19.383,-5.31 -0.821,-3.32 -4.262,-12.15 -8.672,-10.51 -2.149,0.82 -4.262,2.93 -5.75,4.38 -5.11,4.92 -6.52,11.48 -4.961,11.44 z m 364.531,-39.92 c 28.09,-25.43 130.078,-290.97 -82.5,-484.45 l -45.109,-13.52 c 204.097,160.28 170.148,387.82 115.07,485.94 0,2.89 -0.781,2.58 -5.851,-2.03 -4.461,-4.02 -4.93,-4.88 -3.168,-5.62 62.269,-95.79 85.507,-366.33 -159.723,-496.88 -4.109,-4.261 4.211,-3.629 4.211,-3.629 0.43,3.508 110.43,30.231 102.66,30.938 102.539,90.581 191.801,306.711 80.66,495.071 -2.648,1.8 -6.25,-5.82 -6.25,-5.82 z m -35.43,-30.08 -1.402,-5.97 c 88.981,-174.69 4.024,-388.71 -161.367,-467.932 2.738,-1.988 5.738,-3.359 8.789,-4.769 187.621,101.021 241.719,314.851 159.879,480.471 l -5.899,-1.8 z m -14.878,-12.38 -1.012,-6.33 c 73.672,-148.67 15.191,-355 -160.629,-438.668 -1.68,-9.024 0.039,-6.371 8.238,-5.942 203.442,109.07 222.539,316.53 158.91,451.25 l -5.507,-0.31 z m -12.622,-17.81 c -5.742,-7.58 -16.25,-11.52 -19.761,-21.29 59.101,-156.21 -17.27,-306.56 -146.559,-369.922 -0.121,-7.847 -5.75,-27.308 7.93,-24.218 159.762,72.38 229.25,264.73 159.41,416.13 0,0 -0.941,-0.66 -1.02,-0.7 z m 802.39,-301.99 c 5.9,-0.39 11.17,-2.19 16.6,-2.89 19.84,-2.58 32.73,-17.03 23.87,-25.86 -2.93,-2.89 -7,-1.21 -19.89,5.08 -5.9,2.89 -6.87,5.62 -8.08,12.14 -1.49,7.86 -3.05,8.64 -5.04,2.54 -1.99,-6.13 -4.18,-9.92 -10.94,-8.4 -19.02,4.46 -11.84,17.54 3.48,17.39 z M 1232.85,940.898 c -47.62,27.032 -106.48,75.782 -140.12,131.212 -16.71,-31.41 -36.36,-88.52 -36.36,-88.52 l -74.768,20.9 -0.903,-1.56 73.911,-21.289 -7.19,-24.653 c -0.78,-2.687 -12.22,-30.738 -12.22,-30.738 l 115.46,-53.91 c -7.18,-11.168 -14.96,-18.391 -24.88,-28.86 -5.62,-5.859 -5.78,-13.519 -5.78,-13.519 l 160.08,152.699 c 0,0 20.66,-30.629 28.32,-37.582 7.22,-6.488 9.45,-8.09 1.05,-10 -37.61,-5.547 -66.79,-34.027 -56.64,-72.226 1.68,-4.223 4.96,-2.653 12.11,1.839 24.96,22.579 86.02,43.508 88.09,38.2 l 0.23,-24.301 c -65.7,-0.969 -58.94,-49.25 -54.14,-75.192 0,-0.546 -19.02,-17.148 -19.02,-17.148 6.72,-3.551 13.32,-7.191 19.53,-11.52 -5.78,-32.23 21.68,-78.949 75.62,-55.039 4.65,-4.769 9.07,-9.57 14.18,-15.589 5.55,6.41 11.92,21.449 11.92,21.449 26.76,-12.11 82.38,15 53.94,77.179 l 15.67,14.93 -15.08,9.488 c -0.39,15.821 -2.81,29.922 -12.27,43.711 0,0 25.32,-6.449 44.03,-7.539 11.56,-1.05 21.29,-1.332 20.31,5.66 -0.27,2.04 -1.99,12.11 -3.13,15.399 -5.58,16.281 -34.53,28.242 -62.65,29.801 -4.61,0.269 -9.53,0.121 -10.51,1.332 -1.84,2.218 1.45,5.386 4.49,4.879 15.39,-2.692 30.2,8.668 32.85,23.16 0.55,2.539 3.68,7.187 8.21,12.148 8.01,8.75 8.63,8.52 8.47,21.211 -0.07,8.789 1.45,10.75 5.51,16.641 5.24,8.399 7.66,19.379 5.04,30.749 -0.82,3.59 -4.26,8.67 -1.33,17.65 4.73,14.57 -5.66,27.89 -19.26,35.51 -1.09,0.31 -0.78,-0.78 -1.67,-1.84 -12.35,-3.82 -27.39,5 -27.39,5 -3.08,1.53 10.51,80.63 38.75,73.56 4.69,-2.85 6.64,-16.6 6.29,-16.84 1.33,0.04 1.99,8.09 0.2,13.48 -1.92,5.63 -6.29,11.02 -14.73,9.41 -6.52,-1.25 -14.02,-9.88 -17.46,-14.21 -13.16,-16.8 -13.32,-27.54 -17.7,-45.4 -2.14,-8.43 -2.34,-7.92 -14.06,1.18 -8.36,6.56 -12.42,8.67 -9.53,12.5 1.33,1.72 6.76,7.18 6.76,7.18 l 102.11,98.25 0,-983.789 -577.35,0 4.031,126.399 c 10.82,88.91 -8.211,275.59 -22.66,293.129 11.129,12.5 45.668,42.621 43.75,43.98 l -4.57,2.742 -18.243,-16.8 -45.078,13.629 c -19.218,13.281 -38.832,25.55 -59.179,30.781 C 814.648,738.32 750.66,711.172 750.59,710.898 648.359,703.32 566.48,661.801 567.621,662.109 563.16,666.211 557.27,679.262 557.109,679.18 504.41,752.5 452.621,793.59 381.84,843.711 l 89.64,49.527 -212.46,221.992 -1.872,180.24 307.774,294.26 c 1.84,5.07 98.199,-68.09 134.098,-127.62 6.878,29.1 19.691,55.55 30.359,84.1 1.133,2.62 61.242,-22.23 79.062,-23.28 2.649,-0.16 4.797,2.66 4.797,2.66 l -79.328,25.82 16.25,46.44 c 0,0 5.621,12.66 -0.75,14.73 -36.172,11.72 -70.109,32.34 -104.68,49.88 0,0 16.168,17.97 16.399,18.79 0.242,0.74 6.762,10.35 5.199,13.67 -17.578,-17.07 -161.168,-150.23 -161.168,-150.23 -4.109,22.85 -10.512,30.86 -24.461,44.96 7.582,0.35 19.5,7.89 26.371,12.89 21.051,15.35 32.5,42.69 29.77,58.67 -20.238,-6.41 -38.442,-13.94 -63.75,-18.55 -14.219,-2.58 -27.738,-8.99 -35.899,-15.9 l -1.25,25.51 c 0.039,-0.28 34.02,-5.94 49.758,16.87 13.602,19.65 8.012,42.15 4.922,53.63 0.359,2.54 -0.422,2.27 5.43,7.62 4.34,3.99 11.058,9.14 11.058,9.14 0.27,1.45 -17.539,8.05 -20.589,14.1 4.769,47.27 -33,65.51 -64.961,57.11 -5.969,-1.79 -8.829,-2.93 -15.938,5 -1.051,1.17 -9.57,10.16 -9.57,10.16 0,0 -3.75,-8.67 -5.699,-12.46 -6.25,-12.35 -7.973,-8.64 -21.481,-9.3 -34.262,-1.68 -49.531,-29.34 -41.68,-63.24 1.868,-7.97 1.047,-6.76 -4.179,-16.84 -2.703,-5.11 -7.032,-11.68 -7.032,-11.68 0,0 6.25,-3.51 10.5,-5.39 6.25,-2.81 6.571,-6.09 6.571,-12.3 0.859,-13.79 3.898,-23.01 11.789,-34.85 -26.789,-0.62 -47.379,1.88 -71.68,9.96 3.75,-37.34 31.25,-51.25 64.961,-56.71 0,0 -3.512,-3.32 -7.262,-4.77 -7.847,-2.3 -12.808,-9.22 -12.738,-15.43 -1.133,-5.94 -4.961,-11.87 -8.512,-15.04 -5.23,-4.53 -9.531,-10.94 -7.461,-23.32 -0.546,-8.98 -2.738,-11.56 -5.347,-15 -5.281,-6.87 -7.071,-13.71 -5.75,-22.77 0.59,-4.18 1.918,-13.21 1.019,-22.5 -1.449,-15.55 4.141,-21.37 11.168,-32.27 4.571,-7.07 3.641,-7.26 2.543,-12.42 -2.543,-12.3 -5.16,-18.67 -7.89,-28.05 -6.129,-20.97 -6.371,-36.91 -1.371,-40.97 7.582,-6.17 16.14,-4.34 20.121,-3.09 29.808,9.18 24.648,38.48 26.211,58.13 0.859,5.07 2.578,7.5 4.257,7.26 8.442,-9.88 17.34,-15.58 28.832,-21.8 -39.691,-40.43 -65.632,-65.11 -115.82,-109.21 l 1.359,984.06 572.469,0 c 0,0 0.582,-7.31 -0.75,-42.89 -2.5,-72.39 -5.539,-148.17 -0.777,-221.96 0.777,-25.5 0.277,-50.74 3.949,-76.01 3.551,-24.61 5.149,-51.13 16.641,-74.06 4.609,-12.43 4.758,-11.45 -12.852,-27.74 -8.64,-7.97 -15.98,-16.48 -15.629,-17.97 0.078,-0.5 -0.39,-2.38 0.938,-1.32 0.859,0.7 7.261,7.03 7.972,7.85 4.758,5.62 12.731,-1.6 39.957,-9.26 5.352,-1.52 12.891,-6.52 18.633,-10.7 40.699,-34.3 97.969,-23.6 140.819,-4.93 12.15,5.32 15.12,5.86 34.65,8.21 72.3,8.55 149.57,40.15 149.41,40.08 l 9.46,-15.47 c 0,0 3.55,0.62 6.05,-3.25 41.6,-78.55 177.42,-168.32 175,-164.18 l -88.75,-49.14 c 64.61,-79.84 212.38,-215.27 212.38,-215.27 l -3.39,-194.69 c -39.69,-31.75 -74.57,-68.12 -109.46,-103.63 -10.04,-9.92 -17.11,-15.59 -13.32,-15.78 9.07,1.37 16.88,-7.54 24.26,-13.75 4.65,-5.2 3.56,-4.73 -1.84,-11.84 -3.78,-5 -5.19,-6.44 -5.19,-10.04 0.12,-6.99 0.08,-11.68 -6.13,-16.91 -3.87,-4.84 -6.06,-7.97 -6.76,-13.71 -0.7,-5.7 -0.67,-9.42 -4.61,-14.49 -6.68,-1.41 -7.31,-11.14 -6.13,-15.51 6.99,-6.92 3.82,-14.45 4.45,-12.849 -13.36,-14.531 -27.38,-27.113 -18.44,-6.8 4.03,7.539 5.43,13.789 5.43,13.789 0,0 -6.4,-6.641 -9.8,-9.801 -5.16,-4.77 -7.03,-1.957 -7.19,12.851 -0.66,11.21 -5.39,26.83 -7.27,29.84 -1.05,1.68 -1.21,-1.21 -0.74,-12.03 0.67,-14.18 2.35,-18.32 -2.65,-32.501 -6.76,-19.141 -11.57,-21.84 -0.59,-21.168 10.39,0.617 19.18,0.738 23.75,-5.473 1.52,-2.109 3.48,-5.668 7.69,-7.777 8.56,-4.68 15.36,-9.883 20.08,-15.031 15.39,-16.719 10.98,-31.641 -18.75,-21.531 -15.62,5.351 -5.39,12.07 11.41,10.511 10.35,-0.98 12.07,2.852 3.16,5.59 -16.64,3.039 -19.33,4.918 -30.27,-8.09 -46.09,4.532 -71.95,30.27 -84.37,51.25 -5.2,8.789 -6.8,10.469 -3.17,15.43 1.45,1.949 0.55,1.371 -1.87,-1.371 -2.46,-2.688 -9.14,-4.957 -11.37,-6.91 -15.47,-15.43 -31.17,-32.028 -45.12,-44.571 z m 200.47,108.122 c 7.81,-0.97 7.66,-7.54 0.7,-13.86 -6.56,-4.96 -11.05,-5.9 -14.76,-2.19 -6.49,6.52 1.91,16.09 14.06,16.05 z m 22.77,-4.57 c 6.29,0.04 14.34,-2.85 23.91,-10.82 11.37,-9.45 13.98,-32.38 3.52,-36.36 -4.38,-1.649 -5.08,-0.04 -14.42,8.86 -6.29,5.98 -13.12,11.41 -19.84,14.61 -13.75,6.53 -15.51,8.99 -6.21,13.44 1.95,1.02 4.49,3.36 5.62,5.23 2.38,3.79 3.13,5.04 7.42,5.04 z m -14.84,-30.54 c 1.84,-0.04 4.26,-1.14 8.09,-3.21 23.16,-12.61 34.45,-32.462 26.64,-43.63 -5.16,-7.34 -13.52,-4.57 -19.89,5.86 -3.59,5.859 -13.12,13.359 -23.94,18.871 -12.42,6.289 -12.7,7.179 -3.71,11.439 3.67,1.76 6.4,4.26 8.2,7.42 2.11,3.68 2.27,3.32 4.61,3.25 z m 7.42,-47.23 c 17.5,-17.418 15.51,-26.879 4.14,-33.981 -7.77,-4.847 -20.19,-6.058 -24.29,-2.039 -6.61,5.75 -6.41,12.352 0.86,14.5 6.79,1.442 4.25,4.18 -2.08,5.781 -22.69,6.438 -36.64,18.469 -11.99,15.86 7.07,-0.75 13.95,4.758 17.62,9.14 5.35,6.481 12.58,-6.101 15.74,-9.261 z M 255.738,959.961 766.289,229.059 353.52,229.879 c 0,0 -1.532,5.351 1.832,49.18 4.957,59.421 -2.692,110.98 -16.762,168.992 1.801,0.187 -19.762,70.429 -36.481,104.758 -3.089,7.191 -2.578,7.89 7.301,9.14 29.219,4.692 60.711,11.762 89.891,24.102 13.59,1.219 33.508,-4.063 32.418,-2.422 -0.469,0.781 -17.66,16.531 -17.66,16.531 C 366.41,581.129 322.422,574.141 281.051,569.41 335.98,475.898 355.59,348.59 339.102,234.219 l -79.063,0.23 -0.238,562.852 -4.063,162.66 z m 91.25,-108.242 c 7.192,0.269 25.16,-12.418 27.352,-21.949 0.461,-1.961 5.109,-13.68 10.351,-24.571 0.11,-2.039 17.809,-33.988 10.039,-31.179 -15.468,21.019 -43.128,56.8 -50.082,74.261 0.043,2.309 0.313,3.36 2.34,3.438 z m 55.16,-31.989 c 0.942,-5.281 6.293,-19.07 10.551,-28.171 11.012,-23.707 28.039,-60.899 24.602,-71.481 -2.34,-7.148 0.039,-6.758 -6.211,2.031 -3.039,4.34 -12.57,17.621 -14.84,20.661 -5.59,7.5 -1.84,0.628 -5.039,12.82 -7.582,34.488 -19.883,52.609 -27.852,72.769 -2.847,9.45 15.121,-4.808 18.789,-8.629 z m 9.801,-5.242 c 1.492,-1.047 21.723,-15.269 23.75,-17.297 7.192,-25.511 35.86,-107.23 28.442,-121.839 -2.582,2.027 -13.52,15.199 -15.039,21.988 -3.321,39.07 -15.704,67.191 -29.024,96.289 -3.707,8.793 -6.68,17.582 -8.129,20.859 z M 450,785.781 c 6.41,-3.121 13.051,-10.269 16.801,-16.679 2.5,-4.332 3.789,-9.411 6.168,-20.153 7.301,-33.359 21.293,-67.148 15,-102.699 -3.91,-5.352 -12.457,6.719 -13.668,18.59 -4.031,39.422 -7.5,58.281 -21.371,104.609 -2.7,8.992 -4.731,16.02 -2.93,16.332 z m 32.5,-30.551 c 1.371,-0.07 4.18,-2.609 8.828,-6.992 9.102,-8.547 10.391,-11.679 10.473,-25.859 0.269,-20.82 7.219,-44.57 8.277,-65.578 0.621,-12.153 2.852,-43.52 0.973,-45.391 -2.653,-3.64 -14.41,9.641 -13.473,30.039 1.481,24.492 0.274,42.93 -10.156,85.313 -4.844,19.566 -7.301,27.968 -5.192,28.437 0.071,0 0.192,0.031 0.27,0.031 z m 942.62,123.75 c 36.44,-23.429 23.59,-66.64 15.78,-71.949 50.39,-63.672 -27.93,-96.25 -52.78,-73.359 -36.79,-36.563 -99.92,-5.942 -75.58,54.34 -0.04,0 -46.21,88.238 44.88,82.34 0,0 1.6,35.628 -0.97,37.269 -32.54,2.18 -76.76,-29.101 -89.26,-37.781 -6.96,-4.219 -8.48,-2.18 -8.48,-2.18 -1.72,18.469 -1.76,26.949 5.74,37.301 13.13,18.008 34.85,24.059 63.32,30.348 35.28,-10.86 68.87,-27.93 101.53,-25.27 18,-0.117 36.4,-3.008 53.86,-12.379 11.76,-5.551 17.89,-26.371 17.89,-26.371 -18.47,-9.648 -75.93,7.691 -75.93,7.691 z m -17.39,130.86 c 0.16,6.29 7.31,13.36 14.34,12.54 9.65,-0.7 10.9,-12.15 2.34,-16.36 -2.5,-2 -10.5,0.97 -10.93,-1.25 0.58,-3.91 -3.36,-2.27 -4.1,-0.86 -1.33,1.68 -1.65,4.02 -1.65,5.93 z m -5.82,-24.918 c 3.52,2.457 6.49,2.699 10.04,3.168 5.51,0.66 12.5,-0.16 14.07,-5.899 1.52,-5.632 -9.3,-8.953 -18.05,-9.101 -4.45,-0.078 -9.57,-0.942 -10.94,2.18 -1.25,2.929 3.09,8.32 4.88,9.652 z M 297.809,1387.38 c 7.031,24.46 2.621,38.17 14.382,68.32 l 28.547,-9.53 c 0,0 1.211,-29.57 -4.566,-46.05 -5.742,-16.45 -24.692,-29.57 -38.363,-12.74 z M 510.512,725.738 c 3.359,-0.386 11.636,-12.187 15.386,-22.929 3.403,-10 2.301,-22.688 4.762,-33.43 5.629,-36.879 5.281,-73.789 3.789,-84.969 -0.738,-5.539 -4.289,-3.281 -9.219,2 -7.14,7.731 -6.171,7.891 -6.05,29.289 0.039,18.36 -4.02,63.711 -5.899,72.93 -3.441,17.031 -4.883,33.281 -4.101,36.101 0.23,0.782 0.699,1.09 1.332,1.008 z m 333.976,-4.41 c 36.762,-5.859 66.172,-30.937 83.012,-72.269 16.25,-42.028 20.27,-99.368 22.809,-152.071 -0.188,-12.609 -5.387,-9.449 -19.02,-1.597 -14.879,7.269 -18.051,5.16 -39.769,0.199 -13.551,-3.129 -12.301,6.09 9.96,21.398 7.622,4.961 16.45,11.563 13.559,12.543 -1.488,0.508 -8.277,-1.332 -13.199,-5.269 -21.879,-17.703 -27.82,-21.992 -21.488,-4.813 1.597,4.34 6.636,16.41 8.789,22.192 7.929,21.597 -1.211,30.82 -28.121,44.488 -6.758,3.441 -11.18,9.141 -4.461,-2.809 5.511,-9.769 -5.86,-17.66 -19.918,-6.211 -9.801,7.93 -29.45,2.661 -35.782,-7.269 -6.168,-9.61 -2.847,-27.539 9.262,-33.32 10.66,-4.61 14.649,-1.29 4.328,5.859 -13.277,9.223 -10.699,24.73 4.18,24.691 3.711,-0.039 10.199,-4.14 26.641,-13.09 11.761,-6.359 20.16,-3.671 20.16,5.86 0,6.371 3.629,5.82 11.41,2 10.39,-5.16 9.25,-9.809 3.75,-24.219 -3.711,-10.043 -5.551,-21.492 -8.949,-32 -8.789,-35.351 -9.961,-75.422 -0.231,-87.922 25.781,-33.211 53.199,-29.687 76.68,-7.738 L 947.109,373.59 C 923.16,354.379 895.199,341.289 852.031,270.078 836.949,288.98 772.379,366.289 668.789,383.75 l -23.32,31.91 c 0.39,1.961 -17.418,118.602 -29.059,158.32 0,0 12.809,19.461 24.449,33.79 46.52,57.308 125.121,122.89 203.629,113.558 z m -135.109,-33.09 c -3.988,-1.289 -5.277,6.684 -3.09,8.211 4.762,0.391 6.481,0.231 11.289,-0.121 3.594,-0.238 3.512,-4.379 -8.199,-8.09 z M 534.57,694.18 c 5.2,-3.668 11.481,-13.59 17.66,-22.66 3.43,-5 1.481,-13.282 2.032,-21.481 0.738,-11.598 2.027,-30.738 2.847,-42.5 1.602,-22.93 -0.55,-42.109 -3.91,-49.019 -3.429,-8.29 -10.347,-2.54 -12.109,8.781 -0.391,2.699 1.879,30.82 1.879,46.289 0,26.57 -6.797,59.34 -8.399,80.59 z m 156.801,0.16 c 1.828,0.109 3.238,0.039 4.449,-1.488 5.551,-7.153 7.809,-11.481 2.731,-15.391 -6.711,-5.621 -12.852,-4.223 -16.602,6.488 -2.379,7.571 3.281,10 9.422,10.391 z m -20.75,-6.289 c 6.02,-4.031 11.957,-14.653 12.578,-22.313 -0.347,-2.066 -2.219,-3.859 -6.25,-7.109 -4.019,-3.668 -5.269,-3.43 -9.719,3.601 -7.031,10.93 -10.32,18.161 -8.91,21.911 3.481,3.629 8.051,5.121 12.301,3.91 z m 244.848,-1.371 c 10.043,-0.86 19.961,-5.469 29.73,-7.77 l -14.89,-14.422 c -4.45,7.391 -9.489,14.813 -14.84,22.192 z M 648.32,679.141 c 5.508,-7.153 15.121,-25.903 14.61,-32.852 -1.41,-2.379 -3.59,-4.488 -5.899,-5.82 -1.832,-0.508 -3.48,2.691 -9.691,13.711 -10.781,19.101 -13.942,24.492 -8.36,26.761 2.969,0.348 7.43,0.188 9.34,-1.8 z m -21.761,-4.411 c 6.019,-5.351 20.429,-33.832 20.82,-41.839 -0.149,-2.27 -0.82,-4.219 -2.149,-5.7 -9.058,-9.769 -6.789,-8.211 -20.269,19.571 -11.371,22.847 -14.371,25.078 -6.871,27.648 1.68,0.59 5.859,1.328 8.469,0.32 z m -21.637,-7.46 c 3.949,0.07 5.039,-6.532 12.777,-21.61 12.891,-28.469 17.731,-32.422 14.801,-35.461 -3.59,-4.539 -5.699,-7.738 -9.102,-2.23 -7.808,12.652 -15.507,28.793 -22.777,42.972 -5.781,10.579 -6.32,11.868 -2.57,14.45 2.109,1.488 5.308,1.879 6.871,1.879 z m 230.308,-8.09 c -4.839,-1.371 -24.332,-7.539 -12.421,-8.629 2.421,-0.242 8.562,1.289 12.851,1.597 12.07,0.821 37.192,-1.449 36.289,0.864 -2.301,8.668 -30.148,7.886 -36.719,6.168 z m -247.218,-2.66 c 0,-0.469 3.16,-6.008 6.25,-11.442 18.359,-35.43 28.547,-48.359 25.269,-53.949 -2.652,-3.399 -6.801,-7.649 -9.261,-6.641 -3.942,1.641 -9.219,13.242 -22.34,39.492 -13.551,27.11 -14.961,29.141 -7.969,32.7 2.848,1.289 6.289,2.3 8.051,-0.16 z m -18.321,-12.5 c 8.43,-13.711 7.34,-11.872 7.219,-56.481 -0.031,-27.738 -3.59,-45.469 -8.238,-52.269 -2.422,-3.59 -6.723,-1.481 -8.871,5.511 -0.973,3.199 1.801,7.969 2.347,13.008 3.282,33.402 0.973,66.801 1.051,98.402 2.539,0.231 5.16,-5.941 6.492,-8.171 z m 217.418,-10.93 c 3.942,-5.59 2.969,-10.121 2.969,-17.66 -0.039,-10.66 0.703,-11.45 8.082,-6.051 6.531,4.762 7.039,5.07 18.68,-2.82 6.91,-4.68 15.621,-5.231 21.25,-0.039 3.98,3.64 5.351,2 10.66,0.628 5.781,-3.238 7.461,-3.707 19.879,2.301 8.359,3.711 8.711,4.262 13.711,1.602 8.789,-7.731 10.082,-4.922 8.871,5.199 0.039,3.52 1.059,10.121 2.109,14.41 4.379,17.969 -2.73,18.211 -12.07,6.719 -3.629,-4.449 -11.68,-6.359 -19.301,-2.77 -10.929,5.121 -28,3.051 -40.578,0.942 -14.922,-2.5 -21.84,1.597 -27.82,6.719 -3.391,2.89 -11.172,5.46 -12.031,3.242 -0.86,-2.231 0.902,-5.711 5.589,-12.422 z M 587.148,607.852 c 1.832,0.429 4.731,-5.122 8.903,-16.832 5.429,-15.122 -4.063,-67.7 -9.723,-76.329 -3.008,-4.492 -4.957,-7.269 -11.129,1.09 -2.469,3.668 -0.551,4.84 1.871,15.199 3.711,15.739 6.84,41.168 7.032,53 0.078,15.36 0.898,23.442 3.046,23.872 z m 18.981,-50.973 c 1.371,-0.117 2.93,-3.129 5.082,-9.149 3.051,-8.242 1.559,-24.101 -2.422,-36.25 -2.34,-7.07 -4.527,-14.601 -8.48,-20.929 -1.36,-3.563 -8.239,-2.313 -10.11,5.578 -1.219,4.961 2.922,11.141 4.922,19.07 2.027,7.961 4.328,18.082 5.469,23.199 2.109,12.422 3.59,18.59 5.539,18.481 z m 147.152,-23.328 c -0.16,0.039 -0.312,0 -0.429,-0.031 0.039,0.031 -0.082,-0.079 -0.122,-0.122 -0.308,-0.308 14.34,-16.289 18.29,-20.738 2.07,-1.762 19.718,-23.211 8.75,-18.281 -27.739,11.48 -60.161,5.851 -80.122,-13.399 -2.5,-2.429 -4.57,0.04 -12.148,0.622 -15.512,1.128 -21.129,-5 -11.68,-12.653 1.45,-1.179 4.45,-1.679 5.821,-3.558 1.25,-1.719 0.859,-4.801 1.519,-5.661 29.961,-39.808 85.512,-47.582 120.391,-21.57 4.379,3.289 6.84,4.418 10.937,3.211 8.09,-2.422 8.832,4.367 1.641,13.859 -3.117,4.149 -6.949,8.911 -4.719,10.282 4.449,3.828 6.641,10.039 -1.058,12.379 -5.313,1.597 -11.293,7.5 -14.262,15.738 -3.469,9.652 -37.649,39.223 -42.809,39.922 z M 617.148,516.129 c 6.524,0.16 6.832,-38.359 -0.386,-50.039 -3.672,-4.41 -12.153,3.789 -10.903,12.269 0.981,6.411 7.891,35.352 9.493,36.84 0.628,0.621 1.25,0.93 1.796,0.93 z m 132.891,-24.02 c 5.473,0.039 12.973,-2.418 18.91,-7.769 3.199,-2.93 8.86,-15.512 6.52,-20.43 -0.668,-2.539 -7.418,-2.39 -8.047,-0.551 -3.711,25.43 -24.301,29.102 -30.863,5.391 0,0 -4.219,-3.59 -4.758,3.32 1.437,13.481 7.808,19.918 18.238,20.039 z m 165.859,-2.23 c 6.563,0.16 12.813,-3.16 16.012,-10.149 2.231,-4.89 2.469,-8.992 1.61,-11.101 -0.668,-1.598 -2.899,-0.93 -2.899,-0.93 -10.422,28.711 -24.68,15.422 -29.84,-0.429 0,0 -5.351,-1.649 -6.011,0.031 -0.711,1.719 -0.282,4.969 1.871,9.418 4.058,8.511 11.839,13.051 19.257,13.16 z m -139.847,-1.758 c 3.679,0.199 10.039,-2.812 14.769,-7.57 4.801,-4.891 5.27,-7.781 1.41,-11.371 -2.351,-2.149 -10.671,-4.301 -12.269,-0.551 L 772.969,485 c -0.668,1.52 1.41,3.051 3.082,3.121 z M 725.66,487.34 c 4.141,0 5,-0.93 -1.48,-16.09 -1.41,-3.238 -18.129,1.48 -14.918,7.699 4.758,5 12.258,8.391 16.398,8.391 z m 167.27,-1.211 c 1.679,0.082 3.011,-0.149 3.59,-0.899 -1.481,-0.539 -7.809,-16.519 -7.809,-16.519 -5.981,0.738 -13.09,-0.121 -14.371,4.769 -1.219,4.61 1.172,7.418 9.57,10.622 2.539,0.937 6.25,1.918 9.02,2.027 z m 48.871,-4.059 c 6.32,-2.34 7.808,-7.691 6.988,-10.468 -0.629,-2.071 -3.59,-2.114 -5.699,-0.473 -2.039,2.351 -5,6.293 -4.77,8.992 0.66,2.649 1.45,2.688 3.481,1.949 z M 626.762,467.301 c 1.949,-3.672 5.468,-24.371 1.359,-23.86 -3.98,1.047 -5.82,7.297 -6.519,12.93 -0.153,1.129 3.398,10.82 5.16,10.93 z m 69.609,-11.051 c 1.828,0.27 6.481,-1.371 13.359,-5.27 22.692,-10.941 45.93,-12.5 70.622,-7 14.218,3.719 17.847,5.86 19.878,3.442 3.399,-4.141 -1.992,-8.32 -22.109,-15.082 -22.031,-7.379 -44.922,-6.129 -75,15.082 -8.082,5.699 -9.141,8.476 -6.75,8.828 z m 251.598,-5.738 c 3.75,-6.961 -8.989,-13.563 -15.391,-15.434 -13.707,-3.949 -34.418,-2.109 -46.129,4.961 -0.98,0.582 -1.918,1.211 -2.82,1.871 -9.527,7.07 -5.578,12.149 5.043,6.68 11.406,-5.891 34.566,-6.949 46.879,-1.012 6.168,2.973 10.429,6.684 12.418,2.973 l 0,-0.039 z M 666.41,437.539 c -1.25,-0.269 0.891,-3.48 5.309,-8.277 31.011,-34.813 105,-53.672 146.601,-17.813 13.051,12.223 11.059,17.731 -9.492,7.961 -22.738,-7.461 -55,-8.469 -82.93,-4.332 -13.75,1.871 -36.097,7.152 -47.457,15.434 -7.152,5.226 -10.902,7.258 -12.031,7.027 z m 213.86,-1.059 c 1.921,-0.152 5.242,-0.859 12.429,-4.57 10.5,-5.461 34.371,-3.59 42.18,-0.738 16.492,6.098 19.851,-1.641 4.262,-10.231 -17.379,-10.55 -41.371,-6.41 -55.391,7.149 -4.34,3.859 -6.68,8.711 -4.77,9.101 0.2,0.039 1.02,-0.671 1.29,-0.711 z M 674.648,374.922 c 61.09,-5.582 153.282,-66.211 189.223,-138.981 l -20.711,0 c -36.09,57.258 -91.64,103.399 -157.57,120.579 -2.621,2.031 -12.352,15.859 -10.942,18.402 z m 271.133,-13.32 -2.812,-20.153 c -10.239,-8.398 -47.77,-39.461 -75.59,-88.129 -5.82,0.27 -8.59,7.231 -7.649,11.989 22.301,43.953 48.942,68.211 86.051,96.293 z M 698.91,345.82 c 14.02,0.981 105.192,-48.011 135.891,-109.879 l -16.789,0 c -34.532,44.957 -72.934,74.289 -106.992,86.047 -8.29,8.75 -17.348,23.442 -12.11,23.832 z m 244.059,-13.98 -0.16,-27.231 c -21.829,-21.211 -37.77,-42.578 -50.231,-68.668 l -16.957,0 c 0,0 -3.742,7.457 -2.461,12.11 19.262,34.648 37.699,59.84 69.809,83.789 z m -138.52,-95.899 -16.398,0 c -13.832,19.528 -34.379,38.36 -53.25,49.571 -7.731,9.566 -16.403,21.398 -12.891,23.316 0.199,7.07 72.738,-41.949 82.539,-72.887 z m 138.871,55.309 -0.351,-15.738 c -11.09,-14.184 -20.391,-26.063 -29.297,-39.571 l -13.942,0 c 12.731,27.5 44.719,62.731 43.59,55.309 z M 755.199,260.781 c 5.031,-1.332 23.512,-18.941 22.922,-24.84 l -8.32,0.231 c -4.641,5.859 -10.192,11.988 -13.473,18.047 -2.027,3.793 -3.359,7.34 -1.129,6.562 z m 184.922,-4.84 c 0.039,0 0.078,0 0.109,0 l -0.191,-20 -13.988,0 c -1.52,0.27 6.758,15.11 14.07,20"
         inkscape:connector-curvature="0"
         id="path22"
         style="fill:#131f67;fill-opacity:1;fill-rule:nonzero;stroke:none" /><path
         d="m 1231.84,2300.74 c -68.72,0 -138.25,-0.39 -215.55,-1.21 l 521.99,-740.62 0.43,164.53 -167.5,216.17 c 38.13,11.76 84.65,19.88 121.33,23.12 -47.07,104.38 -70.63,202.39 -49.88,336.72 -74.18,0.86 -142.11,1.25 -210.82,1.29 z m 202.11,-4.72 c -4.11,-47.43 -9.46,-100.32 -0.86,-159.07 -27.15,9.93 -33.52,-6.99 -38.01,-8.79 -5.12,11.41 -24.06,31.1 -45.51,7.93 -11.13,-12.03 -5.7,-34.68 20.16,-44.92 -29.65,-2.26 -45.04,23.05 -50.24,49.18 -16.01,10.24 -32.85,20.35 -34.45,56.29 l 8.24,-1.37 c -2.73,-25.07 23.32,-37.85 38.56,-25.86 9.84,7.54 10.89,19.18 7.03,37.31 7.89,1.6 26.44,9.37 21.56,33.2 -6.8,32.89 -40.55,29.03 -56.02,7.42 -12.81,15.86 -36.32,18.83 -45.78,-5.86 -5.23,-13.75 6.72,-29.14 20.35,-32.14 -30.23,-5.79 -45.46,35.86 -47.14,64.06 l -12.54,22.22 c 81.68,0.47 117.42,0.4 214.65,0.4 z m -409.15,-0.82 60.63,-0.04 442.46,-572.54 0.94,-142.54 -504.03,715.12 z m 153.29,-0.04 9.64,-0.12 c 7.58,-50.39 36.57,-86.88 86.14,-104.65 2.58,-41.17 22.42,-97.07 97.77,-115.98 -2.23,-46.48 27.62,-90.89 59.61,-112.22 0,0.04 -8.63,-2.11 -15.39,-2.78 -42.97,34.11 -53.59,84.3 -57.85,105 -1.45,2.97 -5.55,3.71 -8.79,4.46 -36.8,12.97 -67.77,43.2 -80.43,80.08 l -7.93,36.21 c 0,4.64 -0.94,2.46 -11.88,6.48 -28.36,10.47 -54.6,41.17 -66.36,77.81 -6.21,19.3 -4.53,25.71 -4.53,25.71 z m -38.99,-0.12 33.95,-0.04 c 0,0 0.19,-5.98 0.7,-9.88 4.57,-36.1 36.99,-81.41 70.04,-96.45 4.69,-2.11 11.21,-5.12 12.73,-6.52 9.22,-59.18 36.06,-94.85 92.7,-119.26 0.9,-0.94 3.44,-1.52 4.22,-2.69 7.69,-36.61 24.57,-79.03 56.68,-102.35 l -13.87,-1.44 -257.15,338.63 z m 165.9,-62.11 c 7.7,0 13.91,-6.25 13.91,-13.91 0,-7.69 -6.21,-13.86 -13.91,-13.86 -7.66,0 -13.91,6.17 -13.91,13.86 0,7.66 6.25,13.91 13.91,13.91 z m -468.75,-75.9 c 0.781,-2.03 -189.961,-163.4 -171.41,-466.99 l -5.539,-6.17 1.519,-2.19 c -6.289,-7.15 -12.379,-12.89 -19.261,-19.84 39.57,-25.24 108.519,-52.74 108.75,-52.04 l -13.161,-30.5 82.383,-26.64 -11.011,-29.03 c 0,0 -57.348,19.03 -81.141,26.96 -11.719,-26.02 -18.828,-53.44 -27.34,-80.51 -0.82,-2.15 -2.699,-1.1 -5.629,3.12 -42.808,73.01 -130.738,125.67 -127.769,120.47 L 254.84,1297.81 252.699,1114.96 468.52,892.539 c 0,0 -62.469,-30.699 -92,-50.859 22.968,-18.75 48.992,-33.2 71.839,-50.942 47.231,-33.316 79.141,-82.297 109.762,-115.508 144.418,71.649 289.891,67.661 415.508,24.18 -14.609,-15.43 -30.969,-28.75 -46.051,-45.461 36.524,-95.789 24.844,-286.097 23.012,-291.25 76.01,77.653 189.1,244.18 174.02,478.672 l 31.99,32.07 c -0.58,1.637 -80.04,44.18 -113.12,53.438 l 9.14,29.141 -79.3,24.761 8.871,23.129 78.979,-22.859 c 14.92,36.679 30.78,88.129 30.78,88.129 31.53,-47.19 66.29,-90.121 137.85,-133.789 l 310.04,296.639 -1.99,190.74 -211.09,211.1 87.89,45.78 c -8.48,6.8 -20.7,13.24 -29.38,20.08 -0.62,0.5 1.72,1.95 1.1,2.42 -2.19,1.72 -3.79,3.08 -6.06,4.65 -0.51,0.35 -2.07,-1.92 -2.58,-1.57 -29.8,20.9 -59.64,41.49 -83.12,66.49 -0.59,0.62 0.27,3.24 -0.31,3.87 -12.19,13 -24.34,25.15 -36.72,37.96 -5.78,5.83 -15.28,19.61 -15.28,19.61 l -0.54,4.54 -13.32,16.79 c -42.93,-25.31 -225.98,-88.87 -403.049,-18.51 l 33.629,33.63 c -8.942,21.64 -14.758,45.74 -17.071,65.51 -9.25,79.22 -5.699,221.91 -5.699,221.91 z m 558.24,-44.88 c 8.13,0 14.69,-6.56 14.69,-14.65 0,-8.12 -6.56,-14.69 -14.69,-14.69 -8.08,0 -14.65,6.57 -14.65,14.69 0,8.09 6.57,14.65 14.65,14.65 z m 45.94,-17.46 c 7.46,-36.49 23.91,-89.46 40.27,-125.2 l -19.49,-2.15 c -15.9,10.32 -32.69,25.36 -34.45,46.72 -42.93,-0.31 -55.51,67.03 -39.81,58.95 -1.99,-23.01 14.5,-32.07 30.71,-29.81 13.94,1.92 26.01,21.18 9.41,42.42 7.38,2.9 10.98,5.04 13.36,9.07 z M 831.84,1986.8 c 2.851,-46.68 11.988,-80.71 20.539,-115.98 l -84.84,-80.04 c 6.602,73.05 28.082,138.36 64.301,196.02 z m 406.95,-153.71 10.78,-15.47 c -122.62,-72 -331.91,-77.11 -459.41,-16.37 l 16.91,16.09 c 112.11,-50.62 294.65,-54.37 431.72,15.75 z m -796.411,-24.07 c -12.34,0.16 -26.598,-4.53 -41.719,-16.05 -56.25,25.62 -93.082,-34.3 -58.32,-73.95 -5.149,-28.55 -9.02,-33.9 12.461,-62.81 -22.852,-2.89 -51.641,3.09 -76.172,6.84 4.141,-42.27 64.691,-52.11 89.922,-47.46 27.23,5.89 52.898,-7.58 54.027,-7.89 15.973,-4.46 25.942,-12.19 41.723,-15.9 26.008,-6.18 64.14,24.33 69.648,53.28 0.539,3.9 1.75,7.42 -0.398,8.01 -17.813,-4.54 -37.34,-10.98 -54.68,-14.77 -16.992,-4.14 -29.769,-8.28 -42.699,-18.4 l -1.094,34.96 c 88.121,-4.22 49.762,79.57 44.801,83.17 16.371,33.08 -3.32,70.58 -37.5,70.97 z m 801.021,-2.61 19.14,-46.1 -50.94,-17.26 -13.01,45.11 44.81,18.25 z m -804.689,-1.37 c 29.961,-0.31 56.758,-31.84 27.969,-67.19 55.781,-49.18 -15.7,-101.87 -49.731,-65.27 -45.269,-41.49 -93.429,1.83 -68.121,47.03 -48.277,43.2 11.293,101.21 51.992,63.87 10,15.35 24.301,21.68 37.891,21.56 z m 347.769,-16.92 c 7.149,0 12.969,-5.82 12.969,-12.96 0,-7.19 -5.82,-12.97 -12.969,-12.97 -7.179,0 -13,5.78 -13,12.97 0,7.14 5.821,12.96 13,12.96 z m -331.789,-0.93 c -0.742,-0.04 -1.64,-0.35 -2.621,-1.21 -1.449,-0.16 -4.57,-5.55 -12.5,-14.73 -13.75,-15.94 -15.23,-16.09 -15.23,-16.09 -14.649,4.8 -24.461,2.22 -34.11,-3.91 0,0 -11.011,2.11 -26.21,14.77 -6.911,5.82 -10.661,7.07 -11.872,3.94 -1.25,-3.28 1.872,-6.56 15.153,-15.58 18.398,-12.54 17.269,-11.57 17.269,-11.57 -1.129,-11.01 0.629,-19.92 4.809,-28.24 0,0 -3.25,-7.81 -16.289,-24.92 -3.711,-4.85 -6.719,-10.08 -6.762,-11.68 0,-6.64 5.781,-2.19 19.141,14.69 5.23,6.6 12.422,16.09 12.422,16.09 15.66,-5.43 21.168,-2.15 30.98,1.37 0,0 3.399,-2.54 11.91,-9.34 15.668,-12.46 19.059,-13.79 20.981,-12.23 2.578,2.15 2.218,2.86 -3.672,7.11 -17.66,12.78 -23.711,20.16 -23.711,20.16 3.59,13.98 -0.359,25.55 -4.18,32.81 0,0 0.27,1.8 10.231,12.93 7.3,8.17 17.3,21.06 16.679,22.89 0.161,1.17 -0.82,2.74 -2.418,2.74 z m 361.047,-2.85 45.903,-14.26 -10.161,-47.66 -48.859,15.74 13.117,46.18 z m 331.922,-11.68 12.81,-46.53 -47.74,-12.69 -7.81,49.37 42.74,9.85 z m 33.51,-0.78 c 7.19,0 12.97,-5.83 12.97,-12.97 0,-7.19 -5.78,-13.01 -12.97,-13.01 -7.19,0 -12.97,5.82 -12.97,13.01 0,7.14 5.78,12.97 12.97,12.97 z m 108.48,-1.68 40.08,-35.71 -44.5,-22.46 -21.44,46.52 25.86,11.65 z m -378.201,-10.32 46.602,-5.47 -1.922,-50.07 -53.469,7.14 8.789,48.4 z m -161.679,-0.54 51.832,-22.74 -18.672,-52.26 -53.09,22.81 19.93,52.19 z m 133.628,-4.03 c 19.141,-3.01 13.981,-25.54 0,-25.97 -7.148,0 -12.968,5.82 -12.968,12.96 0,7.19 5.82,13.01 12.968,13.01 z m 167.652,-0.04 6.41,-50.11 -48.4,-2.97 -1.01,50.93 43,2.15 z m 33.29,-5.74 c 7.18,0 13,-5.82 13,-12.97 0,-7.18 -5.82,-13.01 -13,-13.01 -7.15,0 -12.97,5.83 -12.97,13.01 0,7.15 5.82,12.97 12.97,12.97 z m -673.481,-4.69 c 7.422,0 13.403,-5.97 13.403,-13.36 0,-7.42 -5.981,-13.43 -13.403,-13.43 -7.379,0 -13.359,6.01 -13.359,13.43 0,7.39 5.98,13.36 13.359,13.36 z m 572.852,0.47 c 7.187,0 13.008,-5.78 13.008,-12.97 0,-7.18 -5.821,-12.96 -13.008,-12.96 -7.152,0 -12.973,5.78 -12.973,12.96 0,7.19 5.821,12.97 12.973,12.97 z m 227.849,-3.2 18.87,-51.49 -52.85,-17.07 -14.96,52.93 48.94,15.63 z m 37.11,-1.37 c 7.19,0 12.97,-5.82 12.97,-13.01 0,-7.14 -5.78,-12.96 -12.97,-12.96 -7.19,0 -12.97,5.82 -12.97,12.96 0,7.19 5.78,13.01 12.97,13.01 z m 91.37,-14.61 34.18,-24.18 -16.92,-9.41 c -4.45,10.62 -12.26,23.2 -17.26,33.59 z m -488.239,-4.68 50.429,-10.94 -7.699,-52.81 -55,10.97 12.27,52.78 z m -149.961,-2.9 26.789,-12.61 -17.649,-43.99 -43.32,23.05 34.18,33.55 z m 119.719,-2.85 c 7.152,0 12.972,-5.82 12.972,-13 0,-7.15 -5.82,-12.97 -12.972,-12.97 -7.18,0 -13.008,5.82 -13.008,12.97 0,7.18 5.828,13 13.008,13 z m 291.211,-2.93 9.03,-52.81 -56.88,-8.01 -3.51,53.87 51.36,6.95 z m 212.93,-0.97 c 7.19,0 13.01,-5.82 13.01,-13.01 0,-7.15 -5.82,-12.97 -13.01,-12.97 -7.15,0 -12.97,5.82 -12.97,12.97 0,7.19 5.82,13.01 12.97,13.01 z m -40.31,-0.39 18.79,-46.57 -55.63,-23.28 -16.44,46.6 53.28,23.25 z m -141.87,-3.36 c 7.14,0 12.96,-5.82 12.96,-13.01 0,-7.15 -5.82,-12.97 -12.96,-12.97 -7.19,0 -13.01,5.82 -13.01,12.97 0,7.19 5.82,13.01 13.01,13.01 z m -187.93,-5.32 53.24,-0.93 -0.63,-53.44 -58.278,1.64 5.668,52.73 z m 425.86,-3.71 20.93,-14.53 c -215.54,-138.59 -518.321,-155.78 -754.571,-19.33 0,0 9.652,9.61 15.121,15.27 213.011,-127.5 523.98,-109.61 718.52,18.59 z m -454.731,-6.01 c 7.191,0 13.011,-5.82 13.011,-12.97 0,-7.19 -5.82,-13.01 -13.011,-13.01 -7.149,0 -12.969,5.82 -12.969,13.01 0,7.15 5.82,12.97 12.969,12.97 z m 109.331,-2.93 c 7.15,0 12.97,-5.82 12.97,-13.01 0,-7.15 -5.82,-12.97 -12.97,-12.97 -7.18,0 -13,5.82 -13,12.97 0,7.19 5.82,13.01 13,13.01 z m -253.589,-7.15 55.59,-16.09 -9.461,-43.87 -60.969,17.54 14.84,42.42 z m -36.801,-0.31 c 7.192,0 12.969,-5.82 12.969,-12.97 0,-7.19 -5.777,-13.01 -12.969,-13.01 -7.14,0 -12.961,5.82 -12.961,13.01 0,7.15 5.821,12.97 12.961,12.97 z m 431.88,-9.34 13.28,-49.3 -61.44,-13.12 -7.43,48.44 55.59,13.98 z m 35.31,-7.15 c 7.19,0 12.97,-5.82 12.97,-13.01 0,-7.14 -5.78,-12.96 -12.97,-12.96 -7.15,0 -12.97,5.82 -12.97,12.96 0,7.19 5.82,13.01 12.97,13.01 z m -803.12,-7.65 -0.121,-34.57 c -10.199,8.43 -21.679,17.34 -33.48,26.4 12.031,-0.62 23.211,2.7 33.601,8.17 z m -126.609,-0.86 c 2.82,0.04 9.379,-2.27 17.188,-2.23 25.043,0.08 71.8,-7.73 85.632,-19.1 4.61,-3.79 11.52,-7.11 15.27,-13.2 -0.039,-2.93 -4.141,-3.01 -10.16,0.74 -11.602,7.22 -30.891,13.63 -56.711,17.22 -4.649,0.63 -5.238,0.43 -5.238,-1.75 0,-2.7 4.296,-4.3 17.886,-6.53 17.582,-2.89 21.332,-4.61 25.242,-5.7 10.43,-2.85 3.75,-6.68 -7,-7.69 -43.859,-4.11 -76.75,14.76 -83.351,36.32 -0.508,1.45 -0.039,1.92 1.242,1.92 z m 611.367,-0.78 55.242,-7.15 -2.5,-46.21 -60.429,6.91 7.687,46.45 z m -469.527,-4.03 c 9.648,-7.58 3.008,-30.51 -2.231,-37.26 -3.39,-3.79 -11.359,-1.8 -11.32,3.55 1.211,4.77 -0.512,27.62 0.539,34.69 3.832,2.19 9.5,1.56 13.012,-0.98 z m 639.879,-2.03 2.86,-47.66 -60.24,-2.73 0.47,46.8 56.91,3.59 z m -203.238,-3.2 c 7.148,0 12.968,-5.82 12.968,-13.01 0,-7.15 -5.82,-12.97 -12.968,-12.97 -7.192,0 -13.012,5.82 -13.012,12.97 0,7.19 5.82,13.01 13.012,13.01 z m -335.661,-0.67 c 2.219,-34.96 -51.492,-58.67 -71.562,-47.96 -8.91,4.76 -5.199,7.69 12.422,11.25 22.847,6.05 37.847,11.95 37.89,16.21 0,2.61 -3.48,2.3 -12.781,-1.18 -14.289,-4.8 -29.211,-6.87 -42.89,-13 -10.192,-4.65 -14.18,-6.29 -16.481,-3.48 -4.809,5.82 17.891,20.59 41.441,24.53 17.7,2.93 35.508,12.34 51.961,13.63 z m 572.109,-4.37 c 7.18,0 13,-5.82 13,-12.97 0,-7.19 -5.82,-13.01 -13,-13.01 -7.15,0 -12.97,5.82 -12.97,13.01 0,7.15 5.82,12.97 12.97,12.97 z m -120.749,-9.49 c 7.187,0 13.008,-5.82 13.008,-13.01 0,-7.15 -5.821,-12.97 -13.008,-12.97 -7.141,0 -12.961,5.82 -12.961,12.97 0,7.19 5.82,13.01 12.961,13.01 z m 289.299,-22.07 c 86.88,-82.74 182.15,-177.97 260.7,-256.33 -0.11,-41.02 -0.35,-123.01 -0.35,-123.01 l -300,-285.12 c -54.33,33.171 -100.31,74.65 -142.65,148.28 4.76,4.11 8.98,6.72 12.61,11.25 l -15.66,-9.37 c -55.35,88.52 -78.83,264.84 15.2,406.21 l -95,-3.48 15.5,32.35 103.4,5.66 41.8,44.85 c 0,0 13.24,2.46 24.26,5 10.86,2.5 33.08,8.86 49.41,14.14 16.29,5.27 30.16,9.57 30.78,9.57 z m -701.33,-22.93 c 0,0 89.3,-48.52 138.871,-145.71 -160.27,-137.85 -220.7,-298.39 -234.34,-465.461 -87.223,81.561 -131.281,126.711 -210.11,205.931 l 2.887,118.24 302.692,287 z m 337.07,-15.39 c -23.078,-49.42 -42.961,-103.52 -60.781,-161.49 l -24.84,7.35 c 0,0 16.09,6.71 23.242,10.97 l -12.93,20.78 24.449,10.04 -14.449,17.62 24.848,14.37 -12.43,15.59 22.742,11.37 -14.101,16.21 23.82,13.28 -12.461,15.55 32.891,8.36 z m 7.621,-0.12 c 0,0 3.199,-0.63 6.949,-1.37 0.899,0.35 -4.488,-12.93 -3.898,-13.4 8.668,-1.79 9.179,-1.29 11.789,-2.11 l 6.609,13.72 10.86,-2.08 c -21.918,-49.41 -45.321,-103.51 -58.79,-162.03 l -12.781,2.66 c 0,0 3.75,12.34 3.75,13.98 -1.48,0.32 -8.711,3.36 -10.929,4.26 -0.79,-1.95 -5.321,-16.25 -5.321,-16.25 l -10.148,0.28 c 16.597,63.94 45.469,134.8 61.91,162.34 z m 41.598,-1.92 22.703,-18.74 -25.742,-10.04 13.32,-17.74 -27.27,-9.84 15.66,-18.44 -27.031,-9.96 16.141,-22.31 -28.09,-9.45 17.73,-19.61 -25.351,-11.83 15.199,-15.04 c 0,0 -15.816,-5.2 -16.758,-5.43 -2.539,-0.67 -13.16,1.95 -13.16,1.95 16.012,57.03 35.82,114.88 62.649,166.48 z m -551.789,-9.49 c -6.25,-4.06 -2.7,-12.93 -10.551,-20.47 -1.25,-1.36 -1.367,-4.49 -1.84,-7.18 -0.391,-2.07 -6.598,-26.76 -6.598,-26.76 0,0 1.559,1.87 4.059,9.76 2.109,6.72 3.949,19.46 5.121,21.61 5.777,1.75 6.68,20.66 12.539,18.04 3.398,-1.48 2.73,-4.57 0.82,-11.79 -4.179,-14.5 -5.82,-20.59 1.371,-10.71 10.7,12.89 11.758,24.53 -0.312,26.99 -1.289,0.24 -3.867,0.47 -4.609,0.51 z m 162.07,-5.39 -280.36,-263.2 -0.82,-98.2 97.539,-98.87 69.262,-67.15 c 25.117,150.31 82.769,293.71 224.769,417.81 -21.761,35 -59.031,79.07 -110.39,109.61 z m 755.62,-2.69 c -164.73,-77.43 -202.58,-236.17 -151.6,-379.89 78.52,100.94 140.12,195.79 151.6,379.89 z m -586.249,-8.05 74.809,-24.06 -28.168,-96.06 -67.34,20.43 -6.883,17.03 27.582,82.66 z m 577.969,-2.5 c -7.15,-128.44 -55.59,-253.91 -139.88,-352.34 -42.62,105.11 -16.96,273.2 139.88,352.34 z m -402.891,-0.7 -4.73,-11.92 10.351,-2.93 4.418,12.11 -10.039,2.74 z m -10.348,-28.21 -4.261,-12.11 10.621,-3.59 3.988,12.31 -10.348,3.39 z m 441.249,-2.18 c -23.05,-178.17 -119.3,-340.32 -221.02,-422.93 32.42,-52.58 70.51,-86.41 109.26,-114.609 l 286.45,274.409 -1.1,91.52 -173.59,171.61 z M 580.199,1464.1 c -1.801,-6.52 -2.39,-9.8 -2.39,-9.8 0,0 3.281,3.04 11.992,7.81 56.289,28.05 38.129,-14.65 11.609,-30.43 -5.941,-3.16 -12.031,-6.91 -12.031,-6.91 0,0 5.66,-1.25 11.75,-2.39 34.141,-7.11 26.883,-27.07 -8.75,-23.98 -5.27,0.47 -11.438,1.44 -11.438,1.17 0,-0.31 2.11,-7.81 4.571,-14.02 12.027,-30.24 -10.391,-32.58 -25.121,-13.36 -2.032,2.65 -6.68,10.08 -6.68,10.08 0,0 -1.481,-5.59 -2.34,-11.02 -12.742,-47.42 -44.141,-46.21 -32.422,1.91 1.442,4.96 3.242,13.87 3.242,13.87 0,0 -7.07,-4.3 -14.769,-7.69 -40.66,-18.17 -47.262,0.5 -10.313,27.85 10.512,7.77 14.063,10.82 14.063,10.82 -6.524,0.51 -12.582,1.52 -17.891,2.85 -29.492,7.38 -37.34,25 9.879,24.18 7,-0.12 14.11,-0.59 14.11,-0.59 0,0 -2.348,10.12 -4.809,17.78 -11.41,35.31 11.559,39.53 30.937,7.85 4.141,-6.72 5.313,-6.76 5.313,-6.76 -0.59,-0.04 1.211,12.07 5.898,23.24 23.481,43.44 32.661,3.79 25.59,-22.46 z m 506.601,35.16 c -19.65,-34.77 -36.8,-69.3 -45,-105.35 l -76.53,1.29 c 5.281,31.99 18.789,65.23 34.96,100.35 31.14,0.86 59.26,2.22 86.57,3.71 z m -202.07,-15.39 -4.421,-12.82 11.101,-3.39 4.02,12.46 -10.7,3.75 z m -572.39,-24.03 c -8.199,-21.29 -10.969,-45.04 -15.5,-64.06 -1.918,-11.01 0.039,-15.58 6.64,-18.08 9.411,-3.48 22.969,1.28 30.579,12.14 4.261,6.14 7.39,18.79 8.011,41.1 l 0.739,19.92 c -11.637,2.15 -19.571,5.27 -30.469,8.98 z m 562.039,-2.77 -3.68,-11.76 10.711,-3.94 4.102,11.83 -11.133,3.87 z m 495.741,-4.41 c 13,-0.32 15.43,-1.49 27.22,-8.44 l 22.78,-23.44 c -5.98,-5.7 -9.69,-13.71 -9.69,-22.62 0,-17.34 14.02,-31.4 31.37,-31.4 8.59,0 22.03,9.06 22.03,9.06 l 36.05,-37.34 c -21.01,-9.22 -41.6,11.95 -49.33,20.35 -1.84,1.95 -2.31,3.32 -2.31,3.32 0,0 0.31,-1.06 -0.43,-5.2 -3.01,-16.6 -19.41,-65.7 -35.11,-63.08 -17.66,2.93 0.31,73.12 0.5,71.48 -12.15,-12.81 -71.32,-26.48 -67.18,-12.15 8.24,28.48 52.5,39.46 58.32,44.38 -23.52,14.18 -53.36,53.44 -34.22,55.08 z m -1054.921,-0.9 c 7.5,-0.55 12.61,-1.45 17.731,-3.56 2.379,-0.66 2.461,-2.61 2.73,-4.49 0.039,-8.4 2.149,-33.09 -5.621,-33.36 -8.668,0.2 -16.801,-1.68 -22.5,-6.01 -4.57,-3.52 -6.09,-0.98 -4.879,8 1.211,8.68 5.539,26.96 7.379,34.34 0.313,3.05 2.731,5.2 5.16,5.08 z m 233.86,-0.31 c -17.297,0 -31.36,-14.07 -31.36,-31.37 0,-17.35 14.063,-31.41 31.36,-31.41 17.351,0 31.371,14.06 31.371,31.41 0,17.3 -14.02,31.37 -31.371,31.37 z m 0,-10.98 c 11.293,0 20.429,-9.14 20.429,-20.39 0,-11.29 -9.136,-20.39 -20.429,-20.39 -11.25,0 -20.387,9.1 -20.387,20.39 0,11.25 9.137,20.39 20.387,20.39 z m 161.921,-0.39 c 71.911,-124.14 63.551,-294.53 -21.21,-418.48 l 91.128,6.37 -11.949,-23.32 -97.187,-9.451 C 656.91,981.602 643.398,966.051 628.789,951.52 l -0.16,-5.149 c -33.32,-7.742 -66.68,-16.641 -100.617,-28.871 -17.934,17.621 -51.641,52.77 -51.41,53.672 l 2.148,11.406 c 231.129,117.892 163.52,354.372 147.23,373.832 24.801,29.76 54.411,57.77 85,83.67 z m 641.4,-22.58 c 9.38,0 16.92,-7.58 16.92,-16.95 0,-9.38 -7.54,-16.96 -16.92,-16.96 -9.37,0 -16.95,7.58 -16.95,16.96 0,9.37 7.58,16.95 16.95,16.95 z m 75.35,-4.53 28.4,-29.26 c -3.67,-3.63 -8.75,-5.94 -14.33,-5.94 -11.25,0 -20.39,9.11 -20.39,20.39 0,5.79 2.42,11.06 6.32,14.81 z m -975.46,-3.63 c 9.371,0 16.949,-7.58 16.949,-16.96 0,-9.33 -7.578,-16.95 -16.949,-16.95 -9.34,0 -16.961,7.62 -16.961,16.95 0,9.38 7.621,16.96 16.961,16.96 z m -126.098,-7.11 c 7.93,-2.66 6.098,-10.08 -4.184,-16.61 -6.636,-4.21 -12.687,-5.15 -18.547,-2.03 -11.062,5.9 11.911,22.46 22.731,18.64 z m 131.019,-41.53 -102.113,-98.79 c 6.402,16.41 6.641,32.78 7.152,49.18 30.7,-3.16 43.59,12.43 39.098,44.53 19.844,-1.21 40.391,0.9 55.863,5.08 z m 163.629,-11.29 c 47.34,-135 6.25,-277.89 -141.871,-360.66 6.09,129.41 60.391,253.09 141.871,360.66 z m 134.879,-11.79 c 81.289,-21.29 173.832,-31.21 269.891,-31.29 0.7,-36.53 2.46,-75.2 9.96,-112.5 -81.839,21.4 -173.249,31.37 -273.089,29.61 4.141,38.63 -2.461,82.42 -6.762,114.18 z m 602.701,-20 -86.52,-101.17 3.63,55.23 c 29.14,-3.71 39.53,11.68 35.23,42.03 15.9,-1.95 31.76,0.82 47.66,3.91 z m -841.021,-5.59 -6.828,-40.43 c -17.27,-0.47 -34.223,-6.6 -33.992,-45.15 l -51.637,0.62 92.457,84.96 z m 952.541,-7.46 c 9.38,0 16.92,-7.62 16.92,-16.95 0,-9.38 -7.54,-17 -16.92,-17 -9.37,0 -16.95,7.62 -16.95,17 0,9.33 7.58,16.95 16.95,16.95 z m -1031.049,-5.16 c 9.367,0 16.949,-7.57 16.949,-16.95 0,-9.37 -7.582,-16.91 -16.949,-16.91 -9.34,0 -16.961,7.54 -16.961,16.91 0,9.38 7.621,16.95 16.961,16.95 z m 993.239,-17.38 -9.06,-61.21 c -23.6,2.07 -43.25,-1.56 -37.19,-43.05 -19.96,1.96 -47.7,-2.73 -66.25,-4.33 l 112.5,108.59 z m -84.53,-11.09 c 9.37,0 16.99,-7.58 16.99,-16.96 0,-9.37 -7.62,-16.91 -16.99,-16.91 -9.34,0 -16.96,7.54 -16.96,16.91 0,9.38 7.62,16.96 16.96,16.96 z M 314.609,1257.81 c 9.371,0 16.95,-7.61 16.95,-16.95 0,-9.38 -7.579,-16.91 -16.95,-16.91 -9.379,0 -16.91,7.53 -16.91,16.91 0,9.34 7.531,16.95 16.91,16.95 z m 56.211,-20.04 c 21.641,-4.88 11.641,-55.35 6.758,-69.06 -0.348,-0.35 60.434,31.84 64.024,17.62 2.378,-28.52 -50.274,-48.36 -50.274,-48.36 0,0 35.473,-30.86 36.481,-50.24 0.082,-12.53 -14.84,-10.23 -34.219,5.67 -8.281,8.16 -14.68,14.26 -20.391,19.92 6.641,5.74 10.86,14.26 10.86,23.75 0,17.31 -14.059,31.37 -31.399,31.37 -9.57,0 -18.129,-4.3 -23.871,-11.06 -4.488,4.34 -9.57,9.38 -16.41,15.86 -11.207,10.47 -19.059,18.79 -17.93,22.54 14.77,10.43 44.141,-17.54 46.801,-20.08 -2.23,5.47 14.02,59.14 29.57,62.07 z m -29.57,-62.07 c 0.121,-0.27 0.27,-0.47 0.469,-0.47 0,0 -0.348,0.36 -0.469,0.47 z m 922.93,22.66 c 10.27,0.12 9.65,-23.32 5.98,-35.47 -2.5,-9.3 -5,-16.91 -5,-16.91 0,0 8.71,6.79 12.54,8.59 28,13.13 38.47,-1.72 24.33,-18.98 -6.8,-8.87 -16.05,-10.82 -23.55,-18.29 10.7,-0.46 23,-2.85 32.26,-8.28 7.19,-4.29 12.81,-9.53 12.81,-12.77 -0.03,-7.23 -17.81,-11.13 -34.45,-9.26 -7.11,-0.15 -20.43,3.63 -20.43,3.63 0,0 5.55,-9.29 7.54,-14.84 6.21,-17.23 4.06,-37.42 -4.92,-37.38 -15.04,3.98 -22.38,20.7 -28.24,32.69 -4.85,-13.36 -9.53,-27.69 -20.28,-37.61 -10.62,-9.85 -16.09,-1.68 -15.54,15.04 0.19,6.64 5.07,26.44 5.07,26.44 -63.12,-21.29 -58.43,7.54 -9.18,32.77 -30.31,14.5 -48.74,27.5 2.86,30.47 -1.37,1.21 -10.39,28.87 -0.75,35.35 8.99,6.02 28.09,-14.64 28.99,-15.66 -0.39,2.03 5.04,18.24 14.1,29.41 6.95,7.86 12.11,10.98 15.86,11.06 z m -58.2,-60.16 c 0.07,-0.08 0.11,-0.08 0.15,0 l -0.15,0 z m 276.36,18.25 c -11.01,-1.02 -17.85,-10.75 -22.93,-19.26 -1.01,-1.72 -2.93,-2.35 -3.63,-4.61 -4.57,-14.69 -8.55,-32.23 -10.98,-54.1 6.96,-2.89 22.66,-7.7 29.61,-5.12 1.96,0.82 1.37,5.86 2.04,7.54 10.93,27.62 16.36,48.24 16.36,60.9 0,10.23 -3.51,15.27 -10.47,14.65 z m -1129.61,1.25 c 11.29,0 20.43,-9.15 20.43,-20.4 0,-6.48 -3.039,-12.22 -7.73,-15.97 -13.16,13.12 -19.879,19.96 -28.668,28.59 3.707,4.73 9.488,7.78 15.968,7.78 z m 1133.48,-9.73 c 2.77,-6.68 -6.09,-13.95 -17.58,-13.91 -6.79,0.04 -9.02,-0.94 -5.97,5 3.59,7.19 18.28,21.72 23.55,8.91 z m -153.79,4.73 c 9.34,0 16.96,-7.58 16.96,-16.96 0,-9.33 -7.62,-16.91 -16.96,-16.91 -9.37,0 -16.99,7.58 -16.99,16.91 0,9.38 7.62,16.96 16.99,16.96 z m -894.182,-1.18 c 9.383,0 16.992,-7.57 16.992,-16.91 0,-9.38 -7.609,-16.99 -16.992,-16.99 -9.328,0 -16.91,7.61 -16.91,16.99 0,9.34 7.582,16.91 16.91,16.91 z m 801.922,-6.87 c -17.31,0 -31.37,-14.06 -31.37,-31.37 0,-17.34 14.06,-31.4 31.37,-31.4 17.34,0 31.4,14.06 31.4,31.4 0,17.31 -14.06,31.37 -31.4,31.37 z m -419.301,-4.22 c -8.238,-36.17 -20.937,-70.7 -36.988,-104.92 -30.242,-1.8 -62.93,-3.21 -84.492,-6.29 35.891,62.89 36.793,77.69 50.07,111.01 l 71.41,0.2 z m 51.95,-5.12 c 8.519,-0.97 17.812,-2.26 26.211,-3.9 -15.43,-54.34 -35.86,-110.12 -62.18,-163.832 l -15.981,2.5 -7.578,9.332 25.348,10.121 -19.719,20.199 32.692,9.88 -20.122,19.84 32.348,8.09 -17.308,21.01 29.031,11.33 -18.442,23.79 30.903,8.52 -15.203,23.12 z m 367.351,-1.64 c 11.29,0 20.43,-9.14 20.43,-20.39 0,-11.29 -9.14,-20.39 -20.43,-20.39 -11.25,0 -20.39,9.1 -20.39,20.39 0,11.25 9.14,20.39 20.39,20.39 z m -335.359,-3.08 10.789,-1.76 -3.32,-11.56 12.3,-2.62 3.981,12.5 c 0,0 9.89,-0.94 10.937,-1.72 -12.886,-52.46 -58.398,-162.231 -58.976,-161.68 l -11.684,1.762 3.082,11.09 -10.89,1.519 0,0.117 -5.282,-12.027 -11.597,0.98 c 28.16,64.289 47.339,113.629 60.66,163.399 z m 572.739,-4.18 c 8.63,0.04 8.12,-4.42 1.84,-20.71 -5.86,-15.31 -8.09,-21.44 -10.94,-23.43 -6.8,-4.85 -21.49,-0.79 -20.28,6.25 3.87,22.89 5.24,32.65 11.14,35.74 6.13,1.21 12.15,2.11 18.24,2.15 z m -529.38,-1.92 28.129,-5.43 -23.519,-13.98 14.96,-17.46 -28.902,-12.35 17.543,-18.16 -27.891,-11.41 16.95,-19.96 -28.95,-12.19 19.731,-17.101 -32.539,-10.277 12.308,-18.902 -12.23,-6.879 -15.121,2.379 c 25.082,58.48 41.211,106.61 59.531,161.72 z m 69.14,-13.98 55.08,-14.96 11.02,-19.69 -25.82,-87.27 -73.439,21.53 33.159,100.39 z m -109.491,-8.4 -5.27,-14.34 12.152,-2.54 4.649,14.77 -11.531,2.11 z m -10.661,-32.93 -5.269,-14.34 11.402,-2.22 5.348,14.49 -11.481,2.07 z m -10.738,-28.95 -5.39,-14.25 11.089,-2.27 5.313,14.3 -11.012,2.22 z m 517.65,-26.25 c 0,0 -5.62,-4.06 -7.11,-5.86 1.25,-3.28 4.81,-8.319 4.26,-11.6 -0.47,-2.5 -3.24,-4.489 -7.42,-8.899 -10.35,-12.07 -14.02,-10.781 -7.97,2.109 1.95,4.059 2.85,7.809 2.85,7.809 -2.42,-3.359 -4.22,-7.34 -5.82,-10.508 -3.44,-6.562 -6.64,-12.812 -6.64,-12.812 6.6,-2.27 11.02,-7.188 15.27,-10.348 0,0 2.19,5.82 3.68,11.399 2.11,7.82 6.21,11.019 11.29,13.679 3.2,1.711 6.25,4.801 6.25,4.801 -5.59,5.66 -6.22,13.79 -8.64,20.23 z m -529.138,-3.51 -5.703,-15.161 11.051,-2.731 6.179,15.512 -11.527,2.38 z M 251.52,972.301 c -1.008,-60.461 0.98,-100.27 -1.129,-165.5 l 163.711,-212.153 -25.551,-8.597 c 0,0 -0.27,-2.93 -1.641,-3.321 -35,-9.609 -91.75,-19.179 -91.75,-19.179 42.219,-96.36 69.61,-216.871 50.699,-337.262 l 423.711,1.133 -518.05,744.879 z m 896.1,-102.461 -14.61,-14.641 C 917.539,971.801 620.738,971.371 404.18,830.16 l -17.66,12.93 c 236.371,151.441 527.191,150.5 761.1,26.75 z M 259.41,951.09 758.16,234.691 699.57,233.828 259.84,809.059 259.41,951.09 z m 1070.28,-12.93 c 0,0 -14.38,-3.75 -26.49,-7.609 -34.65,-11.102 -50.86,-31.141 -47.69,-58.992 0.94,-8.2 3.08,-8.079 17.19,0.82 33.04,20.859 35.11,21.801 76.28,33.871 3.17,0.898 7.82,0.23 7.82,0.23 l -1.84,-32.5 c -68.59,0.239 -64.84,-54.25 -45.12,-82.57 -6.91,-13.129 -22.03,-58.832 27.74,-76.25 24.84,-4.93 51.13,15.231 50.31,16.289 45.78,-21.679 98.95,14.641 57.5,77.531 15.59,27.43 4.61,47.782 -10.27,65.321 0,0 2.5,-0.242 24.18,-4.223 32.89,-6.058 45.43,-5 45.43,-5 0.04,29.613 -24.46,42.813 -75.59,46.832 -36.17,-5.109 -99.45,26.488 -99.45,26.25 z m -552.069,-3.43 c 2.5,0 4.918,0 7.379,-0.039 l -2.379,-50.55 -55.711,-2.539 -3.629,50.308 c 19.18,1.328 37.028,2.738 54.34,2.82 z m 66.719,-1.25 59.762,-7.269 -9.063,-47.262 -55,5.93 4.301,48.601 z m 483.28,-0.55 c 6.13,0.16 4.8,-6.25 -2.39,-7.66 -10.74,-2.11 -38.28,-18.122 -38.32,-22.258 0,-2.703 1.37,-2.313 11.45,3.078 5.04,2.699 15.55,7.269 23.36,10.238 7.77,2.973 16.68,6.524 19.76,7.934 9.26,4.136 13.87,1.289 10.51,-6.641 -2.19,-5.199 -3.08,-5.633 -24.53,-12.422 -19.41,-6.179 -22.97,-7.777 -35.31,-15.668 -4.61,-2.929 -12.77,-7.652 -18.13,-10.429 -12.69,-6.563 -15.27,-6.602 -15.23,2.269 -0.7,26.168 28.28,45.82 67.5,51.438 0.51,0.082 0.9,0.121 1.33,0.121 z m -515.741,-6.129 c 7.461,0 13.512,-6.063 13.512,-13.52 0,-7.5 -6.051,-13.551 -13.512,-13.551 -7.5,0 -13.559,6.051 -13.559,13.551 0,7.457 6.059,13.52 13.559,13.52 z m -147.82,-3.602 4.461,-45.859 -54.77,-14.059 -12.5,47.34 c 20.941,5.16 41.871,8.758 62.809,12.578 z m 705.321,-3.469 c 15,-2.308 13.82,-36.679 6.13,-42.621 -11.8,-8.519 -19.06,9.262 -13.79,32.891 1.48,7.07 4.22,9.57 7.66,9.73 z m -674.259,-1.878 c 7.5,0 13.551,-6.051 13.551,-13.512 0,-7.461 -6.051,-13.52 -13.551,-13.52 -7.461,0 -13.519,6.059 -13.519,13.52 0,7.461 6.058,13.512 13.519,13.512 z m 267.457,-3.942 61.912,-16.879 -15.15,-47.89 -58.09,16.328 11.328,48.441 z m -33.668,-0.898 c 7.461,0 13.512,-6.063 13.512,-13.524 0,-7.5 -6.051,-13.547 -13.512,-13.547 -7.461,0 -13.519,6.047 -13.519,13.547 0,7.461 6.058,13.524 13.519,13.524 z m 506.36,-4.032 c 26.64,-0.269 61.84,-13.671 61.88,-34.289 -0.55,-5.863 -55.86,1.95 -81.41,12.219 -9.06,3.641 -20.12,14.77 -20.08,19.418 0,2.731 5.39,2.543 7.62,-0.117 3.6,-4.371 16.33,-8.941 45.59,-16.332 22.46,-5.66 24.72,-5.859 24.72,-2.457 0,3.09 -13.28,7.379 -27.65,9.769 -7.27,1.168 -13.99,3.36 -25.12,4.329 -5.2,0 -6.44,3.281 -2.15,5.468 4.73,1.41 10.43,2.032 16.6,1.992 z m -47.11,-10.66 c 6.72,-3.16 9.14,-9.449 12.86,-12.769 -4.61,-2.192 -6.68,-4.379 -14.14,-4.93 0.15,4.93 -1.22,10.828 1.28,17.699 z m -810.621,-3.711 c 7.461,0 13.512,-6.058 13.512,-13.519 0,-7.5 -6.051,-13.551 -13.512,-13.551 -7.461,0 -13.519,6.051 -13.519,13.551 0,7.461 6.058,13.519 13.519,13.519 z m -36.41,-3.828 14.609,-46.832 -52.297,-22.777 -18.562,46.406 c 18.09,9.531 37.891,16.442 56.25,23.203 z m 241.961,-7.66 c 0,0 41.68,-0.031 56.051,-0.23 l -3.36,-52.852 -52.031,-0.391 -0.66,53.473 z m -55.711,-2.891 2.891,-52.769 -50.071,-6.723 -9.89,53.09 57.07,6.402 z m 316.601,-0.46 c 7.5,0 13.56,-6.059 13.56,-13.52 0,-7.461 -6.06,-13.52 -13.56,-13.52 -7.46,0 -13.51,6.059 -13.51,13.52 0,7.461 6.05,13.52 13.51,13.52 z m 362.35,-1.25 c 30.47,-0.122 59.57,-35.2 29.45,-71.918 49.42,-38.051 -4.33,-101.954 -48.01,-64.692 -62.46,-61.359 -97.38,21.961 -71.52,44.031 -38.16,62.731 8.75,102.379 57.11,74.68 8.91,12.66 21.02,17.969 32.97,17.899 z m -510.389,-1.489 54.957,-12.23 -11.058,-52.18 -53.668,10.899 9.769,53.511 z m 181.829,-1.293 50.24,-24.957 -38.95,-37.461 -28.94,14.41 17.65,48.008 z M 755.699,869.84 c 7.5,0 13.563,-6.051 13.563,-13.512 0,-7.5 -6.063,-13.558 -13.563,-13.558 -7.461,0 -13.508,6.058 -13.508,13.558 0,7.461 6.047,13.512 13.508,13.512 z m 108.563,-1.719 c 7.457,0 13.508,-6.051 13.508,-13.512 0,-7.461 -6.051,-13.519 -13.508,-13.519 -19.922,3.129 -14.571,26.609 0,27.031 z m -250.203,-7.609 12.269,-52.192 -50.898,-17.191 -18.2,50.859 56.829,18.524 z m 34.961,-3.711 c 7.46,0 13.519,-6.063 13.519,-13.52 0,-7.461 -6.059,-13.511 -13.519,-13.511 -7.461,0 -13.508,6.05 -13.508,13.511 0,7.457 6.047,13.52 13.508,13.52 z M 1402.3,832.73 c -3.82,-4.761 -8.86,-10.351 -8.86,-10.351 -12.66,5.242 -24.92,3.133 -33.13,-2.5 0,0 -8.75,6.961 -16.72,13.402 -13.79,11.168 -18.39,13.707 -18.39,9.059 0,-0.969 4.68,-5.738 10.39,-10.621 15.54,-13.36 18.75,-18.129 18.75,-18.129 -3.75,-12.11 -3.72,-21.559 3.43,-31.75 0,0 0.32,-1.328 -5.15,-7.07 -9.92,-10.469 -20.16,-26.649 -17.82,-29.032 2.93,-2.929 11.22,4.141 21.65,18.211 7.38,10 9.6,10.231 9.6,10.231 12.66,-3.442 19.69,-6.52 32.31,3.941 0,0 4.76,-1.48 14.3,-9.332 14.84,-12.269 20.19,-14.879 21.79,-10.738 1.33,3.398 -0.62,5.66 -13.2,15.23 -8.2,6.207 -17.3,13.52 -17.3,13.52 2.69,4.41 4.57,20 -4.57,30.699 0,0 0.35,-0.699 13.9,16.84 8.99,11.68 10.55,13.121 7.58,15.621 -3.98,5.238 -17.23,-15.551 -18.56,-17.231 z m -392.46,14.969 49.57,-20.82 -17.73,-51.84 -47.852,19.57 16.012,53.09 z m -545.461,-3.48 c 7.461,0 13.512,-6.059 13.512,-13.52 0,-7.461 -6.051,-13.508 -13.512,-13.508 -7.469,0 -13.52,6.047 -13.52,13.508 0,7.461 6.051,13.52 13.52,13.52 z m 507.141,-1.41 c 7.46,0 13.519,-6.047 13.519,-13.508 0,-7.461 -6.059,-13.52 -13.519,-13.52 -7.461,0 -13.508,6.059 -13.508,13.52 0,7.461 6.047,13.508 13.508,13.508 z m -541.75,-3.707 16.21,-40.153 -36.878,27.5 20.668,12.653 z m 406.832,-10.352 49.378,-5.82 -7.82,-47.071 -42.57,3.871 1.012,49.02 z m -53.903,-0.121 -0.508,-48.359 -46.921,-2.032 -3.981,48.321 51.41,2.07 z M 541.328,819.84 c 7.5,0 13.551,-6.051 13.551,-13.512 0,-7.5 -6.051,-13.558 -13.551,-13.558 -7.457,0 -13.519,6.058 -13.519,13.558 0,7.461 6.062,13.512 13.519,13.512 z m -37.379,-0.969 19.102,-48.601 -29.61,-14.29 -39.691,37.54 50.199,25.351 z m 176.52,-0.633 7.652,-46.25 -48.902,-12.066 -11.879,47.027 53.129,11.289 z m 699.181,-0.468 c 10.66,0 19.3,-8.629 19.3,-19.25 0,-10.668 -8.64,-19.301 -19.3,-19.301 -10.63,0 -19.26,8.633 -19.26,19.301 0,10.621 8.63,19.25 19.26,19.25 z m -572.349,-1.442 c 7.469,0 13.519,-6.058 13.519,-13.519 0,-7.5 -6.05,-13.547 -13.519,-13.547 -7.461,0 -13.512,6.047 -13.512,13.547 0,7.461 6.051,13.519 13.512,13.519 z m 133.211,-5 52.187,-16.879 -17.539,-41.75 -45.082,12.18 10.434,46.449 z M 709.34,809.609 c 7.5,0 13.551,-6.058 13.551,-13.519 0,-7.5 -6.051,-13.551 -13.551,-13.551 -7.461,0 -13.52,6.051 -13.52,13.551 0,7.461 6.059,13.519 13.52,13.519 z m 198.359,-5 c 7.461,0 13.512,-6.058 13.512,-13.519 0,-7.461 -6.051,-13.512 -13.512,-13.512 -7.5,0 -13.558,6.051 -13.558,13.512 0,7.461 6.058,13.519 13.558,13.519 z m -331.219,-15.82 17.969,-41.367 -49.097,-21.211 -21.372,42.148 52.5,20.43 z m 34.77,-2.5 c 7.461,0 13.52,-6.059 13.52,-13.519 0,-7.461 -6.059,-13.508 -13.52,-13.508 -7.461,0 -13.52,6.047 -13.52,13.508 0,7.46 6.059,13.519 13.52,13.519 z m 180.781,-12.461 c 80.547,0.152 153.278,-16.68 211.679,-40.859 L 986.328,716.68 C 796.949,781.762 673.121,752.422 546.129,696.719 l -12.809,15.859 c 89.77,43.902 178.16,61.051 258.711,61.25 z m 214.219,-0.508 c 7.46,0 13.52,-6.05 13.52,-13.519 0,-7.5 -6.06,-13.551 -13.52,-13.551 -7.461,0 -13.52,6.051 -13.52,13.551 0,7.469 6.059,13.519 13.52,13.519 z M 512.77,743.629 c 10.902,-0.617 11.921,-20.899 6.878,-15.078 l -12.109,14.027 c 1.949,0.82 3.711,1.172 5.231,1.051 z m 506.21,-8.359 c -0.39,-15.391 -14.96,-118.43 -64.101,-189.25 -2.969,35.82 -11.598,78.671 -21.289,107.261 0,0 52.89,48.828 85.39,81.989 z M 390.391,579.102 646.09,234.301 l -26.828,0.187 c -5.633,25.313 -13.75,51.211 -29.692,70.59 -12.968,15.742 -24.531,27.582 -47.769,38.121 -13.949,6.371 -15.75,5 -16.641,15.75 -4.219,60.313 -53.051,98.242 -90.469,112.653 -3.601,36.488 -20.043,72.347 -61.293,102.539 l 16.993,4.961 z m -24.922,-8.243 c 23.359,-16.058 48.98,-30 62.769,-93.281 1.063,-13.238 1.883,-11.84 12.274,-15.738 40.738,-11.961 76.207,-60.942 79.328,-103.75 0,-12.891 4.18,-14.07 20.121,-20.75 19.527,-8.199 39.809,-25.539 51.289,-42.649 17.109,-24.57 23.129,-61.761 21.641,-60 l -14.063,-0.082 c -10.039,63.09 -49.726,88.243 -91.68,100.039 3.243,89.024 -65.976,116.832 -90.16,121.012 1.41,64.141 -40.078,90.59 -66.867,112.149 5,1.961 15.348,3.05 15.348,3.05 z m -41.367,-8.828 c 20.937,-6.832 36.796,-36.011 35.16,-49.41 27.617,-3.48 56.597,-30.16 50.226,-57.93 -2.027,-1.171 -5.269,-1.41 -8.437,1.789 7.39,53.872 -73.082,27.192 -40.93,-11.789 l -14.383,-9.382 c -11.558,53.91 -25.777,84.492 -41.25,123.441 5.672,1.48 19.614,3.281 19.614,3.281 z M 390.738,449.02 c 7.153,0 12.891,-5.821 12.891,-12.969 0,-7.102 -5.738,-12.93 -12.891,-12.93 -7.148,0 -12.968,5.828 -12.968,12.93 0,7.148 5.82,12.969 12.968,12.969 z m 69.063,-58.161 c 30.711,-8.711 40.668,-39.808 39.648,-51.129 l -6.719,0.149 c -10.82,49.301 -66.949,22.5 -43.511,-16.789 -30,-11.102 -27.66,-38.828 -18.828,-49.77 12.23,-15.121 43.32,-14.648 52.808,8.629 29.18,-37.769 69.461,4.61 33.91,39.813 29.102,-10.742 33.789,-49.731 29.411,-61.883 13.48,-4.609 29.07,-26.051 26.96,-25.93 L 355.512,233.91 c 0,0 10.539,87.969 -0.672,154.371 14.5,-3.48 24.219,-6.992 40.898,12.578 27.032,-22.339 46.453,-5.468 45.043,13.832 -2.07,13.508 -9.062,20.231 -20.66,27.379 23.668,5.821 41.52,-35.082 39.68,-51.211 z m 24.301,-61.988 c 7.378,0 13.359,-5.98 13.359,-13.32 0,-7.391 -5.981,-13.321 -13.359,-13.321 -7.34,0 -13.321,5.93 -13.321,13.321 0,7.34 5.981,13.32 13.321,13.32"
         inkscape:connector-curvature="0"
         id="path24"
         style="fill:#000000;fill-opacity:1;fill-rule:nonzero;stroke:none" /></g></g></svg>