<?xml version="1.0" encoding="UTF-8" standalone="no"?>
<!-- Created with Inkscape (http://www.inkscape.org/) -->

<svg
   xmlns:dc="http://purl.org/dc/elements/1.1/"
   xmlns:cc="http://creativecommons.org/ns#"
   xmlns:rdf="http://www.w3.org/1999/02/22-rdf-syntax-ns#"
   xmlns:svg="http://www.w3.org/2000/svg"
   xmlns="http://www.w3.org/2000/svg"
   xmlns:inkscape="http://www.inkscape.org/namespaces/inkscape"
   version="1.1"
   width="225"
   height="315"
   id="svg2"
   xml:space="preserve"><metadata
     id="metadata8"><rdf:RDF><cc:Work
         rdf:about=""><dc:format>image/svg+xml</dc:format><dc:type
           rdf:resource="http://purl.org/dc/dcmitype/StillImage" /></cc:Work></rdf:RDF></metadata><defs
     id="defs6" /><g
     transform="matrix(1.25,0,0,-1.25,0,315)"
     id="g10"><g
       transform="scale(0.1,0.1)"
       id="g12"><path
         d="m 89.0195,2508.52 1615.7505,0 c 47.11,0 85.03,-37.93 85.03,-85.04 l 0,-2324.4214 c 0,-47.1094 -37.92,-85.0391 -85.03,-85.0391 l -1615.7505,0 c -47.1093,0 -85.03903,37.9297 -85.03903,85.0391 l 0,2324.4214 c 0,47.11 37.92973,85.04 85.03903,85.04"
         inkscape:connector-curvature="0"
         id="path14"
         style="fill:#ffffff;fill-opacity:1;fill-rule:nonzero;stroke:none" /><path
         d="m 89.0195,2508.52 1615.7505,0 c 47.11,0 85.03,-37.93 85.03,-85.04 l 0,-2324.4214 c 0,-47.1094 -37.92,-85.0391 -85.03,-85.0391 l -1615.7505,0 c -47.1093,0 -85.03903,37.9297 -85.03903,85.0391 l 0,2324.4214 c 0,47.11 37.92973,85.04 85.03903,85.04 z"
         inkscape:connector-curvature="0"
         id="path16"
         style="fill:none;stroke:#000000;stroke-width:7.9738698;stroke-linecap:butt;stroke-linejoin:miter;stroke-miterlimit:4;stroke-opacity:1;stroke-dasharray:none" /><path
         d="m 1545.66,2313.01 -1305.582,-0.67 7.852,-2096.129 1310.23,2.738 c -10.11,698.86 -11.09,1396.441 -12.5,2094.061 z m -154.02,-17.66 137.66,-0.7 0,-806.56 c 0,0 -8.56,0.23 -7.78,5.89 1.1,7.54 -0.07,21.72 -5.39,27.66 -2.22,2.5 -5.86,6.45 -7.3,9.34 -3.63,7.18 -9.57,14.64 -14.34,16.68 -2.38,0.97 -5.11,1.56 -5.47,3.2 -0.35,1.52 -1.13,6.52 -2.11,11.17 -2.53,11.56 -4.8,11.21 2.58,22.7 25.51,39.92 35.35,76.64 32.11,113.04 -1.01,11.37 -3.87,26.1 -5.19,28.13 -24.69,-24.73 -42.54,-55.28 -59.34,-77.85 -3.71,32.26 -3.2,56.6 -3.71,82.42 13.16,3.79 21.13,10.78 26.8,28.71 0,0 14.1,-11.06 22.77,-9.45 l -5.7,20.82 c 37.77,11.6 42.93,60.86 -1.68,71.29 l 4.02,25.97 c 0,0 -13.44,-4.53 -19.37,-7.42 -2.93,-1.25 -3.68,-0.23 -5.75,4.02 -20.78,32.35 -53.08,25.47 -67.34,-6.44 l -17.42,7.38 c 1.91,-8.83 4.14,-17.77 2.54,-26.6 -36.53,-16.29 -27.5,-60.82 1.68,-66.64 l -2.54,-20.82 21.95,7.11 c 3.2,-9.81 1.56,-15.43 19.1,-26.45 -0.43,-43.59 -1.13,-70.86 0.24,-109.61 -22.89,23.44 -44.96,39.69 -83.64,51.64 0,0 -0.35,-9.41 1.88,-23.67 0.74,-4.69 0.58,-4.02 -1.6,-4.02 -5.04,0.12 -27.7,36.56 -27.7,36.56 0,0 -2.65,0 -4.96,-2.3 -2.69,-2.66 3.48,-7.62 12.15,-20.47 10.16,-15.08 9.18,-14.46 1.21,-21.21 -45.31,-38.44 -110.74,-184.77 -99.77,-198.99 -28.63,-1.72 -140.27,-56.44 -160.54,-169.29 -1.17,-5.08 -3.56,-11.64 -3.56,-11.64 l -32.3,8 c 19.49,92.43 63.44,280.35 63.44,280.35 0,0 30.85,8.75 48.94,10.71 l -0.19,7.26 -42.54,-9.88 2.07,16.09 40.11,7.9 -0.11,3.82 -42.5,-5.7 6.95,26.8 c 0,0 -95.39,-13.99 -129.57,-12.97 2.191,-104.26 -6.051,-190.9 -1.641,-303.24 l -46.641,28.24 c -4.136,78.24 -5.386,275.86 -5.386,275.86 l -128.75,20.23 4.258,-31.05 c -106.758,42.3 -213.829,81.25 -292.7,163.94 48.551,37.27 129.571,74.22 129.571,74.22 l -2.661,5.94 C 437.27,1722.77 363.281,1651.41 263.199,1562.89 l -2.687,731.76 543.668,0.27 -1.801,-133.44 c 0,0 -0.699,-3.47 -1.758,-4.68 -6.641,-32.31 12.469,-89.69 8.598,-117.66 1.801,-8.59 1.172,-24.65 1.172,-24.65 -32.461,-44.45 -49.653,-86.64 -64.102,-138.32 -5.59,-2.22 -13.828,-6.79 -19.648,-8.36 l -1.68,-7.07 c 12.738,6.99 48.867,18.4 48.867,18.4 160.902,-78.4 279.102,-59.22 405.622,-0.94 -20.15,-70.82 23.71,-160.86 95.86,-179.8 8.24,-2.19 22.39,-4.02 30.47,-1.88 8.09,2.31 -18.16,62.43 -29.8,64.69 -34.89,15.08 -49.22,50.55 -45.51,91.25 l -5.78,9.73 c -11.88,-49.46 16.72,-99.65 55.97,-111.92 l 10.55,-23 c -71.17,21.32 -101.44,87.96 -77.77,153.86 0.43,41.1 -26.21,59.3 -38.44,76.99 -61.91,23.64 -73.4,80.94 -62.58,127.27 28.83,-12.27 -19.41,40.66 -19.41,40.66 -21.21,-45.93 -30.08,-104.06 18.44,-162.93 -31.37,-41.64 -71.88,-74.53 -117.149,-102.65 -66.141,-34.53 -115.781,-11.25 -147.742,65.19 -19.18,45.9 -26.047,91.64 -25.969,139.57 0.109,29.69 0.43,30.59 11.558,25.55 10.43,-4.73 33.082,-5.39 46.602,1.56 18.441,9.54 17.578,3.75 -2.5,-16.91 -5.43,-5.59 -11.289,-10.66 -11.289,-11.72 0,-6.09 8.59,-0.98 20.82,11.17 4.449,4.42 7.77,8.67 9.18,8.64 1.598,-0.08 1.449,-5.79 -0.391,-11.96 -0.699,-2.38 -2.968,-12.38 -5,-22.18 -2.07,-9.85 -4.879,-21.37 -6.25,-25.67 -5.468,-17.03 -3.98,-24.92 12.379,-32.81 8.602,-4.14 23.36,-18.28 23.211,-18.28 0,0 -3.519,15.5 -2.23,20.47 1.601,6.01 8.711,1.75 15.98,-1.72 16.012,-7.66 25.352,-7.85 33.942,-0.67 11.878,9.89 8.476,32.15 -6.211,37.97 -10.743,4.26 -12.661,0.31 -1.871,-7.19 16.089,-11.21 -2.071,-28.59 -15.79,-17.85 -10.699,8.44 -29.289,9.38 -31.359,2.39 -1.961,-6.64 -3.992,-5.43 -11.41,-1.1 -11.52,6.72 -11.641,7.89 -1.949,45.08 18.277,70.35 16.476,96.17 -7.782,117.58 -17.929,15.82 -47.57,23.16 -78.32,5.58 l 0,23.95 c 45.16,18.05 77.969,47.89 104.461,97.81 l 5.149,0 c 26.371,-57.07 68.992,-98.04 149.14,-128.12 31.33,-30.94 -39.68,88.82 -17.03,39.8 -42.54,16.45 -80.47,48.4 -101.329,88.32 l 11.609,0 c 12.219,-17.65 36.99,-49.84 81.05,-72.11 4.02,-3.36 7.85,0.12 7.85,0.12 0,0 -36.95,57.93 -43.01,71.72 l 369.5,2.62 c -11.72,-89.97 -28.25,-187.78 36.72,-363.05 -30.47,16.01 -152.66,-18.09 -131.14,-24.81 10.78,12.47 88.64,30.86 146.25,17.27 -4.76,4.1 -87.85,196.91 -39.49,368.67 z m 39.49,-368.67 c 0.12,-0.12 0.24,-0.16 0.24,-0.04 -0.08,0 -0.16,0 -0.24,0.04 z m -285.47,-347.3 0.36,-14.11 2.93,0.71 -1.68,13.71 -1.61,-0.31 z m -333.59,715.54 16.211,0 c -3.551,-7.3 -8.75,-12.81 -16.679,-17.34 l 0.468,17.34 z m 27.891,0 17.461,0 c -13.594,-21.64 -28.043,-34.72 -45.512,-45 l 0.32,16.96 c 10.071,8.82 19.719,17.96 27.731,28.04 z m 28.867,0 16.094,0 c -21.832,-33.55 -44.301,-56.09 -73.012,-70.39 l 0,13.71 c 17.738,13.83 42.891,34.1 56.918,56.68 z m 24.57,0 13.051,0 c -22.429,-42.65 -53.64,-72.11 -94.539,-88.47 l 0,10.23 c 44.809,23.87 64.379,50.51 81.488,78.24 z m 35.582,0 15.668,0 c 21.442,-42.62 66.052,-82.97 115.002,-100.66 l 7.46,-17.31 c -64.53,23.17 -107.27,57 -138.13,117.97 z m 45.282,0 11.168,0 c 11.761,-16.37 25.98,-29.65 42.62,-40.7 l 10.15,-19.61 c -22.46,15.08 -47.54,33.44 -63.938,60.31 z m 20.386,0 12.502,-0.66 16.52,-27.54 c -11.01,6.21 -19.37,18.79 -29.022,28.2 z m -14.339,-110.7 c -17.11,0.08 -32.649,-4.65 -43.938,-13.83 -11.922,-9.73 -3.172,-20.31 13.981,-12.34 29.179,13.55 62.698,7.46 98.908,-12.39 30.47,-16.68 19.76,0.71 -8.64,19.3 -19.49,12.89 -40.89,19.14 -60.311,19.26 z m -137.61,-21.84 c 24.571,-0.19 52.692,-11.09 53.352,-25.47 -16.281,13.6 -48.981,20.2 -80.391,6.21 -2.422,0.51 -2.73,9.07 -1.32,12.19 6.75,5 17.219,7.15 28.359,7.07 z m 148.672,-9.29 c -15.512,0 -29.73,-4.07 -36.293,-12.82 -3.359,-4.14 -4.219,-4.57 -7.93,-3.94 -7.226,1.21 -6.796,-2.97 1.442,-14.42 3.988,-5.54 3.32,-11.87 -2.031,-19.37 -6.129,-8.63 -4.918,-8.99 13.32,-17.74 13.992,-6.79 25.199,-16.44 37.891,-24.37 9.07,-5.12 10.86,-0.63 2.5,6.13 -2.848,2.31 -11.36,8.36 -19.02,13.36 -12.969,8.44 -22.5,16.96 -12.191,13.17 4.73,-1.49 5.941,-2.11 11.14,-3.01 13.352,-2.89 26.561,-4.49 37.771,-2.23 8.05,1.6 18.51,6.92 27.11,14.38 2.19,1.01 4.37,-0.08 9.72,-0.28 20.4,-0.78 15.9,5.2 -13.43,21.17 -28.99,15.86 -51.761,18.72 -70.319,10.04 -7.852,-3.67 -12.34,-4.61 -11.211,-2.26 1.211,2.42 3.398,5.23 6.922,7.26 30,17.93 54.098,3.09 80.508,-10.39 11.36,-6.75 14.41,-8.51 15.78,-6.36 1.72,2.77 -12.66,12.97 -31.96,22.65 -11.29,5.86 -26.01,9.03 -39.719,9.03 z m -95.859,-20.79 c 5.078,-1.99 2.808,-7.77 -1.84,-5.97 -27.692,12.46 -33.242,18.51 -66.25,6.99 -10.902,-3.79 -15.231,-0.43 -1.832,5.31 29.14,12.19 50.308,3.95 69.922,-6.33 z m -18.992,-14.64 c -7.5,-38.09 -45.43,-26.33 -41.129,-0.16 l 6.949,-0.04 c 0.551,-23.01 23.64,-22.85 27.582,-0.23 l 6.598,0.43 z m 220.59,-0.08 10.19,-21.84 c -22.34,-55 7.97,-129.06 73.95,-146.79 0,0 10.63,-16.37 8.55,-18.44 -123.82,27.42 -114.29,145.43 -92.69,187.07 z m -117.309,-1.41 3.48,-0.19 c 10.699,-26.57 26.209,-11.29 29.259,-0.08 l 7.89,-0.2 c -2.42,-27.5 -44.141,-32.15 -40.629,0.47 z m -95.422,-0.78 c 5.031,0.59 6.711,-6.91 5.351,-8.32 -0.39,-0.39 -9.57,-9.26 -10.71,-4.02 -1.641,7.65 3.281,11.99 5.359,12.34 z m -57.738,-0.74 c 0.429,-0.04 0.859,-0.04 1.328,-0.08 3.082,-2.38 4.261,-9.45 2.652,-13.12 -1.871,-1.92 -9.293,0.7 -10.742,3.55 -2.18,4.18 0.391,9.69 6.762,9.65 z m 200.779,-2.58 c 2.46,-0.08 9.18,-2.97 8.52,-6.21 -0.16,-0.82 -9.49,-7.74 -11.6,-6.6 -4.07,2.15 1.52,12.07 2.34,12.65 0.12,0.12 0.39,0.2 0.74,0.16 z m -54.69,-1.17 c 0.04,0 0.122,0 0.161,0 0.699,-0.55 6.679,-4.26 1.597,-11.13 -0.347,-0.47 -7.109,1.91 -7.218,2.73 -0.551,3.98 4.531,8.12 5.46,8.4 z m 150,-48.24 c -1.48,-31.61 6.76,-62.31 41.29,-82.04 l -7.46,13.56 c -8.83,7.07 -27.38,27.19 -25.08,51.13 l -8.75,17.35 z m -310.031,-56.53 3.903,-20.78 c -19.024,-31.6 -33.442,-62.62 -45.391,-98.87 l -17.973,-6.56 c 14.262,45.74 27.422,81.99 59.461,126.21 z m 7.531,-32.38 5.079,-17.89 C 816.02,1938.67 806.02,1919.26 800,1896.64 l -19.801,-7.3 c 8.903,29.96 21.949,59.02 40.031,84.41 z m 62.93,-7.42 c -0.308,0 -0.582,0 -0.89,-0.12 -0.2,-3.51 -0.161,-13.24 0.582,-29.3 0.16,-3.04 3.128,-1.75 11.558,2.54 7.352,3.75 6.61,4.34 13.711,1.96 19.731,-6.76 28.719,-3.83 36.41,-1.84 11.758,3.05 16.559,1.8 23.399,-2.27 3.75,-2.26 8.871,-3.9 9.879,-4.29 5.429,-1.96 3.363,0.43 -0.348,15.04 -4.141,16.44 -2.383,18.24 -8.941,13.94 -1.45,-0.94 -5.629,-3.24 -7.93,-3.51 -5.75,-0.67 -15.32,6.36 -21.02,4.14 -13.871,-5.43 -13.711,-3.99 -26.558,-0.86 -6.453,1.6 -12.582,-2.35 -18.172,-3.44 -3.199,-0.39 -7.219,8.05 -11.68,8.01 z m 235.47,-8.52 c 23.4,-21.44 47.42,-28.79 73.52,-36.87 -3.17,-10.67 -9.45,-22.7 -12.38,-36.6 -135.75,-71.76 -272.11,-69.5 -400.79,-4.38 l 66.758,25.51 c 36.492,-63.17 83.242,-80.04 135.821,-59.38 58.751,27.35 102.231,65.36 137.071,111.72 z m -290.04,-12.61 5.789,-15.51 -8.598,-23.32 -16.371,-6.64 c 3.129,15.89 9.18,28.98 19.18,45.47 z m 122.699,-17.97 c -4.059,-0.2 -10.238,-2.93 -24.219,-3.01 -7.582,-0.04 -13.519,0.66 -16.449,0.04 -6.09,-1.21 1.02,-3.95 14.688,-7.85 13.64,-3.87 30.312,1.99 32.39,7.89 0.5,1.44 -1.289,3.2 -6.41,2.93 z m -113.09,-7.62 3.602,-7.85 -6.141,-2.19 2.539,10.04 z m 360.861,-4.41 10.16,-23.09 c -17.58,-38.01 -29.22,-142.15 87.97,-174.53 l 5.11,-14.92 c -79.76,-1.53 -159.68,99.84 -103.24,212.54 z m -268.361,-7.9 c -11.437,0.12 -23.429,-2.69 -31.168,-8.82 -6.992,-5.55 1.559,-9.03 10.629,-4.61 11.75,5.74 31.399,5.27 42.93,-1.96 8.82,-6.01 13.39,-4.96 7.5,4.18 -4.61,7.19 -16.918,11.1 -29.891,11.21 z m 511.721,-25.89 c 30.67,0.5 33.83,-43.36 27.89,-47.15 1.72,0.58 6.96,2.15 14.38,1.95 22.46,-0.59 34.18,-13.01 35.47,-31.05 1.29,-18.21 -12.54,-28.32 -32.7,-27.31 -7.46,0.35 -12.62,1.13 -12.26,-0.19 3.75,-14.54 -0.79,-36.45 -20.04,-41.92 -2.23,-0.62 -5.36,-3.71 -5.43,-4.84 -1.45,-23.05 5.11,-102.23 5.11,-102.23 0,0 36.1,60.67 44.22,69.88 15.9,21.68 18.79,19.77 18.83,-16.28 -2.66,-50.04 -10.66,-61.49 -40.12,-103.44 -12.61,-18.09 -42.46,-8.6 -39.76,-20.82 0.58,-2.7 5.43,-7.54 10.27,-12.15 3.13,-2.93 6.33,-4.77 13.6,-4.53 12.73,0.43 17.69,3.01 10.07,-8.05 -6.01,-8.79 -27.18,-10.58 -29.57,-15.16 -5.54,-10.58 -1.76,-8.24 -11.25,-17.57 -7.22,-7.93 -4.72,-3.87 -1.4,-10.43 5.19,-8.44 3.04,-25.28 -2.11,-36.64 -4.22,-9.22 -3.75,-15.82 -3.75,-15.82 0.08,-0.78 11.79,12.07 15.35,26.91 2.93,12.38 6.37,18.55 6.33,11.64 -0.04,-8.71 1.48,-20.59 9.37,-25.12 6.21,-3.59 7.11,-7.14 6.1,-11.56 -1.1,-4.53 3.78,-8.55 8.59,-12.34 1.13,-1.14 4.92,-2.62 4.49,-5.04 -1.29,-7.58 1.8,-16.53 7.35,-17.97 2.46,-1.21 18.2,0.12 20.78,8.98 -0.24,2.82 0,14.42 -6.29,15.08 -4.42,2.03 -3.95,3.24 2.73,7.27 10.04,5.97 17.31,10.23 22.23,11.17 6.64,0.9 13.01,8.09 13.01,8.09 l 1.25,-477.348 c -59.38,-60.82 -124.5,-121.332 -210.39,-180.82 -49.89,41.597 -104.42,83.707 -162.31,115.199 l -20,11.828 7.19,9.18 -34.73,45.781 39.06,31.41 9.93,-12.5 -18.52,-17.969 27.73,-30.66 62.35,60.779 -41.06,39.3 21.37,40.03 13.67,-6.68 -10.31,-25.39 31.25,-19.76 39.1,77.65 -49.57,22.58 12.54,52.15 15.31,-1.6 -5.07,-37.58 38.63,-7.65 15.7,88.55 -56.72,10.16 4.85,50.5 15.82,-0.19 -2.31,-27.93 40.08,-5.7 7.54,77.18 -55.59,9.22 7.15,59.61 12.74,-1.83 -2.5,-36.72 40.82,-7 c 4.49,24.93 8.12,56.22 14.8,80.67 l -52.58,19.57 18.64,50.04 11.83,-4.1 -10.35,-27.11 38.79,-16.49 32.73,64.53 -45.7,32.31 c 10.23,16.99 20.47,33.12 35.12,46.87 l 8.94,-7.81 c 0,0 -3.28,-2.97 -8.36,-9.96 -6.13,-8.52 -8.08,-12.81 -7.22,-15.04 0.82,-2.19 29.06,-23.05 31.21,-23.05 2.46,0 11.83,8.52 16.68,14.26 5.15,6.14 7.85,6.72 13.2,2.89 1.06,-0.74 2.62,-2.26 3.71,-3.59 1.29,-1.52 1.8,-2.81 1.92,-3.79 0.11,-0.98 -0.16,-1.6 -0.39,-2.03 0.46,0.43 1.44,1.21 3.55,2.38 3.83,2.11 -7.42,12.03 -16.64,17.15 -27.54,15.47 -59.96,44.61 -67.46,81.09 -2.74,16.37 39.57,-3.32 68.71,-32.38 4.45,-4.37 20.86,-20.31 20.86,-20.31 -2.38,42.15 -5.82,84.96 -3.99,127.62 l -6.4,4.45 c -9.03,6.29 -12.5,16.56 -13.32,26.91 -0.55,7.11 5.54,10.75 -8.4,10.28 -28.99,-0.28 -45.78,27.03 -28.2,50.39 6.29,8.75 33.08,13 33.04,12.77 -6.83,27.93 13.67,42.93 28.79,44.34 z m -10.54,-324.69 c -0.55,-0.51 -0.32,-0.51 0,0 z m 38.43,277.54 c -0.39,-0.12 -0.82,-0.24 -0.82,-0.24 0.28,0 0.55,0.08 0.82,0.24 z m -965.931,-91.17 c 81.012,-68.21 132.691,-114.11 297.609,-165.47 l 4.063,-24.42 c -94.801,21.88 -198.242,66.21 -321.211,176.37 l 19.539,13.52 z M 480,1727.34 c 51.289,-47.89 103.871,-84.37 157.109,-114.96 l 18.672,-11.25 -9.652,-9.88 31.332,-45.16 -40.27,-32.85 -9.613,9.57 21.012,20.59 -29.918,29.45 -60.973,-61.72 41.789,-37.07 -24.218,-37.26 -8.79,3.98 12.86,25.98 -38.828,21.17 -43.442,-79.81 55.309,-25.15 -12.5,-48.95 -12.891,0.67 4.34,38.36 -41.558,7.34 -13.989,-89.65 53.481,-8.4 -1.293,-51.6 -14.219,0.24 0.98,29.14 -42.23,1.95 -3.75,-75.23 51.949,-6.72 -5.148,-61.1 -12.821,3.28 1.45,39.65 -39.61,3.91 -13.629,-84.3 53.438,-15.27 -18.867,-52.54 -11.602,6.37 7.57,27.11 c -9.718,4.25 -37.14,15.62 -37.14,15.62 l -34.891,-65.428 45.281,-30.82 -27.851,-48.942 -10.789,7.219 19.219,28.562 -37.579,23.59 -21.402,-29.222 c -9.098,7.89 -25.469,18.832 -31.68,26.171 -6.679,6.059 -11.718,7 -20.308,4.969 -6.762,-1.57 -13.289,-2.82 -11.801,-0.398 0.742,1.179 13.59,9.808 33.199,22.269 5.512,3.48 9.852,6.52 9.774,9.61 -0.043,2.34 2.968,6.02 6.91,8.4 4.418,2.65 3.437,5.12 2.738,7.85 -3.832,14.73 -1.41,37.7 5.969,53.12 4.961,10.36 6.531,12.23 3.281,12.23 -9.531,-1.21 -21.172,-35.82 -23.39,-45.58 -0.79,0.78 -1.801,9.92 -2.5,13.43 -1.219,6.33 -2.11,10.28 -7.192,11.45 -6.098,1.44 -4.137,4.37 -4.769,8.94 -1.008,7.43 -4.528,12.15 -10.86,14.77 -6.129,2.54 -6.789,3.55 -6.519,9.65 -0.039,4.76 -5,12.85 -8.711,15.43 l -21.168,-7.46 c -1.68,-5.59 0.539,-12.86 4.019,-15.51 10.66,-10 -4.922,-10.16 -15.59,-16.68 -2.89,-1.88 -6.32,-5.9 -8.671,-4.57 -6.789,2.22 -6.25,-18.01 -12.93,-15.51 l 1.641,485.55 c 56.761,58.79 222.23,181.4 222.23,181.4 z m 858.12,-85.89 8.17,-9.07 c -25.35,-28.47 -43.71,-57.85 -63.95,-93.67 -17.3,-30.59 -32.22,-73.4 -40.04,-120.08 -6.05,-28.59 -6.99,-57.69 -10.7,-86.91 -3.83,-31.49 -4.53,-73.83 -10.58,-107.07 -11.1,-91.13 -36.68,-139.61 -92.35,-191.33 -24.45,-22.73 -100.51,-65.621 -102.58,-65.23 l -18.04,4.488 c 155.97,79.842 195,134.922 211.87,323.902 3.28,237.15 111.13,328.99 118.2,344.97 z m 15.32,-15.86 8.36,-8.05 -45.55,-64.3 44.88,-31.64 -17.77,-41.56 -13.59,5.04 9.64,28.36 -37.73,15.9 -30.51,-82.58 53.75,-16.96 -8.83,-53.82 -10.89,2.93 0.03,36.68 -39.88,8.12 -11.6,-92.26 58.79,-8.17 -4.34,-47.62 -13.9,0.94 -0.55,28.36 -40.78,2.15 -9.34,-79.96 57.93,-9.85 -10.51,-56.79 -12.3,2.93 2.77,37.46 -38.82,5.12 -22.47,-76.72 48.75,-24.57 -23.98,-49.22 -10.27,7.19 13.28,29.06 -37.97,18.75 -36.64,-63.52 39.76,-39.1 -38.82,-40.66 -8.68,11.09 20.04,21.559 -29.92,29.611 -62.26,-49.49 31.79,-41.879 -3.75,-5.269 -32.81,13.168 -15.74,20.781 -18.79,-8.25 -14.84,5.668 c 91.95,48.201 151.79,104.101 176.48,188.401 13.59,46.64 17.62,97.5 21.99,148.75 2.31,26.64 4.69,53.4 8.52,79.68 4.53,42.97 11.13,79.03 28.55,120.47 21.17,50.28 46.84,85.71 78.52,124.07 z m -494.811,-31.8 63.133,-33.28 -0.942,-22.11 -58.359,29.26 -3.832,26.13 z m 17.742,-0.63 45,-6.13 0.188,-18.16 -45.188,24.29 z m -202.82,-0.54 26.25,-11.84 22.269,-25.7 16.68,10.94 18.129,-6.76 C 699.648,1529.84 648.91,1494.65 609.34,1433.95 565.309,1366.33 560.391,1277.73 554.77,1192.27 545.352,1074.38 525.16,991.559 446.762,895.98 l -11.532,7.258 42.27,67.192 -47.699,30.82 21.758,39.73 10.98,-3.75 -8.519,-23.71 39.46,-20.79 30.231,84.65 -55.621,17.35 9.289,52.97 14.031,-1.22 -3.711,-37.96 39.762,-6.29 11.41,89.57 -53.601,8.2 1.179,47.3 13.16,-1.28 -0.078,-28.79 42.27,-2.27 3.238,81.68 -52.539,5.82 6.48,57.7 14.731,-1.53 -3.402,-34.61 40.429,-5.78 19.223,74.69 -52.582,23.71 28.359,50.43 12.782,-5.86 -13.051,-27.93 36.441,-17.73 38.25,58.4 -40.629,38.98 39.879,41.72 9.77,-9.57 -21.641,-24.92 30,-27.74 59.41,49.88 -28.98,43.6 5.582,6.72 z m 377.899,-2.78 -1.84,-20.93 -63.321,-35.94 -0.039,20.51 65.2,36.36 z m 339.72,-0.74 13.99,-8.67 -10.16,-12.03 -12.19,7.73 8.36,12.97 z m -366.37,-2.97 -37.89,-21.87 0,21.76 37.89,0.11 z m 447.08,-20.43 c 1.99,-0.04 3.78,-0.47 5.19,-1.36 3.83,-2.5 3.28,-8.64 -1.05,-11.64 -5.59,-3.95 -20.98,-3.68 -22.5,0.39 -2.19,5.82 9.76,12.81 18.36,12.61 z m -605.04,-8.63 54.371,-29.34 -0.191,-20.7 -52.348,28.79 -1.832,21.25 z m 177.18,-0.62 -3.16,-27 -56.02,-29.68 -0.461,23.35 59.641,33.33 z m -271.129,-0.51 22.308,-5.67 C 712.621,1513.44 631.02,1460 599.262,1366.76 c -9.922,-27.89 -16.602,-58.95 -20.942,-98.71 -2.07,-41.92 -7.461,-83.17 -9.449,-118.13 C 564.84,1078.71 541.41,982.301 460.469,879.879 l -7.77,6.101 c 49.68,61.168 75.5,116.68 91.442,175.27 25.269,93.28 12.738,196.21 39.687,290.12 16.402,57.11 50.551,108.16 101.641,152.34 35.582,27.66 87.422,52.23 87.422,52.23 z m 37.5,-7.85 c 0.23,0.03 0.347,0.03 0.39,-0.04 20.039,-67.5 44.809,-190.55 44.809,-190.55 -53.051,25.66 -141.328,20.98 -141.328,20.98 0,0 -49.653,64.06 -59.301,69.33 39.73,53.6 147.848,99.92 155.43,100.28 z m 682.809,-10.63 c 12.23,0.39 11.37,-18.16 -4.1,-30.78 -7.89,-6.45 -11.56,-5.55 -17.38,-0.39 -1.72,2.3 -6.68,3.94 -10.31,3.51 -8.68,0.04 8.43,17.97 23.67,25.36 3.16,1.52 5.86,2.22 8.12,2.3 z m -620.001,-15.08 48.52,-24.88 0.472,-20.51 -44.89,24.34 -4.102,21.05 z m 164.461,-2.77 -2.62,-22.54 -50.509,-26.29 0.27,20.78 52.859,28.05 z m 472.61,-8.4 c 1.68,0.16 3.01,-0.51 4.22,-1.87 6.88,-7.66 -6.21,-30.9 -21.05,-37.86 -5.71,-2.69 -9.18,-2.22 -13.95,1.84 -2.3,1.99 -5.7,4.61 -7.65,4.41 -8.48,-0.89 -3.79,8.64 3.04,9.18 1.88,0.16 13.79,9.07 22.78,16.53 6.01,5.04 9.84,7.5 12.61,7.77 z m -51.29,-9.06 c 10.71,0.27 14.61,-8.67 1.92,-12.58 -9.06,-2.77 -14.1,-0.78 -14.06,5.27 1.91,6.25 7.38,7 12.14,7.31 z m -579.101,-12.07 43.051,-21.56 0.191,-22.11 -39.531,20.58 -3.711,23.09 z m 153.991,-3.05 -3.01,-20.9 -46.329,-23.83 0.117,17.31 49.222,27.42 z m 485.78,-8.79 c 2.93,-0.15 3.79,-3.44 3.79,-9.22 -0.04,-9.61 -6.41,-18.47 -15.98,-22.81 -6.99,-3.16 -11.91,-2.93 -15.39,0.82 -1.6,1.68 -3.79,3.05 -4.92,3.09 -15,0.62 -12.58,4.45 1.76,10.47 5.04,2.11 14.96,8.94 19.64,12.3 5.28,3.79 8.83,5.51 11.1,5.35 z m -54.92,-6.79 c 7.3,-0.04 13.79,-5.24 9.72,-8.56 -3.16,-2.62 -15,-3.87 -17.34,-1.52 -4.41,4.49 -0.47,10.11 7.62,10.08 z m -577.742,-14.89 36.684,-19.76 -0.192,-21.02 -35,19.81 -1.492,20.97 z m 140.712,-1.6 -0.82,-21.56 -42.11,-20.74 -0.282,20.5 43.212,21.8 z m 453.08,-8.94 c 7.11,-0.51 6.21,-7.43 0.47,-10.75 -4.3,-3 -9.88,-1.4 -12.15,2.07 -5.12,9.73 6.52,8.56 11.68,8.68 z m 14.3,-22.11 c 1.17,-2.39 0.51,-6.64 -1.84,-7.97 -3.12,-1.33 -11.21,0.04 -12.46,2.42 -1.05,1.91 -0.82,2.93 1.17,4.92 3.32,2.62 10.78,4.61 13.13,0.63 z m -602.74,-0.39 31.289,-17.11 -0.188,-20.67 -28.75,16.72 -2.351,21.06 z m 130.24,-0.55 -1.53,-19.88 -36.441,-18.05 0.469,19.37 37.502,18.56 z m -381.56,-12.5 c 7.808,-0.12 13.859,-5.31 9.25,-14.18 -2.891,-5.55 -5.04,-7.62 -17.54,-16.45 -5.07,-3.59 -9.531,-6.87 -9.839,-7.3 -0.352,-0.43 -3.59,-2.66 -5.743,-4.14 -11.207,-7.78 -7.347,8.4 6.641,32.26 4.02,6.84 11.172,9.85 17.231,9.81 z m 378.78,-17.74 -2.89,-21.87 -32.57,-16.64 0,21.05 35.46,17.46 z m -122.53,-2.03 26.32,-13.08 0.39,-21.29 -23.902,12.54 -2.808,21.83 z m 316.56,-1.68 c 0.86,0.04 1.6,-0.23 2.11,-0.97 2.15,-3.05 2.5,-16.1 0.39,-23.48 -3.67,-8.71 -10.86,13.24 -10.04,18.79 1.52,2.54 5,5.59 7.54,5.66 z m -553.99,-3.94 c 10.672,0.19 18.398,-7.11 14.769,-17.89 -4.14,-10.43 -28.199,-16.99 -39.058,-24.14 -7.11,-3.56 -8.832,0.27 -6.641,6.4 1.012,2.85 1.789,5.08 -3.601,5.86 -13.161,1.96 -5.149,8.32 18.953,24.49 5.269,3.52 10.738,5.16 15.578,5.28 z m 528.52,-6.84 c 3.79,0.04 8.44,-2.19 13.24,-7.38 8.28,-8.98 14.26,-27.93 9.77,-32.85 -3.48,0.39 -5.2,-4.69 -5.35,-6.76 -0.55,-5.98 -11.41,4.92 -21.72,22.07 -8.28,13.83 -4.26,24.84 4.06,24.92 z m -443.872,-3.2 c 32.5,0.23 94.532,-6.49 180.391,-60.2 10.941,-6.87 21.922,-14.45 34.301,-20.54 32.582,-17.58 59.45,-29.46 101.44,-37.31 l -1.21,-21.72 c -0.39,-6.83 10.94,-46.56 5.75,-68.86 -7.7,0.11 7.42,-6.61 7.42,-6.61 l 9.88,-20.19 c 0,0 -51.56,0.43 -74.96,5.04 -37.77,6.13 -106.641,38.16 -139.961,63.32 -34.57,25.35 -86.801,46.44 -131.598,54.61 l -0.589,18.71 c 0,0 -4.454,63.98 -8.051,72.73 l -8.242,20.2 c 2.031,-0.78 10.671,0.74 25.429,0.82 z m 271.062,-14.02 -2.5,-21.45 -28.601,-13.4 0,18.36 31.101,16.49 z m 142.46,-0.94 c 8.01,-0.04 20.11,-9.42 33.94,-28.09 3.09,-4.22 5.51,-7.89 5.98,-10.43 0.39,-2.34 -1.05,-3.67 -3.32,-3.4 -5.47,1.02 -7.46,2.97 -8.99,-3.78 -0.39,-1.68 0.59,-4.73 -1.28,-4.18 -9.69,2.85 -37.43,30.85 -35.75,39.8 1.29,6.72 4.61,10.08 9.42,10.08 z m -254.569,-1.45 20.821,-11.09 0.937,-21.13 -18.558,7.97 -3.2,24.25 z m -224.031,-6.44 c 6.41,0.23 10.391,-2.31 12.43,-7.27 4.922,-11.95 -3.789,-19.18 -29.539,-24.57 -22.422,-5.35 -21.949,-5.66 -18.821,2.66 2.071,5.51 -4.851,6.13 -8.71,7.58 -6.532,2.46 -1.18,3.24 17.609,12.61 11.801,5.86 20.672,8.79 27.031,8.99 z m -74.488,-5.67 c 0.629,0.08 1.406,-0.54 2.5,-1.91 32.578,-39.45 24.18,-96.91 -17.031,-125.27 -4.692,-3.13 -4.84,-0.24 -4.301,5.93 l 0.789,11.68 c 0.23,2.35 47.34,31.29 12.5,95.63 l 2.922,9.1 c 0.937,2.89 1.57,4.77 2.621,4.84 z m 531.838,-12.22 c 12.85,-0.08 48.94,-32.78 33.55,-33.95 -1.79,-0.15 -1.17,-2.5 -1.17,-3.98 0,-1.49 -0.08,-4.3 -0.51,-5.39 -1.09,-2.86 -5.31,-2.31 -11.79,1.56 -16.41,9.69 -20.12,12.81 -25.82,18.16 -11.14,10.59 -7.97,23.64 5.74,23.6 z m -126.99,-5.63 -0.24,-17.65 -25.702,-12.47 0.152,15.98 25.79,14.14 z m -325.668,-12.69 c 17.308,0.62 27.027,-16.64 9.726,-25.71 -6.879,-3.59 -29.648,-1.05 -40.199,-0.15 -11.949,1.05 -4.879,4.61 -4.25,5.66 1.641,2.7 2.922,3.13 -3.328,6.84 -4.922,5.19 -7.77,6.48 4.609,8.08 5.981,0.78 20.551,2.23 25.629,3.87 2.691,0.9 5.352,1.33 7.813,1.41 z m 526.448,-4.18 c 1.29,0.04 1.13,-2.07 0.62,-7.58 l -0.86,-11.76 c -7.85,-1.29 -46.99,-49.92 -15.19,-106.48 l -2.66,-10.08 c -1.25,-4.96 -1.64,-5.7 -5.74,-2.62 -23.83,16.49 -31.56,100.31 17.77,134.96 3.24,2.11 5.08,3.52 6.06,3.56 z m -92.93,-9.85 c 4.61,-0.07 10.23,-1.36 16.68,-4.29 15.04,-6.84 25.04,-12.39 27.38,-16.02 1.41,-2.26 -0.82,-4.14 -3.87,-5.04 -3.67,-1.05 -4.1,-2.58 -3.12,-6.87 0,-2.5 0.62,-5.28 -2.5,-5.43 -5.82,-0.32 -18.75,3.75 -31.88,10.82 -22.11,11.91 -19.1,27.15 -2.69,26.83 z m -112.42,-0.27 0,-21.45 -21.098,9.77 21.098,11.68 z m -353.872,-18.44 c 2.223,-0.08 5.192,-0.47 9.063,-1.09 4.769,-0.74 12.148,-1.49 15.98,-1.41 24.059,0.43 34.02,-16.33 14.18,-24.84 -5.43,-2.35 -7.699,-2.07 -22.539,2.22 -7.153,2.08 -15.864,4.22 -19.422,5.24 -7.141,2.03 -9.61,4.3 -4.879,5.9 4.41,1.48 4.809,4.53 2.027,8.59 -0.66,4.03 0.672,5.51 5.59,5.39 z m 559.102,0 c -3.4,-33.24 -6.17,-59.14 -11.21,-91.64 -3.67,1.45 -29.61,62.7 11.21,91.64 z m -101.25,-15.9 c 7.85,-0.15 21.05,-3.16 33.91,-8.2 11.25,-4.14 12.65,-5.27 4.88,-8.55 -4.69,-2.04 -4.1,-3.79 -2.74,-6.88 2.15,-2.3 6.22,-6.91 -0.19,-5.98 -7.54,-0.54 -27.38,0.55 -33.48,1.65 -18.12,3.16 -23.04,19.53 -8.2,27.1 1.21,0.63 3.2,0.9 5.82,0.86 z m -465.899,-8.39 c 1.68,0 4.77,-0.9 10.348,-2.66 32.543,-10.27 45.75,-22.74 29.812,-34.81 -4.613,-3.51 -11.8,-2.03 -25.351,5.55 -13.871,7.74 -20.82,11.95 -23.399,14.73 -2.543,2.69 -1.14,5.82 2.77,5.58 5.43,-0.35 4.609,2.35 4.18,6.88 -0.313,3.2 -0.512,4.69 1.64,4.73 z m 87.848,-3.01 24.961,-5.67 -62.34,-272.61 c -21.25,-6.14 -33.551,-8.789 -48.48,-16.84 l 43.089,7.418 -3.711,-19.488 -39.136,-7.34 -0.903,-5.82 44.84,8.082 c 0,0 -1.597,-18.594 -3.16,-25.82 42.813,3.437 85.082,15.347 128.09,15.699 0,0 1.051,215.119 0.891,238.599 -0.149,25.31 0.039,55.62 0.039,55.62 l 43.171,-24.37 7.11,-271.13 135.15,-21.961 c -0.939,4.57 -4.611,25.55 -4.611,25.55 100.201,-29.57 201.801,-73.238 291.721,-163.48 -41.87,-22.649 -81.4,-45.109 -122.07,-66.867 l -5.9,-8.481 c 103.09,48.168 259.81,148.278 372.97,258.949 l 2.5,-717 -541.639,-2.14 c 0,0 0,34.531 -0.039,67.07 l 0.308,59.961 c -2.179,38.43 4.5,80.777 -7.261,113.008 l -2.309,33.781 c 33.36,38.828 51.41,87.82 67.35,137.82 0,0 16.05,6.211 23.86,8.981 l 2.7,9.84 c -15.51,-7.922 -51.13,-21.25 -51.13,-21.25 3.83,3.008 -75.78,36.527 -124.96,44.379 -81.14,13.011 -190.281,-0.391 -277.269,-43.52 -4.262,-3 -6.09,-2.93 -5,0.942 20.199,73.476 -22.383,147.226 -97.07,168.597 -15.821,4.531 -28.789,4.531 -28.789,4.531 l 1.328,-6.449 c 122.07,-13.75 150.699,-142.73 103.711,-202.652 -12.301,-19.77 -14.219,-25.508 11.64,-24.891 104.528,0.864 140.86,-115.898 93.239,-180.508 0.121,0.508 3.832,-7.531 3.832,-7.531 29.726,39.211 37.617,113.711 -15,166.051 38.91,43.398 113.597,112.809 178.199,108.75 23.519,-1.48 46.719,-29.922 62.187,-52.66 32.742,-48.121 41.141,-115.27 43.442,-153.59 0.59,-10.039 1.91,-17.34 1.949,-22.621 0.043,-15.348 -2.891,-13.508 -12.809,-10.93 -12.422,3.199 -29.492,3.321 -42.109,-0.508 -20.231,-6.171 -16.992,-2.66 1.059,19.68 10.621,13.168 12.07,17.231 7.652,18.09 -1.332,0.269 -5.863,-4.223 -11.762,-13.32 -17.769,-27.34 -16.359,-16.129 -3.512,26.558 8.364,27.742 7.5,29.692 -15.269,46.922 -7.539,5.699 -16.801,11.25 -17.617,12.969 -4.262,9.101 -6.063,-2.309 -2.231,-9.809 3.75,-7.34 -4.179,-10.703 -18.16,-3.121 -32.93,18.238 -54.34,-18.68 -24.961,-34.691 6.91,-3.75 10.781,-0.668 5.43,4.301 -18.09,16.71 -5.512,30.781 18.941,15.968 14.141,-8.547 19.489,-5.816 24.219,4.891 2.621,4.371 24.57,-11.328 24.57,-17.43 -0.039,-4.019 -2.582,-16.828 -5.082,-25.39 -7.027,-24.219 -8.898,-31.758 -11.949,-47.418 -5.551,-28.481 -5.391,-43.051 0.512,-55.59 13.238,-28 46.597,-41.25 75.539,-29.961 4.18,1.64 12.23,3.012 12.23,3.012 l 0.352,-20.582 C 926.641,306.91 885.43,239.531 887.301,237.23 l -20.313,-0.039 c -27.027,53.59 -74.527,93.938 -134.879,116.25 0,0 -7.269,12.11 -0.781,-9.961 0.391,-8.871 9.723,-21.332 17.262,-25.71 28.68,-14.571 66.609,-40.43 87.582,-80.54 l -14.41,-0.242 c -17.582,26.801 -40.352,44.852 -61.922,60.633 -5.07,1.09 3.711,-48.562 24.422,-63.871 L 412.5,227.27 c 25.352,99.289 30.23,209.41 -29.219,353.781 49.297,-3 93.008,7.578 133.09,25.039 l -3.641,10.32 c -45.66,-21.801 -95.742,-26.101 -145.851,-20.98 38,-70.391 71.281,-217.93 38.902,-359.84 L 269.34,234.879 267.422,1008.4 c 0,0 5.348,-4.88 7.027,-6.56 4.301,-4.301 7.192,-10.711 8.403,-15.36 1.558,-5.968 3.199,-6.32 11.718,-12.691 4.059,-3.051 6.45,-5.738 6.41,-7.309 -0.242,-1.75 -0.281,-7.179 2.5,-10.5 7.461,-9.07 6.129,-14.89 0.5,-20.75 -26.128,-27.218 -42.531,-84.41 -29.289,-144.718 31.008,20.859 62.969,75.468 63.981,75.578 l 3.008,-74.61 c -2.77,0.629 -21.68,-10.582 -21.91,-25.269 -8.598,-2.539 -19.071,1.719 -27.739,4.301 l 6.25,-21.992 c -31.832,-12.7 -33.551,-56.25 3.36,-68.68 0,0 -3.36,-17.031 -6.289,-26.211 l 23.988,3.672 c 13.898,-41.563 67.34,-28.281 67.109,0.75 0,0 16.25,-6.102 22.422,-8.832 l -6.019,28.32 c 60.777,30.352 15.308,70.039 1.449,69.449 0.187,7.934 3.82,10.434 7.148,19.653 l -24.539,-1.52 c -4.531,14.609 -21.012,26.598 -21.64,25 l -3.36,106.758 c 18.559,-16.219 36.801,-32.777 61.41,-45.668 22.7,-11.871 25,-9.223 21.641,11.289 -1.52,9.262 -1.371,15.309 -1.371,15.309 8.519,-1.989 30,-29.879 28.949,-43.668 7.852,-10.231 14.961,17.308 -5.269,40.781 53.902,56.406 94.96,149.918 103.71,213.668 l 71.68,28.52 0.781,9.34 c 48.829,32.65 74.289,78.08 87.688,129.49 z m 59.652,-16.68 16.489,-7.38 -18.719,-9.26 2.23,16.64 z m -158.902,-4.53 c 3.199,-1.45 8,-4.61 14.601,-9.46 14.032,-10.31 22.192,-17.38 22.469,-23.59 0.153,-3.09 -2.109,-7.07 -5.668,-8.95 -8.441,-4.49 -16.562,-0.82 -34.84,17.93 -5.941,6.06 -9.89,9.3 -11.679,12 -2.114,3.12 -0.551,6.05 2.929,4.8 14.84,-6.72 1.989,11.92 12.188,7.27 z m 504.961,-3.83 c 3.08,-0.04 5.46,-0.12 6.99,-0.39 3.94,-0.82 5.12,-3.05 2.65,-5.24 -3.82,-3.39 -2.73,-6.83 1.14,-8.67 2.61,-1.29 1.56,-3.94 -1.64,-5.74 -1.88,-1.09 -4.69,-2.23 -8.6,-3.44 -22.5,-7.03 -39.06,-4.92 -43.4,5.55 -5,12.03 4.54,17.89 32.04,17.89 4.1,0 7.77,0.04 10.82,0.04 z m -327.578,-7.19 -0.203,-16.13 -23.321,-11.21 2.543,16.36 20.981,10.98 z m -198.442,-5.04 c 2.032,-0.12 5.391,-3.28 10.27,-9.26 22.539,-27.57 25.59,-32.89 18.211,-40.19 -8.75,-8.67 -21.02,-0.31 -34.223,23.87 -1.758,3.24 -3.949,7.42 -5.238,8.94 -4.84,5.67 -2.731,7.46 3.441,6.95 3.36,-0.23 4.957,0.94 5.039,4.42 0.078,3.63 0.899,5.35 2.5,5.27 z m 539.69,-13.94 c 4.06,0 3.79,-1.41 1.95,-6.18 -1.41,-4.21 -3.71,-5.58 2.23,-8.24 0.97,-0.47 3.16,-3.16 1.21,-4.33 -4.73,-3.21 -25.7,-12.74 -33.32,-15.28 -14.73,-4.88 -23.83,7.11 -15.16,19.07 3.63,5 28.6,14.06 41.02,14.88 0.78,0.04 1.48,0.08 2.07,0.08 z m -551.49,-15.98 c 14.96,-22.34 16.839,-32.77 7,-39.26 -6.25,-4.76 -19.571,2.07 -22.579,16.49 -2.351,11.01 -3.402,22.57 0.188,31.72 5.43,13.9 13.871,-6.65 15.391,-8.95 z m 210.121,9.22 0.121,-17.42 -28.403,-14.26 2.621,19.22 25.661,12.46 z m 57.89,-0.67 26.68,-17.3 1.559,-14.88 -27.61,15.19 -0.629,16.99 z m 297.809,-17.18 c 0.71,-0.04 1.1,-0.35 1.1,-1.17 0,-2.04 -0.51,-9.34 3.47,-10 7.86,-1.33 6.06,-3.75 -0.82,-9.69 -7.46,-6.6 -14.25,-14.42 -23.24,-19.22 -23.12,-8.56 -30.39,15.9 -8.51,28.63 7.57,4.38 14.45,7.42 19.53,8.87 3.86,1.05 6.95,2.58 8.47,2.58 z m -297.11,-8.99 30.942,-18.24 1.098,-18.32 -30.75,15.63 -1.29,20.93 z m -59.64,-1.68 0.109,-15.97 -30.23,-17.31 2.5,17.85 27.621,15.43 z m 125,-13.04 c 8.551,-3.99 118.32,-34.5 154.68,-24.07 0,0 31.1,-44.84 54.14,-60.93 -35.66,-52.27 -156.32,-103.558 -156.32,-103.558 l -52.5,188.558 z m 247.11,-1.1 c 1.99,0.04 2.46,-1.95 2.46,-5.66 -0.47,-10.86 -18.32,-50.82 -32.5,-30.35 -3.91,7.61 0.04,15.54 12.5,24.92 9.88,7.5 14.96,10.98 17.54,11.09 z m -597.739,-6.33 c 2.738,-2.93 1.488,-12.03 -4.34,-11.44 -1.672,0.19 -1.91,9.41 -0.82,14.41 1.679,0.82 4.219,-1.99 5.16,-2.97 z m 225.98,-5.03 -0.16,-20.28 -35.859,-19.49 3.867,22.54 32.152,17.23 z m 59.258,-2.86 35.5,-18.94 4.141,-22.38 -39.328,20.39 -0.313,20.93 z m -59.301,-27.57 0,-20.4 -40.277,-20.66 2.738,20.16 37.539,20.9 z m 60,-1.76 39.692,-22.58 5.191,-21.25 -44.301,22.89 -0.582,20.94 z m -562.457,-0.67 c 6.481,0.12 8.829,-6.83 3.899,-11.25 -3.238,-3 -12.418,-2.38 -13.238,0 -4.141,4.03 1.558,11.18 9.339,11.25 z m 12.11,-21.6 c 0.969,0.08 1.871,0 2.648,-0.19 4.692,-1.21 7.621,-7.97 4.77,-11.84 -5.309,-7.11 -19.258,-2.19 -17.231,6.84 0.551,2.38 5.672,4.92 9.813,5.19 z m 489.648,-6.83 0,-18.25 -43.828,-23.12 2.77,20.43 41.058,20.94 z m 61.949,-2.54 45.192,-24.26 3.441,-20.47 -48.551,25.27 -0.082,19.46 z m -573.046,-0.51 c 2.187,0.12 3.91,-0.51 4.847,-2.15 0.852,-1.44 1.832,-5.19 4.961,-6.99 5.86,-3.4 6.481,-4.1 -4.648,-8.99 -4.692,-2.07 -13.871,-8.32 -17.114,-10.46 -9.847,-6.64 -13.828,-4.42 -14.57,3.43 -0.898,9.85 17.07,24.61 26.524,25.16 z m 33.91,-14.96 c 2.258,0.12 4.488,-0.31 6.09,-1.37 3.75,-2.46 3.949,-7.46 0.347,-9.96 -8.277,-5.31 -21.25,1.95 -14.328,8.28 1.91,1.76 4.957,2.89 7.891,3.05 z m 477.109,-9.92 0.231,-23.68 -48.872,-25.78 3.25,24.03 45.391,25.43 z m -501.293,-2.78 c 3.203,0.2 6.293,-0.54 8.942,-2.54 2.89,-3.67 6.41,-4.76 8.402,-4.84 8.398,-0.31 5.738,-3.4 -3.082,-7.38 -12.11,-5.55 -20.629,-12.58 -29.34,-20.67 -9.059,-8.43 -9.73,-10.23 -12.73,-6.79 -11.059,12.85 10.539,41.25 27.808,42.22 z m 564.024,-0.27 51.207,-28.01 4.421,-23.63 -55.628,30.94 0,20.7 z M 339.961,1035 c 2.109,0.08 4.019,-0.43 5.59,-1.68 3.629,-2.97 1.519,-8.71 -3.52,-11.29 -4.301,-2.19 -11.371,-1.25 -13.359,0.78 -4.844,4.89 3.906,12.03 11.289,12.19 z m -24.731,-11.88 c 3.129,0.28 5.981,-3.67 8.481,-7.96 0.898,-1.1 4.41,-0.63 6.91,-0.63 9.578,-0.08 10.899,-4.14 1.609,-9.3 -2.699,-1.52 -11.64,-8.32 -17.582,-13.39 -16.097,-15.36 -24.808,-11.762 -22.738,3.941 1.961,15.039 15,26.519 23.32,27.339 z m 555.122,-1.48 56.488,-30.98 5.5,-25.461 -61.988,33.391 0,23.05 z m -62.301,-0.47 -0.242,-23.44 -53.161,-28.121 4.102,23.789 49.301,27.772 z m 63.16,-29.842 63.277,-38.277 2.313,-24.93 -65.59,37.738 0,25.469 z m -63.199,-4.18 0.109,-22.968 -58.781,-29.84 2.961,21.75 55.711,31.058 z M 330.738,971.949 c 1.492,0.039 2.891,-0.187 4.063,-0.738 6.918,-3.16 5.078,-8.633 -5.27,-14.301 -10.551,-5.738 -14.179,-4.762 -16.441,1.719 -1.918,5.43 9.531,13.133 17.648,13.32 z m 660.512,-3.121 c 110,-25.156 217.7,-79.609 322.23,-174.687 l -21.84,-15.43 c 0,0 -91.6,104.488 -295.23,165.738 l -5.16,24.379 z m -119.371,-10.937 30.5,-18.012 0.082,-4.57 -30.582,2.5 0,20.082 z m -519.848,-0.192 c 2.309,-0.121 4.34,-1.488 15.27,-6.679 43.789,-31.61 61.328,-50.668 72.187,-85.321 6.532,-20.777 6.41,-19.918 -15.039,-8.629 -20.109,10.7 -47.73,28.442 -65.539,51.41 -2.969,-54.031 3.36,-121.14 3.36,-121.14 27.339,-13.469 18.468,-48.59 18.39,-48.36 70.391,19.18 54.961,-73.71 2.539,-53.671 12.5,-69.688 -67.301,-64.02 -59.14,-4.258 -63.508,2.429 -52.258,71.679 0.429,62.109 -5.468,21.328 2.114,35.82 21.532,44.961 l -2.969,91.258 c 0,0 -51.762,-74.301 -60.391,-73.129 -5.082,0.699 -12.738,9.219 0.149,74.34 6.679,33.941 42.66,75.23 62.781,76.558 3.59,0.231 5.07,0.622 6.441,0.551 z m 50.629,-0.711 9.289,-6.328 -8.75,-15.621 -9.679,7.031 9.14,14.918 z m 405.039,-4.449 -0.32,-13.668 -28.508,-1.723 28.828,15.391 z M 495.078,798.121 c -4.258,-0.109 7.223,-2.812 14.492,-9.332 67.071,-10.391 108.129,-92.461 77.11,-151.879 -3.789,-2.648 2.031,-15.582 5.781,-10.738 32.738,46.406 8.398,160.387 -87.07,171.25 -5.661,0.469 -8.871,0.738 -10.313,0.699 z m 25.352,-31.172 c -5.391,-14.758 -6.801,-18.32 7.031,-12.301 24.418,-9.027 50.738,-48.789 42.34,-88.707 -2.731,-4.652 2,3.039 5.238,-10.082 12.031,29.219 0,92.262 -54.609,111.09 z m 310.121,-74.371 c 68.668,0.192 136.597,-14.848 190.699,-45.898 -18.4,-10.231 -77.031,-24.45 -77.031,-24.45 -32.969,36.95 -49.77,73.942 -109.34,55.04 -62.379,-16.098 -118.59,-70.122 -150.231,-105.981 -31.718,18.91 -48.867,23.512 -76.988,25.082 -1.64,0.039 -4.031,-7.109 -2.039,4.41 8.051,12.379 13.598,26.449 18.949,40.629 58.95,33.512 132.852,50.93 205.981,51.168 z m 213.429,-47.5 c -13.67,-44.219 -31.32,-87.808 -61.281,-126.207 l -3.679,19.219 c 28.17,43.238 41.53,82.57 47.54,99.801 l 17.42,7.187 z m -26.56,-11.449 c 1.76,-2.809 -27.299,-72.109 -41.639,-84.68 l -5.621,17.852 c 11.68,17.687 29.02,60.269 28.512,60.699 l 18.748,6.129 z m -177.299,-0.078 c -0.902,-0.11 -1.211,-0.891 -1.211,-2.61 -0.039,-6.371 6.602,-11.371 18.668,-14.101 16.332,-3.719 39.184,1.91 39.223,9.64 0,4.461 -3.172,4.809 -12.539,0.469 -11.723,-5.429 -22.071,-4.371 -37.352,3.75 -3.512,1.84 -5.621,2.93 -6.789,2.852 z M 985.469,622.5 c -4.528,-16.801 -11.25,-29.141 -19.879,-41.988 l -2.781,8.828 c 5.98,9.609 9.89,20.621 14.921,31.281 l 7.739,1.879 z m -17.071,-5.469 c -2.187,-5.82 -4.609,-12.582 -9.648,-17.769 l -6.559,13.859 16.207,3.91 z M 865.121,604.18 c -11.101,-0.2 -22.031,-3.75 -22.973,-9.649 -0.468,-2.812 3.793,-1.722 24.332,0.778 10.86,1.332 16.059,-5.079 26.02,-4.411 5.039,0.582 0.309,5.274 -1.25,6.641 -5.551,4.691 -16.41,6.84 -26.129,6.641 z m -47.23,-12.77 c -1.09,-0.238 0.121,-3.051 4.3,-10.281 2.219,-3.899 2.77,-11.828 3.2,-16.75 -0.512,-12.231 -0.469,-11.84 5.55,-4.77 3.829,3.789 11.207,2.93 22.93,-0.23 7.578,-2.039 9.367,-2.777 14.609,0.5 6.09,3.832 7.54,1.883 12.77,0.859 5.039,-1.008 9.609,0.981 15.16,2.543 6.75,1.84 8.039,1.41 13.942,0 8.988,-4.261 7.699,-3.902 8.437,11.367 0.742,15 -0.039,16.051 -8.75,11.012 -8.398,-4.922 -14.219,-7.14 -27.109,-2.609 -14.059,4.879 -16.051,3.629 -26.051,0.621 -12.078,-3.633 -17.539,-4.844 -27.149,1.019 -6.332,3.86 -10.589,6.95 -11.839,6.719 z m -196.602,-22.66 5.391,-8.789 c 48.629,-17.422 81.601,-57.152 62.148,-124.18 l 4.613,-7.383 c 24.368,67.5 -3.441,123.321 -72.152,140.352 z m 15.082,-28.59 6.598,-13.601 c 36.64,-17.688 34.41,-66.36 32.383,-64.45 l 5.738,-12.699 c 9.14,31.531 -7.539,78.051 -44.719,90.75 z m 152.848,-72.621 c -1.449,-0.039 -2.379,-0.508 -2.77,-1.519 -0.937,-2.43 1.91,-3.872 18.629,-15.43 14.332,-9.969 25.473,-17.309 24.613,-18.75 -0.589,-0.942 -9.492,1.25 -15.863,3.121 -16.719,5 -41.367,-1.012 -55.199,-10.742 -3.508,-2.34 -9.328,0.23 -14.41,1.562 -2.028,0.547 -6.489,1.098 -8.707,0.508 -10.434,-2.738 -0.313,-12.699 25.226,-25.629 31.41,-15.89 48.403,-17.34 67.422,-7.73 12.66,6.558 17.231,1.718 3.36,-5.782 -24.18,-13.046 -47.301,-8.988 -85.5,17.262 -17.7,12.192 -24.77,10.16 -9.571,-1.441 26.672,-20.86 78.082,-46.328 109.602,-15.239 1.25,0.469 4.109,0.239 5.469,0.239 6.57,-0.039 6.839,2.031 0,12.89 -4.098,6.52 -12.461,13.36 -2.301,21.371 7.691,6.051 7.152,8.942 -2.149,11.719 -2.461,0.66 -2.23,-0.937 -5.898,2.031 -22.344,18 -44.184,31.598 -51.953,31.559 z m 9.691,-35.59 c 9.371,-0.23 18.82,-7.461 21.75,-20.429 0.281,-1.168 0.512,-2.34 0.668,-3.59 l -8.008,-0.309 c -6.601,26.438 -26.519,17.688 -28.519,2.18 l -7.223,0.98 c 2.652,14.77 11.953,21.449 21.332,21.168 z m 165.391,-22.57 -5.321,-0.789 c -3.468,9.769 -19.25,22.859 -26.75,-0.891 l -6.679,0.27 c 4.648,32.152 33.859,27.152 38.75,1.41 z M 923.52,422.77 c 2.179,-3.079 -1.641,-8.321 -3.872,-10.7 -2.109,-2.269 -6.839,-0.351 -8.789,1.91 -1.718,2.231 -0.429,6.61 2.422,8.09 2.969,1.52 8.047,2.891 10.239,0.7 z m -93.442,-0.969 c 2.223,-5 -4.027,-8.711 -4.808,-7.031 -1.321,0.46 -3,8.71 -2.219,9.25 2.07,0.039 6.168,-0.622 7.027,-2.219 z m 140.512,0.82 c 3.359,-0.281 7.031,-1.883 7.691,-5.672 0.039,-2.539 -2.89,-5.269 -6.211,-5.39 -1.449,-0.079 -7.07,4.031 -6.019,9.921 1.179,2.071 2.578,1.29 4.539,1.141 z M 775.23,421.02 c 1.219,-1.801 -1.011,-7.192 -1.519,-7.93 -0.27,-0.391 -7.461,-0.078 -7.301,0.461 0.149,0.551 -0.672,4.609 1.09,7.539 1.988,1.289 6.328,1.961 7.73,-0.07 z m 130.321,-17.391 c 0.929,-0.039 2.109,-0.43 3.508,-1.289 20.043,-13.039 45.863,-18.86 64.461,-9.57 4.14,2.109 6.832,2 6.832,-0.04 0,-2.179 -4.614,-6.679 -13.161,-9.25 -19.14,-5.75 -50.742,1.829 -61.679,13.551 -3.211,3.438 -2.742,6.641 0.039,6.598 z M 729.609,389.922 c -1.91,0.078 -2.539,-1.051 -2.187,-3.363 1.289,-7.809 54.957,-38.59 77.379,-42.731 18.398,-3.398 32.738,-1.879 43.988,4.652 27.383,15.899 20.352,37.379 -6.449,21.211 -17.961,-10.902 -63.551,-5.902 -90.66,9.758 -12.071,6.961 -18.91,10.391 -22.071,10.473 z m 241.719,-11.25 c 6.793,2.848 9.692,3.828 11.172,2.617 6.91,-5.777 -4.379,-14.769 -25,-18.277 -16.48,-2.742 -26.41,-3.242 -45.199,10.66 -14.571,10.777 -7.731,16.019 0.668,11.098 22.23,-13.008 38.793,-13.399 58.359,-6.098 z M 734.379,345 C 781.84,328.012 835.82,287.031 859.801,237.23 l -14.641,0.11 c -16.289,28.441 -48.519,64.539 -101.68,89.93 -4.73,3.859 -7.191,10.781 -9.101,17.73 z m 249.293,-23.281 0,-15.59 C 954.34,291.371 929.77,268.59 911.211,237.23 l -16.602,0.231 c 19.02,33.668 47.5,65.199 89.063,84.258 z m 0,-23.75 0,-19.098 C 965.121,268.012 949.648,253.672 938.789,237.23 l -19.648,0 c 15.738,26.598 37.339,47.809 64.531,60.739 z M 766.328,283.281 c 14.141,-8.121 37.543,-29.761 46.051,-46.441 l -7.539,-0.36 c -7.692,9.809 -20,21.059 -30.039,29.93 -6.36,7.539 -8.473,16.871 -8.473,16.871 z m 217.344,-12.23 c 0.238,0 0.238,-0.153 0,-0.461 l 0,-15.199 c 0,-0.391 -14.102,-9.571 -20.082,-18.161 l -15.93,0 c 10.93,19.801 33.75,33.86 36.012,33.821 z m 0.039,-25.231 -0.039,-8.59 -10,-0.039 c 0.668,0.969 6.207,7.11 10.039,8.629 z m -195.473,-2.148 c 3.012,-1.602 5.313,-7.223 5.313,-7.223 l -2.692,-0.277"
         inkscape:connector-curvature="0"
         id="path18"
         style="fill:#131f67;fill-opacity:1;fill-rule:nonzero;stroke:none" /><path
         d="m 382.461,579.84 c 33.008,-0.891 102.699,11.41 101.559,10.16 0,0 216.179,-359.18 207.39,-355.59 -2.82,-4.488 -276.922,-4.289 -276.922,-4.289 -5.937,-0.082 58.133,133.078 -32.027,349.719 z m 98.008,253.012 c 105.351,87.308 215.66,87.929 334.14,99.918 l 2.731,296.64 42.89,-25.66 0.899,-271.801 c 156.411,-11.719 291.331,-68.98 407.271,-169.25 1.44,-2.148 -167.74,-92.621 -241.8,-116.57 -57.541,42.23 -209.299,68.871 -309.92,36.41 -27.66,-8.949 -61.602,-23.199 -94.61,-33.75 23.91,143.199 -87.89,164.332 -127.23,170.941 -4.918,0.86 -10.82,11.442 -14.371,13.122 z M 345.27,786.559 c 1.839,30.511 -0.149,61.062 -2.418,92.23 -0.622,7.152 -61.602,-92.809 -65.043,-68.559 -8.508,60.668 21.601,137.86 68.953,147.309 4.718,6.371 98.508,-51.68 94.218,-101.84 -1.371,-16.32 -83.64,55.199 -83.992,50.942 -1.949,-8.36 2.422,-120.313 4.961,-120.121 23.711,-13.321 18.563,-30.43 21.141,-44.61 63.469,9.34 60,-61.051 0.07,-58.859 3.719,-83.211 -73.551,-45.59 -58.32,-1.289 -77.809,3.668 -39.488,76.328 -0.738,60.347 -2.34,18.36 2.187,37.5 21.168,44.45 z m 89.261,352.931 c -4.492,1.8 -165.98,10.08 -165.98,10.08 l 8.437,393.24 c 82.461,189.3 392.742,100.74 343.403,60.47 -148.282,-97.11 -170.86,-274.26 -185.86,-463.79 z m 297.848,161.56 -4.918,43.68 c -12.66,27.11 330.199,-131.21 334.059,-134.57 l 9.96,-46.61 c 2,-20.46 -218.039,82.93 -339.101,137.5 z m 623.711,77.11 c -5.07,-176.44 -32.26,-295.93 -134.8,-440.148 -2.85,-4.731 -31.84,-16.723 -34.1,-20.821 14.65,-23.171 98.32,-57.152 136.95,-75.429 L 1525.2,961.48 c 2.3,-0.191 -6.88,419.34 -6.88,419.34 l -162.23,-2.66 z m 76.06,191.64 c -26.99,4.11 -89.85,69.3 -76.8,88.99 0.39,14.8 78.17,-41.84 86.25,-57.07 -3.98,4.53 -4.53,138.28 -5.78,132.97 -2.97,-1.6 -23.79,13.32 -18.36,41.17 -59.65,-13.16 -56.37,64.3 -4.22,61.13 -6.76,70.47 79.38,44.61 56.45,-2.61 73.71,13.59 60.97,-69.15 5.27,-55.67 4.73,-31.37 -8.2,-40.04 -26.29,-46.29 1.13,-13.16 6.1,-100.86 6.1,-100.86 0,0 54.49,83.48 58.39,76.25 10.9,-25.31 -8.98,-159.18 -81.01,-138.01 z m -252.5,307.82 c -24.57,-84.73 42.81,-181.53 106.44,-181.25 12.78,2.03 37.31,-4.89 28.87,-11.76 -100.43,-81.29 -334.73,-98.2 -334.8,-94.65 2.461,-99.84 -2,-200.66 -4.379,-300.47 l -42.972,25.86 c -1.36,91.02 -3.59,184.14 -5.7,275.16 -150.121,19.61 -285.039,68.01 -391.679,170.97 70.82,52.47 155.39,85.2 236.64,118.32 102.309,-53.12 244.73,-83.82 407.58,-2.18 z m -74.06,402.54 c -4.73,2.07 16.17,17.57 16.17,17.57 0,0 174.41,-2.26 260.94,-1.13 -31.53,-129.33 -9.22,-245.23 31.48,-356.52 -10.78,2.5 -82.42,-3.28 -99.92,-11.13 -2.81,-2.82 -206.49,348.04 -208.67,351.21"
         inkscape:connector-curvature="0"
         id="path20"
         style="fill:#e2cf00;fill-opacity:1;fill-rule:nonzero;stroke:none" /><path
         d="m 1612.27,135.27 c -2.78,7.929 -2.82,8.91 -3.44,81.41 -0.67,73.199 -0.35,81.25 3.63,96.441 7.58,18.949 -14.61,19.027 -28.63,21.289 l 0,29.969 c 16.44,2.301 36.29,-2.5 43.55,-12.149 17.11,11.829 28.21,13.821 40.04,13.36 39.73,-0.16 57.23,-24.731 56.13,-72.11 -0.15,-7.742 1.22,-17.621 1.22,-17.621 l 21.36,0 0,-30.308 -22.46,0 c 0,0 3.63,-75.16 -1.44,-101.723 -15.43,-59.1366 -88.91,-63.0077 -109.96,-8.558 z m 81.01,10.671 c 3.79,9.02 3.24,5.27 3.4,74.219 l -0.12,31.52 c -31.52,7.269 -59.37,45.039 -59.22,45.039 0,0 -0.39,3.633 -0.66,-67.93 -0.31,-81.09 2.54,-85.82 19.73,-98.949 16.68,-9.41 30.43,1.289 36.87,16.101 z m -44.02,182.379 c 9.57,-13.48 21.52,-27.269 35.66,-38.398 5.31,-4.141 12.74,-5.781 12.74,-5.781 0,0 -0.39,9.097 -0.43,13.75 -0.2,28.32 -20.59,50.589 -47.97,30.429 z m -952.19,-93.441 -210.898,355.98 31.68,13.75 217.378,-370.23 -38.16,0.5 z m 550.98,49.383 c -79.14,12.457 -101.45,111.988 -43.25,205.617 27.54,45.391 142.82,214.383 136.02,208.75 -3.59,3.172 88.59,-130.82 134.69,-199.527 43.63,-72.461 66.83,-190.864 -40.39,-212.582 -41.06,-8.36 -83.79,16.371 -85.67,64.339 -0.27,6.719 -3.04,12.192 -6.95,12.192 -3.28,0.039 -5.59,-4.692 -5.62,-9.34 -1.1,-45.82 -42.19,-77.07 -88.83,-69.449 z m 371.21,117.109 c -35.24,11.75 -41.53,54.02 -15.24,102.379 21.49,38.398 32.78,48.281 52.58,86.449 8.17,15.781 9.06,16.09 15.16,5.313 14.76,-24.383 30.9,-50.903 44.06,-71.532 34.53,-53.781 40.63,-91.32 18.44,-113.98 -20.08,-20.59 -62.66,-8.629 -62.89,17.621 0,1.25 -0.59,3.359 -1.33,4.719 -1.6,3.051 -4.81,1.019 -4.84,-3.078 -0.16,-19.063 -25.75,-34.614 -45.94,-27.891 z M 321.84,710.82 l 30.461,31.328 30.551,-30.937 -31.954,-29.652 -29.058,29.261 z m 676.601,199.649 -4.3,25.429 C 1115.66,906.129 1215.08,843.711 1286.6,775.699 l -17.03,-12.461 c 5.31,1.453 -172.62,134.883 -271.129,147.231 z m -352.89,25.043 38.508,5.578 -1.09,-21.36 -36.598,-8.32 -0.82,24.102 z m 711.209,16.91 -21.02,16.918 15.12,17.89 20.39,-16.058 -14.49,-18.75 z M 643.121,1124.92 c 52.149,24.65 92.859,124.26 87.777,130.9 l 28.403,-6.72 -65.672,-272.85 -49.41,-8.949 c -0.239,52.189 -1.129,105.429 -1.098,157.619 z m 343.25,-154.408 c -17.699,57.458 -52.5,187.378 -52.5,187.378 1.289,-4.26 113.119,-36.05 153.039,-24.45 17.04,-23.32 35.79,-43.83 55.51,-62.58 -41.4,-40.51 -92.85,-74.38 -156.049,-100.348 z m 468.899,209.098 -19.72,17.07 17.69,21.64 21.64,-16.48 -19.61,-22.23 z m -257.46,11.44 c -16.05,28.83 -17.15,61.45 12.62,93.6 l -12.62,-93.6 z m -612.111,55.9 c -1.25,2.97 6.762,71.29 8.641,74.34 3.32,5.31 9.84,-13.87 12.89,-28.52 3.821,-18.36 -16.839,-56.75 -21.531,-45.82 z m 450.201,21.21 c 0,0 43.32,200.71 62.07,279.34 l 52.85,13.32 -7.15,-164.77 c -43.44,-38.82 -79.53,-131.32 -79.53,-131.32 l -28.24,3.43 z m -696.252,33.36 -20.898,19.53 17.699,19.38 18.43,-18.87 -15.231,-20.04 z m 374.692,78.25 -57.461,67.22 c 35.582,49.49 94.68,78.13 157.301,100.63 l 42.379,-188.6 c -47.93,14.46 -99.61,30.08 -142.219,20.75 z m -293.68,168.08 14.77,18.32 19.3,-15.19 -14.691,-20.24 -19.379,17.11 z m 691.76,56.68 36.99,5.27 -2.81,-25.39 -39.14,-6.21 4.96,26.33 z m -602.26,142.58 22.77,14.18 c 79.922,-71.76 168.16,-121.25 264.449,-149.38 l 6.449,-30.97 C 695.27,1614.38 592.73,1665.08 510.16,1747.11 z m 933.86,28.63 -29.61,29.18 26.64,29.61 31.65,-27.34 c -10.43,-15.74 -28.68,-31.45 -28.68,-31.45 z m -993.399,53.99 c -36.672,56.6 -78.902,116.75 -112.141,166.32 -55.121,82.43 -70.039,138.33 -52.66,188.87 28.442,82.85 149.801,78.52 158.668,-5.7 1.801,-17.19 9.922,-15.74 12.153,1.99 11.718,93.63 154.097,81.41 162.66,-18.36 8.98,-84.69 -49.571,-150.47 -81.922,-195.31 -28.707,-45.7 -62.109,-89.22 -86.758,-137.81 z M 99.8008,1963.91 c -24.0196,40.15 -89.7227,130.89 -26.75,158.86 22.3398,9.93 50.9292,-7.81 50.8592,-26.72 -0.039,-8.55 4.68,-9.02 5.781,-0.15 4.649,37.11 56.68,39.76 73.321,3.9 14.258,-42.73 -11.453,-81.68 -47.461,-136.52 -8.281,-12.62 -27.391,-46.83 -27.391,-46.83 l -28.3592,47.46 z M 1280,1917.73 l -221.52,377.89 31.99,0.28 218.01,-364.02 -28.48,-14.15 z m -1209.3008,329.93 -22.6094,0 0,30.31 22.6094,0 c 0,0 0.1992,16.29 0.8594,45.12 1.3711,61.44 2.9726,71.01 21.0625,87.89 35.7379,33.4 95.6599,6.17 94.9569,-44.07 -1.058,-70.89 -0.277,-138.51 -2.379,-148.08 -3.75,-16.84 -4.148,-17.81 -2.578,-20.9 3.078,-6.17 30.149,-8.87 30.149,-7.11 l 0,-29.88 c -20.661,-1.6 -29.25,0.31 -45.782,11.95 -10.308,-9.8 -41.758,-19.61 -66.718,-8.09 -19.02,8.79 -33.4302,31.49 -29.5708,82.86 z m 76.6018,-52.97 c -11.25,15.97 -30.11,37.69 -47.9221,45.39 -1.0977,-18.28 0.5,-33.63 7.0701,-41.92 10.43,-13.12 27.301,-16.17 40.852,-3.47 z m 9.301,175.15 c -8.321,23.21 -29.723,31.02 -45.352,16.57 -9.801,-9.07 -11.3711,-18.52 -11.5586,-70.08 -0.1211,-31.8 -0.1602,-45.2 -0.1602,-45.2 30.4688,-9.65 58.9488,-44.53 58.6678,-44.06 l 0.75,96.17 c 0.582,15.59 -0.199,31.21 -2.347,46.6"
         inkscape:connector-curvature="0"
         id="path22"
         style="fill:#d40000;fill-opacity:1;fill-rule:nonzero;stroke:none" /><path
         d="m 1056.45,2301.99 -52.93,-0.19 300.46,-604.26 c 0,0 -8.16,-1.37 -24.1,2.81 -72.15,18.95 -116.6,95.16 -100.31,169.96 1.68,5.78 2.07,10.78 2.07,10.78 -186.019,-84.18 -301.171,-53.2 -408.589,0.43 l -45.821,-17.57 c 3.04,27.65 37.258,131.52 88.469,180.46 l -0.078,52.39 -1.242,24.72 -4.027,44.89 c -76.172,-71.68 -165.043,-184.57 -176.133,-344.85 0,0 -69.379,-35.62 -128.559,-75 3.32,0.43 92.192,-108.71 305.789,-170.04 l -9.379,34.85 c 31.758,-8.91 76.91,-15.98 121.801,-21.64 l 6.008,-273.6 51.019,-30.19 1.723,302.89 c 1.559,-1.25 81.359,2.81 124.329,13.05 l -6.05,-29.18 42.46,8.35 0,-21.32 -46.52,-10.98 -66.29,-283.13 38.63,-8.59 c 11.29,57.03 39.8,103.17 81.17,131.45 l -0.43,10.9 c 26.53,19.02 81.6,34.14 81.99,33.74 18.79,91.84 62.54,155.47 109.07,215.98 l -22.15,30.12 84.92,31.17 -117.93,200.59 c 45.39,31.32 135.35,19.64 135.35,19.64 -38.55,104.11 -72.46,211.49 -34.37,369.07 l -328.01,-0.28 -2.34,2.58 z m 107.61,-6.52 c -0.08,-26.33 -34.45,-23.63 -38.67,0.12 l 38.67,-0.12 z m 210.74,0.82 c -20.89,-120.67 -13.98,-238.2 34.42,-349.88 0,0 -7.03,-0.39 -7.93,-0.2 -0.67,0.12 0.82,6.02 0.47,7.58 -0.98,4.18 -7.93,2.23 -13.75,-1.72 -2.54,-1.68 -5.47,-3.63 -7.35,-4.57 -5.97,-2.97 -36.36,-2.77 -36.36,-2.77 9.92,6.72 23.86,25.62 15.78,36.64 -1.84,2.34 -2.97,1.33 -4.73,-1.84 -8.67,-15.35 -12.93,-17.77 -24.49,-17.62 -18.09,0.24 -31.06,11.45 -29.57,28.36 1.41,16.45 25.59,25.12 22.03,9.18 -0.98,-14.22 13.13,-16.99 15.7,-2.81 0.98,5.27 0.2,2.81 1.37,9.02 28.16,14.96 12.62,45.43 -13.67,39.03 -6.21,-1.6 -6.95,-2.19 -11.33,0.04 -8.12,4.18 -14.84,2.89 -17.93,-2.97 -2.69,-5.2 1.41,-9.34 7.42,-9.34 6.25,-0.04 7.46,-3.04 7.46,-6.8 -0.04,-8.71 -15.07,-12.89 -25.04,-7.81 -26.32,13.44 -16.56,48.32 13.99,48.21 9.3,-0.04 13.16,-0.63 13.55,1.36 1.1,5.67 -13.08,15.39 -21.09,13.95 -6.76,-1.33 -10.9,-3.09 -7.3,5.94 2.18,9.33 2.14,13.55 0.27,20.54 -4.88,10 -4.77,4.89 -7.77,-3.24 -10.08,-16.68 -25.24,-20.39 -38.33,-11.25 -12.1,8.48 -11.75,24.57 -0.23,36.02 8.01,7.96 16.6,2.54 11.8,-6.33 -1.99,-3.71 -0.43,-8.28 3.16,-9.18 7.23,-1.84 11.72,2.42 11.76,11.17 -0.16,4.8 -1.49,5.9 7.19,10.86 22.5,12.85 5.7,47.97 -19.73,36.68 -5.55,-2.5 -6.87,-4.92 -9.37,-3.75 -10.63,10.04 -25.86,-2.66 -16.84,-9.34 3.87,-1.91 8.63,-2.61 9.88,-2.73 2.19,-1.25 1.49,-4.38 -1.72,-8.32 -10.5,-12.38 -34.41,-6.25 -40.04,11.21 -6.52,20.27 14.18,41.56 30.04,29.77 4.73,-3.48 8.79,-3.87 8.79,1.28 0.04,8.05 -10.08,17.31 -23.01,16.41 -13.16,-0.94 -11.71,-2.62 -4.57,9.22 5.28,10.59 4.57,20.9 -0.03,27.11 -3.56,4.76 -7.19,5.78 -6.8,0.7 2.85,-15.7 -15.47,-30.62 -30.59,-24.02 -14.49,6.48 -21.68,22.69 -14.53,36.8 6.56,12.96 22.46,14.33 19.84,0.46 -1.24,-8.86 5.47,-13.51 11.96,-8.28 2.38,1.88 2.93,3.56 3.08,9.26 0.2,6.37 -2.38,8.24 1.72,11.95 10.74,1.45 11.41,24.26 9.77,25.2 l 172.65,0.82 z m -192.46,-0.78 c 6.84,0 12.5,-2.31 12.5,-9.14 0,-6.8 -5.5,-12.31 -12.34,-12.31 -6.8,0 -12.34,5.51 -12.34,12.31 0,6.83 5.39,9.14 12.18,9.14 z m -120.97,-0.9 27.46,0 216.72,-361.17 -25.67,-12.46 -218.51,373.63 z m 45.08,-12.62 c 13.12,-7.5 25.23,-13.67 41.71,-15.27 -4.8,-9.77 -9.21,-20.47 -10,-38.75 l -31.71,54.02 z m 44.14,-72.73 c 13.36,-4.77 24.96,-12.03 46.99,-4.69 -11.72,-10.43 -18.4,-22.85 -23.36,-35.94 l -23.63,40.63 z m 112.73,-43.64 c 6.33,0 11.45,-5.11 11.45,-11.44 0,-6.29 -5.12,-11.41 -11.45,-11.41 -6.29,0 -11.44,5.12 -11.44,11.41 0,6.33 5.15,11.44 11.44,11.44 z m -70.2,-28.51 c 9.65,-3.56 19.81,-5.9 31.02,-5.39 -5.55,-7.66 -7.42,-19.26 -7.81,-32.58 l -23.21,37.97 z m 33.17,-56.91 c 8.94,-4.38 19.53,-10.71 38.32,-8.68 -12.42,-21.09 -9.77,-26.95 -11.06,-36.17 l -27.26,44.85 z m 108.63,-41.92 c 6.6,0 11.99,-5.39 11.99,-11.99 0,-6.6 -5.39,-11.99 -11.99,-11.99 -6.64,0 -11.99,5.39 -11.99,11.99 0,6.6 5.35,11.99 11.99,11.99 z m -67.3,-26.91 c 8.16,-4.65 24.33,-7.27 24.53,-6.02 -1.06,0.78 -4.65,-15.58 -5.27,-25.9 l -19.26,31.92 z m 37.69,-61.53 c 11.64,-6.87 24.53,-6.21 32.11,-7.03 -8.08,-1.6 -15.74,-3.63 -24.41,-7.07 l -7.7,14.1 z m 137.35,-67.54 c -28.05,-1.79 -34.57,-23.32 -31.25,-45.11 -21.37,3.4 -45.32,-16.88 -38.64,-41.64 6.37,-23.52 28.21,-24.34 43.32,-22.78 -1.17,-5.7 -4.33,-24.92 18.87,-41.17 l 3.09,-122.07 c 0,0 -10.24,9.42 -16.92,16.06 -29.14,29.02 -73.01,50.07 -70.27,33.71 0.39,-2.42 1.33,-8.52 2.03,-13.56 4.65,-27.65 41.8,-57.54 67.07,-72.54 9.06,-5.08 14.65,-10.47 14.65,-10.47 -47.34,-50.58 -72.77,-104.61 -79.14,-158.2 -5.86,-49.8 -10.63,-94.69 -15.31,-140.39 -19.34,-229.41 -117.78,-287.109 -122.43,-298.32 l -1.87,-30.59 -27.46,2.04 -31.68,-27.391 c 103.75,-53.59 164.26,-118.277 163.4,-119.488 82.81,54.218 154.29,114.449 221.79,176.839 l -1.32,510.74 c 0,0 -5.59,-2.07 -7.04,-2.07 -5.11,0.04 -5.78,-2.27 -7.53,-12.03 -0.98,-5.24 -4.11,-10.08 -6.53,-13.52 -4.65,-6.52 -2.97,-3.2 2.85,-5.58 13.28,-5.36 -3.98,-29.73 -22.85,-32.7 -13.59,-2.15 -21.17,-4.65 -23.51,-7.77 -28.6,-25.04 -57.11,-29.03 -78.68,-19.81 -10.62,4.53 -22.14,11.13 -26.05,22.19 -8.87,25.08 9.57,61.21 20.43,82.07 19.84,38.24 52.81,66.99 52.81,66.99 l -5.39,5.86 c 0,0 6.49,-0.12 7.7,0.35 28.43,10.32 30.19,10.47 35.43,18.01 5.23,7.54 18.43,29.06 21.17,36.13 14.61,38.05 16.56,40.51 16.56,65.47 -0.04,20.2 -1.37,33.71 -5.27,34.81 -22.42,-17.19 -45.08,-57.35 -58.32,-81.02 -4.57,35.08 -5.9,96.25 -5.9,96.25 4.73,5.24 31.64,2.31 25.66,46.21 23.71,-10.7 48.67,5.67 47.62,28.48 -1.6,35.51 -28.98,34.45 -51.25,30 10.59,21.44 -9.57,47.3 -29.84,46.01 z m -0.43,-3 c 29.25,-0.9 35.07,-33.25 17.15,-51.57 0,0 -11.65,8.95 -17.82,14.07 -5.86,-4.61 -7.54,-8.6 -13.98,-13.32 -7.62,5.62 -12.23,15.58 -12.31,25.19 0.35,15 15.51,25.98 26.96,25.63 z m -668.91,-0.98 c 118.481,-66.21 267.03,-70.94 403.01,-3.48 l -1.64,-11.21 -14.92,-8.4 8.43,-15.43 4.69,2.23 0.12,-10.23 c -112.11,-60.55 -299.889,-73.05 -446.881,27.5 l 12.781,5.9 c 0,0 2.891,-2 5.66,-3.72 5.352,-3.32 14.219,-8.63 20.039,-11.25 l 8.911,12.82 c 0,0 -13.598,8.28 -12.27,8.83 l 12.07,6.44 z m 10.43,-20.31 -6.762,-15.39 16.992,-9.07 6.45,15.51 -16.68,8.95 z m -64.449,-1.72 c 182.461,-114.53 352.259,-80.43 454.249,-33.59 l 1.33,-12.23 c -131.64,-56.02 -304.72,-71.02 -469.489,39.73 l 13.91,6.09 z m 429.449,-7.38 -16.21,-6.45 6.44,-14.88 16.68,7.11 -6.91,14.22 z m -451.25,-2.78 c 148.281,-95.58 307.27,-114.29 478.63,-44.25 l 6.57,-18.29 c -166.92,-67.03 -343.052,-59.33 -503.95,54.61 l 18.75,7.93 z m 113.91,-0.54 -6.609,-16.02 18.359,-6.95 5.36,15.7 -17.11,7.27 z m 311.79,-6.61 -16.05,-5.19 5,-15.35 16.64,5.66 -5.59,14.88 z m -283.712,-4.41 -3.937,-16.09 18.75,-5.28 3.277,16.18 -18.09,5.19 z m 679.032,-26.48 c 2.5,-27.39 -38.09,-40.63 -53.29,-15.04 l 13.4,16.25 -11.99,11.17 c 16.25,25.7 49.49,13.32 51.88,-12.38 z m -843.872,25.62 44.223,-30.39 -32.109,-49.96 -47.621,31.99 35.507,48.36 z m 766.562,-1.41 28.09,-24.33 -25.78,-30.16 -26.37,26.57 24.06,27.92 z m -17.46,-8.24 -15.78,-18.36 17.07,-18.16 c -20.27,-21.56 -50.51,-8.28 -50.2,18.12 0.24,20.12 31.02,39.73 48.91,18.4 z m -327.42,7.07 -16.88,-5.08 3.83,-14.76 17.46,4.53 -4.41,15.31 z m -227.619,-4.68 -3.121,-15.9 19.371,-4.18 3.277,15.86 -19.527,4.22 z m 199.769,-2.7 -17.97,-3.87 3.08,-15.86 18.01,3.79 -3.12,15.94 z m 374.61,-3.71 -14.81,-14.53 14.81,-15.35 14.92,15.35 -14.92,14.53 z m -543.289,-0.47 -2.262,-16.05 20.27,-2.74 1.601,16.25 -19.609,2.54 z m 136.719,-2.19 -18.24,-2.11 1.84,-15.7 18.94,2.38 -2.54,15.43 z m -107.77,-1.87 -0.23,-16.45 17.769,-1.4 0.039,16.29 -17.578,1.56 z m 78.52,-1.53 -17.891,-0.66 0.109,-15.9 18.242,1.13 -0.46,15.43 z m -326.18,-0.15 c -10.5,0 -19.02,-8.52 -19.02,-19.03 0,-10.54 8.52,-19.06 19.02,-19.06 10.512,0 19.031,8.52 19.031,19.06 0,10.51 -8.519,19.03 -19.031,19.03 z m 296.18,-0.55 -17.54,-0.16 0.071,-16.09 18.09,-0.08 -0.621,16.33 z m 465.82,-0.08 7.69,-7.69 -7.69,-7.62 -7.89,7.62 7.89,7.69 z m -762.039,-6.09 c 6.918,0 12.469,-5.59 12.469,-12.46 0,-6.92 -5.551,-12.54 -12.469,-12.54 -6.91,0 -12.531,5.62 -12.531,12.54 0,6.87 5.621,12.46 12.531,12.46 z m -67.692,-0.94 25.313,-20.58 c -8.051,-15.43 -33.551,-47.97 -33.551,-47.97 l -46.762,37.5 24.45,13.83 c -1.329,-2.58 -2.071,-5.47 -2.071,-8.56 0,-10.35 8.364,-18.71 18.711,-18.71 10.352,0 18.711,8.36 18.711,18.71 0,9.88 -7.73,17.97 -17.461,18.63 l 12.66,7.15 z m -14.14,-13.24 c 6.953,0 12.582,-5.63 12.582,-12.54 0,-6.95 -5.629,-12.54 -12.582,-12.54 -6.918,0 -12.539,5.59 -12.539,12.54 0,6.91 5.621,12.54 12.539,12.54 z m 860.311,-5.94 c 0,0 6.88,-2.61 8.56,-5.19 13.59,-20.82 -0.55,-45.63 -23.32,-45.12 -26.57,0.55 -33.56,33.87 -15.28,47.46 l 14.85,-14.02 15.19,16.87 z m -691.05,-8.47 52.379,-20.08 -19.879,-56.96 -57.269,23.48 24.769,53.56 z m -215.359,-5.94 C 766.879,1580 1070.55,1566.17 1291.25,1693.98 l 13.48,0.28 7.11,-7.31 c -251.45,-148.71 -564.031,-116.33 -775.078,75.04 l 16.359,10.59 z m 588.599,-11.45 16.87,-56.29 -57.97,-15.27 -12.92,57.03 54.02,14.53 z m -610.548,-2.07 c 64.879,-62.5 156.598,-117.3 264.34,-148.36 l 2.648,-23.08 c -114.332,34.37 -200.699,80.23 -284.84,159.8 l 17.852,11.64 z m 251.168,-0.86 c -10.352,0 -18.75,-8.4 -18.75,-18.75 0,-10.31 8.398,-18.67 18.75,-18.67 10.32,0 18.711,8.36 18.711,18.67 0,10.35 -8.391,18.75 -18.711,18.75 z m -93.199,-4.22 54.058,-28.59 -26.949,-53.87 -57.379,30.78 30.27,51.68 z m 92.968,-1.95 c 6.911,0 12.539,-5.62 12.539,-12.58 0,-6.91 -5.628,-12.5 -12.539,-12.5 -6.949,0 -12.578,5.59 -12.578,12.5 0,6.96 5.629,12.58 12.578,12.58 z m 89.493,-7.65 51.918,-7.58 -2.391,-57.54 -60.578,7.26 c 2.301,20.28 11.051,57.86 11.051,57.86 z m 250.858,-1.45 c -10.35,0 -18.75,-8.4 -18.75,-18.71 0,-10.35 8.4,-18.71 18.75,-18.71 10.31,0 18.71,8.36 18.71,18.71 0,10.31 -8.4,18.71 -18.71,18.71 z m -0.23,-6.17 c 6.91,0 12.54,-5.63 12.54,-12.54 0,-6.95 -5.63,-12.54 -12.54,-12.54 -6.96,0 -12.58,5.59 -12.58,12.54 0,6.91 5.62,12.54 12.58,12.54 z m -422.269,-0.78 c -10.313,0 -18.711,-8.4 -18.711,-18.75 0,-10.32 8.398,-18.68 18.711,-18.68 10.348,0 18.711,8.36 18.711,18.68 0,10.35 -8.363,18.75 -18.711,18.75 z m 332.029,-0.08 7.42,-57.85 -56.711,-2.82 -3.32,57.7 52.611,2.97 z m 406.45,-5.2 8.04,0 c 0.75,-49.76 4.69,-107.34 10.43,-149.96 0.9,-6.36 1.29,-8.24 0.63,-9.37 -5.55,-9.85 -12.03,2.58 -14.57,30.86 -0.7,7.81 -1.56,19.18 -2.54,26.64 -2.89,22.54 -1.99,101.83 -1.99,101.83 z m -958.479,-0.86 c -85.27,-53.2 -227.109,-180.27 -226.289,-183.24 l 0.59,-488.28 11.09,-0.55 9.179,17.97 c -14.179,3.56 -10.23,30.2 16.949,35.55 4.61,0.94 18.79,5.7 22.27,8.32 20.629,15.74 54.102,25 77.621,18.83 34.289,-8.79 41.328,-33.99 24.801,-77.82 -13.012,-34.53 -38.75,-78.71 -62.934,-91.28 -1.988,-1.02 -6.25,-3.129 -6.25,-3.129 0,0 5.633,-5.121 7.66,-6.441 66.641,38.511 100.274,176.64 98.473,262.57 2.699,88.01 17.899,176.33 53.399,240.59 58.71,106.17 136.41,148.87 136.019,149.26 0,0 -104.73,63.55 -162.578,117.65 z m 219.769,-0.04 c 6.95,0 12.571,-5.62 12.571,-12.57 0,-6.92 -5.621,-12.5 -12.571,-12.5 -6.921,0 -12.539,5.58 -12.539,12.5 0,6.95 5.618,12.57 12.539,12.57 z m 518,-2.03 20.2,-53.71 -56.21,-23.01 -20.24,56.49 56.25,20.23 z m -323.32,-0.23 c -10.351,0 -18.711,-8.4 -18.711,-18.75 -0.039,-10.31 8.36,-18.67 18.711,-18.67 10.36,0 18.711,8.36 18.711,18.67 0,10.35 -8.351,18.75 -18.711,18.75 z m 114.26,-4.69 c -10.311,0 -18.709,-8.4 -18.709,-18.71 0,-10.35 8.398,-18.67 18.709,-18.67 10.35,0 18.71,8.32 18.71,18.67 0,10.31 -8.36,18.71 -18.71,18.71 z m -114.49,-1.48 c 6.91,0 12.582,-5.63 12.539,-12.58 0,-6.91 -5.629,-12.5 -12.539,-12.5 -6.95,0 -12.578,5.59 -12.578,12.5 0,6.95 5.628,12.58 12.578,12.58 z m 114.26,-4.69 c 6.95,0 12.58,-5.63 12.58,-12.54 0,-6.95 -5.63,-12.54 -12.58,-12.54 -6.92,0 -12.542,5.59 -12.542,12.54 0,6.91 5.622,12.54 12.542,12.54 z m 191.17,-6.37 c -10.35,0 -18.71,-8.4 -18.71,-18.75 0,-10.31 8.36,-18.67 18.71,-18.67 10.35,0 18.71,8.36 18.71,18.67 0,10.35 -8.36,18.75 -18.71,18.75 z m -0.23,-6.17 c 6.95,0 12.57,-5.62 12.57,-12.58 0,-6.91 -5.62,-12.5 -12.57,-12.5 -6.92,0 -12.58,5.59 -12.54,12.5 0,6.96 5.62,12.58 12.54,12.58 z m -397.001,-0.98 56.172,-14.37 -13.082,-58.91 -63.36,16.84 20.27,56.44 z m 710.591,1.53 c 9.18,-28.79 -7.7,-65.67 -8.56,-68.09 -10.19,-28.94 -22.5,-52.62 -26.95,-53.98 -3.79,-1.45 -5.47,-0.51 -5.47,3.04 0.04,5.47 12.54,42.54 22.42,66.37 2.43,5.86 8.01,23.52 8.01,26.49 0.04,4.45 -4.3,-2.82 -8.98,-13.95 -9.03,-22.27 -22.23,-46.09 -25.08,-67.69 -2.03,-17.62 -5.39,-15.16 -7.85,5.85 -3.4,29.15 2.97,44.15 35.74,84.77 7.85,9.73 15.9,19.69 16.72,17.19 z m -412.7,-14.96 16.29,-57.66 -66.33,-11.33 -10.31,58.48 60.35,10.51 z m -277.61,-5.82 c -10.32,0 -18.711,-8.4 -18.711,-18.71 0,-10.36 8.391,-18.72 18.711,-18.72 10.352,0 18.75,8.36 18.75,18.72 0,10.31 -8.398,18.71 -18.75,18.71 z m 99.141,-3.75 60.078,-3.4 0.5,-59.96 -65.149,2.81 4.571,60.55 z m -99.379,-2.43 c 6.957,0 12.578,-5.62 12.578,-12.53 0,-6.96 -5.621,-12.54 -12.578,-12.54 -6.91,0 -12.543,5.58 -12.543,12.54 0,6.91 5.633,12.53 12.543,12.53 z m 252.108,-5.31 c -10.35,0 -18.75,-8.4 -18.75,-18.71 0,-10.35 8.4,-18.67 18.75,-18.67 10.31,0 18.71,8.32 18.71,18.67 0,10.31 -8.4,18.71 -18.71,18.71 z M 950,1667.62 c -10.352,0 -18.711,-8.4 -18.711,-18.71 0,-10.36 8.359,-18.71 18.711,-18.71 10.352,0 18.711,8.35 18.711,18.71 0,10.31 -8.359,18.71 -18.711,18.71 z m 124.3,-1.37 c 6.91,0 12.54,-5.63 12.54,-12.54 0,-6.95 -5.63,-12.54 -12.54,-12.54 -6.96,0 -12.58,5.59 -12.58,12.54 0,6.91 5.62,12.54 12.58,12.54 z m -124.53,-4.8 c 6.949,0 12.57,-5.63 12.57,-12.54 0,-6.96 -5.621,-12.54 -12.57,-12.54 -6.918,0 -12.54,5.58 -12.54,12.54 0,6.91 5.622,12.54 12.54,12.54 z m 409.57,-3.6 c 0.97,0.04 2.3,-0.15 3.16,-0.15 13.4,0.15 58.63,-32.31 70.23,-52 9.61,-17.38 4.65,-24.25 -6.44,-8.75 -15.27,17 -43.48,42.27 -47.07,42.27 -3.87,0 1.44,-5.47 19.41,-23.01 17.82,-17.34 36.6,-40 36.6,-44.02 0,-2.66 -3.55,-2.35 -8.63,0.82 -11.09,6.83 -20.74,13.75 -25.7,18.4 -2.97,2.81 -8.63,7.97 -12.66,11.48 -16.64,14.57 -35.54,48.13 -30.19,54.61 0.23,0.27 0.7,0.35 1.29,0.35 z m -838.012,-4.76 c 11.563,0.35 24.613,-7.04 25.152,-20.51 0.36,-9.49 1.02,-10.24 9.61,-10.39 8.25,-0.16 31.961,-2.97 31.961,-2.97 l 0.148,-26.64 c 0,0 -11.437,0.04 -24.648,0.66 -22.5,1.1 -22.379,1.1 -25.231,-8.75 -1.172,-4.02 -2.769,-5.97 -7.269,-8.9 -20.153,-13.29 -39.641,10.78 -27.102,33.51 4.289,7.78 4.571,10.47 1.563,15.12 -6.024,13.59 2.027,28.2 15.816,28.87 z m 4.922,-13.64 c -2.5,0 -5.199,-1.05 -7.699,-3.55 -3.321,-3.28 -3.352,-12.7 -0.031,-18.17 3.16,-5.23 3.082,-6.64 -0.629,-10.11 -6.52,-6.06 -6.719,-18.13 -0.352,-22.66 5.82,-4.14 11.949,1.33 11.992,9.69 0.039,9.14 6.449,8.98 6.449,8.98 l 42.219,-0.74 0.16,6.91 -30.66,1.53 c -4.258,0 -8.719,0.43 -12,2.65 -3.469,2.39 -7.461,6.61 -3.668,11.68 5.309,7.11 0.59,13.83 -5.781,13.79 z m -91.52,-15.74 20.04,-34.06 23.32,-0.86 2.07,-20.74 28.36,-18.25 -29.071,-17.03 -1.437,-20.86 -22.032,-2.77 -20.468,-25.59 -19.614,25.55 -21.597,-0.12 -0.321,21.41 -29.718,19.14 32.539,18.28 -0.352,24.46 23.082,1.52 15.199,29.92 z m 707.61,-15.51 0.98,-20.58 -32.77,-5.82 4.25,20.97 27.54,5.43 z m -210.11,-20.74 44.219,-1.33 -2.578,-288.75 c 0,0 -8.672,0.04 -10.351,0.08 l -0.2,11.25 -14.14,-0.47 -14.379,8.71 -2.571,270.51 z m -497.5,-7.3 -25.941,-32.82 31.41,-27.42 27.653,32.07 -33.122,28.17 z m 510.782,-4.38 0,-13.32 18.508,0 0,13.32 -18.508,0 z m -510.203,-11.37 18.242,-13.39 -13.903,-18.36 -17.617,15.27 13.278,16.48 z m 707.971,-7.57 -0.58,-158.01 c -60.71,-47.66 -79.61,-131.53 -79.61,-131.53 l -24.69,1.45 62.73,278.4 42.15,9.69 z m -329.139,-3.48 c -54.61,-26.02 -109.692,-45.7 -163.871,-107.7 20.98,-18.86 43.171,-38.12 62.851,-70.31 45.117,6.72 95.32,-1.37 150.078,-22.89 l -49.058,200.9 z m 131.371,-3.56 0,-13.75 18.508,0 0,13.75 -18.508,0 z m -614.141,-19.84 c 1.328,-4.22 1.75,-8.71 1.75,-8.71 40.078,3.36 29.848,-43.13 4.301,-44.73 -2.973,-0.39 2.5,-8.24 8.437,-10.74 15.192,-6.37 26.09,-2.26 36.051,10.98 7.621,10.15 8.09,11.64 8.09,11.64 l 24.73,-13.13 c 0,0 0.7,0.39 -3.679,-10.97 -7.93,-20.63 3.679,-45.94 12.621,-27.5 4.769,9.84 18.789,15.43 28.476,11.36 11.372,-4.76 15.313,-25 7.34,-37.77 -2.418,-3.87 -2.5,-4.69 -1.008,-8.24 2.219,-5.39 3.629,-19.26 1.29,-23.71 -3.051,-5.78 -6.532,-7.11 -13.321,-2.39 -9.34,6.45 -14.57,9.15 -30.789,13.68 -28.512,5.35 -34.101,15.39 -45.43,38.82 -33.781,-10.11 -84.289,11.06 -77.57,61.18 3.078,11.05 3.899,32.3 -1.719,36.64 -11.062,8.51 1.047,20.82 17.688,22.77 13.641,1.37 20.199,-11.56 22.742,-19.18 z m 477.609,14.53 43.95,-183.94 c -48.2,17.65 -95.551,31.44 -137.379,21.21 -19.18,30.58 -35.551,45.66 -56.801,65.51 41.449,49.96 94.102,77.93 150.23,97.22 z m -496.91,-9.02 c -2.808,0.04 -6.019,-1.21 -9.371,-4.18 0,0 2.961,-2.46 4.571,-5.82 2.57,-5.39 2.609,-5.39 -0.321,-17.35 -13.398,-47.92 18.403,-79.6 63.602,-65.78 11.09,3.44 10.66,3.05 13.859,-9.96 5.281,-21.44 20.43,-32.54 50.59,-36.6 1.84,-0.27 4.922,-0.86 7.379,-2.34 13.281,-8.48 7.82,2.77 4.18,7.15 -2.579,3.43 -7.297,6.83 -7.297,6.83 0,0 4.058,2.62 5.937,3.6 8.512,4.53 11.68,22.18 4.641,25.97 -6.399,3.48 -17.301,-1.76 -17.34,-8.32 -0.039,-11.99 -15.16,-13.24 -28.398,-3.28 -16.954,12.77 -1.911,45 -1.832,44.96 l -9.571,4.22 c 1.281,-1.13 -20.16,-31.6 -46.527,-20.98 -18.442,7.43 -31.402,28.75 -22.891,34.85 6.25,1.64 13.707,-1.76 18.438,1.87 9.41,7.39 1.801,20.35 -11.641,19.89 -2.808,-0.12 -9.258,-1.37 -9.258,-1.37 0.7,6.05 2.27,10.31 1.52,16.13 -0.781,5.82 -4.84,10.47 -10.27,10.51 z m 633.629,-13.99 0,-11.32 18.321,-0.12 0,11.33 -18.321,0.11 z m -0.187,-23.36 0,-11.67 18.508,0 0,11.67 -18.508,0 z m 0,-25.15 0,-11.92 18.508,0 0,11.92 -18.508,0 z m 0,-23.44 0,-12.65 18.508,0 0,12.65 -18.508,0 z m 0,-23.55 0,-11.8 18.508,0 0,11.8 -18.508,0 z m 0,-23.99 0,-11.91 18.508,0 0,11.91 -18.508,0 z m -602.5,-11.64 15.617,-26.37 18.519,-0.82 0.743,-18.08 31.519,-24.1 -27.531,-19.69 -2.039,-19.53 -21.828,-0.67 -17.703,-29.84 -21.758,26.17 -17.5,2.81 -1.992,23.83 -26.911,20.12 25.313,20.23 2.027,21.18 20.633,-1.84 22.891,26.6 z m 1025.468,-12.62 c 1.68,-0.03 3.51,-0.5 5.5,-1.48 6.53,-3.32 8.6,-3.71 25.63,-4.57 19.73,-0.98 26.68,-2.73 36.48,-9.26 5.9,-3.94 6.25,-3.94 12.54,0.28 27.7,18.35 59.34,1.64 61.64,-32.54 0.63,-8.99 1.53,-12.62 5.04,-20.16 2.42,-5.2 4.92,-9.34 3.48,-12.66 -4.41,-10.19 -25.78,-10.82 -37.38,4.26 -2.11,2.31 -4.22,3.28 -7.11,3.28 -5.78,-2.15 -20.55,9.5 -20.39,10 -1.37,-8.08 -2.03,-14.53 -3.48,-26.29 l -25.86,0.39 c 0,0 -0.59,4.73 -1.8,21.25 -1.36,19.03 -6.09,24.57 -12.15,14.3 -10.46,-17.65 -38.24,-9.88 -39.84,11.13 -0.55,7.15 -0.94,8.09 -4.84,11.06 -13.09,10.08 -9.3,31.25 2.54,31.01 z m -422.968,-1.01 0,-10.59 18.508,0 0,10.59 -18.508,0 z m 425.938,-11.29 c -5.16,-0.39 -2.23,-9.49 6.28,-14.3 4.81,-2.73 4.81,-2.73 4.18,-11.09 -1.13,-15.2 13.48,-22.66 20,-10.2 1.14,2.15 1.61,4.93 1.14,6.76 -2.7,11.02 21.17,8.01 26.91,-3.4 1.33,-2.61 2.77,-9.61 3.52,-16.64 0.66,-6.68 0.82,-14.41 0.82,-14.41 l 7.65,0 c 0,0 -0.11,4.61 0.35,9.02 1.88,18.87 10.24,30.78 21.49,30.74 4.8,0 4.96,-0.86 1.6,-7.07 -5.66,-10.54 -0.19,-18.16 13.09,-18.24 8.4,-0.04 8.36,-0.08 11.52,-6.05 3.44,-6.57 6.02,-8.64 9.22,-7.43 2.26,0.86 2.3,-0.42 -0.67,22 -4.37,33.4 -23.82,42.38 -50.66,23.47 -7.58,-5.35 -9.22,-5.19 -15.98,1.29 -10.07,9.77 -16.48,12 -36.21,12.74 -9.41,0.35 -18.67,1.25 -20.58,2.03 -1.49,0.62 -2.74,0.82 -3.67,0.78 z m -636.649,-9.57 c -4.41,-0.08 -9.492,-1.02 -13.903,-1.37 4.922,-25.82 7.192,-51.6 9.411,-77.42 22.621,3.95 51.882,0.27 90.472,-17.73 23.707,-11.02 52.617,-29.89 82.969,-51.18 32.809,-23.04 71.289,-36.68 104.06,-43.78 39.92,-8.68 71.99,-7.93 71.1,-6.06 -1.76,-0.27 -14.38,63.32 -12.74,76.91 -55.19,5.08 -108.51,25.51 -149.26,53.21 -53.941,36.68 -116.289,68.55 -182.109,67.42 z m 210.711,-2.15 0,-10.7 18.508,0 0,10.7 -18.508,0 z m -608.133,-2.11 -29.289,-30.58 31.871,-30.2 27.109,30.78 -29.691,30 z m -0.777,-13.87 16.597,-15.93 -13.398,-17 -18.711,16.1 15.512,16.83 z m 413.359,-2.53 c 3.91,0 7.738,-2.78 20.66,-10 10.828,-7.47 19.5,-12.15 16.328,-0.43 2.461,3.39 14.5,-7.62 28.641,-14.54 17.07,-13.67 17.109,-10.35 19.332,-3.55 2.308,4.96 5.43,1.6 19.058,-11.02 17.93,-16.6 16.29,-16.64 19.891,-12.5 4.098,7.74 5.43,7.66 20.039,-9.1 15.149,-16.91 18.36,-20.51 21.602,-13.28 5,3.75 7.578,0.12 28.16,-19.22 10.117,-10.11 12.5,-8.55 14.418,-1.76 1.949,7.04 2.531,5.43 19.609,-8.12 19.801,-15.82 21.75,-16.99 22.571,-11.52 1.33,8.75 7.46,5.62 27.82,-8.99 12.34,-8.83 17.03,-11.29 19.64,-9.1 2.7,4.77 -6.68,13.91 13.21,5.27 l 5.51,-28.9 -6.92,1.99 c -4.22,1.17 -13.51,4.34 -10,-4.69 1.99,-5.19 -3.01,-4.57 -18.48,4.65 -22.14,13.16 -26.25,16.21 -27.89,13.52 -2.93,-9.89 -2.54,-10.51 -17.5,1.17 -17.379,13.2 -20.859,16.83 -23.281,12.34 -0.348,-9.96 -5.188,-7.93 -21.399,6.06 -13.71,11.99 -16.601,18.24 -22.781,9.06 -1.679,-3.16 -3.359,-2.38 -5.621,-0.7 -7.969,5.86 -23.988,22.81 -28.519,27.65 -3.59,3.87 -5.618,2.62 -8.508,-0.58 -2.742,-3.01 -2.973,-2.07 -11.801,6.05 -21.129,19.38 -25.078,24.22 -28.012,21.56 -2.418,-4.53 -0.117,-10.7 -16.328,2.11 -20.351,14.65 -29.211,21.14 -27.851,11.53 -3.469,-4.3 -1.008,-5.12 -21.399,6.13 -19.379,10.7 -21.801,13.94 -24.609,10.27 -1.922,-5.82 -8.403,-3.75 -8.403,-3.4 l -3.949,29.38 7,-0.08 c 0,0 6.68,2.74 9.762,2.74 z m -155.352,-2.47 c -1.558,-4.53 -12.23,-30.74 -12.379,-97.5 1.29,-1.56 26.481,24.11 27.692,48.05 1.168,22.7 -15.274,49.53 -15.313,49.45 z m 350.86,-1.83 0,-12.19 18.511,0 0,12.19 -18.511,0 z m -349.528,-9.65 c 23.547,-37.34 -2.421,-72.54 -8.871,-75.04 0,28.05 4.102,54.45 8.871,75.04 z m 618.159,-31.37 c -38.71,-24.41 -32.46,-90.43 -13.44,-107.34 1.41,0 13.6,71.33 13.44,107.34 z m -5.31,-8.12 -10.43,-85 c -13.52,15 -15.94,59.69 10.43,85 z m 244.22,-14.34 20.43,-25.74 18.2,-1.37 4.02,-18.55 26.57,-21.6 -26.61,-18.05 -2.34,-20.59 -19.76,-1.99 -19.57,-30.78 -19.15,30.16 -18.32,1.99 -0.58,19.76 -28.83,21.29 27.5,16.53 0.55,22.38 21.56,-0.08 16.33,26.64 z m -724.49,-8.08 c -13.008,-61.8 -44.071,-104.07 -87.86,-132.5 l 0.238,-6.25 -73.75,-29.61 C 550.98,1015.59 521.91,942.07 460.98,873.051 L 477.969,838.52 395.59,810.23 513.551,607.93 c 8.129,0 -57.18,-30.899 -135.973,-22.852 49.883,-122.109 60.152,-248.519 32.543,-359.219 l 386.168,1.602 -295.117,579.098 -4.801,9.461 c -4.101,7.531 156.867,-22.661 122.688,-171.961 -0.469,-3.469 0.711,-3.899 2.66,-2.457 31.293,26.878 239.14,101.41 405.121,3.007 L 1076.13,665 c -23.47,-82.148 -50.15,-138.672 -95.11,-188.199 l 7.609,-116.922 c 79.571,65.16 165.941,184.812 177.541,343.832 35.82,17.461 66.99,37.269 100.39,55.98 l 4.46,-1.453 21.6,12.973 c -69.34,75.859 -210.86,148.32 -301.569,167.379 l 5.359,-25.699 c -50.039,13.437 -87.461,16.371 -126.371,20.55 l -5.98,272.069 -50.387,29.69 -1.602,-300.122 C 774.41,934.609 687.77,919.77 687.77,919.77 l 3.871,25.621 -39.692,-8.161 -0.66,25 44.84,12.891 65,275.659 -32.609,8.56 z m 5.429,-6.1 20.742,-4.22 -64.382,-270.309 c 0,0 -36.129,-9.961 -38.36,-8.551 -2.847,50.66 -3.937,153.98 -3.937,153.98 63.508,52.97 73.468,90.43 85.937,129.1 z m -441.84,-19.84 c 9.692,0.12 20.121,-6.95 20.782,-13.32 1.679,-3.91 3.05,-5.59 5.66,-5.94 16.25,-2.26 16.758,-6.56 17.23,-15.94 -2.301,-17.93 9.731,-2.89 13.129,14.96 0.352,1.84 0.149,15.47 0.149,15.47 l 19.89,0.2 c 0,0 0.66,-14.22 0.973,-16.49 1.758,-13.79 7.617,-24.96 11.719,-17.65 13.98,25.11 46.019,12.34 40.937,-11.88 -1.25,-5.74 -1.168,-6.09 2.731,-10.47 6.371,-7.07 8.75,-14.61 6.64,-21.13 -2.07,-6.41 -6.519,-7.34 -16.168,-3.51 -4.492,1.83 -10,2.46 -24.652,2.89 -20.699,0.62 -21.988,1.01 -30.078,8.82 l -5.071,4.93 -8.789,-5.16 c -14.613,-8.59 -27.929,-8.91 -43.402,-0.98 -10.039,5.16 -15.898,17.5 -17.461,36.76 -0.308,10.27 -3.207,17.66 -9.527,20.12 -3.442,3.24 0.39,9.65 6.25,15.51 2.648,1.91 5.82,2.77 9.058,2.81 z m 1159.181,-2.93 -27.31,-34.06 32.47,-29.07 30.27,35.59 -35.43,27.54 z m -632.7,-4.92 37.82,-21.64 4.879,-268.211 -42.769,1.18 0.07,288.671 z m -525.469,-3.71 c -2.851,-0.28 -1.051,-4.93 1.059,-11.96 1.871,-6.29 2.34,-10.23 1.761,-14.61 -4.031,-29.37 29.68,-44.33 54.02,-23.94 6.488,7.42 7.539,6.91 12.93,-1.02 6.679,-8.36 16.41,-11.09 36.757,-9.84 9.301,0.55 15.473,-4.42 19.493,-1.13 2.929,2.11 0.078,7.73 -5.551,10.97 -3.43,1.99 -3.551,2.31 -2.891,9.22 1.723,17.38 -12.609,21.99 -22.808,7.31 -8.403,-12.11 -21.09,-4.11 -25.192,15.93 -2.429,15.39 -4.379,15.16 -6.179,1.72 -1.989,-16.33 -23.508,-34.06 -32.11,-26.01 -2.34,2.38 -2.34,1.79 0.078,10 3.09,10.5 0.633,14.45 -10.859,17.18 -1.867,0.43 -4.059,2 -4.758,3.44 -6.101,9.42 -5.82,12.74 -15.75,12.74 z m 1160.899,-6.25 17.35,-14.97 -15.08,-17.81 -18.48,14.18 16.21,18.6 z m -623.551,-9.57 0,-12.66 16.172,0 0,12.66 -16.172,0 z m 0,-25.51 0,-13.36 16.172,0 0,13.36 -16.172,0 z m 97.461,-15.35 c 18.121,-67.35 36.41,-134.61 54.609,-201.961 17.262,6.879 116.911,51.141 163.911,107.741 -1.8,-0.16 -42.74,39.88 -57.07,65.82 -47,-7.74 -100.982,2.11 -161.45,28.4 z m -97.461,-8.01 0,-12.46 16.172,0 0,12.46 -16.172,0 z m 107.652,-3.4 c 42.859,-12.77 97.699,-30.39 148.209,-21.41 13.05,-23.43 31.91,-42.69 53.16,-60.46 -38.2,-41.57 -93.51,-73.329 -150.701,-97.739 l -50.668,179.609 z m 406.529,-4.84 c 2.15,-0.04 4.33,-0.86 6.44,-2.7 6.76,-6.01 12,-8.12 25.86,-10.39 22.31,-3.63 39.3,-17.54 44.14,-36.13 2.03,-7.78 3.17,-8.21 14.26,-5.43 42.11,10.58 74.53,-24.3 64.53,-70.86 -3.51,-16.29 -4.57,-18.24 0.32,-24.689 10.7,-11.52 13,-11.68 1.28,-21.832 -10.66,-9.578 -31.83,-4.969 -36.32,10.582 -4.3,8.519 -4.22,9.18 -11.29,10.309 -27.46,4.38 -26.33,42.35 -0.43,46.76 2.15,0.35 3.75,-0.08 4.84,0.43 7.34,3.32 -8.01,20.7 -20.7,18.01 -15.55,-3.24 -23.32,-13.24 -29.42,-28.87 l -24.53,13.99 c 6.17,12.69 10.67,29.06 5.35,39.21 -4.33,8.52 -9.8,8.87 -11.44,0.71 -3.95,-19.26 -27.85,-25 -43.56,-9.34 -8.75,8.75 -9.8,18.13 -3.36,30.82 4.18,8.21 4.3,8.79 2.5,12.27 -6.17,12.03 2.19,27.19 11.53,27.15 z m -514.181,-15.67 0,-12.97 16.211,0.08 -0.039,12.89 -16.172,0 z m 517.191,-1.05 c -4.96,-0.04 -4.93,-4.89 -0.36,-10.78 4.11,-4.18 4.89,-6.06 -0.74,-9.65 -7.11,-6.56 -8.63,-16.45 -3.75,-23.99 7.35,-11.32 24.34,-5.04 22.39,8.32 -1.37,9.34 5.97,13.52 17.69,10 16.99,-5.11 25.08,-24.1 18.4,-43.24 -1.25,-3.63 -3.75,-12.03 -3.75,-12.03 l 5,-3.05 c 0,0 5.98,9.5 8.28,12.39 19.34,23.75 65,11.72 59.88,-17.97 -0.78,-9.34 -0.74,-10.59 -10.9,-7.66 -6.71,3.48 -13.24,-3.75 -13.04,-12.77 0.31,-8.13 7.38,-14.61 17.15,-13.32 7.73,1.44 9.68,1.17 9.14,-9.26 0.78,-7.27 3.47,-12.071 8.24,-14.532 11.52,-4.726 17.46,1.801 8.24,11.442 -5.58,5.86 -5.27,14.89 -1.76,23.36 4.22,10.12 2.03,32.39 -4.41,44.96 -9.3,18.09 -35.24,25.67 -56.95,16.64 -9.93,-5.31 -11.02,-6.52 -12,2.78 -5.43,23.08 -22.81,40.51 -44.45,42.07 -8.32,0.58 -16.99,5.15 -22.3,6.29 z m -517.191,-23.6 0,-11.99 16.211,0 0,11.99 -16.211,0 z m 0,-23.39 0,-13.25 16.172,0 0,13.25 -16.172,0 z m 0,-25.79 0,-13.24 c 0,0 8.832,0.28 16.172,0 l 0,13.24 -16.172,0 z m 528.401,-21.21 17.73,-26.17 19.61,-1.33 2.31,-21.13 29.76,-18.55 -25.78,-16.141 -0.2,-20.469 -24.57,-2.07 -21.75,-28.82 -18.48,25.429 -18.52,-0.078 -4.33,22.688 -32.74,16.601 33.6,19.141 -0.94,23.869 22.85,0.16 21.45,26.87 z m -528.401,-3.12 0,-13.56 16.172,0 0,13.56 -16.172,0 z m 0,-24.85 0,-13.39 16.172,0 0,13.39 -16.172,0 z m 518.481,-9.96 -25.4,-33.79 34.22,-28.281 27.19,34.18 -36.01,27.891 z m -518.481,-13.508 0,-14.692 16.172,0 0,14.692 -16.172,0 z m 521.091,-1.801 17.66,-13.633 -12.62,-15.976 -17.54,13.359 12.5,16.25 z m -521.091,-25.352 0,-12.269 16.172,0 0,12.269 -16.172,0 z m -481.598,-1.558 c -31.172,-0.16 -60.711,-50.672 -67.781,-74.61 -8.32,-30.632 -9.57,-86.062 -1.641,-87.621 27.973,20.121 41.211,54.219 62.231,79.731 3.242,-29.5 2.73,-86.449 2.73,-86.449 0,0 -12.422,-6.563 -19.14,-16.872 -4.84,-8.601 -6.36,-18.871 -2.219,-28.441 -15.551,5.039 -43.711,-0.668 -45.321,-29.34 1.02,-40.429 45.122,-34.719 45.321,-34.179 -0.942,0.242 -8.711,-43 30.469,-47.571 14.058,-1.648 38.75,8.59 31.402,47.922 24.726,-4.101 46.058,9.539 46.328,33.328 0.309,16.281 -12.07,30.313 -33.398,30.391 -4.454,0 -13.832,-2 -13.832,-2 0.281,2.351 8.519,27.621 -20.149,45.98 l -4.492,117.032 c 0,0 9.883,-10.821 14.293,-14.883 19.098,-17.539 31.527,-26.41 53.519,-38.008 21.438,-11.25 18.789,-8.481 15.079,12.969 -10.122,32.23 -31.25,56.558 -76.02,86.992 -5.738,3.906 -11.602,5.668 -17.379,5.629 z m 3.078,-2.5 6.289,-165.512 -9.289,0.039 -7.969,165.313 10.969,0.16 z m 918.011,-5.473 c 0.82,0 1.68,0 2.54,-0.078 20.2,-1.719 25.35,-24.262 16.29,-34.301 -3.59,-3.937 -4.81,-4.801 -2.97,-7.219 8.67,-10.98 3.83,-28.32 -4.73,-30.98 -27.22,-8.48 -31.36,6.41 -31.29,23.949 l -42.07,1.563 0.28,24.527 46.37,-0.937 c -3.48,11.128 3.2,23.007 15.58,23.476 z m -937.499,-0.277 c 0.199,0 0.348,0 0.508,0 4.371,-0.391 -0.117,-12.031 -12.309,-29.801 -8.199,-11.988 -19.64,-33.16 -23.039,-41.719 -7.5,-18.672 -12.543,-52.23 -7.543,-46.051 4.531,14.02 4.961,19.84 8.871,29.918 5.11,13.161 29.063,56.372 33.781,60.582 4.071,3.68 5.122,1.411 5,-10.742 -0.191,-27.34 -13.16,-56.168 -44.101,-89.879 -5.149,-5.629 -12.027,-11.757 -12.539,-11.718 -2.969,0 -2.891,6.168 -2.852,19.218 0.242,51.68 19.422,97.852 48.953,117.731 2.297,1.531 4.059,2.351 5.27,2.461 z m 31.328,-2.379 c 13.551,-3.981 37.93,-25.781 47.973,-36.953 11.636,-12.539 27.187,-47.309 24.449,-52.617 -0.902,-2.34 -2.852,-1.993 -9.652,1.839 -43.2,24.289 -74.098,54.258 -66.008,63.938 2.258,2.699 11.558,-2.848 23.98,-14.41 8.438,-7.5 17.071,-15.078 24.809,-22.699 12.109,-11.911 14.84,-13.668 7.539,-0.391 -6.57,11.922 -25.199,31.922 -47.699,48.91 -9.141,6.91 -11.211,12.461 -5.391,12.383 z m 908.831,-6.992 c -0.59,0 -1.1,-0.078 -1.49,-0.27 -8.51,-3.558 -5.04,-14.57 -5.86,-23.051 l -46.72,1.641 -0.27,-6.48 43.83,-2.391 c 0.74,-6.598 -2.7,-20.859 2.97,-23.277 12.22,-5.082 18.94,10.699 8.55,20.199 -3.71,3.277 -7.73,4.758 2.58,9.41 6.76,5.777 7.85,17.109 2.03,22.148 -1.6,1.411 -3.9,2.11 -5.62,2.071 z m -590.741,-1.91 -2.391,-17.309 -27.066,-6.832 -0.703,18.512 30.16,5.629 z m 319.411,-6.141 c 99.96,-26.91 211.13,-88.078 283.32,-157.149 l -14.45,-9.492 c -75,69.301 -173.95,121.883 -264.85,148.012 l -4.02,18.629 z M 828.98,929.73 c 164.649,0.469 314.77,-63.558 435.9,-166.96 l -19.8,-12.461 C 1134.57,841.641 1012.19,902.539 847.5,909.801 739.84,914.57 616.988,886.949 495.941,820.352 l -9.031,16.367 c 117.578,64.101 233.012,92.691 342.07,93.011 z m -12.929,-24.808 64.769,-1.91 -4.019,-60.121 -58.871,1.91 -1.879,60.121 z m -69.641,-4.301 9.102,-58 -56.371,-10.512 -15.981,58.161 63.25,10.351 z m 205,-7.652 64.33,-17.149 -21.252,-59.14 -56.476,16.129 13.398,60.16 z m -103.09,-0.86 c -10.199,0 -18.48,-8.281 -18.48,-18.48 0,-10.231 8.281,-18.469 18.48,-18.469 10.231,0 18.52,8.238 18.52,18.469 0,10.199 -8.289,18.48 -18.52,18.48 z m 0,-6.371 c 6.84,0 12.34,-5.429 12.34,-12.109 0,-6.68 -5.5,-12.149 -12.34,-12.149 -6.8,0 -12.3,5.469 -12.3,12.149 0,6.68 5.5,12.109 12.3,12.109 z m -127.73,-0.117 c -10.238,0 -18.52,-8.281 -18.52,-18.512 0,-10.199 8.282,-18.48 18.52,-18.48 10.191,0 18.469,8.281 18.469,18.48 0,10.231 -8.278,18.512 -18.469,18.512 z m 0,-6.402 c 6.789,0 12.301,-5.391 12.301,-12.11 0,-6.679 -5.512,-12.109 -12.301,-12.109 -6.84,0 -12.352,5.43 -12.352,12.109 0,6.719 5.512,12.11 12.352,12.11 z m 254.68,-7.418 c -10.192,0 -18.469,-8.281 -18.469,-18.52 0,-10.191 8.277,-18.48 18.469,-18.48 10.242,0 18.48,8.289 18.48,18.48 0,10.239 -8.238,18.52 -18.48,18.52 z m -358.508,-2.192 19.058,-56.558 -54.609,-22.153 -20.43,55.942 55.981,22.769 z m 358.508,-4.218 c 6.8,0 12.351,-5.391 12.351,-12.11 0,-6.679 -5.551,-12.109 -12.351,-12.109 -6.79,0 -12.34,5.43 -12.34,12.109 0,6.719 5.55,12.11 12.34,12.11 z m 106.96,-13.551 57.89,-30.59 -29.92,-54.102 -53.99,28.122 26.02,56.57 z m -484.808,-4.93 c -10.231,0 -18.512,-8.238 -18.512,-18.469 0,-10.203 8.281,-18.48 18.512,-18.48 10.199,0 18.476,8.277 18.476,18.48 0,10.231 -8.277,18.469 -18.476,18.469 z m 218.75,-1.75 2.699,-57.148 -51.293,-3.602 -9.34,56.801 57.934,3.949 z m 61.527,-3.012 58.43,-8.089 -13.75,-55 -52.891,8.519 8.211,54.57 z m -280.277,-1.597 c 6.797,0 12.308,-5.43 12.308,-12.11 0,-6.679 -5.511,-12.152 -12.308,-12.152 -6.832,0 -12.344,5.473 -12.344,12.152 0,6.68 5.512,12.11 12.344,12.11 z m 191.449,-7.43 c -10.199,0 -18.48,-8.281 -18.48,-18.473 0,-10.199 8.281,-18.476 18.48,-18.476 10.231,0 18.508,8.277 18.508,18.476 0,10.192 -8.277,18.473 -18.508,18.473 z m -93.359,-2.301 15.109,-55.59 -56.359,-16.128 -17.274,53.476 58.524,18.242 z m 204.609,-0.859 c -10.242,0 -18.519,-8.281 -18.519,-18.512 0,-10.199 8.277,-18.48 18.519,-18.48 10.188,0 18.469,8.281 18.469,18.48 0,10.231 -8.281,18.512 -18.469,18.512 z m -111.25,-3.199 c 6.828,0 12.34,-5.434 12.34,-12.114 0,-6.679 -5.512,-12.148 -12.34,-12.148 -6.801,0 -12.312,5.469 -12.312,12.148 0,6.68 5.511,12.114 12.312,12.114 z m 111.25,-3.211 c 6.789,0 12.301,-5.391 12.301,-12.102 0,-6.679 -5.512,-12.148 -12.301,-12.148 -6.84,0 -12.351,5.469 -12.351,12.148 0,6.711 5.511,12.102 12.351,12.102 z m 197.769,-0.11 c -10.19,0 -18.48,-8.281 -18.48,-18.519 0,-10.192 8.29,-18.473 18.48,-18.473 10.23,0 18.52,8.281 18.52,18.473 0,10.238 -8.29,18.519 -18.52,18.519 z m -100.038,-5.39 56.488,-19.301 -22.54,-52.809 -54.07,20.579 20.122,51.531 z m 100.038,-1.02 c 6.84,0 12.34,-5.39 12.34,-12.109 0,-6.684 -5.5,-12.113 -12.34,-12.113 -6.8,0 -12.3,5.429 -12.3,12.113 0,6.719 5.5,12.109 12.3,12.109 z m -424.839,-1.953 c -10.242,0 -18.52,-8.277 -18.52,-18.519 0,-10.188 8.278,-18.469 18.52,-18.469 10.187,0 18.469,8.281 18.469,18.469 0,10.242 -8.282,18.519 -18.469,18.519 z m 0,-6.406 c 6.789,0 12.301,-5.391 12.301,-12.113 0,-6.68 -5.512,-12.11 -12.301,-12.11 -6.84,0 -12.352,5.43 -12.352,12.11 0,6.722 5.512,12.113 12.352,12.113 z m 342.179,-10.781 c -10.23,0 -18.511,-8.282 -18.511,-18.481 0,-10.23 8.281,-18.512 18.511,-18.512 10.2,0 18.48,8.282 18.48,18.512 0,10.199 -8.28,18.481 -18.48,18.481 z m 0,-6.411 c 6.8,0 12.31,-5.39 12.31,-12.07 0,-6.711 -5.51,-12.14 -12.31,-12.14 -6.83,0 -12.34,5.429 -12.34,12.14 0,6.68 5.51,12.07 12.34,12.07 z m -661.558,-6.402 c 14.769,-0.629 25.859,-13.906 26.527,-27.738 0.5,-10.5 -12.898,-24.219 -12.898,-24.219 l -15.582,14.418 -14.957,-13.789 c -2.5,-0.82 -14.141,18.949 -10.59,29.141 4.609,13.32 14.137,22.73 27.5,22.187 z m 839.688,0 44.73,-36.598 c 0,0 -19.61,-11.96 -23.25,-14.07 0.43,1.57 0.63,3.25 0.63,5 0,10.199 -8.28,18.481 -18.48,18.481 -10.23,0 -18.47,-8.282 -18.47,-18.481 0,-8.75 6.09,-16.129 14.25,-18.039 -4.57,-2.621 -10.7,-6.062 -10.7,-6.062 l -23.59,19.812 34.88,49.957 z m -70.82,-97.848 -19.77,-8.089 c -121.79,80 -288.43,123.75 -478.899,43.199 l -6.531,15.781 c 141.371,58.91 319.769,77.231 505.2,-50.891 z m -10.82,79.961 47.93,-29.421 -30.43,-46.719 -46.8,29.929 29.3,46.211 z m -14.45,-90.632 -20.12,-7.539 C 928.48,764.531 770,759.449 628.441,702.191 l -2.191,13.43 c 166.719,72.149 334.02,49.18 471.02,-39.062 z m 99.72,74.921 c 6.8,0 12.35,-5.39 12.35,-12.07 0,-6.711 -5.55,-12.14 -12.35,-12.14 -6.79,0 -12.34,5.429 -12.34,12.14 0,6.68 5.55,12.11 12.34,12.07 z M 331.949,729.609 315.43,712.93 330.512,695.941 c 0,0 -4.774,-4.031 -8.242,-5.941 -19.809,-10.738 -41.45,6.25 -40.391,24.609 1.48,26.762 33.742,39.532 50.07,15 z m 786.681,12.77 c -10.23,0 -18.47,-8.277 -18.51,-18.508 0,-10.199 8.28,-18.48 18.51,-18.48 10.2,0 18.48,8.281 18.48,18.48 0,10.231 -8.28,18.508 -18.48,18.508 z m -719.759,-0.738 c 14.719,-0.121 26.168,-11.442 27.578,-24.411 1.129,-10.39 -4.301,-20.32 -15.898,-27.39 -15.75,-9.57 -34.071,5.941 -33.75,6.879 l 13.277,13.121 -15.976,16.371 c -0.473,0.309 10.546,15.508 24.769,15.43 z m -46.019,-3.2 27.226,-27.152 -28.828,-26.879 -26.68,26.84 28.282,27.191 z m 718.318,-72.269 -15.31,-7.031 -20.82,12.578 -6.17,-11.84 11.6,-7.34 -12.07,-4.527 c -138.912,78.039 -295.861,55.429 -400.201,3.629 0,0 0.903,8.05 0.981,8.05 l 11.332,5.778 -4.223,14.371 -6.09,-1.75 -0.469,15.89 c 148.981,67.071 318,51.719 441.44,-27.808 z m 47.46,69.808 c 6.8,0 12.35,-5.39 12.31,-12.109 0,-6.68 -5.51,-12.109 -12.31,-12.109 -6.79,0 -12.34,5.429 -12.34,12.109 0,6.719 5.55,12.109 12.34,12.109 z m -766.36,-9.73 -14.54,-14.41 14.461,-15.43 14.098,14.918 -14.019,14.922 z m 454.679,-3.16 -19.019,-0.86 0.98,-15.55 18.59,0.468 -0.551,15.942 z m 12.973,-0.078 0.348,-15.551 17.269,0.078 -0.078,15.352 -17.539,0.121 z m 30.629,-0.282 -0.821,-15.46 17.149,-0.75 1.211,15.359 -17.539,0.851 z m -73.949,-1.992 -19.493,-2.109 2.153,-15.578 18.437,2.148 -1.097,15.539 z m 105.898,-0.187 -1.371,-15.981 17.582,-1.992 2.379,15.231 -18.59,2.742 z m -530.16,-0.082 8.48,-9.02 -8.441,-8.398 -8.981,8.789 8.942,8.629 z m 391.41,-4.77 -18.828,-2.969 2.027,-16.05 18.321,3.629 -1.52,15.39 z m 170.551,0 -3.129,-14.84 17.5,-4.218 2.848,15.199 -17.219,3.859 z M 712.93,709.219 697.109,705 l 3.442,-15.621 16.679,4.062 -4.3,15.778 z m 231.371,-0.629 -3.321,-15.11 17.848,-4.851 3.594,14.492 -18.121,5.469 z m -257.461,-7.539 -16.531,-5.821 4.261,-14.492 16.801,5.672 -4.531,14.641 z M 975,699.41 l -5.512,-14.531 15.473,-6.207 6.801,13.207 L 975,699.41 z m -315.43,-8.512 -15.699,-6.449 6.481,-14.328 14.878,6.758 -5.66,14.019 z m -323.199,-0.429 15.859,-15.86 18.86,16.993 c 16.449,-14.532 16.211,-48.551 -12.93,-54.262 -25.461,-4.961 -48.711,33.129 -21.789,53.129 z m 666.949,-3.09 -6.05,-13.32 17.07,-7.5 5.89,12.82 -16.91,8 z m -486.8,-85.5 215.359,-366.059 -34.07,0.66 -208.43,353.719 27.141,11.68 z m -35.348,-13.949 11.879,-18.52 c -23.321,18.602 -57.582,2.969 -56.141,-20.43 1.141,-10.46 9.969,-16.789 10,-6.75 -1.051,10.5 13.871,19.68 24.692,19.18 19.957,-0.238 32.148,-25.898 18.359,-38.68 -9.063,-8.351 -21.332,-7.96 -17.191,3.481 0.671,3.949 0.351,5.391 -1.52,7.07 -5.738,5.239 -16.289,-1.562 -13.711,-9.019 1.68,-4.922 2.191,-6.141 -3.711,-10.203 -22.848,-16.008 -6.918,-47.649 20.742,-33.239 5.629,2.032 7.93,2.34 10.508,1.371 11.481,-4.461 19.332,5.539 8.442,10.739 -6.372,3.011 -6.532,8.16 -0.399,12.23 13.051,8.75 33.399,-4.89 33.328,-22.351 -0.039,-12.34 -16.328,-21.438 -31.961,-17.848 -9.258,2.109 -10.386,-4.18 -1.867,-10.699 16.481,-12.621 41.129,-2.153 48.508,20.578 2.312,7.148 1.961,8.68 1.961,8.68 l 21.988,-36.29 c 0,0 -6.797,3.2 -10.937,4.45 -20.661,6.332 -43.871,-7.071 -43.942,-25.43 -0.039,-8.629 5.071,-11.949 7.922,-5.199 6.68,15.789 21.141,21.918 36.02,15.277 13.75,-6.168 20.078,-20.078 14.687,-32.539 -5.629,-13.008 -24.527,-16.84 -22.379,-4.527 1.012,5.859 -2.578,9.449 -8.871,8.859 -2.379,-0.23 -5.43,-7.141 -4.609,-10.461 0.742,-3.129 0.191,-3.871 -7.891,-10.199 -19.18,-14.961 -4.418,-39.371 19.57,-32.301 4.024,1.168 5.512,1.051 9.102,-0.672 8.672,-4.179 17.77,-1.558 17.809,5.082 0,4.571 -2.071,6.328 -7.457,6.371 -8.243,0.039 -6.442,9.329 2.66,13.86 22.769,11.41 46.09,-17.379 32.187,-39.801 -5.98,-9.609 -9.73,-10.621 -31.058,-8.281 -3.442,0.39 -5,-1.949 -2.93,-4.77 6.289,-8.937 25.078,-11.75 35.98,-6.828 11.789,5.348 18.981,18.828 19.84,33.199 l 24.059,-42.07 c -18.711,19.57 -51.051,12.07 -56.25,-15.98 -0.039,-7.11 6.449,-10.821 8.711,-4.961 9.73,25.312 46.801,17.543 46.679,-9.797 0,-4.383 -0.859,-6.883 -3.71,-10.742 -6.79,-13.129 -24.18,-16.329 -21.008,-4.571 1.398,3.629 -1.371,7.571 -6.172,8.75 -4.692,1.129 -7.699,-2.82 -7.578,-10 0.078,-5.359 0.109,-7 0.109,-7 -8.672,-3.668 -14.211,-10.82 -16.133,-21.398 L 420.82,235.199 c 20.039,116.91 15.352,222.5 -23.011,322.34 -3.321,8.633 -8.079,21.25 -8.079,21.25 l 29.758,-0.82 c 7.192,-6.207 34.34,-3.789 44.961,5.82 l 16.723,4.141 z m 28.629,-45.899 17.429,-31.332 c -7.23,4.141 -14.57,6.879 -25.781,7.852 5.852,8.679 6.321,16.449 8.352,23.48 z M 463.98,508.75 c 6.372,0 11.489,-5.121 11.489,-11.48 0,-6.329 -5.117,-11.489 -11.489,-11.489 -6.32,0 -11.519,5.16 -11.519,11.489 0,6.359 5.199,11.48 11.519,11.48 z m 120.122,-93.48 16.796,-29.879 c -8.168,3.48 -15.078,6.879 -27.808,7.23 4.64,5.391 8.629,14.488 11.012,22.649 z m -48.364,-31.989 c 6.024,0 10.903,-4.883 10.903,-10.902 0,-6.008 -4.879,-10.859 -10.903,-10.859 -6.008,0 -10.859,4.851 -10.859,10.859 0,6.019 4.851,10.902 10.859,10.902 z M 657.301,290.199 682.07,246.25 c -9.73,5.59 -20.23,12.66 -33.398,11.289 6.289,13.359 9.687,20.66 8.629,32.66 z M 624.34,235.352 597.77,235.27 c 5.32,23.25 26.8,17.191 26.57,0.082 z m 25.148,11.207 c 9.032,-0.469 16.84,-3.547 21.723,-11.438 l -33.441,-0.082 c 0,0 0.242,11.563 11.718,11.52"
         inkscape:connector-curvature="0"
         id="path24"
         style="fill:#000000;fill-opacity:1;fill-rule:nonzero;stroke:none" /></g></g></svg>