<?xml version="1.0" encoding="UTF-8" standalone="no"?>
<!-- Created with Inkscape (http://www.inkscape.org/) -->

<svg
   xmlns:dc="http://purl.org/dc/elements/1.1/"
   xmlns:cc="http://creativecommons.org/ns#"
   xmlns:rdf="http://www.w3.org/1999/02/22-rdf-syntax-ns#"
   xmlns:svg="http://www.w3.org/2000/svg"
   xmlns="http://www.w3.org/2000/svg"
   xmlns:inkscape="http://www.inkscape.org/namespaces/inkscape"
   version="1.1"
   width="225"
   height="315"
   id="svg2"
   xml:space="preserve"><metadata
     id="metadata8"><rdf:RDF><cc:Work
         rdf:about=""><dc:format>image/svg+xml</dc:format><dc:type
           rdf:resource="http://purl.org/dc/dcmitype/StillImage" /></cc:Work></rdf:RDF></metadata><defs
     id="defs6" /><g
     transform="matrix(1.25,0,0,-1.25,0,315)"
     id="g10"><g
       transform="scale(0.1,0.1)"
       id="g12"><path
         d="m 89.1406,2508.38 1615.7394,0 c 47.11,0 85.04,-37.93 85.04,-85.04 l 0,-2324.4103 c 0,-47.1094 -37.93,-85.0391 -85.04,-85.0391 l -1615.7394,0 c -47.1094,0 -85.03904,37.9297 -85.03904,85.0391 l 0,2324.4103 c 0,47.11 37.92964,85.04 85.03904,85.04"
         inkscape:connector-curvature="0"
         id="path14"
         style="fill:#ffffff;fill-opacity:1;fill-rule:nonzero;stroke:none" /><path
         d="m 89.1406,2508.38 1615.7394,0 c 47.11,0 85.04,-37.93 85.04,-85.04 l 0,-2324.4103 c 0,-47.1094 -37.93,-85.0391 -85.04,-85.0391 l -1615.7394,0 c -47.1094,0 -85.03904,37.9297 -85.03904,85.0391 l 0,2324.4103 c 0,47.11 37.92964,85.04 85.03904,85.04 z"
         inkscape:connector-curvature="0"
         id="path16"
         style="fill:none;stroke:#000000;stroke-width:7.9738698;stroke-linecap:butt;stroke-linejoin:miter;stroke-miterlimit:4;stroke-opacity:1;stroke-dasharray:none" /><path
         d="m 821.172,231.512 185.668,338.976 c 0,-0.078 44.96,-17.218 97.54,-30.898 -50.47,-131.481 -0.36,-304.961 -0.36,-304.961 0,0 -283,-2.848 -282.848,-3.117 z M 310.82,810.801 c -10.55,144.07 -10.898,283.249 12.809,398.559 0.473,1.84 -66.328,40.39 -59.41,44.84 10.582,6.76 142.152,75.35 142.152,75.35 0,0 8.859,-5.07 16.52,-4.29 6.019,0.62 11.597,6.05 9.3,11.87 -5.511,13.75 -15.312,47.93 -9.421,82.35 3.359,19.8 14.109,41.56 25.199,54.88 24.801,29.73 81.41,14.02 97.851,14.49 10.469,0.31 42.032,110.74 -8.242,131.25 -13.867,5.63 -45.668,-69.72 -23.558,-86.64 3.32,-2.58 -44.45,25.12 -81.051,41.64 -3.399,1.53 -18.321,13.05 -21.68,28.24 -4.18,18.91 56.051,55.36 44.223,76.72 -17.231,31.1 -61.762,77.62 -80.821,64.85 -18.011,-16.29 -60.98,-49.53 -60.671,-72.27 13.402,-40.78 47.539,-43.63 65.468,-82.23 4.461,-8.32 37.422,-43.36 37.422,-43.36 -12.379,-18.94 7.66,-51.99 8.602,-46.95 l -156.211,68.05 c 0,0 35.82,-269.38 -2,-309.22 -4.02,-4.22 33.437,10.55 34.07,8.24 11.399,-14.41 137.539,-94.61 173.668,-123.4 64.102,89.42 87.539,128.75 170.191,208.09 18.129,14.96 58.598,42.34 81.719,75.27 18.563,26.41 26.25,56.17 22.93,79.3 -4.289,29.88 -6.988,50.31 -25.43,74.14 -42.609,55 -110.39,107.5 -109.179,108.44 l 23.171,18.83 c 0,0 83.59,-69.11 118.981,-119.93 23.867,-34.25 13.168,-73.51 33.707,-80.54 4.961,-1.68 38.75,1.13 49.851,-1.02 1.321,-0.23 245.9,-172.85 201.56,-182.77 -61.368,-13.79 -159.302,-4.81 -159.302,-4.81 -69.879,68.21 -103.59,90.63 -145.269,69.26 0,0 -105.547,-92.3 -166.489,-164.57 -34.679,-41.21 -63.671,-92.73 -86.91,-125.9 -8.949,-12.77 -121.019,94.89 -119.879,81.99 16.637,-117.22 26.129,-258.39 13.239,-354.14 -8.828,-81.281 -20.942,-168.629 -26.371,-243.629 0,0 18.832,5.469 33.171,0.391 7.731,-2.774 13.391,-9.961 14.059,-17.934 4.18,-35.699 -41.801,-27.418 -42.848,-24.328 0.039,0.039 25.661,-55.082 25.661,-55.082 0,0 -39.84,-68.668 -38.75,-65.668 0.699,1.84 -36.172,60.942 -36.172,60.942 0,0 27.968,49.418 31.48,59.726 2.11,6.172 -40.39,-20.469 -43.672,18.082 -3.277,38.871 46.41,28.442 44.184,23.68 -6.012,79.68 -19.371,162.07 -27.852,229.211 z m 598.828,-179.25 c 1.133,0.82 -105.668,42.808 -203.789,38.859 -34.57,13.442 -90.937,27.539 -128.558,2.469 -42.301,28.633 -78.821,60.152 -115.973,91.402 10.434,0.117 49.332,250.469 74.801,337.699 -11.359,108.32 93.051,108.24 102.109,21.48 112.5,-116.25 250.203,-236.519 392.192,-354.8 -22.62,-46.84 -104.102,-82.539 -120.782,-137.109 z m 245.942,766.329 c -128.25,130.7 -396.61,364.33 -396.61,364.33 l 125.629,122.58 c 65.942,-19.65 133.711,-36.09 210.311,-36.84 0.31,-0.31 83.95,-38.04 128.56,0.08 l 115.93,-91.83 c 0,0 -48.08,-252.9 -76.32,-341.14 0.58,-34.96 -12.62,-77.54 -47.19,-83.86 -29.49,-5.4 -52.19,36.4 -60.31,66.68 z m 259.18,302.73 c 13.39,82.23 16.13,142.07 25.43,237.97 -57.86,-16.95 -57.08,60.97 -0.24,40.51 l -26.37,58 39.03,65.32 35.78,-62.03 -30.82,-55 c 64.1,-3.17 48.63,-62.62 -6.56,-48.29 10.43,-91.87 33.32,-184.68 32.22,-275.5 19.81,-145.67 -24.41,-348.36 -17.11,-353.17 l 62.5,-42.97 -10.66,-316.911 -98.67,43.199 -29.38,-19.758 c 9.42,-18.679 21.41,-36.57 25.47,-56.8 0,0 67.97,-55.899 58.52,-73.282 4.37,-2.578 -48.36,-72.347 -63.83,-70.628 -29.57,3.32 -64.1,41.449 -73.56,68.601 -8.36,27.301 61.02,54.059 52.27,74.02 -10.47,23.91 -36.91,35.39 -60.31,42.418 -32.27,9.652 -47.07,35.203 -48.56,35.203 0,0 -12.54,-101.293 -24.61,-93.211 -48.59,32.578 -15.35,135.979 -6.33,133.089 0,0 21.22,-4.88 46.29,-7.23 88.32,-9.25 82.35,99.3 65.24,151.84 -4.3,12.46 2.42,12.54 1.91,12.7 -4.1,1.4 14.3,0.39 29.92,5 42.89,12.61 108.6,56.25 108.6,56.25 -69.06,38.24 -130,81.91 -184.65,123.32 0,0 -50.74,-86.57 -110.9,-146.61 -43.83,-43.71 -50.94,-58.59 -124.22,-114.84 -1.44,-1.09 -55.55,-65.78 -29.76,-141.289 22.03,-64.609 128.04,-134.57 127.26,-139.222 l -20.9,-19.918 c 0.86,-1.172 -150.04,93.519 -146.52,195.389 -0.16,3.87 -68.551,5.2 -68.551,5.2 l -198.828,184.14 168.43,0.7 86.488,-70.59 54.021,-2.77 c 3.52,-3.12 5.47,14.26 53.09,49.73 90.9,67.77 203.55,241.83 203.55,241.83 0,0 119.1,-83.75 119.22,-83.75 -5.94,125.75 -26.21,260.98 -13.9,369.34 z m -433.719,594.26 c 0,0 -123.75,-232.35 -191.641,-341.8 l -96.129,27.54 c 40.27,106.87 1.719,310.55 -8.441,315.66"
         inkscape:connector-curvature="0"
         id="path18"
         style="fill:#e2cf00;fill-opacity:1;fill-rule:nonzero;stroke:none" /><path
         d="m 242.621,2308.42 7.301,-2092.498 1299.298,0.816 -3.75,2091.682 -1302.849,0 z M 1145.66,792.051 c 61.61,57.23 122.58,104.5 179.61,138.828 22.11,13.32 28.79,15.281 37.5,7.391 14.14,-12.891 22.97,-24.11 18.36,-33.129 -1.05,-2.032 -4.41,-5.391 -4.41,-5.391 l -34.02,12.93 11.01,-38.59 c -30.62,-12.5 -30.08,-45.629 -0.51,-63.168 l -20.35,-46.832 47.31,20.82 c 1.79,-10.199 35.54,-34.89 56.52,0 l 42.7,-20.859 -14.73,52.301 c 14.06,13.359 22.23,34.687 0.15,54.378 l 10.16,40.969 -38.55,-12.57 c -9.69,13.199 -15.28,12.301 -17.5,15.891 -0.67,4.929 -0.79,16.41 -7.23,26.96 -5.27,8.75 -11.37,18.04 -17.03,24.532 -3.01,5.078 -0.59,5.508 14.8,13.867 7.23,3.902 13.21,7.851 13.21,7.851 0,0 75.93,-38.089 106.91,-52.582 l 1.76,-701.097 -416.41,1.219 c -46.83,139.761 -13.2,260.539 -0.78,311.359 -21.84,1.84 -134.449,38.281 -137.851,50.859 44.651,70.821 105.191,135.242 169.371,194.063 z M 335.391,588.07 c -54.34,17.539 -54.879,-47.851 -27.11,-52.929 7.188,-1.332 14.688,-2.379 25.938,1.25 2.812,-0.59 -32.539,-54.84 -32.539,-54.84 0,0 28.281,-51.371 41.84,-73.172 l 42.769,75.859 -27.969,52.5 c 43.789,-22.297 66.45,44.102 20.508,52.813 -11.129,1.488 -23.398,-4.063 -23.398,-4.063 l 24.179,227.231 c 19.493,-13.239 55.039,-39.77 55.039,-39.77 8.082,-125.187 2.153,-229.527 72.153,-411.679 l 0.738,-126.719 -240.348,0 -0.941,661.648 42.07,-30.078 c 0.899,-3.75 -6.718,-1.25 -2.621,-47.269 3.711,-41.602 16.371,-113.75 29.692,-230.782 z m 862.969,1700.9 c 1.91,-2.7 1.8,-6.88 3.44,-12.38 9.72,-32.39 43.55,-71.33 70.5,-81.53 9.42,-3.59 13.09,-9.02 7.66,-14.49 -6.91,-6.87 -35.31,11.95 -56.29,36.37 -19.02,22.19 -31.76,40.51 -34.57,54.45 -1.64,8.24 -2.5,13.56 -1.25,17.85 3.48,4.85 7.81,3.48 10.51,-0.27 z m 33.59,3.51 c 3.6,0 8.36,-4.18 11.25,-11.79 6.92,-18.36 17.78,-32.07 34.73,-43.95 4.53,-3.16 6.29,-7.85 4.02,-10.62 -0.86,-1.02 -1.95,-1.53 -3.2,-1.88 -13.24,-3.67 -48.09,36.6 -50.86,61.64 -0.59,5.43 1.33,6.6 4.06,6.6 z m 43.36,-0.5 c 7.07,0.04 10.43,-14.65 6.37,-22.35 -2.66,-2.42 -8.52,1.33 -13.71,10.98 -4.42,8.28 -2.66,11.33 7.34,11.37 z m -23.55,-0.24 c 1.56,0.08 4.8,0.9 6.48,-1.4 2.7,-15.16 14.14,-26.14 23.28,-34.93 1.53,-2.89 2.23,-8.9 -1.09,-10.46 -8.01,-3.56 -32.11,23.82 -32.27,39.64 -0.04,4.77 1.41,7.11 3.6,7.15 z m -30.59,-9.61 c 8.48,-27.69 28.91,-50.27 47.19,-61.99 13.09,-8.36 18.16,-13.09 12.07,-17.34 -1.48,-1.06 -3.01,-1.84 -3.36,-1.8 -30.66,11.72 -68.32,56.05 -69.57,87.46 6.64,8.56 12.54,-1.01 13.67,-6.33 z m -106.01,-120.19 c -16.14,-0.04 -35.86,-3.71 -51.88,-10.98 -22.3,-10.12 -27.89,-16.83 -24.65,-19.3 2.35,-1.71 16.68,4.46 23.91,5.39 38.83,9.61 65.55,11.96 90.86,0.94 19.53,-8.51 19.65,-4.61 6.52,9.57 -9.53,10.32 -26.52,14.38 -44.76,14.38 z m 136.87,-21.29 c 12.85,0.12 25.98,-2.89 30.63,-8.87 3.63,-19.41 -6.06,-10.55 -13.87,-6.68 -11.25,5.2 -24.18,9.69 -36.21,7.85 -7.78,-1.17 -7.97,-0.78 -3.6,1.68 6.64,4.03 16.02,5.9 23.05,6.02 z m -152.23,-7.58 c -36.71,-2.85 -49.45,-21.41 -73.16,-40.55 -9.73,-7.42 -7.5,-13.16 4.34,-11.21 14.68,2.39 20.58,1.84 40.54,-5 21.84,-7.46 37.46,-10.54 49.46,-5.93 22.69,8.71 20.74,7.26 -11.68,-24.11 -17.35,-13.94 -10.35,-13.2 7.22,-1.17 13.01,10.39 21.92,16.99 24.65,22.7 1.29,2.73 1.41,12.65 3.87,12.65 8.24,0 3.98,10.28 -3.52,14.65 -4.92,3.52 -3.82,7.19 2.58,13.91 10,10.54 6.6,15.31 -4.3,8.75 -1.91,-1.06 -2.85,2.19 -9.49,6.17 -10.47,6.33 -19.33,9.3 -30.51,9.14 z m 26.49,-13.75 c 8.87,-7.5 5.08,-9.57 -14.3,-9.37 -16.37,0.15 -30.31,-1.57 -49.76,-8.01 -22.07,-7.31 -23.44,-7.5 -10.47,3.55 17.85,15.2 54.1,30.43 74.53,13.83 z m 114.73,6.45 c 8.9,0.19 16.4,-1.1 23.2,-4.85 18.51,-10.19 22.62,-19.02 2.03,-11.79 -12.93,4.49 -30.39,3.86 -42.42,0.5 -12.46,-3.43 -14.61,-4.65 -12.93,2.07 2.07,8.25 15.27,13.71 30.12,14.07 z m -145.51,-30.12 c 4.37,-21.95 21.05,-14.77 22.69,-1.52 l 6.1,0 c -2.58,-17.66 -26.6,-32.43 -35.94,1.52 1.95,0.08 10.7,-0.55 7.15,0 z m 132.97,-0.35 4.53,0.15 c 2.97,-16.87 18.63,-22.38 25.43,-1.29 l 5.47,-0.11 c -4.18,-35.16 -41.37,-18.05 -35.43,1.25 z m -145.75,-1.64 c 3.01,-1.06 4.42,-9.3 3.91,-11.49 -1.05,-4.49 -15.78,0.28 -18.91,4.69 3.09,3.28 10.36,8.44 15,6.8 z m 200.2,-3.75 -0.04,-6.18 c -6.8,-1.6 -9.61,-5.43 -15.94,-4.18 0.35,3.95 -0.31,9.34 3.36,13.95 4.65,2.42 10.16,-0.59 12.62,-3.59 z m -148.24,-7.11 c -3.09,-2.42 -7.31,-2.7 -7.31,-2.7 -0.66,5.9 -1.68,12.5 5.67,12.58 4.84,-1.41 4.49,-7.38 1.64,-9.88 z m 84.76,9.76 c 2.62,-0.19 5.63,-6.6 5.98,-10.35 -0.74,-6.13 -15.9,-3.71 -15.9,2.42 0,2.58 6.33,7.93 9.92,7.93 z m -138.47,-232.73 c -11.68,5.82 -100.281,59.65 -122.968,154.84 l -4.492,-9.72 c 9.601,-22.78 23.781,-59.81 23.781,-59.81 -0.582,3.2 3.64,-24.8 12.66,-72.3 -4.801,-0.08 -10.082,1.29 -15.27,2.69 -11.679,43.48 -14.461,77.58 -24.261,120.16 l -4.301,-11.88 c 0,0 12.351,-76.4 20.711,-106.25 -4.77,0.43 -13.559,2.42 -13.559,2.42 -6.992,32.23 -12.34,53.83 -18.902,86.14 l -6.059,-7.82 c 8.668,-26.52 12.032,-50.23 16.41,-75.62 -5.941,0.9 -11.921,1.45 -17.582,4.61 0,0 -8.949,46.33 -10.117,47.03 -3.441,-3.44 -4.801,-7.85 -4.801,-7.85 -0.39,0.39 7.731,-25.7 7.149,-36.45 -5.707,0.94 -15.551,3.79 -22.5,6.14 -3.641,-2.43 -5.551,-6.49 -8.359,-10.08 3.429,-14.77 206.68,-46.68 194.49,-34.49 -0.08,-1.25 89.65,-39.26 139.69,-7 0,0 87.07,-64.53 121.05,-90.31 0,-2.97 11.8,-16.64 24.06,-25.31 l 34.46,-26.56 c 10.03,-7.78 14.02,-2.15 15.54,12.5 1.68,16.32 13.56,126.29 16.33,149.72 10.35,78.99 10.31,78.17 -1.68,74.53 -18.32,-5.58 -34.84,1.64 -34.84,20.39 0,11.49 5.31,21.02 17.54,25.43 3.47,1.22 8,1.33 13.2,1.22 2.38,-0.43 6.76,-0.71 7.23,-0.82 5.86,0.35 -22.62,51.87 -22.62,51.87 0,0 27.19,48.44 40.27,66.52 l 35.2,-63.79 -28.83,-56.28 c 56.13,4.21 50.66,-66.33 -4.3,-42.7 0,0 -0.31,-20.98 -0.23,-19.45 0.54,6.01 0.47,11.13 2.34,12.26 53.24,-20.15 64.1,57.46 6.72,53.91 9.45,16.44 19.96,33.44 29.77,51.6 l -41.45,75.59 -46.87,-77.93 23.59,-48.68 c -5.31,1.37 -9.57,0.55 -15.23,-0.03 -34.73,-7.11 -27.27,-63.01 12.42,-55.32 4.53,0.86 11.33,4.3 11.33,4.3 l -25.63,-228.28 c 0,0 -2.5,-2.03 -12.81,5.35 -11.88,8.56 -36.72,27.15 -38.32,29.06 8.9,145.94 -27.62,299.5 -69.3,395.67 -2.66,7.34 -1.09,152.15 -1.09,152.15 l 236.36,-0.63 0.9,-672.46 c -12.38,7.85 -25.74,18.12 -38.43,27.11 -3.83,3.08 -6.18,6.72 -4.54,12.62 -4.18,-8.95 -1.68,-12.78 -1.68,-12.78 l 52.19,-41.72 -2.07,-661.789 c 0,0 -84.26,43.429 -136.13,64.369 -23.4,9.57 -24.45,6.8 -24.45,6.8 0.07,0.04 16.56,-37.111 11.83,-43.829 11.17,-10.7 29.92,-33.121 30.82,-55.082 10,-8.668 12.77,-9.719 20.27,-22.18 l 31.33,11.32 -7.11,-32.609 c 33.28,-23.32 1.21,-54.649 -4.96,-51.801 0,0 14.69,-31.488 18.05,-45.859 -5.23,0.351 -31.6,14.691 -38.95,18.05 -19.1,-37.582 -51.36,-6.058 -51.64,-0.511 l -35.78,-15.938 12.66,40.739 c -23.05,14.031 -38.6,35.242 -1.33,58.05 l -8.63,31.758 30.66,-12.027 c 0,0 5.7,9.179 10.08,15.859 -11.48,49.918 -86.84,40.5 -111.05,85.391 0,0 -5.94,-56.063 -12.04,-76.332 -2.38,-53.59 -39.96,0.621 -39.96,57.301 0,12.82 16.1,55.9 21.57,57.97 5.66,0.82 59.45,-25.19 95.58,0.63 16.45,17.11 44.85,65.23 17.58,140.58 -9.02,17.43 17.15,19.61 25.62,13.75 0,0 78.64,41.14 114.15,60.94 -59.57,32.7 -183.36,119.77 -183.29,123.87 -16.52,-26.21 -35.43,-48.21 -62.03,-85.28 -43.12,-50.78 -76.79,-98.98 -131.52,-139.57 -76.95,-56.01 -95,-112.42 -73.56,-178.59 8.68,-28.629 26.18,-57.66 54.81,-67.691 14.57,-14.731 73.09,-70.117 73.09,-70.117 -97.7,-88.953 -164.77,-162.114 -211.841,-242.973 39.731,-20.898 135.511,-51.129 135.511,-51.129 -35.59,-118.211 -19.38,-212.109 4.06,-306.371 0,0 -278.008,-0.348 -422.27,4.18 -1.25,-1.207 -16.832,-0.391 -17.031,0.582 -0.578,10.551 25.98,39.539 33.91,35.469 3.981,3.949 12.461,5.941 10.941,10.781 -19.929,2.39 -50.121,-31.992 -51.289,-46.25 l -11.882,0 c -2.457,2.148 21.531,58.09 69.57,62.578 -0.508,-2.027 6.449,4.34 1.25,7.07 -56.008,-6.64 -82.109,-68.789 -80.43,-69.648 l -8.668,0 c 19.059,61.14 68.629,80.429 97.34,83.09 0.277,0.121 9.301,3.238 6.879,8.589 -63.441,-11.011 -95.039,-38.429 -110.27,-91.679 l -11.449,0 c 8.239,53.988 63.75,101.25 126.52,99.73 1.961,1.25 4.379,2.699 3.359,8.867 -69.64,-7.847 -104.371,-31.097 -133,-90.937 -25.59,66.449 -96.719,97.969 -97.582,98.238 0,0 -1.719,18.602 2.262,17.821 60.711,-21.961 83.871,30.742 81.332,61.32 -1.402,17.039 -0.473,26.449 -6.172,50.98 -5.078,21.91 -8.828,36.641 -8.441,46.168 0.39,9.422 3.363,11.293 10.32,14.461 13,5.891 21.133,27.223 18.242,29.84 -6.68,-15.508 -24.34,-18.199 -32.5,-28.629 -6.492,-8.601 -3.641,-22.269 7.969,-69.808 7.031,-28.942 -1.328,-15.622 -17.781,-6.563 l -11.008,6.211 c 7.379,-7.578 15.187,-14.73 22.687,-22.148 6.723,-6.133 2.973,-9.922 -6.679,-6.372 -13.899,6.918 -40.618,4.032 -50.899,-4.679 -3.98,-2.852 -5.39,-2.582 -6.398,0.039 -4.492,73.82 3.277,119.211 27.687,174.64 15.821,37.7 39.34,65.942 70.711,67.93 31.641,2.621 77.11,-8.43 118.391,-36.48 48.48,-32.93 95.75,-83.008 100.75,-144.45 0.187,-0.75 3.75,5.231 5.347,8.399 2.223,7.301 -5.859,29.211 -18.519,54.641 -2.301,19.14 -8.899,52.699 -14.059,75.39 3.91,1.762 12.301,0.789 14.649,-2.109 8.871,-37.5 15.191,-66.711 22.812,-116.949 0.117,-4.922 6.41,7.269 6.41,10.468 -1.101,7.5 -22.031,105.86 -21.601,103.629 0.109,3.321 19.879,-1.051 17.14,-4.179 0,0 15.04,-82.5 16.098,-79.918 l 5.082,6.988 c 0,0 -14.34,60.238 -12.539,71.879 1.207,1.761 12.34,-1.84 15.859,-3.75 4.411,-5.938 7.219,-27.418 9.098,-42.071 5.121,-3.91 6.133,7.34 5.742,10.352 -3.672,5.82 -7.582,27.621 -4.648,28.711 2.269,0.898 15,-4.18 17.457,-6.332 2.851,-2.578 13.949,12.781 11.141,15.473 -60.04,22.968 -135.79,36.41 -192.782,37.308 -13.277,-0.039 -18.508,1.789 -38.828,9.141 -51.75,18.668 -94.531,0.078 -100.781,-5.821 -63.16,43.899 -133.707,105.192 -189.84,144.29 -2.617,1.761 -8.949,2.82 -9.609,2.82 -8.91,-68.129 -15.16,-146.918 -22.731,-209.731 -3.09,-24.879 -3.437,-26.839 -2.308,-27.539 0.98,-0.621 2.929,0.391 3.711,0.782 18.476,6.796 35.16,2.378 43.988,-14.301 4.449,-23.86 -16.41,-39.571 -38.399,-28.242 -8.211,4.179 -9.382,3.363 -5.632,-4.571 6.453,-14.328 25,-52.066 25,-52.066 0.043,0 -25.079,-51.211 -37.77,-65.121 -12.379,19.969 -28.16,40.199 -35,62 9.731,19.019 28.082,43.551 33.871,62.301 -0.82,0.589 -5.82,0.078 -9.301,-1.762 -32.109,-15.149 -37.269,13.441 -36.839,23.711 0.859,20.898 19.07,25.359 45.511,15.59 -28.59,189.879 -34.691,298.05 -27.383,286.328 0,0 -34.488,24.691 -51.679,41.441 l -1.52,1382.66 413,-0.62 c 42.071,-112.86 30.512,-248.6 5.321,-319.26 44.718,-8.21 89.839,-18.75 140.859,-48.01 -86.18,-126.37 -221.449,-262.89 -367.969,-350.31 -8.32,-3.75 -35.59,13.28 -38.789,30.08 -0.742,3.9 1.399,11.6 5.82,11.44 10.739,-3.48 21.168,-8.28 31.68,-12.58 0,0 -14.652,36.76 -7.582,42.35 4.609,3 8.359,5.54 11.332,8.63 10.508,13.59 9.649,29.02 -1.492,40.86 -4.449,4.69 -9.68,7.93 -12.301,9.14 0,0 10.313,28.63 15.512,42.15 l -40.668,-13.44 c -13.16,18.24 -37.383,32.46 -55.274,5.27 -3.398,-7.22 -2.699,-6.13 -27.886,5 -14.262,6.33 -23.051,9.57 -23.051,9.57 5.348,-15.93 12.34,-30.89 18.48,-49.33 -28.011,-17.85 -21.64,-47.97 1.95,-56.96 l -12.422,-40.7 c 0,0 26.48,9.88 40.82,13.71 0,0 12.621,-12.65 16.332,-24.65 6.399,-20.62 20.93,-35.58 30.149,-44.1 -15.309,-11.21 -22.891,-15 -40.149,-23.28 l 59.57,-24.06 c -3.711,12.58 -11.601,21.91 -12.39,37.85 -0.699,13.63 -1.481,13.91 -10.313,23.13 -14.41,12.42 -16.597,29.1 -24.687,42.69 -5.66,3.4 -10.153,10.24 -14.371,17.97 -9.059,-0.86 -29.532,-11.06 -33.442,-7.38 -4.718,5.07 8.282,31.05 6.84,33.63 -10.469,0.9 -39.769,23.71 -4.879,49.14 l -11.14,41.37 c 0,0 26.562,-11.6 39.3,-18.13 8.832,41.33 49.141,21.53 55.661,3.71 0,0 31.96,10.51 29.96,1.96 -0.89,-7.62 -6.05,-26.72 -6.05,-26.72 28.711,-25.43 22.769,-37.93 -0.59,-54.61 -0.352,-13.48 5.32,-34.45 5.32,-34.45 0,0 -16.25,7.22 -26.961,10.23 -4.289,-4.26 -9.14,-12.03 -8.32,-16.02 7.23,-32.14 46.883,-41.09 105.633,-73.94 2.027,20.78 16.367,49.18 17.968,74.1 1.008,18.16 1.641,18.44 14.45,12.66 33.629,-24.34 23.359,-91.14 11.09,-118.56 -7.258,-15.51 -8.43,-15.12 -22.571,-10.58 -19.57,6.21 -54.148,3.71 -73.168,-2.74 -26.293,-10.78 -38.711,-69.45 -38.98,-87.3 -0.473,-16.92 0.82,-33.71 9.719,-54.65 3.679,-13.4 -3.079,-23.71 -15.149,-20.12 -2.742,0.78 -9.18,3.24 -9.18,3.24 l -113.562,-58.71 21.41,-12.58 c 0,0 -15.777,9.38 -6.019,14.5 l 97.39,50.82 c 18.121,-7.07 15.699,-8.52 27.461,3.71 7.027,7.26 10.508,7.42 19.918,6.48 57.422,-5.51 82.852,2.85 92.77,26.92 1.492,3.63 0.902,3.47 6.761,6.44 10.86,4.22 15.981,11.88 16.52,21.45 0.359,6.29 3.09,7.15 7.89,11.56 8.911,8.16 10.75,18.48 5.122,29.02 -2.653,4.96 -4.692,6.53 -3.59,11.72 1.828,8.63 -1.332,17.62 -9.653,27.15 -9.57,10.94 -9.488,9.1 8.512,25.86 35.359,33.59 66.488,59.34 100.859,89.73 23.559,20.82 21.02,19.29 30.161,9.8 33.711,-35.04 46.91,-89.69 31.718,-137.69 -0.699,-2.27 -1.019,-2.04 0.743,0 9.527,10.78 9.808,65.15 1.679,89.25 -9.961,29.65 -19.57,45.08 -52.422,74.07 -20.468,18.51 -76.289,71.95 -76.289,71.95 81.168,70.39 168.59,157.89 217.621,238.36 -25.16,26.95 -141.761,51.83 -141.761,51.83 14.492,30.12 43.199,165.43 -5.942,315.43 l 418.992,-4.84 14.92,-1.02 c 0,0 2.22,0.86 3.44,1.18 4.02,1.05 6.01,-1.76 5.04,-6.25 -3.09,-11.45 -19.89,-38.29 -31.72,-36.06 -5.32,2.07 -3.83,-8.08 -6.18,-12.34 18.68,2.42 40.59,26.13 46.1,49.57 3.01,4.96 4.96,5.78 7.97,4.8 3.43,-1.09 2.57,-4.37 -1.17,-15.7 -11.68,-28.4 -35.43,-54.77 -63.01,-52.15 l -3.6,-9.69 c 37.23,0.59 66.02,35.51 74.5,61.61 5.93,15.5 6.17,17.61 12.14,16.09 4.93,-4.57 1.88,-11.09 0.2,-16.52 -18.71,-59.77 -70.08,-75.75 -95.66,-73.13 -3.09,0.39 -3.64,-2.5 -2.7,-7.42 54.96,-3.63 98.75,43.71 104.92,84.33 3.05,11.29 8.24,15.16 11.29,10 1.68,-4.57 1.13,-9.18 0.27,-13.51 -15,-64.14 -83.39,-100.59 -125.19,-90.2 -1.92,1.84 -5.08,-7.03 -0.51,-10.19 84.34,3.16 110.39,46.68 129.61,85.15 22.97,-34.6 41.72,-70.31 96.72,-91.28 0,0 5.47,-12.07 1.17,-14.81 -2.3,-1.41 -5.78,-0.74 -10.82,0.08 -67.03,10.82 -89.18,-51.84 -60.66,-145.43 7.81,-25.63 4.29,-21.68 -12.39,-37.74 -7.96,-7.65 -11.75,-21.17 -9.64,-21.48 2.85,1.6 3.78,5.98 10.74,11.76 3.04,2.5 9.26,4.92 13.86,8.08 12.39,7.19 12.31,12.11 7.86,29.11 -3.32,12.65 -11.76,51.09 -11.76,54.96 -0.04,7.38 1.72,6.6 10.94,0 12.85,-9.53 20.15,-8.83 4.57,3.36 -6.02,4.76 -9.93,8.43 -11.76,11.09 -2.46,3.59 -0.94,5.94 4.1,4.37 23.09,-7.26 42.93,-6.71 65.31,6.92 2.58,-61.72 -5.9,-155.39 -57.65,-222.38 -39.69,-44.57 -115.63,-10.82 -143.75,3.24 z m 60.78,141.87 c -1.53,-0.07 -7.07,-1.21 -10.51,-3.16 -15.23,-8.75 -11.6,-39.69 5.04,-43.83 6.68,-1.64 12.77,-2.54 23.98,2.81 6.72,3.21 16.1,5.71 18.71,4.61 5.51,-2.3 7.27,2.54 8.44,8.05 2.66,12.3 -17.54,12.62 -33.59,-0.12 -20.28,-16.05 -35.78,7.66 -16.68,25.47 6.33,4.1 6.17,6.25 4.61,6.17 z m -157.381,-66.21 17.031,-19.69 10.66,-46.87 c -6.48,-1.09 -14.34,2.5 -14.34,2.5 -5.308,21.21 -10.5,42.42 -13.351,64.06 z m 231.751,-11.79 c -0.19,-0.04 -0.39,-0.08 -0.58,-0.16 -0.71,-0.31 -3.91,-1.76 -8.28,-2.23 -2.54,-0.31 -6.33,1.49 -9.07,1.33 -7.46,-0.47 -14.41,-2.66 -16.29,-3.44 -2.26,-0.93 -4.53,-1.32 -6.48,-0.15 -5.55,3.24 -21.76,2.34 -26.68,-0.55 -5.82,-2.5 -12.34,-2.54 -17.15,-0.04 -2.07,1.06 -4.18,3.75 -4.53,3.36 -0.78,-0.74 -3.87,-14.02 -4.8,-19.14 0,-1.8 -1.25,-4.8 -0.51,-5.12 0.94,-0.39 3.98,2.39 7.77,4.3 7.74,3.94 16.37,3.63 31.52,-0.08 18.75,-4.57 26.06,-3.24 37.11,2.38 8.79,4.5 14.14,5.59 20,3.99 1.45,-0.39 5.28,-2.38 5.82,-1.88 1.02,0.98 -1.79,6.53 -4.25,12.03 -1.76,3.99 -2.39,5.51 -3.6,5.4 z m -202.11,-21.18 c 16.45,-15.58 15.24,-14.25 25.63,-21.95 l -0.51,-15 c 0,0 -12.73,-0.31 -18.98,1.64 -1.96,5.86 -10.51,35.16 -6.14,35.31 z m 135.36,-10.07 c 1.09,-0.79 2.73,-1.57 4.96,-2.35 26.17,-9.8 -1.22,-7.34 -3.83,-16.68 0,-0.86 1.21,-0.97 2.5,-0.47 8.98,3.52 30.94,5.82 40.94,3.87 12.93,-4.37 13.75,-1.33 1.28,5.16 -9.1,3.59 1.96,6.05 5.67,9.18 7.73,4.96 2.42,7.03 -7.42,2.3 -9.89,-4.73 -27.43,-4.65 -35.39,-0.16 -3.56,1.8 -7,3.44 -8.64,3.56 -3.36,0.16 -1.56,-3.36 -0.07,-4.41 z m -103.13,-16.84 15.35,-11.99 -15.7,1.52 0.35,10.47 z M 699.059,1574.52 c -3.079,0 -5.618,-2.54 -5.618,-5.63 0,-3.12 2.539,-5.62 5.618,-5.62 3.089,0 5.632,2.5 5.632,5.62 0,3.09 -2.543,5.63 -5.632,5.63 z m 20.472,-5.71 -70.312,-33.36 18.551,-6.21 -0.11,-19.26 17.11,5.47 7.218,-17.97 27.543,71.33 z m 3.129,-15.7 c -3.129,0 -5.629,-2.54 -5.629,-5.63 0,-3.08 2.5,-5.62 5.629,-5.62 3.078,0 5.578,2.54 5.578,5.62 0,3.09 -2.5,5.63 -5.578,5.63 z m -89.14,-34.14 c -3.129,0 -5.629,-2.5 -5.629,-5.59 0,-3.12 2.5,-5.62 5.629,-5.62 3.082,0 5.582,2.5 5.582,5.62 0,3.09 -2.5,5.59 -5.582,5.59 z m 21.601,-10.47 -78.949,-36.25 23.398,-7.11 -6.172,-24.1 19.063,8.01 10.629,-16.17 32.031,75.62 z m 2.301,-17.27 c -3.082,0 -5.621,-2.5 -5.582,-5.58 0,-3.13 2.5,-5.63 5.582,-5.63 3.129,0 5.59,2.5 5.59,5.63 0,3.08 -2.461,5.58 -5.59,5.58 z m -156.602,-3.59 c 29.692,0.04 62.969,-11.25 74.34,-36.68 3,-12.69 -9.461,-20.23 -36.14,-12.93 -44.059,12.07 -52.301,13.44 -44.961,5.94 0.98,-0.98 2.89,-3.4 9.492,-5.67 16.609,-5.62 48.75,-12.18 57.429,-11.28 11.829,1.56 20.04,-3.95 17.071,-13.83 -3.36,-11.21 -18.75,-15.78 -41.879,-12.54 -23.942,3.4 -37.113,6.13 -45.082,8.55 -10.192,3.09 -10.539,2.82 -5.738,-4.33 2.539,-3.75 2.769,-6.76 6.527,-7.42 15.82,0.85 32.652,-2.15 47.141,-3.52 26.058,-2.34 30.16,-9.73 11.019,-21.02 -9.059,-5.35 -36.211,-3.86 -51.641,1.68 -11.019,3.95 -36.289,9.65 -26.519,1.96 2.34,-1.84 1.519,-6.41 5.621,-7.82 13.359,-1.83 51.129,-4.49 57.031,-9.84 3.789,-3.44 -4.761,-12.19 -22.422,-16.76 -26.519,-5 -66.211,-2.93 -76.718,4.26 -19.411,39.53 -8.942,104.22 21.449,129.53 9.68,7.58 26.172,11.68 43.98,11.72 z m 174.02,-20.62 c -3.078,0 -5.539,-2.5 -5.539,-5.63 0,-3.09 2.461,-5.55 5.539,-5.55 3.129,0 5.629,2.46 5.629,5.55 0,3.13 -2.5,5.63 -5.629,5.63 z m 23.48,-5.98 -81.519,-40.59 20.621,-6.13 -4.883,-23.71 19.102,7.85 11.558,-15.94 35.121,78.52 z m 0.629,-19.88 c -3.09,0 -5.629,-2.5 -5.629,-5.63 0,-3.08 2.539,-5.58 5.629,-5.58 3.082,0 5.621,2.5 5.621,5.58 0,3.13 -2.539,5.63 -5.621,5.63 z m 47.379,-47.86 c -36.129,-35.15 -76.879,-63 -114.058,-97.18 l 8.039,0.35 20.281,18.28 570.89,1.76 -13.36,-19.46 5.63,-2.42 c 0,0 17.11,25.32 15.94,26.49 -125.39,-0.35 -222.23,-0.08 -359.811,-1.02 -25.078,24.85 -51.598,48.13 -77.809,71.72 l -55.742,1.48 z m -173.519,-22.53 c -3.118,0 -5.618,-2.54 -5.618,-5.63 0,-3.09 2.5,-5.62 5.618,-5.62 3.089,0 5.589,2.53 5.589,5.62 0,3.09 -2.5,5.63 -5.589,5.63 z m 745.281,-4.3 c 49.33,-36.6 107.73,-81.49 156.25,-108.13 19.41,-8.43 17.54,-11.32 -2.19,-20.62 -19.42,-12.07 -51.68,-27.62 -78.6,-41.17 -11.67,-4.42 -16.75,1.33 -25.03,-0.2 -5.98,-1.52 -7.7,-2.65 -11.25,-7.34 -5.82,-7.74 -4.26,-7.46 -35.43,-6.06 -31.49,1.45 -44.46,0.75 -51.22,-2.73 -6.48,-3.32 -17.65,-14.65 -17.65,-19.34 0,-4.53 -3.56,-10.31 -10.04,-12.26 -7.54,-1.84 -16.25,-7.82 -15.9,-17.07 -1.99,-7 -6.29,-10.08 -10.08,-13.91 -8.94,-9.06 -8.04,-16.17 -5.47,-24.57 1.22,-3.75 3.05,-2.89 2.11,-14.02 -2.14,-25.51 -3.9,-23.36 23.4,-42.23 L 1097.62,915.379 c -3.24,-2.539 -4.18,-2.27 -7.15,-0.238 -16.99,12.621 -28.79,33.437 -35.63,54.339 -23.55,64.84 5.2,118.12 43.44,150.74 13.2,11.29 31.02,24.76 35.94,28.16 71.99,61.37 134.57,148.25 183.87,218.09 z m -724.5,-4.77 -79.641,-37.61 25.66,-4.3 -4.918,-22.19 18.59,7.03 9.809,-18.67 30.5,75.74 z m 4.89,-17.57 c -3.089,0 -5.628,-2.5 -5.628,-5.59 0,-3.13 2.539,-5.59 5.628,-5.59 3.079,0 5.579,2.46 5.579,5.59 0,3.09 -2.5,5.59 -5.579,5.59 z m 730.07,-24.65 -9.06,21.36 c 0,0 -25.15,-61.99 -30.47,-82.96 21.29,10.97 83.75,42.77 83.75,42.77 l -26.72,4.96 3.01,24.26 -20.51,-10.39 z m -910.109,-3.83 c -3.089,0 -5.632,-2.54 -5.632,-5.63 0,-3.08 2.543,-5.62 5.632,-5.62 3.079,0 5.618,2.54 5.618,5.62 0,3.09 -2.539,5.63 -5.618,5.63 z m 24.411,-5.12 c 0,0 -59.301,-27.81 -86.051,-39.84 l 24.961,-5.24 -4.383,-24.29 22.543,8.82 9.098,-24.02 33.832,84.57 z m 3.168,-18.36 c -3.09,0 -5.629,-2.5 -5.629,-5.62 0,-3.09 2.539,-5.55 5.629,-5.55 3.082,0 5.621,2.46 5.621,5.55 0,3.12 -2.539,5.62 -5.621,5.62 z m 838.98,-4.02 c -3.12,0 -5.62,-2.5 -5.62,-5.59 0,-3.08 2.5,-5.62 5.62,-5.62 3.09,0 5.55,2.54 5.55,5.62 0,3.09 -2.46,5.59 -5.55,5.59 z m 96.91,-5.08 -28.2,-78.44 76.29,38.44 -20.7,5.66 0.11,19.38 -17.07,-4.96 -10.43,19.92 z M 480,1264.2 c -3.09,0 -5.59,-2.5 -5.59,-5.62 0,-3.09 2.5,-5.59 5.59,-5.59 3.121,0 5.621,2.5 5.621,5.59 0,3.12 -2.5,5.62 -5.621,5.62 z m 834.69,-1.4 c -3.09,0 -5.55,-2.54 -5.55,-5.63 0,-3.08 2.46,-5.58 5.55,-5.58 3.12,0 5.62,2.5 5.62,5.58 0,3.09 -2.5,5.63 -5.62,5.63 z m -811.292,-5.78 -80.859,-39.42 25.121,-5.9 -2.781,-25.23 20.43,11.56 11.062,-23.01 27.027,82 z m 5.082,-16.64 c -3.089,0 -5.32,-2.54 -5.32,-5.63 0,-3.12 2.539,-5.59 5.629,-5.59 3.09,0 5.59,2.47 5.59,5.59 0,3.09 -2.82,5.63 -5.899,5.63 z m 840.9,-4.97 c -3.09,0 -5.63,-2.53 -5.63,-5.62 0,-3.09 2.54,-5.59 5.63,-5.59 3.08,0 5.62,2.5 5.62,5.59 0,3.09 -2.54,5.62 -5.62,5.62 z m -111.45,-25.82 -7.5,21.14 -29.92,-77.43 80.47,36.84 -25.55,6.02 0.47,20.19 -17.97,-6.76 z m -81.72,16.68 c -0.94,0.04 -1.72,-0.19 -1.72,-0.82 0,-1.79 -20.58,-21.87 -20.58,-21.87 l -237.461,-2.19 c 0.5,-0.04 19.762,-5.35 19.762,-5.35 31.129,-24.92 79.961,-69.06 79.961,-69.06 l 58.948,2.34 c 32.65,32.07 81.72,56.45 103.59,96.02 -0.55,0.54 -1.6,0.89 -2.5,0.93 z m 222.58,-15.97 c -3.09,0 -5.63,-2.5 -5.63,-5.59 0,-3.12 2.54,-5.58 5.63,-5.58 3.09,0 5.59,2.46 5.59,5.58 0,3.09 -2.5,5.59 -5.59,5.59 z m -183.32,-27.03 c -3.09,0 -5.55,-2.47 -5.55,-5.55 0,-3.13 2.46,-5.63 5.55,-5.63 3.12,0 5.62,2.5 5.62,5.63 0,3.08 -2.5,5.55 -5.62,5.55 z m 120.58,-8.09 c 17,0.08 33.4,-0.51 37.66,-3.75 26.29,-22.15 13.83,-125.7 -19.33,-138.75 -36.41,-8.2 -61.57,-9.73 -93.13,11.09 -8.98,4.38 -26.76,17.58 -23.28,28.48 4.73,13.4 17.73,12.42 55.04,0.82 13.63,-4.26 21.13,-3.4 24.61,-0.74 3.24,2.46 -1.02,5.23 -7.97,5.27 -2.81,0 -14.88,2.97 -24.92,6.06 -14.22,4.37 -18.32,5.66 -27.5,6.21 -15.43,0.9 -19.93,1.52 -19.93,10.97 0,17.62 24.54,19.96 69.69,9.61 5.39,-1.25 15.16,-2.61 17.58,-2.54 1.72,-0.66 -3.44,5.82 -4.3,9.73 -1.64,1.41 -4.57,2.03 -12.26,2.31 -29.03,2.85 -53.13,4.8 -53.63,8.63 -2.58,18.67 35,23.75 73.9,8.75 10,-3.83 10.2,-2.23 10.12,0.66 -0.12,5.39 -16.88,14.77 -41.56,14.53 -23.99,-0.27 -20.67,11.96 -0.9,21.1 6.72,3.12 23.08,1.48 40.11,1.56 z m -92.85,-20 c -3.12,0 -5.58,-2.54 -5.58,-5.63 0,-3.08 2.46,-5.62 5.58,-5.62 3.09,0 5.59,2.54 5.59,5.62 0,3.09 -2.5,5.63 -5.59,5.63 z m -86.52,-38.75 -5.08,20.9 -32.69,-81.41 82.54,42.03 -27.23,5.12 2.38,17.11 -19.92,-3.75 z m -42.07,-32.7 c -3.09,0 -5.59,-2.53 -5.59,-5.62 0,-3.09 2.5,-5.63 5.59,-5.63 3.12,0 5.59,2.54 5.59,5.63 0,3.09 -2.47,5.62 -5.59,5.62 z m 82.23,-23.08 -6.96,19.76 -27.73,-70.86 70.39,31.45 -20.78,5.7 2.93,21.45 -17.85,-7.5 z m -56.06,-0.2 c -3.08,0 -5.62,-2.54 -5.62,-5.62 0,-3.13 2.54,-5.63 5.62,-5.63 3.09,0 5.59,2.5 5.59,5.63 0,3.08 -2.5,5.62 -5.59,5.62 z m 18.01,-27.07 c -3.09,0 -5.59,-2.5 -5.59,-5.58 0,-3.09 2.5,-5.63 5.59,-5.63 3.12,0 5.59,2.54 5.59,5.63 0,3.08 -2.47,5.58 -5.59,5.58 z m -35.35,-16.6 -23.79,-67.108 66.17,32.027 -19.34,6.371 c 0,0 1.06,15.08 -0.74,14.38 -1.17,-0.43 -13.63,-3.911 -13.63,-3.911 l -8.67,18.241 z m 58.86,-8.05 c -3.08,0 -5.62,-2.46 -5.62,-5.54 0,-3.13 2.54,-5.631 5.62,-5.631 3.09,0 5.63,2.501 5.63,5.631 0,3.08 -2.54,5.54 -5.63,5.54 z m -87.69,-32.261 c -3.13,0 -5.63,-2.539 -5.63,-5.629 0,-3.078 2.5,-5.621 5.63,-5.621 3.09,0 5.59,2.543 5.59,5.621 0,3.09 -2.5,5.629 -5.59,5.629 z m 25.27,-25.981 c -3.08,0 -5.62,-2.457 -5.62,-5.578 0,-3.09 2.54,-5.59 5.62,-5.59 3.09,0 5.63,2.5 5.63,5.59 0,3.121 -2.54,5.578 -5.63,5.578 z M 750.941,641.391 c -3.05,-0.43 -10.941,6.757 -12.461,10.121 4.489,1.168 9.141,0.308 11.641,-1.801 2.07,-1.949 3.551,-7.031 0.82,-8.32 z m 23.938,4.839 c -1.051,-8.199 4.031,-23 3.051,-26.519 -2.621,-1.289 -15.782,12.809 -19.02,16.25 -0.672,4.687 0.07,10.668 0.309,13.32 4.531,0.821 12.543,0.508 15.66,-3.051 z m 23.711,-4.058 c 2.82,-18.16 10.789,-47.383 9.531,-57.223 -1.172,0.93 -11.32,10.93 -18.82,21.563 -2.621,6.328 -6.723,28.468 -6.371,39.058 5.039,0.66 11.84,-0.121 15.66,-3.398 z m -158.789,2.027 c -8.082,-4.097 -17.301,-7.109 -28.821,-7.027 -9.3,0.039 -25.242,4.848 -23.64,3.629 4.219,-7.531 15.238,-3.551 15.469,-8.512 -2.731,-4.84 -10.079,-4.379 -13.707,-9.059 -0.782,-1.21 1.058,-2.269 6.25,-1.718 15.628,7.066 36.058,6.949 54.769,0.816 3.938,-0.816 1.359,2.934 0.039,3.942 -2.43,1.761 -6.449,3.64 -9.851,4.07 -16.329,2.89 -9.137,4.531 1.8,9.41 8.012,2.93 10.039,10.16 -2.308,4.449 z m 35.398,-23.078 c -2.148,-0.16 -7.621,-2.93 -13.558,-5.351 -10.082,-4.071 -19.371,-3.129 -32.93,0.66 -11.762,3.281 -16.051,2.379 -27.77,-3.52 -7.781,-5 -16.293,-6.398 -22.421,-2.89 -8.008,4.531 -7.93,2.968 -3.989,-8.239 0.981,-2.812 -0.98,-11.293 2.5,-13.242 2.66,-1.488 5.699,3.481 7.739,4.141 2.031,0.699 14.878,-5.039 22.031,1.289 12.808,4.652 16.64,-2.891 25.469,-2.149 14.371,5.039 23.351,10.352 35.699,0.551 0.742,3.668 3.59,23.668 8.203,28.399 -0.121,0.269 -0.473,0.39 -0.973,0.351 z M 649.02,563.539 c -10.309,-0.117 -15.899,-6.488 -29.25,-5.269 -10.629,0.742 -14.301,-8.68 -9.77,-15.59 3.16,-4.84 7.422,-5.739 21.949,0.941 5.942,2.731 14.262,8.75 19.102,8.277 14.179,-1.449 17.621,-15.16 5.828,-26.757 -5.789,-3.403 -5.828,-7.032 -4.07,-7.11 4.691,-0.191 14.14,5.391 16.293,11.918 5.859,17.813 -4.692,33.903 -20.082,33.59 z m 46.41,-82.109 c -13.442,-2.852 -32.852,-18.282 -39.45,-28.282 -6.14,-9.726 -12.07,-20.738 -7.742,-26.207 3.524,-4.461 8.481,-8.793 8.91,-11.211 0.352,-2.109 -2.539,-4.179 -5.238,-7.23 -11.789,-13.199 -8.98,-13.91 7.578,-5.352 8.364,4.332 12.274,6.09 17.782,4.653 15.929,-4.141 35.82,-1.172 49.332,3.789 6.097,2.219 12.07,5.269 12.539,3.711 -24.653,-27.11 -55.43,-20.281 -66.411,-18.641 -1.91,0.512 -3.351,0.391 -3.351,-0.269 0,-1.332 3.16,-4.18 9.961,-7.192 11.32,-5.039 38.551,0.321 55.582,12.742 33.668,22.028 52.226,43.039 25.699,34.258 -12.18,-4.027 -16.75,-3.32 -31.519,3.352 -22.153,10 -39.102,12.929 -57.461,6.527 -23.243,-8.09 -5.43,11.051 20.738,27.652 5.672,3.641 6.371,7.739 3.051,7.7 z m -125.391,-57.27 -7.738,-0.109 c -5.539,18.668 -18.942,18.629 -24.762,-0.121 l -6.449,0.468 c 6.332,23.282 30.281,28.051 38.949,-0.238 z m 137.891,-1.558 -5.821,-0.231 c -3.558,11.289 -15.98,21.25 -24.769,2.688 l -4.02,0.863 c 7.149,29.609 35.739,13.129 34.61,-3.32 z m -38.828,17.027 c 3.628,0 4.527,-4.141 0.429,-10.82 -2.929,-4.68 -6.371,-4.289 -9.801,-0.739 -3.128,3.129 -2.968,3.711 0.43,6.801 3.629,3.277 6.75,4.758 8.942,4.758 z m 42.886,-0.109 c 1.563,0.031 4.571,-1.25 7.934,-2.391 8.828,-3 10.859,-5.469 7.226,-9.098 -3.558,-3.551 -10.308,-4.609 -13.437,-2.582 -0.121,4.461 -4.531,7.852 -4.691,12.313 0,1.207 1.41,1.718 2.968,1.758 z m -138.437,-0.161 c 6.097,0.27 14.34,-3.359 13.719,-6.879 -0.629,-3.859 -6.68,-6.402 -11.68,-6.832 -3.32,-0.429 -3.211,0.942 -4.07,3.282 -0.782,2.148 -1.79,4.84 -2.34,6.949 -1.371,4.07 1.211,3.359 4.371,3.48 z m -41.91,-1.328 c 0,0 -3.442,-10.23 -4.961,-13.711 -12.852,0.7 -11.602,6.328 -5.551,10.43 3.25,2.461 6.531,2.539 10.512,3.281 z M 521.68,413.73 c 2.3,-0.031 5.199,-2.031 9.218,-3.351 11.372,-3.641 30.231,-3.25 44.961,0.152 7.032,1.641 10.352,3.828 11.911,2.699 2.781,-2 -0.071,-8.949 -10.27,-13.402 -13.238,-4.918 -33.48,-7.539 -48.789,0.274 -13.09,6.636 -14.531,13.789 -7.031,13.628 z m -3.52,-14.601 c 12.039,-7.93 24.07,-10.43 38.91,-9.07 22.231,0.82 26.211,3.562 7.461,-6.36 -17.301,-9.179 -44.019,-7.5 -49.14,2.461 -2.969,5.699 -1.051,12.5 2.769,12.969 z m 107.82,-13.328 c -0.082,0 -0.16,0 -0.199,-0.031 1.797,-12 21.949,-22.969 31.598,-25.59 20.551,-9.102 53.172,-0.078 77.742,10.511 17.93,7.731 24.367,19.411 3.039,12.77 -34.371,-10.66 -77.539,-11.481 -99.14,-3.199 -7.032,3.359 -11.829,5.578 -13.04,5.539 z M 512.852,340.84 c 43.007,-9.68 95,-76.012 94.808,-105.039 l -13.871,0 c -21.168,73.789 -76.09,89.769 -81.449,94.179 -2.461,9.032 0.629,11.098 0.512,10.86 z m -0.661,-18.668 c 51.09,-22.383 69.289,-62.344 76.95,-86.371 l -14.961,0 c -11.129,33.051 -31.129,56.648 -62.11,71.289 -2.109,4.609 0.121,15.082 0.121,15.082 z m -0.082,-22.621 c 26.172,-7.731 49.301,-42.18 55.86,-63.75 l -13.09,0.078 c -9.258,24.07 -22.418,39.461 -43.277,48.32 -0.864,4.531 -0.704,9.653 0.507,15.352 z m -0.429,-23.43 c 12.3,-2.461 33.121,-21.57 36.129,-40.32 l -11.989,0 c -4.261,12.621 -17.34,24.179 -24.058,28.871 0,2.308 -0.082,11.449 -0.082,11.449 z m 1.25,-19.961 c 1.332,0.82 19.691,-15.711 16.601,-20.359 l -16.519,0 c -0.203,5.16 -0.313,20.398 -0.082,20.359"
         inkscape:connector-curvature="0"
         id="path20"
         style="fill:#131f67;fill-opacity:1;fill-rule:nonzero;stroke:none" /><path
         d="M 981.371,2291.66 C 950.199,2231.27 790.23,1959.32 788.629,1949.87 l 40.98,-18.13 198.871,358.56 c 0,0 -41.21,1.33 -47.109,1.36 z m 469.609,-227.11 -18.6,-26.13 15.82,-28.63 16.06,28.32 -13.28,26.44 z M 720.27,1791.7 c 0,0 -57.34,-56.99 -79.758,-83.59 48.16,-48.05 140.269,-108.44 140.937,-201.33 l 63.512,-0.23 205.549,-183.83 c 0,0 186.13,-1.37 189.57,-0.55 3.75,0.86 69.88,95.55 69.88,95.55 l 117.97,-86.02 c 0,0 -5.66,92.62 -10.12,149.38 -1.48,37.93 -2.73,61.29 25,78.08 -38.08,18.17 -35.7,51.57 -7.65,76.1 -9.26,12.81 -23.09,15.15 -25.16,60.51 -5.82,6.25 -11.37,9.92 -18.63,15.23 l -7.62,-6.84 c -24.49,-21.95 -41.17,-44.37 -43.91,-58.94 -5.23,-27.77 22.97,-46.8 39.26,-26.52 4.61,5.74 8.71,4.14 8.71,-3.36 0,-15.12 -19.06,-23.68 -35.15,-15.79 -3.79,1.84 -7.11,3.05 -7.43,2.74 -0.58,-0.59 15.98,-41.17 20.47,-50.16 7.42,-14.88 11.33,-29.84 11.92,-45.5 0.62,-16.72 0.27,-18.83 -7.54,-47.74 -7.38,-27.19 -3.91,-43.4 9.26,-43.4 7.42,0 7.18,-7.11 -0.32,-9.72 -15.9,-5.55 -25.78,6.17 -26.32,31.25 -0.36,15.23 -0.63,15.58 -8.44,11.91 -27.23,-12.77 -56.76,10.08 -43.95,34.02 2.66,5 5.86,3.44 7.54,-3.75 3.13,-13.43 10.16,-19.37 22.89,-19.33 29.38,0.11 41.68,41.6 24.77,83.4 -3.4,8.39 -5.12,7.89 -9.61,-2.7 -6.99,-16.64 -18.71,-21.52 -28.4,-11.84 -3.24,3.25 -4.84,8.52 -2.62,8.75 0.51,0.08 3.71,0.2 7.15,0.32 17.11,0.54 23.01,17.15 15,42.11 -7.03,21.95 -8.12,25.93 -10.23,37.85 -3.25,18.36 -0.98,32.3 8.12,50.15 1.6,3.13 11.64,14.34 24.1,26.96 12.74,12.85 23.71,22.73 23.71,22.73 0,0 -6.44,5.55 -15.19,12.11 -18.4,13.83 -21.64,16.21 -21.64,16.21 0,0 -87.46,-240.15 -81.29,-333.71 -11.09,-123.28 -101.72,-89.18 -108.4,-3.79 L 720.27,1791.7 z m -3.899,-36.01 c 29.879,0.51 49.609,-39.03 60.859,-121.06 3.75,-27.18 20.309,-65.27 32.301,-74.25 30.348,-22.7 77.809,-5.2 77.848,28.71 0.043,42.18 -59.219,48.47 -60.149,6.32 -0.199,-9.92 -5.32,-10.43 -10.199,-0.97 -4.332,8.4 -0.429,24.14 8.047,32.11 5.434,5.11 5,6.05 -5.348,11.75 -36.058,19.93 -51.371,49.61 -32.109,62.23 8.43,5.51 19.957,-1.48 14.649,-8.9 -8.25,-11.61 -8.36,-13.44 -1.45,-23.09 7.852,-10.94 17.149,-16.41 39.18,-22.93 18.52,-5.43 21.559,-6.48 30.121,-10.35 25.039,-11.45 36.481,-36.56 27.731,-60.94 -2.032,-5.78 -4.063,-11.44 -4.454,-12.62 -0.898,-2.69 0.582,-2.69 18.204,-0.35 28.046,3.71 59.218,-6.29 74.57,-23.98 8.238,-9.49 14.848,-30.86 15.078,-48.71 0.04,-3.4 1.09,-11.18 2.38,-17.23 1.29,-6.02 2.97,-16.25 3.75,-22.7 7.35,-61.01 58.17,-92.22 80.12,-49.18 13.79,27.08 -18.16,54.15 -34.41,29.15 -5.71,-8.79 -11.61,-4.73 -8.32,5.7 6.4,20.27 31.75,23.75 48.98,6.64 9.34,-9.22 13.79,-30.16 9.26,-43.48 -2.35,-6.95 -2.11,-7.38 3.04,-5.58 11.61,4.02 31.65,0.15 38.83,-7.54 16.96,-18.13 13.56,-39.89 -7.3,-46.96 -9.49,-3.16 -20.24,0.12 -23.75,11.25 -1.53,7.9 3.9,10.2 8.12,3.36 7.89,-12.73 25.04,-2.46 21.02,12.58 -4.61,17.15 -19.26,20.78 -46.29,11.49 -42.97,-14.81 -56.84,-13.56 -77.38,6.87 -14.69,14.61 -20.241,27.19 -24.179,55 -4.383,30.74 -4.769,31.52 -12.391,25.08 -36.359,-30.94 -84.371,15.78 -53.589,46.52 9.531,9.53 16.519,1.25 7.968,-9.41 -12.5,-15.55 3.789,-37.19 24.219,-32.15 37.223,9.18 29.652,63.63 -10.629,76.33 -12.301,3.9 -46.008,2.3 -71.949,-3.4 -72.422,-15.9 -104.41,15 -119.34,115.16 -1.711,11.72 -3.789,20.35 -10.66,45.54 -8.129,29.93 -35.898,46.14 -51.02,29.89 -12.109,-12.97 -5.742,-30.43 11.059,-30.47 16.762,-0.04 11.641,-11.57 -5.859,-13.09 -30.27,-2.69 -35.551,47.74 -6.481,62.19 7.102,3.51 13.711,5.35 19.922,5.47 z m -395.512,-18.64 9.411,-35.89 37.429,-10.55 -11.879,34.14 -34.961,12.3 z m 96.051,-10.7 -10.031,-32.5 28.391,6.99 9.261,33.87 -27.621,-8.36 z M 725,1673.19 c 5.941,0 10.781,-4.85 10.781,-10.78 0,-5.94 -4.84,-10.78 -10.781,-10.78 -5.98,0 -10.781,4.84 -10.781,10.78 0,5.93 4.801,10.78 10.781,10.78 z m -361.02,-19.42 -29.531,-10.31 -5.699,-25.74 30.941,7.97 4.289,28.08 z m 70.43,-8.12 -24.101,4.18 6.8,-26.6 25.551,-10.43 -8.25,32.85 z m 1047.31,2.03 -15.51,-12.07 c 45.2,-39.3 -3.59,-77.19 -5.12,-74.61 32.7,-21.64 26.88,-55.78 22.62,-87.03 -7.73,-55.74 -10.74,-108.48 -19.18,-165.59 0,0 39.38,-27.18 65.59,-37.69 0.47,-0.08 0.15,335.19 0.15,335.19 l -48.55,41.8 z m -558.091,-50.47 c 5.98,0 10.781,-4.84 10.781,-10.78 0,-5.94 -4.801,-10.78 -10.781,-10.78 -5.93,0 -10.738,4.84 -10.738,10.78 0,5.94 4.808,10.78 10.738,10.78 z m -661.207,-27.58 1.367,-312.85 64.762,115.78 -44.571,51.41 38.52,41.13 -60.078,104.53 z m 630.59,-47.69 c 5.968,0 10.777,-4.81 10.777,-10.74 0,-5.98 -4.809,-10.79 -10.777,-10.79 -5.942,0 -10.742,4.81 -10.742,10.79 0,5.93 4.8,10.74 10.742,10.74 z m 147.028,-31.99 c 5.98,0 10.78,-4.81 10.78,-10.79 0,-5.93 -4.8,-10.74 -10.78,-10.74 -5.94,0 -10.74,4.81 -10.74,10.74 0,5.98 4.8,10.79 10.74,10.79 z m 421.17,-348.52 47.58,-48.83 -37.19,-46.29 58.52,-99.259 -0.94,307.149 -67.97,-112.77 z m -1199.37,102.73 2.262,-336.48 50.859,-37.11 12.891,12.192 c -32.813,35.039 -13.204,61.129 11.527,76.207 -43.641,10.16 -30.399,68.051 -27.777,94.881 -1.09,49.81 17.187,106.64 11.558,154.53 l -61.32,35.78 z m 292.961,-46.75 -72.922,-101.61 c 0,0 -80.078,60.71 -120.469,88.09 4.289,-43.87 8.238,-99.76 13.59,-146.91 13.121,-68.832 -20.98,-70.039 -21.289,-76.64 54.18,-41.141 8.711,-79.57 0.551,-77.66 28.859,-15.7 26.476,-63.481 26.476,-63.481 l 13.672,-7.73 c 0,0 4.461,2.691 6.371,3.75 14.649,7.851 38.52,35.941 43.949,54.453 9.29,31.406 -18.011,57.5 -35.16,33.629 -8.398,-11.75 -15.16,-3.903 -8.242,9.609 6.293,12.309 22.731,18.52 33.672,12.66 6.371,-3.398 4.961,5.43 -4.879,30.16 -3.281,8.282 -5.98,17.34 -10.633,35.7 -4.488,17.73 -2.726,39.14 5.043,60.94 11.25,31.4 7.27,51.09 -10.703,52.81 -9.609,0.9 -10.629,3.91 -2.808,8.36 17.46,9.88 34.371,-4.22 33.671,-28.05 -0.351,-12.93 -0.203,-13.12 6.598,-10.39 34.449,13.83 61.68,-21.91 37.582,-49.37 -7.351,-8.36 -11.992,-3.05 -7.152,8.2 7.461,17.38 0.351,29.8 -17.149,29.92 -25.429,0.2 -39.492,-34.88 -29.492,-73.51 3.121,-12.039 3.633,-12.192 12.07,-4.141 7.461,7.141 13.082,9.41 18.872,7.692 12.031,-3.59 15.191,-16.411 3.671,-14.801 -19.812,2.73 -25.043,-18.051 -13.832,-54.961 14.879,-48.949 -0.199,-88.867 -44.14,-117.231 -2.231,-1.449 -5.778,-4.218 -5.778,-4.218 16.95,-15.078 27.809,-23.668 50.231,-37.34 l 80.039,323.39 c 0,0 -1.371,18.36 -3.32,27.04 -0.082,86.79 80.898,95.11 106.25,16.28 2.461,-7.57 15.308,-26.87 15.308,-26.87 L 1076.09,731 c 0,0 78.75,76.09 77.66,78.09 -59.8,60.269 -140.59,102.89 -143.52,198.51 -14.332,0.43 -62.218,-0.47 -62.218,-0.47 l -205.043,188.05 c -64.34,-0.43 -121.41,4.18 -188.168,2.23 z m 114.89,-7.07 c 11.25,0.35 22.61,-5.47 22.61,-14.89 0,-8.08 -5.422,-9.96 -9.922,-3.36 -6.289,9.18 -13.59,9.93 -21.008,2.11 -20.59,-21.64 11.399,-41.4 48.16,-29.8 22.5,7.15 33.399,9.06 41.641,7.42 34.769,-6.99 51.527,-30.43 54.488,-76.05 1.488,-23.25 1.449,-23.13 11.488,-13.95 24.454,22.38 59.762,9.92 65.274,-23.05 2.348,-14.14 -12.891,-31.95 -27.383,-31.95 -5.66,0 -4.769,5.94 1.371,8.83 14.719,7.03 15.309,30.27 0.969,39.33 -18.981,12.04 -43.981,-6.75 -43.668,-32.81 0.348,-31.369 23.75,-45.779 70,-43.119 6.758,0.39 23.75,1.168 37.738,1.75 22.071,0.937 45.821,5.121 68.321,-11.871 23.55,-18.75 39.21,-56.02 45.89,-109.84 10.55,-66.25 18.68,-83.988 40.94,-85.59 13.2,-0.941 24.38,10.27 24.38,23.359 0,9.219 -12.19,17.301 -21.41,14.262 -11.17,-3.672 -13.44,8.399 -2.42,13.008 15.23,6.359 33.83,-5.899 37.97,-25.039 2.38,-11.18 -10.2,-32.578 -23.4,-37.891 -34.45,-13.949 -58.95,14.531 -67.03,78.199 -4.92,29.223 -7.66,48.903 -16.76,73.872 -16.719,45.929 -44.18,64.878 -74.102,51.171 -33.867,-15.589 -27.148,-66.293 8.75,-65.902 19.692,-1.559 23.832,12.93 24.262,28.441 0.43,11.399 13.39,0.661 14.531,-7.191 1.051,-9.57 -7.5,-21.367 -15.082,-26.949 -12.187,-8.211 -7.848,-7.699 4.652,-10.981 33.549,-6.168 58.549,-50.629 38.439,-65.699 -10.431,-6.371 -21.528,2.969 -14.259,12.18 11.479,14.609 -7.973,37.738 -43.402,45.469 -46.41,10.203 -64.879,44.73 -48.168,80.242 5.551,11.719 6.019,11.437 -16.602,10.187 -49.801,-2.808 -67.5,4.063 -84.219,32.934 -5.031,8.708 -7.261,20.348 -8.351,43.478 -1.918,41.44 -5.707,67.11 -10.899,74.33 -25.859,35.79 -79.691,25.08 -72.968,-14.49 3.547,-20.78 25.039,-27.46 39.687,-12.3 11.051,11.4 16.211,0.78 5.422,-11.17 -26.012,-28.79 -71.281,4.8 -57.812,42.93 3.05,8.71 3.48,8.43 -13.2,8.94 -37.109,1.06 -54.808,32.81 -30.859,55.43 4.18,3.95 10.039,5.86 15.941,6.02 z m 89.528,-136.33 c 5.98,0 10.781,-4.81 10.781,-10.78 0,-5.94 -4.801,-10.75 -10.781,-10.75 -5.938,0 -10.778,4.81 -10.778,10.75 0,5.97 4.84,10.78 10.778,10.78 z m 149.222,-38.24 c 5.969,0 10.778,-4.81 10.778,-10.75 0,-5.969 -4.809,-10.782 -10.778,-10.782 -5.941,0 -10.742,4.813 -10.742,10.782 0,5.94 4.801,10.75 10.742,10.75 z M 876.41,945.488 c 5.93,0 10.781,-4.797 10.781,-10.777 0,-5.941 -4.851,-10.742 -10.781,-10.742 -5.941,0 -10.789,4.801 -10.789,10.742 0,5.98 4.848,10.777 10.789,10.777 z m 474.21,-41.867 6.8,-31.883 24.73,-6.519 -3.83,27.301 -27.7,11.101 z m 86.49,-11.062 -0.55,-18.86 21.99,-2.621 7.78,32.582 -29.22,-11.101 z m -369.22,-28.508 c 5.98,0 10.78,-4.813 10.78,-10.781 0,-5.942 -4.8,-10.75 -10.78,-10.75 -5.94,0 -10.74,4.808 -10.74,10.75 0,5.968 4.8,10.781 10.74,10.781 z m 315.82,-43.871 -25.86,-7.192 -12.42,-35.898 33.12,12 5.16,31.09 z m 50.59,-3.239 3.16,-26.601 31.84,-14.379 -10.78,37.891 -24.22,3.089 z M 964.879,590.219 767.148,232.762 l 54.024,0.777 186.598,337.031 -42.891,19.649 z m -621.828,-86.52 -17.461,-23.519 16.558,-27.27 19.024,27.391"
         inkscape:connector-curvature="0"
         id="path22"
         style="fill:#d40000;fill-opacity:1;fill-rule:nonzero;stroke:none" /><path
         d="m 128.09,2417.95 c -24.34,-0.11 -48.7892,-16.52 -55.6681,-48.4 -1.5235,-7.14 -2.1524,-19.45 -2.6524,-53.9 -0.789,-51.06 -1.25,-46.92 -1.25,-46.92 l -21.9179,0.51 1.1679,-28.4 23.3594,-0.19 c -0.1094,-0.16 -0.5078,-1.68 0.2422,-17.74 1.8281,-40.03 8.0781,-54.25 30.7379,-65.03 15.352,-7.27 43.711,-7.23 56.563,2.85 7.777,4.92 8.558,4.88 17.777,-0.78 19.602,-12.15 35.781,-5.55 35.781,-5.55 l -0.55,29.06 c -30.899,0.47 -35.039,7.81 -26.91,27.89 0.539,1.41 0.621,4.03 0.851,7.46 2.309,32.39 1.367,141.53 -2.223,154.53 -8.089,29.34 -32.418,44.69 -55.308,44.61 z m -2.66,-28.63 c 11.129,-0.08 22.461,-7.58 27.621,-21.56 5.469,-14.85 5.39,-13.56 6.988,-104.77 0.781,-44.92 -1.129,-44.72 -1.129,-44.72 -17.23,22.85 -39.031,39.68 -62.9295,47.61 0,0 0.4687,-2.15 0,42.11 -0.4297,45.71 0.1093,55.55 6.9105,67.46 5.39,9.46 13.91,13.91 22.539,13.87 z m 553.55,-88.71 c 36.411,-110.35 39.809,-219.14 8.211,-323.63 18.008,-0.94 96.52,-21.06 139.758,-47.74 -8,-20.58 -130.539,-171.29 -213.75,-239.22 23.68,-23.39 49.692,-46.79 77.031,-72.61 41.372,-39.26 55.981,-66.29 58.719,-117.23 -0.398,-24.61 -9.179,-54.96 -24.847,-76.45 -11.832,-16.21 -24.411,-28.71 -49.653,-45.43 -23.238,-15.39 -57.258,-48.55 -100,-97.42 -16.289,-18.63 -43.828,-52.58 -66.597,-84.96 -8.633,-11.76 -33.981,-48.47 -33.981,-48.47 -84.691,69.1 -175.351,122.38 -177.66,121.99 0,0 91.449,48.75 110.699,58.67 14.77,-9.49 34.852,-1.37 25.238,19.49 -18.519,47.5 -5.628,96.41 17.114,130.55 5.468,8.2 18.547,13.01 39.797,14.49 9.179,0.63 18.91,0.31 28.671,0.43 3.52,0 13.008,-1.37 18.211,-4.18 17.297,-9.45 20.739,2.7 31.559,43.56 10.699,40.7 -6.559,92.14 -31.172,92.3 -5.777,0.04 -9.027,-2.11 -7.848,-16.56 0.899,-10.94 -1.718,-16.6 -4.531,-23.48 -6.14,-15.04 -9.418,-29.76 -11.371,-49.37 3.594,-0.71 -22.848,26.32 -64.527,37.07 -27.11,3.2 -40.86,36.91 -39.731,36.99 0,0 4.059,9.14 7.621,12.69 9.258,-4.41 18.36,-9.61 29.329,-12.85 0,0 -2.54,13.56 -3.508,17.19 -5.043,18.87 -4.774,21.72 2.5,25.62 18.008,9.69 19.918,27.04 5.859,42.82 -3.562,4.06 -6.531,6.64 -11.332,8.67 l 8.91,35.39 c 0,0 -8.168,-1.76 -14.648,-3.75 -18.871,-5.7 -17.461,-5.9 -25.473,3.24 -17.5,19.92 -44.18,16.13 -48.168,-6.83 -0.461,-2.54 -1.64,-6.61 -1.64,-6.61 l -40.149,19.54 c 1.168,-9.46 11.598,-41.37 11.598,-41.37 -35.16,-27.31 -5.469,-51.49 4.14,-54.06 0,0 -8.199,-26.14 -11.058,-37 l 39.687,11.33 c 3.321,-7.54 7.422,-13.28 15.672,-18.59 2.141,-22.31 19.328,-40.28 31.211,-51.1 0,0 1.68,-8.16 0.66,-13.39 -2.582,-12.97 10.629,-33.52 12.848,-34.73 -54.41,22.27 -111.129,48.98 -165.93,75.19 l 3.43,-673.159 c 0,0 12.781,-11.411 38.051,-29.532 12.148,-8.711 12.148,-8.75 9.609,-18.789 -3.32,-13.199 -2.5,-23.32 8.789,-110.39 5.973,-46.051 12.461,-93.828 18.32,-136.641 2.301,-15.59 2.622,-25.629 2.622,-25.629 -12.11,5.629 -29.692,6.18 -38.79,-4.019 -15.71,-17.891 -3.128,-46.68 20.11,-46.051 5.281,0.308 8.871,1.832 13.441,4.961 3.129,1.679 6.367,0.187 6.367,0.187 l -34.687,-60.968 39.961,-67.27 39.848,71.949 -28.989,56.922 c 0,0 2.809,0.309 6.758,-1.68 3.91,-1.961 9.141,-3.441 12.77,-3.64 20.242,-0.153 24.382,9.07 26.492,25.668 0,21.332 -17,30.98 -40.391,22.929 -3.68,-1.25 -7.738,-1.597 -7.738,-1.597 l 24.566,234.758 13.172,-9.649 4.289,2.352 -11.519,9.797 c 2.5,37.621 -9.879,50.98 -23.282,60.082 44.801,25.468 25.391,65.781 -4.418,78.199 0,0 19.34,11.289 23.25,23.172 3.282,10.617 2.071,27.458 -1.679,57.298 -2.821,46.02 -12.699,141.1 -12.699,141.1 39.136,-29.53 79.378,-61.14 117.187,-90.98 l 75.781,105.35 182.66,-1.29 c 0,0 138.79,-126.05 208.668,-190.31 l 60.312,-0.55 c 0,0 0.67,-6.439 1.29,-10.7 5.7,-62.27 47.46,-105 85.47,-134.961 15.51,-13.91 53.79,-50.469 53.79,-50.469 l -70.98,-71.559 -434.651,388.199 c 0,0 -2.07,5.66 -2.891,9.1 -10.039,41.14 -37.297,58.36 -62.066,55.43 -25.973,-3.04 -48.16,-28.63 -47.031,-72.19 0.16,-6.75 2.621,-18.63 2.621,-18.63 L 454.84,766.898 c 0,0 -31.75,24.223 -48.899,35.903 l -3.75,-2.192 46.438,-34.961 3.48,1.524 13.2,-10.313 1.019,-7.031 c 40.621,-27.656 109.57,-79.297 109.57,-79.297 32.543,24.18 66.762,16.098 101.012,6.989 0,0 24.93,-8.321 38.168,-8.282 67.344,-1.476 126.953,-14.566 189.531,-37.187 L 676.48,227.68 l 434.57,-0.899 c -21.44,84.649 -44.17,170.629 -3.51,315 -42.85,8.629 -138.13,46.758 -138.13,46.758 0,0 -0.461,2.191 3.559,7.152 17.621,25.149 62.191,93.438 103.911,132.93 5.07,3.629 77.85,74.258 78.55,76.481 0.39,1.25 2.15,6.019 5,7.886 6.72,4.461 24.53,21.332 24.53,21.332 l -91.05,78.95 c 0,0 -3.99,0.39 -5.28,1.089 -12.73,7.153 -35.66,46.801 -41.33,73.36 -13,61.051 11.02,109.371 78.75,158.941 66.14,45.28 191.53,221.06 191.96,224.97 67.61,-55.98 120.43,-84.97 179.92,-121.68 -35.94,-20.63 -65.23,-34.42 -90.39,-48.05 -16.33,-9.3 -18.56,-11.25 -32.38,-7.35 -15.59,-0.11 -20.94,-6.13 -17,-19.6 23.68,-37.39 13.52,-124.38 -18.47,-141.14 -27.74,-14.57 -54.73,-10.62 -77.03,-2.38 -17.23,5.55 -17,5.59 -24.65,-10.04 -16.92,-35.941 -17.97,-66.21 -2.39,-100.699 12.78,-27.703 31.76,-40.312 34.11,-2.972 1.36,21.91 11.05,47.543 10.74,71.051 19.37,-21.399 32.23,-31.168 64.06,-39.879 21.33,-3.321 43.99,-30.082 43.28,-41.012 -5.86,-5.899 -7.65,-13.481 -8.59,-12.93 -10.39,3.391 -32.89,12.961 -32.89,12.961 l 9.57,-33.82 c 0,0 -1.56,-1.57 -6.17,-3.91 -21.21,-10.821 -19.85,-40 2.42,-51.719 4.49,-2.34 4.84,-3.481 2.89,-9.731 -2.74,-13.859 -8.83,-23.199 -12.11,-36.949 0,0 3.05,-0.121 28.4,11.598 l 9.96,4.652 6.01,-6.441 c 13.13,-14.07 28.91,-13.949 42.7,0.23 l 6.29,6.481 17.62,-8.903 c 16.6,-8.437 20.97,-10.16 20.97,-10.16 0,0 -9.57,37.153 -11.33,41.41 -0.97,2.262 -2.93,4.614 -4.37,5.153 -2.34,0.859 -1.99,1.41 4.34,6.41 15.93,12.66 17.53,30.117 3.94,43.398 -5.19,5.039 -5.86,6.09 -5.86,6.09 l 8.28,34.461 -34.29,-11.371 c -5.39,11.52 -14.03,16.762 -19.46,19.102 -0.58,15.55 -2.5,31.488 -29.22,55.781 8.99,8.238 -1.71,28.008 -10.5,39.878 15,-5.03 52.57,-20.89 52.57,-20.89 l 5.67,0.231 17.93,-8.629 2.11,-3.172 c 0,0 56.4,-26.641 82.34,-39.102 -0.08,1.41 -0.27,29.262 -0.35,336.062 -0.04,182.89 0.23,333.32 -0.12,334.25 -0.39,0.98 -6.56,5.75 -13.01,10.59 -11.87,8.99 -14.29,10.74 -29.41,20.78 -12.07,8.09 -11.25,8.01 -8.75,17.31 2.89,10.7 2.81,25.39 -1.01,52.89 -2.82,20.31 -13.05,91.76 -20.2,149.41 -5,40.47 -6.17,49.45 -7.42,55.94 -1.99,16.41 0.15,23.51 -0.2,23.75 56.64,-24.53 61.14,56.83 4.34,45.86 10.86,21.91 20,32.11 29.33,55.51 -11.87,25.5 -38.08,68.63 -38.08,68.63 l -41.53,-72.31 24.46,-50 c -28.13,5.08 -43.01,-15.39 -37.81,-33.75 5.62,-16.21 21.21,-20.74 34.92,-14.21 10.58,4.18 10.54,5.23 1.17,-74.07 -2.74,-23.43 -15.04,-133.04 -16.76,-149.37 -1.13,-10.94 -1.83,-13.99 -6.29,-11.56 -6.05,2.57 -9.53,6.4 -15.58,10.39 l -3.4,-3.17 c 5.39,-4.37 11.79,-10.04 18.32,-16.01 -1.53,-29.07 -0.9,-45.86 23.24,-60.04 -43.79,-27.46 -18.16,-69.69 7.54,-75.78 -15.31,-3.99 -30.43,-23.71 -26.8,-62.89 l 12.42,-161.53 -118.75,88.17 -69.68,-99.77 -183.67,-0.23 -207.149,186.91 c 0,0 -45.391,0.63 -64.031,1.09 2.109,0.98 -3.942,57.78 -33.899,94.89 -32.582,38.71 -106.762,102.65 -106.723,102.69 l 77.891,79.1 437.381,-393.67 c 0,0 2.11,-11.13 3.2,-15.9 14.65,-62.11 85.36,-65.9 100.4,-2.57 2.42,10.19 5.35,34.02 4.25,36.83 -0.35,0.9 1.84,11.29 4.89,23.09 23.51,92.18 43.55,171.75 66.68,260.27 3.16,12.19 6.56,25.74 7.5,30.16 3.78,17.97 3.24,17.85 22.03,3.71 11.52,-8.67 16.29,-11.8 16.29,-11.8 l 3.63,3.83 c -12.89,10 -35,25.94 -35,25.94 l 0.23,6.75 c -71.01,50.86 -85.62,64.34 -127.69,97.66 -32.58,-28.67 -79.14,-17.07 -108.36,-6.91 -7.5,2.97 -26.02,7.77 -26.02,7.77 -72.69,-0.08 -136.598,13.95 -196.95,33.67 l 232.66,414.3 -89.85,0 -3.16,-3.52 -46.759,0 -0.121,3.52 -306.29,-0.04 z M 1537.03,937.988 c 0,-0.226 0.04,0 0.04,0 l -0.04,0 z m -592.811,1353.282 31.801,-0.62 -188.25,-335.9 -20.04,7.81 c 0,0 1.84,0.94 1.84,15.12 -0.039,15.2 -3.32,21.68 -10.16,30.62 -5.738,7.78 -8.199,8.21 8.602,5.9 34.328,-4.72 58.75,32.62 45.109,61.76 -5.269,11.25 -4.531,11.92 9.379,13.32 38.281,3.79 53.16,52.38 26.09,76.56 -5.621,5.08 -3.121,8.32 7.351,6.06 33.118,-7.15 58.75,29.57 45.618,58.36 -4.289,8.01 -0.43,9.33 5.589,10.15 28.364,6.64 38.012,28.91 37.071,50.86 z m -253.75,-0.04 147.383,-0.03 c -19.84,-30.36 15.16,-48.29 19.609,-46.18 -31.762,-17.34 -23.051,-41.79 -6.563,-50.23 15.981,-8.13 39.961,-0.78 33.551,34.49 l 7.891,3.44 c 7.699,-8.67 15.281,-62.42 -43.199,-54.92 -10.391,1.33 -16.051,-8.4 -7.34,-13.79 46.211,-53.13 -26.141,-76.6 -29.262,-67.78 l -0.238,8.99 c 19.539,-3.59 44.578,21.6 22.621,44.02 -12.461,12.74 -48.672,6.53 -42.461,-32.15 -21.371,31.96 -44.731,22.31 -51.012,5.43 -4.89,-13.08 1.321,-30.97 22.653,-34.02 -23.832,-19.96 -12.262,-42.19 4.097,-47.11 18.09,-5.43 36.531,1.91 31.571,34.77 0.269,3.08 6.601,2.07 7.109,2.26 18.672,-46.64 -25.981,-63.75 -50.078,-54.14 -8.949,3.48 -13.641,-10.27 -4.141,-17.3 14.41,-10.63 9.961,-41.29 8.281,-41.6 -26.761,10.15 -65.16,17.69 -63.711,17.1 25.579,101.18 23.942,204.07 -6.761,308.75 z m 234.961,-0.03 13.32,-0.04 c 0.16,-19.07 -8.09,-42.5 -40.629,-46.14 0.16,5.12 -0.23,9.96 -1.519,15.36 12.187,2.77 28.359,-0.63 28.828,30.82 z m 58.121,-1.06 42.499,-0.19 -199.999,-355 -31.949,16.44 189.449,338.75 z m -104.84,-26.91 c 7.5,0 13.59,-6.1 13.59,-13.6 0,-7.5 -6.09,-13.59 -13.59,-13.59 -7.539,0 -13.59,6.09 -13.59,13.59 0,7.5 6.051,13.6 13.59,13.6 z m -416.949,-6.25 c -32.032,-83.01 -93.641,-133.28 -138.481,-216.8 -46.832,-84.88 -25.39,-158.01 40.739,-171.56 34.851,-7.15 75.589,26.79 80.82,63.71 1.25,8.79 2.781,11.29 6.922,11.29 6.047,0 5.386,-15.35 1.558,-36.21 -9.218,-55.24 -28.199,-88.83 -42.66,-109.42 l 114.852,0.94 c -23.321,28.05 -41.25,65.86 -45.082,112.58 -2.809,25.39 -0.739,36.52 7.379,32.19 2.66,-1.45 3.363,-3.95 4.531,-17.07 4.18,-45.55 51.879,-70.36 90.39,-50.32 53.168,28.13 51.719,80.71 39.5,119.07 -36.761,100.27 -117.89,166.25 -160.468,261.6 z m -350.903,-31.41 c 13.789,-11.68 27.461,-24.92 36.871,-36.6 -13.199,-9.49 -27.109,-10.04 -35.66,-5.35 -9.609,5.31 -13.7497,17.61 -14.6911,38.32 -0.4687,11.48 3.5621,11.99 13.4801,3.63 z m 16.563,-109.77 c 0.387,0.12 -20.781,-43.24 -36.2931,-66.56 -11.0898,-20.47 -38.4297,-56.17 -31.0898,-84.72 8.4804,-29.73 40.1909,-37.31 57.0699,-14.46 7.93,10.74 9.61,9.46 9.411,-2.54 -0.192,-22.89 -12.34,-35.89 -21.25,-47.14 l 58.011,-0.43 c -12.261,14.76 -23.359,27.03 -24.609,47.1 0.039,7.54 2.269,13.01 7.578,4.89 5.98,-5.82 11.051,-16.56 27.379,-13.56 16.961,3.01 31.723,25 28.32,46.33 -4.527,24.77 -20.039,49.1 -35.578,69.96 -12.973,17.42 -39.422,60.28 -38.949,61.13 z m 666.019,-7.38 c 6.95,0 12.579,-5.62 12.579,-12.58 0,-6.95 -5.629,-12.61 -12.579,-12.61 -6.961,0 -12.582,5.66 -12.582,12.61 0,6.96 5.621,12.58 12.582,12.58 z m 658.399,-10.04 33.86,-58.94 -38.63,-68.4 -32.23,65.55 37,61.79 z m -0.63,-20.08 -23.79,-39.33 21.6,-40.27 24.61,38.28 -22.42,41.32 z m 0.47,-16.87 12.3,-23.75 -14.96,-24.14 -12.42,25.51 15.08,22.38 z m -32.81,-79.84 c 2.58,0 5.31,-0.55 8.12,-1.72 22.81,-9.53 15.55,-44.22 -8.79,-42.07 -3.24,0.35 -7.46,1.99 -10.5,4.06 -16.92,13.83 -6.72,39.77 11.17,39.73 z m 55.74,-0.67 c 19.96,-0.35 31.95,-28.08 10.98,-41.05 -10.12,-5.67 -25.28,-2.23 -31.25,7.77 -5.12,8.63 -2.89,22.97 8.55,30.39 4.06,2.11 8.05,2.97 11.72,2.89 z m -27.7,-39.57 c 2,-0.15 4.18,-9.84 6.18,-26.68 0.7,-6.09 2.65,-21.33 4.29,-33.83 3.13,-26.79 6.37,-51.71 9.14,-77.57 0.55,-5.08 1.96,-15.86 3.05,-23.99 11.56,-83.87 14.14,-110.66 11.45,-117.81 -7.31,-25 -41.41,-26.92 -55.67,-12.38 -10.78,11.01 -12.38,23.04 -8.12,54.49 2.46,18.12 3.43,27.26 10.66,96.64 1.68,16.25 4.1,37.85 5.43,48.01 2.85,27.11 6.21,52.54 9.92,79.29 1.06,9.57 2.31,13.95 3.67,13.83 z m -558.898,-62.3 c 0,0 109.289,-36.06 192.458,-34.42 12.19,0 14.18,0.12 29.37,-4.84 9.03,-2.93 23.21,-6.91 31.53,-8.83 25.62,-5 48.16,-3.59 68.12,4.57 3.13,1.25 7.74,5.12 12.39,3.71 2.85,-0.86 6.95,-6.48 6.95,-6.48 -72.81,-19.34 -243.131,-15.78 -349.182,28.9 l 8.364,17.39 z m 561.558,-11.49 c -0.43,-0.08 -0.94,-0.7 -1.45,-1.52 -1.79,-2.81 -0.31,-21.29 6.29,-80 12.66,-112.15 12.62,-114.53 -2.73,-126.33 -7.54,-5.78 -8.67,-8.12 -5.08,-10.23 2.7,-1.57 2.5,-1.57 7.97,-0.04 12.89,3.59 18.24,13.83 18.13,34.72 -0.08,15.9 -0.28,17.82 -5.24,56.96 -1.72,13.55 -4.06,32.65 -5.23,42.46 -8.28,69.88 -10.2,84.41 -12.66,83.98 z m -572.582,-11.72 c 108.832,-38.98 222.542,-50 359.572,-28.98 0,0 13.21,-8.52 19.81,-12.73 l -4.61,-1.06 2.07,-18.94 23.28,3.75 c 0,0 12.58,-10.04 21.99,-16.18 -122.22,-37.3 -319.569,-30.9 -441.33,23.25 -4.649,2.65 -7.34,4.8 -7.34,4.8 2.621,6.45 5.781,10.27 9.019,13.87 l 22.231,-6.33 6.441,20.27 -16.992,6.17 5.859,12.11 z m 28.524,-24.29 -7.114,-19.96 31.09,-9.22 5.282,20.39 -29.258,8.79 z m 47.539,-12.35 -4.102,-22.73 31.211,-5.78 3.86,22.15 -30.969,6.36 z m 51.639,-10.66 -2.46,-21.91 33.08,-3.52 2.03,22.23 -32.65,3.2 z m 227.38,-0.31 -28.16,-3.09 1.75,-19.34 28.48,3.36 -2.07,19.07 z m -49.65,-5.59 -27.93,-1.87 0.94,-20.24 28.09,1.8 -1.1,20.31 z m -125.86,-0.43 -0.04,-21.52 28.64,-1.06 0.35,21.96 -28.95,0.62 z m 78.71,-2.69 -26.36,-0.12 -0.12,-20.47 26.64,-0.12 -0.16,20.71 z m -305.969,-3.64 c 2.847,0.12 9.371,-6.25 12.027,-13.32 5.313,-13.98 2.891,-29.45 -5.387,-34.57 -11.293,-6.95 -24.57,3.95 -16.8,13.83 1.371,1.76 3.589,3.48 4.918,3.91 5.82,1.83 7.152,10.97 4.031,26.79 -0.469,2.35 0.109,3.36 1.211,3.36 z m 42.179,-5.31 c 117.821,-38.59 251.49,-51.52 389.18,-23.32 0,0 -65.27,-266.52 -66.68,-266.64 l -322.5,289.96 z m -57.73,-0.82 c 6.211,0 7.34,-10.55 1.762,-16.13 -7.153,-7.15 -20.782,-1.41 -17.934,7.54 0.82,2.61 12.07,8.59 16.172,8.59 z m 33.871,-6.21 c 1.289,0.12 3.707,-2.46 7.578,-7.66 13.242,-17.81 14.25,-37.69 2.422,-46.75 -13.91,-10.63 -24.031,5.85 -12.461,20.27 3,3.71 3.43,10.62 1.641,25.9 -0.629,5.43 -0.473,8.16 0.82,8.24 z m 456.719,-6.41 c 1.52,0.04 4.21,-1.13 9.64,-3.79 8.44,-4.14 11.37,-10.15 7.31,-15.07 -5.9,-7.11 -22.11,6.99 -19.06,16.6 0.47,1.44 0.93,2.22 2.11,2.26 z m -12.7,-9.29 c 2.15,-0.2 5.51,-4.07 9.45,-11.96 2.5,-5.04 3.99,-6.48 8.25,-8.04 10.04,-3.64 11.91,-14.07 3.04,-17.15 -9.61,-3.36 -16.79,3.55 -21.17,20.47 -2.93,11.13 -2.26,16.95 0.43,16.68 z m -421.331,-7.46 c 1.453,0.11 4.261,-3.17 8.671,-9.73 13.211,-19.42 8.641,-56.72 -7.929,-65.43 -7.34,-3.83 -12.422,-3.01 -18.281,2.85 -8.59,8.59 -6.481,15.35 6.25,20.04 10.859,3.98 14.378,16.33 11.019,38.79 -1.328,8.94 -1.367,13.4 0.27,13.48 z m 62.703,-6.14 c 80.428,-66.33 153.078,-137.46 246.678,-220.47 22.22,68.4 54.61,210.39 54.72,210.86 -3.51,-2.93 -157.22,-24.72 -301.398,9.61 z m 301.398,-9.61 c 0.08,0.04 0.12,0.08 0.04,0.16 l -0.04,-0.16 z m 49.89,9.42 c 1.36,0 5.23,-10 7.42,-19.1 2.03,-8.25 10,-22.04 13.05,-22.58 15.85,-2.66 22.61,-11.53 14.76,-19.34 -5.74,-5.74 -18.16,-2.5 -24.18,6.33 -11.29,16.52 -18.98,54.69 -11.05,54.69 z m -897.538,-9.14 c 9.566,-0.08 18.75,-6.14 21.09,-18.56 2.699,-14.49 -5.512,-25 -12.422,-23.32 -7.5,2.81 -10.078,14.73 -10.078,14.73 0,0 -1.801,-9.69 -4.883,-14.61 -6.719,-10.27 -20.899,5 -18.36,19.8 2.461,14.5 13.789,22.03 24.653,21.96 z m 572.539,-3.83 c 87.579,-13.17 162.969,-16.56 267.459,-5.24 l -49.22,-191.17 -218.239,196.41 z m -66.18,-0.31 c 1.289,-0.08 3.949,-2.43 8.129,-6.8 13.59,-14.42 17.539,-34.38 8.672,-44.3 -5.391,-6.01 -8.981,-6.72 -14.723,-2.81 -7.308,5.04 -7.859,12.54 -1.14,16.02 6.14,3.2 6.722,10.19 1.839,23.47 -3.628,9.88 -4.687,14.53 -2.777,14.42 z m -571.48,-4.93 31.988,-13.28 11.449,-27.03 -31.918,8.24 -11.519,32.07 z m 121.019,-3.55 -9.5,-26.95 -24.64,-9.18 9.601,29.1 24.539,7.03 z m 834.88,-5.66 c 1.17,0 2.93,-3.4 5.08,-10.43 5.27,-17.43 7.54,-21.84 12.34,-24.15 7.85,-3.71 8.44,-13.24 1.02,-16.64 -4.73,-2.14 -6.29,-1.71 -9.61,2.7 -5.24,6.84 -9.46,19.96 -10.2,31.72 -0.74,11.05 -0.15,16.76 1.37,16.8 z m -356.29,-12.15 c 0.941,0.04 2.27,-1.33 4.301,-3.71 12.418,-14.77 13.789,-37.47 2.648,-44.26 -10.777,-6.56 -25.859,6.99 -16.437,14.84 0.816,0.7 2.769,2.27 4.328,3.44 2.621,1.99 2.859,3.16 3.09,16.01 0.16,9.54 0.511,13.56 2.07,13.68 z m 94.45,-1.6 153.25,-139.26 35.15,137.77 c -60.51,-5.43 -123.75,-3.83 -188.4,1.49 z m -376.399,-7 c 48.398,-51.13 111.75,-92.42 126.789,-143.24 26.961,-70 7.191,-151.17 -55.93,-197.58 -34.851,-26.36 -68.988,-54.14 -97.39,-87.65 -46.641,-49.61 -77.731,-103.83 -108.86,-143.17 -5.281,-6.64 -19.219,-27.42 -19.219,-27.42 0,0 -6.8,-7.81 -29.57,11.29 -60.43,53.71 -123.832,92.69 -188.359,129.8 l 27.34,15.28 c 53.867,-30.74 120.859,-74.46 181.097,-125.43 0,0 47.922,70 63.199,90.04 22.192,28.75 37.731,47.3 58.403,69.53 52.73,65.12 107.179,86.64 129.84,119.61 33.16,48.28 34.609,105.54 7.308,154.41 -26.918,46.64 -79.258,78.6 -114.027,117.23 l 19.379,17.3 z m 459.489,-3.79 59.88,0 c 0,0 -8.79,-7.3 -15.55,-11.83 -4.21,-2.81 -9.17,-2.42 -18.51,1.48 -9.02,3.79 -25.82,10.35 -25.82,10.35 z m 68.59,0 13.95,-0.39 c -10.43,-13.12 -21.13,-21.6 -35.16,-33.24 -1.79,-0.78 -2.81,-1.09 -7.03,0.27 -28.63,9.46 -54.92,21.49 -82.81,32.9 l 24.88,0.11 c 0,0 11.95,-3.83 29.92,-11.29 20.59,-8.55 25.94,-11.17 33.87,-5.97 7.7,5.11 14.02,12.77 22.38,17.61 z m 28.24,0 -5,-18.32 c -8.32,-10.43 -25.23,-22.46 -39.33,-34.33 -3.32,-1.72 -3.2,-2.03 -17.66,3.59 -53.24,20.67 -78.98,34.1 -78.98,34.1 l -10.82,9.69 c 0,0 13.9,-3.98 23.05,-7.58 6.24,-2.46 16.91,-6.52 23.67,-9.02 6.75,-2.5 21.75,-8.87 31.72,-12.81 23.04,-9.11 21.79,-9.38 43.86,10.11 23.91,21.1 29.49,24.57 29.49,24.57 z m -806.561,-1.68 23.242,-26.6 -30.973,-26.05 -23.398,27.54 31.129,25.11 z m 881.601,-0.03 c 5.36,-10 8.95,-21.8 17.62,-30.24 6.52,-6.21 8.17,-11.01 4.26,-14.53 -10.08,-6.25 -11.84,3.83 -14.96,10.43 -5.51,11.6 -12.23,27.3 -6.92,34.34 z m -840.191,-2.66 c 0.582,0.04 1.172,0 1.801,0 24.761,-0.35 30.621,-36.99 7.3,-45.78 -8.359,-3.13 -17.968,-1.72 -23.16,3.47 -5.039,5.04 -5.75,9.26 -2.269,11.92 5.347,3.83 18.16,4.06 18.16,4.06 0,0 -11.602,3.95 -16.789,6.84 -10.203,5.82 -1.371,18.86 14.957,19.49 z m 510.121,-0.04 c 1.398,-0.08 3.82,-2.93 7.219,-8.55 12.5,-20.67 11.839,-59.93 -1.168,-69.89 -6.801,-5.15 -15.231,-4.41 -20.903,1.84 -7.457,8.28 -5.148,16.64 5.942,21.56 10.699,4.73 12.89,15.31 8.519,41.52 -1.527,9.11 -1.41,13.64 0.391,13.52 z m -601.211,-0.66 c 7.383,0.27 14.531,-2.62 18.082,-8.44 2.617,-4.34 1.328,-7.5 -3.633,-9.65 -6.019,-2.38 -17.418,-4.53 -17.418,-4.53 0,0 11.051,-1.84 17.77,-4.53 8.359,-3.71 7.73,-10.51 -4.571,-16.33 -23.589,-11.21 -45.937,19.45 -26.449,37.07 4.539,4.1 10.43,6.21 16.219,6.41 z m 621.402,-14.81 c 0.199,0.04 0.391,0.04 0.59,0 2.18,-0.27 6.168,-3.4 10.188,-8.71 14.101,-18.67 16.531,-46.72 4.531,-52.19 -12.649,-5.74 -21.75,6.14 -12.649,16.57 6.481,7.38 5.661,18.16 -2.929,39.49 -1.25,3.12 -0.942,4.65 0.269,4.84 z m 304.259,-0.86 c 1.09,0.08 3.12,-4.41 6.37,-13.47 7.18,-19.97 13.32,-28.33 20.66,-28.33 9.26,0 14.14,-12.69 6.84,-17.81 -14.46,-10.11 -33.36,14.69 -34.77,45.55 -0.39,9.3 -0.19,13.94 0.9,14.06 z m -76.33,-9.96 -4.26,-16.29 c 0,0 -9.84,-9.57 -16.87,-15.66 -11.21,-9.65 -13.95,-11.56 -22.78,-8.56 -13.59,4.69 -27.07,8.95 -41.21,13.21 l -32.73,27.11 74.69,-29.18 c 0,0 6.48,-1.92 8.75,0.35 9.76,9.76 20.5,17.34 34.41,29.02 z m 70.47,-15.23 c 0.94,0.19 1.87,-1.02 2.54,-3.99 3.4,-15.31 8.32,-26.44 12.42,-28.16 5.24,-2.19 7.27,-6.72 5.04,-11.33 -6.33,-13.36 -23.05,10.2 -23.05,32.5 0,6.33 1.49,10.62 3.05,10.98 z m -269.61,-1.1 c 0.899,0.04 2.379,-1.29 4.692,-3.63 10.308,-10.31 13.438,-38.87 5.148,-47.15 -11.988,-11.99 -24.801,5.82 -13.16,18.32 3.09,3.28 3.09,3.52 2.34,18.17 -0.5,10.15 -0.539,14.21 0.98,14.29 z m -625.82,-2.85 -8.09,-26.76 -25.82,-6.68 6.058,22.07 27.852,11.37 z m 30.941,-2.73 c 2.028,0.07 4.368,-0.71 6.789,-2.46 10.508,-7.62 11.372,-20.63 6.489,-30.24 -4.731,-9.37 -14.34,-12.07 -23.629,-11.09 -12.07,1.33 -21.18,9.72 -20.551,22.61 0.191,6.45 3.012,13.6 7.383,16.65 3.09,2.14 5.59,1.25 8.238,-3.13 2.5,-4.34 6.719,-14.1 6.719,-14.1 0,0 0.16,10.04 1.57,15.19 1.172,4.11 3.711,6.45 6.992,6.57 z m 19.688,-2.35 18.711,-6.36 7.379,-25.39 -20.938,8.12 -5.152,23.63 z m 1065.971,-4.72 c 0,0 5.35,-2.27 30.9,-22.54 6.37,-5.08 17.15,-14.77 17.15,-14.77 l -0.63,-331.33 c 0,0 -50.31,27.19 -56.83,33.64 -3.48,3.71 -1.8,14.14 -0.59,33 5.9,49.65 8.32,87.66 14.69,133.6 4.45,51.17 14.3,65.86 -19.96,87.58 36.87,23.12 26.44,59.18 3.32,74.18 l 11.95,6.64 z m -300.66,-1.25 -3.4,-15.16 c -12.15,-20.78 -23.01,-19.73 -41.6,-10.12 l -22.31,18.99 c 14.46,-3.01 22.23,-7.62 36.33,-12.07 6.99,-1.96 9.57,-0.71 14.49,3.71 5.67,5.15 9.96,9.02 16.49,14.65 z m -165.43,-7.97 c 7.58,-8.28 9.53,-16.41 8.9,-36.49 -1.48,-14.29 -0.82,-24.92 -12.54,-32.93 -5.74,-3.75 -15.62,-3.75 -20.069,-0.04 -10.59,7.11 -4.731,21.33 9.14,22 8.789,0.15 12.379,28.82 7.419,46.75 -0.78,2.78 -0.59,4.61 0.78,4.73 1.41,0.16 3.95,-1.41 6.37,-4.02 z m 237.07,1.05 c 1.72,0.04 4.72,-4.33 6.52,-11.44 2.58,-10.32 6.21,-16.1 11.92,-19.03 7.3,-3.71 9.68,-10.89 5,-15.11 -9.3,-8.4 -18.79,1.68 -21.84,23.2 -0.16,2.46 -4.41,22.15 -1.6,22.38 z m 199.61,-3.51 c 20.7,-0.35 32.46,-14.85 32.42,-32.43 -0.24,-12.69 -7.15,-25.58 -19.92,-30.93 -30.43,-8.95 -47.07,11.4 -46.76,31.25 0.23,16.01 13.52,32.42 34.26,32.11 z m -418.56,-11.53 c 17.42,-17.42 18.21,-54.72 1.14,-54.72 -20.47,6.75 -4.5,18.86 -4.11,21.99 1.61,12.85 -1.32,21.09 -4.33,33.08 -1.33,7.11 5.39,1.72 7.3,-0.35 z m 419.65,1.72 c -3.67,0.08 -3.4,-3.59 3.32,-9.37 12.15,-10.47 6.21,-29.81 -9.22,-29.89 -7.07,-0.03 -8.83,-4.8 -2.61,-7.3 23.9,-9.61 40.23,26.76 18.78,41.87 -4.49,3.17 -8.08,4.61 -10.27,4.69 z M 537.422,1616 c 19.219,-6.52 25.859,-43.2 26.598,-56.13 0.859,-22.54 -9.61,-59.34 -18.981,-66.68 -24.18,-19.03 -35.551,48.28 -14.84,91.6 1.832,3.55 4.102,8.36 3.242,17.19 -0.863,8.79 0.618,13.98 3.981,14.02 z m 635.978,-3.52 c 0,0 -2.42,-11.01 -5,-16.99 -2.97,-6.95 -5.16,-7.19 -12.11,-1.25 -3.87,3.32 -10.27,10.16 -10.27,10.16 6.05,-0.94 11.44,-4.06 16.56,-1.52 5.51,2.69 9.92,7.77 10.82,9.6 z m 73.05,-0.58 c 1.36,-0.04 3.12,-3.87 5.43,-11.45 6.32,-20.78 11.87,-28.59 20.27,-28.59 13.75,0 16.76,-16.56 3.79,-20.82 -4.81,-1.56 -6.45,-1.56 -12.58,0.08 -9.26,2.46 -21.95,33.71 -20.12,49.61 0.82,7.5 1.84,11.21 3.21,11.17 z m -847.071,-12.07 c 5.031,0.12 7.031,-2.38 10,-8.52 3.351,-6.99 12.223,-15.86 19.723,-19.72 18.089,-8.87 37.109,-15.82 54.957,-24.73 23.171,-11.64 43.953,-47.27 29.73,-50.98 -5.16,-1.21 -11.09,-1.25 -16.367,-0.78 -1.723,0.9 -5.082,4.81 -7.461,8.71 -10.551,17.27 -30.313,34.22 -60.781,42.11 -21.481,5.59 -40.7,32.03 -44.84,44.49 -1.102,3.21 -1.141,5.75 1.75,6.57 6.14,1.75 10.238,2.77 13.289,2.85 z m 653.041,-2.15 c 0.98,0.16 2.38,-1.09 4.49,-3.36 12.78,-13.67 14.38,-38.75 2.89,-45.86 -12.46,-7.69 -23.35,5.04 -13.59,15.86 4.34,4.77 4.34,4.77 4.34,19.06 0,9.89 0.27,14.03 1.87,14.3 z m 186.1,-15.94 c 1.56,-0.08 3.86,-4.29 6.64,-12.65 3.94,-11.84 4.49,-12.78 8.98,-15.12 7.66,-3.95 8.91,-9.84 3.28,-15.47 -10.43,-10.43 -20.97,6.37 -21.01,33.55 0,6.53 0.78,9.73 2.11,9.69 z m -167.11,-1.87 c 0.93,-0.08 3.59,-2.19 5.66,-4.61 15.66,-18.6 12.54,-62.07 -4.96,-68.6 -5.82,-2.18 -7.62,-2.3 -11.21,-0.74 -13.05,5.63 -11.45,19.38 4.61,28.13 11.99,6.52 3.44,45.66 5.9,45.82 z m -800.789,-13.71 64.649,-32.07 c 0,0 17.742,-37.35 25.902,-51.33 5.59,-9.69 16.797,-19.06 5.238,-25.55 -19.461,-13.16 -30.469,-20.7 -30.32,-28.87 0.16,-6.64 8.359,-13.39 19.461,-26.44 15.929,-18.75 15.777,-14.42 1.328,-43.01 -11.098,-20.04 -20.508,-65.43 -20.508,-65.43 l -65.32,-33.67 c 19.418,46.44 42.308,85.94 67.969,114.18 -19.059,14.14 -35.071,28.87 -51.79,48.44 12.34,16.52 28.59,29.84 43.629,44.18 -30.507,34.49 -49.609,67.57 -60.238,99.57 z m 817.859,-0.59 c 0.07,0.04 0.23,0.04 0.35,0 2.69,-0.16 8.9,-6.91 14.33,-17.73 7.04,-13.95 7.7,-31.57 1.45,-37.82 -10.74,-10.74 -24.81,3.09 -14.73,14.57 7.11,5.16 5.2,17.97 -0.43,31.33 -2.57,6.41 -2.54,9.42 -0.97,9.65 z m -825,-6.25 c 16.79,-35.74 35.622,-64.84 54.918,-92.38 l -42.07,-44.14 c 12.934,-15.04 28.633,-31.17 50.703,-49.92 -27.07,-30.12 -44.84,-72.27 -62.621,-112.04 l -0.93,298.48 z m 967.85,-0.78 c 1.48,-0.12 3.55,-4.45 5.66,-13.16 2.7,-10.98 4.53,-13.79 10.94,-16.53 10.16,-4.37 10.39,-14.22 0.43,-17.73 -3.67,-1.29 -10.55,2.38 -13.36,7.18 -3.75,6.88 -5.66,16.14 -5.62,24.58 -0.59,10.46 0.31,15.78 1.95,15.66 z m 233.36,-6.6 c 15.9,-4.46 21.64,-20.43 18.55,-49.96 -4.18,-39.5 -9.02,-83.4 -13.01,-119.69 -4.57,-41.88 -7.22,-63.59 -8.24,-65.24 -3.2,-5.23 -3.75,14.42 -1.4,36.29 3.55,31.25 5.5,58.64 8.51,89.89 6.76,69.49 5.12,91.44 -7.46,97.85 -9.73,4.96 -13.91,2.03 -6.72,-4.73 13.67,-10.55 13.24,-14.96 -1.37,-186.09 -1.52,-17.7 -2.14,-30.24 -2.14,-30.24 l -18.56,11.57 c 0,0 -1.4,14.64 -3.12,36.79 -4.18,41.72 -6.64,86.21 -9.42,126.17 -3.01,42.66 5,57.62 31.45,58.64 4.26,0.15 8.94,-0.16 12.93,-1.25 z m -341.41,-24.81 c 2.03,-5.66 11.25,-47.73 -12.34,-35.66 -6.29,3.55 -6.64,9.14 -1.99,14.53 5.19,6.05 6.4,14.73 3.78,27.11 -1.56,7.54 -3.47,13.79 -3.47,13.79 4.53,-1.64 13.51,-18.28 14.02,-19.77 z m -702.03,13.21 c 20,-3.79 41.91,-15.47 56.051,-30.04 8.789,-9.3 8.32,-16.8 -5.391,-17.7 -13.199,-1.95 -13.469,-4.06 -19.762,1.37 -2.847,2.23 -8.359,7.66 -14.648,8.63 -19.922,3.09 -30.121,40.35 -16.25,37.74 z m 806.17,-11.02 c 2.11,-3.4 2.31,-10.04 4.06,-14.8 3.01,-13.36 12.15,-23.21 20.36,-22 5.54,0.67 13.16,-1.01 13.98,-7.61 1.6,-5.59 -1.33,-10.86 -7.38,-13.32 -6.84,-2.74 -14.57,-1.06 -20.39,4.45 -12.31,11.52 -19.81,49.26 -10.63,53.28 z m -96.05,-0.55 c 7.15,-2.73 16.29,-25.66 17.26,-43.86 -0.04,-13.01 -2.03,-29.42 -13.28,-35.63 -7.11,-3.67 -14.49,-1.83 -17.73,4.42 -3.95,7.61 -1.02,15.54 7.15,19.21 10,4.5 13.28,24.81 7.18,44.57 -0.35,3.32 -5.35,12.66 -0.58,11.29 z m -762.929,-9.49 52.688,-26.72 c -7.649,-10.47 -13.668,-20.15 -17.848,-31.21 -16.722,18.99 -25.511,38.36 -34.84,57.93 z m 782.729,-9.14 c 0.9,0 3.91,-2.89 6.56,-5.47 13.17,-12.73 18.83,-35.86 10.9,-44.29 -6.33,-6.76 -17.46,-6.29 -19.29,0.82 -0.67,3.47 3,9.96 4.64,13.08 2.43,4.69 2.86,17.97 -0.82,27.7 -1.64,4.33 -3.16,8.12 -1.99,8.16 z m -366.131,-5.27 59.531,-2.03 199.49,-179.69 -18.71,0.43 -183.319,167.03 -57.031,-0.16 0.039,14.42 z M 441.91,1472.52 c -22.73,-36.13 -28.898,-81.68 -14.961,-122.18 10.59,-28.71 -12.539,-30.39 -22.027,-11.49 -7.301,14.14 -11.481,38.75 -9.301,64.96 3.129,42.42 22.699,84.96 38.359,90.08 15.899,5.2 12.43,-15.62 7.93,-21.37 z m 817.47,-86.99 c -6.06,-28.24 -17.27,-42.3 -33.17,-48.16 -65.12,-24.07 -93.48,107.3 -33.09,138.71 57.62,19.14 74.26,-53.2 66.26,-90.55 z m -477.97,85.86 56.168,-1.17 c 51.211,-46.56 106.25,-90 161.012,-146.64 l -26.481,0 c 0,0 -7.769,7.38 -9.57,9.1 -49.527,44.26 -86.211,80.35 -133.988,121.45 l -50.11,1.4 2.969,15.86 z m 428.51,-8.67 c -30.39,-1.25 -32.85,-42.38 -31.95,-57.97 2.23,-22.46 11.17,-55.62 39.69,-53.01 20.89,2.07 30.58,26.84 28.67,56.6 -1.8,27.97 -13.21,54.42 -36.41,54.38 z m -433.631,-13.67 49.301,-1.1 c 43.39,-37.85 89.289,-78.98 134.922,-124.37 l -21.492,0 c 0,0 -5.622,5.35 -7.301,7.07 -36.949,33.4 -74.489,70.58 -110.309,100.58 l -51.14,2.04 6.019,15.78 z m 434.411,-1.6 c 8.64,-3.21 10.08,-24.18 2.54,-32.9 -5.15,-5.97 -16.99,5.32 -18.04,19.54 -0.67,8.67 7.77,16.25 15.5,13.36 z m -814.45,-2.62 c -3.949,-13.6 -6.559,-28.83 -8.199,-45.35 l -20.59,26.21 28.789,19.14 z m 830.12,-25.28 c 5.04,0 9.14,-4.06 9.14,-9.1 0,-5.04 -4.1,-9.14 -9.14,-9.14 -5.04,0 -9.1,4.1 -9.1,9.14 0,5.04 4.06,9.1 9.1,9.1 z m -414.03,-4.57 98.211,-92.34 -27.973,-0.31 -80.547,73.05 -51.133,1.91 10,17.42 51.442,0.27 z m 381.96,-1.6 c 5.04,0 9.1,-4.06 9.1,-9.1 0,-5.04 -4.06,-9.1 -9.1,-9.1 -5.04,0 -9.1,4.06 -9.1,9.1 0,5.04 4.06,9.1 9.1,9.1 z m 116.91,-0.15 c 55.35,-43.05 133.52,-100.12 214.69,-146.45 0,0.16 -13.4,-10.51 -25.7,-13.87 -63.17,34.85 -138.36,83.95 -184.93,123.79 -43.94,-64.72 -128.39,-182.42 -203.43,-236.75 -47.39,-33.91 -71.25,-75.67 -71.1,-124.5 0.12,-50.501 17.97,-83.399 67.66,-124.759 32.03,-26.679 67.07,-60.742 67.07,-60.742 l -18.4,-15.898 c -3.09,0.39 -53.79,44.058 -105.08,95.539 -28.16,28.32 -40.7,90.43 -35.94,123.99 6.53,45.55 21.72,78.24 64.97,113.44 16.56,12.81 33.32,22.81 47.96,37.42 134.26,143.63 182.23,228.79 182.23,228.79 z m -89.88,-23.48 c 5.08,-10.43 7.89,-24.14 -8.05,-25.04 -9.41,-0.55 -14.8,15.12 -6.64,29.1 6.17,11.02 11.68,1.64 14.69,-4.06 z m -473.17,2.77 53.012,-1.6 c 0,0 52.308,-45.54 78.668,-70.82 l 177.58,0 c 97.66,0 177.93,-0.39 178.4,-0.82 1.21,-1.21 -12.62,-19.8 -12.62,-19.8 l -585.661,-0.32 c 0.121,0.08 36.172,32.19 49.063,41.18 22.886,15.97 43.828,30.82 61.558,52.18 z m -358.859,-22.07 c 3.82,-14.14 7.027,-28.55 13.668,-41.56 l -40.668,-21.6 c 7.469,21.52 16.019,42.23 27,63.16 z M 1518.44,1252.91 c -8.09,-21.99 -29.22,-66.91 -54.73,-100.93 -5.08,-6.53 -8.55,-11.64 -8.55,-11.64 l 49.8,-47.7 -43.24,-45.98 c 24.3,-25.27 44.84,-63.941 55.62,-94.762 -19.61,7.731 -30.62,12.422 -54.8,25.903 -6.84,17.148 -13.83,35.309 -21.52,50.969 -17.62,35.78 -17.39,32.27 -2.97,42.82 21.09,15.39 27.34,18.94 21.87,26.71 -3.87,5.47 -28.75,35 -30.23,35.94 -2.31,1.41 -1.29,5.78 2.97,12.78 14.41,25.89 26.21,54.41 33.59,79.76 l 52.19,26.13 z m 9.41,-1.79 1.33,-300.632 c -17.85,35.942 -36.41,72.622 -57.11,95.552 -0.78,1.56 45.12,46.37 45.12,46.37 -16.8,15.58 -26.64,24.92 -50.16,46.56 22.89,32.97 41.02,76.09 60.82,112.15 z m -1263.362,-10.43 57.114,-33.17 c -3.012,-42.42 -6.801,-98.04 -12.653,-154.53 -4.929,-44.06 -6.961,-64.369 0.852,-76.599 6.648,-8.942 24.461,-18.629 24.461,-18.629 -30.043,-12.153 -41.602,-48.012 -7.934,-74.852 0,0 -8.207,-6.441 -11.84,-10.308 l -46.828,35.039 -3.172,333.049 z m 893.992,-15.2 c -14.22,-15.97 -36.57,-39.61 -53.71,-50.94 -22.86,-15.11 -54.93,-44.06 -53.4,-44.53 0,0 -33.6,0.2 -56.37,1.1 l -78.551,70.08 c 0,0 2.813,1.05 -104.109,0.15 -138.16,-1.13 -250.11,0.39 -250.11,0.39 l 15.661,22.03 580.589,1.72 z m 280,-13.79 c -7.74,-24.84 -19.73,-47.81 -34.93,-69.33 -3.51,15.27 -5.43,31.48 -12.81,44.45 l 47.74,24.88 z m -1109.609,-7.97 6.828,-4.88 c 0,0 -4.058,-51.87 -5.429,-67.03 -2.379,-28.05 -3.59,-53.32 -6.008,-81.91 -4.922,-56.719 -4.102,-65.082 7.027,-73.871 8.551,-6.41 14.41,-3.48 6.801,4.609 -5,6.442 -4.969,6.332 -6.488,15.782 -1.051,6.6 -0.903,16.41 0.589,43.01 8.508,149.92 10.27,154.96 10.43,155 l 17.07,-11.06 c -0.941,-2.3 15.661,-151.09 13.981,-188.04 -1.992,-43.289 -60.192,-33.711 -62.934,-1.61 -1.168,7.39 9.883,128.79 9.883,128.79 l 8.25,81.21 z m 474.801,-8.71 22.848,-0.66 140.98,-129.57 48.05,-1.02 -4.22,-16.36 -46.408,0.11 -161.25,147.5 z m 87.418,0 22.109,0 80.672,-73.12 49.649,-0.78 -9.46,-14.07 -49.369,1.41 -93.601,86.56 z m -27.539,-0.07 119.219,-107.54 40.67,-2.11 -6.25,-14.69 -48.21,1.33 -133.98,122.73 28.551,0.28 z m -115,-0.4 24.769,0 186.45,-167.85 48.82,-0.86 -0.7,-15.11 -58.831,0.23 -200.508,183.59 z m 627.349,-4.76 c 9.84,-2.46 14.69,-11.99 21.64,-47.34 8.08,-41.25 -9.45,-108.17 -31.41,-120.75 -11.36,-8.94 -23.71,0.55 -15.7,12.19 26.21,38.05 29.65,100.31 14.18,135.12 -4.92,11.17 0.12,22.77 11.29,20.78 z M 585,1183.58 c 59.57,-0.7 74.961,-123.05 16.371,-140.2 -38.09,-5.62 -57.699,28.83 -63.211,59.92 -6.519,38.64 10.512,80.71 46.84,80.28 z m -32.77,-73.4 c 3.59,-24.49 18.79,-52.58 40.891,-50.16 29.07,3.13 32.699,41.96 29.848,61.49 -3.481,23.55 -16.489,44.92 -37.27,46.13 -30.929,1.72 -36.211,-38.51 -33.469,-57.46 z m 31.95,47.62 c 8.32,0.15 14.41,-10.94 12.148,-24.73 -1.449,-8.91 -4.848,-19.88 -14.879,-12.42 -4.648,4.26 -8.871,16.76 -7.738,26.09 0.738,6.14 3.789,10.9 10.469,11.06 z m 821.37,-28.25 27.97,-32.38 -31.76,-22.26 c 4.45,17.03 5.94,35.11 3.79,54.64 z m -801.101,-2.92 c 5.039,0 9.102,-4.15 9.102,-9.18 0,-5.04 -4.063,-9.11 -9.102,-9.11 -5.039,0 -9.097,4.07 -9.097,9.11 0,5.03 4.058,9.18 9.097,9.18 z M 571.84,1121 c 5.039,0 9.101,-4.06 9.101,-9.1 0,-5.04 -4.062,-9.14 -9.101,-9.14 -5.039,0 -9.18,4.1 -9.18,9.14 0,5.04 4.141,9.1 9.18,9.1 z m 18.469,-11.76 c 4.57,-1.4 7.5,-5.62 9.961,-9.26 6.101,-9.1 6.878,-20.46 2.539,-25.23 -8.75,-10.43 -22.418,0.7 -20.778,16.8 1.207,11.75 4.34,18.86 8.278,17.69 z m 78.089,-35.7 c 13.082,0 16.762,-15.43 5.512,-22.97 -7.351,-4.92 -8.988,-20.86 -4.461,-42.93 3.672,-15.941 1.762,-18.441 -7.769,-4.06 -16.25,26.05 -12.032,69.96 6.718,69.96 z m -30.589,-8.4 c 11.453,0.43 15.16,-8.32 8.441,-15.04 -3.91,-4.33 -3.52,-15.82 0.859,-25.27 6.211,-13.67 4.731,-17.81 -6.839,-4.65 -16.008,17.11 -15.782,44.45 -2.461,44.96 z m 758.361,-6.64 c 13.01,-17.3 24.57,-39.88 35.08,-65.469 l -56.41,25.899 21.33,39.57 z M 571.48,988.93 c -3.98,4.609 -5.929,19.57 -9.179,25.98 -2.571,7.65 -4.762,12.14 -8.903,11.87 -23.867,-1.99 -22.847,20.78 -9.136,25.12 28.316,8.9 38.629,-59.49 27.218,-62.97 z m 118.321,23.01 c -4.063,-11.96 -1.09,-19.1 -0.27,-31.881 0.699,-5.778 1.02,-7.34 -3.75,-2.887 -11.293,9.879 -17.301,43.558 -7.152,49.808 13.711,8.4 17.851,-5.78 11.172,-15.04 z m 565.399,15.97 c 5.54,0.24 11.79,-4.06 14.92,-11.99 4.49,-11.37 4.06,-39.291 1.79,-54.139 -3.43,-22.73 -8.94,-43.633 -11.17,-59.301 -8.01,-9.492 -27.65,24.11 -29.53,50.59 -3.09,21.02 4.14,64.69 20.31,73.91 1.18,0.54 2.39,0.86 3.68,0.93 z m 76.17,-3.59 c 4.96,0.23 3.83,-1.44 7.5,-5.27 5.54,-5.82 7.81,-7.23 15.66,-9.69 16.17,-5.08 33.99,-27.661 27.11,-34.489 -5.43,-4.301 -20.16,3.789 -25.19,5.539 -5.43,1.84 -12.19,4.18 -15.04,5.121 -13.56,4.61 -33.09,29.609 -27,34.649 3.25,2.7 13.13,3.98 16.96,4.14 z m -39.46,-4.14 c 10.04,-0.12 12.78,-2.62 18.52,-13.4 8.52,-15.979 24.3,-27.26 47.23,-33.792 29.29,-8.898 54.57,-25.898 53.36,-57.34 -7,-0.078 -13.99,-0.546 -20.98,-2.66 -8.13,22.813 -28.28,35.903 -45.63,39.813 -40.03,9.097 -77.22,49.719 -66.64,65.819 4.61,2.38 9.57,1.6 14.14,1.56 z m -690.621,-1.99 345.902,-301.21 c -145.98,54.141 -279.89,52.969 -409.382,32.969 l 63.48,268.241 z m 147.5,-19.96 c -0.629,-9.378 -13.519,-11.371 -16.168,-13.71 -6.449,-5.629 -5.59,-21.84 -2.851,-40.79 2.14,-11.359 -0.711,-10.851 -6.68,-1.949 -10.59,15.778 -10.36,43.129 -3.36,59.219 9.059,20.74 30,10.35 29.059,-2.77 z m -198.91,14.76 c 13.281,-1.4 16.961,-19.451 17.5,-31.4 0,-16.488 -4.68,-15.86 -7.34,0 -1.25,7.031 -3.437,9.762 -9.098,11.48 -12.89,3.871 -13.75,19.92 -1.062,19.92 z m 160.742,-18.439 c -3.391,-3.75 -3.473,-21.211 -0.391,-32.961 1.719,-6.488 -1.441,-7 -5.851,-1.84 -14.301,16.762 -15.629,45.23 -2.348,50.74 10.821,2.81 13.629,-10.39 8.59,-15.939 z M 560.98,960.879 c 0.309,-16.75 -3.48,-18.277 -8.558,-2.219 -1.293,3.75 -3.551,7.5 -5.192,8.629 -9.421,6.441 -11.101,11.441 -5.628,16.91 13.398,10.942 19.218,-18.32 19.378,-23.32 z m 50.54,14.769 -46.872,-200 C 680.039,785.34 732.5,787.371 855.82,763.27 l -244.3,212.378 z m 139.851,-3.277 c 7.07,-1.801 9.488,-10.98 1.25,-19.73 -2.699,-3.442 -5.199,-8.75 -1.922,-22.891 4.531,-19.371 -3.078,-13.16 -12.301,5.121 -5.898,11.68 -3.199,41.52 12.973,37.5 z M 530.59,971.738 c 12.531,0 24.18,-20.347 24.371,-42.609 0.117,-18.008 -2.461,-16.719 -9.141,0.5 -4.691,11.371 -8.519,15.473 -17.031,18.441 -15.82,5.508 -14.449,23.668 1.801,23.668 z m 84.762,-5.777 217.187,-189.801 c -88.949,14.219 -176.25,15.309 -261.059,4.641 l 43.872,185.16 z m 180.738,-7.152 c 17.031,0 23.75,-21.047 2.859,-28.399 -12.469,-4.41 -7.148,-29.57 -4.847,-44.531 0.859,-5.617 -0.903,-6.051 -4.493,-1.008 -13.129,19.367 -20.468,68.199 6.481,73.938 z m -23,-23.668 c -3.09,-4.84 -3.442,-10.082 -1.289,-19.532 5.5,-20.308 6.949,-24.058 -4.571,-13.711 -12.152,12.813 -17.46,38.243 -7.269,45.743 11.41,8.48 21.68,-0.903 13.129,-12.5 z m -429.18,15.66 c 20.149,0.16 34.801,-12.891 34.02,-31.09 -0.86,-20.039 -13.399,-32.691 -31.84,-33.75 -20.578,-1.012 -33.32,15.391 -33.75,32.418 -0.43,15 9.14,32.269 31.57,32.422 z m -0.359,-8.039 c -23.082,0.078 -31.711,-30.313 -12.61,-44.383 8.2,-6.008 14.649,-4.328 7.93,2.07 -12.699,12.071 -7.582,32 9.098,35.672 8.281,1.789 5.082,6.641 -4.418,6.641 z m 280.937,-5.16 -27.769,-134.692 c 56.832,8.828 125.551,6.141 178.59,1.141 L 624.488,937.602 z m -93.547,-5.122 c 13.829,0.711 17.848,-20.07 17.969,-28.32 0,-10.699 -1.25,-16.281 -3.25,-10.539 -4.64,13.469 -9.211,20.899 -14.211,20.899 -2.699,0.66 -5.039,1.75 -7.187,4.21 -4.922,6.489 -0.16,13.481 6.679,13.75 z m 96.129,-5.351 18.321,-15.539 c -11.801,5.148 -21.84,-8.211 -21.84,-8.211 l 3.519,23.75 z m 188.481,-25.43 c -5.321,-6.679 -5.281,-20.777 -1.172,-37.219 1.172,-4.57 -3.129,-1.179 -7.469,4.29 -8.199,10.32 -12.031,22.429 -10.539,32.351 1.641,25.078 33.469,20.188 19.18,0.578 z m -289.692,12 c 11.84,-1.328 16.332,-26.097 16.051,-33.597 -0.39,-7.852 -2.18,-13.122 -3.75,-8.364 -3.039,10.352 -9.332,25.203 -14.801,28.602 -9.379,5.859 -6.718,12.539 2.5,13.359 z M 1433.2,885.961 c 0.43,-8.711 -3.2,-17.66 -8.59,-20.551 -5.47,-2.93 -8.83,1.059 -12.11,11.141 -2.42,7.379 -3.28,10.23 -3.28,10.23 0,0 -2.03,-9.261 -2.66,-11.211 -4.29,-12.808 -18.24,-12.968 -24.1,1.41 -6.21,16.719 11.17,33.86 24.53,33.239 14.81,-0.668 25.43,-10.239 26.21,-24.258 z m -791.52,18.668 c 4.179,0 20.308,-7.219 20.308,-7.219 l 16.102,-14.219 c 0,0 -14.809,6.399 -20,8.278 -12.469,4.371 -12.192,4.41 -22.231,-3.789 -10.347,-8.442 -18.871,-14.649 -18.871,-14.649 l 3.211,18.278 c 0,0 15.11,13.32 21.481,13.32 z M 536.172,859.75 c 2.379,-19.301 -3.051,-20.941 -8.281,-2.5 -4.493,15.781 -8.911,21.559 -16.52,21.559 -14.07,-2.11 -18.793,18.711 -6.172,22.929 23.821,6.684 29.961,-34.367 30.973,-41.988 z m 816.288,42.34 21.99,-10.192 4.65,-22.738 -20.23,5 -6.41,27.93 z m -492.3,-2.07 c 21.129,5.859 23.75,-20.469 7.539,-24.329 -9.89,-2.39 -9.808,-17.703 -7,-39.961 0.629,-5.082 2,-11.25 1.68,-12.109 -1.481,-4.031 -6.52,2.149 -13.32,16.399 -10.11,26.019 -6.95,55 11.101,60 z m 604.29,0.32 -6.09,-26.289 -18.59,1.25 -0.71,16.129 25.39,8.91 z M 838.48,883.23 c -10.199,-14.73 -1.058,-28.32 1.211,-39.89 0.387,-6.68 -8.242,-0.11 -13.242,9.648 -10.398,20.352 -10.98,36.801 -1.648,44.141 13.09,7.699 19.109,-6.008 13.679,-13.899 z m -190.628,3.59 c 3.597,0 8.476,-1.949 18.668,-5.898 7.781,-3.012 25.71,-10.274 25.71,-10.274 l 23.75,-20.976 c 0,0 -20.859,7.699 -35.359,13.828 -32.691,13.789 -28,14.262 -53.82,-5.43 -7.461,-5.66 -15.242,-12.148 -15.242,-12.148 l 3.171,16.84 c 0,0 9.758,9.687 21.911,18.468 5.238,3.75 7.621,5.629 11.211,5.59 z m -303.981,-7.929 c 16.719,0.468 27.688,-12.852 31.719,-27.692 2.34,-8.64 0.308,-16.57 -0.16,-24.847 C 363.91,737.91 358.828,655.84 348.199,573.93 c -1.289,-3.91 -2.73,-2.461 -4.41,4.57 -12.309,74.262 -20.309,155.781 -30.629,229.379 -2.34,27.461 -9.449,63.391 25.32,70.422 1.829,0.359 3.668,0.508 5.391,0.59 z m -1.019,-9.801 c -7.383,-0.32 -16.09,-5.391 -19.18,-11.918 -6.332,-13.32 -4.692,-40.473 7.348,-121.793 1.011,-6.758 2.378,-18.051 3.082,-25.117 2.109,-21.602 4.957,-38.75 7.027,-41.922 3.949,-6.051 4.461,0.43 1.601,21.57 -1.441,10.781 -3.39,27.262 -4.332,36.641 -5.386,38.551 -6.558,66.008 -9.918,101.211 -1.679,17.297 5.27,30.039 18.36,33.508 7.07,1.839 7.422,5.039 0.82,7.191 -1.449,0.469 -3.09,0.668 -4.808,0.629 z m 1105.978,-1.102 c 24.45,-0.078 33.44,-34.258 9.53,-46.328 -8.87,-4.449 -23.75,-2.34 -27.46,4.809 -1.8,5.551 0.23,8.793 4.65,11.133 5.39,2.886 13.32,5.347 13.32,5.347 0,0 -12.97,2.5 -16.6,8.641 -7.86,13.199 6.56,16.129 16.56,16.398 z M 529.801,831.121 c -0.27,-6.492 -3.551,-3.793 -4.371,0 -2.621,8.551 -8.129,17.848 -12.731,21.559 -5.551,4.449 -6.879,10.55 -3.129,14.3 14.18,12.54 20.16,-31.878 20.231,-35.859 z m 828.749,36.949 c 6.25,0.2 14.73,-1.949 20.12,-7.3 6.95,-6.961 6.56,-9.571 -5.08,-13.79 -5.62,-2.109 -9.53,-3.75 -9.53,-3.75 0,0 5.28,-2.07 9.14,-3.128 11.18,-3.75 10.59,-10.192 0.35,-17.852 -13.98,-10.43 -36.36,3.398 -36.13,21.719 0.24,14.531 9.18,23.75 21.13,24.101 z m 51.57,0.121 22.3,-24.57 -26.09,-27.031 -24.53,26.949 28.32,24.652 z m -758.241,-2.312 c 0.312,0 0.621,0 0.973,0 6.918,-0.149 17.929,-4.801 45,-15.699 14.878,-5.981 32.027,-12.809 32.027,-12.809 l 24.383,-21.531 c 0,0 -33.364,10.469 -44.961,16.332 -2.539,1.289 -8.09,3.629 -12.352,5.238 -4.219,1.602 -14.758,5.699 -23.398,9.18 -18.59,7.5 -18.781,7.539 -25,2.262 -2.692,-2.223 -9.211,-7.34 -14.531,-11.372 -5.309,-4.019 -13.04,-9.921 -17.219,-13.082 -4.922,-3.707 -11.141,-9.378 -11.141,-9.378 l 3.949,20.781 c 0,0 3.512,3.437 9.77,8.211 5.07,3.898 13.742,10.539 19.211,14.758 5.59,4.261 8.519,6.878 13.289,7.109 z m 239.492,-18.238 c 0.66,-4.34 0.27,-5.161 -4.73,-10.231 -6.25,-6.41 -7.11,-16.922 -2.539,-30.551 1.289,-3.75 2.847,-8.199 2.5,-8.558 -6.641,-6.641 -24.102,35.277 -19.961,47.777 5,14.922 21.41,15.152 24.73,1.563 z M 508.398,845.84 c 4.571,0.199 9.883,-3.281 12.543,-10.461 7.219,-20.16 2.809,-44.891 -4.57,-21.879 -1.922,4.879 -5.242,10.121 -7.742,12.77 -2.578,2.781 -8.399,5.98 -8.277,10.429 0.546,5.903 4.027,8.949 8.046,9.141 z m 149.301,-0.578 c 2.922,-0.082 6.832,-1.563 13.821,-4.422 6.371,-2.61 24.218,-8.551 34.378,-12.461 15.782,-6.09 32.223,-14.141 32.223,-14.141 l -35.699,1.992 c 0,0 -12.113,4.071 -19.332,7.04 -26.141,10.742 -24.692,10.66 -37.699,0.781 -4.653,-3.52 -10.512,-9.223 -10.512,-9.223 l -18.16,-1.019 c 0,0 8.551,9.101 20.859,18.242 4.024,3.008 9.531,7.269 12.192,9.461 3.082,2.578 5,3.828 7.929,3.75 z m 279.289,-7.032 c 9.922,1.872 15.391,-7.621 14.731,-13.519 -0.668,-6.481 -6.68,-12.93 -15.938,-14.731 -1.953,-7.218 -7.5,-23.781 -4.261,-48.429 2.621,-11.571 -2.301,-11.801 -7.258,-0.75 -8.09,17.969 -19.883,71.25 12.726,77.429 z m -28.359,-19.769 c -4.219,-9.02 -5.66,-16.289 -3.359,-27.66 2.582,-12.61 3.128,-15.699 -4.02,-7.813 -13.91,18.524 -15.941,48.012 -3.129,51.371 12.348,3.282 15.078,-10.121 10.508,-15.898 z M 492.148,832.25 c 21.68,-3.441 28.082,-40.352 25.043,-56.172 -5.742,-19.098 -5.429,-6.207 -7.461,1.801 -5.32,19.211 -11.492,29.68 -18.089,30.781 -17.813,2.969 -15.313,26.09 0.507,23.59 z m 166.211,-7.27 c 0.352,0.04 0.7,-0.031 1.02,-0.07 7.141,-1.211 26.242,-7.109 18,-9.07 l -28.199,-0.149 c -5.469,-0.242 3.55,8.899 9.179,9.289 z m 759.301,-6.05 c 2.73,0.269 6.44,-2.93 10.82,-7.418 10.04,-10.203 5.66,-26.332 -7.89,-34.262 -21.29,-12.461 -45.51,11.02 -33.83,32.621 6.4,11.828 14.1,9.719 20.7,-6.992 1.17,-2.039 -0.04,2.101 2.23,7.18 2.22,5.082 5.23,8.64 7.97,8.871 z m -35.71,-1.168 -6.4,-25.711 -25.9,-12.461 9.45,31.64 22.85,6.532 z m 53.95,-4.383 20.62,-1.68 11.49,-33.398 -29.77,12.699 -2.34,22.379 z M 947.73,794.48 c 15.04,-0.589 16.571,-14.808 7.93,-21.019 -4.84,-4.609 -6.48,-11.332 -5.5,-22.031 0.461,-4.77 1.399,-10.59 1.36,-11.289 -0.149,-2.262 -2.032,-1.911 -4.61,0.898 -15.89,17.301 -13.75,54.063 0.82,53.441 z m -454.492,-5.55 c 9.532,0 20.313,-27.27 15,-37.7 -3.359,-6.128 -6.558,-4.64 -7.808,2.5 -0.899,5.161 -3.871,12.231 -11.52,13.52 -11.18,3.551 -7.539,21.68 4.328,21.68 z m 481.961,-16.481 c 7.301,-3.789 7.961,-12.148 1.403,-16.84 -5.122,-3.629 -6.442,-6.679 -7.223,-16.519 1.672,-22.43 -10.938,-8.211 -12.109,12.18 -0.629,11.101 5.351,27.539 17.929,21.179 z M 485.23,765.531 c 6.84,0 14.969,-12.261 13.168,-19.41 -0.976,-5.711 -3.949,-4.691 -8.128,-0.473 -1.598,1.293 -5.231,2.582 -6.911,3.082 -10.238,3.09 -8.519,16.801 1.871,16.801 z m 194.219,-9.41 c 92.391,0.43 188.481,-14.223 268.321,-46.141 l -6.559,-11.789 -20.981,7.188 -7.179,-18.988 17.258,-6.602 -8.118,-17.539 c -94.261,31.02 -195.902,54.102 -364.812,29.102 -8.399,5.82 -23.551,17.347 -23.551,17.347 l 13.512,2.961 -1.789,18.75 -34.102,-6.051 -9.969,10.43 c 53.321,13.672 114.77,21.051 177.969,21.332 z m 309.852,-4.101 c 8.82,-0.04 14.329,-9.969 7.847,-14.219 -4.527,-2.973 -14.648,-3.789 -16.679,-1.332 -4.18,5.043 1.761,15.551 8.832,15.551 z m -322.891,-11.641 -0.359,-19.457 27.859,0.898 0.539,18.442 -28.039,0.117 z m 48.668,-0.399 0.121,-19.14 27.071,-0.891 1.25,18.75 -28.442,1.281 z m -70.738,-1.32 -27.352,-1.801 0.864,-17.847 27.109,1.168 -0.621,18.48 z m 122.301,-2.969 -0.7,-18.441 27.5,-3.012 1.989,18.711 -28.789,2.742 z m -173.2,-0.863 -27.5,-3.519 2.34,-18.36 26.758,2.973 -1.598,18.906 z m 226.36,-5.976 -2.692,-19.262 25.661,-3.789 3.32,18.289 -26.289,4.762 z M 1270,723.27 c 12.38,-17.348 24.22,-32.11 32.46,-51.489 10.59,-24.883 17.7,-57.383 17.66,-84.179 0,-16.012 -11.17,-12.813 -13.44,3.867 -9.65,70.23 -94.14,80.781 -127.34,15.941 -8.64,-18.601 -10.28,-41.531 -5.75,-67.148 16.06,-90.551 130.2,-178.012 166.02,-273.051 67.19,137.738 126.17,159.098 156.76,271.211 24.61,86.168 -59.26,150.277 -120.08,94.457 -11.09,-10.238 -21.37,-29.258 -22.54,-41.84 -2.54,-20.16 -11.48,-17.187 -12.34,-0.508 -0.32,17.5 7.18,51.129 17.81,81.098 5.62,15.82 14.06,35.269 25.43,51.641 l -114.65,0 z m -399.34,-5.2 -2.539,-19.41 26.059,-5.551 3.519,18.051 -27.039,6.91 z M 686.051,695.691 c 86.609,0.11 165.508,-14.812 232,-40.082 0,0 -8.602,-18.589 -11.641,-20.589 -47.699,19.031 -128.988,36.718 -183.949,37.699 -20.121,0.742 -24.57,1.293 -31.992,3.871 -41.879,13.75 -78.828,19.68 -112.891,-0.629 l -13.949,9.84 c 42.109,6.679 83.051,9.847 122.422,9.89 z M 1633.09,623.27 c 0,0 4.88,-6.61 7.89,-10.239 13.43,-16.172 21.6,-45.082 12.77,-45.082 -2.19,0 -3.24,2.031 -6.48,5.16 -12,17.77 -36.02,11.563 -45.32,-1.558 -9.57,-13.481 -10.58,-35.321 -3.2,-51.332 24.06,-49.571 70.16,-106.168 69.34,-112.66 24.64,55 44.84,70.511 63.12,110.781 6.56,19.961 6.6,31.609 1.52,46.961 -6.95,20.898 -40.62,30.429 -52.57,8.629 -3.95,-6.641 -7.07,-8.551 -9.73,-5.899 -5.47,5.469 3.98,35.348 15.08,47.617 1.95,2.153 5.62,7.622 5.62,7.622 l -58.04,0 z M 320.27,584.672 c 19.808,-0.231 29.218,-30.582 8.32,-43.363 -5.621,-3.161 -13,-2.731 -18.942,-0.079 -16.949,8.09 -18.199,33.29 1.563,41.571 3.199,1.328 6.25,1.91 9.059,1.871 z m 647.308,-1.012 c 7.07,-4.34 33.242,-15.898 33.242,-15.898 L 816.91,235.262 772.422,234.91 967.578,583.66 z M 374.34,582.879 c 11.012,1.25 18.859,-8.25 21.68,-16.141 3.902,-10.777 -3.09,-29.957 -22.5,-28.859 -22.27,1.281 -32.27,41.32 0.82,45 z m 632.5,-17.309 c 4.92,-2.691 22.81,-5.66 24.33,-9.101 0.71,-1.719 -0.66,-5.117 -1.05,-9.489 -0.98,-10.589 1.68,-22.308 8.08,-31.679 10.47,-14.571 -0.9,-7.852 -11.36,-7.781 -23.64,6.058 -53.75,-26.168 -42.309,-59.29 2.66,-7.351 2.11,-7.929 -10.551,-11.8 -28.75,-8.75 -41.281,-39.258 -27.5,-66.52 7.231,-14.18 7.43,-13.48 -5.23,-14.531 -35.199,-2.899 -55.629,-34.109 -40.859,-66.02 2.308,-4.961 0.82,-6.328 -6.84,-7.73 -24.02,-4.418 -34.801,-24.5 -37.813,-46.57 l -31.789,-0.309 182.891,330.82 z m 30.46,-11.718 61.06,-16.641 C 1073.01,451 1069.49,350.84 1100,235.02 l -140.352,-0.11 c 19.493,17.5 11.801,41.68 -11.019,46.988 22.109,12.692 22.152,46.481 -4.367,50.551 C 920.98,336 908.949,313.852 919.301,291.66 l -9.961,-2.691 c 0,0 -4.461,5.582 -5.469,8.551 -8.793,25.628 9.609,51.058 40.93,50.98 19.379,-0.039 23.359,5.43 12.66,17.301 -19.102,21.25 -13.082,51.14 11.879,62.898 11.48,5.391 18.238,1.832 18.238,1.832 l 0.621,-14.101 c 0,0 -4.679,-0.43 -8.277,-1.02 -27.582,-4.41 -22.461,-48.32 5.547,-47.961 15.431,0.231 26.441,11.91 26.441,28.711 0,4.719 0.04,11.68 0.04,11.68 14.14,-24.219 38.48,-25.981 48.83,-6.25 12.19,23.199 -9.92,37.769 -32.11,35.351 0,0 4.65,3.039 7.58,4.571 23.63,12.109 15.51,46.828 -10.63,46.828 -17.92,0 -28.35,-16.68 -22.57,-34.328 0.9,-2.813 3.08,-7.352 3.08,-7.352 l -10.661,-2.73 c 0,0 -2.379,1.871 -3.481,3.55 -18.277,28.598 11.102,60.079 48.092,52.93 13.55,-4.25 13.08,5.121 5.51,13.602 -8.21,12.187 -14.3,26.008 -8.29,39.84 z m -689.921,-12.461 32.031,-56.481 -35.89,-65.039 -35.59,60.93 39.449,60.59 z m -3.16,-29.371 -22.231,-30.629 21.762,-35.161 20.66,35.551 -20.191,30.239 z m -0.981,-11.532 14.461,-19.367 -14.578,-23.832 -14.25,22.34 14.367,20.859 z M 1005.47,439.48 c 6.72,0 12.23,-5.429 12.23,-12.191 0,-6.719 -5.51,-12.187 -12.23,-12.187 -6.759,0 -12.232,5.468 -12.232,12.187 0,6.762 5.473,12.191 12.232,12.191 z m 665.9,-67.152 c -9.38,-0.238 -19.53,-2.969 -30.08,-8.437 -11.37,-5.86 -11.37,-5.86 -15.78,-2.93 -10.82,7.187 -14.18,8.867 -26.37,8.867 -7.58,0 -12.81,-0.43 -12.81,-0.43 l 1.05,-29.257 c 26.25,0.738 33.48,-8.2 27.97,-24.02 -5.74,-7.191 -4.45,-110.351 -2.62,-150.16 -0.43,-19.531 8.25,-38.121 20.28,-49.41 18.75,-16.6408 51.95,-15.391 71.25,-1.531 12.89,9.3 19.02,24.808 21.79,40.589 1.29,32.34 0.55,64.801 0.55,97.192 l 20.78,-0.242 -0.19,29.3 -20.31,1.211 c 0,0 0.19,-0.82 -0.67,20.899 1.41,45.429 -21.91,67.109 -52.97,68.359 -0.62,0 -1.25,0 -1.87,0 z m -1.64,-29.488 c 17.15,-1.289 24.1,-8.09 28.08,-22.738 2.81,-10.43 3.87,-22.731 1.49,-26.602 -3.83,-6.328 -18.68,4.691 -38.09,28.359 -6.52,7.969 -9.41,12.071 -9.41,12.071 3.75,6.679 11.72,9.371 17.93,8.91 z m -31.18,-39.34 c 17.86,-15.352 20.36,-30.898 62.39,-45.66 0,0 1.21,1.64 0.51,-49.61 -0.79,-56.57 -4.18,-68.171 -21.25,-72.851 -14.81,-4.07 -28.72,2.812 -34.85,17.18 -6.29,14.652 -7.81,49.222 -7.58,115 0.08,23.871 0.78,35.941 0.78,35.941 z M 919.18,286.391 c 6.992,0 12.66,-5.661 12.66,-12.621 0,-6.989 -5.668,-12.649 -12.66,-12.649 -6.989,0 -12.621,5.66 -12.621,12.649 0,6.96 5.632,12.621 12.621,12.621 z m -19.141,-8.59 c -1.129,-0.512 0.039,-11.492 2.813,-16.02 -18.243,-1.133 -23.051,-15.082 -24.84,-26.832 l -16.332,0.031 c 2.73,39.809 37.23,40.711 38.359,42.821"
         inkscape:connector-curvature="0"
         id="path24"
         style="fill:#000000;fill-opacity:1;fill-rule:nonzero;stroke:none" /></g></g></svg>